<svg width="24" height="16" viewBox="0 0 24 16" fill="none" xmlns="http://www.w3.org/2000/svg">
<g clip-path="url(#clip0)">
<path d="M21.9348 0H1.99408C0.892778 0 0 0.89543 0 2V14C0 15.1046 0.892778 16 1.99408 16H21.9348C23.0361 16 23.9289 15.1046 23.9289 14V2C23.9289 0.89543 23.0361 0 21.9348 0Z" fill="#252525"/>
<path d="M8.97347 13C11.7267 13 13.9587 10.7614 13.9587 8C13.9587 5.23858 11.7267 3 8.97347 3C6.22023 3 3.98828 5.23858 3.98828 8C3.98828 10.7614 6.22023 13 8.97347 13Z" fill="#EB001B"/>
<path d="M14.9554 13C17.7086 13 19.9406 10.7614 19.9406 8C19.9406 5.23858 17.7086 3 14.9554 3C12.2022 3 9.97021 5.23858 9.97021 8C9.97021 10.7614 12.2022 13 14.9554 13Z" fill="#F79E1B"/>
<path fill-rule="evenodd" clip-rule="evenodd" d="M11.9643 3.99963C13.1751 4.91184 13.9584 6.36418 13.9584 8C13.9584 9.63582 13.1751 11.0882 11.9643 12.0004C10.7534 11.0882 9.97021 9.63582 9.97021 8C9.97021 6.36418 10.7534 4.91184 11.9643 3.99963Z" fill="#FF5F00"/>
</g>
<defs>
<clipPath id="clip0">
<rect width="23.9289" height="16" fill="white"/>
</clipPath>
</defs>
</svg>
