<svg width="53" height="60" viewBox="0 0 53 60" fill="none" xmlns="http://www.w3.org/2000/svg">
<path d="M39.375 0C39.1426 0 16.875 0 16.875 0C12.9075 0 9.37503 3.6394 9.37503 7.50004L7.20752 7.55066C3.24188 7.55066 0 11.1394 0 15V52.5C0 56.3607 3.53252 60 7.50004 60H35.6251C39.5925 60 43.125 56.3607 43.125 52.5H45C48.9675 52.5 52.5001 48.8607 52.5001 45.0001V15.045L39.375 0ZM35.6251 56.2501H7.50004C5.53129 56.2501 3.75007 54.4108 3.75007 52.5V15C3.75007 13.0894 5.3532 11.3119 7.32196 11.3119L9.37503 11.25V45.0001C9.37503 48.8607 12.9075 52.5 16.875 52.5H39.375C39.375 54.4107 37.5937 56.2501 35.6251 56.2501ZM48.7501 45.0001C48.7501 46.9106 46.9688 48.75 45 48.75H16.875C14.9062 48.75 13.125 46.9107 13.125 45.0001V7.50004C13.125 5.58945 14.9062 3.75006 16.875 3.75006H35.6251C35.595 8.06819 35.6251 11.2969 35.6251 11.2969C35.6251 15.1932 39.1312 18.7501 43.125 18.7501C43.125 18.7501 45.1163 18.7501 48.7501 18.7501V45.0001ZM43.125 15C41.1282 15 39.375 11.3719 39.375 9.42564C39.375 9.42564 39.375 7.45312 39.375 3.80814V3.80437L48.7501 15H43.125ZM39.375 26.2838H22.5C21.4651 26.2838 20.6251 27.1219 20.6251 28.1569C20.6251 29.1919 21.4651 30.03 22.5 30.03H39.375C40.41 30.03 41.25 29.1918 41.25 28.1569C41.25 27.1219 40.41 26.2838 39.375 26.2838ZM39.375 35.6494H22.5C21.4651 35.6494 20.6251 36.4875 20.6251 37.5224C20.6251 38.5575 21.4651 39.3956 22.5 39.3956H39.375C40.41 39.3956 41.25 38.5575 41.25 37.5224C41.25 36.4875 40.41 35.6494 39.375 35.6494Z" fill="black"/>
<path d="M39.375 0C39.1426 0 16.875 0 16.875 0C12.9075 0 9.37503 3.6394 9.37503 7.50004L7.20752 7.55066C3.24188 7.55066 0 11.1394 0 15V52.5C0 56.3607 3.53252 60 7.50004 60H35.6251C39.5925 60 43.125 56.3607 43.125 52.5H45C48.9675 52.5 52.5001 48.8607 52.5001 45.0001V15.045L39.375 0ZM35.6251 56.2501H7.50004C5.53129 56.2501 3.75007 54.4108 3.75007 52.5V15C3.75007 13.0894 5.3532 11.3119 7.32196 11.3119L9.37503 11.25V45.0001C9.37503 48.8607 12.9075 52.5 16.875 52.5H39.375C39.375 54.4107 37.5937 56.2501 35.6251 56.2501ZM48.7501 45.0001C48.7501 46.9106 46.9688 48.75 45 48.75H16.875C14.9062 48.75 13.125 46.9107 13.125 45.0001V7.50004C13.125 5.58945 14.9062 3.75006 16.875 3.75006H35.6251C35.595 8.06819 35.6251 11.2969 35.6251 11.2969C35.6251 15.1932 39.1312 18.7501 43.125 18.7501C43.125 18.7501 45.1163 18.7501 48.7501 18.7501V45.0001ZM43.125 15C41.1282 15 39.375 11.3719 39.375 9.42564C39.375 9.42564 39.375 7.45312 39.375 3.80814V3.80437L48.7501 15H43.125ZM39.375 26.2838H22.5C21.4651 26.2838 20.6251 27.1219 20.6251 28.1569C20.6251 29.1919 21.4651 30.03 22.5 30.03H39.375C40.41 30.03 41.25 29.1918 41.25 28.1569C41.25 27.1219 40.41 26.2838 39.375 26.2838ZM39.375 35.6494H22.5C21.4651 35.6494 20.6251 36.4875 20.6251 37.5224C20.6251 38.5575 21.4651 39.3956 22.5 39.3956H39.375C40.41 39.3956 41.25 38.5575 41.25 37.5224C41.25 36.4875 40.41 35.6494 39.375 35.6494Z" fill="black"/>
</svg>
