<svg width="255" height="71" viewBox="0 0 255 71" fill="none" xmlns="http://www.w3.org/2000/svg">
<path d="M8.67178 70.9891C8.5087 70.9927 8.34653 70.9639 8.19478 70.9045L2.3685 68.5533C2.05955 68.4211 1.81076 68.1801 1.67002 67.8767C1.54301 67.5619 1.54301 67.2105 1.67002 66.8957L3.5099 62.4302C2.47876 61.7321 1.5401 60.9081 0.716012 59.9775L-3.71334 61.8381C-3.86957 61.9075 -4.03824 61.945 -4.20934 61.9484C-4.38044 61.9518 -4.55048 61.921 -4.70938 61.8579C-4.86827 61.7948 -5.01277 61.7006 -5.13431 61.581C-5.25586 61.4614 -5.35197 61.3188 -5.41693 61.1616L-7.85305 55.3936C-7.98084 55.0847 -7.98084 54.7383 -7.85305 54.4294C-7.71863 54.1177 -7.46852 53.8694 -7.1546 53.7359L-3.03188 52.0445C-3.19944 50.9646 -3.23947 49.869 -3.15115 48.7799L-7.2057 47.0884C-7.51963 46.9549 -7.76973 46.7066 -7.90416 46.3949C-8.03195 46.086 -8.03195 45.7396 -7.90416 45.4307L-5.53616 39.6459C-5.40881 39.3353 -5.16429 39.0864 -4.85474 38.9524C-4.69878 38.8853 -4.53065 38.8507 -4.36071 38.8507C-4.19077 38.8507 -4.02261 38.8853 -3.86665 38.9524L-0.0335722 40.4916C0.792603 39.4204 1.75455 38.4596 2.82845 37.633L1.12486 33.5565C1.05738 33.4011 1.0215 33.2339 1.01924 33.0647C1.01698 32.8954 1.04842 32.7274 1.11173 32.5702C1.17504 32.4131 1.26899 32.2699 1.38818 32.1489C1.50738 32.0278 1.64948 31.9314 1.80631 31.865L7.59851 29.4462C7.75447 29.3792 7.92262 29.3446 8.09257 29.3446C8.26251 29.3446 8.43064 29.3792 8.5866 29.4462C8.89938 29.5727 9.15004 29.8155 9.28507 30.1228L11.142 34.5038C11.8736 34.453 12.608 34.453 13.3396 34.5038L15.2647 29.8014C15.328 29.6427 15.4229 29.4984 15.5437 29.3769C15.6646 29.2555 15.8088 29.1596 15.9679 29.0948C16.1269 29.0301 16.2975 28.9979 16.4694 29.0001C16.6413 29.0024 16.811 29.039 16.9683 29.1079L22.7945 31.4591C23.1073 31.5855 23.358 31.8283 23.493 32.1357C23.6118 32.4521 23.6118 32.8004 23.493 33.1167L21.6531 37.5992C22.732 38.4195 23.6997 39.3746 24.5322 40.4409L28.6379 38.7494C28.9565 38.6314 29.3073 38.6314 29.626 38.7494C29.9349 38.8816 30.1837 39.1226 30.3244 39.426L32.7606 45.1939C32.8304 45.3491 32.8682 45.5165 32.8716 45.6864C32.875 45.8563 32.844 46.0251 32.7804 46.1829C32.7169 46.3407 32.6221 46.4841 32.5016 46.6048C32.3811 46.7255 32.2375 46.8209 32.0791 46.8854L27.6668 48.7291C27.7609 49.708 27.7609 50.6935 27.6668 51.6723L32.1984 53.4991C32.3567 53.5639 32.5005 53.6592 32.6215 53.7795C32.7425 53.8998 32.8383 54.0428 32.9032 54.2001C32.9682 54.3574 33.0011 54.526 33 54.696C32.9989 54.866 32.9638 55.0341 32.8969 55.1906L30.5289 60.9755C30.4646 61.1313 30.3698 61.2729 30.2499 61.392C30.1299 61.511 29.9873 61.6052 29.8304 61.669C29.6773 61.7356 29.512 61.77 29.3449 61.77C29.1777 61.77 29.0124 61.7356 28.8593 61.669L24.1233 59.7576C23.6517 60.3132 23.1392 60.8334 22.5901 61.3138L24.447 65.7116C24.5194 65.8664 24.5591 66.0342 24.5637 66.2048C24.5684 66.3753 24.5378 66.545 24.474 66.7034C24.4102 66.8618 24.3144 67.0056 24.1926 67.1259C24.0708 67.2463 23.9255 67.3406 23.7656 67.4031L17.9734 69.8219C17.8175 69.8938 17.6485 69.9332 17.4767 69.9378C17.305 69.9424 17.1341 69.9121 16.9745 69.8487C16.815 69.7853 16.6702 69.6903 16.549 69.5693C16.4278 69.4484 16.3328 69.3041 16.2698 69.1454L14.5662 65.0689C13.737 65.1869 12.8995 65.2378 12.0619 65.2211L9.98355 70.2956C9.86505 70.5325 9.67488 70.7268 9.43966 70.8511C9.20445 70.9755 8.93596 71.0237 8.67178 70.9891ZM4.51501 66.6758L7.9222 68.0797L9.86429 63.3436C9.96788 63.0923 10.149 62.88 10.3816 62.7372C10.6142 62.5944 10.8863 62.5283 11.159 62.5486C12.4133 62.648 13.6755 62.5683 14.9069 62.3117C15.1978 62.2489 15.5017 62.2888 15.7661 62.4247C16.0304 62.5606 16.2387 62.7839 16.355 63.056L18.0586 66.9126L21.4657 65.4748L19.7622 61.3984C19.6529 61.1394 19.6321 60.852 19.7029 60.5802C19.7736 60.3083 19.9321 60.067 20.154 59.8929C21.0742 59.1822 21.8936 58.3516 22.5901 57.4234C22.7541 57.1938 22.9921 57.0268 23.2647 56.9499C23.5373 56.8729 23.8283 56.8908 24.0893 57.0005L28.5357 58.7935L29.9496 55.4105L25.6736 53.719C25.3987 53.6074 25.1707 53.4053 25.028 53.1466C24.8854 52.8879 24.8366 52.5883 24.89 52.2982C25.1631 50.9385 25.1976 49.5423 24.9922 48.1709C24.955 47.8956 25.0098 47.6157 25.1483 47.3743C25.2868 47.1329 25.5013 46.9433 25.7588 46.8347L29.8815 45.1432L28.4334 41.7602L24.5492 43.4517C24.2735 43.5676 23.9655 43.5837 23.6791 43.4971C23.3926 43.4106 23.1459 43.2269 22.9819 42.9781C22.0273 41.5482 20.7934 40.3231 19.3533 39.3752C19.1054 39.2184 18.9215 38.9794 18.8342 38.7007C18.7469 38.4221 18.7618 38.1217 18.8763 37.8529L20.5799 33.6073L17.1727 32.2033L15.3669 36.6181C15.2596 36.8801 15.0672 37.0989 14.8202 37.2399C14.5733 37.3809 14.286 37.4359 14.004 37.3962C12.8731 37.2499 11.7278 37.2499 10.5968 37.3962C10.3175 37.4314 10.0341 37.3763 9.7887 37.2393C9.54326 37.1022 9.34876 36.8903 9.23397 36.635L7.53038 32.5416L4.12319 33.9794L5.82679 37.8529C5.94241 38.1242 5.95794 38.4273 5.87069 38.7088C5.78344 38.9903 5.599 39.2323 5.34978 39.3921C3.90966 40.34 2.67574 41.5651 1.72112 42.995C1.56038 43.2429 1.3177 43.4274 1.03479 43.517C0.751877 43.6065 0.446404 43.5954 0.170851 43.4855L-3.40668 42.0309L-4.82066 45.4138L-1.05574 46.9362C-0.795048 47.042 -0.576884 47.2304 -0.435165 47.472C-0.293446 47.7137 -0.236102 47.9951 -0.272074 48.2724C-0.477561 49.7418 -0.425696 51.2354 -0.118757 52.6872C-0.0554328 52.976 -0.0956798 53.2777 -0.232536 53.5402C-0.369392 53.8027 -0.594269 54.0096 -0.868341 54.125L-4.75253 55.8165L-3.30446 59.1994L0.818224 57.5079C1.07695 57.4036 1.36272 57.3851 1.6329 57.4552C1.90308 57.5253 2.14318 57.6803 2.31739 57.897C3.31023 59.1801 4.54932 60.2552 5.96308 61.06C6.22655 61.2157 6.42485 61.4603 6.52181 61.7491C6.61876 62.0379 6.60789 62.3516 6.49119 62.6331L4.51501 66.6758ZM12.2493 56.8144C11.337 56.818 10.4333 56.6397 9.59171 56.2901C8.72973 55.9515 7.94489 55.4447 7.28358 54.7997C6.62228 54.1547 6.09795 53.3846 5.7416 52.535C5.01643 50.8258 5.0048 48.9005 5.70926 47.1828C6.41373 45.4651 7.77659 44.0956 9.49802 43.3756C11.2195 42.6556 13.1585 42.644 14.8885 43.3435C16.6185 44.0429 17.9978 45.3961 18.723 47.1053C19.4439 48.8152 19.4545 50.7387 18.7524 52.4563C18.0502 54.1739 16.6923 55.546 14.9751 56.2732C14.1105 56.6275 13.1847 56.8114 12.2493 56.8144ZM12.2493 45.3631C11.5103 45.3672 10.7838 45.5521 10.1339 45.9014C9.48402 46.2507 8.93085 46.7536 8.52327 47.3656C8.1157 47.9777 7.86629 48.68 7.79711 49.4105C7.72793 50.141 7.84109 50.8772 8.12662 51.5539C8.59236 52.6396 9.472 53.4981 10.5733 53.9418C11.6746 54.3856 12.908 54.3784 14.004 53.922C14.5474 53.6996 15.0402 53.3708 15.4528 52.9552C15.8655 52.5396 16.1897 52.0458 16.4061 51.5032C16.6863 50.8265 16.794 50.0916 16.7198 49.3636C16.6456 48.6357 16.3917 47.9372 15.9806 47.33C15.5696 46.7227 15.014 46.2256 14.3631 45.8825C13.7122 45.5394 12.9862 45.361 12.2493 45.3631Z" fill="white"/>
<path d="M179.381 40H158.289C157.947 40 157.619 39.8645 157.378 39.6232C157.136 39.382 157 39.0547 157 38.7136C157 38.3724 157.136 38.0452 157.378 37.8039C157.619 37.5626 157.947 37.4271 158.289 37.4271H179.381C182.872 37.4226 186.219 36.0368 188.687 33.5738C191.156 31.1107 192.544 27.7714 192.549 24.2882V15.7118C192.553 11.5462 194.214 7.55247 197.166 4.60691C200.118 1.66135 204.12 0.00454022 208.295 0H253.711C254.053 0 254.381 0.135542 254.622 0.376798C254.864 0.618054 255 0.945262 255 1.28645C255 1.62764 254.864 1.95486 254.622 2.19611C254.381 2.43737 254.053 2.5729 253.711 2.5729H208.295C204.804 2.57744 201.457 3.96317 198.989 6.42621C196.521 8.88926 195.132 12.2286 195.127 15.7118V24.2882C195.123 28.4538 193.462 32.4475 190.51 35.3931C187.558 38.3387 183.556 39.9955 179.381 40Z" fill="white"/>
</svg>
