<svg width="76" height="47" viewBox="0 0 76 47" fill="none" xmlns="http://www.w3.org/2000/svg">
<path d="M0.231359 45.4836C0.229078 45.3057 0.260458 45.1291 0.323637 44.9643C0.386824 44.7995 0.480528 44.6498 0.599226 44.524C0.717924 44.3982 0.85919 44.2988 1.01471 44.2319C1.17023 44.1649 1.33684 44.1317 1.50469 44.1341L57.4122 44.1341C61.6209 44.1293 65.656 42.3552 68.632 39.201C71.608 36.0469 73.2819 31.7703 73.2864 27.3097L73.2864 2.1181C73.2864 1.76018 73.4205 1.41691 73.6593 1.16382C73.8981 0.910731 74.222 0.768555 74.5597 0.768555C74.8974 0.768555 75.2213 0.910731 75.4601 1.16382C75.6989 1.41691 75.833 1.76018 75.833 2.1181L75.833 27.3097C75.824 32.4847 73.8804 37.445 70.4278 41.1043C66.9751 44.7636 62.295 46.8237 57.4122 46.8332L1.50469 46.8332C1.16698 46.8332 0.843099 46.691 0.604307 46.4379C0.365507 46.1848 0.231359 45.8415 0.231359 45.4836Z" fill="white" fill-opacity="0.5"/>
</svg>
