<svg width="277" height="81" viewBox="0 0 277 81" fill="none" xmlns="http://www.w3.org/2000/svg">
<path d="M44.7151 80.338C44.5372 80.3403 44.3606 80.3089 44.1958 80.2457C44.0309 80.1825 43.8812 80.0888 43.7554 79.9701C43.6296 79.8514 43.5303 79.7101 43.4633 79.5546C43.3964 79.3991 43.3631 79.2325 43.3655 79.0646V23.1571C43.3608 18.9484 41.5866 14.9134 38.4325 11.9374C35.2783 8.96137 31.0018 7.28748 26.5411 7.28298H1.34955C0.991626 7.28298 0.648355 7.14882 0.395266 6.91003C0.142176 6.67123 0 6.34736 0 6.00965C0 5.67195 0.142176 5.34806 0.395266 5.10927C0.648355 4.87047 0.991626 4.73633 1.34955 4.73633H26.5411C31.7162 4.7453 36.6765 6.68894 40.3358 10.1416C43.9951 13.5942 46.0551 18.2744 46.0646 23.1571V79.0646C46.0646 79.4024 45.9224 79.7262 45.6694 79.965C45.4163 80.2038 45.073 80.338 44.7151 80.338Z" fill="white"/>
<path d="M171.106 49.5409H78.041C77.683 49.5409 77.3398 49.4067 77.0867 49.1679C76.8336 48.9291 76.6914 48.6052 76.6914 48.2675C76.6914 47.9298 76.8336 47.606 77.0867 47.3672C77.3398 47.1284 77.683 46.9942 78.041 46.9942H171.106C177.353 46.9897 183.343 44.6474 187.762 40.4811C192.181 36.3148 194.668 30.6647 194.678 24.7704C194.683 18.2023 197.45 11.9044 202.373 7.26006C207.295 2.61568 213.97 0.00449719 220.931 0H275.651C276.009 0 276.352 0.134159 276.605 0.372954C276.858 0.611749 277 0.935619 277 1.27333C277 1.61103 276.858 1.9349 276.605 2.1737C276.352 2.41249 276.009 2.54665 275.651 2.54665H220.859C214.614 2.55115 208.625 4.89402 204.209 9.06081C199.793 13.2276 197.31 18.8777 197.305 24.7704C197.295 31.3284 194.534 37.616 189.624 42.2579C184.714 46.8999 178.056 49.5184 171.106 49.5409Z" fill="white"/>
</svg>
