<svg width="53" height="42" viewBox="0 0 53 42" fill="none" xmlns="http://www.w3.org/2000/svg">
<path d="M1.30437 41.2727C1.09589 41.2775 0.889394 41.2318 0.703007 41.1397C0.51662 41.0475 0.356044 40.9117 0.235321 40.7441C0.114597 40.5765 0.0374346 40.3822 0.0105981 40.1784C-0.0162385 39.9746 0.00808076 39.7674 0.0814054 39.575L3.88813 28.115V5.29705C3.88812 3.89513 4.45195 2.55036 5.45609 1.55746C6.46023 0.564561 7.8228 0.00449335 9.24515 0H46.6407C48.0661 0 49.433 0.55809 50.4409 1.55148C51.4488 2.54486 52.0149 3.89219 52.0149 5.29705V27.8094C52.0149 29.2143 51.4488 30.5616 50.4409 31.555C49.433 32.5484 48.0661 33.1065 46.6407 33.1065H15.1533L1.97617 41.086C1.77582 41.2122 1.54208 41.2771 1.30437 41.2727ZM9.24515 2.54665C8.50806 2.55114 7.80269 2.84289 7.2831 3.3582C6.7635 3.87352 6.47187 4.57054 6.47189 5.29705V28.4206C6.49788 28.5495 6.49788 28.6822 6.47189 28.8111L3.69868 37.1641L14.1715 30.8145C14.3745 30.6942 14.6065 30.6298 14.8433 30.6277H46.7097C47.4483 30.6233 48.1555 30.3321 48.6778 29.8172C49.2001 29.3024 49.4956 28.6054 49.5001 27.8773V5.29705C49.4956 4.56898 49.2001 3.87198 48.6778 3.35714C48.1555 2.84231 47.4483 2.5511 46.7097 2.54665H9.24515Z" fill="white"/>
<path d="M17.53 19.8811C19.2329 19.8811 20.6133 18.5205 20.6133 16.8421C20.6133 15.1636 19.2329 13.803 17.53 13.803C15.8272 13.803 14.4468 15.1636 14.4468 16.8421C14.4468 18.5205 15.8272 19.8811 17.53 19.8811Z" fill="white"/>
<path d="M28.6585 19.8811C30.3614 19.8811 31.7419 18.5205 31.7419 16.8421C31.7419 15.1636 30.3614 13.803 28.6585 13.803C26.9557 13.803 25.5752 15.1636 25.5752 16.8421C25.5752 18.5205 26.9557 19.8811 28.6585 19.8811Z" fill="white"/>
<path d="M39.7849 19.8811C41.4877 19.8811 42.8681 18.5205 42.8681 16.8421C42.8681 15.1636 41.4877 13.803 39.7849 13.803C38.0821 13.803 36.7017 15.1636 36.7017 16.8421C36.7017 18.5205 38.0821 19.8811 39.7849 19.8811Z" fill="white"/>
</svg>
