<svg width="79" height="234" viewBox="0 0 79 234" fill="none" xmlns="http://www.w3.org/2000/svg">
<path d="M67.6689 233.096H-11.0669C-11.5671 233.096 -11.9727 233.495 -11.9727 233.988V238.49C-11.9727 238.983 -11.5671 239.383 -11.0669 239.383H67.6689C68.1691 239.383 68.5746 238.983 68.5746 238.49V233.988C68.5746 233.495 68.1691 233.096 67.6689 233.096Z" fill="#39252B"/>
<path d="M65.1964 163.423H-8.44119C-9.66318 163.423 -10.6538 164.4 -10.6538 165.604V174.532C-10.6538 175.736 -9.66318 176.713 -8.44119 176.713H65.1964C66.4184 176.713 67.4091 175.736 67.4091 174.532V165.604C67.4091 164.4 66.4184 163.423 65.1964 163.423Z" fill="#9B7D84"/>
<path d="M69.2855 122.293C69.115 124.071 68.8429 125.838 68.4703 127.586C68.3797 128.058 68.2633 128.568 68.1468 129.091C66.5116 136.683 63.2516 143.844 58.5847 150.096C58.2741 150.479 57.9765 150.861 57.653 151.231C55.576 153.713 53.1743 155.913 50.5105 157.774L49.6695 158.335C44.7378 161.514 39.1007 163.474 33.2365 164.048C32.8225 164.048 32.4084 164.138 31.9426 164.163C30.6487 164.278 29.2901 164.329 27.8926 164.329C22.8296 164.376 17.7975 163.548 13.0253 161.88L12.1066 161.536C6.54639 159.359 1.56017 155.966 -2.47597 151.614C-2.76064 151.295 -3.04531 150.989 -3.31703 150.67C-6.65368 146.867 -9.42457 142.616 -11.5464 138.044L-11.9217 137.215C-14.117 132.453 -15.7035 127.441 -16.6445 122.293H69.2855Z" fill="#6059C9"/>
<path d="M0.877066 122.293C-2.22837 128.351 -6.11016 134.256 -11.4929 138.044L-11.8682 137.215C-6.79595 133.618 -3.10825 128.02 -0.145142 122.293H0.877066Z" fill="#9F9FFB"/>
<path d="M13.6475 122.293C8.42473 126.334 4.23294 131.522 1.40694 137.444C-0.339873 141.117 -2.47486 146.691 -2.37134 151.614C-2.65601 151.295 -2.94068 150.989 -3.2124 150.67C-2.90498 146.538 -1.87173 142.49 -0.158721 138.707C2.54807 132.335 6.77884 126.704 12.1725 122.293H13.6475Z" fill="#9F9FFB"/>
<path d="M50.5228 157.773L49.6817 158.335C48.4093 151.948 48.6835 145.356 50.4821 139.093C52.2808 132.831 55.5531 127.075 60.0332 122.293H61.3271C56.7905 126.932 53.4434 132.572 51.5641 138.743C49.6849 144.915 49.3278 151.439 50.5228 157.773Z" fill="#9F9FFB"/>
<path d="M38.4648 156.97C36.8086 159.38 35.0618 161.74 33.2891 164.048C32.875 164.048 32.461 164.137 31.9951 164.163C34.583 160.932 37.0027 157.591 39.2541 154.139C40.548 152.149 42.8642 149.254 42.0102 146.703C40.9362 143.477 36.4463 144.841 34.1431 145.619C25.5255 148.565 18.9653 155.159 13.0779 161.88L12.1592 161.536C14.777 158.471 17.5951 155.578 20.5956 152.876C23.962 149.787 27.8279 147.274 32.034 145.441C34.8806 144.267 40.0693 142.24 42.3854 145.441C44.9474 148.974 40.3539 154.202 38.4648 156.97Z" fill="#9F9FFB"/>
<path d="M68.4829 127.586C68.3923 128.058 68.2759 128.568 68.1594 129.091C62.2972 134.583 58.8624 142.128 58.5973 150.096C58.2867 150.479 57.9891 150.861 57.6656 151.231C57.6381 146.755 58.5901 142.326 60.4569 138.245C62.3236 134.165 65.0612 130.529 68.4829 127.586Z" fill="#9F9FFB"/>
<path d="M50.6798 122.293C48.9545 123.917 47.1517 125.494 45.2712 127.025C40.8104 130.735 36.1264 134.176 31.2449 137.33C28.9076 138.97 26.4364 140.416 23.8566 141.653C21.8381 142.508 19.4184 142.928 17.5293 141.526C13.544 138.592 15.6919 132.598 17.5293 129.116C18.7841 126.595 20.4446 124.291 22.4462 122.293H23.7401C21.1663 124.691 19.1224 127.587 17.7363 130.8C16.7529 133.083 15.7566 135.837 16.4424 138.312C17.4646 141.844 20.9841 141.985 23.8825 140.646C28.2891 138.398 32.4737 135.751 36.3819 132.738C40.8954 129.505 45.2157 126.018 49.3212 122.293H50.6798Z" fill="#9F9FFB"/>
<path d="M26.3543 124.716C50.0725 124.716 69.2999 123.632 69.2999 122.293C69.2999 120.955 50.0725 119.87 26.3543 119.87C2.63609 119.87 -16.5913 120.955 -16.5913 122.293C-16.5913 123.632 2.63609 124.716 26.3543 124.716Z" fill="#2B2B39"/>
<path d="M-13.8357 67.5937C-14.9614 74.5954 -19.749 77.3884 -15.5049 81.0997C-11.2608 84.8109 -3.05725 90.1419 -7.37898 97.0287C-11.7007 103.916 -6.08505 106.058 -0.365871 110.394C4.11113 113.838 5.13335 116.771 4.33111 122.6H27.6219C27.7439 118.557 26.456 114.596 23.973 111.376C18.1503 103.622 16.8822 105 17.5033 99.2989C18.1244 93.5981 19.496 91.7871 14.4108 87.1448C9.32568 82.5025 6.3367 79.1356 8.43287 72.7844C10.529 66.4331 6.66018 60.2222 0.462246 56.6385C-5.73569 53.0548 -2.95373 45.7852 -6.39559 36.3604C-9.83745 26.9356 -20.3442 21.5664 -20.3442 21.5664C-12.5806 33.7077 -21.6381 44.0125 -21.017 52.8379C-20.3959 61.6633 -12.71 60.5666 -13.8357 67.5937Z" fill="#467B6C"/>
<path d="M13.3742 122.599H14.8234L-9.38608 50.134C-9.44519 49.9649 -9.5687 49.8251 -9.73049 49.7442C-9.89228 49.6633 -10.0797 49.6476 -10.253 49.7004C-10.4255 49.7613 -10.5675 49.8855 -10.6495 50.047C-10.7314 50.2086 -10.747 50.395 -10.6929 50.5676L13.3742 122.599Z" fill="#253F3D"/>
<path d="M51.171 122.599C50.3558 116.733 51.3521 113.799 55.8421 110.356C61.4578 106.032 67.1122 103.89 62.8164 97.054C58.5205 90.2181 66.6982 84.8872 70.8905 81.2014C75.0829 77.5157 70.3471 74.7482 69.2343 67.7848C68.1215 60.8214 75.7039 61.8672 76.3121 53.0928C76.9202 44.3184 67.8627 34.0646 75.6392 21.9998C75.6392 21.9998 65.1972 27.3307 61.7683 36.7045C58.3394 46.0783 61.1084 53.284 54.9493 56.8805C48.7902 60.477 44.9213 66.6115 47.0175 72.9372C49.1136 79.2629 46.1247 82.6171 41.0783 87.2211C36.032 91.8251 37.3648 93.6744 37.9988 99.3114C38.6328 104.948 37.3647 103.622 31.5291 111.325C29.0332 114.556 27.7567 118.542 27.919 122.599H51.171Z" fill="#467B6C"/>
<path d="M42.113 122.599L66.1025 50.8354C66.1308 50.7508 66.1418 50.6616 66.135 50.5728C66.1282 50.484 66.1036 50.3975 66.0627 50.3181C66.0218 50.2387 65.9654 50.168 65.8968 50.1102C65.8281 50.0523 65.7485 50.0084 65.6626 49.9809C65.5776 49.9533 65.488 49.9425 65.3988 49.9494C65.3096 49.9563 65.2227 49.9806 65.1432 50.021C65.0637 50.0614 64.9932 50.117 64.9357 50.1846C64.8782 50.2521 64.835 50.3303 64.8086 50.4146L40.6768 122.599H42.113Z" fill="#253F3D"/>
<path d="M9.98554 65.3489C13.2851 70.7054 20.337 79.1227 13.3239 85.0786C6.31077 91.0344 11.7323 95.1921 16.3258 101.658C20.9193 108.124 19.8841 111.988 14.4496 121.554C14.2633 121.88 14.0948 122.217 13.945 122.561H42.6832C43.7084 118.638 43.5145 114.501 42.1268 110.688C38.5038 100.485 36.6923 101.505 39.2801 95.6384C41.868 89.7718 43.9383 88.2414 40.0565 81.6096C36.1747 74.9778 34.1044 70.3865 38.5038 64.2648C42.9032 58.1432 40.8329 50.236 35.3984 44.3822C29.9638 38.5283 35.3984 31.6287 34.8808 20.4056C34.3632 9.18253 24.9304 0 24.9304 0C29.2134 15.5593 16.0023 23.6195 13.6732 33.2611C11.3442 42.9027 19.8841 44.2801 16.2611 51.4093C12.6381 58.5385 6.68601 60.0052 9.98554 65.3489Z" fill="#467B6C"/>
<path d="M28.5404 122.599L26.9618 34.2048C26.9618 34.1049 26.9416 34.006 26.9024 33.9139C26.8633 33.8218 26.8059 33.7383 26.7336 33.6682C26.6613 33.5982 26.5756 33.543 26.4815 33.506C26.3874 33.4689 26.2867 33.4507 26.1854 33.4524C26.0835 33.454 25.9828 33.4755 25.8893 33.5155C25.7957 33.5555 25.7111 33.6133 25.6402 33.6855C25.5693 33.7578 25.5135 33.8431 25.4761 33.9366C25.4387 34.03 25.4203 34.1299 25.422 34.2304L27.0006 122.599H28.5404Z" fill="#253F3D"/>
<path d="M17.5555 176.712L15.3041 183.829L-15.9056 283H-22L-2.20284 185.857L-0.339573 176.712H17.5555Z" fill="#64474B"/>
<path d="M-0.340348 176.712H17.5547L15.3033 183.829L-2.20361 185.857L-0.340348 176.712Z" fill="#39252B"/>
<path d="M78.9525 283H72.8451L40.7168 180.896L39.397 176.712H57.2921L57.7449 178.931L78.9525 283Z" fill="#64474B"/>
<path d="M57.7449 178.931L40.7168 180.896L39.397 176.712H57.2921L57.7449 178.931Z" fill="#39252B"/>
<path d="M65.3916 219.424H-8.78957C-10.5475 219.424 -11.9727 220.829 -11.9727 222.561V222.574C-11.9727 224.307 -10.5475 225.711 -8.78957 225.711H65.3916C67.1495 225.711 68.5746 224.307 68.5746 222.574V222.561C68.5746 220.829 67.1495 219.424 65.3916 219.424Z" fill="#9B7D84"/>
</svg>
