<svg width="271" height="553" viewBox="0 0 271 553" fill="none" xmlns="http://www.w3.org/2000/svg">
<path d="M154.108 175.939L155.699 178.271L157.416 180.686L160.829 185.556C163.146 188.789 165.491 192.008 167.864 195.214C170.23 198.412 172.638 201.57 175.045 204.686C177.453 207.802 179.903 210.877 182.394 213.869C184.886 216.862 187.378 219.813 189.911 222.619C192.444 225.426 194.999 228.129 197.532 230.585C199.781 232.815 202.188 234.884 204.735 236.776C205.781 237.519 206.828 238.056 207.059 238.262C207.289 238.468 207.184 238.262 207.163 238.262H206.347C206.012 238.241 205.676 238.241 205.342 238.262C204.735 238.284 204.131 238.366 203.541 238.51C203.124 238.609 202.717 238.747 202.327 238.922C202.115 239.022 201.912 239.14 201.72 239.273C201.489 239.459 201.552 239.479 201.72 239.397C202.505 238.89 203.211 238.271 203.813 237.56C204.823 236.467 205.767 235.316 206.64 234.114C207.624 232.814 208.587 231.39 209.55 229.883C211.476 226.891 213.319 223.692 215.099 220.267C216.878 216.841 218.595 213.395 220.249 209.948C223.557 202.829 226.677 195.503 229.65 188.012C231.158 184.297 232.602 180.541 234.005 176.785L236.099 171.11L237.125 168.304L238.109 165.538L238.213 165.27C239.141 162.439 241.143 160.072 243.802 158.664C246.46 157.256 249.568 156.917 252.475 157.717C255.381 158.517 257.861 160.395 259.394 162.957C260.928 165.519 261.396 168.566 260.7 171.461L260.051 174.639L259.402 177.735C258.941 179.798 258.46 181.862 257.978 183.926C257.015 188.053 256.01 192.18 254.921 196.308C252.828 204.459 250.357 212.61 247.572 220.762C246.17 224.889 244.683 229.017 243.029 233.041C241.375 237.065 239.553 241.296 237.439 245.423C236.371 247.487 235.24 249.55 233.942 251.758C232.585 254.03 231.103 256.228 229.503 258.341C227.574 260.881 225.385 263.218 222.971 265.317C221.381 266.671 219.663 267.874 217.841 268.907C216.732 269.539 215.577 270.091 214.387 270.558C213.027 271.093 211.627 271.521 210.199 271.838C208.594 272.168 206.961 272.348 205.321 272.374C204.461 272.402 203.6 272.367 202.746 272.271H202.096H201.615L200.694 272.147C199.479 271.941 198.391 271.693 197.344 271.425C196.297 271.157 195.376 270.827 194.496 270.517C191.455 269.386 188.531 267.97 185.765 266.286C183.316 264.821 181.159 263.335 179.107 261.829C177.055 260.323 175.171 258.816 173.35 257.268C169.727 254.214 166.377 251.077 163.195 247.94C160.012 244.804 156.914 241.626 153.982 238.406C148.057 231.988 142.488 225.426 137.086 218.781C134.406 215.438 131.789 212.074 129.193 208.69C127.894 206.997 126.596 205.284 125.319 203.572L123.414 200.971L121.446 198.247C118.588 194.031 117.512 188.881 118.448 183.895C119.385 178.909 122.258 174.48 126.458 171.551C130.658 168.622 135.852 167.424 140.934 168.213C146.016 169.002 150.585 171.715 153.668 175.774L153.836 176.022L154.108 175.939Z" fill="#C1725C"/>
<path d="M203.101 236.549C200.794 239.658 199.351 243.307 198.914 247.135C198.788 248.126 200.359 248.105 200.484 247.135C200.947 243.568 202.347 240.182 204.546 237.312C205.153 236.528 203.771 235.744 203.185 236.549H203.101Z" fill="#7D351D"/>
<path d="M201.155 239.108L195.649 241.481C194.727 241.873 195.523 243.215 196.444 242.823L201.951 240.449C202.872 240.057 202.076 238.716 201.155 239.108Z" fill="#7D351D"/>
<path d="M268.783 155.777C268.783 155.777 266.228 172.988 257.79 176.826C250.693 180.046 237.335 169.418 237.335 169.418C231.975 164.052 230.949 160.73 228.96 154.25C226.971 147.77 236.958 140.217 236.958 140.217C236.958 140.217 243.7 114.111 247.741 111.903C251.781 109.695 248.285 134.851 248.285 134.851C248.81 134.346 249.454 133.978 250.16 133.78C250.865 133.582 251.61 133.56 252.326 133.716C258.331 135.488 263.85 138.579 268.468 142.755C271.986 146.284 268.783 155.777 268.783 155.777Z" fill="#C1725C"/>
<path d="M233 156.995C237.878 154.663 244.264 152.166 247.342 147.502C248.493 145.727 249.268 142.982 247.467 141.311C245.667 139.639 243.28 140.279 241.374 140.341C241.188 140.371 241.019 140.465 240.897 140.607C240.775 140.749 240.707 140.929 240.707 141.115C240.707 141.301 240.775 141.481 240.897 141.622C241.019 141.764 241.188 141.858 241.374 141.889C243.008 141.889 246.023 141.29 246.881 143.168C247.509 144.592 246.127 146.635 245.206 147.667C244.386 148.517 243.481 149.285 242.505 149.957C239.259 152.145 235.818 154.037 232.225 155.612C231.304 156.066 232.099 157.387 233 156.953V156.995Z" fill="#7D351D"/>
<path d="M247.256 145.954C253.021 150.506 259.892 153.494 267.189 154.621C268.173 154.786 268.613 153.301 267.608 153.135C260.575 152.078 253.944 149.233 248.366 144.881C247.591 144.282 246.482 145.355 247.256 145.975V145.954Z" fill="#7D351D"/>
<path d="M252.763 153.3C250.879 155.705 249.646 158.543 249.181 161.546C248.716 164.55 249.034 167.621 250.104 170.47C250.439 171.419 251.968 171.007 251.633 170.078C250.62 167.426 250.318 164.561 250.754 161.76C251.191 158.959 252.351 156.316 254.124 154.085C254.731 153.28 253.371 152.516 252.763 153.3Z" fill="#7D351D"/>
<path d="M251.675 147.254C252.438 143.218 253.98 139.365 256.219 135.903C256.805 135.099 255.444 134.335 254.858 135.119C252.56 138.703 250.963 142.678 250.147 146.841C250.112 147.033 250.151 147.232 250.257 147.398C250.363 147.563 250.528 147.684 250.72 147.735C250.911 147.787 251.115 147.766 251.292 147.677C251.469 147.588 251.606 147.437 251.675 147.254Z" fill="#7D351D"/>
<path d="M257.538 151.031C258.42 146.929 259.946 142.988 262.06 139.35C262.563 138.484 261.202 137.699 260.72 138.566C258.523 142.317 256.933 146.383 256.009 150.618C255.821 151.588 257.329 152.021 257.538 151.031Z" fill="#7D351D"/>
<path d="M263.295 152.063L263.17 152.434L264.698 152.847C265.158 149.529 266.414 146.366 268.362 143.622C268.948 142.817 267.588 142.033 267.022 142.838C264.991 145.694 263.671 148.981 263.17 152.434C263.135 152.627 263.174 152.825 263.28 152.991C263.386 153.156 263.551 153.277 263.743 153.328C263.934 153.38 264.138 153.359 264.315 153.27C264.492 153.181 264.629 153.03 264.698 152.847L264.824 152.475C265.138 151.547 263.63 151.134 263.295 152.063Z" fill="#7D351D"/>
<path d="M247.174 135.47C246.368 137.442 245.914 139.537 245.834 141.661C245.864 141.845 245.96 142.012 246.104 142.132C246.248 142.253 246.43 142.319 246.619 142.319C246.808 142.319 246.99 142.253 247.134 142.132C247.278 142.012 247.374 141.845 247.404 141.661C247.492 139.671 247.924 137.71 248.681 135.862C249.037 134.934 247.53 134.521 247.174 135.45V135.47Z" fill="#7D351D"/>
<path d="M69.5216 305.145C69.5216 305.145 31.3947 321.654 24.2132 371.348C17.0317 421.041 0.49117 439.614 11.6508 462.892C22.8104 486.17 100.928 459.012 166.168 459.941C231.409 460.87 216.9 412.105 204.589 392.211C192.277 372.318 179.338 314.679 159.301 313.07C139.264 311.46 69.5216 305.145 69.5216 305.145Z" fill="#D03F23"/>
<path d="M55.9723 323.264C46.2574 327.887 40.3531 337.256 37.5056 347.244C33.8206 360.224 35.6631 373.845 36.6262 387.073C38.0341 401.893 36.2064 416.839 31.2662 430.905C28.0628 439.531 21.2373 454.039 34.03 458.579C39.9343 460.642 46.069 458.579 51.6383 456.515C58.309 453.97 65.1423 451.861 72.0941 450.2C86.7465 446.778 101.822 445.45 116.858 446.259C141.983 447.579 174.227 454.059 193.677 433.423C202.052 424.528 205.988 411.672 201.005 400.177C196.022 388.682 184.695 380.593 181.994 368.025C181.785 367.055 180.277 367.468 180.487 368.438C182.581 378.591 190.432 385.958 196.001 394.378C199.289 398.911 201.265 404.239 201.717 409.794C201.845 415.452 200.35 421.032 197.404 425.89C183.271 449.932 150.944 447.394 126.992 445.433C113.566 444.133 100.035 444.299 86.6456 445.929C79.9904 446.833 73.4022 448.163 66.9226 449.911C60.3901 451.645 54.1717 454.039 47.7858 456.267C41.9653 458.207 33.695 459.404 29.6541 453.523C26.0738 448.384 28.7747 441.45 30.8266 436.25C35.7457 424.422 38.4075 411.801 38.6781 399.021C38.7828 383.895 35.1606 368.582 37.7149 353.517C39.8087 341.837 45.4827 330.033 56.7679 324.626C57.6683 324.193 56.7679 322.851 55.9723 323.285V323.264Z" fill="#750021"/>
<path d="M132.312 399.455C130.679 399.867 129.046 400.239 127.413 400.61C106.476 405.336 84.3868 407.255 68.9769 403.623C61.3767 401.849 56.4145 392.665 53.3995 382.409C52.3889 379.651 51.6868 376.794 51.3058 373.886C49.4214 345.407 56.5401 333.314 56.5401 333.314L170.021 320.932C170.021 320.932 173.789 327.784 177.977 336.719C181.187 343.489 183.984 350.442 186.352 357.542C187.586 361.146 188.435 364.867 188.885 368.644C189.827 378.715 162.839 391.902 132.312 399.455Z" fill="#6059C9"/>
<path d="M127.244 410.929C124.983 448.735 113.174 517.27 105.511 549.772C105.302 550.577 105.113 551.361 104.946 552.104L104.004 555.881C97.3246 581.739 62.7571 669.733 44.4369 715.733C44.1647 716.393 43.9134 717.033 43.6622 717.672C42.6572 720.169 41.2125 724.751 40.3331 726.959C36.6482 726.422 32.7538 725.803 29.0689 725.287C19.5214 723.946 10.8115 722.873 1.22217 721.944C1.49435 720.149 1.8084 715.052 2.12246 713.009C2.22715 712.369 2.33185 711.688 2.43654 710.945C5.95401 688.926 11.3349 655.226 16.318 625.014C24.5464 574.908 36.8994 547.833 36.8994 547.833C36.8994 547.833 42.9294 537.37 45.9444 507.694C48.4359 483.095 55.5337 404.676 57.2924 378.405L57.8577 369.986C57.8577 369.986 115.561 365.549 125.925 385.236C126.742 386.807 127.253 388.515 127.433 390.272C127.869 397.153 127.806 404.056 127.244 410.929Z" fill="#6059C9"/>
<path d="M105.512 549.772C105.302 550.577 105.114 551.361 104.946 552.104C96.6373 552.324 88.4903 549.812 81.7897 544.964C80.5753 544.077 81.7897 542.054 82.9831 542.9C89.476 547.66 97.4263 550.085 105.512 549.772Z" fill="#2B2B39"/>
<path d="M64.6644 422.712C64.3954 422.701 64.1395 422.595 63.9426 422.414C63.7458 422.233 63.621 421.988 63.5907 421.724C63.5604 421.461 63.6266 421.195 63.7774 420.975C63.9282 420.755 64.1536 420.596 64.4132 420.525C69.1801 419.159 73.6076 416.833 77.4153 413.694C86.1671 406.595 91.0246 396.463 91.8202 383.544C91.8396 383.248 91.9774 382.973 92.2032 382.777C92.4289 382.582 92.7242 382.483 93.0241 382.502C93.324 382.521 93.6038 382.657 93.8021 382.879C94.0004 383.102 94.1009 383.393 94.0814 383.688C93.0136 400.611 85.1621 410.31 78.7762 415.469C74.7153 418.799 69.9948 421.259 64.9157 422.692L64.6644 422.712Z" fill="#2B2B39"/>
<path d="M206.178 731.994C206.178 732.696 206.178 733.377 206.032 734.058L205.194 745.718L202.137 745.388L171.841 742.148L167.926 741.735C167.926 741.735 167.737 737.814 167.36 731.148C167.36 730.488 167.36 729.807 167.235 729.085C165.832 705.291 162.314 652.729 156.494 615.129C148.747 564.961 156.075 536.029 156.075 536.029C156.075 536.029 156.934 521.934 147.7 493.682C144.519 482.906 141.905 471.974 139.87 460.932C138.99 456.495 138.111 451.852 137.232 447.084C134.363 431.69 131.557 415.056 129.15 400.28C128.794 398.072 128.438 395.885 128.082 393.759L127.705 391.365C124.481 371.121 122.282 356.283 122.282 356.283C122.282 356.283 128.417 353.518 136.938 350.752C145.46 347.987 156.975 344.954 166.544 345.057C175.505 345.16 182.98 347.884 185.513 355.747C186.581 359.131 187.732 363.196 188.905 367.84C190.517 374.32 192.213 381.873 193.93 390.107C196.024 400.157 198.117 411.197 200.211 422.527C201.844 431.71 203.435 441.1 204.943 450.262C210.073 481.486 214.114 510.295 215.202 521.273C215.454 523.853 215.621 527.217 215.705 531.2C215.705 532.004 215.705 532.83 215.705 533.697C216.291 578.561 208.879 692.455 206.178 731.994Z" fill="#6059C9"/>
<path d="M215.662 533.572C209.403 535.961 202.513 536.223 196.086 534.315C194.641 533.882 195.248 531.633 196.714 532.087C202.923 533.927 209.588 533.569 215.558 531.075C215.662 531.88 215.662 532.706 215.662 533.572Z" fill="#2B2B39"/>
<path d="M65.3524 377.023C65.0479 377 64.7462 377.095 64.5116 377.287C64.277 377.48 64.1279 377.755 64.0961 378.055C63.9914 379.19 52.4968 493.62 47.6393 538.36C46.76 540.94 32.1876 584.112 27.9164 607.246C24.0848 628.089 12.0668 684.922 6.28809 711.77C7.02089 711.997 7.77463 712.183 8.50744 712.39C14.2024 685.562 26.2414 628.481 30.0729 607.658C34.4279 584.071 49.6284 539.413 49.775 538.959V538.711C54.6115 494.053 66.127 379.417 66.2317 378.261C66.265 377.984 66.1937 377.705 66.0315 377.477C65.8694 377.248 65.6276 377.087 65.3524 377.023Z" fill="#2B2B39"/>
<path d="M127.601 393.8C127.394 393.801 127.191 393.745 127.014 393.64C126.836 393.534 126.692 393.383 126.596 393.202C126.456 392.936 126.428 392.627 126.518 392.341C126.608 392.055 126.809 391.815 127.078 391.675C130.871 389.451 134.147 386.463 136.69 382.907C139.233 379.352 140.988 375.307 141.839 371.038C141.85 370.88 141.894 370.726 141.969 370.586C142.044 370.447 142.148 370.324 142.274 370.225C142.4 370.127 142.545 370.056 142.701 370.017C142.856 369.978 143.018 369.971 143.177 369.997C143.335 370.023 143.486 370.081 143.62 370.168C143.754 370.255 143.869 370.369 143.956 370.502C144.042 370.635 144.1 370.784 144.125 370.941C144.15 371.097 144.141 371.257 144.1 371.41C143.238 376.048 141.365 380.446 138.61 384.301C135.856 388.156 132.285 391.376 128.145 393.739C127.971 393.8 127.785 393.821 127.601 393.8Z" fill="#2B2B39"/>
<path d="M174.564 731.148C174.29 731.129 174.032 731.011 173.839 730.817C173.646 730.623 173.532 730.367 173.517 730.096C173.517 728.92 165.896 612.838 163.363 586.361C160.934 560.854 164.661 524.204 164.996 520.861C156.37 494.796 132.585 391.056 132.355 390.003C132.286 389.711 132.337 389.403 132.498 389.147C132.659 388.892 132.916 388.71 133.213 388.641C133.513 388.58 133.825 388.636 134.083 388.798C134.341 388.959 134.525 389.215 134.595 389.508C134.825 390.561 158.736 494.755 167.257 520.386C167.297 520.542 167.297 520.705 167.257 520.861C167.257 521.253 163.07 559.761 165.603 586.134C168.137 612.508 175.653 728.775 175.737 729.951C175.754 730.249 175.652 730.542 175.452 730.766C175.252 730.99 174.971 731.127 174.669 731.148H174.564Z" fill="#2B2B39"/>
<path d="M169.999 328.01C158.902 330.844 147.607 332.866 136.207 334.057L133.778 334.325C107.67 336.717 81.414 337.131 55.2417 335.563C55.472 327.907 55.2417 320.065 54.802 312.636C54.802 312.079 54.802 311.542 54.802 310.985C53.483 290.926 50.6146 274.376 50.6146 273.839C50.4471 272.745 50.2586 271.59 50.0283 270.372C50.0283 269.877 49.8399 269.34 49.7352 268.804C49.0652 265.378 48.1858 261.581 47.118 257.536C46.5737 255.472 45.9455 253.12 45.2965 250.85C44.6474 248.58 43.9565 246.289 43.2027 243.957C43.2027 243.668 43.0143 243.379 42.9306 243.09C42.8468 242.801 42.5956 242.1 42.449 241.584C41.9884 240.16 41.5068 238.736 41.0252 237.291C40.5437 235.847 40.0412 234.402 39.5178 232.958C39.2246 232.091 38.9106 231.245 38.6175 230.399C38.5525 230.258 38.4966 230.113 38.45 229.965C38.1987 229.305 37.9684 228.645 37.7171 227.902C37.1937 226.478 36.6494 225.075 36.105 223.671L35.4978 222.123C34.3672 219.276 33.2156 216.469 32.0012 213.704C23.2076 193.5 21.7838 170.738 42.9515 163.784C44.4799 163.268 46.0083 162.793 47.474 162.339C50.2168 161.493 52.813 160.709 55.1998 160.028L56.9586 159.532C61.3135 158.315 64.7892 157.469 66.841 156.932L68.1391 156.623H68.4741H68.7882L113.071 160.152L117.258 160.502L119.582 160.771L121.194 160.956C125.654 161.514 129.444 162.133 132.689 162.834C135.781 163.457 138.803 164.377 141.713 165.579C142.893 166.091 144.027 166.698 145.105 167.395C145.533 167.676 145.945 167.979 146.34 168.303C150.674 171.729 152.098 176.434 153.417 183.265L153.731 184.977C154.129 187.165 154.527 189.559 155.029 192.159C155.029 192.407 155.029 192.654 155.176 192.902C155.166 192.984 155.166 193.067 155.176 193.15C155.301 193.872 155.448 194.574 155.615 195.213C155.783 195.853 155.825 196.224 155.95 196.72C156.244 197.937 156.537 199.155 156.872 200.372C157.521 202.787 158.233 205.181 158.965 207.533L159.196 208.276L159.447 209.04C160.954 213.642 162.588 218.058 164.053 222.227C164.221 222.681 164.367 223.155 164.535 223.609C165.309 225.797 166.021 227.922 166.628 229.924C166.619 230.048 166.619 230.172 166.628 230.296C166.754 230.667 166.859 231.039 166.963 231.389C167.55 233.453 168.052 235.372 168.387 237.188C168.836 239.381 168.977 241.624 168.806 243.854C168.743 244.551 168.617 245.242 168.429 245.918C167.954 247.55 167.352 249.144 166.628 250.685V250.912C166.335 251.531 166.021 252.15 165.707 252.748C164.854 254.336 163.918 255.879 162.902 257.371C161.021 260.131 158.92 262.739 156.62 265.172C156.055 265.791 155.72 266.1 155.72 266.1C155.71 266.148 155.71 266.197 155.72 266.245C155.72 266.616 155.72 266.988 155.846 267.38C156.034 268.907 156.306 270.702 156.641 272.766C156.641 272.931 156.893 274.19 157.269 276.274C157.374 276.769 157.458 277.306 157.584 277.884C158.002 280.113 158.568 283.002 159.279 286.386L159.656 288.12C161.98 298.706 165.414 313.214 169.999 328.01Z" fill="#F0C86A"/>
<path d="M37.5276 227.964C37.5679 227.836 37.5679 227.7 37.5276 227.572C34.6802 221.154 40.7101 215.85 46.2585 213.807C52.1208 211.859 58.3907 211.418 64.474 212.528C75.9477 214.282 86.7095 219.317 97.8063 222.557C119.267 228.748 142.884 231.679 164.324 223.775L164.638 223.672C164.471 223.218 164.324 222.743 164.157 222.289C161.498 223.218 158.985 223.94 156.871 224.476C145.379 227.265 133.45 227.84 121.738 226.169C109.704 224.424 97.888 221.45 86.4792 217.295C76.0105 213.663 65.0184 209.473 53.6285 210.608C46.8448 211.29 36.8786 215.21 35.3711 222.186L37.5276 227.964Z" fill="#F8E6BA"/>
<path d="M146.319 168.303C143.995 172.699 140.394 178.064 135.536 179.282C129.904 180.685 125.235 175.402 122.974 171.027C121.303 167.789 120.178 164.304 119.645 160.709L121.257 160.895C121.706 163.603 122.501 166.245 123.623 168.757C125.842 173.648 131.098 180.314 137.149 177.012C140.681 174.626 143.46 171.307 145.168 167.437C145.566 167.707 145.95 167.996 146.319 168.303Z" fill="#F8E6BA"/>
<path d="M153.709 184.978C149.522 185.493 145.335 185.452 141.608 185.617C126.344 186.298 110.558 185.617 96.2154 179.839C84.3847 175.103 74.1412 167.188 66.6519 156.994L67.95 156.685H68.285C78.3436 169.885 92.982 178.973 109.406 182.212C118.622 183.981 128.018 184.674 137.399 184.276C141.754 184.276 146.109 183.925 150.443 183.595L153.395 183.327L153.709 184.978Z" fill="#F8E6BA"/>
<path d="M155.972 196.782C149.691 197.525 143.41 198.102 137.129 198.288C118.808 198.845 100.467 195.77 84.9317 185.72C73.8559 178.539 64.6225 169.087 55.0332 160.09L56.7919 159.594C60.6444 163.206 64.4341 166.879 68.3284 170.449C74.3124 176.178 80.8636 181.3 87.8839 185.741C95.4266 190.254 103.731 193.392 112.402 195.007C126.702 197.793 141.253 197.071 155.658 195.275C155.742 195.771 155.847 196.286 155.972 196.782Z" fill="#F8E6BA"/>
<path d="M159.487 209.164C157.097 210.106 154.613 210.798 152.075 211.227C143.334 212.404 134.477 212.488 125.715 211.475C116.778 210.675 107.934 209.072 99.2922 206.687C82.7936 202.106 64.0756 193.996 47.5979 203.096C46.7185 203.571 45.9229 202.25 46.8023 201.755C54.5358 197.831 63.3537 196.492 71.9271 197.937C80.302 199.052 88.342 201.858 96.4238 204.252C105.177 206.871 114.154 208.695 123.245 209.7C131.964 210.77 140.777 210.88 149.521 210.03C152.765 209.676 155.948 208.899 158.985 207.719L159.215 208.462L159.487 209.164Z" fill="#F8E6BA"/>
<path d="M158.922 252.811C161.548 252.377 164.147 251.805 166.711 251.098C166.418 251.717 166.104 252.336 165.79 252.934L163.152 253.574C157.561 254.792 147.344 257.392 143.952 250.871C140.979 245.175 149.061 239.149 153.018 236.425C157.155 233.545 161.797 231.445 166.711 230.234C166.702 230.358 166.702 230.482 166.711 230.606C166.837 230.977 166.941 231.348 167.046 231.699C163.063 232.712 159.263 234.327 155.782 236.487C151.741 239.005 139.618 247.858 147.407 252.501C150.757 254.296 155.363 253.388 158.922 252.811Z" fill="#F8E6BA"/>
<path d="M127.601 286.51C123.663 293.236 118.666 299.303 112.798 304.485C106.891 309.785 99.9767 313.879 92.4555 316.532C84.9342 319.185 76.9543 320.344 68.9764 319.941C67.9714 319.941 67.9714 318.311 68.9764 318.394C77.7467 318.801 86.5006 317.304 94.6193 314.009C102.738 310.714 110.023 305.701 115.96 299.325C121.075 293.963 125.357 287.885 128.669 281.289C130.763 277.389 133.484 271.858 129.904 267.999C127.454 265.357 123.623 264.511 120.231 263.645L108.297 260.59C105.134 260.065 102.083 259.019 99.2727 257.495C93.7034 253.822 96.9278 248.002 100.738 244.411C103.732 241.563 107.02 238.22 104.612 233.948C102.204 229.677 97.1581 228.748 92.8031 228.253C84.5193 227.432 76.153 228.332 68.2436 230.894C59.2263 233.807 50.6538 237.917 42.7628 243.111C42.5953 242.616 42.4278 242.121 42.2812 241.605C53.2734 234.712 64.9564 229.016 78.0004 227.159C85.3075 226.065 94.7503 225.487 101.471 229.016C102.839 229.676 104.038 230.631 104.98 231.81C105.922 232.989 106.584 234.362 106.915 235.826C107.08 237.276 106.889 238.744 106.357 240.105C105.825 241.467 104.968 242.682 103.858 243.648C101.031 246.578 94.7922 251.304 99.2099 255.555C101.974 258.238 107.041 258.754 110.621 259.682C114.976 260.797 119.414 261.746 123.728 263.067C126.7 263.739 129.394 265.287 131.453 267.504C136.102 273.137 130.658 281.392 127.601 286.51Z" fill="#F8E6BA"/>
<path d="M89.1815 281.95C87.8415 290.101 79.2572 296.684 73.0807 301.472C67.4328 305.858 61.3013 309.604 54.8024 312.636C54.8024 312.079 54.8024 311.543 54.8024 310.985C61.329 307.891 67.4698 304.062 73.1016 299.573C78.7338 295.075 86.8784 288.822 87.7578 281.248C88.8675 271.92 78.2941 267.937 70.6729 267.174C63.5921 266.516 56.4571 267.623 49.924 270.393C49.924 269.898 49.7355 269.361 49.6309 268.825C50.6568 268.412 51.7246 268.041 52.7296 267.69C60.4525 265.07 68.7812 264.719 76.7029 266.679C83.6122 268.556 90.4796 274.087 89.1815 281.95Z" fill="#F8E6BA"/>
<path d="M135.201 298.83C130.574 305.62 126.617 314.081 128.146 322.48C128.588 324.86 129.535 327.121 130.924 329.116C132.313 331.111 134.113 332.794 136.206 334.057L133.778 334.326C131.072 332.269 128.97 329.542 127.685 326.422C124.314 318.167 127.35 308.922 131.6 301.658C137.773 291.166 146.669 282.483 157.374 276.502C157.479 276.997 157.562 277.533 157.688 278.111C148.698 283.252 141.01 290.336 135.201 298.83Z" fill="#F8E6BA"/>
<path d="M165.413 324.275C155.321 325.018 148.098 315.691 148.663 306.342C149.061 298.232 153.646 291.69 159.593 286.572L159.97 288.306C155.043 292.317 151.683 297.89 150.464 304.072C148.977 313.235 155.133 323.491 165.518 322.645C166.314 322.666 166.314 324.193 165.413 324.275Z" fill="#F8E6BA"/>
<path d="M163.423 304.216C163.423 304.216 176.844 314.328 169.997 330.446C169.997 330.446 97.1562 354.983 54.5068 338.37C54.5068 338.37 50.3193 323.924 55.2396 312.306C55.2396 312.347 121.444 325.637 163.423 304.216Z" fill="#D03F23"/>
<path d="M54.7188 316.66C51.5325 323.198 50.9135 330.666 52.981 337.627C53.0365 337.824 53.1692 337.991 53.3498 338.092C53.5304 338.192 53.7442 338.218 53.9441 338.163C54.144 338.109 54.3137 337.978 54.4158 337.8C54.5179 337.622 54.544 337.411 54.4885 337.214C52.5207 330.657 53.0876 323.614 56.0798 317.444C56.5194 316.557 55.1585 315.773 54.7188 316.66Z" fill="#750021"/>
<path d="M95.0222 323.883C81.5539 323.661 68.1309 322.28 54.9063 319.756C54.6567 319.706 54.4373 319.561 54.296 319.352C54.1548 319.143 54.1032 318.888 54.1525 318.641C54.2079 318.394 54.3594 318.177 54.5746 318.038C54.7899 317.9 55.0517 317.849 55.3041 317.898C55.5763 317.898 83.2973 323.47 104.612 321.592C104.737 321.578 104.864 321.589 104.985 321.624C105.106 321.659 105.219 321.718 105.317 321.797C105.414 321.876 105.495 321.973 105.554 322.083C105.612 322.194 105.648 322.314 105.658 322.438C105.67 322.563 105.656 322.689 105.618 322.808C105.58 322.928 105.518 323.039 105.437 323.135C105.355 323.231 105.255 323.31 105.142 323.367C105.029 323.425 104.906 323.46 104.779 323.47C101.638 323.759 98.4141 323.883 95.0222 323.883Z" fill="#750021"/>
<path d="M126.658 332.984C126.403 333.003 126.15 332.921 125.956 332.757C125.761 332.593 125.641 332.359 125.622 332.107C125.602 331.855 125.685 331.606 125.852 331.415C126.019 331.223 126.256 331.105 126.512 331.085C140.522 328.709 154.256 324.955 167.507 319.88C167.746 319.784 168.013 319.785 168.251 319.884C168.489 319.983 168.677 320.171 168.774 320.406C168.871 320.641 168.869 320.905 168.769 321.139C168.669 321.373 168.479 321.559 168.24 321.654C154.843 326.775 140.963 330.571 126.805 332.984H126.658Z" fill="#750021"/>
<path d="M132.773 329.434C132.773 329.434 164.283 339.402 180.803 355.973C180.803 355.973 174.522 378.673 157.542 382.367C157.542 382.367 133.464 341.383 125.382 338.7L132.773 329.434Z" fill="#D03F23"/>
<path d="M101.806 330.694C101.806 330.694 74.5878 349.267 63.7632 369.903C63.7632 369.903 76.5769 389.838 93.8502 388.476C93.8502 388.476 104.675 342.333 111.605 337.421L101.806 330.694Z" fill="#D03F23"/>
<path d="M136.208 327.949C136.544 324.22 136.103 320.462 134.909 316.908C133.528 312.781 130.91 308.55 126.053 308.241C116.82 307.683 115.773 314.762 115.773 314.762C115.773 314.762 111.941 307.271 102.101 311.377C92.26 315.484 96.1125 343.323 105.723 346.563C115.333 349.803 118.997 342.085 118.997 342.085C118.997 342.085 122.117 347.863 130.198 343.88C134.135 341.94 135.747 333.335 136.208 327.949Z" fill="#D03F23"/>
<path d="M141.691 165.579C143.587 178.305 148.827 190.322 156.891 200.434C156.242 198.041 155.677 195.606 155.196 193.15C155.185 193.067 155.185 192.984 155.196 192.902C155.196 192.654 155.196 192.407 155.049 192.159C152.285 177.755 152.222 170.181 141.691 165.579Z" fill="#C1725C"/>
<path d="M69.9183 194.491C68.8714 213.766 52.3309 235.146 39.3497 232.979L38.2819 229.987L37.5491 227.923C35.7694 223.094 33.8432 218.306 31.8123 213.663C23.0186 193.46 21.5948 170.697 42.7625 163.743C44.2909 163.227 45.8194 162.752 47.285 162.298C59.0937 164.795 71.1955 172.307 69.9183 194.491Z" fill="#C1725C"/>
<path d="M91.3792 272.353C91.4732 272.506 91.6055 272.631 91.7633 272.718C91.921 272.805 92.0989 272.85 92.2796 272.849C92.4546 272.847 92.6268 272.805 92.782 272.725C104.249 266.957 117.315 265.044 129.988 267.277C138.53 269.125 147.367 269.223 155.95 267.566C155.95 267.174 155.95 266.782 155.824 266.431V266.286L156.725 265.358C148.057 267.245 139.075 267.245 130.406 265.358C117.237 262.975 103.636 264.986 91.7561 271.074C91.55 271.209 91.3991 271.412 91.3301 271.646C91.2611 271.88 91.2785 272.131 91.3792 272.353Z" fill="#CA9441"/>
<path d="M124.042 214.777C137.023 214.777 139.871 200.971 139.892 200.827C139.917 200.691 139.914 200.552 139.884 200.418C139.854 200.283 139.798 200.156 139.718 200.043C139.639 199.93 139.537 199.833 139.42 199.759C139.302 199.684 139.171 199.633 139.033 199.609C138.896 199.585 138.755 199.587 138.618 199.616C138.482 199.646 138.353 199.701 138.238 199.78C138.123 199.858 138.025 199.959 137.95 200.074C137.874 200.19 137.823 200.32 137.798 200.455C137.798 200.971 135.223 212.837 123.958 212.837C112.108 212.837 86.2712 195.028 86.1246 194.842C85.8973 194.694 85.6209 194.637 85.3523 194.683C85.0837 194.729 84.8432 194.874 84.68 195.09C84.5254 195.309 84.4651 195.579 84.5122 195.842C84.5593 196.105 84.7099 196.339 84.9312 196.493C86.1037 197.174 111.564 214.777 124.042 214.777Z" fill="#CA9441"/>
<path d="M92.7202 50.5918C90.3333 53.254 83.9893 58.9703 83.9893 58.9703L74.8815 65.1613L67.1347 71.4555C67.1347 71.4555 43.6849 83.5692 38.8902 79.7102C35.938 77.3988 36.3568 73.5192 37.1314 70.7332C37.3991 69.7607 37.7565 68.8143 38.1993 67.906C37.7023 68.0955 37.1913 68.2472 36.6708 68.36C34.9517 68.8933 33.0894 68.7455 31.479 67.948C29.8685 67.1505 28.6367 65.766 28.0446 64.0882C25.2181 57.113 34.3258 49.4981 34.3258 49.4981C32.2512 49.3859 30.2387 48.7598 28.4747 47.6777C26.7107 46.5955 25.2522 45.0923 24.234 43.3071C21.1981 37.3637 33.7605 27.0454 33.7605 27.0454C33.7605 27.0454 29.573 26.1786 31.8343 18.9971C34.0955 11.8155 41.968 13.8998 41.968 13.8998C41.968 13.8998 41.1305 0.774909 50.7617 0.0319888C60.3929 -0.710931 67.1975 11.733 67.1975 11.733C69.5611 10.6572 72.1611 10.1841 74.7586 10.3572C77.3561 10.5302 79.8679 11.3439 82.063 12.7235C89.6633 17.4906 84.6802 31.7918 84.6802 31.7918C84.6802 31.7918 92.6992 28.2423 98.1639 34.908C101.702 39.221 96.8029 46.1343 92.7202 50.5918Z" fill="#2B2B39"/>
<path d="M83.9884 58.9705C83.9884 58.9705 71.6563 61.3643 67.1338 71.3525C68.5733 73.0314 70.5819 74.1386 72.7869 74.4686C72.7869 74.4686 74.9853 67.6792 84.5955 64.0058C84.5955 64.0884 86.124 60.869 83.9884 58.9705Z" fill="#D03F23"/>
<path d="M132.52 114.029C132.52 114.029 140.895 112.192 143.177 100.512C146.883 81.5053 134.07 63.9022 110.076 60.7242C78.6695 56.5968 74.1889 66.1103 68.0333 78.1209C61.8778 90.1314 63.4271 108.085 69.6665 117.908C75.9058 127.731 88.0704 131.529 88.0704 131.529L132.52 114.029Z" fill="#2B2B39"/>
<path d="M133.38 109.571C134.644 109.864 135.768 110.574 136.564 111.585C137.36 112.595 137.781 113.844 137.756 115.123C138.217 120.117 135.202 128.227 130.177 126.927C125.152 125.627 133.38 109.571 133.38 109.571Z" fill="#7D351D"/>
<path d="M127.266 127.979C127.121 128.857 127.243 129.757 127.617 130.566C127.99 131.375 128.599 132.057 129.366 132.526C130.132 132.994 131.022 133.228 131.924 133.198C132.826 133.169 133.698 132.876 134.431 132.358C135.164 131.84 135.725 131.119 136.043 130.287C136.36 129.455 136.421 128.549 136.217 127.683C136.012 126.817 135.552 126.03 134.895 125.422C134.237 124.813 133.411 124.411 132.521 124.265C131.326 124.079 130.104 124.365 129.121 125.06C128.138 125.755 127.471 126.804 127.266 127.979Z" fill="white"/>
<path d="M74.7134 158.501C74.7134 158.501 80.8271 171.667 95.3995 174.618C113.908 178.374 116.525 170.491 116.525 170.491C115.9 167.962 115.556 165.374 115.499 162.773C115.499 161.761 115.499 160.709 115.499 159.656C115.698 156.384 116.083 153.125 116.651 149.895C116.797 149.049 116.944 148.162 117.111 147.233V147.254C104.361 143.457 94.0804 137.183 87.4433 127.339L85.5589 126.081L84.3027 125.234L84.0305 125.957L84.1352 128.351C84.7005 139.515 81.6646 148.595 74.7134 158.501Z" fill="#C1725C"/>
<path d="M95.8604 137.637C98.2263 143.828 103.921 155.034 115.541 159.739C115.74 156.467 116.125 153.208 116.693 149.978C116.84 149.132 116.986 148.245 117.154 147.316H116.379C109.302 147.378 101.848 143.354 95.8604 137.637Z" fill="#2B2B39"/>
<path d="M69.7497 105.981C68.8912 112.853 73.7487 122.015 82.8565 123.378H83.0658C83.0658 123.79 83.2752 124.203 83.4008 124.616C83.5265 125.028 83.5265 124.987 83.5683 125.152C87.7558 137.534 103.836 146.491 112.881 147.853C114.962 148.164 117.08 148.164 119.162 147.853C129.107 146.945 132.541 134.253 132.269 124.203C132.228 122.822 132.109 121.444 131.913 120.076V119.787C131.913 119.787 136.896 106.394 138.403 100.471C141.334 88.9762 136.037 76.2846 110.368 70.7953C84.699 65.3059 76.4706 80.412 73.5812 88.6254C73.0996 89.9874 72.3459 98.3865 73.5812 99.9136C72.4409 100.483 71.4809 101.35 70.8053 102.42C70.1298 103.489 69.7647 104.721 69.7497 105.981Z" fill="#C1725C"/>
<path d="M106.79 87.0151C106.713 89.2255 106.053 91.378 104.875 93.26C103.696 95.1419 102.039 96.6883 100.069 97.7461C96.1745 99.7066 93.0967 101.626 94.2273 105.794C95.7348 111.263 94.0179 114.709 90.8145 114.648C85.0986 114.648 85.3498 101.853 73.6459 99.8717C73.6459 99.8717 69.4584 98.489 70.8403 91.2043C72.2221 83.9196 87.4436 64.7068 106.79 68.1119C126.136 71.5169 142.09 83.0735 141.106 96.5699C140.122 110.066 137.526 107.095 137.526 107.095C137.526 107.095 137.819 106.331 137.275 95.3316C136.667 85.4467 105.596 80.5351 106.79 87.0151Z" fill="#2B2B39"/>
<path d="M73.7484 122.49C73.6026 123.368 73.7244 124.27 74.0985 125.08C74.4725 125.89 75.082 126.573 75.8497 127.041C76.6175 127.51 77.509 127.743 78.4115 127.712C79.314 127.681 80.1869 127.387 80.9198 126.867C81.6526 126.347 82.2125 125.625 82.5285 124.791C82.8445 123.957 82.9025 123.049 82.6951 122.183C82.4877 121.317 82.0243 120.531 81.3635 119.924C80.7026 119.318 79.8741 118.918 78.9827 118.775C77.7889 118.585 76.5672 118.869 75.5859 119.565C74.6045 120.262 73.9436 121.314 73.7484 122.49Z" fill="white"/>
<g opacity="0.5">
<path opacity="0.5" d="M127.329 121.561C127.224 122.593 129.423 123.625 132.396 124.182C132.355 122.801 132.236 121.423 132.04 120.055C129.402 120.034 127.433 120.633 127.329 121.561Z" fill="#7D351D"/>
</g>
<path d="M116.545 134.872C115.822 134.692 115.18 134.278 114.724 133.696C114.68 133.638 114.648 133.572 114.631 133.502C114.613 133.432 114.61 133.359 114.622 133.288C114.634 133.216 114.66 133.148 114.699 133.087C114.738 133.026 114.789 132.973 114.849 132.932C114.971 132.855 115.118 132.825 115.261 132.847C115.404 132.87 115.533 132.945 115.624 133.056C115.906 133.4 116.286 133.653 116.715 133.782C117.145 133.911 117.603 133.909 118.032 133.778C118.102 133.76 118.175 133.755 118.247 133.765C118.319 133.775 118.388 133.799 118.451 133.835C118.513 133.872 118.568 133.92 118.611 133.978C118.654 134.035 118.685 134.101 118.702 134.17C118.733 134.313 118.707 134.461 118.629 134.585C118.551 134.708 118.427 134.796 118.283 134.831C117.715 134.977 117.12 134.991 116.545 134.872Z" fill="#7D351D"/>
<path d="M117.865 131.219C116.736 130.965 115.69 130.437 114.82 129.684C113.95 128.931 113.284 127.976 112.882 126.906C112.836 126.797 112.813 126.68 112.816 126.562C112.818 126.444 112.846 126.328 112.896 126.221C112.947 126.114 113.02 126.018 113.111 125.941C113.201 125.863 113.307 125.806 113.421 125.771C113.536 125.736 113.657 125.725 113.775 125.739C113.894 125.753 114.009 125.792 114.112 125.852C114.215 125.912 114.304 125.993 114.374 126.089C114.443 126.186 114.491 126.295 114.515 126.411C114.829 127.205 115.338 127.911 115.995 128.466C116.653 129.02 117.439 129.406 118.284 129.589C119.046 129.832 119.855 129.896 120.647 129.778C121.439 129.66 122.193 129.362 122.848 128.908C122.926 128.83 123.019 128.768 123.121 128.726C123.224 128.683 123.334 128.662 123.445 128.662C123.556 128.662 123.666 128.683 123.768 128.726C123.871 128.768 123.964 128.83 124.042 128.908C124.121 128.986 124.185 129.08 124.228 129.182C124.271 129.285 124.293 129.395 124.293 129.506C124.293 129.617 124.271 129.727 124.228 129.83C124.185 129.933 124.121 130.026 124.042 130.105C123.177 130.763 122.165 131.207 121.091 131.401C120.016 131.595 118.91 131.532 117.865 131.219Z" fill="#7D351D"/>
<path d="M120.817 124.058C120.961 124.098 121.113 124.098 121.257 124.058L125.068 122.449C125.194 122.394 125.305 122.309 125.39 122.2C125.474 122.092 125.529 121.964 125.549 121.829C125.571 121.692 125.552 121.552 125.497 121.424C125.441 121.296 125.351 121.187 125.235 121.107C123.923 120.077 122.856 118.777 122.107 117.297C121.359 115.818 120.947 114.195 120.901 112.543C120.893 112.441 120.865 112.341 120.817 112.25C120.769 112.159 120.703 112.078 120.623 112.012C120.543 111.947 120.45 111.898 120.35 111.869C120.251 111.839 120.146 111.83 120.043 111.841C119.938 111.849 119.836 111.877 119.742 111.924C119.649 111.971 119.566 112.035 119.498 112.114C119.43 112.193 119.378 112.284 119.346 112.382C119.313 112.481 119.301 112.584 119.31 112.687C119.445 116.013 120.86 119.164 123.267 121.499L120.629 122.614C120.532 122.654 120.445 122.713 120.372 122.787C120.299 122.861 120.241 122.948 120.202 123.044C120.163 123.14 120.144 123.242 120.145 123.345C120.147 123.449 120.169 123.551 120.21 123.645C120.267 123.76 120.353 123.858 120.459 123.93C120.565 124.002 120.689 124.046 120.817 124.058Z" fill="#7D351D"/>
<path d="M115.898 100.78C116.332 100.921 116.802 100.906 117.226 100.736C117.649 100.567 117.998 100.255 118.209 99.8553C118.421 99.4559 118.481 98.9954 118.38 98.5561C118.279 98.1168 118.022 97.7273 117.656 97.4573C116.566 96.6595 115.22 96.2783 113.867 96.3842C111.697 96.5214 109.589 97.1517 107.707 98.2258C105.825 99.2998 104.222 100.788 103.021 102.575C103.021 102.575 110.056 100.119 113.783 100.512C114.496 100.525 115.205 100.615 115.898 100.78Z" fill="#2B2B39"/>
<path d="M126.994 102.906C126.541 102.897 126.106 102.731 125.766 102.437C125.425 102.144 125.2 101.742 125.13 101.301C125.06 100.86 125.149 100.409 125.383 100.027C125.617 99.6451 125.979 99.3564 126.407 99.2116C127.695 98.7863 129.097 98.8451 130.344 99.3767C137.169 101.956 136.792 106.992 136.792 106.992C134.479 105.312 131.896 104.029 129.15 103.194C128.444 103.022 127.721 102.925 126.994 102.906Z" fill="#2B2B39"/>
<g opacity="0.5">
<path opacity="0.5" d="M111.166 119.725C111.04 120.901 108.004 121.541 104.361 121.169C100.718 120.798 97.8495 119.518 97.9752 118.363C98.1008 117.207 101.158 116.547 104.801 116.918C108.444 117.29 111.291 118.569 111.166 119.725Z" fill="#7D351D"/>
</g>
<path d="M84.3866 118.032C84.1998 117.977 84.035 117.866 83.915 117.714C83.795 117.563 83.7257 117.378 83.7166 117.186C83.2769 110.562 75.7813 106.868 75.6976 106.765C75.4751 106.65 75.3068 106.454 75.2286 106.219C75.1504 105.984 75.1684 105.728 75.2789 105.506C75.3344 105.395 75.4117 105.297 75.5063 105.216C75.6008 105.135 75.7107 105.074 75.8296 105.036C75.9485 104.997 76.074 104.982 76.1987 104.992C76.3234 105.002 76.4449 105.037 76.556 105.093C76.891 105.258 85.0985 109.344 85.601 117.062C85.6124 117.185 85.5985 117.309 85.56 117.426C85.5214 117.543 85.4592 117.651 85.3769 117.744C85.2947 117.836 85.1942 117.912 85.0815 117.965C84.9689 118.018 84.8464 118.048 84.7216 118.053C84.6096 118.067 84.496 118.06 84.3866 118.032Z" fill="#7D351D"/>
<path d="M76.6394 113.41C76.5267 113.371 76.4207 113.315 76.3254 113.245C76.2265 113.168 76.1442 113.073 76.0831 112.965C76.0221 112.857 75.9836 112.738 75.9699 112.615C75.9563 112.492 75.9677 112.367 76.0036 112.249C76.0395 112.13 76.099 112.02 76.1788 111.924C76.9196 111.099 77.8635 110.475 78.9196 110.114C79.9757 109.752 81.1084 109.665 82.2087 109.86C82.4591 109.906 82.6819 110.045 82.8303 110.249C82.9787 110.453 83.041 110.706 83.0043 110.954C82.9584 111.2 82.8162 111.417 82.6085 111.56C82.4008 111.703 82.1443 111.76 81.8946 111.718C81.1333 111.586 80.3506 111.646 79.6189 111.891C78.8871 112.137 78.2297 112.559 77.7072 113.121C77.581 113.271 77.4108 113.38 77.2197 113.432C77.0286 113.483 76.8259 113.476 76.6394 113.41Z" fill="#7D351D"/>
<path d="M113.489 111.965C113.217 113.699 112.233 114.999 111.395 114.875C110.558 114.751 109.951 113.183 110.244 111.449C110.537 109.716 111.479 108.395 112.337 108.539C113.196 108.684 113.761 110.211 113.489 111.965Z" fill="#2B2B39"/>
<path d="M107.332 108.044C107.247 107.989 107.182 107.91 107.143 107.817C107.103 107.7 107.111 107.571 107.166 107.459C107.221 107.347 107.318 107.261 107.437 107.219C107.625 107.219 112.503 105.403 115.518 108.87C115.573 108.913 115.617 108.968 115.648 109.03C115.679 109.092 115.696 109.16 115.698 109.229C115.699 109.298 115.685 109.366 115.657 109.43C115.629 109.493 115.587 109.55 115.535 109.595C115.482 109.641 115.42 109.675 115.353 109.694C115.286 109.714 115.215 109.719 115.146 109.709C115.076 109.699 115.01 109.674 114.951 109.636C114.893 109.598 114.843 109.548 114.807 109.489C112.21 106.497 107.813 108.086 107.751 108.086C107.683 108.116 107.609 108.128 107.536 108.121C107.462 108.113 107.392 108.087 107.332 108.044Z" fill="#2B2B39"/>
<path d="M129.821 114.442C129.528 116.196 128.565 117.496 127.728 117.352C126.89 117.207 126.283 115.68 126.555 113.926C126.827 112.172 127.811 110.872 128.649 111.016C129.486 111.161 129.989 112.688 129.821 114.442Z" fill="#2B2B39"/>
<path d="M124.061 110.293C123.973 110.243 123.905 110.162 123.873 110.066C123.84 109.949 123.854 109.823 123.913 109.715C123.971 109.608 124.069 109.526 124.187 109.488C124.396 109.488 129.338 107.92 132.206 111.552C132.284 111.645 132.327 111.762 132.327 111.882C132.327 112.003 132.284 112.12 132.206 112.212C132.163 112.257 132.111 112.293 132.053 112.318C131.996 112.342 131.934 112.355 131.871 112.355C131.808 112.355 131.746 112.342 131.689 112.318C131.631 112.293 131.579 112.257 131.536 112.212C129.086 109.117 124.606 110.479 124.564 110.5C124.469 110.53 124.366 110.526 124.274 110.488C124.182 110.45 124.106 110.381 124.061 110.293Z" fill="#2B2B39"/>
<path d="M65.6251 227.737L64.5364 228.211L63.4057 228.748L61.1026 229.78L56.4755 231.843C53.4186 233.267 50.3408 234.65 47.284 235.971C41.1702 238.695 35.0775 241.274 29.1522 243.441C27.6656 243.978 26.221 244.514 24.7763 244.989C23.3316 245.464 21.9079 245.897 20.5888 246.289C19.2698 246.681 17.867 247.011 16.5898 247.28C15.4497 247.534 14.2964 247.727 13.1351 247.857C12.362 247.927 11.5841 247.927 10.8111 247.857C10.6017 247.857 10.4551 247.857 10.497 247.857H10.9786H11.2926C11.9552 248.048 12.5943 248.312 13.1979 248.642C14.0094 249.062 14.7682 249.575 15.4592 250.169C16.1971 250.814 16.8575 251.542 17.4273 252.336C17.9058 252.983 18.3195 253.674 18.6626 254.399C18.8979 254.933 19.087 255.485 19.2279 256.05C19.3145 256.376 19.3775 256.707 19.4163 257.041C19.4163 257.515 19.4163 257.66 19.4163 257.619C19.4163 257.577 19.6257 256.731 19.9188 255.803C20.2119 254.874 20.6307 253.739 21.1123 252.563C22.1172 250.169 23.3735 247.507 24.7763 244.824C26.1791 242.141 27.7285 239.355 29.3616 236.569C30.9947 233.783 32.6697 230.997 34.3865 228.191C37.8621 222.598 41.4843 216.964 45.1693 211.331L50.7177 202.89L56.2033 194.532L56.3708 194.264C58.6392 190.774 59.4926 186.57 58.7614 182.488C58.0302 178.406 55.7678 174.745 52.4238 172.231C49.0798 169.718 44.8989 168.536 40.7116 168.921C36.5243 169.305 32.6371 171.229 29.8222 174.308L28.8381 175.381L27.9169 176.393L26.1163 178.456C24.9438 179.818 23.7713 181.201 22.6197 182.584C20.3166 185.349 18.0554 188.176 15.8779 191.045C11.4601 196.782 7.23078 202.642 3.18987 208.792C1.09613 211.867 -0.788231 214.983 -2.73541 218.223C-4.68258 221.463 -6.50413 224.786 -8.26287 228.273C-10.1414 231.924 -11.8189 235.671 -13.2879 239.5C-14.0625 241.563 -14.7953 243.627 -15.3816 246.103C-16.1382 248.859 -16.6358 251.677 -16.8681 254.523C-17.044 256.438 -17.044 258.365 -16.8681 260.281C-16.7441 261.482 -16.5413 262.675 -16.261 263.851C-15.9365 265.262 -15.4881 266.643 -14.921 267.978C-14.249 269.545 -13.4141 271.039 -12.4294 272.436C-11.3614 273.949 -10.1176 275.334 -8.72349 276.563C-7.3763 277.741 -5.89357 278.759 -4.30571 279.597C-2.92975 280.336 -1.48553 280.944 0.00738335 281.413L0.530817 281.557H0.782055H0.970516L1.7033 281.743L3.18987 282.073L4.6136 282.321C5.09516 282.321 5.5139 282.424 5.95359 282.486C7.60817 282.663 9.27286 282.732 10.9367 282.692C13.681 282.605 16.4127 282.288 19.1022 281.743C23.5103 280.821 27.8213 279.494 31.9787 277.781C35.7027 276.286 39.3439 274.598 42.8871 272.725C49.5693 269.19 56.0045 265.219 62.1495 260.838C65.1644 258.719 68.1166 256.511 71.006 254.214C72.4297 253.058 73.8535 251.902 75.1935 250.705L77.2872 248.889L78.3341 247.961L79.4228 246.97C81.5332 245.056 82.8953 242.473 83.2718 239.671C83.6483 236.869 83.0153 234.025 81.483 231.636C79.9508 229.247 77.6165 227.463 74.887 226.596C72.1575 225.729 69.2058 225.833 66.5463 226.891L65.6251 227.737Z" fill="#C1725C"/>
<path d="M140.571 168.326L74.4204 177.85L86.9785 262.593L153.13 253.069L140.571 168.326Z" fill="#5F5F75"/>
<path d="M137.549 168.775L71.3979 178.298L83.9561 263.041L150.107 253.518L137.549 168.775Z" fill="#2B2B39"/>
<path d="M88.1118 175.918C88.1118 175.918 89.1168 170.594 93.9533 170.037C94.0278 168.651 94.4949 167.313 95.3016 166.174C96.1084 165.036 97.2225 164.144 98.5177 163.598C102.373 162.277 106.472 161.791 110.536 162.174C113.655 162.587 115.058 166.735 115.058 166.735C116.784 166.614 118.51 166.972 120.041 167.767C121.108 168.567 121.851 169.716 122.135 171.007L88.1118 175.918Z" fill="#5F5F75"/>
<path d="M65.0182 246.991C67.5126 248.817 70.6268 249.622 73.7095 249.238C76.7923 248.853 79.6048 247.309 81.5587 244.927C83.6346 242.315 86.157 240.081 89.0124 238.323C95.2936 234.877 103.669 232.545 106.369 229.924C110.327 226.045 104.276 225.797 103.585 225.797C99.7677 226.277 95.9896 227.022 92.2786 228.026C92.2786 228.026 102.915 222.082 107.709 221.566C112.504 221.051 114.849 217.439 110.096 215.375C105.344 213.312 92.2367 217.439 88.9286 219.503C92.3103 216.407 96.4767 214.268 100.989 213.312C107.458 212.404 109.636 211.248 111.729 209.618C113.823 207.988 110.138 204.232 101.156 205.718C95.3664 206.433 89.934 208.865 85.5787 212.693C87.2931 210.074 89.2637 207.627 91.462 205.387C95.503 201.116 103.061 200.662 104.024 197.318C104.988 193.975 96.4033 194.821 91.8599 197.442C87.3165 200.063 83.7781 201.57 79.6744 206.853C76.0194 211.243 72.834 215.994 70.1688 221.03C68.4729 224.765 60.7261 237.292 62.066 243.029C62.5498 244.649 63.5944 246.051 65.0182 246.991Z" fill="#C1725C"/>
<path d="M65.3325 231.348C65.3325 231.348 66.2538 218.966 68.6615 215.417C71.0693 211.867 72.849 205.408 75.3406 206.811C77.8321 208.215 75.4662 216.16 75.4662 216.16L65.3325 231.348Z" fill="#C1725C"/>
<path d="M39.6215 222.558C39.7846 222.666 39.9836 222.71 40.1781 222.679C40.3725 222.648 40.5479 222.546 40.6684 222.392C40.794 222.227 53.2308 206.337 58.172 198.846C58.2835 198.673 58.3219 198.464 58.2788 198.263C58.2358 198.063 58.1147 197.887 57.9417 197.773C57.7661 197.663 57.5538 197.625 57.3503 197.667C57.1468 197.71 56.9683 197.829 56.8529 198C51.9326 205.45 39.5587 221.278 39.4331 221.443C39.3116 221.61 39.2591 221.815 39.2863 222.019C39.3136 222.222 39.4185 222.407 39.5796 222.537L39.6215 222.558Z" fill="#7D351D"/>
<path d="M52.3524 206.192C52.5408 206.316 52.7921 206.357 55.3673 205.511L61.2717 203.592C59.3454 204.211 59.5548 203.777 59.4292 203.365C59.3626 203.173 59.2214 203.015 59.0369 202.926C58.8523 202.837 58.6395 202.824 58.4451 202.89L52.5408 204.809C52.4427 204.84 52.3517 204.889 52.2731 204.954C52.1946 205.02 52.13 205.1 52.0833 205.19C52.0365 205.281 52.0084 205.379 52.0007 205.48C51.993 205.581 52.0058 205.683 52.0383 205.779C52.0928 205.948 52.2035 206.093 52.3524 206.192Z" fill="#7D351D"/>
<path d="M11.4189 250.169C11.5514 250.258 11.7083 250.306 11.869 250.306C12.0297 250.306 12.1867 250.258 12.3192 250.169C16.3811 247.135 24.2326 246.64 24.2954 246.64C24.5046 246.624 24.6995 246.53 24.8398 246.376C24.9802 246.222 25.0551 246.021 25.0491 245.814C25.033 245.61 24.9364 245.42 24.7798 245.285C24.6233 245.15 24.4193 245.081 24.2116 245.092C23.8766 245.092 15.8367 245.608 11.3561 248.951C11.1963 249.077 11.092 249.259 11.0647 249.459C11.0374 249.659 11.0893 249.861 11.2095 250.024L11.4189 250.169Z" fill="#7D351D"/>
<path d="M11.9218 244.659C12.0125 244.721 12.1157 244.762 12.2242 244.78C12.3328 244.797 12.4439 244.792 12.5499 244.763C13.7562 244.6 14.9843 244.721 16.1341 245.116C17.2838 245.51 18.3227 246.167 19.1661 247.033C19.2431 247.099 19.3326 247.15 19.4295 247.182C19.5264 247.214 19.6288 247.228 19.7309 247.221C19.833 247.214 19.9327 247.188 20.0244 247.143C20.1161 247.098 20.198 247.036 20.2653 246.96C20.3327 246.885 20.3842 246.796 20.417 246.701C20.4498 246.605 20.4631 246.504 20.4563 246.404C20.4495 246.303 20.4227 246.205 20.3773 246.114C20.332 246.024 20.269 245.943 20.192 245.877C19.1604 244.847 17.8959 244.072 16.5021 243.617C15.1082 243.161 13.6247 243.038 12.173 243.256C12.0258 243.294 11.8928 243.373 11.7897 243.483C11.6865 243.594 11.6176 243.731 11.5912 243.878C11.5648 244.026 11.5819 244.178 11.6405 244.317C11.6991 244.455 11.7967 244.574 11.9218 244.659Z" fill="#7D351D"/>
</svg>
