<svg width="329" height="87" viewBox="0 0 329 87" fill="none" xmlns="http://www.w3.org/2000/svg">
<path d="M86.0004 86.3H84.6004V85.5H86.0004C86.9004 85.5 87.7004 85.5 88.6004 85.5V86.3C87.7004 86.3 86.9004 86.3 86.0004 86.3ZM79.6004 86.2C78.2004 86.2 76.9004 86.1 75.6004 86.1V85.4C76.9004 85.4 78.2004 85.5 79.6004 85.5V86.2ZM93.6004 86.2V85.4C94.9004 85.4 96.2004 85.3 97.6004 85.3V86.1C96.3004 86.2 94.9004 86.2 93.6004 86.2ZM102.6 85.9V85.2C103.9 85.1 105.2 85.1 106.6 85V85.7C105.3 85.8 103.9 85.8 102.6 85.9ZM70.6004 85.9C69.2004 85.8 67.9004 85.7 66.6004 85.6L66.7004 84.9C68.0004 85 69.3004 85.1 70.7004 85.2L70.6004 85.9ZM111.6 85.4V84.7C112.9 84.6 114.2 84.5 115.6 84.4L115.7 85.1C114.3 85.2 112.9 85.3 111.6 85.4ZM61.6004 85.2C60.2004 85.1 58.9004 84.9 57.6004 84.7L57.7004 84C59.0004 84.2 60.3004 84.3 61.7004 84.4L61.6004 85.2ZM120.6 84.7L120.5 84C121.8 83.9 123.1 83.8 124.5 83.6L124.6 84.3C123.2 84.5 121.9 84.6 120.6 84.7ZM129.6 83.9L129.5 83.2C130.8 83.1 132.1 82.9 133.5 82.8L133.6 83.5C132.2 83.6 130.9 83.8 129.6 83.9ZM138.5 82.9L138.4 82.2L139.4 82.1C140.4 82 141.4 81.9 142.3 81.7L142.4 82.4C141.4 82.5 140.4 82.7 139.5 82.8L138.5 82.9ZM147.5 81.7L147.4 81C148.7 80.8 150 80.6 151.3 80.3L151.4 81C150.1 81.3 148.8 81.5 147.5 81.7ZM156.3 80L156.1 79.3C157.4 79 158.7 78.7 160 78.4L160.2 79.1C158.9 79.5 157.6 79.8 156.3 80ZM165.1 78L164.9 77.3C166.2 77 167.5 76.6 168.8 76.3L169 77C167.7 77.3 166.4 77.7 165.1 78ZM173.8 75.6L173.6 74.9C174.9 74.5 176.1 74.1 177.4 73.7L177.6 74.4C176.3 74.8 175.1 75.2 173.8 75.6ZM182.4 72.9L182.2 72.2C183.5 71.8 184.7 71.3 186 70.9L186.2 71.6C184.9 72 183.6 72.5 182.4 72.9ZM190.9 69.9L190.6 69.2C191.9 68.7 193.1 68.3 194.3 67.8L194.6 68.5C193.4 68.9 192.1 69.4 190.9 69.9ZM199.3 66.6L199 65.9C200.2 65.4 201.5 64.9 202.7 64.4L203 65.1C201.8 65.6 200.5 66.1 199.3 66.6ZM207.6 63.1L207.3 62.4C208.5 61.9 209.7 61.3 211 60.8L211.3 61.5C210 62 208.8 62.6 207.6 63.1ZM215.8 59.4L215.5 58.7C216.7 58.1 217.9 57.6 219.1 57L219.4 57.7C218.2 58.2 217 58.8 215.8 59.4ZM223.9 55.5L223.6 54.8C224.8 54.2 226 53.6 227.2 53L227.5 53.7C226.3 54.3 225.1 54.9 223.9 55.5ZM1.10039 52.6C0.900388 51.7 0.900391 50.8 0.900391 49.9C0.900391 49.5 0.900389 49 1.00039 48.6L1.70039 48.7C1.70039 49.1 1.60039 49.6 1.60039 50C1.60039 50.9 1.70039 51.7 1.80039 52.6H1.10039ZM231.9 51.3L231.5 50.6C232.7 50 233.9 49.3 235 48.7L235.4 49.4C234.3 50.1 233.1 50.7 231.9 51.3ZM239.9 47L239.5 46.3C240.7 45.6 241.9 45 243 44.3L243.4 45C242.2 45.7 241 46.3 239.9 47ZM2.80039 43.8L2.10039 43.5C2.60039 42.3 3.20039 41.1 3.90039 39.9L4.50039 40.3C3.90039 41.5 3.30039 42.7 2.80039 43.8ZM247.7 42.5L247.3 41.9C248.5 41.2 249.6 40.5 250.7 39.8L251.1 40.4C250 41.1 248.9 41.8 247.7 42.5ZM255.4 37.8L255 37.2C256.2 36.4 257.4 35.7 258.4 35.1L258.8 35.7C257.7 36.3 256.6 37.1 255.4 37.8ZM7.50039 36.3L6.90039 35.8C7.70039 34.8 8.70039 33.8 9.60039 32.8L10.1004 33.3C9.20039 34.4 8.30039 35.3 7.50039 36.3ZM263 32.9L262.6 32.3C264.8 30.9 265.9 30 265.9 30L266.3 30.6C266.3 30.6 265.1 31.5 263 32.9ZM13.9004 30.1L13.4004 29.5C14.4004 28.7 15.5004 27.8 16.6004 27L17.0004 27.6C15.9004 28.4 14.8004 29.3 13.9004 30.1ZM21.1004 24.8L20.7004 24.2C21.8004 23.5 22.9004 22.8 24.1004 22.1L24.5004 22.7C23.3004 23.4 22.2004 24.1 21.1004 24.8ZM28.8004 20.2L28.4004 19.5C29.6004 18.9 30.8004 18.3 32.0004 17.7L32.3004 18.4C31.2004 19 30.0004 19.6 28.8004 20.2ZM36.9004 16.3L36.6004 15.6C37.8004 15 39.1004 14.5 40.3004 14L40.6004 14.7C39.3004 15.2 38.1004 15.7 36.9004 16.3Z" fill="#263238"/>
<path d="M271.9 12.9001L266.1 30.3001L279 19.7001L328.8 0.100098L271.9 12.9001Z" fill="#FFC727"/>
<path opacity="0.1" d="M271.9 12.9001L266.1 30.3001L279 19.7001L328.8 0.100098L271.9 12.9001Z" fill="black"/>
<path d="M280.8 23.7002L266.1 30.3002L279 19.7002L280.8 23.7002Z" fill="#032B70"/>
<path d="M279 19.7001L328.8 0.100098L288.6 41.5001L279 19.7001Z" fill="#FFC727"/>
<path d="M271.9 12.9L250.6 0L328.8 0.1L271.9 12.9Z" fill="#FFC727"/>
</svg>
