<svg width="12" height="12" viewBox="0 0 12 12" fill="none" xmlns="http://www.w3.org/2000/svg">
<path d="M2.72656 2.72723C2.72656 2.58257 2.78403 2.44383 2.88632 2.34154C2.98862 2.23925 3.12735 2.18178 3.27202 2.18178H8.72656C8.87123 2.18178 9.00996 2.23925 9.11226 2.34154C9.21455 2.44383 9.27202 2.58257 9.27202 2.72723C9.27202 2.8719 9.21455 3.01063 9.11226 3.11293C9.00996 3.21522 8.87123 3.27269 8.72656 3.27269H3.27202C3.12735 3.27269 2.98862 3.21522 2.88632 3.11293C2.78403 3.01063 2.72656 2.8719 2.72656 2.72723Z" fill="#454545"/>
<path d="M2.72656 4.90902C2.72656 4.76435 2.78403 4.62562 2.88632 4.52332C2.98862 4.42103 3.12735 4.36356 3.27202 4.36356H8.72656C8.87123 4.36356 9.00996 4.42103 9.11226 4.52332C9.21455 4.62562 9.27202 4.76435 9.27202 4.90902C9.27202 5.05368 9.21455 5.19242 9.11226 5.29471C9.00996 5.39701 8.87123 5.45447 8.72656 5.45447H3.27202C3.12735 5.45447 2.98862 5.39701 2.88632 5.29471C2.78403 5.19242 2.72656 5.05368 2.72656 4.90902Z" fill="#454545"/>
<path d="M3.27202 6.54534C3.12735 6.54534 2.98862 6.60281 2.88632 6.7051C2.78403 6.80739 2.72656 6.94613 2.72656 7.0908C2.72656 7.23546 2.78403 7.3742 2.88632 7.47649C2.98862 7.57878 3.12735 7.63625 3.27202 7.63625H8.72656C8.87123 7.63625 9.00996 7.57878 9.11226 7.47649C9.21455 7.3742 9.27202 7.23546 9.27202 7.0908C9.27202 6.94613 9.21455 6.80739 9.11226 6.7051C9.00996 6.60281 8.87123 6.54534 8.72656 6.54534H3.27202Z" fill="#454545"/>
<path d="M2.72656 9.27257C2.72656 9.12791 2.78403 8.98917 2.88632 8.88688C2.98862 8.78459 3.12735 8.72712 3.27202 8.72712H5.45384C5.5985 8.72712 5.73724 8.78459 5.83953 8.88688C5.94182 8.98917 5.99929 9.12791 5.99929 9.27257C5.99929 9.41724 5.94182 9.55598 5.83953 9.65827C5.73724 9.76056 5.5985 9.81803 5.45384 9.81803H3.27202C3.12735 9.81803 2.98862 9.76056 2.88632 9.65827C2.78403 9.55598 2.72656 9.41724 2.72656 9.27257Z" fill="#454545"/>
<path fill-rule="evenodd" clip-rule="evenodd" d="M0.544922 1.63636C0.544922 1.20237 0.717324 0.786158 1.0242 0.47928C1.33108 0.172402 1.74729 0 2.18129 0H9.81765C10.2516 0 10.6679 0.172402 10.9747 0.47928C11.2816 0.786158 11.454 1.20237 11.454 1.63636V10.3636C11.454 10.7976 11.2816 11.2138 10.9747 11.5207C10.6679 11.8276 10.2516 12 9.81765 12H2.18129C1.74729 12 1.33108 11.8276 1.0242 11.5207C0.717324 11.2138 0.544922 10.7976 0.544922 10.3636V1.63636ZM2.18129 1.09091H9.81765C9.96231 1.09091 10.1011 1.14838 10.2033 1.25067C10.3056 1.35296 10.3631 1.4917 10.3631 1.63636V10.3636C10.3631 10.5083 10.3056 10.647 10.2033 10.7493C10.1011 10.8516 9.96231 10.9091 9.81765 10.9091H2.18129C2.03662 10.9091 1.89788 10.8516 1.79559 10.7493C1.6933 10.647 1.63583 10.5083 1.63583 10.3636V1.63636C1.63583 1.4917 1.6933 1.35296 1.79559 1.25067C1.89788 1.14838 2.03662 1.09091 2.18129 1.09091Z" fill="#454545"/>
</svg>
