<svg width="1057" height="135" viewBox="0 0 1057 135" fill="none" xmlns="http://www.w3.org/2000/svg">
<path d="M128.074 267.4C126.174 267.6 124.274 267.9 122.374 268.1C120.274 268.4 118.274 266.8 118.074 264.7C117.774 262.6 119.374 260.6 121.474 260.4C124.874 260 128.274 259.6 131.774 259.1C133.874 258.8 135.874 260.3 136.174 262.4C136.474 264.5 134.974 266.5 132.874 266.8C131.174 267 129.674 267.2 128.074 267.4ZM143.074 265.4C140.974 265.7 139.074 264.2 138.774 262.1C138.474 260 139.974 258 142.074 257.7C145.474 257.2 148.874 256.7 152.274 256.2C154.474 255.9 156.374 257.3 156.674 259.5C156.974 261.6 155.574 263.6 153.374 263.9C149.974 264.4 146.574 264.9 143.074 265.4ZM112.174 269.3C112.074 269.3 112.074 269.3 112.174 269.3C108.574 269.7 105.074 270 101.674 270.3C99.5738 270.5 97.6738 268.9 97.4738 266.8C97.2738 264.7 98.8738 262.8 100.974 262.6C104.274 262.3 107.774 262 111.274 261.6C113.374 261.4 115.374 262.9 115.574 265.1C115.774 267.1 114.274 269 112.174 269.3ZM163.674 262.2C161.574 262.5 159.674 261 159.374 259C159.074 256.9 160.474 254.9 162.574 254.5C165.974 253.9 169.374 253.4 172.774 252.8C174.874 252.4 176.874 253.9 177.274 256C177.674 258.1 176.174 260.1 174.074 260.5C170.574 261.1 167.174 261.7 163.774 262.2C163.674 262.2 163.674 262.2 163.674 262.2ZM91.4738 271.2C91.3738 271.2 91.2738 271.2 91.2738 271.2C87.6738 271.5 84.1738 271.7 80.7738 271.8C78.6738 271.9 76.7738 270.2 76.6738 268.1C76.5738 266 78.2738 264.1 80.3738 264C83.6738 263.8 87.1738 263.6 90.6738 263.4C92.7738 263.3 94.6738 264.9 94.8738 267C94.9738 269.1 93.4738 270.9 91.4738 271.2ZM184.174 258.7C182.174 259 180.174 257.6 179.874 255.5C179.474 253.4 180.874 251.4 182.974 251C186.374 250.4 189.774 249.8 193.174 249.1C195.274 248.7 197.274 250.1 197.674 252.2C198.074 254.3 196.674 256.3 194.574 256.7C191.074 257.3 187.674 258 184.274 258.6C184.274 258.7 184.174 258.7 184.174 258.7ZM70.6738 272.1C70.5738 272.1 70.3738 272.1 70.2738 272.1C66.5738 272.2 63.0738 272.2 59.7738 272.1C57.5738 272.1 55.8738 270.3 55.9738 268.1C55.9738 265.9 57.7738 264.2 59.9738 264.3C63.1738 264.4 66.6738 264.4 70.1738 264.3C72.3738 264.3 74.0738 266 74.1738 268.1C74.0738 270.2 72.6738 271.8 70.6738 272.1ZM204.574 254.9C202.574 255.2 200.674 253.8 200.274 251.8C199.874 249.7 201.274 247.6 203.374 247.2C206.774 246.6 210.174 245.9 213.574 245.2C215.674 244.8 217.774 246.2 218.174 248.3C218.574 250.4 217.174 252.5 215.074 252.9C211.674 253.6 208.274 254.2 204.874 254.9C204.774 254.9 204.674 254.9 204.574 254.9ZM224.974 250.9C222.974 251.2 221.074 249.8 220.674 247.8C220.274 245.7 221.574 243.6 223.674 243.2C227.074 242.5 230.474 241.8 233.874 241.1C235.974 240.7 238.074 242 238.474 244.1C238.874 246.2 237.574 248.3 235.474 248.7C232.074 249.4 228.674 250.1 225.274 250.8C225.174 250.8 225.074 250.9 224.974 250.9ZM245.374 246.6C243.374 246.9 241.474 245.5 241.074 243.5C240.674 241.4 241.974 239.3 244.074 238.9C247.474 238.2 250.774 237.5 254.274 236.7C256.374 236.2 258.474 237.6 258.874 239.7C259.374 241.8 257.974 243.9 255.874 244.3C252.474 245 249.074 245.8 245.674 246.5C245.574 246.6 245.474 246.6 245.374 246.6ZM49.8738 271.6C49.5738 271.6 49.3738 271.6 49.0738 271.6C45.2738 271.3 41.7738 270.9 38.4738 270.4C36.3738 270.1 34.8738 268.1 35.1738 266C35.4738 263.9 37.4738 262.4 39.5738 262.7C42.6738 263.2 46.0738 263.5 49.5738 263.8C51.6738 264 53.3738 265.8 53.1738 268C53.1738 269.9 51.6738 271.4 49.8738 271.6ZM265.674 242.2C263.674 242.5 261.774 241.2 261.374 239.2C260.874 237.1 262.274 235 264.374 234.6C267.774 233.9 271.074 233.1 274.474 232.3C276.574 231.8 278.674 233.1 279.174 235.2C279.674 237.3 278.374 239.4 276.274 239.9C272.874 240.7 269.474 241.4 266.074 242.2C265.874 242.2 265.774 242.2 265.674 242.2ZM285.974 237.7C283.974 238 282.174 236.7 281.674 234.7C281.174 232.6 282.474 230.5 284.574 230C287.974 229.2 291.274 228.5 294.674 227.7C296.774 227.2 298.874 228.5 299.374 230.6C299.874 232.7 298.574 234.8 296.474 235.3C293.074 236.1 289.674 236.9 286.374 237.6C286.174 237.6 286.074 237.7 285.974 237.7ZM306.174 233C304.174 233.2 302.374 232 301.874 230C301.374 227.9 302.674 225.8 304.774 225.3C308.174 224.5 311.474 223.7 314.874 222.9C316.974 222.4 319.074 223.7 319.574 225.8C320.074 227.9 318.774 230 316.674 230.5C313.274 231.3 309.874 232.1 306.574 232.9C306.474 233 306.374 233 306.174 233ZM29.3738 268.4C28.8738 268.5 28.3738 268.4 27.8738 268.3C23.8738 267.2 20.3738 265.9 17.3738 264.3C15.4738 263.3 14.7738 260.9 15.7738 259C16.7738 257.1 19.1738 256.4 21.0738 257.4C23.5738 258.7 26.4738 259.8 29.9738 260.8C32.0738 261.4 33.2738 263.5 32.6738 265.6C32.2738 267.1 30.9738 268.2 29.3738 268.4ZM326.474 228.2C324.574 228.4 322.674 227.2 322.174 225.2C321.674 223.1 322.974 221 325.074 220.5C328.474 219.7 331.774 218.9 335.174 218.1C337.274 217.6 339.374 218.9 339.874 221C340.374 223.1 339.074 225.2 336.974 225.7C333.574 226.5 330.174 227.3 326.874 228.2C326.774 228.1 326.574 228.2 326.474 228.2ZM346.674 223.2C344.774 223.4 342.874 222.2 342.374 220.3C341.874 218.2 343.174 216.1 345.174 215.6C348.574 214.8 351.874 213.9 355.274 213.1C357.374 212.6 359.474 213.9 359.974 215.9C360.474 218 359.174 220.1 357.174 220.6C353.774 221.4 350.474 222.3 347.074 223.1C346.974 223.2 346.774 223.2 346.674 223.2ZM366.774 218.2C364.874 218.4 362.974 217.2 362.474 215.3C361.974 213.2 363.174 211.1 365.274 210.6C368.674 209.8 371.974 208.9 375.374 208.1C377.474 207.6 379.574 208.8 380.074 210.9C380.574 213 379.374 215.1 377.274 215.6C373.874 216.5 370.574 217.3 367.174 218.2C367.174 218.2 366.974 218.2 366.774 218.2ZM386.974 213.1C385.074 213.3 383.174 212.1 382.674 210.2C382.174 208.1 383.374 206 385.474 205.5C388.774 204.6 392.174 203.8 395.574 202.9C397.674 202.4 399.774 203.6 400.274 205.7C400.774 207.8 399.574 209.9 397.474 210.4C394.074 211.3 390.774 212.1 387.374 213C387.274 213 387.174 213.1 386.974 213.1ZM407.074 207.9C405.174 208.1 403.274 206.9 402.774 205C402.274 202.9 403.474 200.8 405.574 200.2C408.874 199.3 412.274 198.4 415.574 197.6C417.674 197.1 419.774 198.3 420.374 200.4C420.874 202.5 419.674 204.6 417.574 205.2C414.174 206.1 410.874 207 407.574 207.8C407.374 207.8 407.274 207.9 407.074 207.9ZM11.7738 258.1C10.3738 258.3 8.97383 257.7 8.07384 256.5C7.87384 256.2 7.67384 255.9 7.37384 255.5C5.47384 252.5 3.87384 249.5 2.67384 246.5C1.87384 244.5 2.87384 242.2 4.87384 241.4C6.87384 240.6 9.17383 241.6 9.97383 243.6C10.9738 246.1 12.2738 248.7 13.9738 251.3C14.0738 251.5 14.2738 251.7 14.3738 251.9C15.6738 253.6 15.2738 256.1 13.4738 257.3C13.0738 257.8 12.4738 258 11.7738 258.1ZM427.174 202.6C425.274 202.8 423.474 201.6 422.874 199.7C422.274 197.6 423.574 195.5 425.674 194.9C428.974 194 432.374 193.1 435.674 192.2C437.774 191.6 439.874 192.9 440.474 195C441.074 197.1 439.774 199.2 437.674 199.8C434.274 200.7 430.974 201.6 427.574 202.5C427.474 202.5 427.374 202.6 427.174 202.6ZM447.274 197.2C445.374 197.4 443.574 196.3 442.974 194.3C442.374 192.2 443.674 190.1 445.674 189.5C449.074 188.6 452.374 187.7 455.774 186.8C457.874 186.2 459.974 187.5 460.574 189.5C461.174 191.6 459.874 193.7 457.874 194.3C454.474 195.2 451.174 196.1 447.774 197C447.574 197.2 447.474 197.2 447.274 197.2ZM467.374 191.8C465.474 192 463.674 190.9 463.174 189C462.574 186.9 463.874 184.8 465.874 184.2C469.174 183.3 472.574 182.4 475.874 181.5C477.974 180.9 480.074 182.2 480.674 184.2C481.274 186.3 479.974 188.4 477.974 189C474.674 189.9 471.274 190.8 467.974 191.7C467.774 191.7 467.574 191.8 467.374 191.8ZM487.474 186.3C485.574 186.5 483.774 185.4 483.274 183.5C482.674 181.4 483.874 179.3 485.974 178.7C489.274 177.8 492.674 176.9 495.974 175.9C498.074 175.3 500.174 176.5 500.774 178.6C501.374 180.7 500.174 182.8 498.074 183.4C494.774 184.3 491.374 185.3 488.074 186.2C487.774 186.2 487.574 186.3 487.474 186.3ZM507.474 180.7C505.574 180.9 503.774 179.8 503.274 177.9C502.674 175.8 503.874 173.7 505.974 173.1C509.274 172.2 512.674 171.2 515.974 170.3C518.074 169.7 520.174 170.9 520.774 173C521.374 175.1 520.174 177.2 518.074 177.8C514.774 178.7 511.374 179.7 508.074 180.6C507.874 180.7 507.674 180.7 507.474 180.7ZM527.474 175.1C525.574 175.3 523.774 174.2 523.274 172.3C522.674 170.2 523.874 168.1 525.974 167.5C529.274 166.6 532.674 165.6 535.974 164.7C538.074 164.1 540.174 165.3 540.774 167.4C541.374 169.5 540.174 171.6 538.074 172.2C534.774 173.1 531.374 174.1 528.074 175C527.874 175 527.674 175.1 527.474 175.1ZM547.474 169.4C545.574 169.6 543.774 168.5 543.274 166.6C542.674 164.5 543.874 162.4 545.974 161.8C549.274 160.8 552.674 159.9 555.974 158.9C558.074 158.3 560.174 159.5 560.774 161.6C561.374 163.7 560.174 165.8 558.074 166.4C554.774 167.4 551.374 168.3 548.074 169.3C547.874 169.4 547.674 169.4 547.474 169.4ZM4.47384 238.9H4.37384C2.27384 239.1 0.373835 237.5 0.173835 235.4C-0.226165 231.6 0.0738354 227.7 0.973835 224C1.47384 221.9 3.57384 220.6 5.67384 221.1C7.77384 221.6 9.07384 223.7 8.57384 225.8C7.87384 228.8 7.67384 231.8 7.97384 234.8C8.07384 236.8 6.57384 238.7 4.47384 238.9ZM567.474 163.7C565.574 163.9 563.774 162.8 563.274 160.9C562.674 158.8 563.874 156.7 565.974 156.1C569.274 155.1 572.674 154.2 575.974 153.2C578.074 152.6 580.174 153.8 580.774 155.9C581.374 158 580.174 160.1 578.074 160.7C574.774 161.7 571.374 162.6 568.074 163.6C567.874 163.6 567.674 163.7 567.474 163.7ZM587.474 157.9C585.574 158.1 583.774 157 583.274 155.1C582.674 153 583.874 150.9 585.974 150.3C589.274 149.3 592.674 148.4 595.974 147.4C598.074 146.8 600.174 148 600.774 150C601.374 152.1 600.174 154.2 598.174 154.8C594.874 155.8 591.574 156.7 588.174 157.7C587.874 157.8 587.674 157.9 587.474 157.9ZM607.374 152.1C605.474 152.3 603.674 151.2 603.174 149.3C602.574 147.2 603.774 145.1 605.774 144.5C609.074 143.5 612.474 142.5 615.774 141.6C617.874 141 619.974 142.2 620.574 144.2C621.174 146.3 619.974 148.4 617.974 149C614.674 150 611.374 151 607.974 151.9C607.774 152 607.574 152.1 607.374 152.1ZM627.374 146.2C625.474 146.4 623.674 145.3 623.174 143.4C622.574 141.3 623.774 139.2 625.774 138.6C629.074 137.6 632.474 136.6 635.774 135.6C637.874 135 639.974 136.2 640.574 138.2C641.174 140.3 639.974 142.4 637.974 143C634.674 144 631.374 145 627.974 146C627.774 146.1 627.574 146.2 627.374 146.2ZM647.274 140.3C645.374 140.5 643.574 139.4 643.074 137.5C642.474 135.4 643.674 133.3 645.674 132.7C648.974 131.7 652.374 130.7 655.674 129.7C657.774 129.1 659.874 130.3 660.474 132.3C661.074 134.4 659.874 136.5 657.874 137.1C654.574 138.1 651.274 139.1 647.874 140.1C647.674 140.2 647.474 140.3 647.274 140.3ZM8.87383 219.1C8.07383 219.2 7.27384 219.1 6.47384 218.7C4.57384 217.7 3.87384 215.3 4.87384 213.4C6.57384 210.3 8.67383 207.3 11.1738 204.3C12.5738 202.7 14.9738 202.4 16.6738 203.8C18.2738 205.2 18.5738 207.6 17.1738 209.3C14.9738 211.9 13.1738 214.5 11.7738 217.2C11.1738 218.3 10.0738 219 8.87383 219.1ZM667.174 134.3C665.274 134.5 663.474 133.4 662.974 131.6C662.374 129.5 663.474 127.4 665.574 126.7C668.874 125.7 672.274 124.7 675.574 123.7C677.674 123.1 679.774 124.2 680.474 126.3C681.074 128.4 679.974 130.5 677.874 131.2C674.574 132.2 671.274 133.2 667.874 134.2C667.674 134.3 667.474 134.3 667.174 134.3ZM687.174 128.3C685.274 128.5 683.474 127.4 682.974 125.6C682.374 123.5 683.474 121.4 685.574 120.7C688.874 119.7 692.274 118.7 695.474 117.7C697.574 117.1 699.674 118.2 700.374 120.3C700.974 122.4 699.874 124.5 697.774 125.2C694.474 126.2 691.174 127.2 687.774 128.2C687.574 128.3 687.374 128.3 687.174 128.3ZM707.074 122.3C705.274 122.5 703.374 121.4 702.874 119.6C702.274 117.5 703.374 115.4 705.474 114.7C708.774 113.7 712.174 112.7 715.374 111.7C717.474 111.1 719.574 112.2 720.274 114.3C720.874 116.4 719.774 118.5 717.674 119.2C714.374 120.2 711.074 121.2 707.674 122.2C707.474 122.2 707.274 122.2 707.074 122.3ZM726.874 116.2C725.074 116.4 723.274 115.3 722.674 113.5C722.074 111.4 723.174 109.3 725.274 108.6C728.674 107.6 731.974 106.5 735.174 105.5C737.274 104.9 739.374 106 740.074 108.1C740.674 110.2 739.574 112.3 737.474 113C734.174 114 730.874 115 727.574 116.1C727.374 116.1 727.174 116.2 726.874 116.2ZM21.9738 203.2C20.7738 203.4 19.4738 202.9 18.5738 201.9C17.1738 200.3 17.2738 197.8 18.8738 196.4C21.3738 194.1 24.1738 191.8 27.2738 189.6C28.9738 188.3 31.4738 188.7 32.6738 190.4C33.9738 192.1 33.5738 194.6 31.8738 195.8C29.0738 197.9 26.4738 200 24.0738 202.1C23.4738 202.8 22.7738 203.1 21.9738 203.2ZM746.774 110.1C744.974 110.3 743.174 109.2 742.574 107.4C741.974 105.3 743.074 103.2 745.174 102.5C748.574 101.5 751.874 100.4 755.074 99.4001C757.074 98.8001 759.274 99.9001 759.974 102C760.574 104.1 759.474 106.2 757.374 106.9C754.074 107.9 750.774 108.9 747.474 110C747.274 110 746.974 110 746.774 110.1ZM766.674 103.9C764.874 104.1 763.074 103 762.474 101.2C761.874 99.1001 762.974 97.0001 765.074 96.3001C768.474 95.2001 771.774 94.2001 774.974 93.2001C777.074 92.6001 779.174 93.7001 779.874 95.8001C780.474 97.9001 779.374 100 777.274 100.7C774.074 101.7 770.674 102.8 767.374 103.8C767.074 103.8 766.874 103.9 766.674 103.9ZM786.574 97.7001C784.774 97.9001 782.974 96.8001 782.374 95.0001C781.774 92.9001 782.874 90.8001 784.974 90.1001C788.374 89.0001 791.674 88.0001 794.874 87.0001C796.874 86.4001 799.074 87.5001 799.774 89.5001C800.374 91.6001 799.274 93.7001 797.274 94.4001C794.074 95.4001 790.774 96.5001 787.374 97.5001C786.974 97.6001 786.774 97.6001 786.574 97.7001ZM38.6738 190.8C37.1738 191 35.6738 190.3 34.8738 189C33.7738 187.2 34.2738 184.8 36.0738 183.6C38.9738 181.8 41.9738 180 45.2738 178.2C47.1738 177.2 49.5738 177.8 50.5738 179.7C51.5738 181.6 50.9738 184 49.0738 185C45.9738 186.7 43.0738 188.4 40.2738 190.2C39.7738 190.6 39.2738 190.8 38.6738 190.8ZM806.374 91.4001C804.574 91.6001 802.774 90.5001 802.174 88.7001C801.574 86.6001 802.674 84.5001 804.674 83.8001C808.074 82.7001 811.374 81.7001 814.574 80.7001C816.674 80.0001 818.774 81.2001 819.474 83.2001C820.174 85.3001 818.974 87.4001 816.974 88.1001C813.774 89.1001 810.474 90.2001 807.074 91.2001C806.874 91.3001 806.574 91.4001 806.374 91.4001ZM826.274 85.1001C824.474 85.3001 822.674 84.2001 822.074 82.4001C821.374 80.4001 822.574 78.2001 824.574 77.5001C828.074 76.4001 831.374 75.3001 834.474 74.3001C836.574 73.6001 838.674 74.8001 839.374 76.8001C840.074 78.8001 838.874 81.0001 836.874 81.7001C833.774 82.7001 830.374 83.8001 826.974 84.9001C826.674 85.0001 826.474 85.1001 826.274 85.1001ZM56.8738 180.7C55.2738 180.9 53.6738 180.1 52.8738 178.6C51.8738 176.7 52.6738 174.3 54.6738 173.4C57.6738 171.9 60.9738 170.4 64.1738 168.9C66.1738 168 68.4738 168.9 69.3738 170.9C70.2738 172.9 69.3738 175.2 67.3738 176.1C64.1738 177.5 61.0738 179 58.0738 180.5C57.6738 180.6 57.2738 180.7 56.8738 180.7ZM846.074 78.8001C844.274 79.0001 842.474 77.9001 841.874 76.1001C841.174 74.1001 842.374 71.9001 844.374 71.2001C847.974 70.0001 851.274 69.0001 854.274 68.0001C856.274 67.3001 858.474 68.5001 859.174 70.5001C859.874 72.5001 858.674 74.7001 856.674 75.4001C853.674 76.4001 850.374 77.4001 846.774 78.6001C846.574 78.7001 846.274 78.7001 846.074 78.8001ZM865.974 72.3001C864.174 72.5001 862.374 71.4001 861.774 69.6001C861.074 67.6001 862.274 65.4001 864.274 64.7001C870.374 62.7001 873.674 61.6001 873.674 61.6001C875.674 60.9001 877.874 62.0001 878.574 64.1001C879.274 66.1001 878.174 68.3001 876.074 69.0001C876.074 69.0001 872.774 70.1001 866.674 72.1001C866.374 72.3001 866.174 72.3001 865.974 72.3001ZM75.8738 172.2C74.1738 172.4 72.4738 171.5 71.7738 169.8C70.9738 167.8 71.8738 165.5 73.8738 164.7C76.9738 163.4 80.2738 162.1 83.6738 160.8C85.6738 160 87.9738 161 88.6738 163C89.4738 165 88.4738 167.3 86.4738 168C83.1738 169.3 79.9738 170.5 76.8738 171.8C76.4738 172.1 76.1738 172.1 75.8738 172.2ZM95.2738 164.7C93.4738 164.9 91.7738 163.9 91.0738 162.1C90.3738 160.1 91.3738 157.8 93.4738 157.1C96.6738 156 100.074 154.8 103.374 153.7C105.374 153 107.574 154.1 108.274 156.2C108.974 158.2 107.874 160.4 105.774 161.1C102.474 162.2 99.1738 163.3 95.9738 164.5C95.8738 164.6 95.5738 164.7 95.2738 164.7ZM115.074 158.1C113.274 158.3 111.474 157.2 110.874 155.4C110.274 153.3 111.374 151.2 113.474 150.5C116.774 149.5 120.074 148.5 123.474 147.4C125.574 146.8 127.674 148 128.274 150C128.874 152.1 127.674 154.2 125.674 154.8C122.274 155.8 118.974 156.8 115.774 157.8C115.474 158.1 115.274 158.1 115.074 158.1ZM135.074 152.2C133.174 152.4 131.374 151.3 130.874 149.4C130.274 147.3 131.474 145.2 133.574 144.6C136.874 143.7 140.274 142.7 143.674 141.9C145.774 141.4 147.874 142.6 148.474 144.7C149.074 146.8 147.774 148.9 145.674 149.5C142.374 150.4 138.974 151.3 135.674 152.2C135.374 152.2 135.174 152.2 135.074 152.2ZM155.174 146.9C153.274 147.1 151.374 145.9 150.874 144C150.374 141.9 151.574 139.8 153.674 139.3C156.974 138.5 160.474 137.6 163.874 136.8C165.974 136.3 168.074 137.6 168.574 139.7C169.074 141.8 167.774 143.9 165.674 144.4C162.274 145.2 158.874 146 155.574 146.9C155.474 146.8 155.274 146.9 155.174 146.9ZM175.474 142.1C173.474 142.4 171.674 141.1 171.174 139.1C170.674 137 172.074 134.9 174.174 134.4C177.574 133.6 181.074 132.9 184.374 132.2C186.474 131.8 188.574 133.1 188.974 135.2C189.374 137.3 188.074 139.4 185.974 139.8C182.674 140.5 179.174 141.2 175.874 142C175.674 142.1 175.574 142.1 175.474 142.1ZM195.874 137.8C193.874 138.1 191.974 136.7 191.574 134.7C191.174 132.6 192.574 130.5 194.674 130.1C201.174 128.8 204.974 128.2 205.074 128.2C207.174 127.8 209.174 129.3 209.574 131.4C209.974 133.5 208.474 135.5 206.374 135.9C206.374 135.9 202.574 136.6 196.174 137.8C196.074 137.8 195.974 137.8 195.874 137.8Z" fill="#A8D29F"/>
<path d="M920.773 124.8L1056.47 23.1001L923.973 48.0001L937.173 69.3001L913.473 103.4L920.773 124.8Z" fill="#82B378"/>
<path d="M1056.47 23.1001L906.673 70.8001L804.873 162.7L1056.47 23.1001Z" fill="#A8D29F"/>
<path d="M923.972 48L1056.47 23.1L911.572 0L923.972 48Z" fill="#A8D29F"/>
</svg>
