<svg width="326" height="184" viewBox="0 0 326 184" fill="none" xmlns="http://www.w3.org/2000/svg">
<path d="M291.906 93.3694C291.357 92.924 290.818 92.5781 290.368 92.1223L290.814 91.5731C291.363 92.0185 291.902 92.3645 292.451 92.8099L291.906 93.3694Z" fill="#263238"/>
<path d="M236.519 159.977C235.352 159.395 234.175 158.714 233.008 158.132L233.344 157.493C234.521 158.175 235.688 158.757 236.855 159.339L236.519 159.977ZM228.52 155.584C227.343 154.902 226.166 154.221 225.088 153.529L225.523 152.88C226.601 153.572 227.778 154.254 228.955 154.935L228.52 155.584ZM220.887 150.85C219.799 150.059 218.622 149.377 217.534 148.586L217.969 147.937C219.057 148.729 220.135 149.421 221.322 150.202L220.887 150.85ZM323.283 135.842C323.048 134.56 322.715 133.287 322.281 132.026L322.967 131.854C323.4 133.115 323.745 134.487 323.979 135.77L323.283 135.842ZM213.412 145.698C212.324 144.907 211.236 144.116 210.148 143.324L210.594 142.775C211.682 143.566 212.77 144.358 213.758 145.159L213.412 145.698ZM206.304 140.206C205.216 139.415 204.217 138.514 203.129 137.722L203.574 137.173C204.563 137.975 205.661 138.866 206.749 139.657L206.304 140.206ZM320.59 127.376C320.067 126.224 319.534 124.973 318.902 123.732L319.567 123.361C320.199 124.602 320.732 125.853 321.255 127.005L320.59 127.376ZM199.274 134.505C198.275 133.604 197.187 132.813 196.188 131.911L196.634 131.362C197.633 132.263 198.721 133.055 199.72 133.956L199.274 134.505ZM316.436 119.364C315.714 118.233 314.993 117.101 314.282 116.07L314.937 115.599C315.757 116.72 316.479 117.851 317.2 118.983L316.436 119.364ZM192.344 128.793C191.345 127.892 190.357 127.091 189.258 126.2L189.704 125.651C190.703 126.552 191.691 127.353 192.789 128.244L192.344 128.793ZM311.25 112.063C310.439 111.041 309.629 110.02 308.719 109.009L309.274 108.549C310.184 109.56 310.995 110.581 311.805 111.603L311.25 112.063ZM185.493 122.873L182.407 120.279L182.852 119.73L185.938 122.323L185.493 122.873ZM305.32 105.342C304.421 104.43 303.511 103.419 302.512 102.518L303.057 101.958C304.056 102.86 304.966 103.871 305.865 104.782L305.32 105.342ZM178.552 117.062C177.553 116.16 176.465 115.369 175.466 114.468L175.912 113.919C176.911 114.82 177.999 115.611 178.997 116.512L178.552 117.062ZM298.835 99.081C297.837 98.1798 296.848 97.3781 295.849 96.4769L296.295 95.9277C297.393 96.8185 298.392 97.7197 299.38 98.5215L298.835 99.081ZM171.611 111.25C170.623 110.449 169.525 109.558 168.536 108.756L168.981 108.207C170.08 109.098 171.068 109.9 172.057 110.701L171.611 111.25ZM164.592 105.649C163.504 104.857 162.516 104.056 161.417 103.165L161.863 102.616C162.951 103.407 163.95 104.308 165.038 105.099L164.592 105.649ZM157.484 100.157C156.396 99.3654 155.308 98.574 154.22 97.7827L154.655 97.134C155.743 97.9254 156.831 98.7168 157.919 99.5081L157.484 100.157ZM150.197 94.8845C149.109 94.0931 148.032 93.4013 146.944 92.6099L147.379 91.9612C148.467 92.7526 149.544 93.4445 150.632 94.2359L150.197 94.8845ZM142.733 89.8319C141.655 89.14 140.468 88.3591 139.39 87.6672L139.825 87.0185C141.002 87.7 142.09 88.4914 143.168 89.1833L142.733 89.8319ZM135.09 84.999C133.913 84.3175 132.835 83.6256 131.658 82.9441L131.994 82.3058C133.171 82.9873 134.348 83.6689 135.425 84.3608L135.09 84.999ZM127.279 80.4853C126.102 79.8038 124.935 79.2217 123.758 78.5402L124.094 77.9019C125.271 78.5834 126.438 79.1655 127.615 79.847L127.279 80.4853ZM119.39 76.1808C118.223 75.5987 117.046 74.9172 115.78 74.3455L116.115 73.7073C117.282 74.2893 118.559 74.9605 119.725 75.5425L119.39 76.1808ZM111.333 72.1955C110.166 71.6134 108.9 71.0417 107.733 70.4597L108.069 69.8214C109.335 70.3931 110.502 70.9751 111.668 71.5572L111.333 72.1955ZM103.097 68.4298C101.931 67.8478 100.675 67.3756 99.4087 66.8039L99.7339 66.0661C101 66.6378 102.256 67.11 103.423 67.6921L103.097 68.4298ZM94.7834 64.8735C93.5276 64.4013 92.2718 63.929 91.0161 63.4568L91.2418 62.7295C92.4976 63.2017 93.7534 63.6739 95.0195 64.2456L94.7834 64.8735ZM86.4115 61.7253C85.1557 61.2531 83.8999 60.7809 82.6545 60.4081L82.8802 59.6808C84.136 60.153 85.3918 60.6252 86.6476 61.0974L86.4115 61.7253ZM77.9505 58.687C76.6947 58.2148 75.4493 57.8421 74.1044 57.4797L74.3301 56.7523C75.5755 57.1251 76.9308 57.5869 78.1866 58.0592L77.9505 58.687ZM69.3113 55.8684C68.0659 55.4957 66.721 55.1333 65.4652 54.6611L65.691 53.9337C66.9364 54.3065 68.2812 54.6689 69.537 55.1411L69.3113 55.8684Z" fill="#263238"/>
<path d="M60.3944 53.2797C59.7769 53.1431 59.149 52.907 58.432 52.7807L58.6578 52.0533C59.2753 52.19 59.9032 52.4261 60.6201 52.5524L60.3944 53.2797Z" fill="#263238"/>
<path d="M61.4848 40.5981L69.9276 57.9154L54.9818 48.6163L0.275391 35.0205L61.4848 40.5981Z" fill="#FFC727"/>
<path opacity="0.1" d="M61.4848 40.5981L69.9276 57.9154L54.9818 48.6163L0.275391 35.0205L61.4848 40.5981Z" fill="black"/>
<path d="M53.7269 52.9698L69.9276 57.9151L54.9818 48.616L53.7269 52.9698Z" fill="#032B70"/>
<path d="M54.9818 48.6163L0.275391 35.0205L47.9409 72.677L54.9818 48.6163Z" fill="#FFC727"/>
<path d="M61.4839 40.598L81.881 24.0919L0.274471 35.0203L61.4839 40.598Z" fill="#FFC727"/>
</svg>
