<svg width="119" height="91" viewBox="0 0 119 91" fill="none" xmlns="http://www.w3.org/2000/svg">
<path d="M15.4071 0.876178L0 65.9766L102.662 90.2732L118.069 25.1728L15.4071 0.876178Z" fill="white"/>
<path d="M117.989 25.2004C112.889 28.2004 107.789 31.0004 102.689 33.9004C97.5895 36.7004 92.4894 39.5004 87.2894 42.3004C81.8894 45.2004 76.5895 48.0004 71.1895 50.9004C70.9895 51.0004 70.8895 51.1004 70.6895 51.2004C65.9895 53.7004 61.1894 56.2004 56.3894 58.7004L55.6895 59.0004L55.1895 58.4004C52.0895 54.0004 48.8894 49.7004 45.7894 45.3004C45.6894 45.2004 45.5894 45.0004 45.4894 44.8004C41.9894 39.9004 38.3894 34.9004 34.9894 29.9004C31.6894 25.1004 28.2894 20.3004 24.9894 15.5004C21.6894 10.6004 18.3895 5.80039 15.1895 0.900391C18.7895 5.30039 22.2894 9.90039 25.7894 14.4004C29.2894 19.0004 32.7894 23.5004 36.2894 28.2004C40.1894 33.3004 43.9894 38.5004 47.7894 43.7004C50.6894 47.6004 53.4894 51.5004 56.3894 55.4004C60.6894 53.2004 64.9894 50.9004 69.2894 48.8004C75.0894 45.9004 80.7894 43.0004 86.5894 40.1004C91.7894 37.5004 96.8895 35.0004 102.089 32.5004C107.689 30.1004 112.789 27.6004 117.989 25.2004Z" fill="#B4D0FF"/>
<path d="M47.7894 45.3003C47.6894 45.3003 47.6895 45.4003 47.6895 45.4003C47.0895 45.7003 46.3894 46.1003 45.7894 46.4003C42.6894 48.0003 39.5894 49.4003 36.3894 50.8003C32.4894 52.5003 28.5895 54.1003 24.6895 55.7003C20.7895 57.2003 16.7894 58.7003 12.7894 60.1003C8.78943 61.5003 4.78945 62.8003 0.689453 64.0003C4.48945 62.0003 8.28945 60.2003 12.1895 58.5003C16.0895 56.8003 19.9894 55.2003 23.8894 53.6003C27.7894 52.1003 31.7894 50.5003 35.7894 49.2003C38.9894 48.1003 42.1894 47.0003 45.4894 46.0003C46.2894 45.8003 46.9894 45.6003 47.7894 45.3003C47.7894 45.3003 47.6894 45.3003 47.7894 45.3003Z" fill="#B4D0FF"/>
<path d="M102.89 88.2004C99.6898 85.4004 96.6898 82.3004 93.7898 79.3004C90.8898 76.3004 87.9898 73.1004 85.1898 70.0004C82.3898 66.8004 79.5898 63.6004 76.8898 60.4004C74.6898 57.7004 72.5898 55.1004 70.4898 52.3004C70.0898 51.7004 69.5898 51.1004 69.1898 50.5004L69.0898 50.4004L69.1898 50.5004C69.7898 51.0004 70.3898 51.6004 70.8898 52.1004C73.3898 54.4004 75.7898 56.8004 78.0898 59.2004C80.9898 62.2004 83.8898 65.4004 86.6898 68.5004C89.4898 71.7004 92.2898 74.9004 94.9898 78.1004C97.7898 81.4004 100.39 84.7004 102.89 88.2004Z" fill="#B4D0FF"/>
</svg>
