<svg width="180" height="180" viewBox="0 0 244 244" fill="none"
    xmlns="http://www.w3.org/2000/svg">
    <rect x="13" y="13" width="218" height="218" rx="20" fill="#FEA162"></rect>
    <g filter="url(#filter0_f)">
        <rect x="6.80078" y="7.23422" width="230.132" height="230.132" rx="19.5" stroke="#C4C4C4"></rect>
    </g>
    <circle opacity="0.4" cx="122" cy="82" r="31" fill="white"></circle>
    <path d="M136.073 93.4144L129.171 86.2359C130.945 84.1263 131.917 81.472 131.917 78.7087C131.917 72.2526 126.665 67 120.209 67C113.753 67 108.5 72.2526 108.5 78.7087C108.5 85.1648 113.753 90.4175 120.209 90.4175C122.632 90.4175 124.942 89.6864 126.917 88.2987L133.871 95.5317C134.162 95.8335 134.553 96 134.972 96C135.368 96 135.745 95.8488 136.03 95.5739C136.637 94.99 136.656 94.0217 136.073 93.4144ZM120.209 70.0545C124.981 70.0545 128.863 73.9367 128.863 78.7087C128.863 83.4808 124.981 87.363 120.209 87.363C115.437 87.363 111.554 83.4808 111.554 78.7087C111.554 73.9367 115.437 70.0545 120.209 70.0545Z" fill="white"></path>
    <path d="M68.3617 148.8C68.3617 149.867 68.1884 150.843 67.8417 151.73C67.4951 152.61 67.0051 153.367 66.3717 154C65.7451 154.633 64.9884 155.127 64.1017 155.48C63.2217 155.827 62.2417 156 61.1617 156H55.7217V141.6H61.1617C62.2417 141.6 63.2217 141.777 64.1017 142.13C64.9884 142.477 65.7451 142.967 66.3717 143.6C67.0051 144.233 67.4951 144.993 67.8417 145.88C68.1884 146.76 68.3617 147.733 68.3617 148.8ZM65.9717 148.8C65.9717 147.973 65.8584 147.23 65.6317 146.57C65.4117 145.91 65.0917 145.353 64.6717 144.9C64.2584 144.447 63.7551 144.1 63.1617 143.86C62.5684 143.613 61.9017 143.49 61.1617 143.49H58.0717V154.11H61.1617C61.9017 154.11 62.5684 153.99 63.1617 153.75C63.7551 153.51 64.2584 153.163 64.6717 152.71C65.0917 152.25 65.4117 151.693 65.6317 151.04C65.8584 150.38 65.9717 149.633 65.9717 148.8ZM72.6008 145.8V156H70.4508V145.8H72.6008ZM72.9608 142.72C72.9608 142.913 72.9208 143.097 72.8408 143.27C72.7674 143.443 72.6641 143.597 72.5308 143.73C72.3974 143.857 72.2408 143.96 72.0608 144.04C71.8874 144.113 71.7008 144.15 71.5008 144.15C71.3074 144.15 71.1241 144.113 70.9508 144.04C70.7841 143.96 70.6374 143.857 70.5108 143.73C70.3841 143.597 70.2808 143.443 70.2008 143.27C70.1274 143.097 70.0908 142.913 70.0908 142.72C70.0908 142.52 70.1274 142.333 70.2008 142.16C70.2808 141.987 70.3841 141.837 70.5108 141.71C70.6374 141.577 70.7841 141.473 70.9508 141.4C71.1241 141.32 71.3074 141.28 71.5008 141.28C71.7008 141.28 71.8874 141.32 72.0608 141.4C72.2408 141.473 72.3974 141.577 72.5308 141.71C72.6641 141.837 72.7674 141.987 72.8408 142.16C72.9208 142.333 72.9608 142.52 72.9608 142.72ZM81.3922 147.65C81.3389 147.743 81.2789 147.81 81.2122 147.85C81.1455 147.89 81.0622 147.91 80.9622 147.91C80.8489 147.91 80.7255 147.877 80.5922 147.81C80.4589 147.737 80.3022 147.657 80.1222 147.57C79.9422 147.483 79.7289 147.407 79.4822 147.34C79.2422 147.267 78.9589 147.23 78.6322 147.23C78.3655 147.23 78.1222 147.263 77.9022 147.33C77.6889 147.39 77.5055 147.48 77.3522 147.6C77.2055 147.713 77.0922 147.85 77.0122 148.01C76.9322 148.163 76.8922 148.33 76.8922 148.51C76.8922 148.75 76.9655 148.95 77.1122 149.11C77.2589 149.27 77.4522 149.41 77.6922 149.53C77.9322 149.643 78.2055 149.747 78.5122 149.84C78.8189 149.933 79.1322 150.033 79.4522 150.14C79.7722 150.247 80.0855 150.37 80.3922 150.51C80.6989 150.65 80.9722 150.823 81.2122 151.03C81.4522 151.23 81.6455 151.477 81.7922 151.77C81.9389 152.057 82.0122 152.407 82.0122 152.82C82.0122 153.3 81.9255 153.743 81.7522 154.15C81.5789 154.557 81.3255 154.91 80.9922 155.21C80.6589 155.51 80.2422 155.743 79.7422 155.91C79.2489 156.077 78.6822 156.16 78.0422 156.16C77.6889 156.16 77.3455 156.127 77.0122 156.06C76.6855 156 76.3722 155.917 76.0722 155.81C75.7789 155.697 75.5022 155.563 75.2422 155.41C74.9889 155.257 74.7622 155.09 74.5622 154.91L75.0622 154.09C75.1222 153.99 75.1955 153.913 75.2822 153.86C75.3755 153.8 75.4889 153.77 75.6222 153.77C75.7622 153.77 75.8989 153.817 76.0322 153.91C76.1722 153.997 76.3322 154.093 76.5122 154.2C76.6989 154.307 76.9222 154.407 77.1822 154.5C77.4422 154.587 77.7655 154.63 78.1522 154.63C78.4722 154.63 78.7489 154.593 78.9822 154.52C79.2155 154.44 79.4089 154.333 79.5622 154.2C79.7155 154.067 79.8289 153.917 79.9022 153.75C79.9755 153.577 80.0122 153.393 80.0122 153.2C80.0122 152.94 79.9389 152.727 79.7922 152.56C79.6455 152.393 79.4489 152.25 79.2022 152.13C78.9622 152.01 78.6855 151.903 78.3722 151.81C78.0655 151.717 77.7522 151.617 77.4322 151.51C77.1122 151.403 76.7955 151.28 76.4822 151.14C76.1755 151 75.8989 150.823 75.6522 150.61C75.4122 150.39 75.2189 150.127 75.0722 149.82C74.9255 149.507 74.8522 149.127 74.8522 148.68C74.8522 148.273 74.9322 147.887 75.0922 147.52C75.2589 147.153 75.4989 146.83 75.8122 146.55C76.1322 146.27 76.5222 146.05 76.9822 145.89C77.4489 145.723 77.9855 145.64 78.5922 145.64C79.2789 145.64 79.9022 145.75 80.4622 145.97C81.0222 146.19 81.4922 146.49 81.8722 146.87L81.3922 147.65ZM91.2427 147.8C91.176 147.887 91.1127 147.953 91.0527 148C90.9927 148.047 90.906 148.07 90.7927 148.07C90.6793 148.07 90.5593 148.03 90.4327 147.95C90.3127 147.87 90.166 147.783 89.9927 147.69C89.826 147.59 89.6227 147.5 89.3827 147.42C89.1427 147.34 88.8427 147.3 88.4827 147.3C88.016 147.3 87.606 147.383 87.2527 147.55C86.906 147.717 86.6127 147.957 86.3727 148.27C86.1393 148.577 85.9627 148.953 85.8427 149.4C85.7293 149.84 85.6727 150.337 85.6727 150.89C85.6727 151.463 85.736 151.973 85.8627 152.42C85.9893 152.867 86.1693 153.243 86.4027 153.55C86.6427 153.857 86.9293 154.09 87.2627 154.25C87.6027 154.41 87.9827 154.49 88.4027 154.49C88.816 154.49 89.1527 154.44 89.4127 154.34C89.6727 154.24 89.8893 154.13 90.0627 154.01C90.236 153.89 90.3827 153.78 90.5027 153.68C90.6293 153.58 90.7627 153.53 90.9027 153.53C91.076 153.53 91.2093 153.597 91.3027 153.73L91.9127 154.52C91.666 154.82 91.3927 155.073 91.0927 155.28C90.7927 155.487 90.476 155.657 90.1427 155.79C89.8093 155.917 89.4627 156.007 89.1027 156.06C88.7427 156.12 88.3793 156.15 88.0127 156.15C87.3793 156.15 86.786 156.033 86.2327 155.8C85.686 155.56 85.206 155.217 84.7927 154.77C84.386 154.317 84.0627 153.767 83.8227 153.12C83.5893 152.467 83.4727 151.723 83.4727 150.89C83.4727 150.137 83.5793 149.44 83.7927 148.8C84.006 148.153 84.316 147.597 84.7227 147.13C85.136 146.663 85.646 146.3 86.2527 146.04C86.8593 145.773 87.5593 145.64 88.3527 145.64C89.0927 145.64 89.7427 145.76 90.3027 146C90.8693 146.24 91.3727 146.58 91.8127 147.02L91.2427 147.8ZM97.8763 145.64C98.6296 145.64 99.3096 145.763 99.9163 146.01C100.53 146.257 101.05 146.607 101.476 147.06C101.91 147.513 102.243 148.063 102.476 148.71C102.71 149.357 102.826 150.083 102.826 150.89C102.826 151.697 102.71 152.423 102.476 153.07C102.243 153.717 101.91 154.27 101.476 154.73C101.05 155.183 100.53 155.533 99.9163 155.78C99.3096 156.027 98.6296 156.15 97.8763 156.15C97.1163 156.15 96.4296 156.027 95.8163 155.78C95.2096 155.533 94.6896 155.183 94.2563 154.73C93.8229 154.27 93.4896 153.717 93.2563 153.07C93.0229 152.423 92.9063 151.697 92.9063 150.89C92.9063 150.083 93.0229 149.357 93.2563 148.71C93.4896 148.063 93.8229 147.513 94.2563 147.06C94.6896 146.607 95.2096 146.257 95.8163 146.01C96.4296 145.763 97.1163 145.64 97.8763 145.64ZM97.8763 154.47C98.7963 154.47 99.4796 154.163 99.9263 153.55C100.38 152.93 100.606 152.047 100.606 150.9C100.606 149.753 100.38 148.87 99.9263 148.25C99.4796 147.623 98.7963 147.31 97.8763 147.31C96.9429 147.31 96.2496 147.623 95.7963 148.25C95.3429 148.87 95.1163 149.753 95.1163 150.9C95.1163 152.047 95.3429 152.93 95.7963 153.55C96.2496 154.163 96.9429 154.47 97.8763 154.47ZM113.579 145.8L109.479 156H107.539L103.439 145.8H105.209C105.376 145.8 105.512 145.843 105.619 145.93C105.732 146.01 105.806 146.107 105.839 146.22L108.099 152.16C108.192 152.44 108.276 152.717 108.349 152.99C108.422 153.263 108.486 153.54 108.539 153.82C108.592 153.54 108.656 153.267 108.729 153C108.809 152.727 108.896 152.447 108.989 152.16L111.289 146.22C111.329 146.1 111.402 146 111.509 145.92C111.616 145.84 111.746 145.8 111.899 145.8H113.579ZM121.445 149.75C121.445 149.39 121.392 149.057 121.285 148.75C121.185 148.437 121.035 148.167 120.835 147.94C120.635 147.707 120.385 147.527 120.085 147.4C119.792 147.267 119.452 147.2 119.065 147.2C118.285 147.2 117.672 147.423 117.225 147.87C116.779 148.317 116.495 148.943 116.375 149.75H121.445ZM116.315 151.07C116.342 151.65 116.432 152.153 116.585 152.58C116.739 153 116.942 153.35 117.195 153.63C117.455 153.91 117.762 154.12 118.115 154.26C118.475 154.393 118.875 154.46 119.315 154.46C119.735 154.46 120.099 154.413 120.405 154.32C120.712 154.22 120.979 154.113 121.205 154C121.432 153.88 121.625 153.773 121.785 153.68C121.945 153.58 122.092 153.53 122.225 153.53C122.399 153.53 122.532 153.597 122.625 153.73L123.235 154.52C122.982 154.82 122.695 155.073 122.375 155.28C122.055 155.487 121.715 155.657 121.355 155.79C120.995 155.917 120.625 156.007 120.245 156.06C119.865 156.12 119.495 156.15 119.135 156.15C118.429 156.15 117.772 156.033 117.165 155.8C116.565 155.56 116.042 155.21 115.595 154.75C115.155 154.29 114.809 153.72 114.555 153.04C114.309 152.36 114.185 151.577 114.185 150.69C114.185 149.983 114.295 149.323 114.515 148.71C114.742 148.097 115.062 147.563 115.475 147.11C115.895 146.657 116.402 146.3 116.995 146.04C117.595 145.773 118.272 145.64 119.025 145.64C119.652 145.64 120.232 145.743 120.765 145.95C121.299 146.15 121.759 146.447 122.145 146.84C122.532 147.233 122.832 147.717 123.045 148.29C123.265 148.857 123.375 149.503 123.375 150.23C123.375 150.563 123.339 150.787 123.265 150.9C123.192 151.013 123.059 151.07 122.865 151.07H116.315ZM127.41 147.69C127.73 147.043 128.117 146.537 128.57 146.17C129.024 145.797 129.567 145.61 130.2 145.61C130.42 145.61 130.627 145.637 130.82 145.69C131.014 145.737 131.187 145.81 131.34 145.91L131.19 147.53C131.164 147.643 131.12 147.723 131.06 147.77C131.007 147.81 130.934 147.83 130.84 147.83C130.74 147.83 130.597 147.813 130.41 147.78C130.224 147.74 130.027 147.72 129.82 147.72C129.52 147.72 129.254 147.763 129.02 147.85C128.794 147.937 128.587 148.063 128.4 148.23C128.22 148.397 128.06 148.6 127.92 148.84C127.78 149.08 127.65 149.353 127.53 149.66V156H125.38V145.8H126.63C126.857 145.8 127.014 145.843 127.1 145.93C127.187 146.01 127.247 146.153 127.28 146.36L127.41 147.69ZM139.464 153.44C139.764 153.827 140.091 154.1 140.444 154.26C140.804 154.413 141.201 154.49 141.634 154.49C142.474 154.49 143.127 154.183 143.594 153.57C144.067 152.957 144.304 152.043 144.304 150.83C144.304 150.203 144.251 149.67 144.144 149.23C144.037 148.783 143.884 148.42 143.684 148.14C143.484 147.86 143.241 147.657 142.954 147.53C142.667 147.403 142.344 147.34 141.984 147.34C141.437 147.34 140.964 147.46 140.564 147.7C140.171 147.933 139.804 148.27 139.464 148.71V153.44ZM139.354 147.28C139.781 146.78 140.264 146.377 140.804 146.07C141.351 145.763 141.984 145.61 142.704 145.61C143.277 145.61 143.797 145.727 144.264 145.96C144.731 146.187 145.131 146.52 145.464 146.96C145.797 147.4 146.054 147.947 146.234 148.6C146.421 149.247 146.514 149.99 146.514 150.83C146.514 151.583 146.411 152.287 146.204 152.94C146.004 153.587 145.714 154.15 145.334 154.63C144.954 155.103 144.494 155.477 143.954 155.75C143.414 156.017 142.804 156.15 142.124 156.15C141.524 156.15 141.014 156.053 140.594 155.86C140.181 155.667 139.804 155.4 139.464 155.06V159.39H137.314V145.8H138.614C138.907 145.8 139.094 145.937 139.174 146.21L139.354 147.28ZM150.793 141.2V156H148.643V141.2H150.793ZM162.047 145.8V156H160.747C160.46 156 160.277 155.863 160.197 155.59L160.037 154.64C159.823 154.867 159.597 155.073 159.357 155.26C159.123 155.447 158.873 155.607 158.607 155.74C158.34 155.873 158.053 155.977 157.747 156.05C157.447 156.123 157.123 156.16 156.777 156.16C156.217 156.16 155.723 156.067 155.297 155.88C154.87 155.693 154.51 155.43 154.217 155.09C153.93 154.75 153.713 154.343 153.567 153.87C153.42 153.39 153.347 152.863 153.347 152.29V145.8H155.497V152.29C155.497 152.977 155.653 153.51 155.967 153.89C156.287 154.27 156.77 154.46 157.417 154.46C157.89 154.46 158.33 154.353 158.737 154.14C159.15 153.92 159.537 153.62 159.897 153.24V145.8H162.047ZM168.298 150.81C168.964 150.81 169.464 150.64 169.798 150.3C170.131 149.96 170.298 149.517 170.298 148.97C170.298 148.41 170.131 147.967 169.798 147.64C169.464 147.313 168.964 147.15 168.298 147.15C167.638 147.15 167.138 147.313 166.798 147.64C166.464 147.967 166.298 148.41 166.298 148.97C166.298 149.237 166.341 149.483 166.428 149.71C166.514 149.937 166.641 150.133 166.808 150.3C166.974 150.46 167.181 150.587 167.428 150.68C167.681 150.767 167.971 150.81 168.298 150.81ZM171.288 156.5C171.288 156.273 171.221 156.093 171.088 155.96C170.961 155.82 170.788 155.713 170.568 155.64C170.348 155.56 170.091 155.503 169.798 155.47C169.504 155.43 169.191 155.403 168.858 155.39C168.531 155.37 168.194 155.353 167.848 155.34C167.508 155.32 167.178 155.287 166.858 155.24C166.538 155.407 166.274 155.607 166.068 155.84C165.868 156.073 165.768 156.343 165.768 156.65C165.768 156.85 165.818 157.037 165.918 157.21C166.024 157.383 166.184 157.533 166.398 157.66C166.618 157.787 166.894 157.887 167.228 157.96C167.568 158.033 167.974 158.07 168.448 158.07C169.394 158.07 170.104 157.923 170.578 157.63C171.051 157.337 171.288 156.96 171.288 156.5ZM173.448 146.17V146.97C173.448 147.237 173.288 147.4 172.968 147.46L171.948 147.63C172.121 148.017 172.208 148.447 172.208 148.92C172.208 149.42 172.108 149.873 171.908 150.28C171.714 150.687 171.444 151.033 171.098 151.32C170.751 151.607 170.338 151.827 169.858 151.98C169.378 152.133 168.858 152.21 168.298 152.21C168.084 152.21 167.874 152.2 167.668 152.18C167.468 152.153 167.271 152.12 167.078 152.08C166.884 152.193 166.741 152.313 166.648 152.44C166.554 152.567 166.508 152.697 166.508 152.83C166.508 153.05 166.604 153.213 166.798 153.32C166.991 153.427 167.244 153.503 167.558 153.55C167.878 153.597 168.241 153.627 168.648 153.64C169.054 153.653 169.468 153.677 169.888 153.71C170.308 153.743 170.721 153.8 171.128 153.88C171.534 153.953 171.894 154.08 172.208 154.26C172.528 154.433 172.784 154.67 172.978 154.97C173.171 155.27 173.268 155.66 173.268 156.14C173.268 156.58 173.158 157.01 172.938 157.43C172.718 157.85 172.398 158.223 171.978 158.55C171.564 158.877 171.058 159.137 170.458 159.33C169.858 159.53 169.174 159.63 168.408 159.63C167.648 159.63 166.984 159.557 166.418 159.41C165.858 159.263 165.388 159.063 165.008 158.81C164.634 158.563 164.354 158.277 164.168 157.95C163.988 157.623 163.898 157.283 163.898 156.93C163.898 156.45 164.048 156.04 164.348 155.7C164.654 155.36 165.068 155.093 165.588 154.9C165.308 154.767 165.081 154.583 164.908 154.35C164.741 154.117 164.658 153.81 164.658 153.43C164.658 153.13 164.768 152.817 164.988 152.49C165.208 152.163 165.538 151.887 165.978 151.66C165.471 151.38 165.071 151.01 164.778 150.55C164.484 150.083 164.338 149.54 164.338 148.92C164.338 148.413 164.434 147.957 164.628 147.55C164.828 147.143 165.104 146.797 165.458 146.51C165.811 146.223 166.228 146.003 166.708 145.85C167.194 145.697 167.724 145.62 168.298 145.62C169.178 145.62 169.944 145.803 170.598 146.17H173.448ZM177.386 145.8V156H175.236V145.8H177.386ZM177.746 142.72C177.746 142.913 177.706 143.097 177.626 143.27C177.553 143.443 177.449 143.597 177.316 143.73C177.183 143.857 177.026 143.96 176.846 144.04C176.673 144.113 176.486 144.15 176.286 144.15C176.093 144.15 175.909 144.113 175.736 144.04C175.569 143.96 175.423 143.857 175.296 143.73C175.169 143.597 175.066 143.443 174.986 143.27C174.913 143.097 174.876 142.913 174.876 142.72C174.876 142.52 174.913 142.333 174.986 142.16C175.066 141.987 175.169 141.837 175.296 141.71C175.423 141.577 175.569 141.473 175.736 141.4C175.909 141.32 176.093 141.28 176.286 141.28C176.486 141.28 176.673 141.32 176.846 141.4C177.026 141.473 177.183 141.577 177.316 141.71C177.449 141.837 177.553 141.987 177.626 142.16C177.706 142.333 177.746 142.52 177.746 142.72ZM182.097 147.15C182.317 146.923 182.544 146.72 182.777 146.54C183.017 146.353 183.271 146.193 183.537 146.06C183.804 145.927 184.087 145.823 184.387 145.75C184.687 145.677 185.014 145.64 185.367 145.64C185.927 145.64 186.417 145.733 186.837 145.92C187.264 146.107 187.621 146.37 187.907 146.71C188.201 147.05 188.421 147.46 188.567 147.94C188.714 148.413 188.787 148.937 188.787 149.51V156H186.647V149.51C186.647 148.823 186.487 148.29 186.167 147.91C185.854 147.53 185.374 147.34 184.727 147.34C184.247 147.34 183.801 147.45 183.387 147.67C182.981 147.89 182.597 148.19 182.237 148.57V156H180.087V145.8H181.387C181.681 145.8 181.867 145.937 181.947 146.21L182.097 147.15ZM69.8203 186V177.51L68.8203 177.37C68.6536 177.337 68.517 177.277 68.4103 177.19C68.3103 177.103 68.2603 176.98 68.2603 176.82V175.94H69.8203V175.08C69.8203 174.5 69.9036 173.98 70.0703 173.52C70.2436 173.06 70.487 172.67 70.8003 172.35C71.1203 172.03 71.507 171.787 71.9603 171.62C72.4136 171.447 72.9236 171.36 73.4903 171.36C73.7236 171.36 73.9436 171.377 74.1503 171.41C74.3636 171.443 74.5703 171.493 74.7703 171.56L74.7303 172.64C74.717 172.82 74.627 172.927 74.4603 172.96C74.3003 172.993 74.097 173.01 73.8503 173.01C73.5503 173.01 73.2803 173.047 73.0403 173.12C72.8003 173.187 72.5936 173.303 72.4203 173.47C72.2536 173.637 72.1236 173.857 72.0303 174.13C71.9436 174.403 71.9003 174.743 71.9003 175.15V175.94H74.6903V177.49H71.9703V186H69.8203ZM80.3372 175.64C81.0905 175.64 81.7705 175.763 82.3772 176.01C82.9905 176.257 83.5105 176.607 83.9372 177.06C84.3705 177.513 84.7039 178.063 84.9372 178.71C85.1705 179.357 85.2872 180.083 85.2872 180.89C85.2872 181.697 85.1705 182.423 84.9372 183.07C84.7039 183.717 84.3705 184.27 83.9372 184.73C83.5105 185.183 82.9905 185.533 82.3772 185.78C81.7705 186.027 81.0905 186.15 80.3372 186.15C79.5772 186.15 78.8905 186.027 78.2772 185.78C77.6705 185.533 77.1505 185.183 76.7172 184.73C76.2839 184.27 75.9505 183.717 75.7172 183.07C75.4839 182.423 75.3672 181.697 75.3672 180.89C75.3672 180.083 75.4839 179.357 75.7172 178.71C75.9505 178.063 76.2839 177.513 76.7172 177.06C77.1505 176.607 77.6705 176.257 78.2772 176.01C78.8905 175.763 79.5772 175.64 80.3372 175.64ZM80.3372 184.47C81.2572 184.47 81.9405 184.163 82.3872 183.55C82.8405 182.93 83.0672 182.047 83.0672 180.9C83.0672 179.753 82.8405 178.87 82.3872 178.25C81.9405 177.623 81.2572 177.31 80.3372 177.31C79.4039 177.31 78.7105 177.623 78.2572 178.25C77.8039 178.87 77.5772 179.753 77.5772 180.9C77.5772 182.047 77.8039 182.93 78.2572 183.55C78.7105 184.163 79.4039 184.47 80.3372 184.47ZM89.383 177.69C89.703 177.043 90.0896 176.537 90.543 176.17C90.9963 175.797 91.5396 175.61 92.173 175.61C92.393 175.61 92.5996 175.637 92.793 175.69C92.9863 175.737 93.1596 175.81 93.313 175.91L93.163 177.53C93.1363 177.643 93.093 177.723 93.033 177.77C92.9796 177.81 92.9063 177.83 92.813 177.83C92.713 177.83 92.5696 177.813 92.383 177.78C92.1963 177.74 91.9996 177.72 91.793 177.72C91.493 177.72 91.2263 177.763 90.993 177.85C90.7663 177.937 90.5596 178.063 90.373 178.23C90.193 178.397 90.033 178.6 89.893 178.84C89.753 179.08 89.623 179.353 89.503 179.66V186H87.353V175.8H88.603C88.8296 175.8 88.9863 175.843 89.073 175.93C89.1596 176.01 89.2196 176.153 89.253 176.36L89.383 177.69ZM109.467 172.47C109.467 172.603 109.443 172.733 109.397 172.86C109.357 172.987 109.3 173.107 109.227 173.22L101.497 184.11H109.317V186H98.4366V185.08C98.4366 184.953 98.4566 184.837 98.4966 184.73C98.5366 184.617 98.5899 184.51 98.6566 184.41L106.417 173.49H98.8666V171.6H109.467V172.47ZM119.527 175.8V186H118.227C117.941 186 117.757 185.863 117.677 185.59L117.517 184.64C117.304 184.867 117.077 185.073 116.837 185.26C116.604 185.447 116.354 185.607 116.087 185.74C115.821 185.873 115.534 185.977 115.227 186.05C114.927 186.123 114.604 186.16 114.257 186.16C113.697 186.16 113.204 186.067 112.777 185.88C112.351 185.693 111.991 185.43 111.697 185.09C111.411 184.75 111.194 184.343 111.047 183.87C110.901 183.39 110.827 182.863 110.827 182.29V175.8H112.977V182.29C112.977 182.977 113.134 183.51 113.447 183.89C113.767 184.27 114.251 184.46 114.897 184.46C115.371 184.46 115.811 184.353 116.217 184.14C116.631 183.92 117.017 183.62 117.377 183.24V175.8H119.527ZM124.168 177.69C124.488 177.043 124.875 176.537 125.328 176.17C125.781 175.797 126.325 175.61 126.958 175.61C127.178 175.61 127.385 175.637 127.578 175.69C127.771 175.737 127.945 175.81 128.098 175.91L127.948 177.53C127.921 177.643 127.878 177.723 127.818 177.77C127.765 177.81 127.691 177.83 127.598 177.83C127.498 177.83 127.355 177.813 127.168 177.78C126.981 177.74 126.785 177.72 126.578 177.72C126.278 177.72 126.011 177.763 125.778 177.85C125.551 177.937 125.345 178.063 125.158 178.23C124.978 178.397 124.818 178.6 124.678 178.84C124.538 179.08 124.408 179.353 124.288 179.66V186H122.138V175.8H123.388C123.615 175.8 123.771 175.843 123.858 175.93C123.945 176.01 124.005 176.153 124.038 176.36L124.168 177.69ZM131.761 175.8V186H129.611V175.8H131.761ZM132.121 172.72C132.121 172.913 132.081 173.097 132.001 173.27C131.928 173.443 131.824 173.597 131.691 173.73C131.558 173.857 131.401 173.96 131.221 174.04C131.048 174.113 130.861 174.15 130.661 174.15C130.468 174.15 130.284 174.113 130.111 174.04C129.944 173.96 129.798 173.857 129.671 173.73C129.544 173.597 129.441 173.443 129.361 173.27C129.288 173.097 129.251 172.913 129.251 172.72C129.251 172.52 129.288 172.333 129.361 172.16C129.441 171.987 129.544 171.837 129.671 171.71C129.798 171.577 129.944 171.473 130.111 171.4C130.284 171.32 130.468 171.28 130.661 171.28C130.861 171.28 131.048 171.32 131.221 171.4C131.401 171.473 131.558 171.577 131.691 171.71C131.824 171.837 131.928 171.987 132.001 172.16C132.081 172.333 132.121 172.52 132.121 172.72ZM146.653 177.8C146.586 177.887 146.523 177.953 146.463 178C146.403 178.047 146.316 178.07 146.203 178.07C146.089 178.07 145.969 178.03 145.843 177.95C145.723 177.87 145.576 177.783 145.403 177.69C145.236 177.59 145.033 177.5 144.793 177.42C144.553 177.34 144.253 177.3 143.893 177.3C143.426 177.3 143.016 177.383 142.663 177.55C142.316 177.717 142.023 177.957 141.783 178.27C141.549 178.577 141.373 178.953 141.253 179.4C141.139 179.84 141.083 180.337 141.083 180.89C141.083 181.463 141.146 181.973 141.273 182.42C141.399 182.867 141.579 183.243 141.813 183.55C142.053 183.857 142.339 184.09 142.673 184.25C143.013 184.41 143.393 184.49 143.813 184.49C144.226 184.49 144.563 184.44 144.823 184.34C145.083 184.24 145.299 184.13 145.473 184.01C145.646 183.89 145.793 183.78 145.913 183.68C146.039 183.58 146.173 183.53 146.313 183.53C146.486 183.53 146.619 183.597 146.713 183.73L147.323 184.52C147.076 184.82 146.803 185.073 146.503 185.28C146.203 185.487 145.886 185.657 145.553 185.79C145.219 185.917 144.873 186.007 144.513 186.06C144.153 186.12 143.789 186.15 143.423 186.15C142.789 186.15 142.196 186.033 141.643 185.8C141.096 185.56 140.616 185.217 140.203 184.77C139.796 184.317 139.473 183.767 139.233 183.12C138.999 182.467 138.883 181.723 138.883 180.89C138.883 180.137 138.989 179.44 139.203 178.8C139.416 178.153 139.726 177.597 140.133 177.13C140.546 176.663 141.056 176.3 141.663 176.04C142.269 175.773 142.969 175.64 143.763 175.64C144.503 175.64 145.153 175.76 145.713 176C146.279 176.24 146.783 176.58 147.223 177.02L146.653 177.8ZM151.202 177.01C151.622 176.597 152.082 176.267 152.582 176.02C153.082 175.767 153.666 175.64 154.332 175.64C154.892 175.64 155.382 175.733 155.802 175.92C156.229 176.107 156.586 176.37 156.872 176.71C157.166 177.05 157.386 177.46 157.532 177.94C157.679 178.413 157.752 178.937 157.752 179.51V186H155.612V179.51C155.612 178.823 155.452 178.29 155.132 177.91C154.819 177.53 154.339 177.34 153.692 177.34C153.212 177.34 152.766 177.45 152.352 177.67C151.946 177.89 151.562 178.19 151.202 178.57V186H149.052V171.2H151.202V177.01ZM165.713 181.54C164.946 181.567 164.3 181.63 163.773 181.73C163.246 181.823 162.82 181.947 162.493 182.1C162.166 182.247 161.93 182.423 161.783 182.63C161.643 182.837 161.573 183.063 161.573 183.31C161.573 183.55 161.61 183.757 161.683 183.93C161.763 184.097 161.87 184.237 162.003 184.35C162.143 184.457 162.303 184.537 162.483 184.59C162.67 184.637 162.873 184.66 163.093 184.66C163.653 184.66 164.133 184.557 164.533 184.35C164.94 184.137 165.333 183.83 165.713 183.43V181.54ZM160.013 177.22C161.166 176.147 162.54 175.61 164.133 175.61C164.72 175.61 165.24 175.707 165.693 175.9C166.153 176.087 166.536 176.353 166.843 176.7C167.156 177.047 167.393 177.46 167.553 177.94C167.72 178.413 167.803 178.94 167.803 179.52V186H166.843C166.636 186 166.48 185.97 166.373 185.91C166.266 185.843 166.176 185.713 166.103 185.52L165.893 184.69C165.633 184.923 165.376 185.133 165.123 185.32C164.87 185.5 164.606 185.653 164.333 185.78C164.066 185.907 163.776 186 163.463 186.06C163.156 186.127 162.816 186.16 162.443 186.16C162.03 186.16 161.643 186.103 161.283 185.99C160.93 185.877 160.623 185.707 160.363 185.48C160.103 185.247 159.896 184.96 159.743 184.62C159.596 184.28 159.523 183.88 159.523 183.42C159.523 183.027 159.626 182.643 159.833 182.27C160.046 181.897 160.393 181.563 160.873 181.27C161.36 180.97 161.996 180.723 162.783 180.53C163.576 180.337 164.553 180.227 165.713 180.2V179.52C165.713 178.787 165.556 178.24 165.243 177.88C164.93 177.52 164.47 177.34 163.863 177.34C163.45 177.34 163.103 177.393 162.823 177.5C162.543 177.6 162.3 177.71 162.093 177.83C161.886 177.95 161.703 178.063 161.543 178.17C161.383 178.27 161.213 178.32 161.033 178.32C160.886 178.32 160.76 178.283 160.653 178.21C160.553 178.13 160.47 178.033 160.403 177.92L160.013 177.22ZM173.455 186.16C172.608 186.16 171.955 185.923 171.495 185.45C171.042 184.97 170.815 184.297 170.815 183.43V177.49H169.695C169.575 177.49 169.472 177.453 169.385 177.38C169.298 177.3 169.255 177.183 169.255 177.03V176.16L170.905 175.92L171.375 172.97C171.408 172.857 171.465 172.767 171.545 172.7C171.625 172.627 171.732 172.59 171.865 172.59H172.965V175.94H175.795V177.49H172.965V183.28C172.965 183.647 173.055 183.927 173.235 184.12C173.415 184.313 173.655 184.41 173.955 184.41C174.122 184.41 174.265 184.39 174.385 184.35C174.505 184.303 174.608 184.257 174.695 184.21C174.782 184.157 174.855 184.11 174.915 184.07C174.982 184.023 175.045 184 175.105 184C175.225 184 175.322 184.067 175.395 184.2L176.035 185.25C175.702 185.543 175.308 185.77 174.855 185.93C174.402 186.083 173.935 186.16 173.455 186.16Z" fill="white"></path>
    <defs>
        <filter id="filter0_f" x="0.300781" y="0.734222" width="243.132" height="243.132" filterUnits="userSpaceOnUse" color-interpolation-filters="sRGB">
            <feFlood flood-opacity="0" result="BackgroundImageFix"></feFlood>
            <feBlend mode="normal" in="SourceGraphic" in2="BackgroundImageFix" result="shape"></feBlend>
            <feGaussianBlur stdDeviation="3" result="effect1_foregroundBlur"></feGaussianBlur>
        </filter>
    </defs>
</svg>
