<svg width="16" height="16" viewBox="0 0 16 16" fill="none" xmlns="http://www.w3.org/2000/svg">
<path d="M10.7731 8.07351C10.7731 9.6192 9.53149 10.8722 7.99987 10.8722C6.46825 10.8722 5.22662 9.6192 5.22662 8.07351C5.22662 6.52782 6.46825 5.27479 7.99987 5.27479C9.53149 5.27479 10.7731 6.52782 10.7731 8.07351ZM10.7731 8.07351L10.7732 8.77319C10.7732 9.93246 11.7044 10.8722 12.8531 10.8722C14.0019 10.8722 14.9331 9.93246 14.9331 8.77319V8.07351C14.9329 4.82204 12.7132 1.99919 9.57559 1.26025C6.43801 0.521304 3.20949 2.06103 1.78319 4.97654C0.356886 7.89206 1.10873 11.4149 3.59784 13.4794C6.08696 15.5439 9.65731 15.6059 12.2153 13.629" stroke="#616061" stroke-width="0.941892" stroke-linecap="round" stroke-linejoin="round"/>
</svg>
