<svg width="54" height="70" viewBox="0 0 54 70" fill="none" xmlns="http://www.w3.org/2000/svg">
<path d="M52.4188 16.206L37.6145 1.40178C36.7106 0.497793 35.509 0 34.2307 0H5.28516C2.64662 0 0.5 2.14662 0.5 4.78516V65.2148C0.5 67.8534 2.64662 70 5.28516 70H49.0352C51.6737 70 53.8203 67.8534 53.8203 65.2148V19.5896C53.8203 18.3117 53.3227 17.1101 52.4188 16.206ZM46.8185 16.4062H38.0977C37.7207 16.4062 37.4141 16.0996 37.4141 15.7227V7.00191L46.8185 16.4062ZM49.0352 65.8984H5.28516C4.90822 65.8984 4.60156 65.5918 4.60156 65.2148V4.78516C4.60156 4.40822 4.90822 4.10156 5.28516 4.10156H33.3125V15.7227C33.3125 18.3612 35.4591 20.5078 38.0977 20.5078H49.7188V65.2148C49.7188 65.5918 49.4121 65.8984 49.0352 65.8984Z" fill="#00B87C"/>
<path d="M29.3633 31.3086H42.4296C43.5622 31.3086 44.4804 30.3904 44.4804 29.2578C44.4804 28.1252 43.5622 27.207 42.4296 27.207H29.3633C28.2307 27.207 27.3125 28.1252 27.3125 29.2578C27.3125 30.3904 28.2306 31.3086 29.3633 31.3086Z" fill="#00B87C"/>
<path d="M29.3633 44.9805H42.4296C43.5622 44.9805 44.4804 44.0623 44.4804 42.9297C44.4804 41.7971 43.5622 40.8789 42.4296 40.8789H29.3633C28.2307 40.8789 27.3125 41.7971 27.3125 42.9297C27.3125 44.0623 28.2306 44.9805 29.3633 44.9805Z" fill="#00B87C"/>
<path d="M42.4883 54.5508H29.3633C28.2307 54.5508 27.3125 55.469 27.3125 56.6016C27.3125 57.7341 28.2307 58.6523 29.3633 58.6523H42.4883C43.6209 58.6523 44.5391 57.7341 44.5391 56.6016C44.5391 55.469 43.6209 54.5508 42.4883 54.5508Z" fill="#00B87C"/>
<path d="M19.1306 23.6739L14.4013 28.4032L13.286 27.2879C12.4853 26.487 11.1867 26.487 10.3858 27.2879C9.58493 28.0888 9.58493 29.3873 10.3858 30.1882L12.9512 32.7535C13.3517 33.154 13.8765 33.3543 14.4013 33.3543C14.926 33.3543 15.451 33.1541 15.8513 32.7535L22.0307 26.5741C22.8316 25.7732 22.8316 24.4748 22.0307 23.6739C21.23 22.873 19.9314 22.873 19.1306 23.6739Z" fill="#00B87C"/>
<path d="M19.1306 38.3899L14.4013 43.1192L13.286 42.004C12.4853 41.2033 11.1867 41.2031 10.3858 42.004C9.58493 42.8049 9.58493 44.1033 10.3858 44.9042L12.9512 47.4695C13.3517 47.8699 13.8765 48.0701 14.4013 48.0701C14.926 48.0701 15.451 47.87 15.8513 47.4694L22.0307 41.29C22.8316 40.4891 22.8316 39.1906 22.0307 38.3897C21.23 37.589 19.9314 37.589 19.1306 38.3899Z" fill="#00B87C"/>
<path d="M19.1306 52.0618L14.4013 56.7911L13.286 55.6759C12.4853 54.8751 11.1867 54.875 10.3858 55.6759C9.58493 56.4768 9.58493 57.7752 10.3858 58.5761L12.9512 61.1414C13.3517 61.5418 13.8765 61.742 14.4013 61.742C14.926 61.742 15.451 61.5418 15.8513 61.1412L22.0307 54.9618C22.8316 54.1609 22.8316 52.8625 22.0307 52.0616C21.23 51.2609 19.9314 51.2609 19.1306 52.0618Z" fill="#00B87C"/>
</svg>
