<svg width="150" height="150" viewBox="0 0 150 150" fill="none" xmlns="http://www.w3.org/2000/svg">
<circle cx="75" cy="75" r="75" fill="#ECF8F5"/>
<path d="M82.8678 63.0497C83.3291 63.3163 83.8312 63.4428 84.3275 63.4428C85.3356 63.4428 86.3165 62.9193 86.8575 61.9832C87.1222 61.5259 87.2487 61.0257 87.2506 60.5314C87.2526 59.5213 86.7291 58.5365 85.791 57.9955C84.3956 57.1879 82.611 57.6647 81.8033 59.0601C81.5386 59.5194 81.4121 60.0195 81.4102 60.5119C81.4082 61.5239 81.9317 62.5067 82.8678 63.0497Z" fill="#00B87C"/>
<path d="M56.6804 84.2751C55.7501 84.8181 55.2324 85.797 55.2344 86.8012C55.2344 87.2995 55.3628 87.8055 55.6333 88.2687C56.1763 89.197 57.1533 89.7147 58.1556 89.7147C58.6558 89.7147 59.1637 89.5862 59.6249 89.3157C60.5552 88.7727 61.0729 87.7957 61.0729 86.7896C61.0729 86.2913 60.9445 85.7853 60.6739 85.3241C59.8604 83.9306 58.0738 83.4616 56.6804 84.2751Z" fill="#00B87C"/>
<path d="M65.0677 63.4901C65.5698 63.4901 66.0778 63.3616 66.5409 63.0891C67.4693 62.5442 67.9869 61.5653 67.985 60.5611C67.9831 60.0629 67.8546 59.5568 67.5841 59.0937C66.7686 57.7041 64.9801 57.237 63.5886 58.0525C62.6603 58.5954 62.1426 59.5744 62.1445 60.5786C62.1465 61.0788 62.2749 61.5848 62.5454 62.046C63.0884 62.9743 64.0654 63.4901 65.0677 63.4901Z" fill="#00B87C"/>
<path d="M55.5364 80.1296C57.142 80.1218 58.4401 78.8199 58.444 77.2162V77.1987C58.4362 75.5853 57.1245 74.2833 55.513 74.2911C53.9055 74.2989 52.6094 75.6009 52.6055 77.2045V77.222C52.6113 78.8315 53.9172 80.1296 55.5247 80.1296H55.5364Z" fill="#00B87C"/>
<path d="M74.7435 60.8625C76.3549 60.8625 77.6627 59.5547 77.6627 57.9432C77.6627 56.3318 76.3549 55.024 74.7435 55.024C73.1301 55.024 71.8242 56.3318 71.8242 57.9432C71.8242 59.5566 73.1301 60.8625 74.7435 60.8625Z" fill="#00B87C"/>
<path d="M56.6061 70.1588C57.0634 70.4215 57.5616 70.5461 58.054 70.5461C59.066 70.5461 60.0508 70.0187 60.5899 69.0767C60.8526 68.6174 60.9772 68.1173 60.9772 67.6229C60.9752 66.6129 60.4478 65.632 59.5078 65.0929C58.1085 64.2911 56.3239 64.7757 55.524 66.175C55.2593 66.6343 55.1367 67.1344 55.1367 67.6288C55.1387 68.6388 55.6661 69.6217 56.6061 70.1588Z" fill="#00B87C"/>
<path d="M66.6641 91.2707C65.2648 90.467 63.4801 90.9496 62.6783 92.3489C62.4136 92.8063 62.2891 93.3064 62.2891 93.8007C62.2891 94.8108 62.8165 95.7936 63.7545 96.3347V96.3327C64.2138 96.5974 64.714 96.7219 65.2064 96.7219C66.2184 96.7219 67.2012 96.1965 67.7403 95.2565C68.005 94.7972 68.1295 94.297 68.1295 93.8046C68.1295 92.7926 67.6021 91.8098 66.6641 91.2707Z" fill="#00B87C"/>
<path d="M92.8437 84.1683C91.4464 83.3645 89.6617 83.8433 88.856 85.2407C88.5913 85.698 88.4668 86.1982 88.4648 86.6925C88.4648 87.7026 88.9884 88.6854 89.9284 89.2264C90.3877 89.4911 90.8878 89.6176 91.3821 89.6176C92.3922 89.6176 93.3731 89.0941 93.9141 88.156C94.1788 87.6967 94.3033 87.1966 94.3053 86.7042C94.3053 85.6922 93.7818 84.7094 92.8437 84.1683Z" fill="#00B87C"/>
<path d="M91.3372 70.449C91.8354 70.449 92.3375 70.3225 92.7988 70.0539C93.731 69.5129 94.2526 68.5378 94.2545 67.5317C94.2545 67.0335 94.128 66.5274 93.8594 66.0643C93.0498 64.6689 91.2633 64.194 89.8698 65.0036C88.9376 65.5446 88.416 66.5216 88.4141 67.5258C88.4141 68.0241 88.5406 68.5301 88.8091 68.9932C89.3502 69.9274 90.331 70.449 91.3372 70.449Z" fill="#00B87C"/>
<path d="M93.9115 74.1937C92.2981 74.1956 90.9941 75.5034 90.9961 77.1168C90.998 78.7263 92.3059 80.0322 93.9154 80.0322H93.9192C95.5326 80.0283 96.8366 78.7205 96.8346 77.1071C96.8327 75.4957 95.5229 74.1898 93.9115 74.1937Z" fill="#00B87C"/>
<path d="M74.7845 93.4121C73.1731 93.4159 71.8692 94.7277 71.875 96.3391C71.8789 97.9486 73.1848 99.2506 74.7923 99.2506H74.8021C76.4135 99.2467 77.7174 97.935 77.7135 96.3235C77.7077 94.7102 76.3979 93.4082 74.7845 93.4121Z" fill="#00B87C"/>
<path d="M82.9128 91.2301C81.9825 91.7712 81.4629 92.7482 81.4609 93.7543C81.4609 94.2525 81.5894 94.7585 81.858 95.2217C82.4009 96.152 83.3799 96.6716 84.3841 96.6716C84.8823 96.6716 85.3883 96.5451 85.8496 96.2766C86.7798 95.7336 87.3014 94.7566 87.3014 93.7524C87.3014 93.2522 87.173 92.7462 86.9044 92.285C86.0928 90.8915 84.3062 90.4186 82.9128 91.2301Z" fill="#00B87C"/>
<path d="M74.7484 104.054C59.9102 104.054 47.8385 91.9821 47.8385 77.1441C47.8385 62.3061 59.9102 50.2344 74.7484 50.2344C89.5864 50.2344 101.658 62.3061 101.658 77.1441C101.658 91.9821 89.5864 104.054 74.7484 104.054ZM97.1551 53.2848L98.7196 51.7201L101.24 54.2408C101.81 54.811 102.557 55.0959 103.305 55.0959C104.052 55.0959 104.799 54.811 105.369 54.2408C106.509 53.1007 106.509 51.2524 105.369 50.1124L100.788 45.532C100.787 45.5305 100.786 45.5287 100.784 45.5272C100.782 45.5256 100.781 45.5243 100.779 45.5227L96.0037 40.7474C94.8639 39.6073 93.0154 39.6073 91.8753 40.7474C90.7354 41.8875 90.7354 43.7357 91.8753 44.8758L94.5912 47.5917L92.5277 49.6552C87.4042 46.33 81.2983 44.3959 74.7484 44.3959C68.1986 44.3959 62.0925 46.33 56.969 49.6554L54.9055 47.5917L57.6211 44.8758C58.7612 43.7357 58.7612 41.8875 57.6211 40.7474C56.4813 39.6073 54.6328 39.6073 53.4927 40.7474L48.718 45.5223C48.7162 45.5241 48.7143 45.5254 48.7125 45.5272C48.7108 45.5289 48.7094 45.5309 48.7077 45.5326L44.1279 50.1124C42.9879 51.2524 42.9879 53.1009 44.1279 54.2408C44.6978 54.811 45.4449 55.0959 46.1921 55.0959C46.9392 55.0959 47.6863 54.811 48.2562 54.2408L50.7768 51.7203L52.3416 53.285C45.9801 59.2627 42 67.7468 42 77.1441C42 95.2015 56.6909 109.892 74.7484 109.892C92.806 109.892 107.497 95.2015 107.497 77.1441C107.497 67.7466 103.517 59.2627 97.1551 53.2848Z" fill="#00B87C"/>
<path d="M75.5686 82.4994L82.1511 75.9174C83.2914 74.7775 83.2914 72.9291 82.1513 71.789C81.0115 70.6487 79.163 70.6487 78.0229 71.7888L73.5045 76.3068L71.4051 74.2079C70.2651 73.068 68.4166 73.068 67.2767 74.2081C66.1369 75.3483 66.1369 77.1966 67.2771 78.3367L71.4404 82.4994C72.0104 83.0694 72.7575 83.3543 73.5045 83.3543C74.2514 83.3543 74.9986 83.0694 75.5686 82.4994Z" fill="#00B87C"/>
</svg>
