<svg width="150" height="150" viewBox="0 0 150 150" fill="none" xmlns="http://www.w3.org/2000/svg">
<circle cx="75" cy="75" r="75" fill="#ECF8F5"/>
<path d="M42.8327 62.1789C42.8501 64.5753 44.4684 66.6842 46.5873 67.4936C47.5465 67.9816 48.4451 67.8524 55.9725 67.8738L55.9865 82.7138L48.5108 82.6944C45.3868 82.6707 42.8627 85.2326 42.8215 88.3538C42.8389 90.7502 44.4571 92.8592 46.5761 93.6686C47.5353 94.1566 48.4339 94.0274 55.9622 94.046L55.9515 101.789C55.9884 104.586 58.169 107.311 61.6276 107.466C64.7654 107.494 67.271 104.941 67.3169 101.806L67.3276 94.0629L82.7487 94.0778L82.7379 101.821C82.7748 104.618 84.9554 107.343 88.414 107.497C91.5519 107.526 94.0574 104.973 94.1033 101.838L94.114 94.0947L101.59 94.1141C104.703 94.171 107.229 91.6036 107.251 88.4823L107.25 88.4786C107.273 85.3546 104.711 82.8305 101.573 82.8022L94.0977 82.7828L94.0837 67.9428L101.559 67.9622C104.697 67.9905 107.203 65.4378 107.249 62.3027C107.272 59.1787 104.711 56.6547 101.573 56.6263L94.0932 56.6087L94.104 48.8655C94.1277 45.7415 91.5657 43.2174 88.4279 43.1891C85.29 43.1607 82.7844 45.7135 82.7386 48.8485L82.7279 56.5918L67.34 56.5696L67.3508 48.8264C67.3754 45.6996 64.8125 43.1783 61.6756 43.1472C58.5378 43.1188 56.0322 45.6716 55.9863 48.8066L55.9756 56.5499L48.522 56.5195C45.3842 56.4911 42.8786 59.0439 42.8327 62.1789ZM82.6573 67.9884L82.6611 82.8588L67.2539 82.8486L67.2492 67.981L82.6573 67.9884Z" fill="#00B87C"/>
</svg>
