<svg width="150" height="150" viewBox="0 0 150 150" fill="none" xmlns="http://www.w3.org/2000/svg">
<circle cx="75" cy="75" r="75" fill="#ECF8F5"/>
<path d="M78.1445 89.7656C78.1445 92.7811 80.5978 95.2344 83.6133 95.2344H90.0391C93.0545 95.2344 95.5078 92.7811 95.5078 89.7656V83.3398C95.5078 80.3244 93.0545 77.8711 90.0391 77.8711H83.6133C80.5978 77.8711 78.1445 80.3244 78.1445 83.3398V89.7656ZM83.6133 83.3398H90.0391L90.0425 89.7655C90.0425 89.7655 90.0415 89.7656 90.0391 89.7656H83.6133V83.3398Z" fill="#00B87C"/>
<path d="M92.7734 71.4453C94.2836 71.4453 95.5078 70.2211 95.5078 68.7109C95.5078 67.2008 94.2836 65.9766 92.7734 65.9766C91.2633 65.9766 90.0391 67.2008 90.0391 68.7109C90.0391 70.2211 91.2633 71.4453 92.7734 71.4453Z" fill="#00B87C"/>
<path d="M80.8789 71.4453C82.3891 71.4453 83.6133 70.2211 83.6133 68.7109C83.6133 67.2008 82.3891 65.9766 80.8789 65.9766C79.3688 65.9766 78.1445 67.2008 78.1445 68.7109C78.1445 70.2211 79.3688 71.4453 80.8789 71.4453Z" fill="#00B87C"/>
<path d="M107.266 88.125C108.776 88.125 110 86.9008 110 85.3906V56.4062C110 50.3753 105.093 45.4688 99.0625 45.4688H95.5078V42.7344C95.5078 41.2242 94.2836 40 92.7734 40C91.2632 40 90.0391 41.2242 90.0391 42.7344V45.4688H77.5977V42.7344C77.5977 41.2242 76.3735 40 74.8633 40C73.3531 40 72.1289 41.2242 72.1289 42.7344V45.4688H59.8242V42.7344C59.8242 41.2242 58.6 40 57.0898 40C55.5796 40 54.3555 41.2242 54.3555 42.7344V45.4688H50.9375C44.9066 45.4688 40 50.3753 40 56.4062V99.0625C40 105.093 44.9066 110 50.9375 110H99.0625C105.093 110 110 105.093 110 99.0625C110 97.5523 108.776 96.3281 107.266 96.3281C105.755 96.3281 104.531 97.5523 104.531 99.0625C104.531 102.078 102.078 104.531 99.0625 104.531H50.9375C47.922 104.531 45.4688 102.078 45.4688 99.0625V56.4062C45.4688 53.3908 47.922 50.9375 50.9375 50.9375H54.3555V53.6719C54.3555 55.1821 55.5796 56.4062 57.0898 56.4062C58.6 56.4062 59.8242 55.1821 59.8242 53.6719V50.9375H72.1289V53.6719C72.1289 55.1821 73.3531 56.4062 74.8633 56.4062C76.3735 56.4062 77.5977 55.1821 77.5977 53.6719V50.9375H90.0391V53.6719C90.0391 55.1821 91.2632 56.4062 92.7734 56.4062C94.2836 56.4062 95.5078 55.1821 95.5078 53.6719V50.9375H99.0625C102.078 50.9375 104.531 53.3908 104.531 56.4062V85.3906C104.531 86.9008 105.755 88.125 107.266 88.125Z" fill="#00B87C"/>
<path d="M57.0898 95.2344C58.6 95.2344 59.8242 94.0102 59.8242 92.5C59.8242 90.9898 58.6 89.7656 57.0898 89.7656C55.5797 89.7656 54.3555 90.9898 54.3555 92.5C54.3555 94.0102 55.5797 95.2344 57.0898 95.2344Z" fill="#00B87C"/>
<path d="M57.0898 71.4453C58.6 71.4453 59.8242 70.2211 59.8242 68.7109C59.8242 67.2008 58.6 65.9766 57.0898 65.9766C55.5797 65.9766 54.3555 67.2008 54.3555 68.7109C54.3555 70.2211 55.5797 71.4453 57.0898 71.4453Z" fill="#00B87C"/>
<path d="M57.0898 83.3398C58.6 83.3398 59.8242 82.1156 59.8242 80.6055C59.8242 79.0953 58.6 77.8711 57.0898 77.8711C55.5797 77.8711 54.3555 79.0953 54.3555 80.6055C54.3555 82.1156 55.5797 83.3398 57.0898 83.3398Z" fill="#00B87C"/>
<path d="M68.9844 83.3398C70.4945 83.3398 71.7188 82.1156 71.7188 80.6055C71.7188 79.0953 70.4945 77.8711 68.9844 77.8711C67.4742 77.8711 66.25 79.0953 66.25 80.6055C66.25 82.1156 67.4742 83.3398 68.9844 83.3398Z" fill="#00B87C"/>
<path d="M68.9844 71.4453C70.4945 71.4453 71.7188 70.2211 71.7188 68.7109C71.7188 67.2008 70.4945 65.9766 68.9844 65.9766C67.4742 65.9766 66.25 67.2008 66.25 68.7109C66.25 70.2211 67.4742 71.4453 68.9844 71.4453Z" fill="#00B87C"/>
<path d="M68.9844 95.2344C70.4945 95.2344 71.7188 94.0102 71.7188 92.5C71.7188 90.9898 70.4945 89.7656 68.9844 89.7656C67.4742 89.7656 66.25 90.9898 66.25 92.5C66.25 94.0102 67.4742 95.2344 68.9844 95.2344Z" fill="#00B87C"/>
</svg>
