<svg width="150" height="150" viewBox="0 0 150 150" fill="none" xmlns="http://www.w3.org/2000/svg">
<circle cx="75" cy="75" r="75" fill="#ECF8F5"/>
<path d="M35 89.5104C35 91.4115 37.1539 92.5175 38.6987 91.4152L51.5633 82.2381C52.6423 81.4684 53.9133 81.0616 55.2389 81.0616H83.5326C88.513 81.0616 92.5647 77.0098 92.5647 72.0295V42.3398C92.5647 41.0476 91.517 40 90.2248 40H44.0321C39.0518 40 35 44.0517 35 49.0321V89.5104ZM39.6797 49.0321C39.6797 46.632 41.6322 44.6797 44.0321 44.6797H87.8848V72.0295C87.8848 74.4295 85.9323 76.3819 83.5324 76.3819H55.2387C52.9332 76.3819 50.7225 77.0896 48.8456 78.4285L39.6797 84.9671V49.0321Z" fill="#00B87C"/>
<path d="M114.866 67.1811C114.866 62.2001 110.814 58.1478 105.834 58.1478H99.5833C98.2911 58.1478 97.2434 59.1954 97.2434 60.4876C97.2434 61.7798 98.2911 62.8275 99.5833 62.8275H105.834C108.234 62.8275 110.186 64.7806 110.186 67.1811V103.115L101.02 96.5772C99.1434 95.2383 96.9329 94.5308 94.6275 94.5308H66.3326C63.9327 94.5308 61.9805 92.5776 61.9805 90.1771V88.0808C61.9805 86.7885 60.9328 85.7409 59.6406 85.7409C58.3484 85.7409 57.3008 86.7885 57.3008 88.0808V90.1771C57.3008 95.1581 61.3525 99.2104 66.3326 99.2104H94.6275C95.9529 99.2104 97.2238 99.6171 98.3026 100.387L111.167 109.564C112.704 110.66 114.866 109.566 114.866 107.659V67.1811H114.866Z" fill="#00B87C"/>
<path d="M51.8242 57.4262H78.8578C80.15 57.4262 81.1977 56.3785 81.1977 55.0863C81.1977 53.7941 80.15 52.7465 78.8578 52.7465H51.8242C50.532 52.7465 49.4844 53.7941 49.4844 55.0863C49.4844 56.3785 50.532 57.4262 51.8242 57.4262Z" fill="#00B87C"/>
<path d="M51.8242 68.3453H78.8578C80.15 68.3453 81.1977 67.2976 81.1977 66.0054C81.1977 64.7132 80.15 63.6656 78.8578 63.6656H51.8242C50.532 63.6656 49.4844 64.7132 49.4844 66.0054C49.4844 67.2976 50.532 68.3453 51.8242 68.3453Z" fill="#00B87C"/>
</svg>
