<svg width="150" height="150" viewBox="0 0 150 150" fill="none" xmlns="http://www.w3.org/2000/svg">
<circle cx="75" cy="75" r="75" fill="#ECF8F5"/>
<path d="M99.9188 56.206L85.1145 41.4018C84.2106 40.4978 83.009 40 81.7307 40H52.7852C50.1466 40 48 42.1466 48 44.7852V105.215C48 107.853 50.1466 110 52.7852 110H96.5352C99.1737 110 101.32 107.853 101.32 105.215V59.5896C101.32 58.3117 100.823 57.1101 99.9188 56.206ZM94.3185 56.4062H85.5977C85.2207 56.4062 84.9141 56.0996 84.9141 55.7227V47.0019L94.3185 56.4062ZM96.5352 105.898H52.7852C52.4082 105.898 52.1016 105.592 52.1016 105.215V44.7852C52.1016 44.4082 52.4082 44.1016 52.7852 44.1016H80.8125V55.7227C80.8125 58.3612 82.9591 60.5078 85.5977 60.5078H97.2188V105.215C97.2188 105.592 96.9121 105.898 96.5352 105.898Z" fill="#00B87C"/>
<path d="M76.8633 71.3086H89.9296C91.0622 71.3086 91.9804 70.3904 91.9804 69.2578C91.9804 68.1252 91.0622 67.207 89.9296 67.207H76.8633C75.7307 67.207 74.8125 68.1252 74.8125 69.2578C74.8125 70.3904 75.7306 71.3086 76.8633 71.3086Z" fill="#00B87C"/>
<path d="M76.8633 84.9805H89.9296C91.0622 84.9805 91.9804 84.0623 91.9804 82.9297C91.9804 81.7971 91.0622 80.8789 89.9296 80.8789H76.8633C75.7307 80.8789 74.8125 81.7971 74.8125 82.9297C74.8125 84.0623 75.7306 84.9805 76.8633 84.9805Z" fill="#00B87C"/>
<path d="M89.9883 94.5508H76.8633C75.7307 94.5508 74.8125 95.469 74.8125 96.6016C74.8125 97.7341 75.7307 98.6523 76.8633 98.6523H89.9883C91.1209 98.6523 92.0391 97.7341 92.0391 96.6016C92.0391 95.469 91.1209 94.5508 89.9883 94.5508Z" fill="#00B87C"/>
<path d="M66.6306 63.6739L61.9013 68.4032L60.786 67.2879C59.9853 66.487 58.6867 66.487 57.8858 67.2879C57.0849 68.0888 57.0849 69.3873 57.8858 70.1882L60.4512 72.7535C60.8517 73.154 61.3765 73.3543 61.9013 73.3543C62.426 73.3543 62.951 73.1541 63.3513 72.7535L69.5307 66.5741C70.3316 65.7732 70.3316 64.4748 69.5307 63.6739C68.73 62.873 67.4314 62.873 66.6306 63.6739Z" fill="#00B87C"/>
<path d="M66.6306 78.3899L61.9013 83.1192L60.786 82.004C59.9853 81.2033 58.6867 81.2031 57.8858 82.004C57.0849 82.8049 57.0849 84.1033 57.8858 84.9042L60.4512 87.4695C60.8517 87.8699 61.3765 88.0701 61.9013 88.0701C62.426 88.0701 62.951 87.87 63.3513 87.4694L69.5307 81.29C70.3316 80.4891 70.3316 79.1906 69.5307 78.3897C68.73 77.589 67.4314 77.589 66.6306 78.3899Z" fill="#00B87C"/>
<path d="M66.6306 92.0617L61.9013 96.7911L60.786 95.6758C59.9853 94.8751 58.6867 94.875 57.8858 95.6758C57.0849 96.4767 57.0849 97.7752 57.8858 98.5761L60.4512 101.141C60.8517 101.542 61.3765 101.742 61.9013 101.742C62.426 101.742 62.951 101.542 63.3513 101.141L69.5307 94.9618C70.3316 94.1609 70.3316 92.8625 69.5307 92.0616C68.73 91.2608 67.4314 91.2608 66.6306 92.0617Z" fill="#00B87C"/>
</svg>
