<svg width="14" height="14" viewBox="0 0 14 14" fill="none" xmlns="http://www.w3.org/2000/svg">
<path fill-rule="evenodd" clip-rule="evenodd" d="M5.29688 2.33329C5.29688 2.03683 5.5372 1.79651 5.83365 1.79651H11.0837C11.3801 1.79651 11.6204 2.03683 11.6204 2.33329C11.6204 2.62974 11.3801 2.87007 11.0837 2.87007H5.83365C5.5372 2.87007 5.29688 2.62974 5.29688 2.33329Z" fill="#616061"/>
<path fill-rule="evenodd" clip-rule="evenodd" d="M2.37988 11.6667C2.37988 11.3702 2.62021 11.1299 2.91666 11.1299H8.16666C8.46312 11.1299 8.70344 11.3702 8.70344 11.6667C8.70344 11.9631 8.46312 12.2034 8.16666 12.2034H2.91666C2.62021 12.2034 2.37988 11.9631 2.37988 11.6667Z" fill="#616061"/>
<path fill-rule="evenodd" clip-rule="evenodd" d="M8.93829 1.83071C9.21587 1.9348 9.35651 2.24421 9.25242 2.52179L5.75242 11.8551C5.64833 12.1327 5.33892 12.2733 5.06134 12.1692C4.78376 12.0652 4.64312 11.7557 4.74721 11.4782L8.24721 2.14484C8.35131 1.86726 8.66071 1.72662 8.93829 1.83071Z" fill="#616061"/>
</svg>
