<svg width="18" height="18" viewBox="0 0 18 18" fill="none" xmlns="http://www.w3.org/2000/svg">
<path d="M9 2.25C12.7125 2.25 15.75 5.2875 15.75 9C15.75 12.7125 12.7125 15.75 9 15.75C5.2875 15.75 2.25 12.7125 2.25 9C2.25 5.2875 5.2875 2.25 9 2.25ZM9 1.125C4.66875 1.125 1.125 4.66875 1.125 9C1.125 13.3313 4.66875 16.875 9 16.875C13.3313 16.875 16.875 13.3313 16.875 9C16.875 4.66875 13.3313 1.125 9 1.125Z" fill="#999999"/>
<path d="M13.5 8.4375H9.5625V4.5H8.4375V8.4375H4.5V9.5625H8.4375V13.5H9.5625V9.5625H13.5V8.4375Z" fill="#999999"/>
</svg>
