<svg width="25" height="24" viewBox="0 0 25 24" fill="none" xmlns="http://www.w3.org/2000/svg">
<g clip-path="url(#clip0)">
<path d="M23.1754 24.0001C23.9068 24.0001 24.5 23.407 24.5 22.6755V1.32459C24.5 0.592969 23.9068 0 23.1754 0H1.82459C1.09288 0 0.5 0.592969 0.5 1.32459V22.6755C0.5 23.407 1.09288 24.0001 1.82459 24.0001H23.1754Z" fill="#395185"/>
<path d="M17.0594 24.0001V14.706H20.1792L20.6462 11.084H17.0594V8.77135C17.0594 7.72266 17.3507 7.008 18.8546 7.008L20.7726 7.00716V3.76763C20.4407 3.72347 19.3022 3.62485 17.9777 3.62485C15.2123 3.62485 13.3191 5.31282 13.3191 8.41275V11.084H10.1914V14.706H13.3191V24.0001H17.0594Z" fill="white"/>
</g>
<defs>
<clipPath id="clip0">
<rect width="24" height="24" fill="white" transform="translate(0.5)"/>
</clipPath>
</defs>
</svg>
