<svg width="24" height="23" viewBox="0 0 24 23" fill="none" xmlns="http://www.w3.org/2000/svg">
<path d="M12 22.3694C18.6274 22.3694 24 17.5804 24 11.6728C24 5.76524 18.6274 0.976196 12 0.976196C5.37258 0.976196 0 5.76524 0 11.6728C0 17.5804 5.37258 22.3694 12 22.3694Z" fill="#95D6A4"/>
<path d="M13.4863 22.2877C12.9995 22.3414 12.5035 22.3689 12.0005 22.3689C5.37334 22.3689 0.000976563 17.5801 0.000976563 11.6727C0.000902997 5.76467 5.37327 0.97583 12.0004 0.97583C12.5035 0.97583 12.9995 1.00337 13.4863 1.05708C7.5592 1.70936 2.97105 6.21308 2.97105 11.6728C2.97105 17.1317 7.5592 21.6354 13.4863 22.2877Z" fill="#78C2A4"/>
<path d="M18.7829 7.79658C19.0821 7.25912 18.8357 6.60769 18.2327 6.34099L16.3459 5.50791C15.743 5.24121 15.0122 5.46083 14.713 5.99835L10.9794 12.7133L9.1612 10.0027C8.81573 9.48746 8.06823 9.31992 7.4903 9.62786L5.68315 10.5906C5.1061 10.8985 4.91718 11.5648 5.26264 12.08L8.84531 17.4219C9.0741 17.7629 9.49364 17.966 9.93828 17.9503L12.478 17.8611C12.9235 17.8455 13.3236 17.6142 13.5209 17.2584L18.7829 7.79658Z" fill="#F8F6F9"/>
</svg>
