<svg width="277" height="113" viewBox="0 0 277 113" fill="none" xmlns="http://www.w3.org/2000/svg">
<path d="M100.304 41.2727C100.096 41.2775 99.8891 41.2318 99.7028 41.1397C99.5164 41.0475 99.3558 40.9117 99.2351 40.7441C99.1144 40.5765 99.0372 40.3822 99.0104 40.1784C98.9835 39.9746 99.0078 39.7674 99.0812 39.575L102.888 28.115V5.29705C102.888 3.89513 103.452 2.55036 104.456 1.55746C105.46 0.564561 106.823 0.00449335 108.245 0H145.64C147.066 0 148.433 0.55809 149.441 1.55148C150.449 2.54486 151.015 3.89219 151.015 5.29705V27.8094C151.015 29.2143 150.449 30.5616 149.441 31.555C148.433 32.5484 147.066 33.1065 145.64 33.1065H114.153L100.976 41.086C100.776 41.2122 100.542 41.2771 100.304 41.2727ZM108.245 2.54665C107.508 2.55114 106.802 2.84289 106.283 3.3582C105.763 3.87352 105.472 4.57054 105.472 5.29705V28.4206C105.498 28.5495 105.498 28.6822 105.472 28.8111L102.698 37.1641L113.171 30.8145C113.374 30.6942 113.606 30.6298 113.843 30.6277H145.709C146.448 30.6233 147.155 30.3321 147.678 29.8172C148.2 29.3024 148.495 28.6054 148.5 27.8773V5.29705C148.495 4.56898 148.2 3.87198 147.678 3.35714C147.155 2.84231 146.448 2.5511 145.709 2.54665H108.245Z" fill="white"/>
<path d="M116.53 19.881C118.233 19.881 119.613 18.5204 119.613 16.842C119.613 15.1636 118.233 13.803 116.53 13.803C114.827 13.803 113.447 15.1636 113.447 16.842C113.447 18.5204 114.827 19.881 116.53 19.881Z" fill="white"/>
<path d="M127.658 19.881C129.361 19.881 130.741 18.5204 130.741 16.842C130.741 15.1636 129.361 13.803 127.658 13.803C125.955 13.803 124.575 15.1636 124.575 16.842C124.575 18.5204 125.955 19.881 127.658 19.881Z" fill="white"/>
<path d="M138.785 19.881C140.487 19.881 141.868 18.5204 141.868 16.842C141.868 15.1636 140.487 13.803 138.785 13.803C137.082 13.803 135.701 15.1636 135.701 16.842C135.701 18.5204 137.082 19.881 138.785 19.881Z" fill="white"/>
<path d="M44.7151 112.338C44.5372 112.34 44.3606 112.309 44.1958 112.246C44.0309 112.183 43.8812 112.089 43.7554 111.97C43.6296 111.851 43.5303 111.71 43.4633 111.555C43.3964 111.399 43.3631 111.232 43.3655 111.065V55.1571C43.3608 50.9484 41.5866 46.9134 38.4325 43.9374C35.2783 40.9614 31.0018 39.2875 26.5411 39.283H1.34955C0.991626 39.283 0.648355 39.1488 0.395266 38.91C0.142176 38.6712 0 38.3474 0 38.0097C0 37.6719 0.142176 37.3481 0.395266 37.1093C0.648355 36.8705 0.991626 36.7363 1.34955 36.7363H26.5411C31.7162 36.7453 36.6765 38.6889 40.3358 42.1416C43.9951 45.5942 46.0551 50.2744 46.0646 55.1571V111.065C46.0646 111.402 45.9224 111.726 45.6694 111.965C45.4163 112.204 45.073 112.338 44.7151 112.338Z" fill="white"/>
<path d="M171.106 81.5409H78.0407C77.6828 81.5409 77.3395 81.4067 77.0864 81.1679C76.8333 80.9291 76.6912 80.6052 76.6912 80.2675C76.6912 79.9298 76.8333 79.606 77.0864 79.3672C77.3395 79.1284 77.6828 78.9942 78.0407 78.9942H171.106C177.353 78.9897 183.343 76.6474 187.762 72.4811C192.181 68.3148 194.668 62.6647 194.678 56.7704C194.682 50.2023 197.45 43.9044 202.372 39.2601C207.295 34.6157 213.969 32.0045 220.931 32H275.65C276.008 32 276.352 32.1342 276.605 32.373C276.858 32.6117 277 32.9356 277 33.2733C277 33.611 276.858 33.9349 276.605 34.1737C276.352 34.4125 276.008 34.5467 275.65 34.5467H220.859C214.613 34.5511 208.625 36.894 204.209 41.0608C199.793 45.2276 197.309 50.8777 197.305 56.7704C197.295 63.3284 194.534 69.616 189.624 74.2579C184.714 78.8999 178.056 81.5184 171.106 81.5409Z" fill="white"/>
</svg>
