<svg width="18" height="18" viewBox="0 0 18 18" fill="none" xmlns="http://www.w3.org/2000/svg">
<path d="M0 5.625H4.02525V18H0V5.625Z" fill="#1976D2"/>
<path d="M14.9895 5.77013C14.9468 5.75663 14.9062 5.742 14.8612 5.72962C14.8072 5.7174 14.7528 5.70689 14.6981 5.69813C14.4604 5.64953 14.2185 5.62503 13.9759 5.625C11.6291 5.625 10.1407 7.33163 9.65025 7.99088V5.625H5.625V18H9.65025V11.25C9.65025 11.25 12.6923 7.01325 13.9759 10.125V18H18V9.64912C17.9983 8.76053 17.7019 7.89761 17.157 7.19562C16.6122 6.49363 15.8499 5.99227 14.9895 5.77013Z" fill="#1976D2"/>
<path d="M1.96875 3.9375C3.05606 3.9375 3.9375 3.05606 3.9375 1.96875C3.9375 0.881439 3.05606 0 1.96875 0C0.881439 0 0 0.881439 0 1.96875C0 3.05606 0.881439 3.9375 1.96875 3.9375Z" fill="#1976D2"/>
</svg>
