<svg width="872" height="462" viewBox="0 0 872 462" fill="none" xmlns="http://www.w3.org/2000/svg">
<g clip-path="url(#clip0)">
<path d="M386.172 328.096H338.004C336.543 328.096 335.264 326.878 335.264 325.417V325.112C335.264 323.651 336.543 322.433 338.126 322.433H382.761C409.798 322.433 436.835 322.433 463.811 322.433H505.219C506.68 322.433 507.959 323.651 507.959 325.112V325.417C507.959 326.878 506.741 328.096 505.219 328.096H446.455L462.654 357.812C474.163 379.003 485.672 400.133 497.242 421.324L516.302 456.278C516.971 457.495 516.423 459.079 515.145 459.809L514.901 459.931C513.622 460.601 511.978 460.236 511.369 459.079L440.062 328.096H392.565L321.259 459.079C320.65 460.236 319.006 460.662 317.727 459.931L317.483 459.809C316.204 459.079 315.656 457.495 316.326 456.278L335.386 421.324C346.895 400.133 358.404 379.003 369.974 357.812L386.172 328.096ZM335.447 304.233V268.827C335.447 241.824 335.447 214.883 335.447 187.942V155.766C335.447 150.722 339.536 146.632 344.581 146.632H443.96C449.004 146.632 453.094 150.722 453.094 155.766V304.338C453.094 309.382 449.004 313.472 443.96 313.472C443.957 313.472 443.953 313.472 443.95 313.472L344.571 313.367C339.53 313.362 335.447 309.274 335.447 304.233Z" fill="#D8DEED"/>
</g>
<g clip-path="url(#clip1)">
<path d="M849.896 325.547V325.661C849.896 327.122 848.617 328.34 847.156 328.34H801.18L817.379 358.056C828.948 379.247 840.457 400.377 851.966 421.568L871.026 456.521C871.696 457.739 871.148 459.323 869.869 460.053L869.625 460.175C868.347 460.906 866.703 460.479 866.094 459.323L794.787 328.34H747.29L675.983 459.323C675.374 460.479 673.73 460.845 672.451 460.175L672.208 460.053C670.929 459.323 670.381 457.739 671.051 456.521L690.11 421.568C701.68 400.377 713.189 379.247 724.698 358.056L740.897 328.34H679.941C678.419 328.34 677.201 327.122 677.201 325.661V325.356C677.201 323.895 678.48 322.677 679.941 322.677H721.349C748.325 322.677 775.362 322.677 802.399 322.677H844.519L849.652 281.147C853.184 252.892 856.655 224.577 860.187 196.261L865.972 149.495C866.154 147.85 867.555 146.633 869.077 146.815L869.382 146.876C870.843 147.059 871.878 148.581 871.696 150.104L849.957 325.234C849.941 325.341 849.921 325.445 849.896 325.547Z" fill="#D8DEED"/>
<path d="M849.895 325.547V325.661C849.895 327.122 848.617 328.34 847.155 328.34H801.179L817.378 358.056C828.948 379.247 840.457 400.377 851.966 421.568L871.025 456.521C871.695 457.739 871.147 459.323 869.868 460.053L869.625 460.175C868.346 460.906 866.702 460.479 866.093 459.323L794.786 328.34H747.289L675.982 459.323C675.374 460.479 673.729 460.845 672.451 460.175L672.207 460.053C670.928 459.323 670.38 457.739 671.05 456.521L690.11 421.568C701.68 400.377 713.189 379.247 724.698 358.056L740.896 328.34H679.941C678.418 328.34 677.2 327.122 677.2 325.661V325.356C677.2 323.895 678.479 322.677 679.941 322.677H721.348C748.324 322.677 775.361 322.677 802.398 322.677H844.519L849.652 281.147C853.184 252.892 856.655 224.577 860.186 196.261L865.971 149.495C866.154 147.85 867.555 146.633 869.077 146.815L869.381 146.876C870.843 147.059 871.878 148.581 871.695 150.104L849.956 325.234C849.94 325.341 849.92 325.445 849.895 325.547Z" fill="#D8DEED"/>
</g>
<g clip-path="url(#clip2)">
<path d="M533.856 460.358H437.096C435.574 460.358 434.356 459.14 434.356 457.617C434.356 456.095 435.574 454.877 437.096 454.877H533.856C535.379 454.877 536.597 456.095 536.597 457.617C536.597 459.14 535.379 460.358 533.856 460.358ZM356.533 460.358C355.011 460.358 353.793 459.304 353.793 458.039V457.196C353.793 455.931 355.072 454.877 356.533 454.877H418.95C420.472 454.877 421.69 455.931 421.69 457.196V458.039C421.69 459.304 420.411 460.358 418.95 460.358H356.533Z" fill="#A339FF"/>
<path d="M534.815 455.047C534.517 454.937 534.194 454.877 533.856 454.877H437.096C436.655 454.877 436.24 454.979 435.872 455.161C435.797 454.898 435.756 454.619 435.756 454.329L437.888 420.655C437.766 418.828 439.166 417.428 440.932 417.367L479.722 417.123C480.392 417.123 481.001 417.306 481.549 417.732C488.49 425.161 495.128 429.302 499.939 431.738C503.653 433.625 516.075 438.862 521.678 441.42C524.54 442.698 527.28 444.221 529.959 445.865C530.142 445.987 530.264 446.048 530.446 446.23C531.847 447.509 533.978 449.823 534.77 452.563C534.892 452.929 534.892 453.233 534.952 453.598C535.013 453.903 534.952 454.207 534.952 454.512V454.573C534.918 454.737 534.872 454.895 534.815 455.047ZM419.3 454.896C419.186 454.884 419.069 454.877 418.95 454.877H356.533C356.531 454.877 356.528 454.877 356.526 454.877L370.661 417.184L414.261 423.091L419.3 454.896Z" fill="#474961"/>
<path d="M434.802 312.092C432.696 313.621 430.86 314.95 429.293 316.081L428.51 329.011C428.145 335.848 427.718 341.853 427.231 347.145C426.866 351.307 422.177 398.455 420.472 415.757C420.107 419.681 417.488 423.01 413.896 424.081C408.476 425.745 367.799 423.843 366.277 423.129C364.328 422.238 363.293 421.821 362.258 420.811C358.604 417.362 358.847 411.892 358.787 409.871C358.421 394.591 357.325 348.631 357.325 316.466C357.325 316.36 357.325 316.254 357.325 316.149C353.31 312.703 349.761 307.519 346.982 301.083C342.757 291.36 340.18 278.714 340.108 264.988C340.108 264.818 340.108 256.557 340.108 240.203C340.108 240.14 340.108 240.14 340.108 240.076C340.18 235.564 344.476 232.006 349.56 232.006H405.773C413.579 232.26 421.312 232.514 429.118 232.768C441.266 233.09 458.551 233.561 480.971 234.183C489.737 234.427 497.656 239.481 501.567 247.331C503.431 251.07 504.563 254.144 504.965 256.552C507.375 260.811 508.708 265.786 508.585 271.085C508.585 271.204 508.585 271.263 508.585 271.382C507.611 320.205 496.224 389.757 495.432 413.278C495.371 414.169 495.128 416.129 493.849 418.208C489.891 424.563 480.635 423.137 459.018 423.672C440.628 424.147 433.199 425.573 429.423 420.346C427.353 417.495 427.414 414.228 427.475 412.743C429.183 378.933 431.775 344.761 434.802 312.092Z" fill="#474BFF"/>
<path opacity="0.176986" d="M434.781 312.317C432.669 313.849 430.835 315.177 429.279 316.299L431.616 277.7C431.677 275.025 431.981 258.853 419.863 248.567C411.034 241.135 400.316 240.659 393.192 240.362C382.231 239.886 373.706 242.978 372.062 243.573C369.991 244.345 368.956 244.762 367.921 245.297C356.107 251.48 357.021 281.208 357.143 286.619C357.262 293.351 357.323 303.773 357.325 315.897C353.429 312.453 349.983 307.365 347.271 301.083C343.046 291.36 340.468 278.714 340.397 264.988C340.397 264.818 340.397 256.557 340.397 240.203C340.397 240.14 340.397 240.14 340.397 240.076C340.468 235.564 344.765 232.006 349.849 232.006H406.062C413.867 232.26 421.601 232.514 429.406 232.768C441.555 233.09 458.839 233.561 481.259 234.183C490.026 234.427 497.945 239.481 501.856 247.331C503.908 251.448 505.073 254.758 505.353 257.262C500.713 248.479 491.567 242.551 481.062 242.753C475.946 242.872 470.892 242.991 465.777 243.11C452.076 243.466 440.689 254.098 439.227 267.996C437.681 282.323 436.184 297.159 434.781 312.317Z" fill="#444444"/>
<path d="M419.359 105.938C424.124 106.025 431.621 106.928 439.027 111.232C440.304 111.961 442.189 113.176 444.255 114.937C446.018 116.456 451.186 121.498 456.11 135.712C457.873 140.694 463.041 150.413 466.019 155.759C466.992 157.52 465.837 159.707 463.77 159.89C457.255 160.358 449.218 163.031 441.624 163.046C442.249 174.409 442.69 187.963 442.857 203.08C442.857 203.08 443.83 221.072 438.237 226.904C437.269 227.93 419.107 226.862 399.816 227.475C379.129 228.132 357.091 230.263 351.963 224.888C343.671 216.196 348.411 213.841 356.022 164.323C354.83 164.446 353.72 164.554 352.731 164.645C345.045 165.375 328.945 164.888 321.198 164.584C319.14 164.523 317.809 162.209 318.656 160.261C321.198 154.355 325.677 143.7 327.008 138.281C330.821 122.816 335.603 117.154 337.237 115.449C339.113 113.501 340.996 112.175 342.14 111.248C345.971 108.14 358.056 105.898 378.394 104.522C387.159 101.536 397.167 102.393 403.646 102.97C408.176 103.382 413.888 103.89 419.359 105.938Z" fill="#A339FF"/>
<path opacity="0.176986" d="M419.559 105.955C424.346 106.112 431.525 107.119 438.621 111.246C439.9 111.977 441.788 113.194 443.858 114.96C445.624 116.483 450.8 121.537 455.732 135.786C457.498 140.779 463.039 150.39 466.023 155.749C466.997 157.515 465.84 159.707 463.77 159.889C461.867 160.026 459.725 160.423 457.688 160.76C456.881 160.893 454.653 161.152 453.66 161.362C448.861 162.374 446.065 163.046 441.591 163.046C441.568 163.046 441.545 163.046 441.522 163.046C440.558 145.523 439.157 133.201 437.645 128.367C436.609 125.079 435.108 121.304 435.108 121.304C434.378 119.173 433.199 116.98 430.824 113.996C427.623 110.021 423.667 107.545 419.559 105.955ZM405.226 112.448C404.129 118.903 402.12 120.809 402.12 120.809C397.492 118.129 380.99 109.769 382.512 105.202C382.634 104.897 382.878 104.288 384.461 103.314C390.428 99.6604 397.736 101.426 400.293 102.157C400.293 102.157 412.046 100.817 414.299 107.698C416.552 114.579 413.872 119.451 413.872 119.451C411.924 118.274 409.042 115.939 405.226 112.448Z" fill="#444444"/>
<path d="M442.782 212.126L441.591 163.046L457.726 160.76L462.656 220.942C463.079 221.162 463.49 221.379 463.888 221.592C467.377 223.462 470.269 226.867 472.564 231.806C472.68 232.055 472.738 232.327 472.734 232.602C472.719 233.611 471.889 234.417 470.881 234.402L342.647 232.546C312.034 226.476 320.361 184.953 326.355 164.777C334.768 165.04 346.653 165.251 352.941 164.657C358.883 164.117 369.202 162.926 375.269 162.017L364.389 194.617C393.608 196.067 422.301 204.206 442.782 212.126ZM408.629 98.1941L408.354 109.426C396.706 113.722 388.442 107.112 388.442 107.112C388.442 107.112 388.879 98.7408 389.754 81.9977C389.612 81.6944 389.475 81.3747 389.342 81.0349C388.246 78.2947 384.301 69.2978 385.153 66.1922C385.309 65.5363 382.056 55.7766 386.821 50.8536C391.346 46.1784 403.892 46.3107 404.396 46.3403C406.528 46.4012 408.659 46.3403 410.973 45.8532C411.216 45.8532 411.46 45.7923 411.703 45.7923C413.774 45.6096 425.405 45.0616 431.372 53.7085C431.92 54.4392 432.407 55.2308 432.834 56.2051C433.747 58.4582 434.173 60.894 433.991 63.3297L433.138 74.1688C433.016 75.2649 432.834 76.361 432.59 77.3962C430.824 85.0688 427.962 91.3409 424.917 95.299C422.664 98.2828 420.229 99.9878 418.097 100.049C417.488 100.11 414.2 100.049 410.364 98.8917C410.114 98.8085 410.177 98.8675 408.629 98.1941Z" fill="#F2A98A"/>
<path d="M376.796 161.916C376.595 162.378 376.057 162.59 375.594 162.389C375.132 162.188 374.92 161.65 375.121 161.187C376.3 158.476 376.774 156.961 377.687 153.004C377.8 152.512 378.291 152.206 378.782 152.319C379.274 152.432 379.58 152.923 379.467 153.414C378.53 157.473 378.024 159.092 376.796 161.916ZM365.034 193.342C365.536 193.295 365.981 193.663 366.029 194.166C366.076 194.668 365.707 195.113 365.205 195.161C365.087 195.172 364.854 195.198 364.525 195.242C363.971 195.316 363.352 195.414 362.685 195.539C360.782 195.893 358.879 196.388 357.112 197.043C356.069 197.429 355.104 197.861 354.233 198.34C353.791 198.583 353.236 198.422 352.993 197.98C352.75 197.538 352.911 196.983 353.353 196.739C354.307 196.215 355.353 195.746 356.477 195.33C358.352 194.635 360.352 194.115 362.351 193.743C363.049 193.612 363.699 193.51 364.283 193.432C364.488 193.404 364.672 193.382 364.83 193.364C364.927 193.353 364.996 193.346 365.034 193.342Z" fill="#482D1F"/>
<path opacity="0.2" d="M462.551 221.004C457.525 218.378 450.74 215.288 442.672 212.16L441.48 163.046L457.615 160.76L462.551 221.004Z" fill="#8C2A00"/>
<path d="M408.646 98.2112L408.476 104.433L400.069 94.3445C400.189 94.4033 400.312 94.4635 400.438 94.5249C401.656 95.1339 403.178 95.8037 405.127 96.6562C406.834 97.4172 407.93 97.9003 408.646 98.2112Z" fill="#482D1F"/>
<path d="M401.893 69.2501L401.839 68.0793C401.839 68.0793 401.595 65.8872 400.073 63.695C399.951 63.5732 398.916 62.2335 397.332 61.5637C394.47 60.4676 390.695 61.7464 388.625 64.3648C386.432 67.0441 386.432 70.6369 387.589 73.3771C388.746 76.1173 390.999 77.3961 391.791 77.7615L395.323 78.8575L395.338 78.8511C392.252 83.3765 389.564 87.3215 389.564 87.3215C389.564 87.3215 384.484 82.633 382.231 78.9184C381.135 77.0916 377.237 72.6464 376.568 65.6436C376.385 63.3296 375.654 55.4743 380.891 49.6894C382.718 47.6799 384.788 46.7056 385.641 46.2793C390.451 44.1481 393.983 45.4268 403.239 45.6095C403.97 45.6095 405.188 45.6704 406.771 45.6095C409.633 45.5486 411.642 45.4268 412.19 45.4268C416.758 45.2441 426.683 46.6447 431.068 53.4039C431.311 53.8911 431.616 54.3173 431.859 54.6827C430.58 55.1089 429.18 55.9006 427.475 56.205C422.847 56.9358 418.889 56.0224 416.514 55.1698C411.886 59.5542 407.197 63.8777 402.569 68.262C402.358 68.571 402.132 68.9014 401.893 69.2501Z" fill="#DE6903"/>
<path d="M429.622 76.0734C429.805 75.3427 430.536 74.7946 431.266 74.9164C431.753 74.9773 432.119 75.3427 432.301 76.1952C432.484 78.3265 430.17 81.0058 429.5 79.727C429.074 78.8745 429.439 77.1086 429.622 76.0734ZM416.758 74.4123C416.94 73.6815 417.671 73.1335 418.402 73.2553C418.889 73.3162 419.254 73.6815 419.437 74.534C419.62 76.6653 417.306 79.3447 416.636 78.0659C416.149 77.2134 416.514 75.4474 416.758 74.4123Z" fill="#482D1F"/>
<path d="M425.465 76.4888L425.526 82.5782C425.526 82.6012 425.434 82.6939 425.405 82.6939C425.071 82.6939 424.731 82.672 424.2 82.6206C424.096 82.6107 423.989 82.5999 423.833 82.5841C423.637 82.5641 423.53 82.5532 423.427 82.5428C423.076 82.5075 422.785 82.4797 422.473 82.4526C422.138 82.4235 421.843 82.6715 421.814 83.0065C421.785 83.3416 422.033 83.6368 422.368 83.6659C422.673 83.6925 422.959 83.7197 423.306 83.7546C423.407 83.7649 423.514 83.7757 423.71 83.7957C423.867 83.8117 423.977 83.8226 424.082 83.8328C424.649 83.8877 425.024 83.9118 425.405 83.9118C426.106 83.9118 426.744 83.2738 426.744 82.5721L426.683 76.4767C426.68 76.1404 426.405 75.8705 426.068 75.8738C425.732 75.8772 425.462 76.1525 425.465 76.4888Z" fill="#482D1F"/>
<path d="M421.203 87.1391C420.777 86.9565 419.741 86.4693 419.681 85.8604C419.681 85.7386 419.62 85.5559 419.741 85.495C420.046 85.1905 420.777 85.495 421.873 85.7995C423.821 86.2866 425.405 86.4084 425.405 86.4084C425.405 86.4084 424.796 87.3827 424.43 87.6263C423.7 88.2961 421.812 87.4436 421.203 87.1391Z" fill="#482D1F"/>
<path d="M423.906 77.1557C422.934 80.8681 419.557 83.6073 415.54 83.6073C410.764 83.6073 406.893 79.736 406.893 74.9604C406.893 73.9017 407.083 72.8873 407.431 71.9498L402.604 69.8708C402.122 69.721 401.853 69.2091 402.003 68.7274C402.153 68.2457 402.665 67.9765 403.146 68.1263L408.242 70.3208C409.776 67.9116 412.471 66.3135 415.54 66.3135C420.315 66.3135 424.187 70.1848 424.187 74.9604C424.187 75.0901 424.184 75.219 424.178 75.3473L426.078 75.5438C426.903 71.6279 430.377 68.6883 434.539 68.6883C439.314 68.6883 443.186 72.5597 443.186 77.3353C443.186 82.1108 439.314 85.9822 434.539 85.9822C429.772 85.9822 425.906 82.1248 425.892 77.3611L423.906 77.1557ZM409.356 72.0798C408.948 72.9549 408.72 73.931 408.72 74.9604C408.72 78.727 411.773 81.7805 415.54 81.7805C419.306 81.7805 422.36 78.727 422.36 74.9604C422.36 71.1938 419.306 68.1403 415.54 68.1403C412.954 68.1403 410.704 69.5798 409.547 71.7013C409.543 71.7211 409.537 71.7408 409.531 71.7606C409.493 71.8815 409.433 71.989 409.356 72.0798ZM427.738 76.8162C427.725 76.9876 427.719 77.1606 427.719 77.3353C427.719 81.1019 430.772 84.1554 434.539 84.1554C438.305 84.1554 441.359 81.1019 441.359 77.3353C441.359 73.5686 438.305 70.5152 434.539 70.5152C431.071 70.5152 428.208 73.1031 427.775 76.4529C427.781 76.5132 427.781 76.575 427.775 76.6376C427.768 76.6994 427.756 76.7591 427.738 76.8162Z" fill="#482D1F"/>
</g>
<path d="M21.8207 326.722V326.836C21.8207 328.297 23.0995 329.515 24.561 329.515H70.5367L54.338 359.231C42.7682 380.422 31.2593 401.552 19.7503 422.743L0.690567 457.696C0.0207367 458.914 0.568787 460.498 1.84755 461.228L2.09113 461.35C3.36989 462.081 5.01404 461.655 5.62299 460.498L76.9297 329.515H124.427L195.734 460.498C196.343 461.655 197.987 462.02 199.265 461.35L199.509 461.228C200.788 460.498 201.336 458.914 200.666 457.696L181.606 422.743C170.036 401.552 158.527 380.422 147.019 359.231L130.82 329.515H191.775C193.298 329.515 194.516 328.297 194.516 326.836V326.531C194.516 325.07 193.237 323.852 191.775 323.852H150.368C123.392 323.852 96.3548 323.852 69.3179 323.852H27.1972L22.0643 282.322C18.5325 254.067 15.0615 225.752 11.5297 197.436L5.74475 150.67C5.56207 149.026 4.16151 147.808 2.63916 147.99L2.3347 148.051C0.873245 148.234 -0.161942 149.756 0.0207367 151.279L21.7599 326.409C21.7756 326.516 21.796 326.62 21.8207 326.722Z" fill="#D8DEED"/>
<g clip-path="url(#clip3)">
<path d="M654.274 454.877H738.277C739.799 454.877 741.017 456.095 741.017 457.617C741.017 459.14 739.799 460.358 738.277 460.358H641.517H570.271C568.749 460.358 567.531 459.14 567.531 457.617C567.531 456.095 568.749 454.877 570.271 454.877H654.274Z" fill="#FF5645"/>
<path d="M570.88 454.877H570.271C570.095 454.877 569.922 454.894 569.756 454.925C569.584 454.634 569.457 454.311 569.384 453.964V453.903C569.384 453.599 569.324 453.294 569.384 452.99C569.445 452.624 569.445 452.32 569.567 451.954C569.975 450.542 571.027 448.887 572.721 446.989C573.683 445.911 574.813 444.996 576.067 444.279C578.863 442.681 581.061 441.525 582.659 440.811C588.262 438.253 600.684 433.016 604.398 431.129C609.209 428.693 615.847 424.552 622.788 417.123C623.336 416.697 623.945 416.514 624.615 416.514L659.541 416.758C661.307 416.758 662.707 418.219 662.586 420.046L665.522 436.539C668.613 435.203 671.394 433.915 674.826 431.92C677.688 430.276 681.707 427.597 686.213 423.578C688.709 421.386 691.267 419.193 693.764 417.001L731.457 416.514L739.212 454.936C739.345 454.963 739.474 455.001 739.599 455.047L739.637 455.234C739.25 455.014 738.802 454.885 738.323 454.878C738.308 454.877 738.292 454.877 738.277 454.877H654.274H640.305H570.88Z" fill="#474961"/>
<path opacity="0.176986" d="M654.457 454.877H654.274H570.271C570.095 454.877 569.922 454.894 569.756 454.925C569.584 454.634 569.457 454.311 569.384 453.964V453.903C569.384 453.599 569.324 453.294 569.384 452.99C569.445 452.624 569.445 452.32 569.567 451.954C569.975 450.542 571.027 448.887 572.721 446.989C573.683 445.911 574.813 444.996 576.067 444.279C578.863 442.681 581.061 441.525 582.659 440.811C588.262 438.253 600.684 433.016 604.398 431.129C609.209 428.693 615.847 424.552 622.788 417.123C623.336 416.697 623.945 416.514 624.615 416.514L659.541 416.758C661.307 416.758 662.707 418.219 662.586 420.046L665.548 436.686C662.309 438.081 658.697 439.558 653.635 441.968C650.712 443.368 647.91 444.952 645.17 446.718C643.831 447.935 641.517 450.432 640.786 453.355C640.664 453.842 640.664 454.329 640.603 454.755C640.603 454.797 640.626 454.837 640.671 454.877H654.639H654.457ZM739.637 455.234C739.25 455.014 738.802 454.885 738.323 454.878L738.642 454.877C738.98 454.877 739.302 454.937 739.599 455.047L739.637 455.234Z" fill="#474961"/>
<path d="M651.936 233.934C652.985 233.767 653.977 233.713 654.913 233.772L766.288 233.345L817.317 233.224C819.388 233.345 828.122 236.018 830.131 238.305C832.08 239.341 844.537 252.223 842.466 276.154C842.101 280.173 841.309 289.124 836.194 297.649C830.836 306.54 821.823 313.055 810.802 316.77C801.059 320.058 789.671 321.215 777.858 319.936C752.892 315.43 727.986 310.985 703.019 306.479V307.392L703.141 307.819C703.141 307.819 706.186 313.543 708.804 319.449C711.423 325.295 715.076 352.941 715.076 353.124C721.044 362.623 727.073 375.472 731.7 391.669C733.527 398.185 734.502 403.3 734.867 405.249C735.602 409.428 736.187 414.475 736.619 420.388C736.626 420.477 736.629 420.566 736.629 420.655C736.629 422.673 734.993 424.309 732.975 424.309C732.384 424.309 731.918 424.309 731.579 424.309L677.444 424.248L660.795 424.165C660.239 424.312 659.656 424.391 659.056 424.391L614.603 424.208H611.011C607.479 424.208 604.495 421.407 604.312 417.875C603.886 410.75 603.338 401.373 602.668 390.534C600.841 363.192 599.867 354.484 598.771 333.415C598.588 329.883 598.406 326.717 598.284 323.733C597.797 309.545 596.518 296.27 594.021 278.915C592.621 269.294 591.951 263.326 591.89 258.272C591.829 253.583 593.23 248.955 595.909 245.119C597.249 243.231 598.771 241.587 600.598 240.187C605.287 236.594 608.645 234.15 620.409 233.975C629.717 233.838 640.485 233.88 651.936 233.934Z" fill="#3ABF7C"/>
<path opacity="0.176986" d="M652.263 233.885C652.112 233.906 651.961 233.929 651.808 233.954C647.545 234.685 642.735 237.182 639.02 240.044C637.193 241.444 635.61 243.088 634.331 244.976C631.652 248.752 630.251 253.258 630.251 257.886V258.19C630.312 263.244 630.982 269.212 632.322 278.833C634.818 296.188 636.097 309.402 636.584 323.651C636.706 326.574 636.889 329.801 637.071 333.333C638.107 354.341 639.142 363.049 640.969 390.452C641.699 401.291 642.247 410.607 642.613 417.793C642.795 421.325 645.779 424.126 649.311 424.126H652.904L660.597 424.164C660.101 424.279 659.585 424.34 659.056 424.34L614.603 424.158H611.011C607.479 424.158 604.495 421.357 604.312 417.825C603.886 410.7 603.338 401.322 602.668 390.483C600.841 363.142 599.867 354.434 598.771 333.365C598.588 329.833 598.406 326.667 598.284 323.683C597.797 309.495 596.518 296.22 594.021 278.865C592.621 269.244 591.951 263.276 591.89 258.222C591.829 253.533 593.23 248.905 595.909 245.069C597.249 243.181 598.771 241.537 600.598 240.136C605.287 236.544 608.645 234.099 620.409 233.925C629.806 233.786 640.69 233.83 652.263 233.885L652.263 233.885Z" fill="#444444"/>
<path d="M702.716 305.123C701.961 304.381 701.174 303.604 700.352 302.79C700.129 302.569 700.129 302.569 699.906 302.348C697.586 300.049 695.687 298.155 692.006 294.474C691.531 293.999 690.76 293.999 690.284 294.474C689.808 294.95 689.808 295.721 690.284 296.196C693.967 299.88 695.868 301.776 698.192 304.079C698.415 304.3 698.415 304.3 698.638 304.521C699.462 305.336 700.251 306.115 701.008 306.86C701.488 307.332 702.259 307.325 702.731 306.846C703.202 306.366 703.196 305.595 702.716 305.123Z" fill="#482D1F"/>
<path d="M782.656 107.574C786.242 106.357 790.149 105.785 794.207 106C810.344 106.791 822.767 119.64 821.975 134.681C821.586 142.034 818.087 148.551 812.723 153.18L826.208 202.472C828.278 210.267 827.548 218.183 824.503 225.003C824.077 225.977 823.589 226.951 823.102 227.865C822.554 228.839 821.945 229.813 821.336 230.727C820.667 231.701 819.936 232.675 819.144 233.589H752.831C752.283 232.675 751.735 231.762 751.248 230.727C750.76 229.813 750.334 228.839 749.969 227.865C749.603 226.951 749.299 225.977 748.995 225.003C748.934 224.82 748.873 224.637 748.812 224.455L731.572 164.363L718.992 165.748C717.896 165.87 716.861 165.139 716.739 164.104L716.191 159.842C716.168 159.651 716.177 159.464 716.213 159.286C714.145 158.03 712.251 156.522 710.65 154.788C708.336 152.291 706.57 149.368 705.534 146.019C701.394 132.744 710.589 118.556 726.056 114.415C732.281 112.748 738.585 112.946 744.167 114.643C746.533 112.999 749.126 111.734 751.917 110.949L765.253 106.991C771.393 106.08 777.299 106.291 782.656 107.574Z" fill="#FF5645"/>
<path opacity="0.176986" d="M731.481 164.373L718.992 165.749C717.896 165.87 716.861 165.14 716.739 164.104L716.191 159.842C716.168 159.651 716.177 159.465 716.213 159.286C714.145 158.03 712.251 156.523 710.65 154.788C708.336 152.291 706.57 149.368 705.534 146.019C701.394 132.744 710.589 118.556 726.056 114.415C732.316 112.739 738.655 112.948 744.259 114.672C731.66 123.306 725.41 142.663 729.574 157.725L731.481 164.373Z" fill="#444444"/>
<path d="M720.922 117.099C720.922 117.099 719.765 121.727 725.916 120.448C732.066 119.169 733.832 118.56 733.832 118.56L732.249 114.359L720.922 117.099Z" fill="#482D1F"/>
<path d="M742.126 105.01C741.926 105.063 741.727 105.114 741.529 105.161L742.154 105.071L742.126 105.01ZM758.424 95.1855L759.955 94.5682L767.323 107.295L755.176 111.1L767.08 167.641C767.08 167.641 768.092 163.56 769.387 156.202C769.449 156.222 769.512 156.239 769.576 156.254L803.251 163.744C803.393 163.775 803.535 163.791 803.675 163.793C802.496 168.496 801.241 174.152 799.902 180.002C796.431 195.104 795.883 202.107 790.341 212.093C784.008 223.481 778.162 223.785 775.849 224.638C770.673 226.647 765.497 226.343 762.269 225.551C758.397 224.613 751.304 223.103 745.284 212.159L748.812 224.455C748.873 224.638 748.933 224.82 748.994 225.003C749.299 225.977 749.603 226.951 749.969 227.865C750.334 228.839 750.76 229.814 751.247 230.727C751.735 231.762 752.283 232.676 752.831 233.589H760.631L659.565 233.717C659.282 233.717 659.021 233.621 658.814 233.459C642.052 223.33 633.75 215.598 633.908 210.264C638.978 209.492 646.215 208.433 655.617 207.086C661.459 206.249 667.392 206.266 673.229 207.136L691.583 209.872C705.315 205.471 723.64 199.691 728.215 198.694L720.358 165.598L731.572 164.363L736.845 182.742C733.765 160.98 734.561 138.304 731.777 116.472L725.368 116.612C721.592 118.134 713.676 120.692 712.823 115.272C712.823 115.272 723.297 110.949 730.665 107.782L731.213 107.295C731.7 106.869 732.127 106.625 732.736 106.443C732.857 106.382 732.979 106.382 733.101 106.382L736.024 105.955L736.433 105.896C735.462 105.944 734.786 105.919 734.542 105.894C729.455 105.529 723.521 96.2124 720.856 82.7548C720.614 81.6587 720.553 80.5626 720.432 79.4665L719.948 68.5665C719.827 66.1308 720.311 63.695 721.462 61.5638C721.946 60.6503 722.431 59.7978 722.976 59.128C729.213 50.7246 740.719 51.6381 742.778 51.8816C743.02 51.8816 743.262 51.9425 743.504 51.9425C745.805 52.4906 747.864 52.6732 750.044 52.6124C751.013 52.6124 751.8 53.404 751.861 54.3783L752.164 69.9671C752.224 71.4286 759.612 68.6274 759.612 68.5665C763.158 65.8872 767.606 80.3191 765.789 82.4503C764.457 83.9118 760.702 85.9822 759.612 86.3476C758.946 86.5911 758.462 87.1392 758.34 87.7481C758.756 90.8321 758.784 93.3112 758.424 95.1855Z" fill="#DB9E75"/>
<path opacity="0.2" d="M720.357 165.649L731.571 164.414L748.811 224.505C748.872 224.688 748.932 224.871 748.993 225.053C749.298 226.028 749.602 227.002 749.968 227.915C750.333 228.89 750.759 229.864 751.246 230.777C751.734 231.813 752.282 232.726 752.83 233.639H760.63L659.564 233.767C659.281 233.767 659.02 233.671 658.813 233.509C642.051 223.381 633.749 215.649 633.907 210.314C638.977 209.542 646.214 208.483 655.616 207.136C661.458 206.3 667.391 206.317 673.228 207.187L691.582 209.923C705.314 205.522 723.639 199.741 728.214 198.745L720.357 165.649Z" fill="#8C2A00"/>
<path d="M631.153 218.584C637.688 210.54 651.14 204.027 673.656 219.029C677.089 221.24 675.927 228.487 672.149 228.57L633.221 229.225C630.296 229.322 628.974 221.29 631.153 218.584Z" fill="#474961"/>
<path d="M777.132 66.516C784.942 71.6442 792.399 79.1797 791.072 84.1553C790.037 88.1743 786.14 90.3056 782.182 92.4978C778.985 94.2508 773.081 96.9643 764.582 97.5332C764.582 97.5394 764.583 97.5457 764.583 97.5519C762.574 97.8564 760.625 98.1609 758.616 98.4654C757.58 98.5871 756.606 97.8564 756.545 96.8212C756.85 94.629 757.154 92.4369 757.459 90.2447C757.732 89.151 758.021 87.7694 758.196 86.2889C759.168 86.0542 761.336 85.4263 763 83.4855C764.827 81.3542 765.801 78.1268 764.583 75.0212C763.487 72.0374 760.442 69.7235 757.52 69.967C755.875 70.0888 754.597 71.0022 754.414 71.124C753.093 72.1246 751.993 73.4935 751.395 74.3142C748.529 73.202 744.081 70.8275 740.408 66.1307C739.556 65.0752 738.561 63.5123 737.425 61.4419C731.359 62.8176 726.264 62.4725 722.14 60.4067C723.041 58.6917 724.445 57.1406 726.352 55.7535C729.213 53.6729 729.529 53.4213 733.139 52.4077C735.399 51.7732 739.673 51.5707 742.731 51.8816H742.844C746.315 52.2469 749.177 52.3687 751.065 52.3687C760.321 52.5514 763.913 51.3335 768.602 53.6475C769.455 54.0737 771.464 55.1698 773.23 57.2402C775.733 60.165 776.757 63.5527 777.132 66.516ZM721.972 87.4555C724.277 95.6807 726.728 98.7086 726.416 98.7086C726.104 98.7086 725.292 99.1352 719.02 97.3693C715.915 96.5167 712.992 95.6642 711.652 93.1676C709.764 89.6357 715.39 82.3389 720.383 77.4674C720.383 81.0735 720.98 83.7928 721.972 87.4555ZM718.304 75.3866C717.695 75.2648 717.451 74.5341 717.878 74.1078C718.426 73.6207 719.339 73.0117 720.557 72.9508C723.054 72.829 725.794 74.2905 723.114 75.143C721.409 75.7519 719.461 75.5693 718.304 75.3866ZM730.117 75.3866C729.508 75.2648 729.265 74.5341 729.752 74.1078C730.3 73.6207 731.213 73.0117 732.492 72.9508C734.989 72.829 737.729 74.3514 735.05 75.143C733.223 75.7519 731.335 75.5693 730.117 75.3866Z" fill="#482D1F"/>
<path d="M722.871 80.0755C722.993 81.1107 723.114 82.8158 722.566 83.5465C721.775 84.6426 719.887 81.8415 720.313 79.8928C720.496 79.0403 720.922 78.7968 721.409 78.7968C722.14 78.7968 722.749 79.3448 722.871 80.0755ZM733.71 79.7102C733.893 80.7454 734.014 82.4504 733.406 83.1811C732.614 84.2772 730.726 81.4761 731.152 79.5275C731.335 78.675 731.761 78.4314 732.249 78.4314C732.979 78.4314 733.588 78.9794 733.71 79.7102Z" fill="#482D1F"/>
<path d="M766.387 167.961C766.244 167.477 766.52 166.969 767.004 166.826C767.487 166.683 767.995 166.959 768.138 167.443L774.167 187.842C774.31 188.326 774.034 188.834 773.55 188.977C773.066 189.12 772.558 188.844 772.415 188.36L766.387 167.961ZM807.626 157.464C807.642 157.571 807.638 157.683 807.613 157.795L806.578 162.359C806.226 163.946 804.643 164.928 803.053 164.574C802.56 164.465 802.25 163.977 802.359 163.485C802.469 162.992 802.956 162.682 803.449 162.791C804.063 162.928 804.663 162.555 804.796 161.959L805.685 158.035C805.522 157.949 805.384 157.814 805.296 157.637C805.07 157.185 805.253 156.637 805.704 156.411C808.305 155.111 810.723 153.398 812.784 151.397C813.145 151.045 813.724 151.054 814.075 151.416C814.427 151.777 814.418 152.356 814.056 152.707C812.156 154.553 809.973 156.166 807.626 157.464ZM769.999 149.33C769.996 149.371 769.989 149.412 769.98 149.453L768.946 154.016C768.809 154.63 769.182 155.23 769.775 155.362C770.267 155.472 770.578 155.959 770.468 156.452C770.359 156.944 769.871 157.255 769.378 157.145C767.791 156.793 766.809 155.21 767.163 153.616L768.199 149.049C768.239 148.872 768.328 148.719 768.448 148.6C767.731 147.732 767.189 146.97 766.738 146.197C766.333 145.503 765.994 144.792 765.635 143.902C765.39 143.296 765.239 142.889 764.699 141.403C764.527 140.929 764.771 140.405 765.245 140.233C765.719 140.06 766.243 140.305 766.416 140.779C766.947 142.241 767.096 142.64 767.329 143.218C767.657 144.031 767.959 144.665 768.316 145.277C768.793 146.094 769.395 146.913 770.268 147.923C770.597 148.305 770.555 148.882 770.173 149.212C770.119 149.259 770.061 149.298 769.999 149.33ZM746.368 103.955C744.114 104.99 742.584 106.821 739.069 107.173C736.268 107.843 733.893 107.052 732.675 106.443C732.797 106.382 732.918 106.382 733.04 106.382L735.963 105.955C737.364 105.955 739.614 105.712 742.233 104.981L746.368 103.955Z" fill="#482D1F"/>
<path d="M730.604 92.0108C731.031 91.889 732.066 91.5236 732.249 90.8538C732.249 90.732 732.309 90.5493 732.249 90.4275C732.005 90.0622 731.213 90.2448 730.117 90.3666C728.169 90.5493 726.585 90.3666 726.585 90.3666C726.585 90.3666 727.073 91.5845 727.377 91.889C728.047 92.8633 729.996 92.2543 730.604 92.0108Z" fill="#482D1F"/>
<path d="M726.038 80.5832L726.041 80.4947L726.036 80.5388L726.038 80.5832ZM725.31 87.0103L725.307 87.0782C725.307 87.7427 725.761 88.3599 726.424 88.4704C726.546 88.4822 726.614 88.487 726.682 88.4914C727.326 88.5333 727.788 88.5396 729.447 88.5396C729.784 88.5396 730.056 88.267 730.056 87.9307C730.056 87.5944 729.784 87.3217 729.447 87.3217C727.818 87.3217 727.368 87.3156 726.761 87.2761C726.698 87.272 726.635 87.2675 726.571 87.2626C726.585 87.2627 726.534 87.192 726.526 87.1022L727.251 80.6304L727.255 80.5419L727.133 76.9492C727.122 76.613 726.84 76.3498 726.504 76.3612C726.168 76.3726 725.905 76.6543 725.916 76.9904L726.036 80.5388L725.31 87.0103Z" fill="#482D1F"/>
</g>
<g clip-path="url(#clip4)">
<path d="M111.43 461.028C111.37 460.99 111.311 460.949 111.253 460.906L50.1156 415.357C48.8977 414.444 48.6541 412.678 49.5675 411.46C50.4809 410.242 52.2469 409.998 53.4647 410.912L113.948 455.973H146.876C148.398 455.973 149.677 457.252 149.677 458.774C149.677 460.297 148.398 461.575 146.876 461.575H113.08C112.461 461.575 111.892 461.374 111.43 461.028ZM306.113 461.575H209.353C207.831 461.575 206.613 460.358 206.613 458.835C206.613 457.313 207.831 456.095 209.353 456.095H306.113C307.636 456.095 308.854 457.313 308.854 458.835C308.854 460.358 307.636 461.575 306.113 461.575Z" fill="#DE3190"/>
<path d="M306.729 456.315C306.443 456.215 306.135 456.161 305.813 456.161H209.053C208.798 456.161 208.551 456.195 208.317 456.259C208.122 455.861 208.013 455.414 208.013 454.938L207.1 421.264C206.978 419.437 208.379 418.036 210.145 417.976L251.979 417.732C252.648 417.732 253.257 417.915 253.805 418.341C260.747 425.77 267.385 429.911 272.195 432.347C275.91 434.234 288.332 439.471 293.935 442.029C296.797 443.307 299.537 444.83 302.216 446.474C302.399 446.596 302.521 446.657 302.703 446.839C304.104 448.118 306.235 450.432 307.027 453.172C307.148 453.538 307.148 453.842 307.209 454.207C307.27 454.512 307.209 454.816 307.209 455.121V455.182C307.122 455.599 306.956 455.981 306.729 456.315ZM147.808 456.333C147.434 456.145 147.015 456.039 146.576 456.039H113.648L53.3943 411.148L76.1172 378.943L112.775 405.553C114.785 412.373 116.855 419.193 118.926 426.074C120.022 429.667 121.118 433.199 122.214 436.731C125.624 438.071 128.547 439.288 130.617 440.202C134.575 441.907 137.924 443.49 141.578 445.865C141.578 445.865 144.745 447.814 146.51 450.615C147.059 451.528 147.546 452.563 147.85 453.659C147.972 454.147 147.972 454.634 148.033 455.06C148.014 455.46 147.923 455.907 147.808 456.333Z" fill="#444444"/>
<path d="M224.91 235.289L241.541 235.071C246.534 234.767 252.806 237.872 257.495 241.404C258.47 242.135 259.322 242.926 260.114 243.779C260.844 244.57 261.575 245.423 262.184 246.336C264.863 250.173 266.264 254.74 266.203 259.429C266.081 269.598 264.863 277.514 264.072 280.133C258.896 296.148 245.621 356.25 258.957 382.252C258.957 382.252 265.716 395.344 264.255 405.148C263.692 409.087 261.527 413.697 260.849 415.069C260.865 415.09 260.88 415.11 260.896 415.131C255.807 422.473 192.586 433.26 144.014 417.306C137.38 415.127 127.694 412.617 116.612 407.684C116.124 407.502 115.637 407.258 115.211 406.954C107.721 402.143 100.231 397.393 92.7413 392.583L73.9251 380.526C70.3323 378.212 69.2971 373.584 71.6111 370.235L86.8955 347.948L96.0295 334.612C98.5871 330.836 101.266 326.939 104.007 322.981C105.311 323.023 102.956 322.921 96.9429 322.677C75.9802 321.824 48.6541 317.805 38.3022 301.181C33.0653 292.717 32.1519 283.826 31.7256 279.746C29.3508 255.937 41.2296 243.672 45.1223 239.8C47.7173 237.219 54.2511 233.077 64.7234 227.374L132.903 231.397L198.697 233.833C198.808 233.777 212.469 232.772 224.91 235.289Z" fill="#FFCB3D"/>
<path opacity="0.176986" d="M224.698 235.292L241.541 235.071C246.534 234.766 252.806 237.872 257.495 241.404C258.47 242.135 259.322 242.926 260.114 243.779C260.844 244.57 261.575 245.423 262.184 246.336C264.863 250.173 266.264 254.74 266.203 259.429C266.081 269.598 264.863 277.514 264.072 280.132C258.896 296.148 245.621 356.25 258.957 382.251C258.957 382.251 265.716 395.344 264.255 405.148C263.683 409.149 261.459 413.841 260.819 415.131C255.33 407.791 233.611 374.29 242.218 317.017C242.461 315.555 247.803 283.985 247.803 275.277C247.803 243.829 240.186 239.354 226.976 235.845C226.226 235.646 225.465 235.462 224.698 235.292Z" fill="#8C2A00"/>
<path d="M131.976 282.302C128.972 286.847 125.808 291.262 118.125 301.772C110.417 312.316 107.243 316.746 104.209 321.335C103.838 321.896 103.992 322.652 104.553 323.023C105.114 323.394 105.87 323.24 106.241 322.678C109.245 318.134 112.409 313.718 120.092 303.209C127.8 292.664 130.974 288.235 134.008 283.646C134.379 283.084 134.225 282.329 133.664 281.958C133.103 281.587 132.347 281.741 131.976 282.302Z" fill="#482D1F"/>
<path d="M101.18 116.366C105.93 116.044 112.029 116.924 117.282 121.98C122.397 126.851 119.961 131.114 127.634 144.145C131.47 150.6 135.123 154.862 133.784 158.881C133.297 160.383 131.856 161.784 129.46 163.083C124.142 163.773 120.874 164.179 119.656 164.301C119.328 164.331 118.953 164.368 118.567 164.407L117.586 181.585L117.525 182.194L115.82 212.459L115.455 218.365C115.455 218.852 115.394 219.279 115.333 219.766C115.272 220.314 115.211 220.801 115.15 221.349C114.968 222.75 114.663 224.089 114.298 225.429C114.115 225.977 113.993 226.525 113.75 227.073L51.5162 226.586L44.8502 164.408C39.9158 164.238 34.6681 164.057 29.1073 163.865C26.1438 162.769 24.3576 161.49 23.7486 160.029C22.1045 156.071 26.7324 151.443 31.543 144.501C41.2251 130.617 38.2414 126.537 44.5743 121.118C52.9676 113.931 61.5276 112.86 67.3272 113.252C67.4558 113.214 67.5847 113.177 67.714 113.141C70.7587 112.288 74.0469 111.923 77.3961 112.106L90.7927 112.958C94.4865 113.155 97.981 114.388 101.18 116.366Z" fill="#DE3190"/>
<path opacity="0.176986" d="M100.959 116.382C105.74 116.018 111.947 116.846 117.282 121.98C122.397 126.851 119.961 131.114 127.634 144.145C131.47 150.6 135.123 154.863 133.784 158.882C133.297 160.384 131.856 161.784 129.46 163.083C124.142 163.773 120.874 164.179 119.656 164.301C119.252 164.338 118.774 164.386 118.294 164.435L119.203 148.505C118.168 136.996 112.018 124.635 103.127 117.876C102.421 117.34 101.698 116.841 100.959 116.382Z" fill="#444444"/>
<path d="M116.259 199.849L117.255 182.179L117.316 181.57L118.3 164.332L128.409 163.094L131.555 201.159C138.265 201.708 145.017 202.227 151.808 202.716C159.177 203.264 166.545 203.751 173.791 204.177C174.791 203.594 183.136 202.825 192.752 204.177C195.707 204.593 200.043 205.806 205.76 207.817C216.6 210.991 223.873 213.244 227.58 214.577C233.141 216.577 227.58 220.314 219.827 220.314C218.268 220.314 196.046 221.132 189.588 222.04C189.698 222.024 189.812 222.009 189.93 221.994L193.736 223.028C195.696 223.508 197.567 224.235 199.4 225.268C201.035 226.185 202.67 227.103 204.304 228.021C204.752 228.31 205.157 228.783 205.372 229.385C206.066 231.189 205.859 234.448 204.304 234.441L109.893 231.54C111.477 231.423 113.059 231.3 114.64 231.173C100.131 232.24 85.591 232.901 69.1145 232.797C59.4933 232.736 57.0575 232.432 54.1346 230.909C41.5905 224.394 39.1547 205.517 37.1452 189.014C36.317 182.618 35.6973 174.206 36.1008 164.196C55.4603 164.863 70.6107 165.378 81.5521 165.74C81.5485 166.233 81.5434 166.705 81.5368 167.154C81.476 173.487 81.2933 179.332 81.8413 187.979C82.0849 191.572 82.1458 194.556 82.2676 196.504C93.4666 197.709 104.8 198.823 116.259 199.849ZM96.2162 109.632L95.3874 112.843C98.2371 113.914 100.709 115.913 103.398 117.951C103.032 119.535 102.363 120.631 101.571 121.422C96.7603 126.233 81.3744 122.153 66.4554 113.019C67.6841 112.675 70.999 111.324 76.9089 111.162C77.3853 111.149 77.943 111.148 78.5821 111.161C80.0049 108.219 81.3711 105.559 82.8635 102.269C82.8408 102.256 82.8246 102.247 82.8156 102.241L84.338 91.158C84.2771 90.4882 84.4598 91.0362 83.8508 90.7927C82.3285 90.2446 80.9888 89.2094 79.9536 87.8698C78.1877 85.434 77.8223 82.0239 79.0402 78.9792C80.4408 76.1172 83.7899 74.0469 86.7128 74.534C87.8089 74.7167 88.7832 75.2038 89.6966 75.9346L89.7575 75.9955C90.062 76.2999 90.4882 76.4217 90.8536 76.4826C91.8888 76.5435 92.8022 75.8737 92.924 74.8385L94.629 59.0061C94.6899 57.9709 94.0806 57.5247 95.1158 57.5855C96.6178 57.7073 99.1013 57.7073 102.566 57.5855C102.871 57.5855 105.219 57.5855 105.463 57.5855C106.918 57.8289 118.073 57.2401 123.736 66.3742C124.223 67.2876 124.711 68.1401 125.076 69.0536C125.989 71.3066 126.294 73.8033 125.989 76.2999L124.528 87.3217C124.345 88.4178 124.102 89.5139 123.797 90.61C119.9 104.068 113.019 113.08 107.782 113.019C105.103 112.897 102.423 112.41 99.9268 111.436C99.5993 111.272 99.81 111.402 96.2162 109.632Z" fill="#DB9E75"/>
<path opacity="0.2" d="M115.963 200.171L116.971 182.281L117.032 181.672L118.017 164.405L128.409 163.094L131.322 201.485C126.178 201.065 121.058 200.627 115.963 200.171ZM189.91 222.063L193.366 222.995C195.325 223.475 197.262 224.109 199.095 225.142C200.73 226.059 202.67 227.103 204.304 228.021C204.752 228.31 205.157 228.783 205.372 229.385C206.066 231.189 205.859 234.448 204.304 234.441L109.659 231.638C122.361 230.697 134.884 229.417 148.494 228.122C152.695 227.757 187.262 222.946 189.211 222.155C189.426 222.124 189.659 222.093 189.91 222.063Z" fill="#8C2A00"/>
<path d="M74.5656 198.022C74.0637 198.073 73.6155 197.708 73.5646 197.206C73.5136 196.704 73.8791 196.256 74.381 196.205L82.1754 195.413C82.6773 195.362 83.1255 195.728 83.1764 196.23C83.2274 196.731 82.8619 197.18 82.36 197.231L74.5656 198.022ZM81.3215 166.105C80.8243 166.02 80.4905 165.548 80.5759 165.05C80.6612 164.553 81.1335 164.219 81.6307 164.305C81.6507 164.308 81.7068 164.316 81.7939 164.324C82.5815 164.401 83.4936 164.322 84.3339 163.976C85.8634 163.346 86.8211 161.962 86.9579 159.432C87.1342 156.169 87.0004 153.574 86.673 151.603C86.5955 151.136 86.5134 150.746 86.4323 150.431C86.3865 150.253 86.3534 150.144 86.3391 150.104C86.1707 149.628 86.4196 149.106 86.8952 148.938C87.3707 148.769 87.8927 149.018 88.0611 149.494C88.1726 149.809 88.3262 150.406 88.4751 151.303C88.8248 153.409 88.9654 156.137 88.782 159.53C88.6077 162.755 87.2184 164.764 85.0294 165.665C83.8714 166.142 82.6764 166.245 81.6178 166.143C81.4846 166.13 81.3843 166.116 81.3215 166.105Z" fill="#482D1F"/>
<path d="M96.4559 109.365L90.1838 106.625L94.6291 115.698L96.4559 109.365Z" fill="#482D1F"/>
<path d="M94.1174 85.8734L92.4369 79.8927C91.8888 78.4313 90.9754 77.1525 89.8184 76.1173C88.905 75.3866 87.9307 74.8994 86.8346 74.7168C83.9117 74.2296 80.5626 76.3 79.162 79.162C77.8223 82.024 78.1268 85.4341 80.0754 87.8698C81.2709 89.4838 82.9359 90.6283 84.8975 91.1306C84.0497 95.8494 82.8156 102.363 82.8156 102.363C82.8156 102.363 81.3194 101.668 78.3268 100.279C71.0798 96.2276 67.1422 88.6695 66.5138 77.6043C54.718 82.1492 43.4445 78.977 39.033 72.2201C35.6838 67.0441 36.4206 60.1473 36.6581 59.1888C39.033 49.6065 47.1927 48.167 47.1927 48.167C47.1927 48.167 58.9453 42.1386 71.4894 60.5285C71.5367 60.5982 71.5841 60.6686 71.6316 60.7396C72.998 59.3284 74.6851 58.2985 76.4827 57.5447C81.5369 55.4743 85.1296 56.9358 94.7508 57.362C96.6994 57.4838 99.6223 57.5447 103.276 57.4229C103.58 57.4229 103.824 57.4229 104.068 57.4229C106.26 57.362 118.113 57.3005 123.776 66.4346C123.715 66.6173 123.63 66.7872 123.493 67.0441C123.493 67.0441 111.734 87.3496 94.1174 85.8734ZM117.403 84.0335C116.185 84.1553 114.176 84.2162 112.593 83.5464C109.853 82.5112 112.775 81.2324 115.333 81.476C116.551 81.5369 117.403 82.2067 117.951 82.7548C118.317 83.2419 118.012 83.9726 117.403 84.0335ZM127.694 85.3123C126.416 85.5559 124.528 85.7994 122.823 85.2514C119.961 84.4598 122.701 82.8765 125.32 82.9374C126.659 82.9983 127.512 83.4855 128.121 84.0335C128.547 84.4598 128.303 85.1905 127.694 85.3123Z" fill="#482D1F"/>
<path d="M122.214 91.6454C121.788 90.8538 122.214 89.2096 122.518 88.1744C122.701 87.4437 123.493 87.0174 124.163 87.1392C124.589 87.261 125.076 87.5655 125.076 88.418C125.198 90.4884 122.762 92.985 122.214 91.6454ZM112.227 90.2448C111.74 89.4532 112.227 87.8091 112.532 86.7739C112.715 86.0431 113.506 85.6169 114.176 85.7387C114.602 85.8605 115.089 86.1649 115.089 87.0174C115.211 89.0878 112.836 91.5845 112.227 90.2448Z" fill="#482D1F"/>
<path d="M122.25 86.9477C122.346 86.6254 122.162 86.2862 121.84 86.1901C121.518 86.094 121.179 86.2773 121.082 86.5996L120.047 90.0706L120.03 90.1482L118.994 96.6029C118.99 96.626 118.938 96.6601 118.829 96.6446C118.197 96.4933 117.463 96.3117 116.68 96.1097C116.355 96.0257 116.023 96.2215 115.939 96.5472C115.855 96.8728 116.05 97.2049 116.376 97.289C117.167 97.493 117.909 97.6767 118.604 97.8401C119.393 97.9553 120.078 97.5102 120.196 96.7995L121.226 90.3804L122.25 86.9477Z" fill="#482D1F"/>
<path d="M96.4558 109.67L91.7061 107.295L93.7764 118.499L96.4558 109.67Z" fill="#482D1F"/>
<path d="M114.602 102.058C114.176 101.936 113.141 101.571 113.019 100.84C113.019 100.718 112.958 100.536 113.019 100.414C113.202 100.109 115.15 100.414 115.15 100.414C117.586 100.84 118.256 100.779 118.378 101.145C118.439 101.327 118.378 101.571 117.83 102.058C117.16 102.971 115.211 102.302 114.602 102.058Z" fill="#482D1F"/>
</g>
<g clip-path="url(#clip5)">
<path d="M533.597 218.61L539.453 194.982H495.494C490.927 194.982 487.151 191.511 487.151 187.309V120.387C487.091 116.125 490.805 112.654 495.433 112.654H629.217C633.784 112.654 637.559 116.125 637.559 120.326V187.309C637.559 191.511 633.784 194.982 629.217 194.982H575.645L573.228 218.61H589.089C591.524 218.61 593.412 220.559 593.412 222.934C593.412 225.369 591.464 227.257 589.089 227.257H521.192C518.756 227.257 516.869 225.308 516.869 222.934C516.747 220.559 518.756 218.61 521.192 218.61H533.597Z" fill="#474961"/>
<path fill-rule="evenodd" clip-rule="evenodd" d="M577.46 177.76L577.641 218.671H573.275L577.46 177.76Z" fill="white"/>
</g>
<path d="M265.163 225.008C264.557 226.081 263.406 226.805 262.087 226.805H174.583C172.634 226.805 171.112 225.222 171.112 223.274C171.112 221.325 172.695 219.742 174.583 219.742H259.697L289.368 139.91C290.038 138.083 292.047 137.17 293.874 137.839C295.701 138.509 296.614 140.519 295.944 142.346L265.436 224.431C265.361 224.635 265.27 224.828 265.163 225.008Z" fill="#474961"/>
<g clip-path="url(#clip6)">
<path d="M831.201 227.134H53.5865C51.2324 227.134 49.324 229.042 49.324 231.397C49.324 233.751 51.2324 235.659 53.5865 235.659H831.201C833.555 235.659 835.464 233.751 835.464 231.397C835.464 229.042 833.555 227.134 831.201 227.134Z" fill="#D8DEED"/>
</g>
<defs>
<clipPath id="clip0">
<rect width="200.95" height="316.648" fill="white" transform="translate(316.039 143.709)"/>
</clipPath>
<clipPath id="clip1">
<rect width="201.559" height="313.603" fill="white" transform="translate(670.441 146.754)"/>
</clipPath>
<clipPath id="clip2">
<rect width="317.866" height="460.358" fill="white" transform="translate(269.151)"/>
</clipPath>
<clipPath id="clip3">
<rect width="317.866" height="460.358" fill="white" transform="translate(545.609)"/>
</clipPath>
<clipPath id="clip4">
<rect width="317.866" height="460.358" fill="white" transform="translate(7.30737 1.21777)"/>
</clipPath>
<clipPath id="clip5">
<rect width="215.564" height="161.978" fill="white" transform="translate(454.877 65.7654)"/>
</clipPath>
<clipPath id="clip6">
<rect width="787.966" height="8.52514" fill="white" transform="translate(49.324 227.134)"/>
</clipPath>
</defs>
</svg>
