<svg width="168" height="222" viewBox="0 0 168 222" fill="none" xmlns="http://www.w3.org/2000/svg">
<path d="M133.344 180.232L133.087 182.112L132.775 184.335L132.409 186.974L130.869 198.053L130.722 199.245L129.108 210.848L128.943 212.077L122.599 258.02L122.434 259.267L119.151 282.961H51.5812L50.646 276.238L50.4809 275.008L49.9859 271.394L49.8208 270.219L46.997 249.778L46.7952 248.369L40.4874 202.643L40.2858 201.197L39.1489 192.938L37.3887 180.232H133.344Z" fill="#D03F23"/>
<path d="M59.0441 230.765C58.421 234.565 57.0344 238.204 54.9657 241.469C52.897 244.734 50.1878 247.559 46.9969 249.778L46.8135 248.369C50.7994 245.649 53.9436 241.894 55.8977 237.521C57.8517 233.148 58.5392 228.327 57.8842 223.593C57.2292 218.858 55.2572 214.395 52.1866 210.697C49.116 207 45.0666 204.212 40.4873 202.643L40.2856 201.198C42.9883 202.142 45.5341 203.476 47.8403 205.156C51.8987 208.012 55.0875 211.908 57.0622 216.422C59.0368 220.936 59.7222 225.896 59.0441 230.765Z" fill="#750021"/>
<path d="M130.887 198.053L130.722 199.246C122.691 198.558 114.679 200.76 108.168 205.445C102.392 209.348 96.5423 214.12 89.171 214.12C85.9112 214.144 82.7047 213.305 79.8854 211.692C77.0662 210.079 74.7375 207.75 73.1419 204.948C71.5464 202.146 70.7425 198.974 70.8139 195.762C70.8854 192.549 71.8296 189.415 73.5482 186.685C73.6357 186.538 73.7786 186.433 73.9454 186.39C74.1122 186.348 74.2892 186.372 74.4375 186.459C74.5858 186.545 74.6933 186.686 74.7363 186.85C74.7793 187.015 74.7542 187.189 74.6667 187.335C72.3998 191.03 71.6554 195.44 72.5865 199.659C73.5176 203.878 76.0536 207.585 79.6727 210.017C86.4022 214.355 93.9935 213.09 100.521 209.095C106.719 205.3 112.11 200.601 119.353 198.794C123.121 197.865 127.028 197.614 130.887 198.053Z" fill="#750021"/>
<path d="M133.087 182.112L132.775 184.335C132.115 185.307 131.386 186.231 130.593 187.1C126.627 191.513 121.054 194.204 115.085 194.587C109.117 194.969 103.236 193.012 98.7241 189.143C97.7126 188.299 96.7742 187.374 95.9187 186.377C95.3869 185.745 96.3037 184.841 96.8355 185.474C97.9539 186.82 99.2278 188.033 100.631 189.088C104.915 192.252 110.221 193.769 115.557 193.354C119.04 192.979 122.385 191.802 125.322 189.918C128.259 188.035 130.705 185.497 132.463 182.51C132.505 182.383 132.59 182.274 132.703 182.201C132.817 182.129 132.952 182.097 133.087 182.112Z" fill="#750021"/>
<path d="M129.108 210.848L128.943 212.077C126.463 212.143 124.061 212.943 122.049 214.373C120.063 215.856 118.546 217.865 117.676 220.166C116.806 222.467 116.618 224.965 117.134 227.367C118.015 231.181 120.398 234.597 120.472 238.627C120.382 241.835 119.073 244.892 116.804 247.194C111.303 253.393 102.575 254.64 96.0839 259.483C92.7981 261.991 90.5123 265.558 89.6272 269.56C88.7421 273.561 89.3142 277.742 91.2431 281.37C91.553 281.92 91.8959 282.451 92.27 282.961H90.7113C90.3956 282.483 90.1079 281.988 89.8495 281.479C88.0889 277.928 87.5097 273.92 88.1945 270.026C88.8793 266.132 90.7931 262.55 93.6634 259.791C100.613 253.375 111.89 252.742 117.299 244.447C120.453 239.603 118.436 235.157 116.639 230.277C115.879 228.433 115.503 226.457 115.535 224.466C115.566 222.476 116.004 220.512 116.823 218.692C117.92 216.383 119.654 214.423 121.826 213.036C123.998 211.65 126.521 210.892 129.108 210.848Z" fill="#750021"/>
<path d="M105.16 232.645C104.537 238.193 99.2374 241.392 95.1484 244.447C89.6362 248.339 84.747 253.024 80.6441 258.345C75.5649 265.375 72.8327 274.9 75.3999 282.961H74.0796C71.8425 275.406 73.8045 266.695 78.1136 259.791C81.4869 254.708 85.6801 250.203 90.5275 246.453C92.8379 244.645 95.2767 242.838 97.6605 241.031C100.484 238.898 103.4 236.259 103.858 232.572C104.867 224.458 94.2498 223.21 88.4371 223.536C82.6244 223.861 76.3167 225.903 72.7227 230.855C69.1287 235.807 68.652 241.699 67.5885 247.121C66.731 253.111 64.4711 258.823 60.9873 263.803C58.2274 267.394 54.3709 270.017 49.9854 271.285L49.8203 270.092C51.8321 269.583 53.729 268.706 55.4129 267.508C61.5374 263.152 64.3979 255.887 65.9381 248.856C67.0933 243.434 67.5701 237.904 69.9722 232.916C71.0638 230.702 72.6028 228.731 74.4947 227.125C76.3865 225.518 78.5914 224.309 80.9741 223.572C86.2417 221.786 91.9188 221.529 97.3303 222.831C101.731 224.168 105.71 227.801 105.16 232.645Z" fill="#750021"/>
<path d="M133.344 180.232L133.087 182.112L132.775 184.335L132.409 186.974L130.593 187.1L128.668 187.209L100.632 189.016L98.7244 189.143L39.1489 192.938L37.3887 180.232H133.344Z" fill="#2B2B39"/>
<path d="M141.889 180.775C104.276 183.938 66.4576 183.938 28.8442 180.775V170.672H141.889V180.775Z" fill="#D03F23"/>
<path d="M116.162 51.4063C112.623 55.5812 110.074 71.0158 103.327 73.4918C98.6691 75.2088 96.212 68.594 105.16 60.226C109.699 55.9214 112.974 50.4891 114.64 44.5023C113.125 37.6202 111.034 30.8738 108.387 24.3326C103.198 29.0678 94.8551 35.791 92.4713 32.574C90.0876 29.357 97.6422 18.1154 101.988 12.4042C100.11 9.63389 97.8376 7.14438 95.2402 5.01229C91.2816 1.66585 86.2062 -0.117525 80.9926 0.00601433C77.0576 0.156055 73.2687 1.51464 70.1557 3.89175C74.7949 12.9284 81.6344 28.2184 76.8485 31.7426C72.3927 35.0139 65.9566 22.3445 61.9225 12.9103C56.2565 21.5493 52.4426 33.3873 50.7923 44.7915C52.3046 47.5301 54.4459 49.8821 57.045 51.6593C65.8283 57.8765 76.2618 70.4555 71.0542 73.2569C65.8466 76.0583 60.3823 68.6663 56.495 62.0695C54.8165 59.0314 52.556 56.3431 49.8388 54.1535C49.7471 56.1596 49.7471 58.1115 49.8388 59.9911C51.214 95.9026 86.7869 95.8846 86.7869 95.8846C86.7869 95.8846 122.433 87.6974 116.162 51.4063ZM71.3843 52.1293C67.8453 52.1293 62.2159 45.6048 59.6305 42.0082C57.045 38.4117 59.0987 35.9175 61.6292 36.5863H61.7392C65.2782 37.6887 75.9501 52.1654 71.3843 52.1293ZM102.41 43.5264H102.52C105.05 42.8215 107.122 44.4843 105.93 47.6652C104.372 51.822 102.263 53.4667 99.1641 51.9124C97.1654 50.9003 98.8708 44.5746 102.41 43.5264Z" fill="#467B6C"/>
<path d="M82.9906 42.4242C86.1262 58.1299 85.1176 74.3596 83.9257 90.2098C82.6604 107.163 80.9368 124.133 81.597 141.158C81.8985 150.813 83.2011 160.411 85.4844 169.804C85.5444 169.953 85.658 170.075 85.8036 170.147C85.9491 170.218 86.1163 170.234 86.2731 170.191C86.4298 170.149 86.5651 170.051 86.6531 169.916C86.741 169.781 86.7754 169.619 86.7496 169.461C78.2963 135.772 86.0711 101.469 86.3278 67.4014C86.4995 58.9201 85.8055 50.4432 84.2558 42.0989C84.0908 41.2856 82.8439 41.629 82.9906 42.4423V42.4242Z" fill="#2B2B39"/>
<path d="M67.0019 95.9569C66.6535 101.379 73.8231 115.331 69.8624 121.259C67.1303 125.344 61.1892 121.44 63.463 109.44C64.5221 103.321 63.8887 97.0337 61.6293 91.2397C56.2564 86.5665 50.5039 82.3352 44.4296 78.5884C43.0543 85.4382 40.3405 95.7039 36.5081 94.493C32.3274 93.1736 31.9974 79.7813 32.1074 72.6966C28.9374 71.5434 25.6144 70.8493 22.2423 70.6362C17.0433 70.2296 11.8758 71.7363 7.73799 74.8654C4.64789 77.2766 2.40321 80.5826 1.32018 84.3177C10.4885 88.9264 25.1578 97.2943 23.3241 102.915C21.6921 108.138 8.91159 101.65 0 96.3725C0.586771 106.656 4.60249 118.422 10.0851 128.597C12.961 129.882 16.0974 130.5 19.2534 130.405C30.072 130.314 46.0248 134.417 43.476 139.694C40.9272 144.972 32.1257 142.188 25.0478 139.134C21.8717 137.653 18.4343 136.794 14.926 136.604C16.0446 138.266 17.218 139.857 18.3916 141.321C41.0006 169.515 69.734 148.839 69.734 148.839C69.734 148.839 93.81 121.621 67.0019 95.9569ZM31.3739 122.561C28.5134 124.585 20.0969 122.561 15.8245 121.223C11.5521 119.886 11.7721 116.615 14.2109 115.711H14.3209C17.7132 114.464 35.0412 119.94 31.3739 122.561ZM51.2874 97.5835V97.4931C52.901 95.4689 55.5783 95.5954 56.5134 98.8486C57.742 103.114 57.0635 105.644 53.5795 106.222C51.3791 106.584 48.9587 100.457 51.1958 97.5835H51.2874Z" fill="#467B6C"/>
<path d="M34.8028 107.921C43.3719 115.329 51.2008 123.53 58.182 132.41C63.2298 139.394 67.5312 146.874 71.0176 154.731C73.5664 160.261 76.0052 165.846 78.499 171.394C78.8474 172.135 79.9659 171.485 79.6358 170.744C75.5284 161.707 71.6961 152.327 66.8919 143.543C62.5634 135.691 57.2532 128.405 51.0857 121.856C46.2449 116.65 41.0555 111.771 35.7929 106.981C35.1695 106.421 34.2527 107.325 34.8761 107.885L34.8028 107.921Z" fill="#2B2B39"/>
<path d="M97.9543 155.309C97.9543 155.309 126.523 176.202 149.297 148.08C150.489 146.616 151.662 145.044 152.817 143.399C149.308 143.554 145.864 144.383 142.677 145.839C135.563 148.857 126.724 151.604 124.231 146.291C121.737 140.977 137.708 137.001 148.527 137.146C151.676 137.282 154.815 136.694 157.695 135.429C163.196 125.29 167.358 113.542 168 103.276C159.07 108.5 146.235 114.897 144.639 109.656C142.916 104.017 157.64 95.7579 166.826 91.2034C165.775 87.4676 163.555 84.1538 160.482 81.7331C156.373 78.566 151.218 77.014 146.015 77.3774C142.639 77.5698 139.309 78.2456 136.131 79.3835C136.131 86.4682 135.764 99.8605 131.584 101.162C127.733 102.337 125.092 92.1252 123.772 85.2031C117.668 88.8874 111.884 93.0646 106.481 97.6917C104.219 103.479 103.586 109.761 104.647 115.873C106.848 127.874 100.87 131.76 98.156 127.657C94.2319 121.693 101.512 107.777 101.2 102.355C74.2084 127.91 97.9543 155.309 97.9543 155.309ZM153.826 122.524H153.936C156.375 123.446 156.595 126.663 152.286 127.946C147.976 129.23 139.578 131.218 136.736 129.175C133.032 126.645 150.36 121.277 153.826 122.524ZM114.567 112.801C111.083 112.205 110.423 109.656 111.688 105.409C112.66 102.156 115.356 102.047 116.933 104.072V104.162C119.206 107.09 116.749 113.108 114.567 112.801Z" fill="#467B6C"/>
<path d="M132.41 113.723C115.137 130.802 101.421 150.61 88.1453 170.744C87.6869 171.431 88.8054 172.081 89.2638 171.394C102.466 151.333 116.127 131.633 133.272 114.626C133.393 114.507 133.461 114.344 133.461 114.175C133.461 114.005 133.393 113.843 133.272 113.723C133.15 113.603 132.985 113.536 132.813 113.536C132.641 113.536 132.476 113.603 132.355 113.723H132.41Z" fill="#2B2B39"/>
<path d="M141.889 170.672C141.889 171.702 116.585 172.479 85.376 172.479C54.1671 172.479 28.8442 171.648 28.8442 170.672C28.8442 169.696 54.1488 168.864 85.376 168.864C116.603 168.864 141.889 169.641 141.889 170.672Z" fill="#2B2B39"/>
</svg>
