<svg width="691" height="337" viewBox="0 0 691 337" fill="none" xmlns="http://www.w3.org/2000/svg">
<g filter="url(#filter0_d)">
<path d="M26.2554 336.03L22.6816 319.118L212.643 288.867L265.285 295.536V312.449L26.2554 336.03Z" fill="#FFD340"/>
<path d="M131.06 89.8559C132.847 97.8356 131.537 106.768 130.226 114.748C128.916 122.727 129.155 131.779 134.395 137.971C139.635 144.046 148.449 145.712 154.642 150.954C155.583 151.64 156.374 152.511 156.968 153.513C157.562 154.515 157.945 155.628 158.095 156.783C158.216 159.76 155.595 162.142 153.094 163.691C145.949 168.097 137.253 169.52 129.631 173.1C127.958 173.744 126.51 174.861 125.463 176.316C123.676 179.174 124.86 182.987 127.012 185.488C129.401 187.796 131.904 189.983 134.514 192.038C137.016 194.302 139.04 197.516 138.333 200.732C137.585 203.324 135.882 205.537 133.567 206.924C127.633 211.124 121.085 214.378 114.154 216.572C108.906 218.356 103.581 219.906 98.1949 221.217C84.3607 224.589 70.1542 226.19 55.9166 225.981C50.5559 225.861 44.6023 225.742 38.7653 225.147C31.573 224.624 24.5627 222.641 18.1628 219.318C12.5649 216.221 7.6806 210.623 8.39616 204.311C9.23031 197.522 15.7809 193.355 20.9004 188.71C21.9455 187.925 22.7334 186.847 23.1636 185.612C23.2705 184.864 23.2083 184.101 22.9815 183.379C22.7547 182.658 22.3691 181.996 21.8531 181.444C19.1155 177.99 14.589 176.561 10.6594 174.298C6.72786 172.155 3.03549 167.987 4.22742 163.699C4.80043 161.954 5.82544 160.391 7.1982 159.171C14.3438 152.262 24.5867 149.404 31.8529 142.616C33.0664 141.64 34.009 140.369 34.5905 138.924C35.5432 136.424 34.5905 133.326 34.3533 130.826C33.976 127.457 33.6584 124.082 33.4006 120.701C32.8239 114.077 32.9033 107.411 33.6377 100.802C34.0249 97.3565 34.7837 93.9627 35.901 90.68C37.5643 85.9083 40.1929 81.5304 43.623 77.8195C47.0531 74.1086 51.211 71.1443 55.8374 69.1115C60.4638 67.0786 65.4594 66.0208 70.5127 66.0041C75.566 65.9874 80.5686 67.0121 85.2083 69.0143C91.4011 71.6273 97.3568 66.156 103.429 66.2746C109.742 66.3932 115.935 69.6092 120.817 73.4202C126.05 77.5308 129.675 83.3472 131.06 89.8559Z" fill="#C54016"/>
<path d="M119.745 165.364C116.729 165.468 113.755 164.629 111.236 162.965C108.718 161.301 106.781 158.894 105.694 156.078C104.606 153.262 104.424 150.177 105.17 147.253C105.917 144.328 107.556 141.709 109.86 139.758L111.647 141.901C109.442 143.878 108.041 146.597 107.711 149.54C107.381 152.483 108.146 155.445 109.86 157.86C111.048 159.371 112.569 160.587 114.304 161.413C116.04 162.24 117.942 162.654 119.864 162.624C121.688 162.647 123.491 162.238 125.126 161.431C126.761 160.624 128.182 159.441 129.273 157.979C130.68 155.849 131.45 153.362 131.492 150.809C131.535 148.257 130.848 145.745 129.512 143.569C127.012 139.519 122.477 137.853 116.887 138.806L116.411 136.066C123.08 134.874 128.672 137.137 131.888 142.14C133.497 144.791 134.318 147.845 134.255 150.946C134.192 154.046 133.247 157.065 131.53 159.647C130.222 161.483 128.487 162.973 126.474 163.989C124.462 165.004 122.232 165.515 119.979 165.476C119.864 165.364 119.864 165.364 119.745 165.364Z" fill="white"/>
<path d="M23.7526 247.544C21.1396 240.159 23.3968 231.822 27.9213 225.392C32.4458 218.962 38.9984 214.433 45.549 210.264C51.378 206.574 57.4583 203.119 61.7456 197.641C66.4207 191.359 68.4319 183.487 67.3434 175.732C66.2132 168.043 62.9541 160.824 57.9346 154.891C60.9551 153.479 64.2485 152.747 67.5826 152.746C71.893 153.105 76.0967 154.275 79.9723 156.195C83.7913 158.219 88.6655 160.959 89.2605 165.128C90.4524 172.51 92.0001 180.49 97.4793 185.612C104.743 192.399 116.058 191.567 125.585 194.544C128.028 195.21 130.302 196.387 132.256 197.997C136.899 201.929 137.973 210.861 139.402 216.459C141.286 224.282 143.589 231.997 146.302 239.572C151.938 254.933 159.46 269.535 168.694 283.042C160.477 283.995 152.973 287.687 144.873 288.52C132.896 289.678 120.909 286.417 111.169 279.35C102.951 273.394 94.2573 269.099 84.135 268.631C76.8688 268.273 69.7233 269.823 62.5777 271.133C60.9809 271.633 59.2636 271.59 57.6934 271.012C56.6604 270.417 55.7688 269.604 55.0804 268.631C51.5066 264.343 47.9349 259.937 44.2425 255.65C42.104 252.697 39.2295 250.357 35.905 248.86C32.0901 247.544 27.6841 248.014 23.7526 247.544Z" fill="#F7846C"/>
<path d="M86.6379 204.786C84.4956 204.904 82.3483 204.904 80.2059 204.786C74.3769 204.547 68.6544 203.594 62.8174 203.475C60.4355 203.357 57.9351 203.475 55.5533 203.594C53.2253 205.358 50.7994 206.988 48.2871 208.478C54.5341 208.081 60.8059 208.401 66.9801 209.431C73.9369 210.675 80.994 211.273 88.061 211.216C89.5441 211.141 91.0181 210.939 92.4669 210.613C90.6746 208.525 88.726 206.577 86.6379 204.786ZM112.482 191.922C111.767 192.525 111.053 193.232 110.338 193.948C107.289 196.529 104.021 198.84 100.571 200.854C100.433 203.21 100.593 205.574 101.048 207.889C103.158 206.942 105.19 205.827 107.122 204.555C112.064 201.245 116.761 197.584 121.176 193.598C118.318 192.995 115.349 192.519 112.482 191.922Z" fill="#DD4040"/>
<path d="M78.7773 178.466C82.1026 179.868 85.8187 180.036 89.2574 178.943C90.2558 178.489 91.1796 177.887 91.9971 177.156C90.6654 173.294 89.747 169.302 89.2574 165.246C88.5439 160.959 83.7802 158.211 79.9692 156.314C76.0739 154.447 71.8811 153.278 67.5816 152.861C64.4862 152.503 60.9124 153.932 57.9336 155.003C61.4558 159.277 64.1609 164.162 65.9133 169.415C69.7222 172.985 73.7764 176.677 78.7773 178.466Z" fill="black"/>
<path d="M115.816 155.353C114.205 159.458 111.751 163.18 108.612 166.278C105.473 169.375 101.719 171.78 97.5931 173.337C88.6606 176.434 78.0619 174.052 69.7244 170.121C64.3163 167.659 59.6662 163.794 56.2574 158.927C54.6358 156.395 53.2415 153.725 52.0907 150.947C51.6143 149.755 50.1852 146.421 49.1119 143.562C47.5203 143.429 45.956 143.068 44.4668 142.491C42.9151 141.964 41.4943 141.111 40.3 139.989C38.1584 137.907 36.7392 135.194 36.2499 132.248C35.7612 129.628 36.3249 126.921 37.8186 124.714C39.3123 122.507 41.6158 120.978 44.2296 120.457C47.0316 120.294 49.7933 121.186 51.9701 122.958C50.6616 112.359 50.7802 97.3526 58.2835 89.8492C69.835 78.0586 103.896 70.7944 114.258 89.7306C120.735 102.483 123.349 116.848 121.779 131.064C120.979 139.407 118.97 147.589 115.816 155.353Z" fill="#F7846C"/>
<path d="M90.8064 82.4703C95.9841 86.2482 101.438 89.6325 107.122 92.5947C111.092 94.6908 115.288 96.3288 119.628 97.477C118.912 95.3343 117.96 92.4741 117.127 90.442C108.082 68.8847 68.7728 74.6032 57.1007 86.2732C49.9552 93.5474 49.2416 110.93 51.8607 123.082C66.0332 112.602 89.6205 81.5176 90.8064 82.4703Z" fill="#C54016"/>
<path d="M103.311 141.547C100.798 142.939 98.0549 143.866 95.2128 144.284C94.5051 137.311 95.1932 130.266 97.2369 123.561C97.3575 134.638 99.1424 138.091 103.311 141.547ZM47.3346 130.588C48.868 133.41 49.7247 136.55 49.8371 139.76C48.9272 138.089 47.5085 136.751 45.7869 135.941C44.1207 134.988 42.4524 135.225 40.5469 133.915C41.9645 134.297 43.4675 134.214 44.8342 133.678C45.6684 133.201 45.4372 129.627 43.0473 125.698C44.6564 127.161 46.0947 128.801 47.3346 130.588ZM89.7336 128.803C89.0419 126.717 87.74 124.887 85.9965 123.549C84.2529 122.211 82.1479 121.428 79.9539 121.3C77.76 121.172 75.5782 121.705 73.6909 122.831C71.8036 123.957 70.2977 125.624 69.3683 127.615C70.918 127.734 72.4657 127.734 74.0134 127.855C78.8957 128.327 84.9699 128.803 89.7336 128.803ZM121.178 129.993C120.448 127.933 119.138 126.128 117.404 124.796C115.671 123.464 113.588 122.663 111.409 122.49C109.205 122.471 107.04 123.076 105.164 124.235C103.289 125.394 101.779 127.06 100.811 129.04C102.358 129.159 103.908 128.922 105.456 129.04C110.219 129.517 116.294 129.993 121.178 129.993Z" fill="#DD4040"/>
<path d="M69.1309 127.967C72.1999 125.527 76.0577 124.298 79.9728 124.512C83.7887 124.567 87.4445 126.055 90.2138 128.681C90.2138 128.681 87.3555 130.468 80.3286 130.231C76.4721 130.342 72.6413 129.568 69.1309 127.967ZM100.453 129.278C103.521 126.839 107.377 125.609 111.291 125.823C115.115 125.852 118.783 127.344 121.542 129.992C121.542 129.992 118.683 131.778 111.656 131.539C107.812 131.509 104.008 130.741 100.453 129.278Z" fill="white"/>
<path d="M80.2048 125.345C77.8517 126.466 75.6185 127.823 73.5396 129.395C75.7616 129.955 78.0372 130.274 80.3274 130.348C87.3624 130.466 90.2126 128.8 90.2126 128.8C87.9827 126.531 85.0388 125.101 81.8771 124.75C81.2964 124.875 80.7343 125.075 80.2048 125.345ZM104.62 130.706C106.925 131.272 109.283 131.591 111.655 131.658C118.69 131.777 121.54 130.109 121.54 130.109C119.592 128.153 117.104 126.823 114.395 126.29C110.695 126.471 107.202 128.049 104.62 130.706ZM90.09 117.964C84.9685 116.415 79.4913 114.867 74.1306 115.938C71.406 116.628 68.7691 117.628 66.2715 118.917C69.3928 115.665 73.309 113.284 77.6327 112.01C81.9565 110.735 86.538 110.612 90.9241 111.651C91.1779 113.792 90.8911 115.963 90.09 117.964ZM121.177 120.344C120.714 119.444 119.958 118.73 119.034 118.318C116.846 117.326 114.454 116.864 112.054 116.968C109.653 117.073 107.311 117.742 105.217 118.921C105.099 116.658 104.861 114.394 104.741 112.131C107.949 111.207 111.386 111.505 114.389 112.965C117.477 114.513 119.892 117.138 121.177 120.344Z" fill="black"/>
<path d="M99.9764 155.717C99.4323 157.043 98.5095 158.18 97.3234 158.984C96.1373 159.789 94.7405 160.226 93.3073 160.242C90.4561 160.211 87.6632 159.43 85.209 157.979C82.7085 156.55 80.4453 154.883 77.8242 153.691C85.2505 153.775 92.6582 154.452 99.9764 155.717Z" fill="#DD4040"/>
<path d="M75.6816 153.098C77.2332 153.214 78.7931 153.134 80.3247 152.861C85.7758 151.674 91.3116 150.918 96.8811 150.598C99.3815 150.598 103.669 151.311 104.384 153.456C105.574 156.909 98.5554 156.314 95.2128 155.956C88.7808 155.243 82.1116 155.122 75.6816 153.098Z" fill="black"/>
<path d="M118.08 92.9546C117.365 84.6171 107.361 78.3037 99.1422 76.8746C91.2595 75.1521 83.016 76.5619 76.1538 80.8061C63.2898 88.9044 53.4046 103.077 46.9746 116.297C48.4411 101.063 54.9841 86.7635 65.553 75.6947C68.1135 72.929 71.0388 70.5251 74.2483 68.5491C78.674 65.839 83.7109 64.2869 88.8944 64.0361C94.078 63.7853 99.2412 64.8438 103.908 67.114C113.077 71.7551 118.675 82.7116 118.08 92.9546Z" fill="#9778FF"/>
<path d="M50.0735 168.343C47.0568 168.447 44.0827 167.609 41.5644 165.945C39.0461 164.281 37.1088 161.873 36.0217 159.057C34.9346 156.242 34.7517 153.157 35.4984 150.232C36.2451 147.308 37.8844 144.688 40.1883 142.738L41.9833 144.883C39.7778 146.859 38.3767 149.578 38.0472 152.522C37.7176 155.465 38.4826 158.427 40.1964 160.842C41.3851 162.353 42.9064 163.568 44.6419 164.395C46.3774 165.221 48.2802 165.635 50.2022 165.606C52.0256 165.628 53.8283 165.218 55.4634 164.411C57.0986 163.604 58.5197 162.422 59.611 160.961C61.0181 158.83 61.7879 156.342 61.8299 153.789C61.8719 151.237 61.1844 148.725 59.8481 146.549C57.3477 142.501 52.8131 140.833 47.2233 141.785L46.747 139.046C53.4162 137.856 59.008 140.119 62.224 145.12C63.834 147.77 64.6554 150.825 64.592 153.925C64.5287 157.026 63.5831 160.044 61.8662 162.627C60.558 164.463 58.8228 165.953 56.8103 166.968C54.7979 167.984 52.5686 168.494 50.3147 168.456C50.1941 168.343 50.1941 168.343 50.0735 168.343Z" fill="white"/>
<path d="M134.158 275.412C137.586 269.808 139.701 263.499 140.342 256.96C140.983 250.421 140.135 243.822 137.86 237.658C135.476 231.464 131.786 225.868 129.046 219.794C125.161 211.324 123.286 202.071 123.567 192.757C121.418 191.888 119.182 191.249 116.898 190.852C118.326 198.946 118.806 207.18 118.327 215.386C100.343 225.637 76.9993 230.75 56.634 227.773C53.6571 220.738 48.5357 214.433 43.6534 208.598C41.9205 209.827 40.0838 210.903 38.1641 211.814C50.5462 228.821 56.4967 249.668 54.9576 270.649C60.7825 281.255 64.769 292.772 66.7483 304.71C86.7558 303.399 107.003 301.731 126.891 299.231C131.428 292.085 129.75 282.439 134.158 275.412Z" fill="#643CFF"/>
<path d="M110.933 319.119L70.4395 316.5V309.831L170.602 292.68L200.257 299.349L110.933 319.119Z" fill="#D70A32"/>
<path d="M129.632 293.753C123.558 297.087 116.889 307.328 108.196 309.949C104.165 311.001 99.9215 310.918 95.9347 309.71C67.7123 314.476 11.7258 322.216 9.4625 321.501C7.31984 320.787 6.8495 316.142 6.60428 314.355C6.00128 309.71 7.55702 305.185 8.39117 300.54C9.34391 295.419 10.2967 290.179 11.1308 284.939C12.9157 274.688 14.584 264.453 16.8472 254.212C17.925 248.609 19.357 243.079 21.1346 237.658C24.8269 226.82 28.8751 218.243 39.5944 214.074C46.74 228.367 47.2163 228.486 49.8454 241.587C52.585 255.52 40.8004 277.435 33.291 298.396C55.6804 291.489 70.4479 304.351 98.4371 294.577C100.819 291.718 105.106 287.194 107.482 284.336C109.864 281.357 112.604 278.262 116.296 277.427C118.465 277.07 120.678 277.07 122.847 277.427C129.039 278.262 135.108 278.975 141.306 279.809C140.848 280.769 140.119 281.574 139.209 282.124C138.299 282.675 137.248 282.947 136.185 282.907C138.33 283.51 140.354 283.978 142.378 284.573C142.226 285.414 141.828 286.19 141.234 286.805C140.641 287.42 139.878 287.845 139.043 288.026C138.541 288.65 137.87 289.117 137.109 289.371C136.349 289.624 135.532 289.653 134.756 289.455C132.493 288.742 130.229 288.384 128.087 287.55C128.087 288.384 128.8 288.742 129.516 288.979C130.706 289.337 131.658 290.052 132.85 290.408C133.327 290.529 133.922 291.839 134.517 293.268C134.874 294.1 135.946 296.245 136.185 297.087C132.73 298.635 130.585 295.537 129.632 293.753Z" fill="#F7846C"/>
<path d="M147.854 235.04C136.895 260.05 111.053 319.122 111.053 319.122C140.708 315.303 171.435 307.452 200.614 301.02C210.379 273.628 226.101 247.665 237.297 220.867C208.831 226.346 176.317 230.871 147.854 235.04Z" fill="#FF465A"/>
<path d="M588.582 80.347C591.28 79.1113 594.34 78.9198 597.171 79.8096C602.537 81.6 605.042 87.5025 607.545 91.9769C611.47 98.7731 614.523 105.929 617.744 112.906C637.601 157.629 657.296 202.355 677.138 247.079C684.293 263.177 691.27 281.962 683.218 297.526C677.853 307.903 666.401 314.162 654.953 316.668C643.504 318.993 631.518 318.099 619.71 317.383C598.856 316.279 577.962 316.159 557.098 317.024C515.952 318.814 474.447 324.717 434.196 317.024C412.907 312.912 392.157 301.46 393.409 276.953C394.481 255.128 410.404 236.88 424.178 221.497C436.781 207.912 450.162 195.069 464.252 183.033C481.069 168.184 498.242 153.873 515.578 139.556C531.857 126.139 549.033 113.259 564.06 98.4108C570.286 92.3558 577.12 86.9601 584.455 82.3095C585.777 81.5479 587.157 80.8918 588.582 80.347Z" fill="#14D29B"/>
<path d="M677.127 247.244C657.27 202.52 637.591 157.797 617.734 113.071C614.732 105.908 611.327 98.9203 607.535 92.142C604.851 87.6706 602.526 81.765 597.161 79.9777C594.321 79.1644 591.288 79.3531 588.571 80.5121C587.114 81.0475 585.732 81.769 584.459 82.6587C583.028 83.5645 581.597 84.6272 580.166 85.7021C589.646 86.4176 593.752 97.1508 596.086 105.559C596.613 104.677 597.35 103.939 598.233 103.413C601.273 101.444 604.673 103.413 606.989 105.559C610.413 109.052 613.307 113.03 615.575 117.364C620.346 125.657 624.415 134.334 627.739 143.305C630.958 151.535 634.179 159.763 637.757 167.993C642.05 178.189 646.344 188.388 650.281 198.762C654.167 209.025 657.334 219.546 659.761 230.249C662.019 239.611 662.864 249.258 662.267 258.871C661.819 267.251 658.961 275.323 654.036 282.118C648.178 289.233 640.125 294.204 631.139 296.251C621.768 298.097 612.243 299.055 602.692 299.113C591.065 299.651 579.617 300.723 567.987 302.335C556.897 303.944 545.805 306.26 534.712 307.881C524.695 309.49 514.321 310.206 504.659 306.628C500.007 304.838 495.713 301.975 491.242 299.829C487.362 298.068 483.275 296.805 479.078 296.073C470.454 295.029 461.729 295.149 453.137 296.429C448.306 296.967 443.297 297.682 438.467 298.042C433.512 298.312 428.543 298.132 423.621 297.504C415.391 296.251 406.623 293.389 401.08 286.937C397.565 282.775 395.164 277.788 394.103 272.445L393.565 277.276C392.493 301.785 413.244 313.234 434.354 317.349C474.784 325.042 516.286 319.318 557.253 317.349C578.117 316.397 599.017 316.516 619.868 317.705C631.673 318.421 643.481 319.318 655.108 316.99C666.56 314.665 678.009 308.403 683.374 297.848C691.269 282.139 684.292 263.357 677.127 247.244Z" fill="#008C6E"/>
<path d="M564.252 120.419C564.45 120.598 564.682 120.735 564.935 120.823C565.187 120.911 565.454 120.948 565.72 120.931C565.987 120.915 566.248 120.845 566.487 120.726C566.726 120.608 566.939 120.443 567.114 120.241C567.759 119.352 568.133 118.295 568.189 117.198C569.318 108.12 569.558 98.9531 568.904 89.8286C569.011 86.4347 568.141 83.0815 566.399 80.1672C565.766 79.1292 564.813 78.3241 563.685 77.8723C562.556 77.4206 561.311 77.3466 560.137 77.6613C560.084 75.847 559.623 74.0681 558.786 72.4573C557.95 70.8466 556.76 69.4456 555.306 68.3592C552.325 66.119 548.808 64.7 545.107 64.244C542.63 63.7229 540.05 64.0416 537.774 65.1498C536.669 65.7665 535.803 66.7369 535.316 67.9049C534.83 69.073 534.75 70.3708 535.09 71.5897C530.076 69.1675 524.351 68.6587 518.988 70.1586C518.229 70.3679 517.52 70.7296 516.905 71.2217C516.29 71.7137 515.781 72.3259 515.411 73.0208C515.211 73.8107 515.222 74.639 515.442 75.4234C515.661 76.2078 516.083 76.9211 516.663 77.4922C515.137 77.3645 513.602 77.6101 512.192 78.2078C509.596 78.9258 507.164 80.1431 505.034 81.7916C503.99 82.6443 503.179 83.7482 502.679 84.9997C502.178 86.2513 502.003 87.6095 502.171 88.947C502.656 90.3796 503.505 91.6615 504.634 92.6672C505.764 93.6728 507.135 94.3677 508.614 94.6835C511.477 95.5892 514.695 95.5892 517.557 96.4739C520.113 97.2392 522.443 98.617 524.345 100.488C526.247 102.358 527.663 104.665 528.472 107.207C529.497 111.416 531.253 115.412 533.659 119.015C536.349 122.586 540.331 124.961 544.751 125.633C551.372 126.143 558.171 122.028 564.252 120.419Z" fill="black"/>
<path d="M565.862 141.709C570.909 127.497 579.908 115.021 591.803 105.75C588.472 112.093 586.752 119.158 586.794 126.323C586.861 129.909 587.77 133.429 589.448 136.599C591.127 139.769 593.527 142.5 596.456 144.571C600.14 146.563 604.041 148.123 608.083 149.22C609.274 149.661 610.368 150.33 611.304 151.189C613.807 154.051 612.02 158.525 611.123 162.281C610.376 165.99 610.742 169.837 612.174 173.338C613.607 176.839 616.043 179.839 619.175 181.96C620.278 182.532 621.252 183.323 622.037 184.285C622.419 185.205 622.585 186.201 622.522 187.195C622.46 188.189 622.171 189.156 621.678 190.022C617.422 202.943 617.172 216.849 620.962 229.914C621.713 231.728 622.023 233.694 621.868 235.651C621.479 237.169 620.667 238.546 619.527 239.622C618.388 240.698 616.966 241.429 615.428 241.731C612.341 242.208 609.194 242.148 606.126 241.553C590.922 239.763 574.998 240.478 560.866 246.74C546.914 253.002 534.928 265.157 531.706 280.193C524.283 275.662 515.712 273.364 507.018 273.575C498.396 273.757 489.793 274.474 481.259 275.721C468.913 276.974 456.393 267.313 443.869 267.491C455.499 254.792 465.695 253.361 481.259 251.393C495.221 249.465 508.552 244.347 520.217 236.436C531.882 228.524 541.568 218.032 548.523 205.773C559.604 186.969 558.888 161.922 565.862 141.709Z" fill="#008C6E"/>
<path d="M572.304 144.211C568.898 141.77 566.335 138.332 564.967 134.371C563.577 130.583 562.792 126.599 562.643 122.566C558.373 126.813 553.252 130.106 547.616 132.228C547.818 135.029 547.195 137.828 545.826 140.28C544.413 142.717 542.667 144.944 540.639 146.898C542.463 149.43 544.942 151.417 547.81 152.646C550.678 153.875 553.827 154.3 556.918 153.875C563.09 152.73 568.593 149.274 572.304 144.211Z" fill="#F7846C"/>
<path d="M546.902 137.042C551.374 138.654 555.658 136.136 559.067 132.927C560.53 131.523 561.904 130.03 563.182 128.456C562.823 126.487 562.644 124.531 562.466 122.375C558.196 126.622 553.074 129.915 547.437 132.036C547.713 133.723 547.528 135.452 546.902 137.042Z" fill="black"/>
<path d="M486.971 303.785C487.034 296.713 487.632 289.656 488.759 282.675C483.621 281.72 478.356 281.659 473.198 282.496C473.913 290.905 474.629 299.132 475.701 307.363C478.158 307.547 480.63 307.366 483.034 306.825C485.003 306.469 486.971 305.753 486.971 303.785ZM431.693 294.839C432.552 287.845 433.864 280.913 435.618 274.088C430.635 272.593 425.428 271.987 420.235 272.298C420.054 280.706 419.876 288.936 420.054 297.357C422.469 297.861 424.955 297.921 427.391 297.535C429.368 297.36 431.515 296.807 431.693 294.839Z" fill="#F7846C"/>
<path d="M498.957 229.007C494.663 225.789 488.939 224.714 483.559 222.926C473.093 219.731 462.383 217.398 451.537 215.949C442.749 214.244 433.684 214.611 425.062 217.021C422.548 217.667 420.219 218.892 418.263 220.599C414.417 224.463 412.179 229.642 412.001 235.091C411.228 246.042 411.89 257.048 413.97 267.828C413.253 267.907 412.573 268.183 412.005 268.625C411.436 269.068 411.001 269.659 410.748 270.334C412.391 272.1 413.56 274.253 414.148 276.593C414.507 277.846 415.053 278.92 415.401 280.17C423.395 278.173 431.765 278.235 439.729 280.351C440.794 276.941 442.427 273.734 444.56 270.868C444.01 270.443 443.358 270.17 442.669 270.076C441.98 269.982 441.279 270.071 440.635 270.334C441.885 264.25 442.244 258.166 443.497 252.264C448.723 253.015 453.798 254.581 458.539 256.904C467.897 260.802 477.917 262.867 488.054 262.985C490.742 263.042 493.409 262.492 495.855 261.377C498.302 260.262 500.466 258.611 502.187 256.545C506.662 250.999 506.662 242.234 504.334 235.794C503.14 233.116 501.29 230.782 498.957 229.007Z" fill="#D70A32"/>
<path d="M437.773 319.888C438.561 313.971 437.886 307.951 435.807 302.355C435.399 301.562 435.095 300.72 434.902 299.849C434.545 297.165 436.692 294.662 436.155 292.156C435.298 291.892 434.398 291.803 433.506 291.895C432.615 291.987 431.751 292.259 430.968 292.694C430.03 293.354 429.134 294.071 428.284 294.841C427.846 295.212 427.324 295.472 426.763 295.596C426.202 295.721 425.619 295.707 425.065 295.556C423.812 295.2 423.275 293.769 422.559 292.516C422.01 291.395 421.285 290.368 420.413 289.475C419.631 288.551 418.559 287.92 417.372 287.685C417.076 287.633 416.772 287.643 416.48 287.716C416.189 287.789 415.916 287.923 415.679 288.109C415.443 288.295 415.248 288.528 415.108 288.795C414.968 289.061 414.886 289.353 414.866 289.654C414.748 291.92 414.807 294.193 415.044 296.45C415.256 297.223 415.193 298.045 414.866 298.778C414.477 299.285 413.991 299.71 413.435 300.028C407.457 303.299 401.237 306.11 394.831 308.436C391.88 309.241 389.18 310.78 386.984 312.91C386.066 314.221 385.446 315.718 385.167 317.294C384.889 318.87 384.959 320.488 385.372 322.034C397.18 325.253 409.704 320.244 422.046 320.96C427.309 321.59 432.644 321.227 437.773 319.888Z" fill="#9778FF"/>
<path d="M494.126 324.535C494.392 321.817 494.047 319.073 493.119 316.505C492.19 313.936 490.7 311.607 488.758 309.687C489.117 308.078 489.473 306.469 489.833 305.037C490.192 303.784 490.738 302.353 489.833 301.457C489.295 300.922 487.864 301.1 487.148 300.922C487.073 302.014 486.703 303.065 486.077 303.963C485.752 304.396 485.31 304.728 484.803 304.918C484.296 305.109 483.744 305.15 483.215 305.037C482.14 304.856 481.783 303.784 481.246 302.891C480.54 301.417 479.499 300.13 478.206 299.132C477.418 298.404 476.412 297.957 475.344 297.86C474.276 297.763 473.206 298.021 472.3 298.594C468.901 300.741 470.869 301.816 472.122 307.718C470.634 311.068 468.437 314.056 465.682 316.474C463.087 318.795 460.802 321.441 458.883 324.345C457.933 325.781 457.34 327.423 457.153 329.135C456.967 330.847 457.192 332.578 457.811 334.185C459.598 334.363 461.736 335.438 463.547 335.616C467.229 336.184 470.979 336.122 474.64 335.435C476.962 334.618 479.182 333.538 481.258 332.216C485.18 329.907 490.192 326.685 494.126 324.535Z" fill="#643CFF"/>
<path d="M431.869 313.805C423.283 314.52 415.052 316.129 406.644 317.382C399.676 318.664 392.544 318.784 385.537 317.739C385.417 319.232 385.476 320.734 385.715 322.213C397.523 325.431 410.044 320.423 422.389 321.138C427.621 321.65 432.902 321.164 437.953 319.707C438.26 317.635 438.379 315.539 438.309 313.445C435.984 313.626 433.838 313.626 431.869 313.805ZM493.769 321.319C483.748 328.475 469.081 335.63 457.451 329.009C457.234 330.713 457.482 332.443 458.166 334.018C459.957 334.199 462.091 335.271 463.903 335.449C467.584 336.02 471.335 335.959 474.995 335.271C477.316 334.453 479.537 333.373 481.613 332.053C485.372 329.725 490.559 326.684 494.315 324.36C494.496 323.234 494.496 322.086 494.315 320.96C494.116 321.051 493.931 321.172 493.769 321.319Z" fill="black"/>
<path d="M573.915 140.098C573.945 141.001 574.065 141.899 574.271 142.779C590.731 154.946 605.22 170.329 612.916 189.47C616.043 196.318 617.63 203.769 617.566 211.296C617.533 215.062 616.703 218.779 615.131 222.201C613.559 225.623 611.28 228.674 608.445 231.153C605.608 233.274 602.472 234.961 599.14 236.162C585.412 241.763 570.956 245.378 556.207 246.895C549.515 247.914 542.682 247.488 536.169 245.645C530.37 243.448 525.076 240.101 520.605 235.806C512.039 228.826 505.493 219.685 501.644 209.328C499.803 204.525 499.552 199.257 500.929 194.301C503.882 183.617 509.064 173.68 516.133 165.142C519.967 161.093 524.294 157.543 529.013 154.575C532.956 151.985 536.615 148.987 539.928 145.629C540.353 144.796 540.597 143.882 540.643 142.948C543.411 145.146 546.779 146.455 550.304 146.704C553.8 146.968 557.314 146.604 560.681 145.629C565.31 144.357 569.757 142.498 573.915 140.098Z" fill="#FFD340"/>
<path d="M518.454 222.926C518.276 219.001 518.098 215.052 518.276 211.118C518.349 205.862 519.07 200.634 520.422 195.554C521.818 190.562 523.675 185.711 525.969 181.062C528.115 176.413 530.621 171.941 533.124 167.645C534.377 165.498 535.63 163.352 536.702 161.027C535.647 162.587 534.236 163.874 532.587 164.783C531.315 165.274 529.952 165.48 528.592 165.388C527.232 165.296 525.909 164.907 524.716 164.248C525.602 166.465 525.79 168.9 525.253 171.226C524.338 173.449 522.611 175.24 520.422 176.235C518.451 177.199 516.536 178.274 514.686 179.453C512.854 180.751 511.174 182.251 509.677 183.924C506.486 187.312 503.939 191.253 502.162 195.554C501.291 197.461 500.573 199.435 500.016 201.457C500.207 204.199 500.749 206.905 501.628 209.509C503.667 215.384 506.759 220.839 510.752 225.607C513.24 224.5 515.816 223.604 518.454 222.926ZM545.648 153.515C553.015 155.619 560.895 154.983 567.83 151.725C571.512 150.198 575.048 148.341 578.397 146.179C577.144 145.273 575.894 144.21 574.641 143.316C573.21 144.222 571.598 144.926 569.988 145.822C564.24 148.839 557.874 150.492 551.384 150.653C546.892 150.755 542.491 149.376 538.86 146.728C538.305 147.308 537.708 147.846 537.073 148.337C539.618 150.536 542.517 152.287 545.648 153.515ZM570.87 172.669C573.067 180.479 577.63 187.416 583.931 192.526C584.646 193.061 584.109 193.957 583.572 194.135C583.393 194.135 583.215 194.313 583.037 194.313C574.451 193.957 565.146 200.216 564.789 209.34C564.43 216.317 570.154 221.685 575.701 224.904C582.878 228.743 591.035 230.363 599.135 229.556C603.361 229.401 607.559 228.801 611.659 227.766C615.388 223.013 617.461 217.171 617.562 211.13C617.626 203.603 616.039 196.152 612.912 189.305C606.291 172.669 594.308 158.892 580.353 147.444C577.127 148.915 574.438 151.353 572.66 154.421C569.852 160.08 569.215 166.572 570.87 172.669Z" fill="#FDB849"/>
<path d="M576.953 253.518C559.156 240.098 538.925 230.255 517.382 224.534C509.013 222.135 500.324 221.048 491.622 221.312C486.365 221.303 481.259 223.068 477.13 226.321C474.943 228.44 473.236 231.002 472.121 233.836C466.038 247.422 466.575 262.995 467.291 277.843C466.742 277.521 466.111 277.365 465.475 277.397C464.839 277.429 464.227 277.646 463.713 278.022C465.297 281.368 466.383 284.928 466.934 288.589C475.274 287.711 483.7 288.941 491.441 292.166C494.13 288.969 497.056 285.979 500.197 283.224C500.553 282.864 501.103 282.149 500.731 281.611C500.553 281.433 500.197 281.433 500.016 281.255C498.631 281.103 497.258 280.864 495.903 280.54C499.028 272.146 501.538 263.537 503.415 254.78C510.906 263.385 520.441 269.968 531.143 273.921C541.96 277.92 553.871 277.792 564.599 273.562C567.841 272.382 570.776 270.486 573.186 268.016C576.775 264.788 577.132 258.717 576.953 253.518Z" fill="#FF465A"/>
<path d="M515.951 305.21C517.926 291.57 522.939 278.548 530.621 267.105C539.453 253.41 551.812 242.348 566.399 235.083C581.069 228.106 596.096 223.275 611.659 227.747C605.579 212.898 611.838 191.61 618.637 177.121C634.557 190.707 639.388 218.982 636.885 239.733C635.508 250.132 631.63 260.042 625.583 268.614C619.535 277.185 611.499 284.162 602.164 288.946C595.663 291.966 588.89 294.362 581.936 296.101C560.853 301.457 537.943 306.116 515.951 305.21Z" fill="#14D29B"/>
<path d="M574.808 204.856C571.299 201.632 567.53 198.703 563.538 196.101C560.935 194.089 557.851 192.793 554.592 192.342C550.663 192.622 546.918 194.115 543.873 196.614C540.829 199.114 538.636 202.497 537.597 206.296C538.062 206.502 538.574 206.578 539.079 206.515C539.583 206.452 540.062 206.253 540.462 205.94C541.34 205.277 542.176 204.56 542.965 203.794C544.259 202.473 545.856 201.49 547.618 200.928C544.657 203.384 542.532 206.697 541.534 210.412C542.45 210.697 543.434 210.677 544.338 210.354C545.241 210.031 546.015 209.423 546.543 208.621C547.61 207.006 549.094 205.709 550.836 204.865C549.13 207.247 548.424 210.2 548.868 213.096C549.571 213.181 550.283 213.035 550.897 212.68C551.51 212.325 551.991 211.78 552.267 211.127C552.983 209.696 553.173 208.265 554.414 207.202C554.236 209.171 553.876 210.961 553.698 212.939C554.292 213.069 554.913 213 555.463 212.741C556.014 212.482 556.463 212.048 556.742 211.508C557.419 210.166 557.843 208.71 557.992 207.214C559.96 207.395 561.916 209.361 563.538 210.614C564.587 211.296 565.784 211.717 567.029 211.841C568.274 211.966 569.53 211.79 570.693 211.329C571.816 210.622 572.767 209.675 573.479 208.556C574.19 207.436 574.645 206.173 574.808 204.856ZM522.57 96.9837C522.508 103.178 523.169 109.359 524.539 115.401C525.792 120.766 527.579 127.743 531.694 131.68C534.451 134.133 538.022 135.472 541.712 135.436C546.702 135.418 551.614 134.19 556.026 131.858C559.339 130.45 562.102 128.001 563.897 124.881C565.384 121.554 566.175 117.958 566.222 114.314C566.698 109.739 566.817 105.134 566.578 100.54C566.044 94.2785 564.613 86.0482 559.96 81.3987C557.893 79.2577 555.376 77.6016 552.592 76.5496C549.808 75.4977 546.825 75.076 543.859 75.315C540.287 75.6476 536.837 76.7863 533.77 78.6455C530.702 80.5047 528.096 83.0358 526.148 86.0482C523.855 89.2285 522.605 93.0419 522.57 96.9626" fill="#F7846C"/>
<path d="M560.497 81.5984C558.353 79.3758 555.76 77.6359 552.891 76.4947C550.022 75.3535 546.943 74.8372 543.858 74.9804C536.524 75.5148 526.329 80.1674 523.645 89.6476C527.222 87.8602 530.263 89.4695 534.915 88.7418C539.746 88.0263 547.436 84.986 552.266 83.733C552.626 83.733 552.804 83.9111 552.804 84.0893C552.885 86.5093 553.627 88.8608 554.951 90.8885C555.856 92.3196 557.097 93.3944 557.991 94.8134C559.078 96.1434 559.761 97.7569 559.959 99.463C560.198 101.601 560.258 103.755 560.137 105.903C560.137 107.871 559.959 110.018 559.781 111.987C561.928 111.808 564.075 111.449 566.221 111.271C566.578 107.76 566.758 104.233 566.759 100.704C566.399 94.4723 565.146 86.251 560.497 81.5984Z" fill="black"/>
<path d="M567.834 102.349C568.412 101.841 569.104 101.479 569.85 101.292C570.597 101.106 571.378 101.101 572.127 101.277C572.779 101.628 573.285 102.198 573.558 102.886C574.001 103.933 574.23 105.058 574.23 106.195C574.23 107.332 574.001 108.457 573.558 109.504C572.234 113.314 569.473 116.457 565.865 118.26C565.572 118.55 565.208 118.758 564.809 118.863C564.41 118.967 563.99 118.965 563.592 118.856C563.194 118.747 562.832 118.535 562.542 118.242C562.252 117.949 562.045 117.584 561.94 117.185C561.403 115.498 561.403 113.685 561.94 111.998C562.634 108.16 564.735 104.718 567.834 102.349Z" fill="#F7846C"/>
<path d="M564.432 115.05C564.462 112.796 565.029 110.581 566.087 108.589C567.145 106.598 568.663 104.888 570.515 103.602C568.861 105.91 567.54 108.44 566.59 111.116C567.697 110.381 569.029 110.06 570.349 110.211C568.254 111.659 566.279 113.275 564.444 115.041" fill="#DD4040"/>
<path d="M537.418 106.108C536.744 104.498 535.476 103.21 533.877 102.51C532.279 101.81 530.472 101.753 528.832 102.349C528.208 102.516 527.625 102.811 527.12 103.213C526.615 103.616 526.199 104.118 525.897 104.689C525.595 105.26 525.414 105.887 525.365 106.531C525.316 107.175 525.401 107.823 525.613 108.433C529.687 108.755 533.771 107.951 537.418 106.108ZM556.026 102.349C555.35 100.74 554.081 99.4521 552.482 98.7528C550.883 98.0536 549.076 97.9964 547.436 98.593C546.812 98.7604 546.23 99.0547 545.725 99.4574C545.22 99.8601 544.803 100.363 544.501 100.934C544.199 101.504 544.018 102.132 543.969 102.776C543.92 103.42 544.005 104.067 544.218 104.677C548.293 104.999 552.378 104.194 556.026 102.349Z" fill="white"/>
<path d="M532.588 105.037C531.812 104.281 530.903 103.675 529.907 103.25L528.295 102.713C527.216 103.176 526.337 104.007 525.813 105.057C525.289 106.107 525.154 107.309 525.432 108.449C528.586 108.663 531.75 108.237 534.735 107.196C534.065 106.432 533.348 105.711 532.588 105.037ZM551.195 101.632C549.723 100.554 548.094 99.71 546.364 99.1289C545.458 99.6993 544.759 100.547 544.372 101.546C543.985 102.545 543.931 103.643 544.218 104.675C547.371 104.876 550.532 104.45 553.52 103.422C552.672 102.927 551.891 102.325 551.195 101.632Z" fill="black"/>
<path d="M540.462 113.084C539.556 108.972 538.493 105.213 537.597 101.098C537.756 105.584 536.9 110.049 535.094 114.159C536.919 114.009 538.72 113.648 540.462 113.084Z" fill="#DD4040"/>
<path d="M534.018 98.2348C532.01 98.0805 529.995 98.4244 528.151 99.236C526.308 100.048 524.694 101.302 523.451 102.887C523.396 101.714 523.573 100.541 523.972 99.4357C524.371 98.3306 524.984 97.3151 525.776 96.4475C527.472 94.6717 529.767 93.5884 532.216 93.4071C533.182 94.8552 533.799 96.5078 534.018 98.2348ZM554.591 95.0164C552.544 94.5135 550.441 94.2731 548.332 94.3008C546.182 94.3441 544.081 94.9611 542.249 96.0882C541.504 94.5934 541.19 92.9206 541.343 91.2575C543.677 90.5166 546.177 90.4779 548.532 91.1462C550.887 91.8145 552.994 93.1603 554.591 95.0164ZM536.165 124.363L535.987 122.576C537.983 122.392 539.959 122.032 541.893 121.501C543.703 121.176 545.453 120.573 547.079 119.713C548.608 118.885 549.808 117.558 550.479 115.954L552.088 116.492C551.286 118.466 549.834 120.107 547.973 121.144C546.196 122.143 544.252 122.81 542.237 123.113C540.274 123.785 538.234 124.205 536.165 124.363Z" fill="black"/>
<path d="M524.182 224.36C516.489 207.184 508.618 190.011 500.744 172.838C476.952 169.617 452.621 170.87 429.008 167.102C438.31 184.453 447.078 201.27 456.199 218.802C479.349 223.566 502.77 226.911 526.328 228.82L549.763 232.038V227.029L524.182 224.36Z" fill="white"/>
<path d="M470.332 197.525C470.488 198.68 470.888 199.789 471.505 200.778C472.122 201.767 472.943 202.614 473.912 203.262C474.761 203.828 475.754 204.142 476.774 204.167C477.686 204.036 478.54 203.646 479.236 203.044C479.932 202.441 480.44 201.651 480.699 200.768C481.605 197.549 479.794 190.75 475.691 190.034C471.763 189.295 469.975 194.304 470.332 197.525Z" fill="black"/>
<path d="M480.171 314.874C476.435 312.323 471.992 311.009 467.469 311.118V308.972C472.418 308.984 477.26 310.411 481.424 313.087L480.171 314.874ZM478.921 318.458C474.55 315.885 469.478 314.758 464.429 315.237L464.251 313.09C469.748 312.538 475.275 313.794 479.993 316.668L478.921 318.458ZM417.381 307.006C415.587 304.44 413.191 302.352 410.404 300.926L411.309 298.957C414.468 300.518 417.177 302.858 419.18 305.756L417.381 307.006ZM411.657 309.512C409.667 307.011 407.242 304.889 404.498 303.25L405.573 301.46C408.568 303.186 411.184 305.499 413.266 308.259L411.657 309.512Z" fill="white"/>
<path d="M335.566 329.278C322.96 290.673 318.429 250.097 325.925 210.305C319.143 210.803 312.325 210.406 305.647 209.125C305.482 250.247 299.311 291.124 287.33 330.462C295.254 333.927 303.939 335.284 312.542 334.401C320.352 333.374 328.056 331.66 335.566 329.278Z" fill="#FDB849"/>
<path d="M310.551 320.808C308.55 310.618 307.429 300.275 307.2 289.893C307.131 279.282 307.855 268.681 309.368 258.179C310.155 252.86 310.943 247.541 311.927 242.222C312.715 237.901 313.702 233.556 314.095 229.224C314.526 227.788 314.492 226.252 313.997 224.837C313.502 223.422 312.571 222.2 311.339 221.346C309.435 220.37 307.362 219.767 305.232 219.57C304.155 257.178 298.061 294.474 287.111 330.469C295.035 333.934 303.72 335.291 312.323 334.408C312.668 334.463 313.022 334.393 313.32 334.209C312.278 329.767 311.354 325.299 310.551 320.808Z" fill="#FFD340"/>
<path d="M328.08 258.963C325.167 266.548 324.087 274.714 324.929 282.795C325.717 289.297 327.688 296.192 325.926 302.495C325.138 303.283 323.562 302.887 322.578 302.299C319.169 300.13 316.599 296.864 315.292 293.041C314.644 289.88 313.721 286.782 312.532 283.782C310.957 280.631 307.805 277.872 308.593 274.524C309.118 273.129 309.923 271.855 310.957 270.781C314.144 266.912 316.315 262.308 317.273 257.387C319.077 256.82 320.985 256.667 322.857 256.94C324.728 257.213 326.513 257.904 328.08 258.963Z" fill="black"/>
<path d="M336.354 269.992C333.44 277.577 332.36 285.744 333.202 293.827C333.99 300.326 335.958 307.22 334.199 313.523C333.412 314.311 331.836 313.915 330.852 313.327C327.441 311.159 324.869 307.894 323.562 304.069C322.917 300.908 321.995 297.81 320.806 294.811C319.23 291.659 316.079 288.9 316.867 285.553C317.389 284.156 318.193 282.881 319.23 281.809C322.418 277.94 324.589 273.337 325.546 268.416C327.361 267.939 329.254 267.832 331.11 268.103C332.967 268.374 334.751 269.016 336.354 269.992Z" fill="black"/>
<path d="M282.972 182.34C277.065 182.928 271.154 187.263 271.154 193.174C271.348 196.644 272.901 199.898 275.476 202.232C281.579 208.339 290.641 210.31 299.308 211.294C311.599 212.804 324.02 212.936 336.34 211.687C345.981 210.689 356.233 208.535 363.128 201.641C365.232 199.782 366.682 197.296 367.263 194.55C368.26 188.234 362.144 182.536 355.841 181.552C349.383 181.127 342.927 182.417 337.128 185.292C327.674 188.839 317.429 192.186 307.386 190.61C298.337 189.43 293.208 181.552 282.972 182.34Z" fill="#D70A32"/>
<path d="M338.125 274.126C346.792 250.886 353.291 229.61 360.973 206.171C363.097 200.915 364.168 195.294 364.125 189.626C363.267 183.58 360.82 177.871 357.034 173.081C352.788 166.809 347.975 160.94 342.656 155.548C332.047 153.253 321.133 152.72 310.351 153.973C308.888 157.75 308.323 161.816 308.699 165.849C309.075 169.883 310.382 173.774 312.518 177.216C317.065 183.602 323.258 188.635 330.439 191.78C333.918 193.111 337.17 194.971 340.08 197.295C333.578 220.538 324.319 271.161 324.911 271.161C327.291 276.097 333.002 276.882 338.125 274.126Z" fill="#643CFF"/>
<path d="M310.161 157.125C323.622 165.17 336.522 174.121 348.77 183.915C350.653 185.371 352.311 187.096 353.693 189.035C354.407 191.191 354.687 193.468 354.516 195.733C354.345 197.999 353.726 200.208 352.695 202.232C345.997 221.141 341.466 233.75 330.832 258.962C328.295 260.652 325.193 261.27 322.203 260.679C319.213 260.089 316.578 258.338 314.875 255.81C319.01 237.689 322.953 218.977 326.301 200.657C318.556 200.733 310.847 199.603 303.449 197.309C296.95 195.338 290.255 192.186 286.708 186.279C284.281 181.76 283.383 176.577 284.148 171.506C284.922 166.495 286.311 161.599 288.284 156.929C296.169 155.945 303.064 152.99 310.161 157.125Z" fill="#9778FF"/>
<path d="M260.716 154.168C252.638 154.76 232.941 152.792 227.031 154.368C226.639 154.564 227.23 157.519 227.23 157.912C227.331 160.071 228.246 162.113 229.79 163.626C232.004 164.999 234.491 165.873 237.077 166.186C243.127 167.263 249.253 167.855 255.397 167.958C266.623 168.549 277.853 168.549 289.079 168.549C313.702 168.549 338.126 168.549 362.749 167.552C371.415 167.157 380.082 166.555 388.748 165.976C395.643 165.581 402.537 165.385 409.232 164.401C414.355 163.613 419.87 162.037 420.867 156.126C421.096 154.75 421.029 153.34 420.671 151.991C413.58 150.415 401.959 154.155 395.074 153.763C372.027 152.383 348.983 152.766 325.929 152.975C304.843 152.988 282.184 152.397 260.716 154.168Z" fill="#FDB849"/>
<path d="M260.717 146.292C252.772 146.884 244.874 148.004 237.078 149.643C232.154 150.64 223.092 152.991 229.199 156.538C235.515 160.081 246.928 159.885 255.398 160.277C266.624 160.869 277.854 160.869 289.08 160.869C324.733 160.673 361.37 160.869 396.627 157.718C401.75 157.325 428.341 155.746 418.9 150.231C413.974 147.279 402.156 146.688 395.261 146.292C372.217 144.916 349.17 145.295 326.116 145.504C304.843 145.308 282.185 144.52 260.717 146.292Z" fill="#FFD340"/>
<path d="M317.837 80.5033C304.922 85.9454 290.427 86.3017 277.26 81.5006C274.389 80.5198 271.619 79.2664 268.986 77.7575C273.913 77.1691 275.489 74.4099 277.653 71.2585C283.577 62.244 287.101 51.8654 287.888 41.1071C288.477 33.0324 287.297 24.562 290.448 17.079C292.712 11.4753 296.903 6.86446 302.266 4.07772C310.932 -0.649429 324.918 -1.63342 333.584 3.08044C334.935 3.75875 336.136 4.70059 337.117 5.85045C338.098 7.00031 338.838 8.33491 339.295 9.77557C340.182 9.57856 341.106 9.62063 341.971 9.89748C342.837 10.1743 343.614 10.676 344.222 11.3513C345.438 12.7337 346.374 14.3391 346.978 16.0784C348.851 22.1304 349.65 28.4633 349.341 34.7909C349.483 50.9429 346.124 66.9339 339.495 81.6635C331.822 78.532 324.928 77.3519 317.837 80.5033Z" fill="black"/>
<path d="M345.399 80.8949C342.692 80.4096 340.048 79.6166 337.521 78.5313C335.073 77.6555 332.852 76.2425 331.022 74.3959C327.674 70.2605 327.87 64.1538 328.067 59.2305C322.28 61.0956 316.123 61.501 310.142 60.4106C310.338 67.7008 310.537 74.5921 303.443 78.7308C299.62 80.7596 295.365 81.8403 291.037 81.8822C296.498 87.7497 303.931 91.3965 311.914 92.1244C317.966 92.6316 324.058 91.8972 329.816 89.9662C335.574 88.0352 340.877 84.9483 345.399 80.8949Z" fill="#C54016"/>
<path d="M316.065 84.6405C314.208 84.4223 312.366 84.0893 310.55 83.6432C307.003 82.6459 303.456 81.6719 300.109 80.4917C298.295 81.0436 296.454 81.504 294.594 81.8713C298.407 83.4381 302.365 84.6251 306.412 85.415C309.584 86.2593 312.803 86.9176 316.052 87.3863L316.065 84.6405ZM337.534 78.7332C337.338 78.7332 337.338 78.5337 337.534 78.7332C337.059 78.8933 336.598 79.0901 336.154 79.3216C334.5 80.1616 332.789 80.8858 331.035 81.489C327.942 82.6535 324.786 83.6402 321.58 84.4443C321.616 85.052 321.749 85.6501 321.973 86.2162C322.019 86.5522 322.084 86.8852 322.169 87.2135C323.846 86.8053 325.493 86.2788 327.095 85.6377C329.459 84.8499 331.823 84.2582 334.186 83.2742C336.746 82.2769 339.306 81.1067 341.869 79.9233C340.394 79.6435 338.944 79.2455 337.534 78.7332Z" fill="#962727"/>
<path d="M310.162 62.7751C311.381 64.4237 312.767 65.942 314.297 67.3061C314.967 67.8927 315.749 68.3353 316.597 68.6064C317.444 68.8774 318.339 68.9712 319.224 68.8818C321.299 68.3701 323.244 67.4316 324.935 66.126C326.119 65.3381 327.103 64.5503 328.087 63.7591C328.055 62.3158 328.12 60.872 328.283 59.4375C322.497 61.3026 316.339 61.708 310.358 60.6176C310.188 61.3233 310.121 62.0502 310.162 62.7751Z" fill="black"/>
<path d="M351.914 32.6388C351.134 31.9254 350.115 31.5298 349.057 31.5298C348 31.5298 346.981 31.9254 346.2 32.6388C344.738 34.2096 343.66 36.0971 343.049 38.1538C344.376 31.8457 343.899 25.2914 341.672 19.2419C341.097 17.47 340.231 15.8062 339.109 14.3186C337.5 12.2098 335.405 10.5208 333.003 9.3953C328.732 6.78655 323.825 5.40625 318.821 5.40625C313.817 5.40625 308.91 6.78655 304.64 9.3953C302.319 10.6511 300.248 12.3195 298.526 14.3186C297.443 15.8292 296.581 17.4871 295.967 19.2419C293.799 25.3486 293.011 47.6081 295.571 47.412C296.184 51.8242 298.349 55.8737 301.678 58.8343C304.544 60.8585 307.655 62.5127 310.936 63.7575C313.34 64.919 315.952 65.5892 318.618 65.7289C321.277 65.5406 323.88 64.8727 326.301 63.7575C329.654 62.677 332.788 61.01 335.559 58.8343C337.278 57.4253 338.702 55.6912 339.75 53.7312C340.798 51.7712 341.449 49.6239 341.666 47.412C342.922 47.5274 344.187 47.3367 345.353 46.8562C346.519 46.3756 347.551 45.6196 348.361 44.6528C350.049 42.755 351.204 40.4437 351.708 37.9543C352.312 37.2093 352.658 36.2889 352.695 35.3308C352.732 34.3727 352.459 33.4283 351.914 32.6388Z" fill="#C54016"/>
<path d="M322.564 54.1082C322.137 54.504 321.571 54.7164 320.988 54.6999C320.019 54.9268 319.029 55.0581 318.033 55.0922C317.053 55.1359 316.086 54.8594 315.277 54.3043C317.62 53.447 320.179 53.3782 322.564 54.1082ZM342.852 43.866C344.534 43.0718 346.328 42.5403 348.171 42.2903C347.47 41.7425 346.666 41.3402 345.808 41.1069C347.093 39.3355 348.539 37.6873 350.129 36.1836C347.274 36.9687 344.772 38.7057 343.039 41.1069" fill="#962727"/>
<path d="M326.9 58.0495C326.514 58.4378 326.052 58.743 325.544 58.9466C325.036 59.1501 324.491 59.2475 323.944 59.2329C321.777 59.2329 319.413 59.4291 317.246 59.4291C315.108 59.7673 312.919 59.4941 310.93 58.6412C313.689 59.2329 316.248 56.6699 319.004 56.8693C321.172 56.8693 323.931 59.0335 326.886 58.0495H326.9ZM337.73 46.0354C335.661 47.6895 333.092 48.592 330.443 48.5952C327.92 48.5555 325.486 47.6521 323.549 46.0354C325.524 46.7016 327.641 46.8338 329.684 46.4188C331.727 46.0037 333.625 45.0561 335.184 43.6719C335.394 44.2376 335.733 44.7462 336.176 45.1567C336.618 45.5672 337.15 45.8682 337.73 46.0354ZM301.881 46.0354C303.951 47.689 306.521 48.5914 309.171 48.5952C311.694 48.5555 314.128 47.6521 316.066 46.0354C314.09 46.7016 311.973 46.8338 309.93 46.4188C307.887 46.0037 305.99 45.0561 304.431 43.6719C304.22 44.238 303.88 44.7468 303.437 45.1573C302.994 45.5679 302.461 45.8686 301.881 46.0354Z" fill="black"/>
<path d="M291.246 67.3036C293.839 66.3779 295.962 64.4665 297.153 61.9847C298.439 58.459 298.845 54.6729 298.337 50.9547C298.104 48.9162 298.508 46.8555 299.495 45.0564C300.481 43.2573 302.001 41.8082 303.845 40.9087C307.392 39.333 311.331 40.317 314.875 39.1368C317.573 38.014 319.803 35.9976 321.191 33.4257C322.46 31.1895 323.453 28.8074 324.147 26.3316C324.593 23.7866 325.253 21.2835 326.118 18.8486C327.89 14.9094 332.221 13.3336 335.373 17.0768C334.937 19.3577 334.604 21.6571 334.376 23.9681C333.673 28.2952 334.436 32.7329 336.543 36.5771C337.238 37.8371 338.353 38.8126 339.694 39.333C340.346 39.6533 341.086 39.7497 341.798 39.6073C342.51 39.4648 343.155 39.0915 343.634 38.5451C345.139 32.346 345.274 25.8931 344.029 19.6365C341.966 13.1811 337.433 7.80364 331.42 4.67716C327.875 2.64851 323.869 1.56343 319.785 1.52572C317.593 1.49574 315.407 1.76074 313.286 2.31358C309.319 3.09919 305.561 4.70971 302.256 7.04074C298.887 9.389 296.283 12.6771 294.77 16.495C293.449 20.7623 292.915 25.2342 293.194 29.6925C293.194 38.1628 293.194 46.6464 292.998 55.1001C293.204 59.2427 292.609 63.3861 291.246 67.3036Z" fill="black"/>
<path d="M339.505 36.5797C337.147 35.9954 334.696 35.8859 332.295 36.2574C329.894 36.6289 327.591 37.4741 325.52 38.7438C325.348 37.418 325.482 36.0704 325.912 34.8045C328.072 33.5607 330.511 32.8837 333.003 32.8365C334.211 32.8235 335.412 33.0238 336.55 33.4283C337.242 33.7068 337.865 34.1331 338.376 34.6774C338.886 35.2217 339.272 35.871 339.505 36.5797Z" fill="black"/>
<path d="M342.461 46.0346C341.843 46.8234 341.494 47.789 341.463 48.7904C341.267 49.7658 341.267 50.7704 341.463 51.7457C341.561 52.2333 341.804 52.6799 342.16 53.027C342.517 53.374 342.969 53.6053 343.459 53.6905C343.949 53.7757 344.454 53.7108 344.906 53.5043C345.358 53.2979 345.738 52.9595 345.995 52.5336C348.172 49.5783 345.612 42.0953 342.461 46.0346Z" fill="#FFD340"/>
<path d="M337.533 133.488C341.855 125.806 346.2 117.927 350.338 109.853C353.58 104.144 355.906 97.9621 357.23 91.5323C357.691 89.5015 357.555 87.3806 356.837 85.4255C355.066 81.4863 350.338 80.1067 346.2 79.1094C333.594 87.9753 317.049 92.1107 302.276 87.5797C297.981 86.574 294.118 84.228 291.246 80.8812C288.853 81.0311 286.535 81.7765 284.503 83.0496C282.471 84.3228 280.789 86.0833 279.611 88.1714C278.424 91.3186 278.217 94.7514 279.019 98.018C280.063 102.191 281.589 106.228 283.567 110.049C286.929 117.105 290.609 124.006 294.597 130.729C308.101 136.824 323.36 137.804 337.533 133.488Z" fill="#008C6E"/>
<path d="M350.14 150.821C356.642 133.488 362.55 115.367 368.065 97.835C335.048 93.8932 301.646 94.4893 268.791 99.6068C274.46 117.101 281.103 134.264 288.687 151.017C309.959 150.821 328.868 152.397 350.14 150.821Z" fill="#D70A32"/>
<path d="M350.139 155.156V150.835C317.245 150.443 321.38 150.639 288.686 151.031L289.078 155.17L350.139 155.156Z" fill="#FF465A"/>
<path d="M312.321 122.459C311.517 124.11 311.172 125.947 311.324 127.778C311.371 129.312 311.887 130.794 312.802 132.026C313.718 133.258 314.988 134.181 316.443 134.669C318.068 135.049 319.767 134.955 321.339 134.396C322.911 133.837 324.289 132.838 325.309 131.517C328.657 127.578 327.277 122.263 323.338 118.716C319.412 115.368 313.897 119.108 312.321 122.459Z" fill="#FFD340"/>
<path d="M400.762 127.778C398.648 125.861 395.93 124.746 393.079 124.626H391.703C391.899 122.851 391.899 121.079 392.095 119.108C383.824 118.912 374.762 119.307 366.498 119.503C366.89 130.017 368.076 140.486 370.045 150.822C376.94 151.018 382.847 150.034 389.938 150.034C390.137 148.458 390.137 146.882 390.333 145.111H390.725C392.743 144.844 394.687 144.174 396.44 143.139C398.399 142.172 400.057 140.689 401.237 138.85C402.417 137.011 403.073 134.885 403.135 132.701C403.14 131.754 402.929 130.818 402.517 129.965C402.106 129.112 401.506 128.364 400.762 127.778ZM393.867 138.02C392.93 138.404 391.928 138.605 390.915 138.611C391.111 136.245 391.307 133.881 391.307 131.321C392.576 131.47 393.829 131.733 395.05 132.109C398.006 133.685 396.034 137.032 393.867 138.02Z" fill="#FF465A"/>
<path d="M265 163.848H272.305V333.078H265V163.848ZM381.696 160H389V329.23H381.696V160ZM290.866 165.77H298.17V335H290.866V165.77Z" fill="#FDB849"/>
<path d="M379.687 114.991C376.931 110.856 379.886 105.351 382.838 101.402C385.79 97.4525 388.749 91.9474 385.989 87.8087C384.29 85.7898 381.916 84.4553 379.308 84.0522C374.081 82.8413 369.09 80.7782 364.534 77.9455C362.288 76.523 360.453 74.5387 359.209 72.1891C357.966 69.8394 357.357 67.2057 357.444 64.5486C357.969 62.1031 358.993 59.7919 360.45 57.7588C361.907 55.7257 363.767 54.0142 365.914 52.7307C370.211 50.2095 374.181 47.1669 377.732 43.672C380.883 39.9288 382.655 34.0315 379.899 29.8828C384.427 31.2624 386.003 36.5813 386.215 41.109C385.871 45.8151 386.337 50.5455 387.592 55.0943C389.955 60.8087 396.062 63.9602 400.593 67.8995C406.504 73.0189 410.639 81.8848 407.092 88.9755C404.602 93.0818 400.779 96.21 396.261 97.8381C391.784 99.4494 387.538 101.64 383.629 104.354C380.082 107.292 378.111 110.444 379.687 114.991Z" fill="#FFD340"/>
</g>
<defs>
<filter id="filter0_d" x="0" y="0" width="690.867" height="344.03" filterUnits="userSpaceOnUse" color-interpolation-filters="sRGB">
<feFlood flood-opacity="0" result="BackgroundImageFix"/>
<feColorMatrix in="SourceAlpha" type="matrix" values="0 0 0 0 0 0 0 0 0 0 0 0 0 0 0 0 0 0 127 0" result="hardAlpha"/>
<feOffset dy="4"/>
<feGaussianBlur stdDeviation="2"/>
<feComposite in2="hardAlpha" operator="out"/>
<feColorMatrix type="matrix" values="0 0 0 0 0 0 0 0 0 0 0 0 0 0 0 0 0 0 0.25 0"/>
<feBlend mode="normal" in2="BackgroundImageFix" result="effect1_dropShadow"/>
<feBlend mode="normal" in="SourceGraphic" in2="effect1_dropShadow" result="shape"/>
</filter>
</defs>
</svg>
