<svg width="818" height="410" viewBox="0 0 818 410" fill="none" xmlns="http://www.w3.org/2000/svg">
<path opacity="0.2" d="M177.028 470.621C134.392 464.397 94.3694 446.586 61.4659 419.192C19.0818 383.726 -18.9106 325.874 10.2812 239.894C65.5476 77.0154 316.528 50.0215 430.85 87.5554C612.476 147.305 695.711 389.063 446.074 467.385C384.022 486.855 244.573 480.653 177.028 470.621Z" fill="white"/>
<path opacity="0.2" d="M685.602 93.2851C653.047 63.0908 597.602 58.236 569.157 93.1667C554.78 110.827 553.903 136.2 558.838 150.088C574.316 193.341 648.713 260.648 703.298 212.016C738.657 180.536 721.459 126.575 685.602 93.2851Z" fill="white"/>
<path d="M264.762 188.951L266.471 191.455L268.315 194.048L271.98 199.279C274.468 202.751 276.987 206.208 279.535 209.651C282.076 213.086 284.662 216.477 287.248 219.824C289.834 223.17 292.464 226.473 295.14 229.686C297.816 232.9 300.492 236.069 303.213 239.083C305.933 242.098 308.677 245.001 311.397 247.638C313.812 250.033 316.397 252.255 319.132 254.287C320.257 255.085 321.381 255.661 321.628 255.883C321.876 256.104 321.763 255.883 321.741 255.883H320.864C320.504 255.861 320.144 255.861 319.785 255.883C319.132 255.906 318.484 255.995 317.851 256.149C317.403 256.255 316.966 256.404 316.547 256.592C316.319 256.699 316.101 256.825 315.895 256.969C315.647 257.168 315.715 257.19 315.895 257.102C316.738 256.557 317.496 255.892 318.143 255.129C319.227 253.955 320.241 252.719 321.179 251.428C322.236 250.032 323.27 248.503 324.304 246.885C326.373 243.671 328.352 240.236 330.263 236.557C332.174 232.878 334.018 229.177 335.794 225.475C339.347 217.829 342.698 209.961 345.891 201.916C347.51 197.927 349.061 193.893 350.568 189.86L352.816 183.765L353.918 180.751L354.975 177.781L355.087 177.493C356.083 174.453 358.234 171.91 361.089 170.398C363.944 168.886 367.281 168.522 370.403 169.381C373.525 170.241 376.188 172.257 377.834 175.009C379.481 177.76 379.984 181.033 379.237 184.142L378.54 187.555L377.843 190.879C377.348 193.095 376.831 195.312 376.314 197.528C375.279 201.961 374.2 206.393 373.031 210.826C370.782 219.58 368.129 228.334 365.138 237.089C363.632 241.521 362.035 245.954 360.259 250.276C358.483 254.597 356.526 259.141 354.255 263.573C353.108 265.79 351.894 268.006 350.5 270.377C349.043 272.818 347.451 275.178 345.733 277.447C343.661 280.175 341.31 282.685 338.718 284.938C337.01 286.393 335.165 287.684 333.209 288.795C332.017 289.473 330.777 290.066 329.498 290.568C328.039 291.142 326.535 291.602 325.001 291.942C323.277 292.297 321.523 292.49 319.762 292.518C318.839 292.548 317.914 292.511 316.996 292.407H316.299H315.782L314.793 292.274C313.489 292.053 312.319 291.787 311.195 291.499C310.071 291.21 309.081 290.856 308.137 290.523C304.871 289.309 301.731 287.788 298.76 285.98C296.13 284.406 293.814 282.811 291.61 281.193C289.406 279.575 287.383 277.957 285.426 276.295C281.536 273.015 277.939 269.646 274.521 266.277C271.103 262.908 267.775 259.495 264.627 256.038C258.263 249.145 252.282 242.098 246.481 234.961C243.603 231.371 240.792 227.758 238.004 224.123C236.61 222.306 235.216 220.467 233.844 218.627L231.798 215.835L229.684 212.909C226.615 208.381 225.46 202.85 226.465 197.495C227.47 192.14 230.557 187.384 235.067 184.238C239.577 181.092 245.155 179.806 250.613 180.653C256.071 181.5 260.978 184.414 264.29 188.774L264.47 189.04L264.762 188.951Z" fill="#C1725C"/>
<path d="M317.38 254.043C314.902 257.382 313.352 261.301 312.882 265.412C312.748 266.476 314.434 266.454 314.569 265.412C315.065 261.581 316.569 257.945 318.931 254.863C319.583 254.021 318.099 253.178 317.469 254.043H317.38Z" fill="#7D351D"/>
<path d="M315.289 256.792L309.375 259.34C308.386 259.761 309.24 261.202 310.23 260.781L316.143 258.232C317.133 257.811 316.278 256.371 315.289 256.792Z" fill="#7D351D"/>
<path d="M387.917 167.298C387.917 167.298 385.174 185.781 376.112 189.904C368.49 193.361 354.144 181.947 354.144 181.947C348.387 176.185 347.285 172.617 345.149 165.658C343.013 158.698 353.739 150.587 353.739 150.587C353.739 150.587 360.979 122.551 365.319 120.179C369.659 117.808 365.904 144.824 365.904 144.824C366.467 144.282 367.159 143.887 367.917 143.674C368.675 143.461 369.474 143.438 370.243 143.605C376.692 145.509 382.62 148.827 387.58 153.313C391.358 157.103 387.917 167.298 387.917 167.298Z" fill="#C1725C"/>
<path d="M349.489 168.605C354.728 166.101 361.586 163.419 364.892 158.41C366.129 156.504 366.961 153.557 365.027 151.761C363.093 149.966 360.53 150.653 358.483 150.72C358.283 150.752 358.101 150.853 357.97 151.006C357.839 151.158 357.767 151.351 357.767 151.551C357.767 151.751 357.839 151.944 357.97 152.096C358.101 152.248 358.283 152.35 358.483 152.382C360.237 152.382 363.475 151.739 364.397 153.756C365.072 155.285 363.588 157.479 362.598 158.588C361.717 159.501 360.746 160.325 359.698 161.048C356.211 163.397 352.516 165.429 348.657 167.12C347.668 167.608 348.522 169.026 349.489 168.561V168.605Z" fill="#7D351D"/>
<path d="M364.799 156.748C370.99 161.636 378.369 164.845 386.206 166.056C387.262 166.234 387.735 164.638 386.655 164.461C379.103 163.325 371.981 160.269 365.991 155.595C365.159 154.953 363.967 156.105 364.799 156.77V156.748Z" fill="#7D351D"/>
<path d="M370.713 164.638C368.69 167.22 367.366 170.268 366.866 173.494C366.367 176.719 366.708 180.017 367.858 183.077C368.217 184.097 369.859 183.654 369.499 182.656C368.412 179.808 368.087 176.731 368.556 173.723C369.024 170.715 370.271 167.876 372.175 165.48C372.827 164.616 371.365 163.796 370.713 164.638Z" fill="#7D351D"/>
<path d="M369.546 158.144C370.365 153.81 372.021 149.672 374.425 145.954C375.055 145.09 373.593 144.27 372.964 145.112C370.496 148.961 368.78 153.23 367.904 157.7C367.867 157.907 367.909 158.121 368.023 158.298C368.137 158.476 368.314 158.606 368.52 158.661C368.725 158.717 368.945 158.694 369.134 158.599C369.324 158.503 369.471 158.341 369.546 158.144Z" fill="#7D351D"/>
<path d="M375.842 162.201C376.789 157.796 378.428 153.564 380.699 149.656C381.238 148.726 379.777 147.883 379.259 148.814C376.899 152.842 375.192 157.21 374.2 161.757C373.998 162.799 375.617 163.264 375.842 162.201Z" fill="#7D351D"/>
<path d="M382.025 163.309L381.89 163.708L383.531 164.151C384.026 160.587 385.375 157.191 387.466 154.244C388.096 153.38 386.634 152.538 386.027 153.402C383.846 156.469 382.429 160 381.89 163.708C381.852 163.915 381.895 164.128 382.008 164.306C382.122 164.483 382.299 164.613 382.505 164.668C382.711 164.724 382.93 164.702 383.12 164.606C383.31 164.51 383.457 164.348 383.531 164.151L383.666 163.752C384.004 162.755 382.385 162.311 382.025 163.309Z" fill="#7D351D"/>
<path d="M364.711 145.489C363.845 147.607 363.358 149.857 363.272 152.138C363.305 152.335 363.408 152.515 363.562 152.644C363.716 152.773 363.913 152.844 364.115 152.844C364.318 152.844 364.514 152.773 364.668 152.644C364.823 152.515 364.926 152.335 364.958 152.138C365.053 150 365.516 147.894 366.33 145.91C366.712 144.913 365.093 144.47 364.711 145.467V145.489Z" fill="#7D351D"/>
<path d="M173.92 327.712C173.92 327.712 132.973 345.442 125.261 398.811C117.548 452.179 99.7843 472.126 111.769 497.125C123.754 522.125 207.649 492.959 277.714 493.956C347.78 494.953 332.197 442.582 318.976 421.217C305.754 399.852 291.858 337.951 270.339 336.223C248.82 334.494 173.92 327.712 173.92 327.712Z" fill="#D03F23"/>
<path d="M159.37 347.171C148.936 352.136 142.595 362.198 139.537 372.925C135.58 386.865 137.558 401.492 138.593 415.699C140.105 431.615 138.142 447.666 132.836 462.773C129.396 472.037 122.066 487.617 135.804 492.493C142.145 494.71 148.734 492.493 154.715 490.277C161.879 487.544 169.218 485.278 176.684 483.495C192.42 479.819 208.61 478.394 224.758 479.262C251.741 480.681 286.369 487.64 307.259 465.477C316.253 455.925 320.48 442.117 315.129 429.772C309.777 417.428 297.612 408.74 294.712 395.243C294.487 394.201 292.868 394.644 293.093 395.686C295.341 406.59 303.773 414.502 309.754 423.545C313.286 428.412 315.408 434.135 315.893 440.1C316.031 446.177 314.425 452.17 311.261 457.387C296.083 483.207 261.365 480.481 235.641 478.376C221.222 476.979 206.691 477.157 192.311 478.908C185.164 479.878 178.088 481.307 171.13 483.185C164.114 485.047 157.436 487.617 150.578 490.011C144.327 492.094 135.445 493.38 131.105 487.063C127.26 481.545 130.161 474.098 132.364 468.513C137.647 455.811 140.506 442.256 140.796 428.531C140.909 412.286 137.019 395.841 139.762 379.662C142.011 367.118 148.104 354.441 160.224 348.634C161.191 348.169 160.224 346.728 159.37 347.193V347.171Z" fill="#750021"/>
<path d="M241.355 428.997C239.601 429.44 237.847 429.839 236.093 430.238C213.607 435.313 189.885 437.374 173.335 433.474C165.173 431.568 159.844 421.705 156.606 410.69C155.521 407.729 154.767 404.66 154.357 401.537C152.334 370.952 159.979 357.965 159.979 357.965L281.852 344.667C281.852 344.667 285.899 352.025 290.396 361.622C293.844 368.892 296.848 376.36 299.391 383.984C300.716 387.854 301.628 391.851 302.111 395.908C303.123 406.723 274.139 420.885 241.355 428.997Z" fill="#6059C9"/>
<path d="M235.912 441.319C233.484 481.921 220.802 555.524 212.572 590.431C212.347 591.295 212.145 592.137 211.965 592.935L210.953 596.991C203.78 624.761 166.656 719.264 146.981 768.665C146.689 769.374 146.419 770.061 146.149 770.748C145.07 773.43 143.518 778.35 142.574 780.721C138.616 780.145 134.434 779.48 130.476 778.926C120.223 777.486 110.869 776.333 100.57 775.336C100.863 773.408 101.2 767.933 101.537 765.739C101.65 765.052 101.762 764.321 101.874 763.523C105.652 739.875 111.431 703.683 116.783 671.237C125.619 617.425 138.886 588.348 138.886 588.348C138.886 588.348 145.362 577.111 148.6 545.241C151.276 518.823 158.898 434.604 160.787 406.39L161.394 397.348C161.394 397.348 223.365 392.583 234.496 413.726C235.373 415.413 235.922 417.248 236.115 419.134C236.583 426.524 236.515 433.938 235.912 441.319Z" fill="#6059C9"/>
<path d="M320.684 786.13C320.684 786.883 320.684 787.615 320.526 788.346L319.627 800.868L316.344 800.513L283.807 797.034L279.602 796.59C279.602 796.59 279.4 792.38 278.995 785.221C278.995 784.512 278.995 783.78 278.86 783.005C277.353 757.451 273.576 701.002 267.325 660.621C259.005 606.743 266.875 575.671 266.875 575.671C266.875 575.671 267.797 560.534 257.881 530.193C254.464 518.619 251.657 506.88 249.471 495.02C248.527 490.255 247.582 485.269 246.638 480.149C243.557 463.615 240.544 445.752 237.958 429.884C237.576 427.512 237.194 425.163 236.812 422.88L236.407 420.309C232.944 398.567 230.583 382.632 230.583 382.632C230.583 382.632 237.171 379.663 246.323 376.693C255.475 373.723 267.842 370.465 278.118 370.576C287.742 370.687 295.769 373.612 298.49 382.056C299.637 385.691 300.874 390.057 302.133 395.044C303.864 402.003 305.686 410.114 307.529 418.957C309.778 429.751 312.027 441.608 314.275 453.775C316.029 463.638 317.738 473.722 319.357 483.562C324.866 517.094 329.206 548.034 330.375 559.824C330.645 562.595 330.825 566.207 330.915 570.485C330.915 571.349 330.915 572.236 330.915 573.167C331.544 621.349 323.584 743.666 320.684 786.13Z" fill="#6059C9"/>
<path d="M169.443 404.906C169.116 404.881 168.792 404.983 168.54 405.19C168.288 405.397 168.128 405.693 168.094 406.014C167.981 407.233 155.637 530.126 150.42 578.175C149.476 580.946 133.825 627.311 129.238 652.155C125.123 674.54 112.217 735.576 106.01 764.41C106.798 764.654 107.607 764.853 108.394 765.075C114.51 736.263 127.439 674.961 131.554 652.598C136.231 627.266 152.556 579.306 152.713 578.818V578.552C157.908 530.592 170.275 407.477 170.387 406.236C170.423 405.939 170.346 405.639 170.172 405.393C169.998 405.148 169.739 404.975 169.443 404.906Z" fill="#2B2B39"/>
<path d="M236.295 422.924C236.073 422.925 235.855 422.865 235.664 422.752C235.474 422.638 235.319 422.476 235.216 422.281C235.065 421.996 235.035 421.663 235.132 421.356C235.229 421.049 235.445 420.792 235.733 420.641C239.807 418.253 243.325 415.044 246.056 411.225C248.788 407.407 250.672 403.063 251.586 398.478C251.597 398.309 251.645 398.144 251.726 397.993C251.806 397.843 251.918 397.711 252.053 397.606C252.188 397.5 252.344 397.424 252.511 397.382C252.678 397.339 252.853 397.332 253.023 397.36C253.193 397.388 253.355 397.45 253.499 397.544C253.643 397.637 253.766 397.759 253.859 397.902C253.952 398.045 254.014 398.206 254.041 398.374C254.068 398.542 254.059 398.713 254.014 398.877C253.088 403.858 251.077 408.582 248.119 412.722C245.161 416.862 241.326 420.32 236.88 422.858C236.693 422.923 236.493 422.946 236.295 422.924Z" fill="#2B2B39"/>
<path d="M281.829 352.268C269.911 355.312 257.781 357.483 245.537 358.762L242.929 359.05C214.89 361.619 186.693 362.064 158.585 360.38C158.832 352.157 158.585 343.736 158.113 335.757C158.113 335.159 158.113 334.582 158.113 333.984C156.696 312.442 153.615 294.667 153.615 294.091C153.436 292.916 153.233 291.675 152.986 290.367C152.986 289.836 152.784 289.259 152.671 288.683C151.952 285.004 151.007 280.926 149.86 276.582C149.276 274.366 148.601 271.839 147.904 269.401C147.207 266.963 146.465 264.503 145.656 261.999C145.656 261.689 145.453 261.378 145.363 261.068C145.273 260.758 145.003 260.004 144.846 259.45C144.351 257.921 143.834 256.392 143.317 254.84C142.8 253.289 142.26 251.738 141.698 250.186C141.383 249.255 141.046 248.347 140.731 247.438C140.661 247.287 140.601 247.131 140.551 246.973C140.281 246.263 140.034 245.554 139.764 244.756C139.202 243.227 138.617 241.72 138.033 240.213L137.381 238.551C136.167 235.492 134.93 232.478 133.626 229.508C124.182 207.811 122.653 183.365 145.386 175.896C147.027 175.342 148.669 174.832 150.243 174.345C153.188 173.436 155.977 172.594 158.54 171.863L160.429 171.331C165.106 170.023 168.838 169.114 171.042 168.538L172.436 168.206H172.796H173.133L220.691 171.996L225.188 172.372L227.684 172.66L229.415 172.86C234.205 173.458 238.275 174.123 241.76 174.877C245.08 175.546 248.326 176.533 251.451 177.824C252.718 178.374 253.937 179.026 255.094 179.775C255.553 180.077 255.996 180.402 256.421 180.75C261.075 184.429 262.604 189.482 264.021 196.818L264.358 198.657C264.785 201.007 265.212 203.578 265.752 206.37C265.752 206.636 265.752 206.902 265.91 207.168C265.899 207.256 265.899 207.346 265.91 207.434C266.044 208.21 266.202 208.963 266.382 209.65C266.562 210.337 266.607 210.736 266.742 211.268C267.056 212.576 267.371 213.883 267.731 215.191C268.428 217.784 269.192 220.355 269.979 222.882L270.227 223.679L270.497 224.499C272.116 229.442 273.87 234.185 275.444 238.661C275.623 239.149 275.781 239.659 275.961 240.146C276.793 242.496 277.557 244.778 278.209 246.928C278.199 247.061 278.199 247.194 278.209 247.327C278.344 247.726 278.457 248.125 278.569 248.502C279.199 250.718 279.738 252.779 280.098 254.73C280.58 257.084 280.731 259.493 280.548 261.888C280.48 262.637 280.345 263.379 280.143 264.104C279.633 265.857 278.986 267.569 278.209 269.224V269.468C277.894 270.133 277.557 270.798 277.22 271.44C276.304 273.146 275.298 274.803 274.207 276.405C272.187 279.369 269.931 282.17 267.461 284.782C266.854 285.447 266.494 285.78 266.494 285.78C266.483 285.831 266.483 285.884 266.494 285.935C266.494 286.334 266.494 286.733 266.629 287.154C266.831 288.794 267.124 290.722 267.484 292.938C267.484 293.116 267.753 294.468 268.158 296.706C268.271 297.238 268.361 297.814 268.495 298.435C268.945 300.828 269.552 303.931 270.317 307.566L270.722 309.427C273.217 320.797 276.905 336.378 281.829 352.268Z" fill="#F0C86A"/>
<path d="M139.56 244.823C139.603 244.686 139.603 244.539 139.56 244.402C136.502 237.509 142.978 231.813 148.937 229.619C155.233 227.527 161.966 227.054 168.499 228.245C180.822 230.129 192.379 235.537 204.297 239.016C227.345 245.665 252.709 248.812 275.734 240.324L276.071 240.213C275.892 239.726 275.734 239.216 275.554 238.728C272.699 239.726 270 240.501 267.729 241.078C255.388 244.072 242.576 244.689 229.998 242.895C217.075 241.021 204.385 237.827 192.132 233.365C180.889 229.464 169.084 224.965 156.852 226.184C149.566 226.915 138.863 231.126 137.244 238.617L139.56 244.823Z" fill="#F8E6BA"/>
<path d="M256.397 180.75C253.901 185.471 250.034 191.233 244.817 192.541C238.768 194.048 233.754 188.374 231.325 183.676C229.531 180.198 228.323 176.455 227.75 172.594L229.482 172.794C229.964 175.703 230.818 178.54 232.023 181.238C234.406 186.49 240.05 193.649 246.548 190.103C250.342 187.54 253.326 183.976 255.16 179.819C255.588 180.109 256.001 180.42 256.397 180.75Z" fill="#F8E6BA"/>
<path d="M264.335 198.658C259.838 199.212 255.341 199.167 251.338 199.345C234.946 200.076 217.992 199.345 202.589 193.139C189.883 188.053 178.882 179.552 170.839 168.605L172.233 168.272H172.593C183.395 182.449 199.116 192.209 216.755 195.688C226.653 197.588 236.744 198.332 246.818 197.904C251.495 197.904 256.173 197.527 260.827 197.173L263.998 196.885L264.335 198.658Z" fill="#F8E6BA"/>
<path d="M266.764 211.335C260.019 212.133 253.273 212.753 246.527 212.953C226.852 213.551 207.155 210.249 190.47 199.455C178.575 191.743 168.659 181.592 158.36 171.929L160.249 171.397C164.387 175.276 168.456 179.221 172.639 183.055C179.065 189.207 186.101 194.709 193.641 199.478C201.741 204.324 210.66 207.695 219.971 209.429C235.329 212.421 250.957 211.645 266.427 209.717C266.517 210.249 266.629 210.803 266.764 211.335Z" fill="#F8E6BA"/>
<path d="M270.539 224.633C267.972 225.645 265.304 226.388 262.579 226.849C253.192 228.113 243.68 228.202 234.27 227.115C224.672 226.256 215.173 224.534 205.893 221.973C188.174 217.053 168.071 208.343 150.375 218.117C149.431 218.626 148.576 217.208 149.521 216.676C157.826 212.462 167.296 211.023 176.504 212.576C185.498 213.773 194.133 216.787 202.812 219.358C212.212 222.17 221.854 224.129 231.616 225.209C240.98 226.357 250.445 226.476 259.836 225.563C263.32 225.183 266.738 224.348 270 223.081L270.247 223.879L270.539 224.633Z" fill="#F8E6BA"/>
<path d="M269.932 271.508C272.752 271.042 275.544 270.428 278.297 269.668C277.982 270.333 277.645 270.998 277.307 271.641L274.474 272.328C268.471 273.635 257.497 276.428 253.855 269.424C250.662 263.307 259.341 256.836 263.591 253.91C268.034 250.817 273.02 248.562 278.297 247.261C278.287 247.394 278.287 247.528 278.297 247.66C278.432 248.059 278.544 248.458 278.657 248.835C274.379 249.922 270.298 251.657 266.559 253.977C262.219 256.681 249.2 266.189 257.565 271.175C261.163 273.103 266.11 272.128 269.932 271.508Z" fill="#F8E6BA"/>
<path d="M236.295 307.699C232.066 314.922 226.7 321.438 220.398 327.003C214.053 332.695 206.628 337.092 198.55 339.941C190.473 342.79 181.903 344.035 173.335 343.603C172.256 343.603 172.256 341.852 173.335 341.94C182.754 342.378 192.155 340.77 200.874 337.231C209.593 333.693 217.417 328.309 223.793 321.462C229.286 315.703 233.885 309.176 237.442 302.092C239.69 297.903 242.614 291.963 238.769 287.819C236.138 284.982 232.023 284.073 228.38 283.142L215.563 279.862C212.166 279.298 208.89 278.175 205.872 276.538C199.891 272.593 203.353 266.343 207.446 262.487C210.661 259.428 214.192 255.838 211.606 251.25C209.02 246.662 203.601 245.665 198.924 245.133C190.027 244.252 181.042 245.219 172.548 247.97C162.864 251.098 153.657 255.512 145.183 261.09C145.003 260.558 144.823 260.027 144.666 259.472C156.471 252.07 169.018 245.953 183.026 243.958C190.874 242.784 201.015 242.163 208.233 245.953C209.701 246.662 210.989 247.688 212.001 248.954C213.013 250.22 213.723 251.694 214.079 253.267C214.257 254.824 214.051 256.4 213.48 257.862C212.908 259.325 211.988 260.629 210.796 261.667C207.761 264.814 201.06 269.889 205.804 274.455C208.773 277.336 214.214 277.89 218.059 278.887C222.736 280.084 227.503 281.103 232.135 282.522C235.327 283.244 238.221 284.906 240.433 287.287C245.424 293.337 239.578 302.202 236.295 307.699Z" fill="#F8E6BA"/>
<path d="M195.034 302.802C193.595 311.556 184.376 318.626 177.743 323.768C171.677 328.479 165.092 332.501 158.113 335.758C158.113 335.159 158.113 334.583 158.113 333.985C165.122 330.662 171.717 326.549 177.765 321.729C183.814 316.897 192.561 310.182 193.505 302.048C194.697 292.03 183.342 287.753 175.157 286.933C167.552 286.226 159.89 287.415 152.873 290.39C152.873 289.858 152.671 289.282 152.559 288.706C153.66 288.263 154.807 287.864 155.886 287.487C164.181 284.674 173.125 284.297 181.633 286.401C189.053 288.418 196.428 294.358 195.034 302.802Z" fill="#F8E6BA"/>
<path d="M244.458 320.931C239.489 328.222 235.239 337.309 236.88 346.329C237.356 348.885 238.372 351.313 239.864 353.456C241.356 355.598 243.289 357.406 245.537 358.763L242.929 359.051C240.024 356.842 237.765 353.913 236.386 350.562C232.765 341.697 236.026 331.768 240.591 323.967C247.22 312.699 256.774 303.374 268.271 296.95C268.383 297.482 268.473 298.058 268.608 298.679C258.953 304.2 250.696 311.808 244.458 320.931Z" fill="#F8E6BA"/>
<path d="M276.903 348.257C266.065 349.055 258.308 339.038 258.915 328.998C259.342 320.288 264.266 313.262 270.652 307.766L271.057 309.628C265.766 313.935 262.158 319.921 260.848 326.56C259.252 336.4 265.863 347.415 277.016 346.507C277.87 346.529 277.87 348.169 276.903 348.257Z" fill="#F8E6BA"/>
<path d="M274.766 326.715C274.766 326.715 289.179 337.575 281.826 354.884C281.826 354.884 203.598 381.236 157.795 363.394C157.795 363.394 153.298 347.88 158.582 335.403C158.582 335.447 229.682 349.72 274.766 326.715Z" fill="#D03F23"/>
<path d="M158.023 340.079C154.601 347.1 153.936 355.121 156.157 362.596C156.217 362.808 156.359 362.987 156.553 363.096C156.747 363.204 156.977 363.231 157.191 363.172C157.406 363.114 157.588 362.973 157.698 362.782C157.807 362.591 157.836 362.365 157.776 362.153C155.663 355.111 156.271 347.547 159.485 340.921C159.957 339.968 158.495 339.126 158.023 340.079Z" fill="#750021"/>
<path d="M201.306 347.836C186.842 347.597 172.426 346.114 158.224 343.403C157.956 343.35 157.72 343.194 157.568 342.97C157.417 342.745 157.361 342.471 157.414 342.206C157.474 341.941 157.636 341.708 157.867 341.559C158.099 341.41 158.38 341.356 158.651 341.409C158.943 341.409 188.714 347.393 211.605 345.376C211.74 345.36 211.876 345.372 212.006 345.41C212.136 345.447 212.257 345.511 212.362 345.595C212.467 345.68 212.554 345.785 212.617 345.903C212.68 346.022 212.718 346.151 212.729 346.284C212.742 346.418 212.727 346.553 212.686 346.682C212.645 346.81 212.579 346.929 212.491 347.032C212.403 347.135 212.296 347.22 212.174 347.282C212.053 347.344 211.921 347.381 211.785 347.393C208.412 347.703 204.949 347.836 201.306 347.836Z" fill="#750021"/>
<path d="M235.283 357.61C235.008 357.631 234.737 357.543 234.528 357.366C234.319 357.19 234.19 356.939 234.169 356.668C234.149 356.398 234.238 356.13 234.417 355.925C234.596 355.719 234.851 355.592 235.125 355.571C250.172 353.019 264.921 348.987 279.152 343.537C279.409 343.434 279.696 343.435 279.951 343.541C280.206 343.647 280.408 343.849 280.513 344.102C280.617 344.355 280.615 344.638 280.508 344.889C280.4 345.141 280.196 345.34 279.939 345.443C265.552 350.942 250.646 355.018 235.44 357.61H235.283Z" fill="#750021"/>
<path d="M241.849 353.798C241.849 353.798 275.69 364.502 293.432 382.299C293.432 382.299 286.686 406.678 268.45 410.645C268.45 410.645 242.591 366.63 233.912 363.749L241.849 353.798Z" fill="#D03F23"/>
<path d="M208.592 355.15C208.592 355.15 179.361 375.096 167.736 397.259C167.736 397.259 181.497 418.669 200.048 417.206C200.048 417.206 211.673 367.65 219.116 362.375L208.592 355.15Z" fill="#D03F23"/>
<path d="M245.538 352.203C245.899 348.198 245.425 344.162 244.143 340.345C242.659 335.913 239.849 331.369 234.632 331.037C224.716 330.439 223.592 338.04 223.592 338.04C223.592 338.04 219.477 329.995 208.908 334.406C198.34 338.816 202.477 368.714 212.798 372.193C223.119 375.673 227.054 367.384 227.054 367.384C227.054 367.384 230.405 373.59 239.084 369.312C243.312 367.229 245.043 357.987 245.538 352.203Z" fill="#D03F23"/>
<path d="M251.427 177.825C253.463 191.492 259.091 204.397 267.752 215.258C267.055 212.687 266.448 210.072 265.931 207.434C265.92 207.346 265.92 207.257 265.931 207.168C265.931 206.902 265.931 206.636 265.773 206.371C262.805 190.901 262.738 182.767 251.427 177.825Z" fill="#C1725C"/>
<path d="M174.346 208.875C173.222 229.576 155.458 252.536 141.517 250.209L140.37 246.996L139.583 244.779C137.672 239.593 135.603 234.451 133.422 229.465C123.978 207.767 122.449 183.322 145.182 175.853C146.824 175.299 148.465 174.789 150.039 174.301C162.721 176.983 175.718 185.05 174.346 208.875Z" fill="#C1725C"/>
<path d="M197.395 292.495C197.496 292.659 197.638 292.794 197.807 292.887C197.977 292.98 198.168 293.028 198.362 293.027C198.55 293.026 198.735 292.98 198.902 292.894C211.216 286.7 225.249 284.645 238.859 287.043C248.033 289.028 257.524 289.134 266.741 287.354C266.741 286.933 266.741 286.511 266.606 286.135V285.979L267.573 284.982C258.264 287.01 248.618 287.01 239.309 284.982C225.165 282.423 210.559 284.583 197.8 291.121C197.578 291.266 197.416 291.484 197.342 291.735C197.268 291.987 197.287 292.256 197.395 292.495Z" fill="#CA9441"/>
<path d="M232.474 230.661C246.415 230.661 249.473 215.834 249.495 215.679C249.522 215.533 249.519 215.384 249.487 215.239C249.455 215.095 249.395 214.958 249.309 214.837C249.224 214.715 249.115 214.612 248.988 214.532C248.862 214.452 248.721 214.397 248.573 214.371C248.426 214.345 248.274 214.348 248.128 214.379C247.981 214.411 247.842 214.47 247.719 214.555C247.596 214.639 247.491 214.746 247.41 214.871C247.329 214.995 247.273 215.134 247.247 215.28C247.247 215.834 244.481 228.577 232.384 228.577C219.657 228.577 191.909 209.451 191.752 209.251C191.508 209.092 191.211 209.031 190.922 209.08C190.634 209.13 190.376 209.286 190.2 209.517C190.034 209.753 189.97 210.043 190.02 210.326C190.071 210.608 190.232 210.859 190.47 211.024C191.729 211.756 219.072 230.661 232.474 230.661Z" fill="#CA9441"/>
<path d="M198.834 54.3335C196.271 57.1925 189.458 63.3316 189.458 63.3316L179.677 69.9805L171.357 76.7401C171.357 76.7401 146.173 89.7497 141.024 85.6053C137.853 83.123 138.303 78.9564 139.135 75.9644C139.422 74.92 139.806 73.9036 140.281 72.9281C139.748 73.1316 139.199 73.2946 138.64 73.4157C136.794 73.9884 134.794 73.8297 133.064 72.9732C131.335 72.1168 130.012 70.6299 129.376 68.828C126.34 61.337 136.122 53.1589 136.122 53.1589C133.894 53.0384 131.732 52.366 129.838 51.2038C127.943 50.0416 126.377 48.4272 125.283 46.51C122.023 40.1271 135.514 29.0457 135.514 29.0457C135.514 29.0457 131.017 28.1148 133.446 20.4021C135.874 12.6895 144.329 14.9279 144.329 14.9279C144.329 14.9279 143.429 0.83234 153.773 0.0344766C164.116 -0.763387 171.424 12.6008 171.424 12.6008C173.963 11.4454 176.755 10.9374 179.545 11.1232C182.334 11.3091 185.032 12.183 187.389 13.6646C195.552 18.7842 190.2 34.1431 190.2 34.1431C190.2 34.1431 198.812 30.3311 204.681 37.4897C208.481 42.1217 203.219 49.5463 198.834 54.3335Z" fill="#2B2B39"/>
<path d="M189.457 63.332C189.457 63.332 176.213 65.9029 171.356 76.6298C172.902 78.4329 175.059 79.622 177.427 79.9764C177.427 79.9764 179.788 72.6848 190.109 68.7398C190.109 68.8284 191.751 65.371 189.457 63.332Z" fill="#D03F23"/>
<path d="M241.578 122.461C241.578 122.461 250.573 120.489 253.024 107.945C257.004 87.5328 243.242 68.6279 217.474 65.2148C183.745 60.7822 178.933 70.9993 172.322 83.8981C165.711 96.7969 167.375 116.079 174.076 126.628C180.777 137.178 193.841 141.256 193.841 141.256L241.578 122.461Z" fill="#2B2B39"/>
<path d="M242.501 117.675C243.858 117.989 245.065 118.752 245.92 119.837C246.776 120.922 247.228 122.263 247.201 123.637C247.696 129 244.458 137.71 239.061 136.314C233.664 134.918 242.501 117.675 242.501 117.675Z" fill="#7D351D"/>
<path d="M235.935 137.444C235.779 138.387 235.91 139.353 236.311 140.222C236.713 141.091 237.366 141.824 238.19 142.327C239.013 142.83 239.969 143.081 240.937 143.049C241.905 143.017 242.842 142.703 243.629 142.147C244.417 141.59 245.019 140.817 245.36 139.923C245.702 139.029 245.767 138.056 245.547 137.126C245.328 136.196 244.834 135.351 244.127 134.698C243.421 134.044 242.534 133.612 241.579 133.455C240.295 133.256 238.983 133.563 237.927 134.309C236.871 135.056 236.155 136.182 235.935 137.444Z" fill="white"/>
<path d="M179.496 170.223C179.496 170.223 186.061 184.363 201.712 187.532C221.589 191.566 224.4 183.099 224.4 183.099C223.728 180.384 223.358 177.605 223.298 174.81C223.298 173.725 223.298 172.594 223.298 171.464C223.511 167.95 223.924 164.45 224.535 160.981C224.692 160.072 224.849 159.119 225.029 158.122V158.144C211.335 154.066 200.295 147.329 193.167 136.757L191.143 135.405L189.794 134.496L189.502 135.272L189.614 137.843C190.221 149.833 186.961 159.585 179.496 170.223Z" fill="#C1725C"/>
<path d="M202.207 147.816C204.748 154.465 210.864 166.5 223.344 171.553C223.557 168.038 223.97 164.539 224.58 161.07C224.738 160.161 224.895 159.208 225.075 158.211H224.243C216.643 158.277 208.638 153.955 202.207 147.816Z" fill="#2B2B39"/>
<path d="M174.165 113.819C173.243 121.199 178.46 131.039 188.241 132.502H188.466C188.466 132.945 188.691 133.388 188.826 133.832C188.961 134.275 188.961 134.231 189.006 134.408C193.503 147.706 210.772 157.324 220.486 158.787C222.722 159.121 224.996 159.121 227.232 158.787C237.913 157.812 241.6 144.182 241.308 133.388C241.265 131.905 241.137 130.425 240.926 128.956V128.646C240.926 128.646 246.277 114.262 247.896 107.901C251.044 95.5564 245.355 81.9262 217.788 76.0309C190.22 70.1356 181.383 86.3588 178.28 95.1796C177.763 96.6424 176.954 105.663 178.28 107.303C177.056 107.914 176.025 108.845 175.299 109.994C174.574 111.143 174.181 112.466 174.165 113.819Z" fill="#C1725C"/>
<path d="M213.945 93.4506C213.863 95.8244 213.154 98.1361 211.888 100.157C210.622 102.178 208.843 103.839 206.727 104.975C202.544 107.081 199.239 109.142 200.453 113.619C202.072 119.492 200.228 123.193 196.788 123.127C190.649 123.127 190.919 109.386 178.35 107.258C178.35 107.258 173.852 105.773 175.337 97.9496C176.821 90.1261 193.168 69.4925 213.945 73.1494C234.722 76.8063 251.856 89.2175 250.799 103.712C249.742 118.206 246.954 115.015 246.954 115.015C246.954 115.015 247.269 114.195 246.684 102.382C246.032 91.7662 212.663 86.4914 213.945 93.4506Z" fill="#2B2B39"/>
<path d="M178.46 131.549C178.303 132.493 178.434 133.46 178.836 134.331C179.238 135.201 179.892 135.934 180.717 136.437C181.541 136.94 182.499 137.191 183.468 137.158C184.437 137.125 185.375 136.809 186.162 136.25C186.949 135.692 187.55 134.916 187.889 134.02C188.229 133.125 188.291 132.15 188.068 131.22C187.846 130.289 187.348 129.445 186.638 128.794C185.928 128.142 185.039 127.713 184.081 127.56C182.799 127.355 181.487 127.66 180.433 128.408C179.379 129.156 178.669 130.286 178.46 131.549Z" fill="white"/>
<g opacity="0.5">
<path opacity="0.5" d="M236.003 130.551C235.89 131.66 238.251 132.768 241.444 133.366C241.401 131.883 241.273 130.403 241.062 128.934C238.229 128.911 236.115 129.554 236.003 130.551Z" fill="#7D351D"/>
</g>
<path d="M224.422 144.847C223.645 144.654 222.956 144.209 222.466 143.583C222.419 143.521 222.385 143.45 222.366 143.375C222.347 143.3 222.344 143.221 222.356 143.145C222.369 143.068 222.397 142.995 222.439 142.929C222.481 142.864 222.536 142.807 222.601 142.763C222.732 142.68 222.889 142.648 223.043 142.672C223.197 142.697 223.335 142.777 223.433 142.896C223.736 143.266 224.144 143.537 224.605 143.676C225.066 143.814 225.559 143.813 226.019 143.672C226.094 143.652 226.173 143.647 226.25 143.658C226.327 143.668 226.402 143.694 226.469 143.733C226.536 143.772 226.594 143.824 226.64 143.886C226.687 143.948 226.72 144.018 226.738 144.093C226.772 144.246 226.744 144.405 226.66 144.538C226.576 144.67 226.443 144.765 226.289 144.802C225.678 144.959 225.04 144.975 224.422 144.847Z" fill="#7D351D"/>
<path d="M225.839 140.923C224.627 140.65 223.503 140.083 222.569 139.275C221.634 138.466 220.919 137.441 220.487 136.291C220.438 136.174 220.414 136.049 220.416 135.922C220.419 135.795 220.448 135.67 220.503 135.555C220.558 135.441 220.636 135.338 220.733 135.255C220.83 135.172 220.944 135.11 221.067 135.072C221.19 135.035 221.319 135.023 221.447 135.038C221.575 135.053 221.698 135.095 221.809 135.159C221.919 135.224 222.015 135.311 222.089 135.414C222.164 135.518 222.216 135.635 222.241 135.76C222.579 136.613 223.125 137.371 223.831 137.966C224.537 138.562 225.381 138.976 226.289 139.173C227.107 139.433 227.976 139.503 228.827 139.376C229.678 139.249 230.487 138.929 231.191 138.441C231.274 138.358 231.374 138.291 231.484 138.246C231.594 138.2 231.712 138.177 231.832 138.177C231.951 138.177 232.069 138.2 232.179 138.246C232.289 138.291 232.389 138.358 232.472 138.441C232.558 138.526 232.626 138.626 232.672 138.736C232.719 138.846 232.743 138.965 232.743 139.084C232.743 139.203 232.719 139.322 232.672 139.432C232.626 139.542 232.558 139.642 232.472 139.727C231.544 140.433 230.457 140.911 229.303 141.119C228.149 141.327 226.961 141.26 225.839 140.923Z" fill="#7D351D"/>
<path d="M229.009 133.233C229.163 133.275 229.327 133.275 229.481 133.233L233.574 131.504C233.71 131.446 233.829 131.354 233.919 131.238C234.01 131.121 234.069 130.984 234.091 130.839C234.114 130.692 234.094 130.541 234.035 130.404C233.975 130.267 233.878 130.149 233.754 130.064C232.345 128.957 231.199 127.561 230.395 125.972C229.591 124.383 229.148 122.641 229.099 120.866C229.091 120.756 229.06 120.649 229.009 120.551C228.957 120.453 228.886 120.367 228.8 120.296C228.714 120.226 228.615 120.173 228.508 120.142C228.401 120.11 228.288 120.1 228.177 120.112C228.065 120.121 227.955 120.151 227.855 120.201C227.754 120.252 227.665 120.321 227.592 120.405C227.519 120.49 227.463 120.588 227.429 120.693C227.394 120.799 227.381 120.91 227.39 121.021C227.536 124.593 229.055 127.977 231.64 130.485L228.807 131.682C228.703 131.725 228.609 131.788 228.531 131.867C228.452 131.947 228.39 132.041 228.348 132.144C228.307 132.247 228.286 132.357 228.287 132.467C228.289 132.578 228.312 132.688 228.357 132.79C228.418 132.912 228.51 133.018 228.624 133.095C228.738 133.173 228.871 133.22 229.009 133.233Z" fill="#7D351D"/>
<path d="M223.726 108.233C224.192 108.385 224.697 108.368 225.152 108.186C225.607 108.004 225.981 107.669 226.208 107.24C226.436 106.811 226.5 106.317 226.392 105.845C226.283 105.373 226.007 104.955 225.614 104.665C224.444 103.808 222.998 103.399 221.544 103.512C219.214 103.66 216.95 104.337 214.929 105.49C212.909 106.644 211.186 108.242 209.897 110.161C209.897 110.161 217.452 107.524 221.454 107.945C222.22 107.959 222.981 108.056 223.726 108.233Z" fill="#2B2B39"/>
<path d="M235.643 110.516C235.157 110.506 234.69 110.328 234.324 110.013C233.958 109.698 233.716 109.266 233.641 108.792C233.566 108.319 233.662 107.835 233.913 107.425C234.164 107.014 234.553 106.704 235.013 106.549C236.396 106.092 237.902 106.155 239.241 106.726C246.571 109.496 246.166 114.904 246.166 114.904C243.682 113.101 240.907 111.722 237.959 110.826C237.2 110.641 236.424 110.537 235.643 110.516Z" fill="#2B2B39"/>
<g opacity="0.5">
<path opacity="0.5" d="M218.644 128.579C218.509 129.842 215.248 130.529 211.336 130.131C207.423 129.732 204.343 128.357 204.478 127.116C204.613 125.875 207.896 125.166 211.808 125.565C215.721 125.964 218.779 127.338 218.644 128.579Z" fill="#7D351D"/>
</g>
<path d="M189.885 126.761C189.684 126.702 189.507 126.583 189.378 126.42C189.249 126.257 189.175 126.059 189.165 125.853C188.693 118.739 180.643 114.771 180.553 114.661C180.314 114.537 180.134 114.327 180.05 114.075C179.966 113.822 179.985 113.547 180.103 113.309C180.163 113.19 180.246 113.084 180.348 112.997C180.449 112.911 180.567 112.845 180.695 112.804C180.823 112.762 180.957 112.746 181.091 112.757C181.225 112.768 181.356 112.805 181.475 112.865C181.835 113.043 190.649 117.431 191.189 125.72C191.201 125.852 191.186 125.984 191.145 126.11C191.104 126.236 191.037 126.352 190.948 126.451C190.86 126.551 190.752 126.632 190.631 126.689C190.51 126.746 190.379 126.778 190.245 126.784C190.124 126.799 190.002 126.791 189.885 126.761Z" fill="#7D351D"/>
<path d="M181.565 121.797C181.444 121.756 181.33 121.696 181.228 121.62C181.122 121.538 181.033 121.436 180.968 121.32C180.902 121.203 180.861 121.075 180.846 120.943C180.831 120.811 180.844 120.677 180.882 120.55C180.921 120.423 180.985 120.304 181.07 120.201C181.866 119.315 182.88 118.646 184.014 118.257C185.148 117.869 186.365 117.775 187.546 117.985C187.815 118.034 188.054 118.184 188.214 118.403C188.373 118.622 188.44 118.893 188.401 119.16C188.351 119.423 188.199 119.657 187.976 119.811C187.753 119.964 187.477 120.025 187.209 119.98C186.391 119.839 185.551 119.903 184.765 120.166C183.979 120.43 183.273 120.884 182.712 121.487C182.576 121.649 182.393 121.765 182.188 121.821C181.983 121.876 181.765 121.868 181.565 121.797Z" fill="#7D351D"/>
<path d="M221.139 120.246C220.847 122.108 219.79 123.504 218.891 123.371C217.991 123.238 217.339 121.553 217.654 119.692C217.969 117.83 218.981 116.412 219.903 116.567C220.825 116.722 221.432 118.362 221.139 120.246Z" fill="#2B2B39"/>
<path d="M214.527 116.035C214.436 115.976 214.365 115.891 214.325 115.791C214.281 115.665 214.29 115.527 214.349 115.406C214.408 115.286 214.512 115.194 214.639 115.148C214.842 115.148 220.081 113.198 223.319 116.921C223.378 116.968 223.425 117.027 223.458 117.093C223.492 117.16 223.51 117.233 223.511 117.307C223.513 117.381 223.498 117.455 223.468 117.523C223.438 117.591 223.393 117.651 223.336 117.701C223.28 117.75 223.213 117.786 223.141 117.807C223.069 117.828 222.993 117.833 222.918 117.823C222.844 117.812 222.773 117.785 222.71 117.744C222.647 117.703 222.594 117.649 222.554 117.586C219.766 114.373 215.044 116.079 214.977 116.079C214.904 116.112 214.825 116.125 214.746 116.117C214.667 116.109 214.591 116.081 214.527 116.035Z" fill="#2B2B39"/>
<path d="M238.679 122.906C238.365 124.789 237.33 126.186 236.431 126.031C235.532 125.875 234.879 124.235 235.172 122.352C235.464 120.468 236.521 119.071 237.42 119.227C238.32 119.382 238.859 121.022 238.679 122.906Z" fill="#2B2B39"/>
<path d="M232.494 118.45C232.398 118.396 232.326 118.31 232.291 118.207C232.256 118.08 232.271 117.945 232.334 117.83C232.397 117.714 232.502 117.627 232.629 117.586C232.853 117.586 238.16 115.902 241.241 119.802C241.325 119.902 241.371 120.027 241.371 120.157C241.371 120.287 241.325 120.412 241.241 120.512C241.194 120.56 241.139 120.598 241.077 120.625C241.015 120.651 240.948 120.665 240.881 120.665C240.813 120.665 240.747 120.651 240.685 120.625C240.623 120.598 240.567 120.56 240.521 120.512C237.89 117.187 233.078 118.65 233.033 118.672C232.931 118.705 232.821 118.7 232.722 118.659C232.623 118.619 232.542 118.545 232.494 118.45Z" fill="#2B2B39"/>
<path d="M169.736 244.579L168.566 245.089L167.352 245.665L164.879 246.773L159.909 248.989C156.626 250.519 153.321 252.004 150.038 253.422C143.472 256.348 136.929 259.118 130.565 261.445C128.969 262.021 127.417 262.597 125.866 263.107C124.314 263.617 122.785 264.082 121.369 264.503C119.952 264.925 118.446 265.279 117.074 265.567C115.85 265.84 114.611 266.047 113.364 266.188C112.534 266.262 111.698 266.262 110.868 266.188C110.643 266.188 110.486 266.188 110.531 266.188H111.048H111.385C112.097 266.393 112.783 266.675 113.431 267.03C114.303 267.482 115.118 268.032 115.86 268.67C116.652 269.364 117.361 270.144 117.973 270.997C118.487 271.692 118.932 272.434 119.3 273.213C119.553 273.787 119.756 274.38 119.907 274.987C120 275.336 120.068 275.691 120.11 276.05C120.11 276.56 120.11 276.715 120.11 276.671C120.11 276.627 120.334 275.718 120.649 274.721C120.964 273.723 121.414 272.504 121.931 271.241C123.01 268.67 124.359 265.811 125.866 262.93C127.372 260.049 129.036 257.057 130.79 254.065C132.544 251.073 134.343 248.081 136.187 245.067C139.919 239.06 143.81 233.01 147.767 226.96L153.726 217.895L159.617 208.919L159.797 208.631C162.233 204.882 163.15 200.368 162.364 195.984C161.579 191.6 159.149 187.668 155.558 184.969C151.967 182.269 147.477 181 142.98 181.413C138.483 181.826 134.308 183.892 131.285 187.199L130.228 188.352L129.239 189.438L127.305 191.654C126.046 193.117 124.787 194.602 123.55 196.087C121.076 199.056 118.648 202.093 116.309 205.173C111.565 211.335 107.023 217.629 102.683 224.234C100.434 227.536 98.4107 230.882 96.3195 234.362C94.2284 237.842 92.2721 241.41 90.3833 245.155C88.3658 249.076 86.5643 253.1 84.9867 257.212C84.1547 259.428 83.3677 261.644 82.7381 264.304C81.9255 267.263 81.3911 270.29 81.1416 273.346C80.9528 275.403 80.9528 277.473 81.1416 279.53C81.2749 280.821 81.4927 282.101 81.7937 283.364C82.1422 284.88 82.6237 286.363 83.2328 287.797C83.9544 289.479 84.8511 291.084 85.9086 292.584C87.0556 294.209 88.3913 295.697 89.8886 297.016C91.3354 298.282 92.9278 299.375 94.6331 300.274C96.1108 301.068 97.6618 301.721 99.2652 302.225L99.8273 302.38H100.097H100.3L101.087 302.579L102.683 302.934L104.212 303.2C104.729 303.2 105.179 303.311 105.651 303.377C107.428 303.567 109.216 303.641 111.003 303.599C113.95 303.505 116.884 303.164 119.772 302.579C124.506 301.589 129.136 300.164 133.601 298.324C137.6 296.719 141.511 294.906 145.316 292.894C152.493 289.098 159.404 284.833 166.003 280.128C169.241 277.853 172.411 275.481 175.515 273.014C177.044 271.773 178.573 270.532 180.012 269.246L182.26 267.296L183.385 266.299L184.554 265.235C186.82 263.179 188.283 260.405 188.687 257.396C189.092 254.386 188.412 251.333 186.766 248.767C185.121 246.201 182.614 244.285 179.683 243.354C176.751 242.422 173.581 242.534 170.725 243.67L169.736 244.579Z" fill="#C1725C"/>
<path d="M250.224 180.775L179.181 191.003L192.668 282.013L263.711 271.785L250.224 180.775Z" fill="#5F5F75"/>
<path d="M246.979 181.257L175.936 191.484L189.423 282.495L260.466 272.267L246.979 181.257Z" fill="#2B2B39"/>
<path d="M193.886 188.929C193.886 188.929 194.965 183.211 200.16 182.612C200.239 181.123 200.741 179.686 201.608 178.464C202.474 177.242 203.67 176.283 205.061 175.697C209.202 174.278 213.604 173.757 217.968 174.168C221.319 174.611 222.825 179.066 222.825 179.066C224.679 178.936 226.533 179.32 228.177 180.174C229.323 181.033 230.12 182.267 230.425 183.654L193.886 188.929Z" fill="#5F5F75"/>
<path d="M169.084 265.257C171.763 267.219 175.107 268.083 178.418 267.67C181.729 267.257 184.749 265.598 186.848 263.041C189.077 260.236 191.786 257.836 194.853 255.949C201.598 252.247 210.593 249.743 213.493 246.928C217.743 242.762 211.245 242.496 210.503 242.496C206.403 243.012 202.346 243.812 198.36 244.889C198.36 244.889 209.783 238.506 214.932 237.952C220.082 237.398 222.6 233.52 217.496 231.303C212.392 229.087 198.315 233.52 194.763 235.736C198.394 232.412 202.869 230.115 207.714 229.087C214.663 228.112 217.001 226.871 219.25 225.12C221.498 223.369 217.541 219.336 207.894 220.931C201.677 221.7 195.842 224.312 191.165 228.422C193.006 225.61 195.122 222.982 197.483 220.577C201.823 215.989 209.941 215.501 210.975 211.911C212.009 208.321 202.79 209.229 197.911 212.044C193.031 214.859 189.231 216.477 184.824 222.15C180.899 226.866 177.478 231.968 174.615 237.376C172.794 241.388 164.474 254.84 165.913 261.002C166.433 262.742 167.555 264.248 169.084 265.257Z" fill="#C1725C"/>
<path d="M169.421 248.458C169.421 248.458 170.41 235.16 172.996 231.348C175.582 227.536 177.493 220.599 180.169 222.106C182.845 223.614 180.304 232.146 180.304 232.146L169.421 248.458Z" fill="#C1725C"/>
<path d="M141.809 239.017C141.984 239.134 142.198 239.18 142.407 239.147C142.616 239.114 142.804 239.004 142.933 238.84C143.068 238.662 156.425 221.597 161.731 213.552C161.851 213.366 161.892 213.141 161.846 212.926C161.8 212.71 161.67 212.521 161.484 212.399C161.295 212.281 161.067 212.24 160.849 212.286C160.63 212.332 160.439 212.46 160.315 212.643C155.031 220.644 141.741 237.643 141.607 237.82C141.476 237.999 141.42 238.22 141.449 238.438C141.478 238.656 141.591 238.855 141.764 238.995L141.809 239.017Z" fill="#7D351D"/>
<path d="M155.481 221.441C155.683 221.574 155.953 221.618 158.719 220.709L165.06 218.648C162.991 219.313 163.216 218.848 163.081 218.405C163.009 218.199 162.858 218.03 162.66 217.934C162.462 217.838 162.233 217.824 162.024 217.895L155.683 219.956C155.578 219.989 155.48 220.042 155.396 220.112C155.311 220.182 155.242 220.268 155.192 220.365C155.142 220.462 155.111 220.568 155.103 220.677C155.095 220.785 155.109 220.894 155.144 220.998C155.202 221.179 155.321 221.335 155.481 221.441Z" fill="#7D351D"/>
<path d="M111.521 268.67C111.663 268.766 111.831 268.818 112.004 268.818C112.177 268.818 112.345 268.766 112.487 268.67C116.85 265.412 125.282 264.88 125.349 264.88C125.574 264.863 125.783 264.762 125.934 264.597C126.085 264.432 126.165 264.216 126.159 263.994C126.142 263.774 126.038 263.57 125.87 263.425C125.701 263.28 125.482 263.206 125.259 263.218C124.9 263.218 116.265 263.772 111.453 267.362C111.282 267.498 111.17 267.693 111.14 267.908C111.111 268.122 111.167 268.34 111.296 268.515L111.521 268.67Z" fill="#7D351D"/>
<path d="M112.061 262.754C112.158 262.819 112.269 262.864 112.385 262.883C112.502 262.902 112.621 262.896 112.735 262.864C114.031 262.69 115.35 262.82 116.584 263.244C117.819 263.668 118.935 264.373 119.841 265.302C119.923 265.374 120.02 265.428 120.124 265.463C120.228 265.498 120.338 265.512 120.447 265.505C120.557 265.497 120.664 265.469 120.762 265.421C120.861 265.373 120.949 265.306 121.021 265.225C121.094 265.143 121.149 265.049 121.184 264.946C121.219 264.843 121.234 264.735 121.226 264.627C121.219 264.519 121.19 264.413 121.142 264.316C121.093 264.219 121.025 264.133 120.943 264.061C119.835 262.955 118.477 262.123 116.98 261.634C115.483 261.145 113.889 261.012 112.33 261.247C112.172 261.287 112.03 261.372 111.919 261.49C111.808 261.609 111.734 261.756 111.706 261.915C111.677 262.073 111.696 262.237 111.759 262.385C111.821 262.534 111.926 262.662 112.061 262.754Z" fill="#7D351D"/>
<path d="M817.474 229.23L754.202 489.021C753.211 493.092 750.859 496.715 747.523 499.306C744.187 501.897 740.062 503.305 735.815 503.302H587.325C584.446 503.308 581.604 502.666 579.015 501.425C576.427 500.184 574.159 498.378 572.386 496.143C570.613 493.908 569.381 491.303 568.783 488.528C568.186 485.752 568.239 482.879 568.938 480.127L633.757 220.42C634.766 216.37 637.124 212.77 640.453 210.196C643.783 207.623 647.891 206.223 652.123 206.222H799.194C802.045 206.239 804.856 206.89 807.416 208.128C809.976 209.366 812.219 211.158 813.977 213.371C815.735 215.584 816.962 218.16 817.568 220.906C818.174 223.652 818.142 226.498 817.474 229.23Z" fill="#5F5F75"/>
<path d="M801.103 229.231L737.873 489.021C736.875 493.092 734.517 496.714 731.178 499.304C727.84 501.894 723.714 503.302 719.465 503.302H570.975C568.098 503.305 565.259 502.66 562.673 501.418C560.086 500.176 557.822 498.369 556.051 496.135C554.28 493.9 553.05 491.297 552.453 488.523C551.857 485.749 551.91 482.878 552.609 480.127L617.301 220.336C618.311 216.286 620.668 212.687 623.998 210.113C627.327 207.539 631.436 206.14 635.667 206.139H782.738C785.604 206.144 788.432 206.79 791.008 208.028C793.585 209.267 795.842 211.065 797.61 213.289C799.379 215.512 800.612 218.102 801.217 220.864C801.822 223.625 801.783 226.486 801.103 229.231Z" fill="#2B2B39"/>
<path d="M719.464 490.567H570.973C570.063 490.563 569.167 490.356 568.35 489.963C567.532 489.569 566.816 488.999 566.254 488.294C565.692 487.59 565.298 486.769 565.103 485.894C564.908 485.018 564.916 484.11 565.127 483.238L629.84 223.447C630.15 222.155 630.894 221.005 631.952 220.182C633.009 219.36 634.318 218.914 635.665 218.917H782.736C783.646 218.921 784.543 219.127 785.36 219.521C786.177 219.914 786.893 220.484 787.455 221.189C788.017 221.894 788.411 222.714 788.606 223.59C788.801 224.465 788.793 225.373 788.583 226.245L725.31 486.036C724.999 487.331 724.251 488.485 723.189 489.307C722.128 490.13 720.814 490.574 719.464 490.567ZM635.665 220.504C634.687 220.521 633.741 220.855 632.975 221.455C632.21 222.055 631.666 222.888 631.428 223.823L566.673 483.614C566.518 484.252 566.509 484.915 566.648 485.556C566.788 486.197 567.071 486.799 567.477 487.318C567.884 487.837 568.403 488.259 568.997 488.554C569.591 488.849 570.244 489.009 570.909 489.022H719.4C720.383 489.011 721.334 488.676 722.102 488.07C722.87 487.465 723.41 486.624 723.637 485.681L786.909 225.89C787.08 225.25 787.094 224.58 786.951 223.934C786.807 223.288 786.51 222.684 786.083 222.174C785.68 221.644 785.155 221.216 784.551 220.925C783.947 220.635 783.281 220.49 782.609 220.504H635.665Z" fill="#5F5F75"/>
<path d="M569.873 393.961C569.873 393.961 449.407 424.005 433.245 437.513C417.082 451.022 381.072 615.837 380.839 625.086C380.839 625.942 412.253 634.732 412.253 634.732C412.253 634.732 474.085 507.206 477.474 488.77C477.474 488.77 548.288 480.419 580.528 461.92C612.768 443.422 624.63 424.59 624.63 424.59L569.873 393.961Z" fill="#64474B"/>
<path d="M504.715 269.255C504.715 269.255 489.188 346.046 490.756 363.813C492.323 381.581 524.479 399.307 524.479 399.307L546.911 394.526C546.911 394.526 536.532 364.001 527.995 355.191L542.251 287.753L504.715 269.255Z" fill="#C1725C"/>
<path d="M543.606 292.451C541.194 293.127 538.699 293.471 536.192 293.474H534.476C524.986 292.973 515.856 288.087 508.739 283.034C508.294 282.721 507.849 282.408 507.425 282.074C502.825 278.634 498.569 274.768 494.716 270.528C495.521 268.816 496.347 266.958 497.152 265.016L497.766 263.534C501.579 254.076 505.244 242.447 508.357 231.882L508.908 229.92C513.314 214.344 516.28 201.42 516.28 201.42L543.606 292.451Z" fill="#6059C9"/>
<path d="M518.695 247.896C518.25 243.135 515.454 239.022 512.849 235.118C511.62 233.448 510.328 231.694 508.909 229.982L508.358 231.945C509.481 233.343 510.476 234.763 511.472 236.12C515.708 242.384 519.606 249.524 515.115 256.873C511.684 262.511 504.249 264.807 497.851 263.659L497.237 265.141C500.225 265.777 503.324 265.696 506.274 264.904C509.223 264.111 511.936 262.632 514.183 260.59C515.84 258.934 517.104 256.936 517.884 254.742C518.664 252.547 518.941 250.209 518.695 247.896Z" fill="#9F9FFB"/>
<path d="M524.564 276.687C517.87 273.994 511.643 277.063 507.427 281.99C507.851 282.324 508.296 282.637 508.741 282.95C510.129 280.961 512.057 279.395 514.304 278.432C516.551 277.469 519.027 277.146 521.45 277.501C529.521 278.879 532.846 286.103 534.414 293.452H536.13C534.774 286.374 531.787 279.547 524.564 276.687Z" fill="#9F9FFB"/>
<path d="M685.593 386.028V386.174C685.3 386.77 684.881 387.297 684.364 387.719C679.577 392.02 663.287 396.509 643.566 399.808L641.236 400.204C633.949 401.353 626.239 402.292 618.507 403.106L616.622 403.294C582.729 406.447 548.731 404.902 547.841 392.855L547.524 388.679C547.524 387.969 547.418 387.239 547.354 386.591C547.037 382.103 546.698 377.384 546.316 371.977C546.316 371.267 546.316 370.536 546.168 369.889C545.702 362.769 545.172 354.418 544.558 343.791L544.431 341.431C544.304 339.343 544.177 337.068 544.05 334.75L543.796 330.261C543.796 329.614 543.796 328.967 543.668 328.32C543.541 327.672 543.668 326.691 543.541 325.877C543.224 321.117 542.885 316.377 542.482 311.784C542.482 310.97 542.334 310.176 542.27 309.383C541.516 298.799 539.729 288.311 536.932 278.065C536.805 277.71 536.699 277.355 536.572 277.021C536.445 276.687 536.339 276.29 536.212 275.936C534.263 270.11 532.293 264.64 530.366 259.462L529.285 256.581C523.757 241.966 518.821 229.878 516.343 220.023C516.145 219.299 515.976 218.603 515.834 217.935C514.859 214.024 514.481 209.992 514.712 205.972C514.787 205.257 514.958 204.555 515.22 203.884C516.533 200.209 520.283 196.054 524.879 192.088C525.345 191.67 525.833 191.273 526.341 190.856C534.002 184.748 542.156 179.266 550.722 174.466L587.157 157.575C596.927 158.12 606.663 159.158 616.325 160.686L618.232 161.02C624.186 161.981 630.041 163.462 635.728 165.447C636.35 165.655 636.943 165.885 637.508 166.136C638.468 166.525 639.358 166.943 640.177 167.388C651.976 173.652 657.949 199.249 662.334 225.66C662.546 226.892 662.736 228.124 662.948 229.335C664.728 240.4 666.253 251.424 667.863 261.049C667.99 261.884 668.138 262.699 668.265 263.492C669.197 268.899 670.172 273.931 671.231 277.982C672.438 282.7 673.857 287.982 675.34 293.682C675.552 294.497 675.764 295.311 675.997 296.146C680.805 314.561 686.186 336.525 687.901 355.399C687.901 356.485 688.071 357.487 688.156 358.614C688.833 369.471 688.304 378.908 685.593 386.028Z" fill="#6059C9"/>
<path d="M524.816 191.733C531.079 197.422 538.761 201.37 547.079 203.174C555.148 204.898 563.5 204.886 571.565 203.138C579.629 201.391 587.216 197.949 593.808 193.048C604.73 184.764 613.171 173.718 618.232 161.083L616.325 160.77C614.123 166.02 611.361 171.024 608.085 175.698C598.786 188.893 584.954 199.103 568.685 201.859C553.709 204.385 537.547 200.773 526.32 190.501C525.727 190.898 525.282 191.315 524.816 191.733Z" fill="#9F9FFB"/>
<path d="M624.884 239.857C624.439 235.097 621.643 230.963 619.038 227.08C613.424 219.376 605.862 209.98 594.995 211.504C584.743 212.945 581.311 224.032 582.879 232.821C584.447 241.611 589.7 250.84 598.025 255.182C601.583 257.068 605.647 257.82 609.657 257.334C613.667 256.847 617.426 255.148 620.415 252.468C622.055 250.819 623.305 248.834 624.078 246.655C624.851 244.475 625.126 242.154 624.884 239.857ZM621.22 248.626C617.322 255.015 608.277 257.124 601.414 254.765C593.47 252.009 588.09 244.492 585.59 236.872C582.964 228.896 583.175 217.079 592.687 213.592C603.511 209.605 612.132 220.399 617.576 227.873C621.792 234.199 625.71 241.277 621.22 248.626Z" fill="#9F9FFB"/>
<path d="M536.149 275.705L536.53 276.791C536.53 277.125 536.742 277.48 536.869 277.835C541.953 271.321 547.263 264.988 552.799 258.835C556.527 254.66 560.234 250.484 564.343 246.663C566.462 244.722 571.037 242.321 572.816 246.141C573.875 248.459 572.816 251.883 572.435 254.284C570.783 263.942 567.602 273.284 563.009 281.969C557.588 292.035 550.589 301.195 542.271 309.111C542.271 309.904 542.419 310.698 542.483 311.512C546.072 308.151 549.447 304.574 552.587 300.801C559.139 293.003 564.472 284.284 568.41 274.933C570.509 269.92 572.161 264.736 573.346 259.441C574.068 256.335 574.612 253.191 574.977 250.025C575.317 248.213 575.065 246.341 574.257 244.68C571.905 240.838 566.758 242.237 563.92 244.68C559.135 249.006 554.682 253.675 550.596 258.648C545.582 264.159 540.767 269.845 536.149 275.705Z" fill="#9F9FFB"/>
<path d="M543.607 328.048C543.607 328.696 543.607 329.343 543.734 329.99C549.003 327.509 554.067 324.626 558.88 321.367C572.352 312.306 583.918 300.844 595.483 289.569C601.414 283.786 607.388 278.003 613.658 272.574C619.928 267.146 626.071 262.135 633.57 259.233C645.347 254.514 657.93 257.145 668.267 263.576C668.14 262.782 667.992 261.968 667.865 261.133C657.273 255.057 644.733 252.781 633.019 257.416C626.164 260.443 619.848 264.539 614.315 269.547C607.727 275.08 601.605 281.03 595.377 287.022C580.02 301.992 563.328 318.528 543.607 328.048Z" fill="#9F9FFB"/>
<path d="M641.957 329.572C648.969 333.56 656.785 335.836 664.051 339.385C670.484 342.614 676.4 346.758 681.611 351.682C683.94 353.883 686.126 356.226 688.156 358.698C688.156 357.654 688.008 356.61 687.902 355.482C686.653 354.063 685.339 352.664 683.983 351.307C679.53 346.944 674.55 343.137 669.156 339.97C662.722 336.624 656.094 333.655 649.307 331.075C642.614 328.131 636.089 324.373 632.022 318.172C629.975 315.304 628.887 311.878 628.91 308.371C628.933 304.864 630.065 301.452 632.149 298.609C641.597 285.894 660.513 288.671 673.074 294.684C674.07 295.164 675.044 295.665 676.019 296.208C675.786 295.373 675.574 294.559 675.362 293.745C673.594 292.827 671.777 292.004 669.918 291.281C657.209 286.333 639.796 285.331 630.709 297.419C621.622 309.508 630.624 323.142 641.957 329.572Z" fill="#9F9FFB"/>
<path d="M625.605 383.481C630.541 389.243 635.794 394.797 641.174 400.184L643.504 399.787C637.976 394.275 632.574 388.596 627.469 382.729C621.368 375.735 615.183 365.63 621.114 356.631C627.469 346.985 641.301 354.063 649.075 357.968C663.057 364.982 675.145 375.173 684.345 387.699C684.857 387.272 685.275 386.746 685.573 386.153C674.549 371.317 659.538 359.812 642.233 352.936C637.446 351.036 632.108 349.073 626.897 350.284C624.878 350.809 623.017 351.806 621.471 353.191C619.926 354.576 618.743 356.307 618.022 358.239C614.336 367.53 619.631 376.487 625.605 383.481Z" fill="#9F9FFB"/>
<path d="M607.028 323.079C606.012 329.176 598.725 332.788 594.086 336.024L546.107 369.617C546.107 370.348 546.213 371.079 546.255 371.81L571.42 354.188L589.553 341.473L599.021 334.855C601.372 333.339 603.565 331.598 605.567 329.656C608.638 326.357 610.545 321.012 607.685 317.025C604.825 313.037 598.661 313.747 594.297 314.937C575.943 319.994 558.932 328.944 544.455 341.16L544.582 343.498C550.524 338.455 556.903 333.935 563.646 329.99C573.206 324.377 583.457 319.999 594.149 316.962C596.913 315.944 599.893 315.628 602.813 316.043C604.312 316.436 605.594 317.394 606.382 318.711C607.171 320.027 607.403 321.596 607.028 323.079Z" fill="#9F9FFB"/>
<path d="M547.313 386.466C547.313 387.197 547.419 387.907 547.462 388.554C552.791 383.967 558.583 379.931 564.747 376.507C569.854 374.004 575.491 372.729 581.194 372.786C586.898 372.844 592.507 374.232 597.562 376.837C602.616 379.442 606.973 383.19 610.275 387.774C613.577 392.358 615.731 397.648 616.56 403.211L618.466 403.023C617.378 396.001 614.343 389.411 609.697 383.982C604.39 377.953 597.281 373.738 589.391 371.941C581.501 370.144 573.237 370.858 565.785 373.981C558.943 376.987 553.266 381.852 547.313 386.466Z" fill="#9F9FFB"/>
<path d="M569.683 189.916C562.343 189.74 555.241 187.31 549.369 182.963C549.24 182.865 549.132 182.743 549.052 182.604C548.971 182.464 548.92 182.31 548.9 182.151C548.88 181.992 548.893 181.83 548.937 181.676C548.981 181.521 549.056 181.377 549.157 181.251C549.362 180.999 549.658 180.836 549.983 180.797C550.307 180.758 550.635 180.846 550.894 181.043C551.043 181.168 561.21 188.893 572.48 187.306C578.834 186.367 584.554 182.525 589.214 175.927C589.399 175.65 589.689 175.457 590.018 175.391C590.348 175.324 590.691 175.39 590.972 175.572C591.253 175.755 591.449 176.04 591.516 176.365C591.584 176.69 591.518 177.028 591.332 177.305C586.269 184.508 580.063 188.663 572.903 189.728C571.835 189.855 570.76 189.918 569.683 189.916Z" fill="#9F9FFB"/>
<path d="M528.44 91.2445C528.44 91.2445 516.832 100.18 518.929 108.824C521.026 117.468 530.643 126.696 530.643 126.696C530.643 126.696 533.333 105.692 528.44 91.2445Z" fill="#39252B"/>
<path d="M529.623 121.414C528.383 121.829 527.325 122.65 526.624 123.74C525.923 124.83 525.621 126.124 525.768 127.406C525.768 132.459 529.581 140.309 534.495 138.534C539.409 136.76 529.623 121.414 529.623 121.414Z" fill="#7D351D"/>
<path d="M551.146 176.554C553.779 178.682 556.758 180.355 559.958 181.502C563.101 182.657 566.484 183.03 569.808 182.588L571.418 182.358L573.091 181.92C574.906 181.391 576.665 180.692 578.345 179.832C583.377 177.287 587.523 173.317 590.249 168.432C592.01 165.541 593.351 162.421 594.232 159.162C593.511 157.854 592.805 156.497 592.113 155.091C589.063 148.827 586.33 142.146 583.64 135.34L583.746 134.755L583.09 133.461L582.539 132.354L581.353 133.315L579.594 134.755L549.176 159.58L549.769 164.737L550.087 167.451L550.638 172.107L551.146 176.554Z" fill="#C1725C"/>
<path d="M584.085 133.397H583.895C583.895 133.836 583.768 134.274 583.704 134.713C583.641 135.151 583.704 135.11 583.598 135.297C583.429 136.112 583.217 136.905 582.984 137.74C579.086 150.476 565.042 164.569 551.951 164.882C551.189 164.882 550.447 164.882 549.727 164.882C537.018 163.65 531.87 150.267 531.849 139.473V138.283C531.849 138.283 531.743 137.573 531.489 136.32C531.235 135.068 531.044 133.961 530.705 132.374C529.731 127.593 528.163 120.557 526.214 113.688C522.762 101.641 528.587 82.3705 553.413 74.7707C578.239 67.1709 590.207 84.2913 591.182 97.3195C591.355 101.002 591.113 104.692 590.461 108.322C592.897 108.197 595.651 109.158 597.579 113.145C601.159 120.432 593.003 131.331 584.085 133.397Z" fill="#C1725C"/>
<path d="M535.196 125.193C535.641 126.926 536.742 128.137 537.653 127.907C538.564 127.678 538.945 126.091 538.501 124.379C538.056 122.667 536.954 121.435 536.043 121.665C535.133 121.894 534.751 123.398 535.196 125.193Z" fill="#2B2B39"/>
<path d="M540.555 122.04C540.639 121.992 540.706 121.919 540.746 121.832C540.797 121.718 540.801 121.589 540.757 121.472C540.714 121.355 540.626 121.26 540.513 121.205C540.322 121.205 535.577 118.992 532.251 122.228C532.186 122.321 532.157 122.433 532.167 122.545C532.177 122.657 532.227 122.762 532.307 122.841C532.388 122.921 532.495 122.97 532.608 122.98C532.722 122.99 532.835 122.96 532.929 122.896C535.768 120.12 540.068 122.04 540.11 122.061C540.182 122.089 540.258 122.101 540.335 122.097C540.411 122.094 540.486 122.074 540.555 122.04Z" fill="#2B2B39"/>
<path d="M550.512 121.769C550.956 123.502 552.058 124.713 552.969 124.483C553.88 124.253 554.24 122.667 553.795 120.955C553.35 119.243 552.27 118.011 551.359 118.24C550.448 118.47 550.067 120.057 550.512 121.769Z" fill="#2B2B39"/>
<path d="M555.871 118.679C555.96 118.636 556.028 118.562 556.062 118.47C556.113 118.356 556.117 118.228 556.074 118.111C556.03 117.994 555.942 117.898 555.829 117.844C555.638 117.844 550.893 115.631 547.568 118.867C547.521 118.91 547.485 118.962 547.459 119.019C547.434 119.077 547.421 119.138 547.421 119.201C547.421 119.264 547.434 119.325 547.459 119.383C547.485 119.44 547.521 119.492 547.568 119.535C547.658 119.622 547.78 119.67 547.906 119.67C548.033 119.67 548.155 119.622 548.245 119.535C551.084 116.737 555.384 118.658 555.426 118.679C555.495 118.716 555.571 118.735 555.649 118.735C555.726 118.735 555.803 118.716 555.871 118.679Z" fill="#2B2B39"/>
<g opacity="0.5">
<path opacity="0.5" d="M555.107 129.368C555.34 130.538 558.454 130.893 562.076 130.183C565.698 129.473 568.431 127.928 568.198 126.78C567.965 125.631 564.83 125.255 561.207 125.965C557.585 126.675 554.853 128.22 555.107 129.368Z" fill="#7D351D"/>
</g>
<g opacity="0.5">
<path opacity="0.5" d="M531.489 136.196C533.946 135.402 535.598 134.275 535.407 133.356C535.217 132.438 533.289 132.041 530.705 132.25C531.044 133.837 531.298 135.194 531.489 136.196Z" fill="#7D351D"/>
</g>
<path d="M539.559 132.897C539.435 132.875 539.316 132.829 539.21 132.761C539.105 132.692 539.014 132.604 538.945 132.5H538.69C537.724 133.778 536.43 134.78 534.941 135.402C533.265 136.097 531.417 136.286 529.631 135.945C527.846 135.605 526.203 134.75 524.911 133.489C523.618 132.228 522.734 130.618 522.371 128.862C522.007 127.105 522.18 125.282 522.867 123.623C523.555 121.964 524.726 120.543 526.234 119.539C527.741 118.536 529.516 117.997 531.334 117.988C533.153 117.98 534.933 118.503 536.45 119.492C537.967 120.48 539.152 121.89 539.855 123.543C540.494 125.031 540.707 126.663 540.47 128.262L541.084 127.99C541.475 127.816 541.879 127.669 542.291 127.552C542.361 125.953 542.079 124.357 541.465 122.875C540.632 120.909 539.225 119.231 537.424 118.053C535.623 116.874 533.507 116.249 531.345 116.256C529.183 116.263 527.072 116.901 525.278 118.091C523.485 119.281 522.089 120.968 521.268 122.939C520.448 124.91 520.238 127.077 520.667 129.166C521.096 131.255 522.143 133.171 523.677 134.673C525.211 136.174 527.162 137.194 529.284 137.603C531.406 138.011 533.603 137.79 535.598 136.968C537.538 136.184 539.203 134.855 540.385 133.147L539.559 132.897Z" fill="white"/>
<path d="M558.943 131.164C556.948 131.985 554.752 132.204 552.632 131.795C550.511 131.385 548.562 130.366 547.029 128.865C545.496 127.364 544.449 125.448 544.02 123.361C543.591 121.274 543.799 119.108 544.618 117.137C545.438 115.167 546.831 113.479 548.623 112.289C550.415 111.099 552.524 110.458 554.685 110.449C556.846 110.44 558.961 111.062 560.763 112.237C562.565 113.412 563.973 115.087 564.81 117.05C565.367 118.357 565.656 119.758 565.663 121.175C565.669 122.592 565.392 123.996 564.847 125.307C564.302 126.618 563.5 127.81 562.487 128.815C561.473 129.82 560.269 130.619 558.943 131.164ZM551.147 112.875C549.47 113.568 548.04 114.736 547.036 116.231C546.033 117.726 545.502 119.481 545.511 121.273C545.52 123.066 546.067 124.815 547.085 126.301C548.103 127.786 549.544 128.941 551.228 129.619C552.912 130.296 554.761 130.467 556.543 130.108C558.325 129.75 559.959 128.879 561.238 127.605C562.517 126.331 563.385 124.712 563.73 122.952C564.076 121.192 563.884 119.371 563.179 117.719C562.235 115.504 560.437 113.75 558.18 112.842C555.924 111.933 553.395 111.945 551.147 112.875Z" fill="white"/>
<path d="M523.608 131.268C523.481 131.334 523.339 131.368 523.195 131.368C523.051 131.368 522.909 131.334 522.782 131.268C522.686 131.209 522.604 131.131 522.539 131.04C522.474 130.949 522.429 130.845 522.405 130.736C522.381 130.627 522.38 130.515 522.401 130.405C522.422 130.296 522.465 130.192 522.528 130.099C523.901 128.295 525.8 126.947 527.972 126.237C528.079 126.196 528.193 126.177 528.307 126.181C528.422 126.184 528.534 126.21 528.639 126.257C528.743 126.303 528.837 126.37 528.915 126.452C528.994 126.535 529.054 126.632 529.094 126.738C529.135 126.844 529.153 126.958 529.148 127.072C529.143 127.186 529.115 127.298 529.066 127.401C529.016 127.504 528.947 127.596 528.861 127.672C528.775 127.748 528.674 127.807 528.565 127.844C526.762 128.446 525.173 129.548 523.989 131.018C523.88 131.125 523.751 131.21 523.608 131.268Z" fill="white"/>
<path d="M562.184 113.627C566.449 110.247 571.751 108.392 577.224 108.365L577.372 110.098C572.221 110.104 567.224 111.834 563.201 115.005C563.015 115.137 562.784 115.191 562.558 115.156C562.332 115.12 562.129 114.999 561.994 114.817C561.925 114.727 561.875 114.625 561.847 114.516C561.819 114.406 561.814 114.293 561.832 114.182C561.849 114.071 561.89 113.964 561.95 113.869C562.011 113.773 562.091 113.691 562.184 113.627Z" fill="white"/>
<path d="M551.146 176.554C556.1 174.664 560.569 171.715 564.231 167.922C567.893 164.128 570.659 159.582 572.328 154.611C566.418 160.499 559.026 164.716 551.908 164.842C551.158 164.85 550.409 164.815 549.663 164.737L551.146 176.554Z" fill="#2B2B39"/>
<path d="M540.3 92.8314C549.134 85.9623 559.047 85.67 563.898 87.2777C566.694 88.2172 571.672 93.3116 570.253 98.4685C568.833 103.626 573.854 103.667 575.421 105.86C576.989 108.052 572.477 116.299 572.477 116.299L578.662 119.284C578.662 119.284 579.531 116.821 580.992 113.605C582.454 110.39 590.525 108.219 590.525 108.219C592.287 103.194 593.112 97.8956 592.961 92.5808C592.664 83.958 576.014 66.7124 550.786 71.1804C550.786 71.1804 543.817 58.9247 536.403 60.2818C534.388 60.5692 532.553 61.5814 531.25 63.1235C529.948 64.6655 529.27 66.6282 529.349 68.6332C529.349 68.6332 520.177 62.8707 516.237 69.531C512.297 76.1912 519.88 83.2899 519.88 83.2899C519.88 83.2899 508.357 82.2042 509.056 89.1776C509.755 96.151 524.074 99.1367 524.074 99.1367C524.074 99.1367 530.069 100.786 540.3 92.8314Z" fill="#39252B"/>
<path d="M581.206 81.2227C581.206 81.2227 589.044 72.8713 593.916 76.0031C598.385 78.947 591.141 83.7699 591.141 83.7699C591.141 83.7699 598.131 82.1414 599.254 86.15C600.376 90.1587 590.781 92.8938 590.781 92.8938L581.206 81.2227Z" fill="#39252B"/>
<path d="M577.265 133.19C577.911 133.866 578.689 134.406 579.552 134.777C580.835 135.283 582.222 135.483 583.598 135.361C583.598 135.173 583.598 134.965 583.704 134.777C583.81 134.589 583.852 133.879 583.895 133.44H584.085C583.747 133.465 583.407 133.465 583.069 133.44C582.479 133.471 581.887 133.421 581.31 133.294C580.299 133.092 579.375 132.59 578.663 131.854C578.489 131.671 578.248 131.564 577.994 131.556C577.739 131.548 577.492 131.64 577.307 131.812C577.122 131.984 577.013 132.221 577.005 132.471C576.997 132.722 577.09 132.965 577.265 133.148V133.19Z" fill="#7D351D"/>
<path d="M554.133 136.279C554.133 136.279 555.489 144.631 548.625 146.447C546.791 147 544.81 146.823 543.107 145.952C541.404 145.082 540.115 143.588 539.517 141.791L554.133 136.279Z" fill="white"/>
<path d="M550.703 149.224C551.494 148.871 552.142 148.269 552.546 147.512C552.581 147.437 552.601 147.355 552.604 147.272C552.608 147.189 552.594 147.107 552.564 147.029C552.535 146.951 552.49 146.88 552.432 146.82C552.375 146.759 552.305 146.711 552.228 146.677C552.152 146.642 552.069 146.622 551.985 146.619C551.901 146.616 551.817 146.63 551.738 146.659C551.659 146.688 551.587 146.732 551.526 146.789C551.465 146.846 551.415 146.914 551.381 146.99C551.125 147.435 550.741 147.796 550.277 148.027C549.814 148.257 549.291 148.347 548.776 148.284C548.624 148.311 548.487 148.39 548.389 148.506C548.29 148.623 548.236 148.77 548.236 148.921C548.236 149.073 548.29 149.22 548.389 149.336C548.487 149.452 548.624 149.531 548.776 149.558C549.435 149.59 550.094 149.476 550.703 149.224Z" fill="#7D351D"/>
<path d="M585.039 126.738C585.219 126.665 585.372 126.541 585.479 126.38C585.585 126.22 585.638 126.031 585.632 125.84C585.442 119.138 592.602 114.67 592.665 114.628C592.773 114.564 592.866 114.479 592.94 114.38C593.014 114.28 593.067 114.166 593.097 114.046C593.127 113.926 593.132 113.801 593.112 113.679C593.092 113.556 593.049 113.439 592.983 113.334C592.844 113.123 592.628 112.973 592.379 112.914C592.131 112.856 591.869 112.894 591.648 113.02C591.331 113.229 583.493 118.094 583.726 125.882C583.726 126.006 583.751 126.129 583.801 126.243C583.85 126.357 583.923 126.461 584.014 126.546C584.105 126.632 584.213 126.699 584.331 126.743C584.449 126.786 584.575 126.806 584.7 126.8C584.817 126.802 584.932 126.781 585.039 126.738Z" fill="#7D351D"/>
<path d="M592.367 121.393C592.487 121.348 592.596 121.277 592.684 121.185C592.86 121.005 592.959 120.766 592.959 120.516C592.959 120.267 592.86 120.027 592.684 119.848C591.861 119.09 590.855 118.552 589.761 118.286C588.667 118.019 587.523 118.032 586.436 118.324C586.188 118.388 585.977 118.546 585.848 118.763C585.719 118.98 585.683 119.239 585.747 119.483C585.812 119.727 585.972 119.935 586.192 120.062C586.413 120.189 586.676 120.225 586.923 120.162C587.68 119.944 588.48 119.922 589.248 120.097C590.016 120.273 590.725 120.64 591.308 121.164C591.44 121.304 591.612 121.4 591.801 121.441C591.99 121.482 592.187 121.466 592.367 121.393Z" fill="#7D351D"/>
<path d="M544.623 135.277C544.84 135.168 545.007 134.982 545.089 134.755C545.171 134.52 545.158 134.262 545.051 134.036C544.945 133.81 544.753 133.633 544.517 133.544L538.437 131.456L542.42 128.847C542.534 128.771 542.631 128.672 542.704 128.557C542.777 128.442 542.825 128.313 542.843 128.178L544.326 116.236C544.357 115.987 544.286 115.736 544.129 115.538C543.972 115.34 543.742 115.212 543.489 115.182C543.237 115.151 542.982 115.221 542.781 115.376C542.581 115.53 542.451 115.757 542.42 116.006L541 127.51L535.79 130.914C535.643 131.011 535.526 131.146 535.451 131.304C535.377 131.463 535.347 131.638 535.366 131.811C535.385 131.987 535.456 132.153 535.568 132.29C535.681 132.427 535.831 132.529 536.001 132.584L543.797 135.382C543.933 135.427 544.079 135.441 544.222 135.423C544.365 135.405 544.502 135.355 544.623 135.277Z" fill="#7D351D"/>
<path d="M544.792 120.308C544.668 120.373 544.53 120.408 544.389 120.408C544.249 120.408 544.11 120.373 543.987 120.308C543.746 120.125 543.469 119.996 543.174 119.929C542.878 119.861 542.571 119.857 542.274 119.916C541.977 119.976 541.696 120.097 541.451 120.273C541.205 120.448 541.001 120.674 540.852 120.934C540.788 121.027 540.706 121.107 540.61 121.169C540.515 121.231 540.408 121.274 540.296 121.295C540.184 121.317 540.069 121.316 539.957 121.293C539.845 121.271 539.739 121.227 539.644 121.164C539.55 121.101 539.469 121.02 539.406 120.926C539.343 120.832 539.299 120.727 539.278 120.616C539.256 120.506 539.257 120.392 539.28 120.282C539.303 120.171 539.347 120.067 539.411 119.974C539.69 119.531 540.057 119.15 540.491 118.852C540.925 118.555 541.416 118.348 541.933 118.244C542.451 118.141 542.985 118.142 543.502 118.25C544.019 118.357 544.508 118.567 544.94 118.867C545.13 118.994 545.263 119.19 545.31 119.412C545.358 119.633 545.316 119.865 545.194 120.057C545.087 120.177 544.947 120.264 544.792 120.308Z" fill="white"/>
<path d="M560.361 109.075C560.689 108.795 560.938 108.435 561.081 108.031C561.321 107.388 561.293 106.678 561.003 106.056C560.713 105.434 560.185 104.95 559.535 104.711C559.196 104.586 551.527 101.872 546.444 107.676C546.218 107.934 546.047 108.232 545.939 108.556C545.83 108.879 545.788 109.22 545.814 109.559C545.839 109.898 545.932 110.229 546.088 110.533C546.243 110.837 546.458 111.107 546.719 111.33C546.981 111.552 547.284 111.721 547.612 111.827C547.939 111.934 548.285 111.976 548.63 111.951C548.974 111.925 549.31 111.834 549.618 111.68C549.926 111.527 550.201 111.316 550.426 111.058C551.375 110.166 552.559 109.554 553.844 109.292C555.128 109.03 556.461 109.128 557.692 109.576C558.141 109.74 558.627 109.78 559.097 109.692C559.567 109.603 560.004 109.39 560.361 109.075Z" fill="#2B2B39"/>
<path d="M529.265 115.088C529.651 115.022 530.017 114.874 530.339 114.654C530.661 114.434 530.931 114.148 531.129 113.814C532.23 111.914 535.916 111.998 536.848 112.123C537.539 112.214 538.238 112.032 538.793 111.615C539.347 111.198 539.71 110.581 539.803 109.9C539.896 109.218 539.71 108.529 539.287 107.983C538.864 107.437 538.238 107.078 537.547 106.987C534.624 106.59 529.074 106.987 526.574 111.163C526.4 111.456 526.286 111.78 526.24 112.116C526.193 112.453 526.215 112.795 526.304 113.123C526.392 113.451 526.546 113.759 526.756 114.028C526.966 114.297 527.229 114.522 527.528 114.691C528.039 115.026 528.656 115.167 529.265 115.088Z" fill="#2B2B39"/>
<path d="M686.82 381.998C686.82 381.998 635.389 400.579 578.089 399.494C555.191 399.055 547.502 391.142 547.502 391.142C546.379 396.633 541.274 399.723 534.156 403.273C534.156 403.273 599.293 425.926 652.144 413.482C694.912 417.366 686.82 381.998 686.82 381.998Z" fill="#64474B"/>
<path d="M619.249 402.877C619.249 402.877 546.635 433.756 523.61 456.848C500.182 480.294 520.39 649.201 520.39 649.201C532.747 650.333 545.167 650.633 557.566 650.099C564.217 590.7 578.96 516.602 575.761 490.567C575.761 490.567 669.071 478.749 683.264 456.138C695.973 436.011 687.903 387.719 687.903 387.719L619.249 402.877Z" fill="#64474B"/>
<path d="M600.184 407.888C586.543 415.675 572.287 422.356 558.412 429.706C545.3 436.637 532.167 443.924 523.27 456.075C518.036 463.297 514.617 471.641 513.293 480.419C513.145 481.463 514.776 481.923 514.945 480.858C516.261 472.936 519.239 465.373 523.689 458.65C528.139 451.927 533.962 446.194 540.788 441.815C552.926 433.652 566.419 427.388 579.425 420.77C586.691 417.053 593.957 413.379 601.032 409.328C601.207 409.209 601.331 409.029 601.377 408.824C601.424 408.619 601.391 408.404 601.284 408.222C601.177 408.04 601.004 407.904 600.8 407.843C600.597 407.781 600.377 407.797 600.184 407.888Z" fill="#39252B"/>
<path d="M677.966 384.921C679.636 395.937 680.718 407.032 681.207 418.16C681.207 429.81 680.169 445.573 670.383 453.653C666.04 457.286 660.067 459.374 654.771 461.232C648.191 463.456 641.495 465.331 634.711 466.848C620.667 470.105 606.39 472.444 592.092 474.386C583.936 475.513 575.739 476.473 567.52 477.267C567.297 477.272 567.084 477.362 566.926 477.517C566.769 477.673 566.678 477.882 566.672 478.102C567.827 489.815 567.827 501.611 566.672 513.324C565.783 521.905 564.046 530.34 562.436 538.816C560.826 547.857 560.106 556.897 559.28 565.959C558.22 577.63 557.013 589.259 555.869 600.909C554.619 613.666 553.37 626.423 552.565 639.221C552.565 640.307 554.217 640.286 554.28 639.221C555.7 616.255 558.517 593.184 560.635 570.197C561.546 560.468 562.139 550.717 563.813 541.071C565.19 532.991 566.884 524.953 567.922 516.811C569.429 504.195 569.571 491.457 568.346 478.812C589.803 476.919 611.114 473.669 632.148 469.082C644.561 466.326 658.309 463.341 669.154 456.555C680 449.77 681.97 435.343 682.626 423.964C683.156 414.736 681.08 393.502 679.64 384.295L677.966 384.921Z" fill="#39252B"/>
<path d="M675.489 445.114C673.51 445.086 671.547 444.769 669.663 444.174C652.4 439.059 644.244 394.17 643.821 392.249L646.617 391.769C646.617 392.228 654.878 436.867 670.489 441.502C675.489 442.984 679.344 442.441 682.246 439.81C694.828 428.432 685.529 383.543 685.444 383.104L688.219 382.52C688.622 384.441 697.921 429.434 684.152 441.877C681.799 444.021 678.693 445.182 675.489 445.114Z" fill="white"/>
<path d="M613.543 381.48L479.868 402.843C479.614 402.884 479.441 403.12 479.482 403.37L482.178 419.754C482.219 420.005 482.458 420.175 482.712 420.134L616.387 398.771C616.641 398.73 616.814 398.494 616.773 398.244L614.077 381.86C614.036 381.609 613.797 381.439 613.543 381.48Z" fill="#2B2B39"/>
<path d="M468.154 422.503C465.693 422.896 463.168 422.477 460.973 421.311C458.778 420.144 457.035 418.295 456.017 416.051L415.579 327.151C415.002 325.884 414.729 324.503 414.779 323.116C414.83 321.728 415.203 320.371 415.87 319.148C416.538 317.926 417.481 316.87 418.628 316.064C419.775 315.258 421.094 314.722 422.484 314.498L482.749 304.873C484.731 304.56 486.763 304.892 488.536 305.819C490.31 306.746 491.729 308.217 492.578 310.009L540.133 411.019L468.154 422.503Z" fill="#2B2B39"/>
<path d="M496.728 394.734L494.716 389.911L498.783 389.18L496.368 384.879L501.77 383.919L504.184 388.22L507.51 387.635L505.095 383.334L510.476 382.374L512.891 386.675L517.614 385.84L519.627 390.663L515.56 391.394L517.678 395.34L522.38 394.504L524.499 399.327L520.432 400.058L522.846 404.359L517.466 405.299L515.136 400.998L511.789 401.603L514.204 405.904L508.823 406.864L506.409 402.564L501.685 403.399L499.567 398.576L503.634 397.845L501.516 393.899L496.728 394.734ZM509.035 396.822L512.361 396.237L510.243 392.27L506.917 392.876L509.035 396.822Z" fill="#D03F23"/>
<path d="M426.848 340.617C429.834 346.338 436.825 350.2 442.48 349.261C448.136 348.321 450.276 342.997 447.31 337.193C444.345 331.389 437.333 327.61 431.677 328.549C426.022 329.489 423.861 334.896 426.848 340.617Z" fill="#F0C86A"/>
<path d="M437.734 336.65C438.327 337.798 439.217 338.738 439.704 338.571C440.191 338.404 440.106 337.485 439.513 336.358C438.92 335.23 438.03 334.27 437.543 334.437C437.056 334.604 437.141 335.502 437.734 336.65Z" fill="#2B2B39"/>
<path d="M432.395 337.528C432.989 338.676 433.878 339.615 434.365 339.469C434.853 339.323 434.768 338.384 434.175 337.235C433.582 336.087 432.692 335.147 432.205 335.314C431.718 335.482 431.802 336.4 432.395 337.528Z" fill="#2B2B39"/>
<path d="M439.62 343.958C444.005 343.227 442.692 338.613 442.692 338.571C442.647 338.441 442.566 338.327 442.457 338.241C442.348 338.156 442.216 338.104 442.077 338.091C442.021 338.084 441.963 338.092 441.91 338.113C441.857 338.135 441.811 338.169 441.775 338.212C441.739 338.256 441.715 338.308 441.705 338.364C441.695 338.419 441.699 338.476 441.717 338.529C441.717 338.696 442.819 342.454 439.154 343.06C437.897 343.133 436.641 342.894 435.501 342.365C434.361 341.836 433.374 341.034 432.63 340.033C432.549 339.924 432.437 339.842 432.309 339.798C432.18 339.753 432.041 339.748 431.91 339.782C431.698 339.782 431.677 340.137 431.91 340.367C432.143 340.596 435.214 344.709 439.62 343.958Z" fill="#2B2B39"/>
<path d="M492.555 310.009L539.707 410.226L546.592 409.119L499.439 308.903C498.593 307.112 497.178 305.641 495.409 304.715C493.639 303.788 491.611 303.455 489.632 303.766L482.726 304.873C484.708 304.557 486.741 304.887 488.516 305.814C490.29 306.741 491.708 308.214 492.555 310.009Z" fill="#2B2B39"/>
<path d="M529.753 373.313C531.906 371.331 534.553 369.945 537.425 369.296C540.297 368.647 543.291 368.758 546.106 369.617C555.956 372.582 569.025 388.659 569.025 388.659L539.221 393.419L529.753 373.313Z" fill="#C1725C"/>
<path d="M538.926 409.641C538.981 409.659 539.04 409.659 539.095 409.641C539.218 409.587 539.329 409.509 539.421 409.413C539.514 409.316 539.586 409.202 539.633 409.078C539.68 408.953 539.702 408.821 539.697 408.688C539.692 408.556 539.66 408.425 539.603 408.305L492.705 308.318C492.65 308.197 492.571 308.087 492.473 307.996C492.375 307.905 492.26 307.835 492.134 307.788C492.007 307.741 491.873 307.72 491.738 307.725C491.604 307.73 491.472 307.761 491.349 307.817C491.105 307.93 490.915 308.134 490.82 308.383C490.725 308.633 490.732 308.909 490.841 309.153L537.739 409.14C537.851 409.343 538.029 409.503 538.244 409.594C538.459 409.685 538.7 409.702 538.926 409.641Z" fill="#5F5F75"/>
<path d="M483.934 363.876C484.535 365.059 484.839 366.367 484.818 367.69C484.798 369.012 484.454 370.311 483.815 371.475C483.177 372.638 482.264 373.633 481.152 374.375C480.041 375.117 478.764 375.583 477.431 375.735C474.351 376.086 471.239 375.453 468.551 373.931C465.863 372.409 463.741 370.078 462.497 367.279C461.891 366.096 461.584 364.785 461.602 363.46C461.621 362.134 461.964 360.833 462.602 359.666C463.241 358.5 464.156 357.502 465.27 356.759C466.384 356.016 467.664 355.55 469 355.399C472.082 355.054 475.194 355.69 477.882 357.216C480.57 358.741 482.691 361.076 483.934 363.876Z" fill="#5F5F75"/>
<path d="M622.658 209.229L624.67 211.317L626.788 213.614C628.229 215.138 629.648 216.683 631.025 218.249C633.863 221.38 636.702 224.512 639.498 227.748C645.069 234.116 650.428 240.63 655.533 247.186C660.547 253.609 665.227 260.278 669.556 267.167C671.675 270.528 673.539 273.848 675.212 277.126C676.777 280.199 678.128 283.373 679.258 286.625C679.385 287.001 679.491 287.356 679.597 287.732L679.703 288.003V287.795V287.419V287.106C679.703 286.291 679.703 285.999 679.809 285.978C679.868 286.735 679.767 287.496 679.512 288.212C679.123 289.674 678.642 291.11 678.072 292.513C677.436 294.079 676.674 295.728 675.848 297.42C674.217 300.823 672.268 304.351 670.192 307.859C669.133 309.613 668.074 311.387 666.951 313.141C665.828 314.895 664.706 316.69 663.562 318.465C661.253 322.014 658.817 325.543 656.36 329.071C653.902 332.6 651.403 336.128 648.84 339.615C646.277 343.102 643.692 346.63 641.087 350.054L637.147 355.253L635.177 357.842L633.228 360.368L633.016 360.64C630.96 363.295 629.991 366.615 630.302 369.942C630.613 373.268 632.18 376.358 634.694 378.599C637.207 380.84 640.483 382.068 643.872 382.041C647.261 382.013 650.516 380.731 652.991 378.449L655.597 376.069L658.139 373.73L663.096 368.97C666.4 365.776 669.62 362.519 672.818 359.22C676.017 355.921 679.173 352.56 682.266 349.136C685.359 345.711 688.43 342.204 691.438 338.696C692.942 336.901 694.446 335.084 695.929 333.226C697.412 331.368 698.852 329.468 700.292 327.547C703.152 323.685 705.991 319.676 708.765 315.333C710.1 313.141 711.413 310.865 712.684 308.423C714.05 305.826 715.266 303.157 716.328 300.426C717.665 296.982 718.583 293.394 719.06 289.736C719.362 287.163 719.362 284.564 719.06 281.99C719.06 281.636 719.06 281.218 718.891 280.842C718.721 280.466 718.764 280.07 718.679 279.652L718.552 279.047L718.446 278.608L718.34 278.065C718.149 277.376 718.001 276.646 717.81 275.977C716.406 270.734 714.615 265.598 712.451 260.611C710.375 255.823 708.144 251.271 705.758 246.956C701.063 238.497 695.864 230.319 690.188 222.466C684.66 214.72 678.834 207.371 672.797 200.21C669.747 196.66 666.697 193.132 663.519 189.77C661.931 188.037 660.342 186.325 658.711 184.613L656.232 182.066L653.585 179.394C649.559 175.657 644.236 173.58 638.706 173.588C633.177 173.597 627.86 175.691 623.847 179.441C619.834 183.19 617.429 188.312 617.125 193.754C616.821 199.196 618.642 204.546 622.213 208.707L622.658 209.229Z" fill="#C1725C"/>
<path d="M686.95 277.856C685.446 279.504 684.093 281.278 682.904 283.159C682.795 283.342 682.763 283.56 682.817 283.766C682.87 283.971 683.005 284.147 683.19 284.255C683.375 284.363 683.597 284.394 683.805 284.342C684.014 284.289 684.193 284.156 684.302 283.974C685.413 282.202 686.682 280.532 688.094 278.984C688.793 278.232 687.649 277.105 686.95 277.856Z" fill="#7D351D"/>
<path d="M679.664 286.207C683.136 282.665 687.848 280.56 692.839 280.319C693.856 280.319 693.898 281.823 692.839 281.885C688.266 282.1 683.947 284.027 680.765 287.272C680.045 288.003 678.901 286.917 679.621 286.207H679.664Z" fill="#7D351D"/>
<path d="M651.447 367.655C652.486 370.841 652.235 374.299 650.747 377.307C649.259 380.315 646.648 382.64 643.461 383.794C640.001 385.005 636.777 386.792 633.929 389.076C628.125 394.317 622.744 402.063 619.101 403.879C613.657 406.572 615.5 400.371 615.817 399.703C617.687 395.982 619.81 392.389 622.172 388.951C622.172 388.951 612.238 397.762 610.035 402.459C607.832 407.157 603.235 408.305 602.748 402.752C602.26 397.198 611.221 385.255 614.525 382.604C610.085 384.973 606.375 388.478 603.786 392.751C600.566 399.014 598.575 400.852 596.16 402.417C593.745 403.983 591.055 398.91 595.757 390.266C598.516 384.614 602.947 379.919 608.467 376.8C605.119 377.64 601.863 378.8 598.744 380.265C592.855 382.917 589.742 390.454 585.886 390.371C582.031 390.287 585.886 381.727 590.123 377.99C594.359 374.252 597.283 371.183 604.252 368.845C610.142 366.642 616.247 365.04 622.469 364.064C626.981 363.646 642.804 360.097 648.375 363.458C649.848 364.477 650.93 365.955 651.447 367.655Z" fill="#C1725C"/>
<path d="M634.922 362.539C634.922 362.539 621.513 359.157 617.023 360.451C612.532 361.746 605.075 361.224 605.669 364.251C606.262 367.278 615.434 367.654 615.434 367.654L634.922 362.539Z" fill="#C1725C"/>
<path d="M611.219 205.93C613.549 216.641 633.037 230.4 643.459 242.927C643.904 243.449 647.06 246.727 647.484 247.248C649.838 249.924 651.964 252.787 653.839 255.809C671.039 245.244 679.512 238.73 686.905 226.996C687.265 226.412 687.625 225.827 687.964 225.243C690.249 221.353 691.873 217.122 692.773 212.715C683.025 198.74 670.779 186.628 656.635 176.972L654.792 175.74C649.76 172.322 644.421 169.366 638.841 166.908C633.237 168.594 628.005 171.307 623.42 174.905C622.87 175.322 622.361 175.761 621.853 176.22C613.02 184.028 608.847 194.885 611.219 205.93Z" fill="#6059C9"/>
<path d="M662.081 204.928C668.435 214.072 677.692 220.795 687.013 226.996C687.373 226.412 687.733 225.827 688.072 225.242C679.493 219.563 671.126 213.404 664.771 205.22C658.416 197.036 654.963 186.826 656.679 176.909L654.836 175.677C652.824 185.74 656.107 196.451 662.081 204.928Z" fill="#9F9FFB"/>
<path d="M642.676 241.403C643.246 241.868 643.778 242.377 644.265 242.927C647.294 233.678 645.345 222.695 642.761 213.321C638.906 199.52 633.483 185.511 623.527 174.842C623.082 174.362 622.616 173.882 622.15 173.422C621.218 172.483 619.799 173.965 620.731 174.905L621.959 176.157C631.131 185.97 636.342 198.748 640.049 211.442C642.74 220.587 645.387 231.945 642.676 241.403Z" fill="#9F9FFB"/>
<path d="M620.646 214.365C631.138 228.673 642.054 242.676 653.394 256.372C654.03 257.145 655.152 256.038 654.517 255.266C643.22 241.667 632.381 227.748 622.002 213.509C621.409 212.694 620.032 213.509 620.646 214.302V214.365Z" fill="#322380"/>
<path d="M623.612 226.934L633.505 231.11C634.437 231.506 635.242 230.149 634.31 229.753L624.417 225.577C623.485 225.201 622.68 226.537 623.612 226.934Z" fill="#322380"/>
<path d="M540.556 290.133C537.287 270.275 530.588 251.116 520.751 233.489C520.263 232.612 518.887 233.489 519.374 234.283C529.161 251.822 535.81 270.891 539.031 290.655C539.201 291.636 540.726 291.218 540.556 290.237V290.133Z" fill="#322380"/>
</svg>
