<svg width="9" height="14" viewBox="0 0 9 14" fill="none" xmlns="http://www.w3.org/2000/svg">
<path d="M4.105 5.04931C4.51833 4.96319 4.96666 4.87708 5.39722 4.87708C7.48167 4.87708 8.96278 6.53097 8.96278 8.54597C8.96278 11.4226 7.37889 13.3176 4.39833 13.3176C3.17555 13.3176 0.608887 12.5249 0.608887 11.0093C0.608887 10.3721 1.14278 9.83875 1.78 9.83875C2.46889 9.83875 3.29611 10.941 4.45 10.941C5.65555 10.941 6.27667 9.76931 6.27667 8.68431C6.27667 7.65097 5.69055 6.94486 4.62278 6.94486C3.62333 6.94486 3.46833 7.51319 2.59 7.51319C1.91833 7.51319 1.57389 6.99653 1.57389 6.70375C1.57389 6.47986 1.60833 6.30764 1.62555 6.11819L2.05555 2.48264C2.245 1.13931 2.57222 0.846527 3.39889 0.846527H7.55C8.34333 0.846527 8.80778 1.31153 8.80778 1.93153C8.80778 3.12042 7.91278 3.22375 7.60222 3.22375H4.36389L4.105 5.04931Z" fill="white"/>
</svg>
