<svg width="18" height="18" viewBox="0 0 18 18" fill="none" xmlns="http://www.w3.org/2000/svg">
<path d="M12.7498 15.7499V14.2499C12.7498 12.5931 11.4066 11.2499 9.74976 11.2499H3.74976C2.0929 11.2499 0.749756 12.5931 0.749756 14.2499V15.7499" stroke="#333333" stroke-width="1.22693" stroke-linecap="round" stroke-linejoin="round"/>
<path fill-rule="evenodd" clip-rule="evenodd" d="M6.74976 8.24994C8.40661 8.24994 9.74975 6.90679 9.74975 5.24994C9.74975 3.59308 8.40661 2.24994 6.74976 2.24994C5.0929 2.24994 3.74976 3.59308 3.74976 5.24994C3.74976 6.90679 5.0929 8.24994 6.74976 8.24994Z" stroke="#333333" stroke-width="1.22693" stroke-linecap="round" stroke-linejoin="round"/>
<path d="M17.25 15.7499V14.2499C17.249 12.8828 16.3237 11.6892 15 11.3474" stroke="#333333" stroke-width="1.22693" stroke-linecap="round" stroke-linejoin="round"/>
<path d="M12 2.34747C13.3274 2.68735 14.2559 3.88347 14.2559 5.25372C14.2559 6.62398 13.3274 7.8201 12 8.15997" stroke="#333333" stroke-width="1.22693" stroke-linecap="round" stroke-linejoin="round"/>
</svg>
