<svg width="16" height="16" viewBox="0 0 16 16" fill="none" xmlns="http://www.w3.org/2000/svg">
<path d="M13.7143 6.8569C13.7142 5.4883 13.3046 4.15103 12.5382 3.01716C11.7718 1.8833 10.6836 1.0047 9.41374 0.494439C8.14386 -0.0158267 6.75034 -0.134422 5.41249 0.153912C4.07465 0.442247 2.85368 1.12432 1.9067 2.11237C0.959713 3.10042 0.330036 4.34924 0.098689 5.69814C-0.132658 7.04704 0.0449075 8.43432 0.608539 9.68146C1.17217 10.9286 2.09608 11.9786 3.26139 12.6962C4.4267 13.4139 5.78009 13.7664 7.14743 13.7085C7.01785 13.3406 6.9308 12.9591 6.888 12.5713H6.85715C5.72697 12.5713 4.62217 12.2362 3.68246 11.6083C2.74275 10.9804 2.01034 10.0879 1.57784 9.04372C1.14533 7.99954 1.03217 6.85056 1.25266 5.74207C1.47315 4.63357 2.01738 3.61536 2.81654 2.81618C3.61569 2.017 4.63388 1.47275 5.74234 1.25226C6.85081 1.03177 7.99976 1.14493 9.04391 1.57744C10.0881 2.00996 10.9805 2.74239 11.6084 3.68212C12.2363 4.62186 12.5714 5.72669 12.5714 6.8569V6.88775C12.9657 6.93233 13.3463 7.02033 13.7086 7.14719C13.712 7.05119 13.7143 6.95404 13.7143 6.8569Z" fill="#616061"/>
<path d="M6.98514 10.8547C7.08114 10.4341 7.22743 10.033 7.41943 9.65926C6.93136 9.75806 6.42592 9.72722 5.95349 9.56981C5.48105 9.41239 5.05813 9.1339 4.72686 8.76209C4.62426 8.65567 4.48441 8.59315 4.33668 8.58767C4.18896 8.58219 4.04486 8.63417 3.93465 8.73269C3.82444 8.83122 3.7567 8.96862 3.74566 9.11603C3.73462 9.26345 3.78113 9.40941 3.87543 9.52326C4.26456 9.95918 4.74464 10.3044 5.28177 10.5344C5.8189 10.7645 6.40113 10.8738 6.98514 10.8547Z" fill="#616061"/>
<path d="M5.71429 5.71401C5.71429 5.94134 5.62398 6.15937 5.46324 6.32012C5.30249 6.48087 5.08447 6.57118 4.85715 6.57118C4.62982 6.57118 4.4118 6.48087 4.25105 6.32012C4.09031 6.15937 4 5.94134 4 5.71401C4 5.48667 4.09031 5.26865 4.25105 5.1079C4.4118 4.94715 4.62982 4.85684 4.85715 4.85684C5.08447 4.85684 5.30249 4.94715 5.46324 5.1079C5.62398 5.26865 5.71429 5.48667 5.71429 5.71401Z" fill="#616061"/>
<path d="M8.85715 6.57118C9.08447 6.57118 9.30249 6.48087 9.46324 6.32012C9.62398 6.15937 9.71429 5.94134 9.71429 5.71401C9.71429 5.48667 9.62398 5.26865 9.46324 5.1079C9.30249 4.94715 9.08447 4.85684 8.85715 4.85684C8.62982 4.85684 8.4118 4.94715 8.25105 5.1079C8.09031 5.26865 8 5.48667 8 5.71401C8 5.94134 8.09031 6.15937 8.25105 6.32012C8.4118 6.48087 8.62982 6.57118 8.85715 6.57118Z" fill="#616061"/>
<path d="M16 11.9999C16 13.0608 15.5786 14.0782 14.8284 14.8284C14.0783 15.5786 13.0609 16 12 16C10.9391 16 9.92172 15.5786 9.17157 14.8284C8.42143 14.0782 8 13.0608 8 11.9999C8 10.939 8.42143 9.92156 9.17157 9.17139C9.92172 8.42122 10.9391 7.99978 12 7.99978C13.0609 7.99978 14.0783 8.42122 14.8284 9.17139C15.5786 9.92156 16 10.939 16 11.9999ZM12.5714 9.71412C12.5714 9.56256 12.5112 9.41721 12.4041 9.31004C12.2969 9.20288 12.1516 9.14267 12 9.14267C11.8484 9.14267 11.7031 9.20288 11.5959 9.31004C11.4888 9.41721 11.4286 9.56256 11.4286 9.71412V11.4284H9.71429C9.56274 11.4284 9.41739 11.4887 9.31023 11.5958C9.20306 11.703 9.14286 11.8483 9.14286 11.9999C9.14286 12.1514 9.20306 12.2968 9.31023 12.404C9.41739 12.5111 9.56274 12.5713 9.71429 12.5713H11.4286V14.2857C11.4286 14.4372 11.4888 14.5826 11.5959 14.6897C11.7031 14.7969 11.8484 14.8571 12 14.8571C12.1516 14.8571 12.2969 14.7969 12.4041 14.6897C12.5112 14.5826 12.5714 14.4372 12.5714 14.2857V12.5713H14.2857C14.4373 12.5713 14.5826 12.5111 14.6898 12.404C14.7969 12.2968 14.8571 12.1514 14.8571 11.9999C14.8571 11.8483 14.7969 11.703 14.6898 11.5958C14.5826 11.4887 14.4373 11.4284 14.2857 11.4284H12.5714V9.71412Z" fill="#616061"/>
</svg>
