<svg width="24" height="24" viewBox="0 0 24 24" fill="none" xmlns="http://www.w3.org/2000/svg">
<path d="M12 18.75C11.59 18.75 11.25 18.41 11.25 18V15C11.25 14.59 11.59 14.25 12 14.25C12.41 14.25 12.75 14.59 12.75 15V18C12.75 18.41 12.41 18.75 12 18.75Z" fill="#090809"/>
<path d="M17.6 22.56H6.39999C4.57999 22.56 2.91999 21.16 2.61999 19.37L1.28999 11.4C1.06999 10.16 1.67999 8.57 2.66999 7.78L9.59999 2.23C10.94 1.15 13.05 1.16 14.4 2.24L21.33 7.78C22.31 8.57 22.91 10.16 22.71 11.4L21.38 19.36C21.08 21.13 19.38 22.56 17.6 22.56ZM11.99 2.93C11.46 2.93 10.93 3.09 10.54 3.4L3.60999 8.96C3.04999 9.41 2.64999 10.45 2.76999 11.16L4.09999 19.12C4.27999 20.17 5.32999 21.06 6.39999 21.06H17.6C18.67 21.06 19.72 20.17 19.9 19.11L21.23 11.15C21.34 10.45 20.94 9.39 20.39 8.95L13.46 3.41C13.06 3.09 12.52 2.93 11.99 2.93Z" fill="#090809"/>
</svg>
