<svg xmlns="http://www.w3.org/2000/svg" xmlns:xlink="http://www.w3.org/1999/xlink" width="20" height="20" viewBox="0 0 48 48">
    <defs><linearGradient id="4" x1="408.46" y1="547.81" x2="408.47" y2="546.59" gradientUnits="userSpaceOnUse"><stop stop-color="#151515"/><stop offset="1" stop-color="#393939"/></linearGradient><linearGradient id="3" y1="546.42" x2="0" y2="538.46" gradientUnits="userSpaceOnUse" gradientTransform="matrix(1.16667 0 0 1.09091-68.1-49.8)"><stop stop-color="#151515"/><stop offset="1" stop-color="#272727"/></linearGradient><linearGradient id="5" x1="420.91" y1="537.32" x2="419.39" y2="504.79" gradientUnits="userSpaceOnUse"><stop stop-color="#151515"/><stop offset="1" stop-color="#2e2e2e"/></linearGradient><linearGradient gradientUnits="userSpaceOnUse" y2="506.05" x2="407.33" y1="534.91" x1="408.33" id="2" gradientTransform="matrix(1.0057 0 0 1.05112-2.32-26.332)"><stop stop-color="#08f"/><stop offset="1" stop-color="#02c3ff"/></linearGradient><linearGradient gradientUnits="userSpaceOnUse" y2="503.88" x2="408.78" y1="538.93" x1="408.71" id="1"><stop stop-color="#141414"/><stop offset="1" stop-color="#2d2d2f"/></linearGradient><linearGradient id="0"><stop stop-color="#2e5d89"/><stop offset="1" stop-color="#1b92f4"/></linearGradient><linearGradient y2="538.3" x2="473.2" y1="523.3" x1="458.2" gradientUnits="userSpaceOnUse" xlink:href="#0"/><linearGradient xlink:href="#0" gradientUnits="userSpaceOnUse" x1="399.12" y1="510.8" x2="416.84" y2="528.53"/></defs><g transform="matrix(.91618 0 0 .91618-350.32-457.65)"><g transform="translate(0 .106)"><path d="m401.57 535.8v7.636 2.182 2.182h14v-2.182-2.182-7.636z" fill="url(#3)"/><rect y="546.72" x="398.74" height="1.177" width="19.669" fill="url(#4)" rx=".588"/></g><g transform="translate(0-.036)" fill-rule="evenodd"><rect width="52" height="35.14" x="382.57" y="503.66" fill="url(#1)" stroke="url(#5)" stroke-linejoin="round" stroke-linecap="round" stroke-width=".392" rx=".958"/><rect width="48.1" height="31.697" x="384.52" y="505.29" fill="#fff" rx=".526"/></g></g></svg>