<svg width="25" height="24" viewBox="0 0 25 24" fill="none" xmlns="http://www.w3.org/2000/svg">
<path fill-rule="evenodd" clip-rule="evenodd" d="M20.7416 12.2042C20.7416 11.566 20.6843 10.9524 20.5779 10.3633H12.1016V13.8446H16.9452C16.7366 14.9696 16.1025 15.9228 15.1493 16.561V18.8192H18.0579C19.7597 17.2524 20.7416 14.9451 20.7416 12.2042Z" fill="#4285F4"/>
<path fill-rule="evenodd" clip-rule="evenodd" d="M12.1013 21C14.5313 21 16.5686 20.194 18.0577 18.8195L15.149 16.5613C14.3431 17.1013 13.3122 17.4204 12.1013 17.4204C9.75723 17.4204 7.77314 15.8372 7.06541 13.71H4.05859V16.0418C5.5395 18.9831 8.58314 21 12.1013 21Z" fill="#34A853"/>
<path fill-rule="evenodd" clip-rule="evenodd" d="M7.06565 13.7098C6.88565 13.1698 6.78338 12.593 6.78338 11.9998C6.78338 11.4066 6.88565 10.8298 7.06565 10.2898V7.95801H4.05884C3.44929 9.17301 3.10156 10.5476 3.10156 11.9998C3.10156 13.4521 3.44929 14.8266 4.05884 16.0416L7.06565 13.7098Z" fill="#FBBC05"/>
<path fill-rule="evenodd" clip-rule="evenodd" d="M12.1013 6.57955C13.4227 6.57955 14.609 7.03364 15.5418 7.92546L18.1231 5.34409C16.5645 3.89182 14.5272 3 12.1013 3C8.58314 3 5.5395 5.01682 4.05859 7.95818L7.06541 10.29C7.77314 8.16273 9.75723 6.57955 12.1013 6.57955Z" fill="#EA4335"/>
<rect x="0.601562" y="0.5" width="23" height="23" stroke="black"/>
</svg>
