<svg width="181" height="52" viewBox="0 0 181 52" fill="none" xmlns="http://www.w3.org/2000/svg">
<path d="M81.4372 14.18C81.4372 14.4867 81.3839 14.8 81.2772 15.12C81.1839 15.4267 81.0439 15.7133 80.8572 15.98L66.5372 36.3H81.0372V41H58.8372V38.66C58.8372 38.38 58.8839 38.1067 58.9772 37.84C59.0705 37.56 59.2039 37.3067 59.3772 37.08L73.7372 16.68H59.8572V11.98H81.4372V14.18ZM106.846 36.2C107.82 36.2 108.693 36.04 109.466 35.72C110.24 35.3867 110.893 34.92 111.426 34.32C111.96 33.72 112.366 32.9933 112.646 32.14C112.926 31.2867 113.066 30.3267 113.066 29.26V11.98H119.066V29.26C119.066 31.02 118.78 32.64 118.206 34.12C117.646 35.5867 116.84 36.8533 115.786 37.92C114.733 38.9867 113.453 39.82 111.946 40.42C110.44 41.02 108.74 41.32 106.846 41.32C104.953 41.32 103.246 41.02 101.726 40.42C100.22 39.82 98.9396 38.9867 97.8863 37.92C96.8329 36.8533 96.0196 35.5867 95.4463 34.12C94.8863 32.64 94.6063 31.02 94.6063 29.26V11.98H100.606V29.26C100.606 30.3267 100.746 31.2867 101.026 32.14C101.306 32.9933 101.713 33.72 102.246 34.32C102.78 34.92 103.433 35.3867 104.206 35.72C104.98 36.04 105.86 36.2 106.846 36.2ZM143.343 25.72C144.316 25.72 145.156 25.6 145.863 25.36C146.57 25.1067 147.15 24.7667 147.603 24.34C148.056 23.9 148.39 23.3867 148.603 22.8C148.816 22.2133 148.923 21.5733 148.923 20.88C148.923 19.5067 148.463 18.44 147.543 17.68C146.636 16.92 145.25 16.54 143.383 16.54H140.263V25.72H143.343ZM157.403 41H151.983C150.97 41 150.236 40.6133 149.783 39.84L144.263 30.94C144.036 30.5933 143.783 30.34 143.503 30.18C143.236 30.02 142.836 29.94 142.303 29.94H140.263V41H134.263V11.98H143.383C145.41 11.98 147.143 12.1933 148.583 12.62C150.023 13.0333 151.203 13.6133 152.123 14.36C153.043 15.1067 153.716 16 154.143 17.04C154.57 18.0667 154.783 19.2 154.783 20.44C154.783 21.4 154.643 22.3133 154.363 23.18C154.096 24.0333 153.703 24.8133 153.183 25.52C152.663 26.2267 152.023 26.8533 151.263 27.4C150.503 27.9467 149.636 28.3867 148.663 28.72C149.05 28.9333 149.41 29.1933 149.743 29.5C150.076 29.7933 150.376 30.1467 150.643 30.56L157.403 41ZM175.772 41H169.732V11.98H175.772V41Z" fill="#393939"/>
<rect x="6.30078" width="18.9016" height="19.8545" rx="1.0991" fill="#00B87C"/>
<rect y="22.6904" width="18.9016" height="19.8545" rx="1.0991" fill="#FEA162"/>
<rect x="27.9023" y="9.45508" width="18.9016" height="19.8545" rx="1.0991" fill="#1A61DB"/>
<rect x="21.6016" y="32.1455" width="18.9016" height="19.8545" rx="1.0991" fill="#DC1AA3"/>
</svg>
