<svg width="100" height="100" viewBox="0 0 100 100" fill="none" xmlns="http://www.w3.org/2000/svg">
<g clip-path="url(#clip0)">
<path d="M89.0353 90.6318C73.7335 103.123 25.9546 103.123 10.9651 90.6318C-4.3367 78.1405 -2.77532 24.7405 10.9651 10.6879C24.7055 -3.36472 75.2949 -3.36472 89.0353 10.6879C102.776 24.7405 104.337 78.1407 89.0353 90.6318Z" fill="#27AE60"/>
<g opacity="0.2">
<path opacity="0.5" d="M50.3123 68.7719C36.5719 79.7018 21.2702 85.3228 6.9053 85.6351C-3.71233 67.5228 -1.52627 23.4913 10.965 10.6878C22.2071 -0.866505 57.4948 -3.05257 77.7931 4.12986C82.7895 24.7404 72.4843 50.9719 50.3123 68.7719Z" fill="white"/>
</g>
<path d="M42.8172 77.8282C40.6311 77.8282 38.4453 76.8913 37.1961 75.0176L19.7085 52.5334C17.2102 49.4107 17.8349 45.0388 20.9577 42.5405C24.0804 40.0422 28.4523 40.6669 30.9506 43.7896L42.8172 59.0914L69.0488 25.0529C71.5471 21.9301 75.919 21.3054 79.0418 23.8037C82.1645 26.302 82.7892 30.6739 80.2909 33.7967L48.4382 75.0176C46.8769 76.579 45.0032 77.8282 42.8172 77.8282Z" fill="white"/>
</g>
<defs>
<clipPath id="clip0">
<rect width="100" height="100" fill="white"/>
</clipPath>
</defs>
</svg>
