<svg width="281" height="190" viewBox="0 0 281 190" fill="none" xmlns="http://www.w3.org/2000/svg">
<path d="M214.595 178.385C215.59 171.97 211.443 165.922 205.331 164.877C199.22 163.833 193.458 168.186 192.463 174.601C191.468 181.016 195.615 187.064 201.727 188.109C207.838 189.153 213.6 184.8 214.595 178.385Z" fill="#2097F7"/>
<path d="M215.5 179C219.918 179 223.5 175.194 223.5 170.5C223.5 165.806 219.918 162 215.5 162C211.082 162 207.5 165.806 207.5 170.5C207.5 175.194 211.082 179 215.5 179Z" fill="#2097F7"/>
<path d="M132.16 24.8525C136.799 10.3373 133.075 0 121.756 0C114.637 0 105.806 4.0705 97.2051 10.6887C96.2352 6.91106 93.4992 4.65618 89.0979 4.65618C81.3475 4.65618 70.669 11.6453 62.2964 21.5043C59.9391 19.1152 56.8184 17.7717 53.5669 17.7462C46.146 17.2972 37.1694 21.3189 29.3642 27.8492C28.9731 27.2653 28.4567 26.7896 27.8582 26.4619C27.2597 26.1342 26.5964 25.9639 25.9236 25.9653C21.6504 25.7115 15.8582 29.7722 12.9941 35.0239C12.8203 35.346 12.6647 35.6681 12.5 36H134.411C134.777 31.4121 134.017 27.5857 132.16 24.8525Z" fill="#2097F7"/>
<path d="M133.286 111.733C135.57 104.88 133.756 100 128.175 100C124.667 100 120.33 101.888 116.103 105.05C115.876 104.169 115.349 103.4 114.618 102.881C113.888 102.362 113 102.127 112.116 102.218C108.313 102.218 103.064 105.522 98.9389 110.185C97.7825 109.053 96.2469 108.418 94.6478 108.41C90.9645 108.193 86.5905 110.091 82.7506 113.177C82.5645 112.904 82.3183 112.68 82.0319 112.523C81.7456 112.365 81.4272 112.279 81.1024 112.271C79.0029 112.148 76.1575 114.064 74.7486 116.547L74.5 117H134.428C134.678 115.161 134.273 113.29 133.286 111.733Z" fill="#F0F0F0"/>
<path d="M271.291 58.5547C270.818 58.4854 270.342 58.4502 269.866 58.4491C270.307 51.4933 267.761 47.0416 262.309 47.0416C258.384 47.0416 253.558 49.3634 248.649 53.2874C250.056 39.7787 245.551 31 235.348 31C227.13 31 216.714 36.7565 206.428 46.0246C205.509 40.7286 202.494 37.5433 197.401 37.5433C188.457 37.5433 175.743 47.3678 165.549 61.2219C164.387 59.6243 162.897 58.3186 161.189 57.4005C159.481 56.4824 157.597 55.9752 155.676 55.9163C147.164 55.2926 136.583 60.934 127.179 70.1253C126.837 69.3503 126.292 68.6916 125.608 68.2249C124.923 67.7582 124.127 67.5024 123.309 67.4869C118.649 67.1415 112.278 72.2169 108.5 79H278.782C282.781 68.715 279.601 59.7156 271.291 58.5547Z" fill="#2097F7"/>
<path d="M0.5 62L210.342 93.4338L238.5 123L0.5 62Z" fill="#F1F1F1"/>
<path opacity="0.6" d="M0.5 62L210.342 93.4338L238.5 123L0.5 62Z" fill="#2097F7"/>
<path d="M0.5 62L210.5 93.7777L200.754 137L0.5 62Z" fill="#CCCCCC"/>
<path d="M196.23 11.7522L208.375 71.4638C208.69 73.023 208.404 74.6501 207.578 75.9879C206.752 77.3258 205.454 78.2653 203.968 78.6003L95.5787 102.87C94.0928 103.199 92.5433 102.897 91.2687 102.031C89.9942 101.165 89.0983 99.8045 88.7768 98.2474L76.6233 38.5358C76.3102 36.9754 76.5989 35.3484 77.4264 34.011C78.2539 32.6735 79.5527 31.7344 81.0386 31.3993L189.428 7.12939C190.916 6.80084 192.466 7.10381 193.741 7.97201C195.016 8.8402 195.911 10.2029 196.23 11.7618V11.7522Z" fill="#00B87C"/>
<path d="M129.879 59.1551L82.4127 33.853L188.841 9.81495L155.312 53.377C155.312 53.3771 155.312 53.3772 155.312 53.3773C152.297 57.2931 148.131 59.9755 143.521 61.0171C138.914 62.0582 134.104 61.4061 129.88 59.1553C129.88 59.1552 129.879 59.1552 129.879 59.1551Z" fill="white" stroke="#00B87C" stroke-width="5"/>
<path d="M0.5 62L173.489 105.271L200.5 137L0.5 62Z" fill="white"/>
<path opacity="0.6" d="M0.5 62L173.489 105.271L200.5 137L0.5 62Z" fill="#2097F7"/>
<path d="M63.6893 103.427L63.2236 104.262L82.5008 116.114L82.9664 115.28L63.6893 103.427Z" fill="#00B87C"/>
<path d="M91.4774 120.505L91.0117 121.339L97.9435 125.601L98.4092 124.767L91.4774 120.505Z" fill="#00B87C"/>
<path d="M0.5 62L173.5 105.31L139.872 148L0.5 62Z" fill="#CCCCCC" fill-opacity="0.75"/>
<path d="M232.647 163C232.413 163.001 232.18 162.953 231.963 162.861L203.658 150.828C203.205 150.632 202.843 150.251 202.65 149.77C202.457 149.288 202.45 148.744 202.629 148.256C202.809 147.768 203.161 147.377 203.608 147.166C204.055 146.956 204.562 146.945 205.017 147.134L233.331 159.168C233.731 159.338 234.064 159.653 234.271 160.058C234.479 160.463 234.548 160.934 234.467 161.388C234.386 161.842 234.16 162.252 233.827 162.546C233.495 162.841 233.077 163.001 232.647 163Z" fill="#00B87C"/>
<rect width="11.0903" height="11.4003" rx="1.0991" transform="matrix(0.505929 -0.862575 0.84012 0.5424 115.61 122.024)" fill="#00B87C"/>
<rect width="11.0903" height="11.4003" rx="1.0991" transform="matrix(0.505929 -0.862575 0.84012 0.5424 124.686 132.279)" fill="#FEA162"/>
<rect width="11.0903" height="11.4003" rx="1.0991" transform="matrix(0.505929 -0.862575 0.84012 0.5424 126.584 114.036)" fill="#1A61DB"/>
<rect width="11.0903" height="11.4003" rx="1.0991" transform="matrix(0.505929 -0.862575 0.84012 0.5424 135.659 124.291)" fill="#DC1AA3"/>
<path opacity="0.3" d="M232.647 163C232.413 163.001 232.18 162.953 231.963 162.861L203.658 150.828C203.205 150.632 202.843 150.251 202.65 149.77C202.457 149.288 202.45 148.744 202.629 148.256C202.809 147.768 203.161 147.377 203.608 147.166C204.055 146.956 204.562 146.945 205.017 147.134L233.331 159.168C233.731 159.338 234.064 159.653 234.271 160.058C234.479 160.463 234.548 160.934 234.467 161.388C234.386 161.842 234.16 162.252 233.827 162.546C233.495 162.841 233.077 163.001 232.647 163Z" fill="black"/>
<path d="M230.636 146C230.403 145.999 230.173 145.95 229.958 145.858L214.686 139.658C214.458 139.568 214.249 139.433 214.072 139.26C213.895 139.087 213.754 138.881 213.656 138.652C213.558 138.423 213.505 138.177 213.5 137.927C213.496 137.678 213.54 137.43 213.63 137.197C213.72 136.965 213.854 136.753 214.025 136.574C214.195 136.395 214.399 136.252 214.624 136.154C214.849 136.055 215.091 136.003 215.336 136C215.581 135.997 215.824 136.044 216.051 136.137L231.323 142.309C231.781 142.492 232.148 142.853 232.345 143.313C232.542 143.773 232.552 144.293 232.372 144.76C232.242 145.123 232.005 145.436 231.695 145.657C231.384 145.879 231.015 145.999 230.636 146Z" fill="#00B87C"/>
<path opacity="0.5" d="M230.636 146C230.403 145.999 230.173 145.95 229.958 145.858L214.686 139.658C214.458 139.568 214.249 139.433 214.072 139.26C213.895 139.087 213.754 138.881 213.656 138.652C213.558 138.423 213.505 138.177 213.5 137.927C213.496 137.678 213.54 137.43 213.63 137.197C213.72 136.965 213.854 136.753 214.025 136.574C214.195 136.395 214.399 136.252 214.624 136.154C214.849 136.055 215.091 136.003 215.336 136C215.581 135.997 215.824 136.044 216.051 136.137L231.323 142.309C231.781 142.492 232.148 142.853 232.345 143.313C232.542 143.773 232.552 144.293 232.372 144.76C232.242 145.123 232.005 145.436 231.695 145.657C231.384 145.879 231.015 145.999 230.636 146Z" fill="white"/>
<path d="M198.666 163C198.437 162.997 198.211 162.949 197.998 162.859L170.669 150.898C170.444 150.802 170.238 150.657 170.064 150.473C169.89 150.289 169.75 150.069 169.653 149.825C169.557 149.582 169.505 149.319 169.5 149.053C169.496 148.787 169.539 148.523 169.628 148.276C169.717 148.028 169.849 147.803 170.017 147.612C170.185 147.421 170.386 147.269 170.608 147.164C170.829 147.059 171.068 147.003 171.309 147C171.55 146.997 171.79 147.047 172.014 147.146L199.343 159.067C199.739 159.239 200.068 159.559 200.274 159.971C200.479 160.383 200.548 160.861 200.467 161.322C200.387 161.784 200.163 162.2 199.834 162.499C199.505 162.798 199.092 162.961 198.666 162.96V163Z" fill="#00B87C"/>
<path opacity="0.3" d="M198.666 163C198.437 162.997 198.211 162.949 197.998 162.859L170.669 150.898C170.444 150.802 170.238 150.657 170.064 150.473C169.89 150.289 169.75 150.069 169.653 149.825C169.557 149.582 169.505 149.319 169.5 149.053C169.496 148.787 169.539 148.523 169.628 148.276C169.717 148.028 169.849 147.803 170.017 147.612C170.185 147.421 170.386 147.269 170.608 147.164C170.829 147.059 171.068 147.003 171.309 147C171.55 146.997 171.79 147.047 172.014 147.146L199.343 159.067C199.739 159.239 200.068 159.559 200.274 159.971C200.479 160.383 200.548 160.861 200.467 161.322C200.387 161.784 200.163 162.2 199.834 162.499C199.505 162.798 199.092 162.961 198.666 162.96V163Z" fill="black"/>
</svg>
