<svg width="18" height="18" viewBox="0 0 18 18" fill="none" xmlns="http://www.w3.org/2000/svg">
<path fill-rule="evenodd" clip-rule="evenodd" d="M8.99988 10.5C9.82831 10.5 10.4999 9.82843 10.4999 9C10.4999 8.17157 9.82831 7.5 8.99988 7.5C8.17145 7.5 7.49988 8.17157 7.49988 9C7.49988 9.82843 8.17145 10.5 8.99988 10.5Z" stroke="#616061" stroke-width="1.22693" stroke-linecap="round" stroke-linejoin="round"/>
<path fill-rule="evenodd" clip-rule="evenodd" d="M8.99988 4.5C9.82831 4.5 10.4999 3.82843 10.4999 3C10.4999 2.17157 9.82831 1.5 8.99988 1.5C8.17145 1.5 7.49988 2.17157 7.49988 3C7.49988 3.82843 8.17145 4.5 8.99988 4.5Z" stroke="#616061" stroke-width="1.22693" stroke-linecap="round" stroke-linejoin="round"/>
<path fill-rule="evenodd" clip-rule="evenodd" d="M8.99988 16.5C9.82831 16.5 10.4999 15.8284 10.4999 15C10.4999 14.1716 9.82831 13.5 8.99988 13.5C8.17145 13.5 7.49988 14.1716 7.49988 15C7.49988 15.8284 8.17145 16.5 8.99988 16.5Z" stroke="#616061" stroke-width="1.22693" stroke-linecap="round" stroke-linejoin="round"/>
</svg>
