<svg width="14" height="14" viewBox="0 0 12 12" fill="none" xmlns="http://www.w3.org/2000/svg">
<path d="M9.75 5.24996C9.74995 4.35184 9.48115 3.47428 8.97819 2.7302C8.47524 1.98612 7.76113 1.40956 6.92777 1.07471C6.09441 0.739858 5.17991 0.662032 4.30195 0.851246C3.42399 1.04046 2.62273 1.48806 2.00127 2.13645C1.37981 2.78484 0.966586 3.60435 0.814765 4.48955C0.662943 5.37474 0.779471 6.28512 1.14935 7.10353C1.51924 7.92195 2.12555 8.61097 2.89029 9.08192C3.65502 9.55288 4.54319 9.78423 5.4405 9.74621C5.35546 9.50477 5.29834 9.25439 5.27025 8.99996H5.25C4.50832 8.99996 3.7833 8.78003 3.16661 8.36797C2.54993 7.95592 2.06928 7.37025 1.78545 6.68502C1.50163 5.9998 1.42736 5.2458 1.57206 4.51837C1.71675 3.79094 2.07391 3.12276 2.59835 2.59831C3.1228 2.07386 3.79099 1.71671 4.51841 1.57202C5.24584 1.42732 5.99984 1.50158 6.68507 1.78541C7.37029 2.06924 7.95596 2.54989 8.36801 3.16657C8.78007 3.78326 9 4.50828 9 5.24996V5.27021C9.25875 5.29946 9.5085 5.35721 9.74625 5.44046C9.7485 5.37746 9.75 5.31371 9.75 5.24996Z" fill="#1D1C1D"/>
<path d="M5.33399 7.87347C5.39699 7.59747 5.49299 7.33422 5.61899 7.08897C5.2987 7.15381 4.967 7.13357 4.65697 7.03027C4.34693 6.92696 4.06939 6.74421 3.85199 6.50022C3.78466 6.43038 3.69288 6.38935 3.59594 6.38576C3.49899 6.38216 3.40443 6.41627 3.3321 6.48092C3.25978 6.54558 3.21533 6.63575 3.20808 6.73249C3.20083 6.82923 3.23136 6.92501 3.29324 6.99972C3.54861 7.28578 3.86366 7.5123 4.21615 7.66328C4.56864 7.81425 4.94998 7.886 5.33324 7.87347H5.33399Z" fill="#1D1C1D"/>
<path d="M4.5 4.5C4.5 4.64918 4.44074 4.79226 4.33525 4.89775C4.22976 5.00324 4.08668 5.0625 3.9375 5.0625C3.78832 5.0625 3.64524 5.00324 3.53975 4.89775C3.43426 4.79226 3.375 4.64918 3.375 4.5C3.375 4.35082 3.43426 4.20774 3.53975 4.10225C3.64524 3.99676 3.78832 3.9375 3.9375 3.9375C4.08668 3.9375 4.22976 3.99676 4.33525 4.10225C4.44074 4.20774 4.5 4.35082 4.5 4.5Z" fill="#1D1C1D"/>
<path d="M6.5625 5.0625C6.71168 5.0625 6.85476 5.00324 6.96025 4.89775C7.06574 4.79226 7.125 4.64918 7.125 4.5C7.125 4.35082 7.06574 4.20774 6.96025 4.10225C6.85476 3.99676 6.71168 3.9375 6.5625 3.9375C6.41332 3.9375 6.27024 3.99676 6.16475 4.10225C6.05926 4.20774 6 4.35082 6 4.5C6 4.64918 6.05926 4.79226 6.16475 4.89775C6.27024 5.00324 6.41332 5.0625 6.5625 5.0625Z" fill="#1D1C1D"/>
<path d="M11.25 8.625C11.25 9.32119 10.9734 9.98887 10.4812 10.4812C9.98887 10.9734 9.32119 11.25 8.625 11.25C7.92881 11.25 7.26113 10.9734 6.76884 10.4812C6.27656 9.98887 6 9.32119 6 8.625C6 7.92881 6.27656 7.26113 6.76884 6.76884C7.26113 6.27656 7.92881 6 8.625 6C9.32119 6 9.98887 6.27656 10.4812 6.76884C10.9734 7.26113 11.25 7.92881 11.25 8.625ZM9 7.125C9 7.02554 8.96049 6.93016 8.89017 6.85983C8.81984 6.78951 8.72446 6.75 8.625 6.75C8.52554 6.75 8.43016 6.78951 8.35983 6.85983C8.28951 6.93016 8.25 7.02554 8.25 7.125V8.25H7.125C7.02554 8.25 6.93016 8.28951 6.85983 8.35983C6.78951 8.43016 6.75 8.52554 6.75 8.625C6.75 8.72446 6.78951 8.81984 6.85983 8.89017C6.93016 8.96049 7.02554 9 7.125 9H8.25V10.125C8.25 10.2245 8.28951 10.3198 8.35983 10.3902C8.43016 10.4605 8.52554 10.5 8.625 10.5C8.72446 10.5 8.81984 10.4605 8.89017 10.3902C8.96049 10.3198 9 10.2245 9 10.125V9H10.125C10.2245 9 10.3198 8.96049 10.3902 8.89017C10.4605 8.81984 10.5 8.72446 10.5 8.625C10.5 8.52554 10.4605 8.43016 10.3902 8.35983C10.3198 8.28951 10.2245 8.25 10.125 8.25H9V7.125Z" fill="#1D1C1D"/>
</svg>
