<svg id="befb3988-1ef2-42f3-9de0-b031ba9e9b47" data-name="Layer 1" xmlns="http://www.w3.org/2000/svg" width="946" height="580.79405" viewBox="0 0 946 580.79405"><title>online_everywhere</title><path d="M1073,655.42739H738.852c11.19763-57.15135,10.15935-117.64146,0-180.62052H1073C1064.51509,538.87726,1064.25257,599.20358,1073,655.42739Z" transform="translate(-127 -159.60297)" fill="#d0cde1"/><rect x="739.41527" y="373.90556" width="167.07399" height="4.51551" fill="#3f3d56"/><rect x="739.41527" y="388.58098" width="167.07399" height="4.51551" fill="#3f3d56"/><rect x="739.41527" y="403.2564" width="167.07399" height="4.51551" fill="#3f3d56"/><rect x="739.41527" y="417.93182" width="167.07399" height="4.51551" fill="#3f3d56"/><rect x="739.41527" y="432.60724" width="167.07399" height="4.51551" fill="#3f3d56"/><rect x="651.36277" y="377.85664" width="55.31504" height="55.31504" fill="#3f3d56"/><path d="M490.94874,314.71824h.00024a62.4214,62.4214,0,0,1,62.4214,62.4214V495.89272a0,0,0,0,1,0,0H309.77445a0,0,0,0,1,0,0v-.00018A181.17429,181.17429,0,0,1,490.94874,314.71824Z" fill="#3f3d56"/><path d="M180.44351,635.20236a5.39231,5.39231,0,0,0-3.17944,1.11863c-2.70982-7.16131-6.9048-11.76339-11.61765-11.76339s-8.90784,4.60208-11.61766,11.76339a5.39226,5.39226,0,0,0-3.17943-1.11863c-5.35421,0-9.69465,9.05506-9.69465,20.225h48.98347C190.13815,644.25742,185.79771,635.20236,180.44351,635.20236Z" transform="translate(-127 -159.60297)" fill="#00b0ff"/><path d="M340.64063,656.35874h-93.6969a627.00751,627.00751,0,0,0,0-106.11456h93.6969C335.48185,586.58777,335.18013,622.01611,340.64063,656.35874Z" transform="translate(-127 -159.60297)" fill="#d0cde1"/><rect x="133.49027" y="412.0899" width="67.7327" height="4.51551" fill="#3f3d56"/><rect x="133.49027" y="426.76531" width="67.7327" height="4.51551" fill="#3f3d56"/><rect x="133.49027" y="441.44073" width="67.7327" height="4.51551" fill="#3f3d56"/><rect x="133.49027" y="456.11615" width="67.7327" height="4.51551" fill="#3f3d56"/><rect x="133.49027" y="470.79157" width="67.7327" height="4.51551" fill="#3f3d56"/><rect y="494.69554" width="827.46723" height="2.25776" fill="#3f3d56"/><polygon points="328.096 483.106 336.005 525.287 370.277 498.923 349.846 474.538 328.096 483.106" fill="#a0616a"/><polygon points="532.411 487.06 524.502 529.241 490.23 502.878 506.707 477.174 532.411 487.06" fill="#a0616a"/><path d="M528.9133,408.0761l-19.7724,21.09056s-104.13462,46.13559-104.13462,69.86247,25.045,126.54334,35.59031,134.4523a45.87118,45.87118,0,0,1,14.49976,18.45423l28.99952-14.49975s-2.63632-7.909,0-11.86344,0-6.5908,0-6.5908-3.95448,1.31816-2.63632-2.63632,1.31816-5.27264,0-6.5908-5.27264-13.1816-5.27264-13.1816,1.31816-47.45375-17.13608-64.58983c0,0,85.68039-25.045,96.22567-42.18111s13.18159-79.08959,13.18159-79.08959Z" transform="translate(-127 -159.60297)" fill="#2f2e41"/><path d="M468.278,669.07174s-2.63632-14.49976-18.45424-10.54528v17.13608L435.324,704.66206s-30.31767,34.27215-2.63632,31.63583,43.49928-19.77239,43.49928-27.68135,19.77239-19.7724,19.77239-19.7724,21.09056-22.40872,11.86344-30.31768-18.2427-21.32-18.34847-14.61449S468.278,669.07174,468.278,669.07174Z" transform="translate(-127 -159.60297)" fill="#2f2e41"/><path d="M585.59417,398.849l19.7724,34.27216s104.13462,46.13559,104.13462,69.86247-25.045,126.54334-35.59031,134.4523a45.87118,45.87118,0,0,0-14.49976,18.45423L630.4116,641.39039s2.63632-7.909,0-11.86344,0-6.5908,0-6.5908,3.95448,1.31816,2.63632-2.63632-1.31816-5.27264,0-6.5908,5.27264-13.1816,5.27264-13.1816-1.31816-47.45375,17.13608-64.58983c0,0-93.58935-32.954-104.13462-50.09007-13.50536-21.94621-3.63072-112.06671-6.5908-81.72591Z" transform="translate(-127 -159.60297)" fill="#2f2e41"/><path d="M646.22952,673.02622s2.63632-14.49976,18.45424-10.54528V679.617l14.49976,28.99952s30.31767,34.27215,2.63632,31.63583S638.32056,720.48,638.32056,712.571s-19.77239-19.7724-19.77239-19.7724-21.09056-22.40872-11.86344-30.31768,18.2427-21.32,18.34847-14.61449S646.22952,673.02622,646.22952,673.02622Z" transform="translate(-127 -159.60297)" fill="#2f2e41"/><circle cx="465.18497" cy="48.11283" r="34.27216" fill="#a0616a"/><path d="M568.45809,223.53373s-1.31816,27.68135-18.45423,35.59031,27.68135,35.59032,27.68135,35.59032l32.954-17.13608s-7.909-38.22664-1.31816-46.1356S568.45809,223.53373,568.45809,223.53373Z" transform="translate(-127 -159.60297)" fill="#a0616a"/><path d="M615.91185,259.124s-45.92046,31.31449-59.86871-4.11515c0,0-33.72064,13.34227-32.40248,22.56939s-2.63632,135.77046-2.63632,135.77046,55.36271,15.81792,71.18063,0S615.91185,259.124,615.91185,259.124Z" transform="translate(-127 -159.60297)" fill="#d0cde1"/><path d="M606.74849,247.34613l5.20888,5.18711s55.36271,23.72688,54.04455,36.90848-26.3632,75.13511-26.3632,75.13511-13.18159,47.45375-10.54528,60.63535,6.5908,17.13607,3.95448,21.09055,0,11.86344,0,14.49976S617.23,473.98409,617.23,473.98409s-25.045-22.40872-34.27216-26.3632-15.81792-34.27215-9.22712-60.63535,7.909-83.04407,7.909-83.04407l18.45424-27.68135S600.22144,256.65877,606.74849,247.34613Z" transform="translate(-127 -159.60297)" fill="#575a89"/><path d="M564.3798,241.988s-10.42146-1.31816-13.05778,5.27264-47.45376,21.09056-47.45376,26.3632,13.1816,71.18063,13.1816,71.18063l2.63632,38.22663L495.9593,400.16714s5.27264,17.13608-1.31816,23.72688-14.49975,23.72687-6.5908,26.36319,56.68088-15.81791,57.999-35.59031S542.0949,380.39474,551.322,365.895s10.54527-71.18062,10.54527-71.18062Z" transform="translate(-127 -159.60297)" fill="#575a89"/><path d="M624.19309,178.14607a39.58234,39.58234,0,0,0-22.51595-17.21293l-6.884,5.50719,2.67639-6.42352a36.43886,36.43886,0,0,0-6.80395-.39324l-6.19386,7.96359,2.56356-7.69081a39.20389,39.20389,0,0,0-27.04473,16.087c-7.8833,11.367-9.2135,27.17476-1.46,38.63061,2.12846-6.5409,4.71174-12.67846,6.8402-19.21943a19.36061,19.36061,0,0,0,5.04311.02457l2.5896-6.04225.72334,5.78669c8.02623-.69934,19.93112-2.2345,27.54031-3.64115l-.73987-4.43919,4.42673,3.689c2.33131-.53673,3.71542-1.02335,3.601-1.39531,5.65909,9.12315,12.58454,14.95029,18.24348,24.07337C628.94668,200.58174,631.42079,189.88507,624.19309,178.14607Z" transform="translate(-127 -159.60297)" fill="#2f2e41"/><ellipse cx="496.82081" cy="49.43099" rx="2.76814" ry="4.61356" fill="#a0616a"/><path d="M609.671,444.13422h-59.5679a5.653,5.653,0,0,1-5.653-5.653l-2.625-77.9426a5.653,5.653,0,0,1,5.653-5.653H612.296a5.653,5.653,0,0,1,5.653,5.653l-2.625,77.9426A5.653,5.653,0,0,1,609.671,444.13422Z" transform="translate(-127 -159.60297)" fill="#3f3d56"/><circle cx="452.88706" cy="218.90734" r="5.24991" fill="#d0cde1"/><path d="M633.39637,407.90608s-52.61833,18.03836-39.61029,29.52434,47.66435-16.88,47.66435-16.88Z" transform="translate(-127 -159.60297)" fill="#a0616a"/><path d="M644.91136,281.53276s19.7724-3.95448,25.045,13.1816,31.63583,80.40774,23.72688,89.63486-36.90848,34.27216-46.1356,39.5448-13.1816,5.27264-13.1816,5.27264l-11.86343,5.27264-3.95448-30.31768,13.5293-8.01427,20.74285-17.03077-11.86344-35.59031Z" transform="translate(-127 -159.60297)" fill="#575a89"/><path d="M527.24669,398.679S579.865,416.71732,566.857,428.2033s-47.66435-16.88-47.66435-16.88Z" transform="translate(-127 -159.60297)" fill="#a0616a"/><path d="M515.7317,272.30564s-19.7724-3.95448-25.045,13.1816S459.05083,365.895,466.95979,375.1221s36.90847,34.27216,46.13559,39.5448,13.1816,5.27264,13.1816,5.27264l11.86344,5.27264,3.95448-30.31768-13.5293-8.01427-20.74286-17.03077,19.11332-46.79467Z" transform="translate(-127 -159.60297)" fill="#575a89"/><path d="M319.88166,630.09328l44.49457-13.93891a163.07909,163.07909,0,0,0-16.61947-53.0512l-44.49456,13.9389A100.03134,100.03134,0,0,1,319.88166,630.09328Z" transform="translate(-127 -159.60297)" fill="#00b0ff"/><path d="M764.03064,633.63373h46.6268a163.07907,163.07907,0,0,0,0-55.5935h-46.6268A100.0315,100.0315,0,0,1,764.03064,633.63373Z" transform="translate(-127 -159.60297)" fill="#00b0ff"/><path d="M978.51751,643.79364h46.62681a163.07957,163.07957,0,0,0,0-55.5935H978.51751A100.0315,100.0315,0,0,1,978.51751,643.79364Z" transform="translate(-127 -159.60297)" fill="#00b0ff"/></svg>