<svg width="65" height="65" viewBox="0 0 65 65" fill="none" xmlns="http://www.w3.org/2000/svg">
<path d="M0.332703 19.1789C0.350097 21.5753 1.96837 23.6842 4.08729 24.4936C5.04651 24.9816 5.94515 24.8524 13.4725 24.8738L13.4865 39.7138L6.01077 39.6944C2.88676 39.6707 0.362697 42.2326 0.321469 45.3538C0.338862 47.7502 1.95713 49.8592 4.07605 50.6686C5.03527 51.1566 5.93391 51.0274 13.4622 51.046L13.4515 58.7892C13.4884 61.5859 15.669 64.3112 19.1276 64.4656C22.2654 64.494 24.771 61.9412 24.8169 58.8062L24.8276 51.0629L40.2487 51.0778L40.2379 58.821C40.2748 61.6177 42.4554 64.343 45.914 64.4974C49.0519 64.5258 51.5574 61.973 51.6033 58.838L51.614 51.0947L59.0898 51.1141C62.2027 51.171 64.7286 48.6036 64.7514 45.4823L64.7495 45.4786C64.7732 42.3546 62.2113 39.8305 59.0734 39.8022L51.5977 39.7828L51.5837 24.9428L59.0595 24.9622C62.1973 24.9905 64.7029 22.4378 64.7488 19.3027C64.7725 16.1787 62.2105 13.6547 59.0727 13.6263L51.5932 13.6087L51.604 5.86549C51.6277 2.74148 49.0657 0.217423 45.9279 0.189074C42.79 0.160725 40.2844 2.71349 40.2386 5.84853L40.2279 13.5918L24.84 13.5696L24.8508 5.82637C24.8754 2.69959 22.3125 0.178297 19.1756 0.147183C16.0378 0.118834 13.5322 2.6716 13.4863 5.80663L13.4756 13.5499L6.022 13.5195C2.88416 13.4911 0.378572 16.0439 0.332703 19.1789ZM40.1573 24.9884L40.1611 39.8588L24.7539 39.8486L24.7492 24.981L40.1573 24.9884Z" fill="#00B87C"/>
</svg>
