<svg width="60" height="60" viewBox="0 0 60 60" fill="none" xmlns="http://www.w3.org/2000/svg">
<path d="M56.5338 15.9993L59.3111 13.222C60.7823 11.7508 59.7404 9.22071 57.654 9.22071H50.7793V2.34647C50.7793 0.265474 48.2533 -0.786009 46.778 0.688905L44.0007 3.46616C39.7032 1.19611 34.8999 0.00271766 29.9986 0.00271766C13.4193 0.00271766 0 13.4198 0 30.0013C0 46.5806 13.4171 60 29.9986 60C46.5779 60 59.9973 46.5829 59.9973 30.0013C59.9973 25.1001 58.8043 20.2972 56.5338 15.9993ZM48.4355 13.9082H51.9955L47.4646 18.4392H41.5608V12.5354L46.0918 8.00443V11.5645C46.0918 12.859 47.141 13.9082 48.4355 13.9082ZM29.9986 55.3129C16.0098 55.3129 4.6875 43.992 4.6875 30.0013C4.6875 16.0125 16.008 4.68976 29.9986 4.68976C33.6433 4.68976 37.2226 5.47071 40.5016 6.96576L37.56 9.90735C37.1205 10.3468 36.8733 10.9428 36.8733 11.5645V19.812L28.3415 28.3442C27.4265 29.2593 27.4265 30.7434 28.3415 31.6585C29.2566 32.5735 30.7407 32.574 31.6562 31.6585L40.188 23.1267H48.4355C49.0572 23.1267 49.6532 22.8795 50.0926 22.4405L53.0347 19.4984C54.5297 22.7774 55.3102 26.3566 55.3102 30.0013C55.3102 43.9901 43.9897 55.3129 29.9986 55.3129ZM48.4804 30.0013C48.4804 40.1921 40.1898 48.4831 29.9986 48.4831C19.8079 48.4831 11.5169 40.1921 11.5169 30.0013C11.5169 19.8106 19.8079 11.5196 29.9986 11.5196C31.2932 11.5196 32.3424 12.5688 32.3424 13.8633C32.3424 15.1579 31.2932 16.2071 29.9986 16.2071C22.3924 16.2071 16.2044 22.3951 16.2044 30.0013C16.2044 37.6075 22.3924 43.7956 29.9986 43.7956C37.6048 43.7956 43.7933 37.6075 43.7933 30.0013C43.7933 28.7068 44.8425 27.6576 46.1366 27.6576C47.4312 27.6576 48.4804 28.7068 48.4804 30.0013Z" fill="black"/>
</svg>
