<svg width="561" height="394" viewBox="0 0 561 394" fill="none" xmlns="http://www.w3.org/2000/svg">
<path d="M170.055 113.219C195.18 113.219 215.548 92.848 215.548 67.7195C215.548 42.591 195.18 22.2203 170.055 22.2203C144.93 22.2203 124.562 42.591 124.562 67.7195C124.562 92.848 144.93 113.219 170.055 113.219Z" fill="#F6F5F5"/>
<path d="M355.874 253.747C416.405 253.747 465.475 204.677 465.475 144.146C465.475 83.6154 416.405 34.5453 355.874 34.5453C295.343 34.5453 246.273 83.6154 246.273 144.146C246.273 204.677 295.343 253.747 355.874 253.747Z" fill="#F6F5F5"/>
<path d="M259.184 40.4652C266.543 33.1053 266.543 21.1724 259.184 13.8125C251.825 6.45252 239.894 6.45252 232.535 13.8125C225.176 21.1724 225.176 33.1053 232.535 40.4652C239.894 47.8252 251.825 47.8252 259.184 40.4652Z" fill="#F6F5F5"/>
<path d="M547.674 172.034C555.033 164.674 555.033 152.742 547.674 145.382C540.316 138.022 528.385 138.022 521.026 145.382C513.667 152.742 513.667 164.674 521.026 172.034C528.385 179.394 540.316 179.394 547.674 172.034Z" fill="#F6F5F5"/>
<path d="M158.191 285.561H0V374.614H158.191V285.561Z" fill="#F0F2F8"/>
<path opacity="0.5" d="M56.6773 285.561H0V374.614H56.6773V285.561Z" fill="white"/>
<path opacity="0.3" d="M86.6739 285.553L86.6738 307.245L101.433 307.245L101.433 285.553L86.6739 285.553Z" fill="white"/>
<path d="M388.229 188.532H126.92V374.614H388.229V188.532Z" fill="#102048"/>
<path d="M413.664 122.751H365.326V78.6141C365.326 69.7137 372.548 62.4912 381.447 62.4912C385.896 62.4912 389.933 64.2908 392.85 67.2089C395.719 70.0785 397.543 74.0666 397.567 78.4682V78.6141L397.543 106.629C397.543 106.774 397.543 106.92 397.567 107.042V107.893L397.616 107.869C398.248 116.21 405.178 122.751 413.664 122.751Z" fill="#F0F2F8"/>
<path d="M429.542 97.0085V106.76C429.542 111.21 427.743 115.247 424.825 118.141C421.932 121.059 417.896 122.859 413.446 122.859C404.96 122.859 398.006 116.317 397.398 107.976L429.542 97.0085Z" fill="white"/>
<path d="M381.447 62.4912C381.107 62.4912 380.767 62.5155 380.45 62.5399C380.232 62.5642 380.013 62.5642 379.818 62.5885C379.575 62.6128 379.356 62.6371 379.137 62.6858C378.992 62.7101 378.87 62.7344 378.724 62.7587C378.554 62.783 378.384 62.8317 378.213 62.856C377.97 62.9046 377.727 62.9533 377.484 63.0262C377.144 63.1235 376.803 63.2208 376.463 63.3423C376.293 63.391 376.122 63.4639 375.952 63.5126C375.782 63.5612 375.612 63.6342 375.466 63.7071C375.223 63.8044 375.004 63.9017 374.785 63.9989C374.591 64.0962 374.396 64.1692 374.202 64.2908C374.153 64.3151 374.08 64.3394 374.031 64.388C373.861 64.4853 373.691 64.5826 373.521 64.6798C372.84 65.0689 372.183 65.4823 371.6 65.9687C371.43 66.1146 371.235 66.2605 371.089 66.3821C370.895 66.5523 370.725 66.6982 370.53 66.8685C370.336 67.0387 370.165 67.2089 369.995 67.3792C369.509 67.8655 369.071 68.3762 368.634 68.9355C368.439 69.1787 368.269 69.4219 368.099 69.6651C367.564 70.4919 367.102 71.343 366.688 72.2671C366.591 72.486 366.494 72.7291 366.397 72.948C366.129 73.6532 365.91 74.3828 365.74 75.1123C365.691 75.3798 365.643 75.623 365.594 75.8662C365.497 76.3768 365.424 76.8875 365.4 77.3982V303.508H149.924V87.6361C149.924 73.7505 161.181 62.5155 175.041 62.5155H381.447V62.4912Z" fill="white"/>
<path d="M338.895 85.5448H175.379V94.1534H338.895V85.5448Z" fill="#F0F3F8"/>
<path d="M326.227 110.763H175.379V119.371H326.227V110.763Z" fill="#F0F3F8"/>
<path d="M318.276 135.956H175.379V144.565H318.276V135.956Z" fill="#F0F3F8"/>
<path d="M338.895 161.174H175.379V169.783H338.895V161.174Z" fill="#F0F3F8"/>
<path d="M327.223 186.684H238.572V195.292H327.223V186.684Z" fill="#F0F3F8"/>
<path d="M256.421 235.004C255.448 235.004 254.549 234.663 253.916 233.812C253.163 232.767 253.211 231.332 253.236 230.383L254.062 208.132L255.302 208.181L254.476 230.432C254.427 231.478 254.451 232.45 254.913 233.107C255.959 234.542 258.463 233.302 258.974 233.034C261.454 231.697 263.229 229.216 264.955 226.784C266.876 224.109 268.845 221.313 271.836 220.024C273.611 219.246 274.924 220.389 275.97 221.288C276.553 221.799 277.137 222.285 277.72 222.456C279.276 222.918 280.833 222.504 282.486 222.091C283.945 221.702 285.452 221.313 287.008 221.556C288.419 221.775 289.561 222.334 290.68 222.893C292.309 223.696 293.719 224.401 295.762 223.89C298.582 223.21 301.184 221.605 303.713 220.048C304.442 219.61 305.171 219.148 305.925 218.711C308.77 217.057 313.049 214.966 317.304 215.938L317.037 217.13C313.195 216.255 309.232 218.2 306.557 219.756C305.828 220.17 305.098 220.632 304.369 221.07C301.767 222.675 299.068 224.328 296.053 225.058C293.573 225.641 291.823 224.79 290.121 223.963C289.1 223.453 288.054 222.942 286.814 222.748C285.525 222.553 284.188 222.893 282.802 223.258C281.076 223.72 279.276 224.182 277.38 223.623C276.529 223.38 275.848 222.772 275.167 222.188C274.073 221.24 273.344 220.68 272.347 221.118C269.672 222.285 267.873 224.815 265.976 227.465C264.177 229.994 262.305 232.621 259.582 234.08C258.585 234.639 257.442 235.004 256.421 235.004Z" fill="#102048"/>
<path opacity="0.3" d="M365.687 196.714V303.859H150.211V187.375L217.514 243.38C221.234 246.468 226.097 247.66 230.887 246.979C232.273 246.785 233.707 246.712 235.118 246.736L280.999 248.025C282.58 248.073 284.16 248.268 285.692 248.608C290.458 249.63 295.418 248.706 299.357 245.788L365.687 196.714Z" fill="#F0F3F8"/>
<path d="M225.172 265.669L223.373 267.663L142.284 357.591L126.941 374.614V188.532L225.172 265.669Z" fill="#00B87C"/>
<path d="M388.228 188.532L289.973 265.669L388.228 374.614V188.532Z" fill="#00B87C"/>
<path d="M223.374 267.663L142.285 357.591L126.918 360.972V327.899C167.45 298.839 212.919 265.158 223.325 264.429L223.374 267.663Z" fill="#008559"/>
<path d="M291.77 267.663L372.859 357.591L388.225 360.972V327.899C347.693 298.839 302.225 265.158 291.818 264.429L291.77 267.663Z" fill="#008559"/>
<path d="M388.227 374.614H126.918L126.967 350.126L217.004 268.441C221.721 264.161 227.872 261.778 234.267 261.778H280.173C286.446 261.778 292.525 264.088 297.217 268.247L388.47 349.275L388.227 374.614Z" fill="#00B87C"/>
<path opacity="0.4" d="M402.605 361.481C420.133 343.95 420.133 315.527 402.605 297.996C385.076 280.465 356.657 280.465 339.129 297.996C321.6 315.527 321.6 343.95 339.129 361.481C356.657 379.012 385.076 379.012 402.605 361.481Z" fill="#008559"/>
<path d="M416.12 361.485C433.649 343.954 433.649 315.53 416.12 297.999C398.592 280.468 370.173 280.468 352.644 297.999C335.116 315.53 335.116 343.954 352.644 361.485C370.173 379.015 398.592 379.015 416.12 361.485Z" fill="#00B87C"/>
<path d="M383.408 354.065C381.268 354.065 379.226 353.165 377.767 351.56L361.889 334.027C360.528 332.519 360.625 330.185 362.157 328.823C363.664 327.461 365.998 327.558 367.36 329.09L383.237 346.624C383.262 346.648 383.335 346.721 383.456 346.697C383.578 346.672 383.627 346.6 383.627 346.551L400.72 307.642C401.546 305.769 403.71 304.918 405.583 305.745C407.455 306.572 408.306 308.736 407.479 310.609L390.386 349.518C389.34 351.901 387.201 353.555 384.648 353.968C384.234 354.017 383.821 354.065 383.408 354.065Z" fill="white"/>
</svg>
