<svg width="48" height="48" viewBox="0 0 48 48" fill="none" xmlns="http://www.w3.org/2000/svg">
<path d="M42 42V13.5L28.5 0H12C10.4087 0 8.88258 0.632141 7.75736 1.75736C6.63214 2.88258 6 4.4087 6 6V42C6 43.5913 6.63214 45.1174 7.75736 46.2426C8.88258 47.3679 10.4087 48 12 48H36C37.5913 48 39.1174 47.3679 40.2426 46.2426C41.3679 45.1174 42 43.5913 42 42ZM28.5 9C28.5 10.1935 28.9741 11.3381 29.818 12.182C30.6619 13.0259 31.8065 13.5 33 13.5H40V42C40 42.7957 39.3626 44.2374 38.8 44.8C38.2374 45.3626 36.7957 46 36 46H12C11.2044 46 9.66261 45.3626 9.1 44.8C8.53739 44.2374 8 42.7957 8 42V6C8 5.20435 8.1 4.1 9.1 3.1C10.1 2.1 11.2044 2 12 2H28.5V9Z" fill="#C5292A"/>
<path d="M16.2598 37.408C15.8171 37.2352 15.4604 36.9014 15.265 36.4769C14.8221 35.6168 14.9697 34.7566 15.4467 34.0339C15.8964 33.3533 16.6413 32.7747 17.4839 32.2892C18.5513 31.6983 19.6795 31.2191 20.8499 30.8593C21.7588 29.2644 22.5644 27.6155 23.2619 25.9223C22.8449 24.9973 22.5179 24.0361 22.2853 23.0514C22.09 22.1646 22.015 21.2867 22.1808 20.533C22.3512 19.7482 22.8031 19.0432 23.6571 18.7085C24.0932 18.5378 24.5656 18.4425 25.0244 18.5378C25.2552 18.5857 25.4721 18.6832 25.6595 18.8232C25.8469 18.9632 26 19.1421 26.1078 19.347C26.3076 19.7105 26.3803 20.1362 26.3962 20.5396C26.4121 20.9564 26.3689 21.4175 26.2894 21.9008C26.0987 23.0314 25.6762 24.4148 25.1084 25.8779C25.735 27.1859 26.4799 28.4368 27.3342 29.6156C28.3451 29.5377 29.3619 29.5749 30.364 29.7265C31.1907 29.8728 32.0311 30.1588 32.5444 30.7573C32.8169 31.0766 32.9827 31.4667 32.9986 31.9057C33.0145 32.3313 32.8919 32.7525 32.6852 33.1538C32.5062 33.5256 32.2286 33.844 31.8812 34.076C31.5378 34.2947 31.1324 34.4017 30.7229 34.382C29.9711 34.3509 29.2375 33.9474 28.6038 33.4575C27.8333 32.8357 27.139 32.1289 26.5347 31.3515C24.9988 31.5216 23.4812 31.8228 21.9991 32.2515C21.3204 33.4264 20.5457 34.5458 19.6825 35.599C19.0193 36.3749 18.2993 37.0533 17.5771 37.3437C17.1621 37.527 16.6914 37.5499 16.2598 37.408ZM19.3918 33.1937C19.0147 33.3622 18.665 33.5395 18.3493 33.7213C17.6043 34.1514 17.1205 34.5704 16.8798 34.934C16.6663 35.2554 16.6618 35.4882 16.789 35.7343C16.8117 35.783 16.8344 35.8141 16.848 35.8318C16.8751 35.8247 16.9017 35.8159 16.9275 35.8052C17.2387 35.6811 17.7338 35.2842 18.3697 34.5371C18.7314 34.1049 19.0724 33.6566 19.3918 33.1937ZM23.1166 30.2452C23.875 30.0725 24.6402 29.9297 25.4105 29.8174C24.9969 29.1996 24.6105 28.565 24.2522 27.9153C23.8959 28.7014 23.5172 29.4776 23.1166 30.243V30.2452ZM28.672 31.2428C29.0126 31.6042 29.3442 31.9079 29.6599 32.1518C30.205 32.573 30.5843 32.7126 30.791 32.7193C30.8463 32.7263 30.9025 32.7146 30.95 32.686C31.0445 32.6132 31.118 32.5177 31.1635 32.4089C31.2442 32.2739 31.2902 32.1217 31.2975 31.9655C31.2962 31.9135 31.2751 31.8637 31.2384 31.8259C31.1203 31.6884 30.7842 31.4889 30.0619 31.3625C29.6025 31.2875 29.1377 31.2483 28.672 31.245V31.2428ZM24.1522 23.4704C24.3434 22.8685 24.4951 22.2554 24.6065 21.6348C24.6769 21.218 24.7041 20.8744 24.6928 20.6039C24.6934 20.4547 24.6689 20.3064 24.6201 20.165C24.5065 20.1787 24.3955 20.2086 24.2908 20.2537C24.0932 20.3313 23.9319 20.4887 23.8456 20.8811C23.7548 21.3067 23.7775 21.9208 23.9501 22.7033C24.0046 22.9494 24.0727 23.2066 24.1545 23.4704H24.1522Z" fill="#C5292A"/>
</svg>
