<svg xmlns="http://www.w3.org/2000/svg" fill="#6A6A6A" width="20" height="20" xmlns:xlink="http://www.w3.org/1999/xlink" version="1.1" id="Layer_1" x="0px" y="0px" viewBox="0 0 512.297 512.297" style="enable-background:new 0 0 512.297 512.297;" xml:space="preserve">
<g>
	<g>
		<path d="M506.049,230.4l-192-192c-13.439-13.439-36.418-3.921-36.418,15.085v85.431    c-122.191,5.079-229.968,88.278-264.124,206.683C2.101,385.123-0.745,417.65,0.154,452.659c0.113,4.11,0.142,5.296,0.142,6.159    c0,21.677,28.579,29.538,39.666,10.911c23.767-39.933,50.761-70.791,80.333-93.599c53.462-41.233,109.122-53.174,157.335-48.352    v109.707c0,19.006,22.979,28.524,36.418,15.085l192-192C514.38,252.239,514.38,238.731,506.049,230.4z M320.297,385.982v-76.497    c0-9.773-6.641-18.296-16.117-20.686c-2.596-0.655-6.908-1.513-12.758-2.331c-60.43-8.455-130.633,4.548-197.184,55.876    c-16.371,12.626-31.961,27.299-46.688,44.105l0.326-1.708c1.701-8.759,3.879-17.804,6.624-27.315    c30.45-105.558,130.034-178.409,240.312-176.032c1.864,0.033,2.552,0.048,3.415,0.078c12.063,0.416,22.069-9.25,22.069-21.321    v-55.163l140.497,140.497L320.297,385.982z"/>
	</g>
</g>
<g>
</g>
<g>
</g>
<g>
</g>
<g>
</g>
<g>
</g>
<g>
</g>
<g>
</g>
<g>
</g>
<g>
</g>
<g>
</g>
<g>
</g>
<g>
</g>
<g>
</g>
<g>
</g>
<g>
</g>
</svg>