<svg width="150" height="150" viewBox="0 0 150 150" fill="none" xmlns="http://www.w3.org/2000/svg">
<circle cx="75" cy="75" r="75" fill="#ECF8F5"/>
<path d="M127 57.5522C127 46.7712 118.229 38 107.448 38C99.6613 38 92.9241 42.5758 89.7817 49.1792H32V110.642H115.821V75.2183C122.424 72.0761 127 65.3388 127 57.5522ZM90.6259 67.5068L73.9104 81.8345L42.3069 54.7456H88.0981C87.9658 55.6624 87.8958 56.5992 87.8958 57.5522C87.8958 61.185 88.8928 64.5891 90.6259 67.5068ZM63.1127 79.9104L37.5664 101.807V58.0136L63.1127 79.9104ZM67.3892 83.5761L73.9104 89.1657L80.4316 83.5761L105.514 105.075H42.3068L67.3892 83.5761ZM110.254 101.807L84.7081 79.9104L94.1196 71.8434C97.6146 75.1049 102.302 77.1044 107.448 77.1044C108.401 77.1044 109.338 77.0346 110.254 76.9021V101.807ZM107.448 71.538C99.7361 71.538 93.4622 65.2641 93.4622 57.5522C93.4622 49.8403 99.7361 43.5664 107.448 43.5664C115.16 43.5664 121.434 49.8403 121.434 57.5522C121.434 65.2641 115.16 71.538 107.448 71.538Z" fill="#00B87C"/>
<path d="M105.296 58.5623L101.674 54.9406L97.7383 58.8766L105.296 66.4343L117.156 54.5746L113.22 50.6385L105.296 58.5623Z" fill="#00B87C"/>
</svg>
