<svg width="13" height="15" viewBox="0 0 13 15" fill="none" xmlns="http://www.w3.org/2000/svg">
<path d="M10.208 7.82771C10.2014 6.68016 10.7171 5.81529 11.7586 5.17757C11.1761 4.33626 10.2948 3.87354 9.13317 3.78436C8.03326 3.69686 6.82988 4.43049 6.38925 4.43049C5.92358 4.43049 4.85873 3.81464 4.02086 3.81464C2.29173 3.84157 0.454102 5.20449 0.454102 7.97746C0.454102 8.7969 0.602647 9.64326 0.899738 10.5149C1.29697 11.6624 2.72902 14.4741 4.22282 14.4287C5.00393 14.4101 5.55639 13.87 6.57284 13.87C7.55925 13.87 8.06998 14.4287 8.94123 14.4287C10.4484 14.4068 11.7436 11.8509 12.1208 10.7C10.0995 9.73917 10.208 7.8866 10.208 7.82771ZM8.45386 2.6957C9.30007 1.68276 9.2233 0.760677 9.19826 0.429199C8.45052 0.472948 7.58596 0.9424 7.09359 1.51954C6.55114 2.13875 6.23236 2.90434 6.30079 3.76753C7.10861 3.82979 7.84633 3.41081 8.45386 2.6957Z" fill="#00B87C"/>
</svg>
