<svg width="151" height="150" viewBox="0 0 151 150" fill="none" xmlns="http://www.w3.org/2000/svg">
<circle cx="75.5" cy="75" r="75" fill="#ECF8F5"/>
<path d="M100.419 56.206L85.6145 41.4018C84.7106 40.4978 83.509 40 82.2307 40H53.2852C50.6466 40 48.5 42.1466 48.5 44.7852V105.215C48.5 107.853 50.6466 110 53.2852 110H97.0352C99.6737 110 101.82 107.853 101.82 105.215V59.5896C101.82 58.3117 101.323 57.1101 100.419 56.206ZM94.8185 56.4062H86.0977C85.7207 56.4062 85.4141 56.0996 85.4141 55.7227V47.0019L94.8185 56.4062ZM97.0352 105.898H53.2852C52.9082 105.898 52.6016 105.592 52.6016 105.215V44.7852C52.6016 44.4082 52.9082 44.1016 53.2852 44.1016H81.3125V55.7227C81.3125 58.3612 83.4591 60.5078 86.0977 60.5078H97.7188V105.215C97.7188 105.592 97.4121 105.898 97.0352 105.898Z" fill="#00B87C"/>
<path d="M77.3613 71.3086H90.4277C91.5603 71.3086 92.4785 70.3904 92.4785 69.2578C92.4785 68.1252 91.5603 67.207 90.4277 67.207H77.3613C76.2288 67.207 75.3105 68.1252 75.3105 69.2578C75.3105 70.3904 76.2286 71.3086 77.3613 71.3086Z" fill="#00B87C"/>
<path d="M77.3613 84.9805H90.4277C91.5603 84.9805 92.4785 84.0623 92.4785 82.9297C92.4785 81.7971 91.5603 80.8789 90.4277 80.8789H77.3613C76.2288 80.8789 75.3105 81.7971 75.3105 82.9297C75.3105 84.0623 76.2286 84.9805 77.3613 84.9805Z" fill="#00B87C"/>
<path d="M90.4863 94.5508H77.3613C76.2288 94.5508 75.3105 95.469 75.3105 96.6016C75.3105 97.7341 76.2288 98.6523 77.3613 98.6523H90.4863C91.6189 98.6523 92.5371 97.7341 92.5371 96.6016C92.5371 95.469 91.6189 94.5508 90.4863 94.5508Z" fill="#00B87C"/>
<path d="M67.1306 63.6739L62.4013 68.4032L61.286 67.2879C60.4853 66.487 59.1867 66.487 58.3858 67.2879C57.5849 68.0888 57.5849 69.3873 58.3858 70.1882L60.9512 72.7535C61.3517 73.154 61.8765 73.3543 62.4013 73.3543C62.926 73.3543 63.451 73.1541 63.8513 72.7535L70.0307 66.5741C70.8316 65.7732 70.8316 64.4748 70.0307 63.6739C69.23 62.873 67.9314 62.873 67.1306 63.6739Z" fill="#00B87C"/>
<path d="M67.1306 78.3899L62.4013 83.1192L61.286 82.004C60.4853 81.2033 59.1867 81.2031 58.3858 82.004C57.5849 82.8049 57.5849 84.1033 58.3858 84.9042L60.9512 87.4695C61.3517 87.8699 61.8765 88.0701 62.4013 88.0701C62.926 88.0701 63.451 87.87 63.8513 87.4694L70.0307 81.29C70.8316 80.4891 70.8316 79.1906 70.0307 78.3897C69.23 77.589 67.9314 77.589 67.1306 78.3899Z" fill="#00B87C"/>
<path d="M67.1306 92.0618L62.4013 96.7911L61.286 95.6759C60.4853 94.8751 59.1867 94.875 58.3858 95.6759C57.5849 96.4768 57.5849 97.7752 58.3858 98.5761L60.9512 101.141C61.3517 101.542 61.8765 101.742 62.4013 101.742C62.926 101.742 63.451 101.542 63.8513 101.141L70.0307 94.9618C70.8316 94.1609 70.8316 92.8625 70.0307 92.0616C69.23 91.2609 67.9314 91.2609 67.1306 92.0618Z" fill="#00B87C"/>
</svg>
