<svg width="13" height="14" viewBox="0 0 13 14" fill="none" xmlns="http://www.w3.org/2000/svg">
<path d="M0.120117 1.65731V13.2008C0.120196 13.2258 0.127816 13.2503 0.142021 13.2711C0.156227 13.2919 0.176385 13.3081 0.199969 13.3178C0.223553 13.3274 0.249512 13.33 0.274592 13.3252C0.299672 13.3205 0.322755 13.3085 0.340948 13.2909L6.47237 7.42933L0.340948 1.56713C0.322755 1.54955 0.299672 1.53762 0.274592 1.53285C0.249512 1.52808 0.223553 1.53067 0.199969 1.5403C0.176385 1.54993 0.156227 1.56617 0.142021 1.58698C0.127816 1.6078 0.120196 1.63226 0.120117 1.65731Z" fill="#01B57B"/>
<path d="M8.88464 5.01054L1.51096 0.947436L1.50636 0.944849C1.37934 0.875866 1.25863 1.04775 1.36267 1.14777L7.14281 6.67562L8.88464 5.01054Z" fill="#01B57B"/>
<path d="M1.36301 13.7107C1.25839 13.8107 1.3791 13.9826 1.5067 13.9136L1.5113 13.911L8.88464 9.84835L7.14276 8.18286L1.36301 13.7107Z" fill="#01B57B"/>
<path d="M11.78 6.67569L9.66421 5.47192L7.6748 7.43835L9.66421 9.40385L11.78 8.201C12.3555 7.87245 12.3555 7.00424 11.78 6.67569Z" fill="#01B57B"/>
</svg>
