<svg width="15px" height="15px" xmlns="http://www.w3.org/2000/svg" xmlns:xlink="http://www.w3.org/1999/xlink" version="1.1" viewBox="0 0 256 256" xml:space="preserve">

<defs>
</defs>
<g style="stroke: none; stroke-width: 0; stroke-dasharray: none; stroke-linecap: butt; stroke-linejoin: miter; stroke-miterlimit: 10; fill: none; fill-rule: nonzero; opacity: 1;" transform="translate(1.4065934065934016 1.4065934065934016) scale(2.81 2.81)" >
	<path d="M 16.503 3 c 0.071 0 0.142 0.001 0.215 0.003 c 0.131 0.003 0.261 0.011 0.388 0.019 c 0.171 0.011 0.342 0.024 0.513 0.044 c 0.137 0.016 0.273 0.038 0.409 0.059 c 0.162 0.026 0.323 0.051 0.487 0.086 c 0.129 0.027 0.255 0.061 0.425 0.104 l 0.056 0.015 c 0.133 0.034 0.266 0.067 0.398 0.108 c 0.123 0.038 0.244 0.084 0.366 0.128 l 0.076 0.028 l 0.124 0.045 c 0.098 0.035 0.197 0.07 0.294 0.11 c 0.122 0.051 0.242 0.11 0.362 0.168 l 0.094 0.045 l 0.165 0.078 c 0.072 0.034 0.144 0.066 0.215 0.104 c 0.125 0.067 0.246 0.143 0.368 0.217 l 0.099 0.061 l 0.192 0.115 c 0.047 0.028 0.096 0.054 0.143 0.086 c 0.153 0.102 0.3 0.217 0.447 0.33 l 0.054 0.041 c 0.067 0.051 0.135 0.101 0.203 0.15 l 0.059 0.042 c 0.257 0.21 0.499 0.429 0.72 0.649 l 8.159 8.159 c 0.221 0.221 0.439 0.463 0.641 0.709 l 0.053 0.072 c 0.049 0.068 0.098 0.135 0.149 0.202 l 0.046 0.061 c 0.111 0.145 0.223 0.288 0.324 0.44 c 0.032 0.048 0.059 0.098 0.088 0.147 l 0.112 0.188 l 0.063 0.103 c 0.074 0.121 0.149 0.24 0.215 0.365 c 0.038 0.071 0.071 0.144 0.104 0.216 l 0.077 0.163 l 0.046 0.096 c 0.057 0.119 0.116 0.238 0.167 0.36 c 0.04 0.095 0.073 0.192 0.108 0.289 l 0.046 0.127 l 0.028 0.076 c 0.045 0.122 0.09 0.244 0.129 0.37 c 0.04 0.128 0.072 0.258 0.105 0.388 l 0.024 0.095 c 0.034 0.132 0.069 0.264 0.098 0.399 c 0.034 0.159 0.059 0.319 0.084 0.48 c 0.022 0.138 0.044 0.275 0.06 0.415 c 0.02 0.17 0.032 0.34 0.043 0.509 c 0.008 0.13 0.016 0.259 0.019 0.389 c 0.004 0.179 0.003 0.358 -0.002 0.536 c -0.004 0.121 -0.009 0.242 -0.017 0.364 c -0.012 0.187 -0.03 0.373 -0.052 0.555 c -0.014 0.111 -0.03 0.222 -0.048 0.334 c -0.031 0.194 -0.065 0.386 -0.107 0.577 c -0.02 0.09 -0.043 0.178 -0.073 0.297 c -0.05 0.2 -0.104 0.398 -0.166 0.593 c -0.016 0.051 -0.035 0.101 -0.053 0.152 l -0.038 0.106 c -0.072 0.204 -0.146 0.407 -0.231 0.605 l -0.037 0.078 l -0.064 0.137 c -0.096 0.209 -0.194 0.416 -0.316 0.637 l -0.087 0.148 c -0.145 0.253 -0.259 0.439 -0.365 0.597 c -0.034 0.045 -0.067 0.09 -0.099 0.135 c -0.186 0.266 -0.343 0.474 -0.494 0.654 c -0.229 0.274 -0.408 0.473 -0.58 0.645 l -5.52 5.52 c -1.876 1.876 -1.876 4.927 0 6.803 l 23.86 23.86 c 0.909 0.909 2.117 1.409 3.402 1.409 c 1.285 0 2.493 -0.5 3.402 -1.409 l 5.52 -5.52 c 0.172 -0.172 0.371 -0.351 0.645 -0.581 c 0.181 -0.151 0.389 -0.309 0.654 -0.495 c 0.043 -0.03 0.085 -0.061 0.133 -0.097 c 0.16 -0.108 0.348 -0.223 0.604 -0.37 l 0.158 -0.095 c 0.204 -0.112 0.413 -0.21 0.624 -0.307 l 0.135 -0.063 l 0.074 -0.035 c 0.201 -0.086 0.405 -0.161 0.613 -0.234 l 0.106 -0.038 c 0.048 -0.017 0.096 -0.035 0.145 -0.051 c 0.198 -0.063 0.397 -0.117 0.631 -0.176 c 0.087 -0.022 0.173 -0.044 0.261 -0.064 c 0.193 -0.042 0.386 -0.077 0.583 -0.108 c 0.109 -0.017 0.218 -0.034 0.326 -0.047 c 0.187 -0.023 0.373 -0.04 0.565 -0.053 c 0.119 -0.008 0.239 -0.013 0.357 -0.017 c 0.108 -0.003 0.216 -0.005 0.325 -0.005 c 0.071 0 0.142 0.001 0.214 0.003 c 0.13 0.003 0.26 0.011 0.388 0.019 c 0.171 0.011 0.341 0.024 0.513 0.043 c 0.137 0.016 0.273 0.038 0.409 0.059 c 0.162 0.026 0.323 0.051 0.486 0.086 c 0.129 0.027 0.256 0.061 0.425 0.104 l 0.056 0.015 c 0.133 0.034 0.266 0.067 0.398 0.108 c 0.124 0.038 0.245 0.084 0.367 0.128 l 0.075 0.027 l 0.124 0.045 c 0.098 0.035 0.197 0.07 0.294 0.11 c 0.122 0.051 0.241 0.11 0.361 0.167 l 0.094 0.045 l 0.165 0.078 c 0.072 0.034 0.144 0.066 0.215 0.104 c 0.125 0.067 0.246 0.143 0.368 0.217 l 0.099 0.061 l 0.192 0.115 c 0.047 0.028 0.096 0.054 0.143 0.086 c 0.153 0.102 0.3 0.217 0.448 0.33 l 0.053 0.041 c 0.067 0.051 0.135 0.101 0.204 0.15 l 0.059 0.042 c 0.257 0.21 0.499 0.429 0.72 0.649 l 8.159 8.159 c 0.221 0.221 0.439 0.463 0.641 0.709 l 0.053 0.072 c 0.049 0.068 0.098 0.135 0.149 0.202 l 0.046 0.061 c 0.111 0.145 0.223 0.288 0.324 0.44 c 0.032 0.048 0.059 0.097 0.088 0.146 l 0.112 0.188 l 0.063 0.103 c 0.074 0.121 0.149 0.24 0.216 0.366 c 0.038 0.071 0.071 0.144 0.104 0.216 l 0.077 0.163 l 0.046 0.096 c 0.057 0.119 0.116 0.237 0.166 0.359 c 0.04 0.095 0.073 0.192 0.108 0.289 l 0.046 0.128 l 0.028 0.076 c 0.045 0.122 0.09 0.244 0.129 0.37 c 0.04 0.128 0.072 0.257 0.105 0.386 l 0.025 0.095 c 0.034 0.133 0.069 0.265 0.098 0.4 c 0.034 0.159 0.059 0.319 0.084 0.48 c 0.022 0.138 0.044 0.275 0.06 0.415 c 0.02 0.17 0.032 0.34 0.043 0.509 c 0.008 0.13 0.016 0.259 0.019 0.389 c 0.004 0.179 0.003 0.358 -0.002 0.536 c -0.004 0.121 -0.009 0.242 -0.017 0.364 c -0.012 0.187 -0.03 0.373 -0.052 0.555 c -0.014 0.112 -0.031 0.222 -0.048 0.334 c -0.031 0.194 -0.065 0.386 -0.107 0.578 c -0.02 0.089 -0.043 0.178 -0.073 0.297 c -0.05 0.199 -0.104 0.398 -0.166 0.593 c -0.016 0.051 -0.035 0.102 -0.053 0.152 l -0.038 0.106 c -0.072 0.204 -0.146 0.407 -0.231 0.605 l -0.037 0.079 l -0.064 0.137 c -0.096 0.209 -0.194 0.416 -0.316 0.637 l -0.087 0.148 c -0.145 0.252 -0.259 0.439 -0.365 0.597 c -0.034 0.045 -0.067 0.09 -0.099 0.135 c -0.186 0.266 -0.343 0.474 -0.494 0.653 c -0.229 0.274 -0.408 0.473 -0.58 0.645 l -0.026 0.026 l -0.026 0.027 C 80.119 84.687 74.086 87 67.127 87 c -12.981 0 -27.91 -7.839 -42.053 -22.089 C 10.703 50.648 2.864 35.6 3.002 22.54 c 0.072 -6.814 2.384 -12.728 6.51 -16.655 l 0.027 -0.026 l 0.026 -0.026 c 0.172 -0.172 0.371 -0.351 0.645 -0.581 c 0.181 -0.151 0.389 -0.309 0.655 -0.495 c 0.043 -0.03 0.085 -0.061 0.133 -0.097 c 0.16 -0.108 0.348 -0.223 0.604 -0.369 l 0.158 -0.095 c 0.204 -0.112 0.413 -0.21 0.624 -0.307 l 0.135 -0.063 l 0.074 -0.035 c 0.201 -0.086 0.406 -0.161 0.613 -0.234 l 0.106 -0.038 c 0.049 -0.017 0.097 -0.035 0.145 -0.051 c 0.198 -0.063 0.397 -0.117 0.629 -0.176 c 0.087 -0.022 0.174 -0.045 0.262 -0.064 c 0.193 -0.042 0.386 -0.077 0.583 -0.108 c 0.109 -0.017 0.218 -0.034 0.325 -0.047 c 0.187 -0.023 0.373 -0.04 0.565 -0.053 c 0.119 -0.008 0.239 -0.013 0.357 -0.017 C 16.287 3.002 16.395 3 16.503 3 M 16.503 0 c -0.138 0 -0.275 0.002 -0.413 0.006 c -0.157 0.005 -0.313 0.012 -0.469 0.022 c -0.244 0.016 -0.488 0.039 -0.731 0.069 c -0.143 0.018 -0.285 0.039 -0.428 0.061 c -0.254 0.04 -0.506 0.086 -0.758 0.141 c -0.128 0.028 -0.255 0.061 -0.382 0.093 C 13.06 0.459 12.8 0.53 12.541 0.613 c -0.111 0.036 -0.221 0.077 -0.331 0.115 c -0.269 0.095 -0.536 0.194 -0.8 0.307 c -0.093 0.04 -0.184 0.085 -0.276 0.128 c -0.275 0.126 -0.548 0.257 -0.815 0.403 c -0.072 0.04 -0.142 0.084 -0.213 0.126 C 9.825 1.853 9.546 2.02 9.275 2.205 C 9.231 2.235 9.189 2.269 9.145 2.3 C 8.852 2.505 8.564 2.719 8.286 2.951 l 0 0 c -0.288 0.241 -0.572 0.49 -0.842 0.76 C -3.869 14.476 -4.88 39.408 22.96 67.04 C 39.457 83.662 54.994 90 67.127 90 c 8.188 0 14.824 -2.886 19.162 -7.444 c 0.27 -0.27 0.52 -0.554 0.76 -0.842 c 0 0 0 0 0 0 c 0.232 -0.277 0.444 -0.564 0.649 -0.855 c 0.032 -0.045 0.067 -0.088 0.098 -0.134 c 0.184 -0.27 0.35 -0.547 0.511 -0.827 c 0.042 -0.073 0.088 -0.144 0.128 -0.218 c 0.146 -0.266 0.276 -0.537 0.401 -0.811 c 0.043 -0.094 0.089 -0.186 0.13 -0.28 c 0.113 -0.262 0.211 -0.528 0.305 -0.796 c 0.039 -0.112 0.081 -0.223 0.117 -0.336 c 0.082 -0.257 0.153 -0.516 0.219 -0.777 c 0.033 -0.129 0.065 -0.257 0.094 -0.386 c 0.055 -0.25 0.1 -0.501 0.14 -0.754 c 0.023 -0.144 0.044 -0.287 0.062 -0.432 c 0.03 -0.242 0.052 -0.484 0.068 -0.727 c 0.01 -0.158 0.018 -0.315 0.022 -0.473 c 0.007 -0.233 0.008 -0.465 0.003 -0.698 c -0.004 -0.169 -0.013 -0.338 -0.024 -0.507 c -0.014 -0.222 -0.031 -0.444 -0.057 -0.665 c -0.021 -0.18 -0.049 -0.359 -0.077 -0.539 c -0.033 -0.21 -0.067 -0.419 -0.111 -0.627 c -0.04 -0.189 -0.089 -0.376 -0.137 -0.564 c -0.051 -0.197 -0.1 -0.393 -0.16 -0.587 c -0.061 -0.196 -0.133 -0.389 -0.203 -0.583 c -0.066 -0.182 -0.129 -0.365 -0.204 -0.545 c -0.084 -0.202 -0.181 -0.398 -0.276 -0.596 c -0.08 -0.167 -0.154 -0.335 -0.242 -0.498 c -0.111 -0.209 -0.238 -0.41 -0.361 -0.614 c -0.089 -0.146 -0.171 -0.296 -0.267 -0.439 c -0.15 -0.225 -0.317 -0.441 -0.483 -0.658 c -0.087 -0.114 -0.165 -0.232 -0.256 -0.343 c -0.265 -0.324 -0.548 -0.639 -0.85 -0.941 l -8.159 -8.159 c -0.302 -0.302 -0.617 -0.584 -0.941 -0.85 c -0.111 -0.091 -0.228 -0.168 -0.341 -0.255 c -0.218 -0.166 -0.434 -0.334 -0.66 -0.484 c -0.143 -0.095 -0.291 -0.176 -0.437 -0.265 c -0.204 -0.124 -0.406 -0.251 -0.615 -0.362 c -0.163 -0.087 -0.331 -0.162 -0.497 -0.241 c -0.198 -0.095 -0.396 -0.192 -0.598 -0.276 c -0.18 -0.075 -0.364 -0.138 -0.547 -0.205 c -0.193 -0.07 -0.384 -0.141 -0.58 -0.202 c -0.196 -0.061 -0.394 -0.111 -0.592 -0.162 c -0.186 -0.048 -0.372 -0.096 -0.559 -0.136 c -0.21 -0.044 -0.42 -0.079 -0.631 -0.112 c -0.178 -0.028 -0.356 -0.056 -0.535 -0.077 c -0.222 -0.026 -0.444 -0.043 -0.667 -0.057 c -0.169 -0.011 -0.337 -0.02 -0.506 -0.024 c -0.096 -0.002 -0.192 -0.003 -0.287 -0.003 c -0.138 0 -0.275 0.002 -0.413 0.006 c -0.157 0.005 -0.313 0.012 -0.469 0.022 c -0.244 0.016 -0.488 0.039 -0.731 0.069 c -0.143 0.018 -0.285 0.039 -0.428 0.061 c -0.254 0.04 -0.506 0.086 -0.758 0.141 c -0.128 0.028 -0.255 0.061 -0.382 0.093 c -0.262 0.066 -0.522 0.137 -0.781 0.22 c -0.111 0.036 -0.221 0.077 -0.331 0.115 c -0.269 0.095 -0.536 0.194 -0.8 0.307 c -0.093 0.04 -0.184 0.085 -0.276 0.128 c -0.275 0.126 -0.548 0.257 -0.815 0.403 c -0.072 0.04 -0.142 0.084 -0.213 0.126 c -0.282 0.162 -0.56 0.329 -0.831 0.514 c -0.044 0.03 -0.086 0.065 -0.13 0.095 c -0.293 0.205 -0.581 0.418 -0.859 0.651 l 0 0 c -0.288 0.241 -0.572 0.49 -0.842 0.76 l -5.52 5.52 c -0.354 0.354 -0.817 0.53 -1.28 0.53 c -0.463 0 -0.927 -0.177 -1.28 -0.53 L 28.136 38.004 c -0.707 -0.707 -0.707 -1.854 0 -2.561 l 5.52 -5.52 c 0.27 -0.27 0.52 -0.554 0.761 -0.842 c 0 0 0 0 0 0 c 0.232 -0.277 0.444 -0.564 0.649 -0.855 c 0.032 -0.045 0.067 -0.088 0.098 -0.134 c 0.184 -0.27 0.35 -0.547 0.511 -0.827 c 0.042 -0.073 0.088 -0.144 0.128 -0.218 c 0.146 -0.266 0.276 -0.537 0.401 -0.811 c 0.043 -0.094 0.089 -0.186 0.13 -0.28 c 0.113 -0.262 0.211 -0.528 0.305 -0.796 c 0.039 -0.112 0.081 -0.223 0.117 -0.336 c 0.082 -0.257 0.153 -0.516 0.219 -0.777 c 0.033 -0.129 0.065 -0.257 0.094 -0.386 c 0.055 -0.25 0.1 -0.501 0.14 -0.754 c 0.023 -0.144 0.044 -0.287 0.062 -0.432 c 0.03 -0.242 0.052 -0.484 0.068 -0.727 c 0.011 -0.158 0.018 -0.315 0.022 -0.473 c 0.007 -0.233 0.008 -0.465 0.003 -0.698 c -0.004 -0.169 -0.013 -0.338 -0.024 -0.507 c -0.014 -0.222 -0.031 -0.444 -0.057 -0.665 c -0.021 -0.18 -0.049 -0.359 -0.077 -0.539 c -0.033 -0.21 -0.068 -0.419 -0.111 -0.627 c -0.04 -0.189 -0.089 -0.376 -0.137 -0.564 c -0.051 -0.197 -0.1 -0.393 -0.161 -0.587 c -0.061 -0.196 -0.133 -0.389 -0.203 -0.583 c -0.066 -0.182 -0.129 -0.365 -0.204 -0.545 c -0.084 -0.202 -0.181 -0.398 -0.276 -0.596 c -0.08 -0.167 -0.154 -0.335 -0.242 -0.498 c -0.111 -0.209 -0.238 -0.41 -0.361 -0.614 c -0.089 -0.146 -0.171 -0.296 -0.267 -0.439 c -0.15 -0.225 -0.317 -0.441 -0.483 -0.658 c -0.087 -0.114 -0.165 -0.232 -0.256 -0.343 c -0.265 -0.324 -0.548 -0.639 -0.85 -0.941 l -8.159 -8.159 c -0.302 -0.302 -0.617 -0.584 -0.941 -0.85 c -0.111 -0.091 -0.228 -0.168 -0.342 -0.255 c -0.218 -0.166 -0.434 -0.334 -0.66 -0.484 c -0.143 -0.095 -0.291 -0.176 -0.437 -0.265 c -0.204 -0.124 -0.406 -0.251 -0.615 -0.362 c -0.163 -0.087 -0.331 -0.162 -0.497 -0.241 c -0.198 -0.095 -0.396 -0.192 -0.598 -0.276 c -0.18 -0.075 -0.364 -0.138 -0.547 -0.205 c -0.193 -0.07 -0.384 -0.141 -0.58 -0.202 c -0.196 -0.061 -0.394 -0.111 -0.592 -0.162 c -0.186 -0.048 -0.372 -0.096 -0.559 -0.136 c -0.21 -0.044 -0.42 -0.079 -0.631 -0.112 c -0.178 -0.028 -0.356 -0.056 -0.535 -0.077 c -0.222 -0.026 -0.444 -0.043 -0.667 -0.057 c -0.169 -0.011 -0.337 -0.02 -0.506 -0.024 C 16.695 0.001 16.599 0 16.503 0 L 16.503 0 z" style="stroke: none; stroke-width: 1; stroke-dasharray: none; stroke-linecap: butt; stroke-linejoin: miter; stroke-miterlimit: 10; fill: rgb(0,0,0); fill-rule: nonzero; opacity: 1;" transform=" matrix(1 0 0 1 0 0) " stroke-linecap="round" />
	<path d="M 90 46.5 h -3 C 87 22.514 67.486 3 43.5 3 V 0 C 69.141 0 90 20.86 90 46.5 z" style="stroke: none; stroke-width: 1; stroke-dasharray: none; stroke-linecap: butt; stroke-linejoin: miter; stroke-miterlimit: 10; fill: rgb(0,0,0); fill-rule: nonzero; opacity: 1;" transform=" matrix(1 0 0 1 0 0) " stroke-linecap="round" />
	<path d="M 77.5 46.5 h -3 c 0 -17.093 -13.906 -31 -31 -31 v -3 C 62.248 12.5 77.5 27.752 77.5 46.5 z" style="stroke: none; stroke-width: 1; stroke-dasharray: none; stroke-linecap: butt; stroke-linejoin: miter; stroke-miterlimit: 10; fill: rgb(0,0,0); fill-rule: nonzero; opacity: 1;" transform=" matrix(1 0 0 1 0 0) " stroke-linecap="round" />
	<path d="M 65 46.5 h -3 C 62 36.299 53.701 28 43.5 28 v -3 C 55.355 25 65 34.645 65 46.5 z" style="stroke: none; stroke-width: 1; stroke-dasharray: none; stroke-linecap: butt; stroke-linejoin: miter; stroke-miterlimit: 10; fill: rgb(0,0,0); fill-rule: nonzero; opacity: 1;" transform=" matrix(1 0 0 1 0 0) " stroke-linecap="round" />
</g>
</svg>