<svg width="36" height="36" viewBox="0 0 36 36" fill="none" xmlns="http://www.w3.org/2000/svg">
<path d="M32 0H4C1.79086 0 0 1.79086 0 4V32C0 34.2091 1.79086 36 4 36H32C34.2091 36 36 34.2091 36 32V4C36 1.79086 34.2091 0 32 0Z" fill="#F2FFFB"/>
<path d="M18 18C21.3137 18 24 15.3137 24 12C24 8.68629 21.3137 6 18 6C14.6863 6 12 8.68629 12 12C12 15.3137 14.6863 18 18 18Z" fill="#00B87C" fill-opacity="0.6"/>
<path d="M18.75 21C8.53918 21 3.88893 25.3249 0.873873 28.367C0.313778 28.9321 0 29.697 0 30.4926V32C0 34.2091 1.79086 36 4 36H32C34.2092 36 36 34.2091 36 32V29.6598C36 28.9135 35.7265 28.1907 35.216 27.6463C32.6134 24.8702 28.2279 21 18.75 21Z" fill="#00B87C" fill-opacity="0.6"/>
</svg>
