<svg width="32" height="32" viewBox="0 0 32 32" fill="none" xmlns="http://www.w3.org/2000/svg">
<rect width="32" height="32" rx="16" fill="#F7F7F7"/>
<path fill-rule="evenodd" clip-rule="evenodd" d="M24.25 9.24988C23.5318 9.75649 22.7366 10.144 21.895 10.3974C20.9698 9.33354 19.4788 8.96047 18.1616 9.46322C16.8443 9.96598 15.9811 11.2376 16 12.6474V13.3974C13.323 13.4668 10.789 12.1914 9.25 9.99988C9.25 9.99988 6.25 16.7499 13 19.7499C11.4554 20.7984 9.61537 21.3241 7.75 21.2499C14.5 24.9999 22.75 21.2499 22.75 12.6249C22.7493 12.416 22.7292 12.2076 22.69 12.0024C23.4555 11.2475 23.9956 10.2944 24.25 9.24988Z" stroke="#333333" stroke-width="1.22693" stroke-linecap="round" stroke-linejoin="round"/>
</svg>
