<svg width="33" height="32" viewBox="0 0 33 32" fill="none" xmlns="http://www.w3.org/2000/svg">
<g clip-path="url(#clip0_172_6150)">
<path d="M25.3333 26.584C28.023 26.2418 30.4815 24.8882 32.2091 22.7984C33.9366 20.7086 34.8036 18.0394 34.6338 15.3333C34.464 12.6272 33.2702 10.0873 31.295 8.22986C29.3198 6.37238 26.7114 5.33671 24 5.33335C21.2853 5.33133 18.6719 6.36447 16.6924 8.22226C14.713 10.08 13.5163 12.6227 13.3463 15.3321C13.1763 18.0415 14.0458 20.7137 15.7775 22.8044C17.5093 24.895 19.973 26.2467 22.6667 26.584V18.6667H20V16H22.6667V13.7947C22.6667 12.012 22.8533 11.3654 23.2 10.7134C23.5415 10.0683 24.0693 9.54094 24.7147 9.20002C25.224 8.92669 25.8573 8.76269 26.964 8.69202C27.4027 8.66402 27.9707 8.69869 28.668 8.79869V11.332H28C26.7773 11.332 26.272 11.3894 25.9707 11.5507C25.7909 11.6432 25.6445 11.7895 25.552 11.9694C25.392 12.2707 25.3333 12.5694 25.3333 13.7934V16H28.6667L28 18.6667H25.3333V26.584ZM24 29.3334C16.636 29.3334 10.6667 23.364 10.6667 16C10.6667 8.63602 16.636 2.66669 24 2.66669C31.364 2.66669 37.3333 8.63602 37.3333 16C37.3333 23.364 31.364 29.3334 24 29.3334Z" fill="white"/>
</g>
<defs>
<clipPath id="clip0_172_6150">
<rect width="32" height="32" fill="white" transform="translate(0.428589)"/>
</clipPath>
</defs>
</svg>
