<svg width="33" height="32" viewBox="0 0 33 32" fill="none" xmlns="http://www.w3.org/2000/svg">
<g clip-path="url(#clip0_172_6096)">
<path d="M18.4 2.66669H29.6C33.8667 2.66669 37.3333 6.13335 37.3333 10.4V21.6C37.3333 23.651 36.5186 25.618 35.0683 27.0683C33.618 28.5186 31.651 29.3334 29.6 29.3334H18.4C14.1333 29.3334 10.6667 25.8667 10.6667 21.6V10.4C10.6667 8.34901 11.4814 6.38201 12.9317 4.93173C14.382 3.48145 16.349 2.66669 18.4 2.66669ZM18.1333 5.33335C16.8603 5.33335 15.6394 5.83907 14.7392 6.73924C13.839 7.63942 13.3333 8.86031 13.3333 10.1334V21.8667C13.3333 24.52 15.48 26.6667 18.1333 26.6667H29.8667C31.1397 26.6667 32.3606 26.161 33.2608 25.2608C34.1609 24.3606 34.6667 23.1397 34.6667 21.8667V10.1334C34.6667 7.48002 32.52 5.33335 29.8667 5.33335H18.1333ZM31 7.33335C31.442 7.33335 31.8659 7.50895 32.1785 7.82151C32.4911 8.13407 32.6667 8.55799 32.6667 9.00002C32.6667 9.44205 32.4911 9.86597 32.1785 10.1785C31.8659 10.4911 31.442 10.6667 31 10.6667C30.558 10.6667 30.134 10.4911 29.8215 10.1785C29.5089 9.86597 29.3333 9.44205 29.3333 9.00002C29.3333 8.55799 29.5089 8.13407 29.8215 7.82151C30.134 7.50895 30.558 7.33335 31 7.33335ZM24 9.33335C25.7681 9.33335 27.4638 10.0357 28.714 11.286C29.9643 12.5362 30.6667 14.2319 30.6667 16C30.6667 17.7681 29.9643 19.4638 28.714 20.7141C27.4638 21.9643 25.7681 22.6667 24 22.6667C22.2319 22.6667 20.5362 21.9643 19.2859 20.7141C18.0357 19.4638 17.3333 17.7681 17.3333 16C17.3333 14.2319 18.0357 12.5362 19.2859 11.286C20.5362 10.0357 22.2319 9.33335 24 9.33335ZM24 12C22.9391 12 21.9217 12.4214 21.1716 13.1716C20.4214 13.9217 20 14.9392 20 16C20 17.0609 20.4214 18.0783 21.1716 18.8284C21.9217 19.5786 22.9391 20 24 20C25.0609 20 26.0783 19.5786 26.8284 18.8284C27.5786 18.0783 28 17.0609 28 16C28 14.9392 27.5786 13.9217 26.8284 13.1716C26.0783 12.4214 25.0609 12 24 12Z" fill="white"/>
</g>
<defs>
<clipPath id="clip0_172_6096">
<rect width="32" height="32" fill="white" transform="translate(0.428589)"/>
</clipPath>
</defs>
</svg>
