<svg width="33" height="32" viewBox="0 0 33 32" fill="none" xmlns="http://www.w3.org/2000/svg">
<g clip-path="url(#clip0_181_6003)">
<path d="M20 15V22C20 22.3978 19.842 22.7794 19.5607 23.0607C19.2794 23.342 18.8978 23.5 18.5 23.5C18.1022 23.5 17.7206 23.342 17.4393 23.0607C17.158 22.7794 17 22.3978 17 22V15C17 14.6022 17.158 14.2206 17.4393 13.9393C17.7206 13.658 18.1022 13.5 18.5 13.5C18.8978 13.5 19.2794 13.658 19.5607 13.9393C19.842 14.2206 20 14.6022 20 15ZM23.5 23.5C23.8978 23.5 24.2794 23.342 24.5607 23.0607C24.842 22.7794 25 22.3978 25 22V18.5C25 17.9696 25.2107 17.4609 25.5858 17.0858C25.9609 16.7107 26.4696 16.5 27 16.5C27.5304 16.5 28.0391 16.7107 28.4142 17.0858C28.7893 17.4609 29 17.9696 29 18.5V22C29 22.3978 29.158 22.7794 29.4393 23.0607C29.7206 23.342 30.1022 23.5 30.5 23.5C30.8978 23.5 31.2794 23.342 31.5607 23.0607C31.842 22.7794 32 22.3978 32 22V18.5C31.9997 17.6394 31.7773 16.7934 31.3543 16.0439C30.9313 15.2944 30.322 14.6668 29.5854 14.2218C28.8487 13.7768 28.0097 13.5295 27.1495 13.5038C26.2892 13.4781 25.4369 13.6748 24.675 14.075C24.4819 13.8316 24.2179 13.6542 23.9196 13.5673C23.6213 13.4804 23.3034 13.4882 23.0098 13.5897C22.7161 13.6913 22.4613 13.8815 22.2804 14.1341C22.0995 14.3867 22.0015 14.6893 22 15V22C22 22.3978 22.158 22.7794 22.4393 23.0607C22.7206 23.342 23.1022 23.5 23.5 23.5ZM37 5.5V26.5C36.9967 27.162 36.7323 27.796 36.2641 28.2641C35.796 28.7323 35.162 28.9967 34.5 29H13.5C12.838 28.9967 12.204 28.7323 11.7359 28.2641C11.2677 27.796 11.0033 27.162 11 26.5V5.5C11.0033 4.83797 11.2677 4.20399 11.7359 3.73586C12.204 3.26773 12.838 3.00329 13.5 3H34.5C35.162 3.00329 35.796 3.26773 36.2641 3.73586C36.7323 4.20399 36.9967 4.83797 37 5.5ZM34 6H14V26H34V6ZM18.5 12C18.8956 12 19.2822 11.8827 19.6111 11.6629C19.94 11.4432 20.1964 11.1308 20.3478 10.7654C20.4991 10.3999 20.5387 9.99778 20.4616 9.60982C20.3844 9.22186 20.1939 8.86549 19.9142 8.58579C19.6345 8.30608 19.2781 8.1156 18.8902 8.03843C18.5022 7.96126 18.1001 8.00087 17.7346 8.15224C17.3692 8.30362 17.0568 8.55996 16.8371 8.88886C16.6173 9.21776 16.5 9.60444 16.5 10C16.5 10.5304 16.7107 11.0391 17.0858 11.4142C17.4609 11.7893 17.9696 12 18.5 12Z" fill="white"/>
</g>
<defs>
<clipPath id="clip0_181_6003">
<rect width="32" height="32" fill="white" transform="translate(0.428589)"/>
</clipPath>
</defs>
</svg>
