<svg width="19" height="28" viewBox="0 0 19 28" fill="none" xmlns="http://www.w3.org/2000/svg">
<path d="M9.99999 6.66667C10.884 6.66667 11.7319 7.01786 12.357 7.64298C12.9821 8.2681 13.3333 9.11595 13.3333 10C13.3333 10.4377 13.2471 10.8712 13.0796 11.2756C12.9121 11.68 12.6665 12.0475 12.357 12.357C12.0475 12.6666 11.68 12.9121 11.2756 13.0796C10.8712 13.2471 10.4377 13.3333 9.99999 13.3333C9.11593 13.3333 8.26809 12.9821 7.64297 12.357C7.01785 11.7319 6.66666 10.8841 6.66666 10C6.66666 9.11595 7.01785 8.2681 7.64297 7.64298C8.26809 7.01786 9.11593 6.66667 9.99999 6.66667ZM9.99999 0.666672C12.4753 0.666672 14.8493 1.65 16.5997 3.40034C18.35 5.15068 19.3333 7.52465 19.3333 10C19.3333 17 9.99999 27.3333 9.99999 27.3333C9.99999 27.3333 0.666656 17 0.666656 10C0.666656 7.52465 1.64999 5.15068 3.40033 3.40034C5.15067 1.65 7.52464 0.666672 9.99999 0.666672ZM9.99999 3.33334C8.23188 3.33334 6.53619 4.03572 5.28594 5.28596C4.0357 6.5362 3.33332 8.23189 3.33332 10C3.33332 11.3333 3.33332 14 9.99999 22.9467C16.6667 14 16.6667 11.3333 16.6667 10C16.6667 8.23189 15.9643 6.5362 14.714 5.28596C13.4638 4.03572 11.7681 3.33334 9.99999 3.33334Z" fill="white"/>
</svg>
