<svg width="23" height="22" viewBox="0 0 23 22" fill="none" xmlns="http://www.w3.org/2000/svg">
<path d="M3.33332 21.6667C2.59999 21.6667 1.97243 21.4058 1.45066 20.884C0.92799 20.3613 0.666656 19.7333 0.666656 19V2.99999C0.666656 2.26666 0.92799 1.63911 1.45066 1.11733C1.97243 0.594661 2.59999 0.333328 3.33332 0.333328H24.6667C25.4 0.333328 26.028 0.594661 26.5507 1.11733C27.0724 1.63911 27.3333 2.26666 27.3333 2.99999V19C27.3333 19.7333 27.0724 20.3613 26.5507 20.884C26.028 21.4058 25.4 21.6667 24.6667 21.6667H3.33332ZM24.6667 5.66666L14.7 11.9C14.5889 11.9667 14.472 12.0164 14.3493 12.0493C14.2275 12.0831 14.1111 12.1 14 12.1C13.8889 12.1 13.7724 12.0831 13.6507 12.0493C13.528 12.0164 13.4111 11.9667 13.3 11.9L3.33332 5.66666V19H24.6667V5.66666ZM14 9.66666L24.6667 2.99999H3.33332L14 9.66666ZM3.33332 5.66666V6V4.03333V4.06666V2.99999V4.06666V4.04933V6V5.66666V19V5.66666Z" fill="white"/>
</svg>
