<svg width="33" height="30" viewBox="0 0 33 30" fill="none" xmlns="http://www.w3.org/2000/svg">
<g clip-path="url(#clip0_172_6092)">
<path d="M24 25C26.829 25 29.5421 23.9464 31.5425 22.0711C33.5428 20.1957 34.6667 17.6522 34.6667 15C34.6667 12.3478 33.5428 9.8043 31.5425 7.92893C29.5421 6.05357 26.829 5 24 5C21.171 5 18.4579 6.05357 16.4575 7.92893C14.4571 9.8043 13.3333 12.3478 13.3333 15C13.3333 17.6522 14.4571 20.1957 16.4575 22.0711C18.4579 23.9464 21.171 25 24 25ZM24 27.5C16.636 27.5 10.6667 21.9037 10.6667 15C10.6667 8.09625 16.636 2.5 24 2.5C31.364 2.5 37.3333 8.09625 37.3333 15C37.3333 21.9037 31.364 27.5 24 27.5Z" fill="white"/>
<path d="M30.6666 11.1838C30.176 11.3838 29.6493 11.5213 29.096 11.5813C29.6613 11.2688 30.0933 10.7738 30.2986 10.185C29.7599 10.4793 29.1721 10.6864 28.56 10.7975C28.3025 10.5445 27.9927 10.3433 27.6495 10.2062C27.3064 10.069 26.937 9.99891 26.564 10C25.0533 10 23.8293 11.1313 23.8293 12.525C23.8293 12.7225 23.8533 12.915 23.9 13.1C22.8164 13.0518 21.7555 12.7923 20.7848 12.3382C19.8142 11.8841 18.9552 11.2453 18.2626 10.4625C18.0194 10.8464 17.8913 11.2848 17.892 11.7313C17.892 12.6063 18.376 13.3813 19.1093 13.8325C18.6752 13.8198 18.2505 13.7114 17.8693 13.5163V13.5475C17.8734 14.1343 18.0944 14.7017 18.4945 15.153C18.8947 15.6042 19.4493 15.9115 20.064 16.0225C19.6605 16.1225 19.2382 16.1371 18.828 16.065C19.0068 16.5698 19.3489 17.01 19.8067 17.3242C20.2645 17.6385 20.8153 17.8113 21.3826 17.8188C20.4093 18.522 19.2142 18.9019 17.9853 18.8988C17.7653 18.8988 17.548 18.8863 17.3333 18.8638C18.5873 19.6079 20.0413 20.002 21.5253 20C26.5573 20 29.308 16.1525 29.308 12.815L29.2986 12.4875C29.835 12.1341 30.2986 11.6924 30.6666 11.1838Z" fill="white"/>
</g>
<defs>
<clipPath id="clip0_172_6092">
<rect width="32" height="30" fill="white" transform="translate(0.428589)"/>
</clipPath>
</defs>
</svg>
