<svg width="16" height="16" viewBox="0 0 16 16" fill="none" xmlns="http://www.w3.org/2000/svg">
<path d="M1.33325 10.7198C0.994446 10.7198 0.719789 10.9944 0.719789 11.3333C0.719789 11.6721 0.994446 11.9467 1.33325 11.9467V10.7198ZM3.33325 5.99992H2.71979H3.33325ZM12.6666 5.99992H13.28H12.6666ZM9.15321 13.9999L9.68385 14.3077C9.79394 14.118 9.7943 13.8839 9.68479 13.6937C9.57529 13.5036 9.3726 13.3865 9.15321 13.3865V13.9999ZM6.84654 13.9999V13.3865C6.62715 13.3865 6.42445 13.5036 6.31495 13.6937C6.20545 13.8839 6.20581 14.118 6.31589 14.3077L6.84654 13.9999ZM14.6666 10.7198H1.33325V11.9467H14.6666V10.7198ZM1.33325 11.9467C2.77663 11.9467 3.94671 10.7766 3.94671 9.33325H2.71979C2.71979 10.099 2.09902 10.7198 1.33325 10.7198V11.9467ZM3.94671 9.33325V5.99992H2.71979V9.33325H3.94671ZM3.94671 5.99992C3.94671 3.7614 5.7614 1.94671 7.99992 1.94671V0.719789C5.08378 0.719789 2.71979 3.08378 2.71979 5.99992H3.94671ZM7.99992 1.94671C10.2384 1.94671 12.0531 3.7614 12.0531 5.99992H13.28C13.28 3.08378 10.9161 0.719789 7.99992 0.719789V1.94671ZM12.0531 5.99992V9.33325H13.28V5.99992H12.0531ZM12.0531 9.33325C12.0531 10.7766 13.2232 11.9467 14.6666 11.9467V10.7198C13.9008 10.7198 13.28 10.099 13.28 9.33325H12.0531ZM8.62256 13.6921C8.49378 13.9141 8.25653 14.0508 7.99987 14.0508V15.2777C8.69397 15.2777 9.33557 14.9081 9.68385 14.3077L8.62256 13.6921ZM7.99987 14.0508C7.74321 14.0508 7.50597 13.9141 7.37718 13.6921L6.31589 14.3077C6.66417 14.9081 7.30577 15.2777 7.99987 15.2777V14.0508ZM6.84654 14.6134H9.15321V13.3865H6.84654V14.6134Z" fill="#00B87C"/>
</svg>
