<svg width="126" height="125" viewBox="0 0 126 125" fill="none" xmlns="http://www.w3.org/2000/svg">
<circle cx="63" cy="62.5" r="62.5" fill="#FFF0F0"/>
<path fill-rule="evenodd" clip-rule="evenodd" d="M32.5424 24.5C28.9414 24.5 25.9933 27.4481 25.9933 31.0491V38.1414C25.5613 38.4046 25.1507 38.7039 24.7787 39.0447C23.3845 40.3222 22.4545 42.347 23.0697 44.428L29.1183 64.887C29.0874 65.0817 29.0936 65.2805 29.1366 65.4729L23.0453 92.1697C22.5739 94.2359 23.4656 96.2008 24.8336 97.4736C26.2016 98.7464 28.0513 99.5 29.985 99.5H97.0138C98.9475 99.5 100.797 98.7464 102.165 97.4736C103.533 96.2008 104.425 94.2359 103.953 92.1697L97.8561 65.4424C97.8925 65.2677 97.8987 65.0881 97.8744 64.9114L103.929 44.428C104.544 42.347 103.614 40.3222 102.22 39.0447C101.845 38.7009 101.43 38.4002 100.993 38.1353V31.0491C100.993 27.4481 98.0452 24.5 94.4442 24.5H32.5424ZM32.5424 27.625H94.4442C96.3682 27.625 97.8683 29.1253 97.8683 31.0491V37.0793C97.5836 37.0462 97.303 37 97.0138 37H29.985C29.6917 37 29.4069 37.0452 29.1183 37.0793V31.0491C29.1183 29.1253 30.6184 27.625 32.5424 27.625ZM49.4308 30.75C49.0164 30.75 48.619 30.9146 48.3259 31.2076C48.0329 31.5007 47.8683 31.8981 47.8683 32.3125C47.8683 32.7269 48.0329 33.1243 48.3259 33.4174C48.619 33.7104 49.0164 33.875 49.4308 33.875C49.8452 33.875 50.2426 33.7104 50.5357 33.4174C50.8287 33.1243 50.9933 32.7269 50.9933 32.3125C50.9933 31.8981 50.8287 31.5007 50.5357 31.2076C50.2426 30.9146 49.8452 30.75 49.4308 30.75ZM77.5558 30.75C77.1414 30.75 76.744 30.9146 76.4509 31.2076C76.1579 31.5007 75.9933 31.8981 75.9933 32.3125C75.9933 32.7269 76.1579 33.1243 76.4509 33.4174C76.744 33.7104 77.1414 33.875 77.5558 33.875C77.9702 33.875 78.3676 33.7104 78.6607 33.4174C78.9537 33.1243 79.1183 32.7269 79.1183 32.3125C79.1183 31.8981 78.9537 31.5007 78.6607 31.2076C78.3676 30.9146 77.9702 30.75 77.5558 30.75ZM29.985 40.125H97.0138C98.0745 40.125 99.3364 40.6329 100.114 41.3457C100.892 42.0582 101.168 42.7442 100.932 43.543L95.0118 63.5625H90.0558C89.8487 63.5596 89.6432 63.5978 89.451 63.675C89.2589 63.7522 89.084 63.8669 88.9366 64.0123C88.7891 64.1576 88.672 64.3309 88.5921 64.5219C88.5122 64.7129 88.471 64.9179 88.471 65.125C88.471 65.3321 88.5122 65.5371 88.5921 65.7281C88.672 65.9191 88.7891 66.0924 88.9366 66.2377C89.084 66.3831 89.2589 66.4978 89.451 66.575C89.6432 66.6522 89.8487 66.6904 90.0558 66.6875H94.9325L100.908 92.8655C101.104 93.7264 100.793 94.4792 100.035 95.1848C99.2767 95.8901 98.0828 96.375 97.0138 96.375H29.985C28.916 96.375 27.7221 95.8901 26.9638 95.1848C26.2054 94.4792 25.8945 93.7264 26.091 92.8655L32.0663 66.6875H36.9308C37.1378 66.6904 37.3434 66.6522 37.5356 66.575C37.7277 66.4978 37.9026 66.3831 38.05 66.2377C38.1975 66.0924 38.3146 65.9191 38.3945 65.7281C38.4744 65.5371 38.5156 65.3321 38.5156 65.125C38.5156 64.9179 38.4744 64.7129 38.3945 64.5219C38.3146 64.3309 38.1975 64.1576 38.05 64.0123C37.9026 63.8669 37.7277 63.7522 37.5356 63.675C37.3434 63.5978 37.1378 63.5596 36.9308 63.5625H31.987L26.0665 43.543C25.8304 42.7442 26.1064 42.0582 26.8844 41.3457C27.6624 40.6329 28.9243 40.125 29.985 40.125ZM80.7296 46.3567V46.3628C80.5368 46.356 80.3443 46.385 80.162 46.4482L70.8297 49.5732C70.6252 49.6298 70.4344 49.7273 70.2689 49.86C70.1033 49.9926 69.9665 50.1576 69.8668 50.3449C69.7671 50.5321 69.7065 50.7377 69.6888 50.9491C69.6711 51.1605 69.6967 51.3733 69.7639 51.5745C69.8311 51.7757 69.9385 51.9611 70.0797 52.1195C70.2209 52.2778 70.3929 52.4057 70.5851 52.4954C70.7774 52.5852 70.9859 52.6348 71.1979 52.6413C71.4099 52.6479 71.6211 52.6112 71.8185 52.5334L79.1183 50.092V88.5869C79.1154 88.794 79.1536 88.9995 79.2308 89.1917C79.308 89.3838 79.4227 89.5587 79.568 89.7061C79.7134 89.8536 79.8867 89.9707 80.0777 90.0506C80.2687 90.1305 80.4737 90.1717 80.6808 90.1717C80.8879 90.1717 81.0929 90.1305 81.2839 90.0506C81.4749 89.9707 81.6482 89.8536 81.7935 89.7061C81.9389 89.5587 82.0536 89.3838 82.1308 89.1917C82.208 88.9995 82.2462 88.794 82.2433 88.5869V47.9619C82.2435 47.9456 82.2435 47.9294 82.2433 47.9131C82.2426 47.8251 82.2344 47.7373 82.2189 47.6506C82.2137 47.6199 82.2076 47.5894 82.2006 47.5591C82.1703 47.4361 82.1252 47.3172 82.0663 47.2051C82.0528 47.1782 82.0386 47.1518 82.0236 47.1257C81.8901 46.899 81.7015 46.7096 81.4753 46.5751C81.2491 46.4407 80.9926 46.3656 80.7296 46.3567ZM58.7265 46.375C53.9717 46.4534 49.6907 49.7107 48.4237 54.4866C48.3698 54.6854 48.3556 54.893 48.3822 55.0973C48.4088 55.3016 48.4755 55.4987 48.5785 55.6771C48.6815 55.8556 48.8188 56.0119 48.9824 56.137C49.1461 56.2622 49.3328 56.3538 49.532 56.4065C49.7312 56.4592 49.9389 56.472 50.143 56.4442C50.3472 56.4163 50.5438 56.3484 50.7216 56.2443C50.8994 56.1401 51.0548 56.0019 51.179 55.8374C51.3031 55.673 51.3935 55.4856 51.445 55.2861C52.4882 51.3533 56.2861 48.9189 60.234 49.6221C64.1819 50.3252 66.9391 53.9386 66.5878 57.9961C66.2364 62.0533 62.9055 65.125 58.8974 65.125C58.7167 65.1226 58.5371 65.1515 58.3663 65.2104C57.9931 65.1765 57.623 65.125 57.2433 65.125C57.0363 65.1221 56.8307 65.1603 56.6385 65.2375C56.4464 65.3147 56.2715 65.4294 56.1241 65.5748C55.9766 65.7201 55.8595 65.8934 55.7796 66.0844C55.6997 66.2754 55.6586 66.4804 55.6586 66.6875C55.6586 66.8946 55.6997 67.0996 55.7796 67.2906C55.8595 67.4816 55.9766 67.6549 56.1241 67.8002C56.2715 67.9456 56.4464 68.0603 56.6385 68.1375C56.8307 68.2147 57.0363 68.2529 57.2433 68.25C61.0395 68.25 64.4514 70.5347 65.9042 74.0422C67.3569 77.55 66.556 81.5748 63.8717 84.2595C61.1874 86.9442 57.1617 87.7448 53.6544 86.292C50.1471 84.8389 47.8682 81.428 47.8683 77.6311C47.8712 77.4241 47.833 77.2185 47.7558 77.0264C47.6786 76.8342 47.5639 76.6593 47.4185 76.5119C47.2732 76.3644 47.0999 76.2474 46.9089 76.1674C46.7179 76.0875 46.5129 76.0464 46.3058 76.0464C46.0987 76.0464 45.8937 76.0875 45.7027 76.1674C45.5117 76.2474 45.3384 76.3644 45.1931 76.5119C45.0477 76.6593 44.933 76.8342 44.8558 77.0264C44.7786 77.2185 44.7404 77.4241 44.7433 77.6311C44.7432 82.6827 47.7913 87.2458 52.4581 89.179C57.1249 91.1121 62.5095 90.0412 66.0812 86.469C69.6528 82.8971 70.724 77.5131 68.7911 72.8459C67.7651 70.3687 65.9865 68.3638 63.7985 67.011C67.0299 65.3416 69.3665 62.1229 69.7006 58.2647C70.1879 52.6365 66.3139 47.5309 60.7833 46.5459C60.092 46.4228 59.4057 46.3638 58.7265 46.375Z" fill="#242424"/>
</svg>
