<svg width="15" height="15" viewBox="0 0 15 15" fill="none" xmlns="http://www.w3.org/2000/svg">
<path d="M9.91914 8.51248C9.91914 9.84645 8.83397 10.9316 7.5 10.9316C6.16603 10.9316 5.08127 9.84645 5.08127 8.51248C5.08127 7.17851 6.16603 6.09334 7.5 6.09334C8.83397 6.09334 9.91914 7.17893 9.91914 8.51248ZM15 5.07742V11.9484C15 12.8644 14.2573 13.607 13.3414 13.607H1.65865C0.74266 13.607 0 12.8644 0 11.9484V5.07742C0 4.16143 0.74266 3.41877 1.65865 3.41877H3.69879V2.84487C3.69879 2.04333 4.34815 1.39355 5.15011 1.39355H9.84989C10.6518 1.39355 11.3012 2.04333 11.3012 2.84487V3.41835H13.3414C14.2573 3.41877 15 4.16143 15 5.07742ZM11.1631 8.51248C11.1631 6.49266 9.51982 4.84935 7.5 4.84935C5.48059 4.84935 3.83729 6.49266 3.83729 8.51248C3.83729 10.5323 5.48059 12.1756 7.5 12.1756C9.51982 12.1756 11.1631 10.5323 11.1631 8.51248Z" fill="#999999"/>
</svg>
