<svg width="126" height="125" viewBox="0 0 126 125" fill="none" xmlns="http://www.w3.org/2000/svg">
<circle cx="63" cy="62.5" r="62.5" fill="#ACFFE6" fill-opacity="0.5"/>
<g clip-path="url(#clip0)">
<path d="M29.1667 55.4417H50.8333C51.755 55.4417 52.5 54.6951 52.5 53.7751C52.5 52.8551 51.755 52.1084 50.8333 52.1084H29.1667C28.245 52.1084 27.5 52.8551 27.5 53.7751C27.5 54.6951 28.245 55.4417 29.1667 55.4417Z" fill="#242424"/>
<path d="M72.5 62.1084H29.1667C28.245 62.1084 27.5 62.8551 27.5 63.7751C27.5 64.6951 28.245 65.4417 29.1667 65.4417H72.5C73.4217 65.4417 74.1667 64.6951 74.1667 63.7751C74.1667 62.8551 73.4217 62.1084 72.5 62.1084Z" fill="#242424"/>
<path d="M72.5 72.1084H29.1667C28.245 72.1084 27.5 72.8551 27.5 73.7751C27.5 74.6951 28.245 75.4417 29.1667 75.4417H72.5C73.4217 75.4417 74.1667 74.6951 74.1667 73.7751C74.1667 72.8551 73.4217 72.1084 72.5 72.1084Z" fill="#242424"/>
<path d="M102.62 17.2251L45.7167 17.1084C40.2667 17.1084 35.8333 21.5417 35.8333 26.9917V35.5317L22.3833 35.5601C16.9333 35.5601 12.5 39.9934 12.5 45.4434V80.6784C12.5 86.1284 16.9333 90.5601 22.3833 90.5601H32.5V107.227C32.5 107.915 32.9233 108.533 33.5667 108.782C33.7617 108.857 33.965 108.893 34.1667 108.893C34.6267 108.893 35.0783 108.702 35.4 108.348L51.5733 90.5567L79.2833 90.4434C84.7333 90.4434 89.1667 86.0101 89.1667 80.5617V80.3734L97.9333 90.0167C98.255 90.3701 98.7067 90.5617 99.1667 90.5617C99.3683 90.5617 99.5717 90.5251 99.7667 90.4501C100.41 90.2017 100.833 89.5834 100.833 88.8951V72.2284H102.617C108.067 72.2284 112.5 67.7951 112.5 62.3467V27.1084C112.5 21.6601 108.068 17.2267 102.62 17.2251ZM85.8333 80.5601C85.8333 84.1717 82.895 87.1084 79.2767 87.1084L50.8267 87.2251C50.36 87.2267 49.9133 87.4251 49.6 87.7701L35.8333 102.915V88.8917C35.8333 87.9717 35.0883 87.2251 34.1667 87.2251H22.3833C18.7717 87.2251 15.8333 84.2867 15.8333 80.6767V45.4417C15.8333 41.8301 18.7717 38.8917 22.3867 38.8917L37.5 38.8601C37.5017 38.8601 37.5017 38.8601 37.5033 38.8601L79.2833 38.7734C82.895 38.7734 85.8333 41.7117 85.8333 45.3234V76.0584V80.5601ZM109.167 62.3434C109.167 65.9551 106.228 68.8917 102.617 68.8917H99.1667C98.245 68.8917 97.5 69.6384 97.5 70.5584V84.5817L89.1667 75.4151V45.3251C89.1667 39.8751 84.7333 35.4417 79.28 35.4417L39.1667 35.5234V26.9901C39.1667 23.3784 42.105 20.4401 45.7133 20.4401L102.615 20.5567C102.617 20.5567 102.617 20.5567 102.618 20.5567C106.23 20.5567 109.168 23.4951 109.168 27.1067V62.3434H109.167Z" fill="#242424"/>
</g>
<defs>
<clipPath id="clip0">
<rect width="100" height="100" fill="white" transform="translate(12.5 13)"/>
</clipPath>
</defs>
</svg>
