<svg width="65" height="64" viewBox="0 0 65 64" fill="none" xmlns="http://www.w3.org/2000/svg">
<path d="M37.4 22.7L39.9 4.1C37.5 3.5 35.1 2 32.5 2C29.9 2 27.5 3.5 25 4.2C22.5 4.8 19.7 4.7 17.5 6C15.3 7.3 13.9 9.8 12.1 11.6C10.3 13.4 7.8 14.8 6.5 17C5.2 19.2 5.3 22 4.6 24.5C4 27 2.5 29.4 2.5 32C2.5 34.6 4 37 4.7 39.5C5.3 42 5.2 44.8 6.5 47C7.8 49.2 10.3 50.6 12.1 52.4C13.9 54.2 15.2 56.7 17.5 58C19.7 59.3 22.5 59.2 25 59.9C27.5 60.5 29.9 62 32.5 62C35.1 62 37.5 60.5 40 59.8C42.5 59.1 45.3 59.2 47.5 57.9C49.7 56.6 51.1 54.1 52.9 52.3C54.7 50.5 57.2 49.2 58.5 46.9C59.8 44.7 59.7 41.9 60.4 39.4C61 37 62.5 34.6 62.5 32C62.5 29.4 60.4 23.9 60.4 23.9L37.4 22.7Z" fill="#DDA85F"/>
<path d="M59.9016 22.4C58.9016 22.7 57.5016 22.6 56.0016 22C53.9016 21.2 52.6016 19.5 52.2016 17.5C51.2016 17.8 48.8016 17.5 47.2016 16.5C44.8016 15 44.3016 10.8 44.3016 10.8C41.6016 10 39.6016 6.8 39.9016 4.1C37.7016 3.5 34.9016 3.6 32.5016 3.6C30.1016 3.6 27.9016 5 25.7016 5.6C23.4016 6.2 20.8016 6.1 18.8016 7.3C16.8016 8.5 15.5016 10.8 13.9016 12.4C12.2016 14.1 9.90156 15.3 8.80156 17.3C7.60156 19.3 7.70156 21.9 7.10156 24.2C6.50156 26.4 5.10156 28.6 5.10156 31C5.10156 33.4 6.50156 35.6 7.10156 37.8C7.70156 40.1 7.60156 42.7 8.80156 44.7C10.0016 46.7 12.3016 48 13.9016 49.6C15.6016 51.3 16.8016 53.6 18.8016 54.7C20.8016 55.9 23.4016 55.8 25.7016 56.4C27.9016 57 30.1016 58.4 32.5016 58.4C34.9016 58.4 37.1016 57 39.3016 56.4C41.6016 55.8 44.2016 55.9 46.2016 54.7C48.2016 53.5 49.5016 51.2 51.1016 49.6C52.8016 47.9 55.1016 46.7 56.2016 44.7C57.4016 42.7 57.3016 40.1 57.9016 37.8C58.5016 35.6 60.9016 33.8 61.2016 31.4C62.0016 27.5 60.0016 23.1 59.9016 22.4Z" fill="#F2CB7D"/>
<path d="M50.5984 10.8L49.1984 12.2L47.8984 10.8L49.1984 9.5L50.5984 10.8Z" fill="#DDA85F"/>
<path d="M56.3 17.7999L55.7 18.4999L55 17.7999L55.7 17.0999L56.3 17.7999Z" fill="#DDA85F"/>
<path d="M51.2984 13.2L50.5984 13.9L49.8984 13.2L50.5984 12.5L51.2984 13.2Z" fill="#DDA85F"/>
<path d="M45.0992 7.0999L44.3992 7.7999L43.6992 7.0999L44.3992 6.3999L45.0992 7.0999Z" fill="#DDA85F"/>
<path d="M57.7008 20.2999L57.0008 20.9999L56.3008 20.2999L57.0008 19.5999L57.7008 20.2999Z" fill="#DDA85F"/>
<path d="M58.2984 17.7999L57.5984 18.4999L56.8984 17.7999L57.5984 17.0999L58.2984 17.7999Z" fill="#DDA85F"/>
<path d="M12.2988 20.5999C11.2988 22.2999 12.7988 25.3999 14.7988 26.2999C17.6988 27.4999 19.3988 27.6999 21.1988 24.5999C21.7988 23.4999 22.5988 20.5999 22.2988 19.8999C21.8988 18.8999 20.1988 16.8999 19.0988 16.8999C15.9988 16.9999 12.9988 19.3999 12.2988 20.5999Z" fill="#6D4934"/>
<path d="M12.8011 20.5999C12.1011 21.7999 13.9011 25.3999 16.3011 25.0999C19.6011 24.6999 19.3011 17.8999 17.9011 17.8999C15.5011 17.8999 13.3011 19.6999 12.8011 20.5999Z" fill="#A37F6A"/>
<path d="M45.7018 39.0999C47.1018 38.6999 48.1018 36.1999 47.5018 34.6999C46.6018 32.3999 45.7018 31.3999 43.1018 32.0999C42.2018 32.3999 40.1018 33.4999 39.9018 33.9999C39.6018 34.7999 39.4018 36.7999 40.0018 37.3999C41.7018 39.0999 44.7018 39.3999 45.7018 39.0999Z" fill="#6D4934"/>
<path d="M44.2996 36.7C45.3996 36.4 47.0996 33 45.2996 32.8C42.1996 32.3 39.7996 33.8 40.0996 35.5C40.3996 37.2 43.4996 36.9 44.2996 36.7Z" fill="#A37F6A"/>
<path d="M25.4016 44.5001C25.1016 43.3001 22.9016 42.4001 21.5016 43.0001C19.5016 43.8001 18.6016 44.5001 19.3016 46.8001C19.5016 47.6001 20.5016 49.4001 21.0016 49.5001C21.7016 49.8001 23.4016 49.9001 23.9016 49.4001C25.4016 48.0001 25.6016 45.4001 25.4016 44.5001Z" fill="#6D4934"/>
<path d="M23.6987 43.6C23.4987 42.7 19.2987 44 19.6987 45.6C20.4987 48.3 20.4987 48.7 21.2987 48.6C22.7987 48.2 23.7987 44.3 23.6987 43.6Z" fill="#A37F6A"/>
<path d="M51.6011 25.5001C50.4011 25.8001 49.5011 28.0001 50.1011 29.4001C50.9011 31.4001 52.8011 31.7001 54.9011 30.6001C56.7011 29.7001 56.8011 26.5001 56.3011 25.9001C54.8011 24.4001 52.5011 25.3001 51.6011 25.5001Z" fill="#6D4934"/>
<path d="M51.0997 26.6C50.4997 27.3 49.9997 30.1 51.4997 29.7C54.1997 28.9 56.0997 26.2 54.8997 25.8C53.3997 25.3 51.7997 25.8 51.0997 26.6Z" fill="#A37F6A"/>
<path d="M23.2383 16.1121L25.2183 14.1321L27.1983 16.1121L25.2183 18.0921L23.2383 16.1121Z" fill="#6D4934"/>
<path d="M15.207 33.4829L17.186 31.5029L19.166 33.4819L17.187 35.4619L15.207 33.4829Z" fill="#DDA85F"/>
<path d="M35.1992 44.8108L37.1792 42.8308L39.1592 44.8108L37.1792 46.7908L35.1992 44.8108Z" fill="#DDA85F"/>
<path d="M32.5391 39.2888L35.2261 36.6018L37.9131 39.2888L35.2261 41.9758L32.5391 39.2888Z" fill="#DDA85F"/>
<path d="M25.1953 9.82689L27.8823 7.13989L30.5693 9.82689L27.8823 12.5139L25.1953 9.82689Z" fill="#DDA85F"/>
<path d="M41.6211 46.3469L43.6011 44.3669L45.5811 46.3469L43.6011 48.3269L41.6211 46.3469Z" fill="#6D4934"/>
<path d="M49.5781 35.2149L51.5581 33.2349L53.5381 35.2149L51.5581 37.1949L49.5781 35.2149Z" fill="#6D4934"/>
<path d="M42.3125 24.637L43.3025 23.647L44.2925 24.637L43.3025 25.627L42.3125 24.637Z" fill="#6D4934"/>
<path d="M14.2266 38.2659L15.2166 37.2759L16.2066 38.2659L15.2166 39.2559L14.2266 38.2659Z" fill="#6D4934"/>
</svg>
