<svg width="18" height="19" viewBox="0 0 18 19" fill="none" xmlns="http://www.w3.org/2000/svg">
<g clip-path="url(#clip0)">
<path d="M15.75 0.0493164H2.25C1.00912 0.0493164 0 1.05844 0 2.29932V15.7993C0 17.0402 1.00912 18.0493 2.25 18.0493H15.75C16.9909 18.0493 18 17.0402 18 15.7993V2.29932C18 1.05844 16.9909 0.0493164 15.75 0.0493164Z" fill="#1976D2"/>
<path fill-rule="evenodd" clip-rule="evenodd" d="M15.1875 9.04932H12.375V6.79932C12.375 6.17832 12.879 6.23682 13.5 6.23682H14.625V3.42432H12.375C11.4799 3.42432 10.6214 3.7799 9.98851 4.41283C9.35558 5.04577 9 5.90421 9 6.79932V9.04932H6.75V11.8618H9V18.0493H12.375V11.8618H14.0625L15.1875 9.04932Z" fill="#FAFAFA"/>
</g>
<defs>
<clipPath id="clip0">
<rect width="18" height="18" fill="white" transform="translate(0 0.0493164)"/>
</clipPath>
</defs>
</svg>
