<svg width="578" height="383" viewBox="0 0 578 383" fill="none" xmlns="http://www.w3.org/2000/svg">
<path opacity="0.2" d="M69.9023 374.18C30.203 368.385 -7.06367 351.8 -37.7014 326.292C-77.1668 293.268 -112.543 239.401 -85.3613 159.341C-33.9008 7.6788 199.797 -17.4562 306.246 17.493C475.365 73.1277 552.868 298.238 320.422 371.166C262.643 389.296 132.797 383.521 69.9023 374.18Z" fill="white"/>
<path opacity="0.2" d="M543.456 22.8283C513.142 -5.28675 461.515 -9.80722 435.029 22.718C421.642 39.1618 420.825 62.7879 425.421 75.7193C439.833 115.994 509.107 178.666 559.933 133.383C592.857 104.071 576.843 53.8257 543.456 22.8283Z" fill="white"/>
</svg>
