<svg width="18" height="19" viewBox="0 0 18 19" fill="none" xmlns="http://www.w3.org/2000/svg">
<g clip-path="url(#clip0)">
<path d="M12.375 0.0493164H5.625C4.13316 0.0493164 2.70242 0.641949 1.64752 1.69684C0.592632 2.75173 0 4.18247 0 5.67432L0 12.4243C0 13.9162 0.592632 15.3469 1.64752 16.4018C2.70242 17.4567 4.13316 18.0493 5.625 18.0493H12.375C13.8668 18.0493 15.2976 17.4567 16.3525 16.4018C17.4074 15.3469 18 13.9162 18 12.4243V5.67432C18 4.18247 17.4074 2.75173 16.3525 1.69684C15.2976 0.641949 13.8668 0.0493164 12.375 0.0493164V0.0493164ZM16.3125 12.4243C16.3125 14.5956 14.5463 16.3618 12.375 16.3618H5.625C3.45375 16.3618 1.6875 14.5956 1.6875 12.4243V5.67432C1.6875 3.50307 3.45375 1.73682 5.625 1.73682H12.375C14.5463 1.73682 16.3125 3.50307 16.3125 5.67432V12.4243Z" fill="url(#paint0_linear)"/>
<path d="M9 4.54932C7.80653 4.54932 6.66193 5.02342 5.81802 5.86734C4.97411 6.71125 4.5 7.85584 4.5 9.04932C4.5 10.2428 4.97411 11.3874 5.81802 12.2313C6.66193 13.0752 7.80653 13.5493 9 13.5493C10.1935 13.5493 11.3381 13.0752 12.182 12.2313C13.0259 11.3874 13.5 10.2428 13.5 9.04932C13.5 7.85584 13.0259 6.71125 12.182 5.86734C11.3381 5.02342 10.1935 4.54932 9 4.54932ZM9 11.8618C8.25435 11.8609 7.5395 11.5643 7.01225 11.0371C6.485 10.5098 6.18839 9.79496 6.1875 9.04932C6.1875 7.49794 7.44975 6.23682 9 6.23682C10.5503 6.23682 11.8125 7.49794 11.8125 9.04932C11.8125 10.5996 10.5503 11.8618 9 11.8618Z" fill="url(#paint1_linear)"/>
<path d="M13.8379 4.81155C14.1691 4.81155 14.4375 4.54309 14.4375 4.21193C14.4375 3.88077 14.1691 3.6123 13.8379 3.6123C13.5067 3.6123 13.2383 3.88077 13.2383 4.21193C13.2383 4.54309 13.5067 4.81155 13.8379 4.81155Z" fill="url(#paint2_linear)"/>
</g>
<defs>
<linearGradient id="paint0_linear" x1="1.64756" y1="16.4018" x2="16.3524" y2="1.69688" gradientUnits="userSpaceOnUse">
<stop stop-color="#FFC107"/>
<stop offset="0.5074" stop-color="#F44336"/>
<stop offset="0.9901" stop-color="#9C27B0"/>
</linearGradient>
<linearGradient id="paint1_linear" x1="5.81805" y1="12.2313" x2="12.1819" y2="5.86737" gradientUnits="userSpaceOnUse">
<stop stop-color="#FFC107"/>
<stop offset="0.5074" stop-color="#F44336"/>
<stop offset="0.9901" stop-color="#9C27B0"/>
</linearGradient>
<linearGradient id="paint2_linear" x1="13.4137" y1="4.63617" x2="14.2621" y2="3.78769" gradientUnits="userSpaceOnUse">
<stop stop-color="#FFC107"/>
<stop offset="0.5074" stop-color="#F44336"/>
<stop offset="0.9901" stop-color="#9C27B0"/>
</linearGradient>
<clipPath id="clip0">
<rect width="18" height="18" fill="white" transform="translate(0 0.0493164)"/>
</clipPath>
</defs>
</svg>
