<svg width="130" height="238" viewBox="0 0 130 238" fill="none" xmlns="http://www.w3.org/2000/svg">
<path d="M111.197 223.397H10.5354C8.86491 223.397 7.51074 224.731 7.51074 226.378V238.582C7.51074 240.228 8.86491 241.563 10.5354 241.563H111.197C112.867 241.563 114.221 240.228 114.221 238.582V226.378C114.221 224.731 112.867 223.397 111.197 223.397Z" fill="#9B7D84"/>
<path d="M116.786 167.172C116.553 169.603 116.181 172.018 115.671 174.407C115.547 175.052 115.388 175.75 115.229 176.465C112.994 186.843 108.537 196.632 102.158 205.178C101.733 205.701 101.326 206.224 100.884 206.73C98.0451 210.123 94.7619 213.131 91.1206 215.673L89.9709 216.44C83.2294 220.787 75.5236 223.466 67.5073 224.251C66.9413 224.251 66.3753 224.373 65.7386 224.408C63.9698 224.565 62.1126 224.634 60.2023 224.634C53.2813 224.699 46.4024 223.567 39.879 221.287L38.6231 220.816C31.0224 217.841 24.2063 213.203 18.689 207.253C18.2998 206.817 17.9107 206.398 17.5393 205.963C12.9781 200.764 9.19036 194.953 6.2898 188.703L5.77686 187.57C2.77585 181.061 0.607214 174.209 -0.679199 167.172H116.786Z" fill="#6059C9"/>
<path d="M23.2726 167.172C19.0275 175.453 13.7212 183.525 6.36305 188.703L5.8501 187.57C12.7837 182.654 17.8248 175 21.8753 167.172H23.2726Z" fill="#9F9FFB"/>
<path d="M40.7289 167.172C33.5894 172.696 27.8593 179.789 23.9962 187.884C21.6083 192.905 18.6898 200.523 18.8314 207.253C18.4422 206.817 18.0531 206.398 17.6816 205.963C18.1019 200.315 19.5143 194.781 21.856 189.61C25.5561 180.9 31.3395 173.202 38.7125 167.172H40.7289Z" fill="#9F9FFB"/>
<path d="M91.138 215.673L89.9883 216.44C88.2488 207.71 88.6237 198.698 91.0824 190.138C93.5411 181.577 98.0143 173.709 104.139 167.172H105.907C99.7058 173.514 95.1303 181.223 92.5614 189.659C89.9925 198.095 89.5045 207.014 91.138 215.673Z" fill="#9F9FFB"/>
<path d="M74.6544 214.575C72.3903 217.87 70.0025 221.096 67.5793 224.251C67.0133 224.251 66.4472 224.373 65.8105 224.408C69.348 219.991 72.6557 215.424 75.7333 210.705C77.5021 207.985 80.6682 204.028 79.5008 200.541C78.0328 196.13 71.8951 197.996 68.7467 199.059C56.9666 203.087 47.9989 212.1 39.9509 221.287L38.6951 220.817C42.2735 216.627 46.1259 212.673 50.2275 208.979C54.8292 204.757 60.1139 201.322 65.8635 198.815C69.7549 197.211 76.8477 194.439 80.0138 198.815C83.516 203.644 77.2368 210.792 74.6544 214.575Z" fill="#9F9FFB"/>
<path d="M115.688 174.408C115.565 175.053 115.405 175.75 115.246 176.465C107.233 183.973 102.537 194.287 102.175 205.178C101.75 205.701 101.344 206.224 100.901 206.73C100.864 200.611 102.165 194.557 104.717 188.979C107.269 183.401 111.011 178.431 115.688 174.408Z" fill="#9F9FFB"/>
<path d="M91.3526 167.172C88.9942 169.392 86.5297 171.548 83.9591 173.64C77.8612 178.712 71.4584 183.416 64.7855 187.727C61.5904 189.969 58.2123 191.945 54.6857 193.637C51.9264 194.805 48.6188 195.38 46.0364 193.463C40.5885 189.453 43.5247 181.259 46.0364 176.499C47.7518 173.053 50.0216 169.904 52.7578 167.172H54.5265C51.0082 170.451 48.2142 174.409 46.3194 178.801C44.9751 181.921 43.6132 185.687 44.5506 189.069C45.948 193.898 50.759 194.09 54.7211 192.26C60.7449 189.188 66.4652 185.569 71.8076 181.451C77.9775 177.031 83.8832 172.263 89.4954 167.172H91.3526Z" fill="#9F9FFB"/>
<path d="M58.1002 170.485C90.5225 170.485 116.806 169.002 116.806 167.173C116.806 165.343 90.5225 163.86 58.1002 163.86C25.6778 163.86 -0.605713 165.343 -0.605713 167.173C-0.605713 169.002 25.6778 170.485 58.1002 170.485Z" fill="#2B2B39"/>
<path d="M3.1604 92.3995C1.62156 101.971 -4.92293 105.789 0.878673 110.862C6.68028 115.935 17.8944 123.222 11.9866 132.637C6.07889 142.051 13.7554 144.98 21.5734 150.907C27.6934 155.614 29.0907 159.624 27.9941 167.591H59.8322C59.999 162.066 58.2385 156.651 54.8442 152.25C46.8847 141.65 45.1513 143.533 46.0003 135.74C46.8493 127.947 48.7242 125.471 41.7729 119.125C34.8216 112.78 30.7357 108.177 33.6011 99.495C36.4666 90.813 31.1779 82.3228 22.7054 77.4239C14.233 72.525 18.0359 62.5877 13.3309 49.7041C8.62594 36.8205 -5.73657 29.481 -5.73657 29.481C4.87612 46.0779 -7.50536 60.1644 -6.65634 72.2286C-5.80733 84.2928 4.69924 82.7935 3.1604 92.3995Z" fill="#467B6C"/>
<path d="M40.356 167.591H42.337L9.24308 68.5319C9.16228 68.3008 8.99344 68.1097 8.77227 67.9991C8.5511 67.8885 8.29495 67.867 8.058 67.9392C7.82218 68.0225 7.62806 68.1922 7.51603 68.413C7.40401 68.6339 7.38273 68.8888 7.45662 69.1247L40.356 167.591Z" fill="#253F3D"/>
<path d="M92.0236 167.591C90.9092 159.572 92.2712 155.562 98.4089 150.855C106.085 144.945 113.815 142.016 107.943 132.671C102.07 123.327 113.249 116.04 118.98 111.001C124.711 105.963 118.237 102.18 116.716 92.6609C115.195 83.1421 125.56 84.5717 126.391 72.5772C127.222 60.5828 114.841 46.566 125.471 30.0736C125.471 30.0736 111.197 37.3609 106.51 50.1748C101.823 62.9886 105.608 72.8387 97.1884 77.755C88.769 82.6713 83.4803 91.057 86.3458 99.7042C89.2112 108.351 85.1253 112.936 78.2271 119.23C71.3288 125.524 73.1507 128.052 74.0174 135.757C74.8841 143.463 73.1507 141.65 65.1735 152.18C61.7616 156.596 60.0167 162.045 60.2386 167.591H92.0236Z" fill="#467B6C"/>
<path d="M79.6413 167.591L112.435 69.4909C112.473 69.3753 112.488 69.2533 112.479 69.1319C112.47 69.0105 112.436 68.8922 112.38 68.7837C112.324 68.6752 112.247 68.5786 112.153 68.4995C112.059 68.4204 111.951 68.3604 111.833 68.3228C111.717 68.285 111.594 68.2703 111.473 68.2797C111.351 68.2892 111.232 68.3224 111.123 68.3776C111.015 68.4328 110.918 68.5088 110.84 68.6012C110.761 68.6936 110.702 68.8004 110.666 68.9156L77.678 167.591H79.6413Z" fill="#253F3D"/>
<path d="M35.7231 89.3308C40.2335 96.653 49.8733 108.159 40.2865 116.301C30.6997 124.442 38.1109 130.126 44.3901 138.965C50.6693 147.804 49.2543 153.086 41.8254 166.162C41.5706 166.608 41.3404 167.068 41.1355 167.539H80.4202C81.8216 162.176 81.5566 156.521 79.6596 151.308C74.707 137.361 72.2307 138.756 75.7683 130.736C79.3058 122.717 82.1359 120.624 76.8296 111.559C71.5232 102.493 68.6932 96.2171 74.707 87.8489C80.7209 79.4807 77.8908 68.6717 70.4619 60.6696C63.0331 52.6675 70.4619 43.2358 69.7544 27.8941C69.0469 12.5524 56.1525 0 56.1525 0C62.0072 21.2692 43.9479 32.2874 40.7641 45.4673C37.5803 58.6473 49.2542 60.5302 44.3017 70.2757C39.3491 80.0211 31.2127 82.026 35.7231 89.3308Z" fill="#467B6C"/>
<path d="M61.0879 167.591L58.93 46.7573C58.93 46.6207 58.9024 46.4855 58.8489 46.3596C58.7953 46.2336 58.7169 46.1195 58.6181 46.0237C58.5193 45.928 58.4021 45.8526 58.2735 45.8019C58.1448 45.7513 58.0072 45.7263 57.8687 45.7287C57.7293 45.7309 57.5918 45.7603 57.4639 45.815C57.336 45.8696 57.2203 45.9486 57.1234 46.0474C57.0265 46.1461 56.9503 46.2627 56.8991 46.3905C56.8479 46.5183 56.8228 46.6548 56.8251 46.7922L58.983 167.591H61.0879Z" fill="#253F3D"/>
</svg>
