<svg width="159" height="225" viewBox="0 0 159 225" fill="none" xmlns="http://www.w3.org/2000/svg">
<path d="M153.593 79.4768C155.562 78.0155 157.091 76.0414 158.015 73.7699C158.938 71.4984 159.219 69.0168 158.828 66.5963M153.593 79.4768L147.556 61.5673C151.38 58.5475 157.62 61.7676 158.828 66.5963M153.593 79.4768C149.705 82.3886 145.527 84.8906 141.125 86.9428L153.593 79.4768ZM158.828 66.5963L158.334 66.6761C158.336 66.6831 158.337 66.6902 158.338 66.6973M158.828 66.5963L158.343 66.7176C158.341 66.7108 158.34 66.704 158.338 66.6973M158.338 66.6973C158.709 69.0207 158.437 71.4016 157.551 73.5816C156.663 75.7682 155.19 77.6686 153.295 79.0753L153.293 79.0766C149.433 81.9678 145.285 84.452 140.914 86.4896L140.902 86.4953L140.89 86.5016C139.383 87.3047 137.294 88.4251 135.402 89.78C133.524 91.1244 131.764 92.7528 131.002 94.6007L131.002 94.6009C130.638 95.4856 130.484 96.2277 130.58 96.8244C130.63 97.1325 130.748 97.4061 130.939 97.6307C131.13 97.8542 131.373 98.0049 131.639 98.1003C132.154 98.2854 132.787 98.275 133.435 98.1739C134.094 98.071 134.829 97.864 135.58 97.6004C138.571 96.5515 142.084 94.515 142.825 93.9835L142.831 93.9791L142.837 93.9746C144.506 92.6991 146.649 91.5851 148.69 91.2002C150.715 90.8182 152.553 91.1623 153.804 92.6616M158.338 66.6973C157.77 64.4578 156.027 62.5648 153.96 61.591C151.888 60.615 149.587 60.6006 147.866 61.9597L147.865 61.9609C147.041 62.6063 146.427 63.4942 145.798 64.4979C145.702 64.6505 145.606 64.8061 145.509 64.9636C144.98 65.82 144.416 66.7334 143.705 67.5325C142.822 68.5254 141.511 69.2367 140.219 69.4576C138.929 69.6781 137.553 69.4186 136.696 68.3104L136.674 68.2824L136.657 68.2516C136.237 67.5136 135.998 66.6867 135.96 65.8387C135.922 65.0013 136.081 64.1668 136.423 63.4018M153.804 92.6616L124.211 59.7645M153.804 92.6616C154.353 93.4979 154.676 94.4628 154.741 95.4617C154.806 96.4693 154.606 97.4765 154.161 98.3827L154.15 98.4051L154.141 98.4285C153.079 101.276 151.095 103.43 148.604 105.249C146.105 107.074 143.127 108.539 140.1 110.027L140.078 110.038C137.075 111.515 134.024 113.015 131.448 114.896C128.858 116.787 126.716 119.085 125.563 122.174L125.403 122.605L125.819 122.801C127.689 123.682 129.694 123.499 131.596 122.874C133.494 122.249 135.349 121.163 136.962 120.157C138.532 119.177 140.429 118.355 142.254 118.091C144.074 117.827 145.761 118.124 147.021 119.292C148.294 120.519 148.82 121.795 148.868 123.057C148.916 124.336 148.476 125.655 147.714 126.951C146.183 129.55 143.436 131.915 141.249 133.407C138.791 135.044 135.716 135.826 132.572 136.625C131.969 136.778 131.363 136.932 130.759 137.092C127.08 138.071 123.454 139.306 121.224 142.35C120.795 142.779 120.466 143.297 120.261 143.868C120.051 144.453 119.977 145.077 120.043 145.695C120.11 146.312 120.316 146.906 120.645 147.433C120.975 147.959 121.419 148.404 121.945 148.734L121.963 148.745L121.982 148.755C123.519 149.545 125.302 149.705 126.954 149.202C129.366 148.802 131.848 148.582 133.691 149.235C134.598 149.556 135.333 150.083 135.838 150.901C136.348 151.725 136.652 152.89 136.604 154.535L136.604 154.543V154.55C136.604 156.715 135.712 158.57 134.375 160.223C133.033 161.882 131.265 163.31 129.556 164.617C125.844 167.426 120.044 171.424 113.957 174.143C107.844 176.875 101.596 178.245 96.8814 176.042M153.804 92.6616L96.8814 176.042M136.423 63.4018C136.42 63.4116 136.417 63.4213 136.414 63.431L136.891 63.5795L136.436 63.3727C136.431 63.3824 136.427 63.3921 136.423 63.4018ZM136.423 63.4018C137.335 60.4745 138.496 57.5997 139.674 54.7426C139.792 54.4566 139.91 54.1709 140.028 53.8853C141.096 51.3016 142.158 48.7292 143.059 46.1171L143.063 46.1048L143.068 46.0927C145.36 40.4247 145.502 34.1151 143.469 28.3497M143.469 28.3497C143.472 28.3547 143.474 28.3597 143.476 28.3648L143.935 28.1673L143.464 28.3339C143.466 28.3392 143.468 28.3444 143.469 28.3497ZM143.469 28.3497C142.305 25.6505 140.121 23.27 137.524 21.7865C134.922 20.3007 131.947 19.7361 129.192 20.5959L129.185 20.598L129.185 20.598C125.954 21.5549 123.734 24.1271 122.412 27.4055C121.09 30.6858 120.693 34.6221 121.087 38.1762C121.406 41.0495 122.109 43.8861 122.819 46.7539C122.994 47.4609 123.169 48.1698 123.34 48.8815C124.196 52.4593 124.916 56.0914 124.71 59.7908M124.71 59.7908C124.71 59.7904 124.71 59.7899 124.71 59.7894L124.211 59.7645M124.71 59.7908C124.71 59.7913 124.71 59.7919 124.71 59.7924L124.211 59.7645M124.71 59.7908C124.606 61.8869 123.875 64.1971 122.628 65.8956C121.375 67.6008 119.54 68.7558 117.275 68.3041M124.211 59.7645C124.011 63.7889 121.395 68.6176 117.37 67.8133M117.275 68.3041C117.275 68.3043 117.276 68.3044 117.277 68.3045L117.37 67.8133M117.275 68.3041C114.894 67.8503 113.697 65.9693 112.925 63.8602C112.537 62.8005 112.242 61.6435 111.96 60.5213C111.949 60.4753 111.937 60.4293 111.926 60.3833C111.654 59.2998 111.391 58.2539 111.062 57.3135L111.058 57.3013L111.054 57.2889C110.427 55.1481 109.025 53.3173 107.122 52.1534C105.227 50.9942 102.969 50.5792 100.786 50.9879M117.275 68.3041C117.274 68.304 117.273 68.3038 117.272 68.3036L117.37 67.8133M117.37 67.8133C114.153 67.2014 113.268 63.6763 112.408 60.2527C112.138 59.1767 111.871 58.1107 111.534 57.1484L100.786 50.9879M100.786 50.9879C100.794 50.9853 100.803 50.9826 100.811 50.98L100.666 50.5018L100.759 50.9929C100.768 50.9913 100.777 50.9896 100.786 50.9879ZM100.786 50.9879C98.6678 51.6441 97.1137 53.3645 96.2517 55.5425C95.3879 57.7251 95.2416 60.3201 95.9083 62.6214M100.786 50.9879L95.4332 62.7783M95.9083 62.6214C95.9063 62.6158 95.9042 62.6102 95.9021 62.6046L95.4332 62.7783M95.9083 62.6214C95.91 62.627 95.9116 62.6326 95.9133 62.6383L95.4332 62.7783M95.9083 62.6214C97.6184 67.2286 100.399 71.3633 104.021 74.6846M95.4332 62.7783C97.1706 67.4674 99.9993 71.6756 103.685 75.0548M104.021 74.6846C104.021 74.684 104.02 74.6834 104.019 74.6828L103.685 75.0548M104.021 74.6846C107.821 78.0987 110.417 82.6491 111.42 87.658L111.421 87.6626C111.611 88.6586 111.573 89.6848 111.309 90.6639C111.046 91.6431 110.564 92.5498 109.899 93.316L109.881 93.3378L109.859 93.3572C108.492 94.6094 106.643 94.81 104.929 94.4098C103.216 94.01 101.559 92.9973 100.481 91.696L100.468 91.6804L100.456 91.6639C98.5633 88.9625 97.0531 86.0122 95.9685 82.8969M104.021 74.6846C104.022 74.6852 104.023 74.6857 104.023 74.6862L103.685 75.0548M103.685 75.0548C107.406 78.397 109.947 82.8522 110.93 87.7562L95.9685 82.8969M95.9685 82.8969C95.9695 82.8995 95.9706 82.9022 95.9716 82.9048L96.4378 82.7242L95.9656 82.8885C95.9666 82.8913 95.9675 82.8941 95.9685 82.8969ZM95.9685 82.8969C95.4187 81.4822 94.4628 80.2616 93.2209 79.3888C91.9877 78.5221 90.5274 78.0368 89.0214 77.9928M95.9685 82.8969L88.993 77.4919M89.0214 77.9928C89.0344 77.9909 89.0475 77.9891 89.0606 77.9873L88.993 77.4919M89.0214 77.9928C89.0079 77.9924 88.9945 77.9921 88.981 77.9917L88.993 77.4919M89.0214 77.9928C87.0586 78.2768 85.6333 79.7136 84.8524 81.6533C84.0649 83.6092 83.9702 86.0022 84.6356 87.9986M88.993 77.4919C84.565 78.0958 82.7531 83.9321 84.1613 88.1568C85.6714 92.6825 89.327 95.9641 93.0121 99.2723C94.2449 100.379 95.481 101.489 96.6412 102.649M84.6356 87.9986L84.1616 88.1567L84.6357 87.9987C84.6356 87.9986 84.6356 87.9986 84.6356 87.9986ZM84.6356 87.9986C85.6072 90.9105 87.5072 93.3108 89.7749 95.5785C90.9071 96.7107 92.1217 97.801 93.3515 98.9051L93.356 98.9091C94.5825 100.01 95.8238 101.125 96.9909 102.291M96.9909 102.291C96.9895 102.29 96.9882 102.289 96.9868 102.288L96.6412 102.649M96.9909 102.291C99.3483 104.548 101.461 107.53 102.522 110.664C103.586 113.805 103.607 117.148 101.686 120.031L101.584 120.184L101.407 120.235C99.0993 120.894 96.9341 120.165 95.009 118.916C93.0919 117.672 91.3457 115.871 89.8413 114.265M96.9909 102.291C96.9922 102.293 96.9934 102.294 96.9947 102.295L96.6412 102.649M96.6412 102.649C101.27 107.077 104.89 114.321 101.27 119.754L89.8413 114.265M89.8413 114.265C89.843 114.267 89.8448 114.269 89.8465 114.27L90.2009 113.918L89.8361 114.26C89.8378 114.261 89.8396 114.263 89.8413 114.265ZM89.8413 114.265C88.3773 112.796 86.3402 111.439 84.3276 110.838C82.3167 110.239 80.4321 110.414 79.0938 111.831M89.8413 114.265L78.7287 111.49M79.0938 111.831C79.0943 111.831 79.0947 111.83 79.0952 111.83L78.7287 111.49M79.0938 111.831C79.0933 111.832 79.0929 111.832 79.0924 111.833L78.7287 111.49M79.0938 111.831C77.9429 113.073 77.7782 114.687 78.2084 116.455C78.6403 118.23 79.6578 120.083 80.7502 121.671M78.7287 111.49C76.1125 114.309 78.1247 118.737 80.3403 121.957M80.7502 121.671C80.7495 121.67 80.7489 121.669 80.7483 121.668L80.3403 121.957M80.7502 121.671C83.23 125.172 85.9171 128.348 88.678 131.611C89.706 132.826 90.7443 134.053 91.7859 135.313M80.7502 121.671C80.7508 121.672 80.7515 121.673 80.7522 121.674L80.3403 121.957M80.3403 121.957L91.7859 135.313M91.7859 135.313C91.7828 135.31 91.7798 135.307 91.7767 135.303L91.4089 135.642L91.7943 135.324C91.7915 135.32 91.7887 135.317 91.7859 135.313ZM91.7859 135.313C92.93 136.559 94.3394 138.688 94.8159 140.705C95.0556 141.72 95.0739 142.77 94.6307 143.67C94.1775 144.59 93.2905 145.256 91.9267 145.585L91.9243 145.586C90.9297 145.821 89.9359 145.623 88.9877 145.217C88.0423 144.813 87.105 144.187 86.203 143.514C85.7501 143.176 85.3001 142.822 84.8588 142.472L84.7321 142.372C84.333 142.056 83.9416 141.746 83.5549 141.452C82.6951 140.799 81.8918 140.251 81.1445 139.924L81.1415 139.923C80.2657 139.533 79.4576 139.286 78.7666 139.194C78.0692 139.1 77.5365 139.169 77.1711 139.357C76.8305 139.531 76.5843 139.833 76.4872 140.35C76.3858 140.89 76.4499 141.668 76.7893 142.735L76.8129 142.809V142.863M91.7859 135.313L76.9949 143.349C77.0003 143.367 77.0057 143.385 77.0112 143.403M76.8129 142.863C76.8127 142.863 76.8126 142.863 76.8125 142.862C76.8108 142.858 76.8099 142.855 76.8096 142.854C76.8103 142.857 76.8129 142.869 76.8129 142.887V142.863ZM76.8129 142.863C76.8209 142.884 76.8337 142.911 76.8611 142.965L76.8645 142.972C76.8877 143.018 76.9236 143.089 76.9523 143.165C76.9759 143.228 77.0008 143.309 77.0112 143.403M77.0112 143.403C78.6163 148.711 81.0187 155.442 84.3096 161.567C87.6148 167.718 91.7826 173.194 96.8814 176.042M77.0112 143.403L96.8814 176.042" fill="#467B6C" stroke="black"/>
<path d="M97.2454 230.837C90.4015 191.382 101.874 154.565 112.942 118.943C121.795 90.1653 131.055 60.3678 130.651 29.3867H132.867C133.474 60.7806 124.011 90.5659 115.155 119.547C104.098 154.968 92.8174 191.394 99.6582 230.448L97.2454 230.837Z" fill="white"/>
<path d="M94.2349 158.793C93.4942 158.754 92.7712 158.551 92.1176 158.2C91.4641 157.849 90.896 157.359 90.4539 156.763C90.0118 156.167 89.7067 155.481 89.5602 154.754C89.4137 154.027 89.4296 153.276 89.6066 152.556M94.2349 158.793L91.6097 115.526C94.0377 111.098 98.4505 106.066 103.282 107.274C113.143 109.702 109.923 122.167 106.906 128.607M94.2349 158.793C96.3609 158.604 98.3542 157.678 99.8709 156.177M94.2349 158.793L38.0756 184.548M89.6066 152.556C90.3125 146.823 94.6166 142.585 98.9271 138.342C102.03 135.287 105.136 132.229 106.906 128.607M89.6066 152.556L89.121 152.437C89.1186 152.446 89.1163 152.456 89.1139 152.466M89.6066 152.556L89.1103 152.495C89.1115 152.485 89.1127 152.476 89.1139 152.466M106.906 128.607L106.457 128.387C106.456 128.389 106.455 128.39 106.455 128.391M106.906 128.607L106.453 128.395C106.454 128.394 106.454 128.393 106.455 128.391M106.455 128.391C107.947 125.204 109.472 120.559 109.423 116.442C109.399 114.387 108.983 112.503 108.012 110.997C107.05 109.503 105.516 108.339 103.163 107.759L103.161 107.759C100.961 107.209 98.8105 108.064 96.8629 109.672C94.9171 111.279 93.2435 113.586 92.0481 115.767L92.0442 115.774L92.0401 115.781C91.9418 115.947 91.8427 116.115 91.7428 116.284C90.5222 118.355 89.1743 120.642 87.5585 122.494C85.8061 124.504 83.6824 126.071 80.9814 126.286L80.5239 126.322L80.4485 125.87C79.7233 121.517 80.6614 117.416 82.3936 113.474C84.1065 109.576 86.6125 105.798 89.0886 102.066L89.1554 101.966C91.6638 98.1847 94.1342 94.4488 95.7958 90.6104C97.4535 86.781 98.29 82.8838 97.5577 78.7845L97.5539 78.7631L97.5519 78.7414C97.4252 77.3342 96.9392 75.9832 96.1405 74.8177C95.3453 73.6573 94.2665 72.7195 93.0068 72.0935M106.455 128.391C104.726 131.927 101.695 134.912 98.5934 137.968C97.9857 138.566 97.3752 139.168 96.7712 139.776C93.1347 143.441 89.7529 147.365 89.1139 152.466M93.0068 72.0935C90.5359 71.0954 88.1223 71.9381 85.9928 73.7771C83.8546 75.6236 82.0835 78.4174 80.9981 81.0825L80.9943 81.0918L80.9902 81.1009C80.4708 82.2429 77.781 87.0629 75.0305 90.3479C74.3405 91.172 73.6361 91.9125 72.9511 92.4774C72.2756 93.0344 71.573 93.4594 70.8879 93.5844C70.5366 93.6485 70.1809 93.6352 69.8396 93.5117C69.4976 93.3878 69.2009 93.1643 68.9517 92.8556C68.4661 92.2541 68.1448 91.3107 67.9643 90.0244M93.0068 72.0935C93.0014 72.0908 92.996 72.0881 92.9906 72.0855L93.2122 71.6372L93.0236 72.1003C93.018 72.098 93.0124 72.0957 93.0068 72.0935ZM89.1139 152.466C88.9261 153.249 88.911 154.063 89.0701 154.853C89.231 155.652 89.5665 156.406 90.0524 157.061C90.5383 157.716 91.1627 158.255 91.8811 158.641C92.5995 159.027 93.3942 159.249 94.2084 159.292L94.2439 159.294L94.2793 159.291C96.5143 159.092 98.6103 158.122 100.208 156.547M100.208 156.547C102.719 154.438 105.494 152.464 108.165 151.94C109.485 151.68 110.764 151.778 111.981 152.381C113.201 152.987 114.404 154.124 115.523 156.025M100.208 156.547C100.203 156.551 100.198 156.555 100.193 156.56L99.8709 156.177M100.208 156.547C100.213 156.542 100.218 156.537 100.223 156.532L99.8709 156.177M115.523 156.025C116.967 158.613 117.17 161.457 116.727 164.327C116.283 167.206 115.193 170.076 114.088 172.686L114.086 172.69C111.677 178.514 107.673 187.177 102.425 194.528C97.1582 201.904 90.7365 207.82 83.5243 208.408M115.523 156.025C115.522 156.023 115.521 156.022 115.52 156.02L115.956 155.776M115.523 156.025C115.524 156.026 115.524 156.028 115.525 156.03L115.956 155.776M83.5243 208.408C76.0357 208.796 67.5948 205.29 59.5699 200.374C51.5666 195.471 44.053 189.213 38.427 184.191M83.5243 208.408C83.5268 208.407 83.5293 208.407 83.5318 208.407L83.5579 208.906M83.5243 208.408C83.522 208.408 83.5198 208.408 83.5175 208.408L83.5579 208.906M38.427 184.191C38.1776 183.922 37.8841 183.697 37.5594 183.526M38.427 184.191C38.4209 184.186 38.4147 184.18 38.4086 184.175L38.0756 184.548M38.427 184.191C38.4331 184.198 38.4392 184.204 38.4453 184.211L38.0756 184.548M37.5594 183.526C36.4653 182.518 35.8669 181.646 35.6193 180.919C35.3756 180.204 35.4664 179.622 35.7812 179.13C36.11 178.616 36.7154 178.153 37.583 177.779C38.4451 177.407 39.5273 177.139 40.7514 176.992L40.7567 176.992C41.8502 176.848 43.1578 176.929 44.5949 177.095C45.2608 177.172 45.9456 177.265 46.6432 177.361L46.7989 177.382C47.5482 177.485 48.3107 177.588 49.0668 177.67C50.5747 177.835 52.0856 177.922 53.4609 177.754C54.8388 177.587 56.118 177.159 57.1249 176.262L57.1316 176.256C58.5172 174.977 59.0917 173.654 58.9922 172.341C58.8946 171.053 58.1564 169.891 57.1737 168.895C55.2109 166.906 52.0608 165.366 49.926 164.553L49.9251 164.553C47.1098 163.488 44.3107 162.514 41.5188 161.542C36.8791 159.928 32.2591 158.32 27.6172 156.313M37.5594 183.526C37.5756 183.541 37.592 183.556 37.6084 183.571L37.2713 183.941L37.4937 183.493C37.5158 183.504 37.5376 183.515 37.5594 183.526ZM27.6172 156.313C25.3295 155.226 22.8775 153.75 21.1274 151.952C19.3779 150.153 18.3861 148.097 18.8442 145.806M27.6172 156.313C27.6198 156.314 27.6225 156.316 27.6251 156.317L27.4107 156.768L27.6092 156.31C27.6118 156.311 27.6145 156.312 27.6172 156.313ZM18.8442 145.806C19.3975 143.15 21.4971 141.638 24.2858 140.959C27.0801 140.278 30.4661 140.469 33.33 141.16C33.6319 141.233 33.9381 141.308 34.2477 141.383C36.9064 142.032 39.822 142.744 42.5581 142.86C45.6251 142.989 48.569 142.375 50.7221 140.006L50.8432 139.872L50.8516 139.693C51.0627 135.167 48.7941 131.359 45.4502 128.426C42.1092 125.496 37.657 123.402 33.3736 122.281C31.2443 121.723 29.0547 121.281 26.8809 120.844L26.7249 120.813C24.5991 120.386 22.4901 119.962 20.4423 119.438C16.2457 118.363 12.3596 116.878 9.22334 114.136L9.22231 114.135C7.00028 112.203 5.44809 109.294 5.03695 106.442C4.62666 103.596 5.3567 100.888 7.57903 99.2182M18.8442 145.806C18.8441 145.806 18.8439 145.807 18.8438 145.808L18.3543 145.706L18.8445 145.804C18.8444 145.805 18.8443 145.805 18.8442 145.806ZM7.57903 99.2182C9.25723 98.0083 11.2785 97.7115 13.3779 98.0001C15.4695 98.2877 17.6063 99.1537 19.4725 100.232M7.57903 99.2182C7.5778 99.2191 7.57656 99.22 7.57533 99.2209L7.28266 98.8155L7.58278 99.2154C7.58153 99.2163 7.58028 99.2173 7.57903 99.2182ZM19.4725 100.232C22.8959 103.072 26.63 105.515 30.6033 107.514L30.6357 107.531L30.6701 107.542C32.8785 108.278 35.4514 108.332 37.6443 107.644C39.8415 106.956 41.7142 105.499 42.3774 103.178L42.3856 103.149L42.3903 103.12C42.6078 101.767 42.5306 100.384 42.164 99.0642C41.7989 97.7496 41.1552 96.5291 40.2768 95.4854M19.4725 100.232C19.4617 100.223 19.4508 100.214 19.44 100.205L19.7595 99.8201L19.5086 100.253C19.4966 100.246 19.4846 100.239 19.4725 100.232ZM40.2768 95.4854C36.1425 89.9146 29.3506 87.4643 22.9284 85.4578C22.4708 85.3148 22.013 85.173 21.5558 85.0314C15.5364 83.1671 9.60755 81.3309 5.21898 77.1217C2.88528 74.8834 1.22557 71.7114 0.687606 68.4951C0.150262 65.2824 0.737602 62.0777 2.81748 59.7033M40.2768 95.4854C40.2799 95.4896 40.2831 95.4938 40.2862 95.4981L39.8845 95.7957L40.2665 95.4731C40.2699 95.4772 40.2734 95.4813 40.2768 95.4854ZM2.81748 59.7033C4.80646 57.5285 7.76472 56.6042 10.8491 56.75C13.936 56.896 17.0944 58.114 19.4146 60.1493L19.4175 60.1519C20.4177 61.0156 21.4092 62.0167 22.424 63.0411C22.514 63.132 22.6043 63.2231 22.6947 63.3143C23.7971 64.426 24.928 65.5511 26.0963 66.5011C28.4253 68.3948 31.0242 69.6897 33.9909 68.7002L33.997 68.6981C36.8575 67.7026 38.1919 65.1711 38.4827 62.361C38.7726 59.5592 38.0448 56.3928 36.7011 53.9008M2.81748 59.7033C2.81634 59.7045 2.81521 59.7058 2.81407 59.707L2.4449 59.3698L2.82082 59.6995C2.81971 59.7008 2.8186 59.702 2.81748 59.7033ZM36.7011 53.9008C34.3519 49.5121 31.0923 45.7988 27.6911 42.221C26.9495 41.4409 26.202 40.6679 25.4553 39.8959C22.764 37.1131 20.0843 34.3423 17.7369 31.2917C14.7621 27.426 12.5376 22.5729 11.8474 17.8132C11.1577 13.0568 12.0037 8.442 15.0968 4.96458M36.7011 53.9008C36.7013 53.9011 36.7014 53.9013 36.7015 53.9015L36.2607 54.1375L36.7008 53.9002C36.7009 53.9004 36.701 53.9006 36.7011 53.9008ZM15.0968 4.96458C20.5083 -1.0251 30.6559 -0.696909 37.1513 4.21271M15.0968 4.96458C15.0963 4.96505 15.0959 4.96552 15.0955 4.96598L14.7244 4.63084L15.098 4.9632C15.0976 4.96366 15.0972 4.96412 15.0968 4.96458ZM37.1513 4.21271C43.4365 9.62957 47.6427 17.0635 49.049 25.2412L49.0512 25.254L49.0541 25.2667C49.9588 29.2671 50.5101 33.371 51.0629 37.5254L51.0861 37.7C51.6288 41.7791 52.1778 45.9054 53.0704 49.9862M37.1513 4.21271C37.1473 4.20928 37.1433 4.20586 37.1393 4.20243L37.4656 3.82354L37.1637 4.22214C37.1596 4.21899 37.1554 4.21585 37.1513 4.21271ZM53.0704 49.9862C53.1605 51.0952 53.5214 52.1653 54.1215 53.1026C54.7281 54.0499 55.5602 54.832 56.5433 55.3787L56.5707 55.394L56.5998 55.4057C58.3388 56.1048 60.044 55.502 61.343 54.3646C62.6376 53.231 63.5979 51.518 63.9183 49.8012L63.9252 49.7646L63.9265 49.7275C64.0395 46.5963 64.3706 43.4769 64.9175 40.3918M53.0704 49.9862C53.0694 49.9744 53.0685 49.9625 53.0676 49.9507L53.5662 49.9128L53.0778 50.0198C53.0753 50.0086 53.0728 49.9974 53.0704 49.9862ZM64.9175 40.3918C66.054 37.6241 68.8085 36.0549 71.9101 35.7422C75.0305 35.4276 78.3915 36.4018 80.582 38.5937C85.0133 43.0279 85.2654 50.4258 83.2848 56.5829M64.9175 40.3918C64.9111 40.4075 64.9047 40.4232 64.8984 40.4389L64.4344 40.2524L64.9267 40.3401C64.9236 40.3573 64.9206 40.3746 64.9175 40.3918ZM83.2848 56.5829C80.8274 62.6542 77.6738 68.4198 73.8871 73.764L73.8761 73.7796L73.8663 73.796C73.7932 73.9178 73.7184 74.0424 73.642 74.1696C72.4616 76.1353 70.9089 78.721 69.7133 81.4226C68.4478 84.2822 67.5401 87.3613 67.9643 90.0244M83.2848 56.5829C83.2871 56.5773 83.2894 56.5717 83.2916 56.5661L83.7551 56.7536L83.2793 56.6002C83.2811 56.5944 83.283 56.5887 83.2848 56.5829ZM67.9643 90.0244C67.9641 90.0228 67.9639 90.0212 67.9636 90.0196L68.4588 89.9503L67.9651 90.0293C67.9648 90.0276 67.9646 90.026 67.9643 90.0244ZM38.0756 184.548C49.3475 194.612 68.2646 209.705 83.5579 208.906M83.5579 208.906C98.4627 207.699 109.719 184.554 114.548 172.881C116.764 167.649 118.991 161.209 115.956 155.776M115.956 155.776C111.34 147.928 104.9 151.952 99.8709 156.177" fill="#467B6C" stroke="black"/>
<path d="M90.4016 241.097C88.4839 230.167 85.7249 219.401 82.1494 208.896C79.7214 201.048 77.1205 192.996 75.3086 184.947C73.093 175.086 70.4769 165.022 67.8607 155.362C65.2305 145.758 62.8151 136.096 60.6162 126.384L60.0092 123.568C51.7601 86.3374 43.3168 47.693 22.9824 14.6906L25.4104 13.082C45.939 46.4881 54.3915 85.3298 62.6406 122.964L63.2476 125.783C65.4631 135.44 68.0792 145.304 70.4921 154.561C73.1082 164.221 75.7244 174.288 77.9399 184.346C79.7935 192.378 82.0771 200.305 84.7808 208.092C88.5409 218.694 91.3691 229.603 93.2332 240.697L90.4016 241.097Z" fill="white"/>
<path d="M106.502 355.207C113.746 305.296 116.162 260.618 123.194 210.508C100.638 221.219 74.8001 222.735 51.1465 214.736C59.5989 259.614 67.2319 312.14 75.6965 357.019C83.3568 364.667 98.4497 363.659 106.502 355.207Z" fill="#643CFF"/>
<path d="M123.22 210.507C123.22 207.287 107.923 207.487 88.014 207.487C68.1045 207.487 51.1875 212.118 51.1875 215.338C51.1875 218.558 67.2729 221.175 87.2097 221.175C107.147 221.175 123.22 213.727 123.22 210.507Z" fill="black"/>
</svg>
