<svg width="79" height="40" viewBox="0 0 79 40" fill="none" xmlns="http://www.w3.org/2000/svg">
<g filter="url(#filter0_d)">
<rect x="4" y="4" width="71" height="32" rx="16" fill="white"/>
<rect x="5" y="5" width="69" height="30" rx="15" stroke="#3E3E3E" stroke-opacity="0.57" stroke-width="2"/>
</g>
<path d="M45.125 20H33.875C32.6324 20 31.625 20.8954 31.625 22V28C31.625 29.1046 32.6324 30 33.875 30H45.125C46.3676 30 47.375 29.1046 47.375 28V22C47.375 20.8954 46.3676 20 45.125 20Z" stroke="#9E9E9E" stroke-width="2.75" stroke-linecap="round" stroke-linejoin="round"/>
<path d="M39.5 26C40.1213 26 40.625 25.5523 40.625 25C40.625 24.4477 40.1213 24 39.5 24C38.8787 24 38.375 24.4477 38.375 25C38.375 25.5523 38.8787 26 39.5 26Z" stroke="#9E9E9E" stroke-width="2.75" stroke-linecap="round" stroke-linejoin="round"/>
<path d="M35 20V16C35 14.9391 35.4741 13.9217 36.318 13.1716C37.1619 12.4214 38.3065 12 39.5 12C40.6935 12 41.8381 12.4214 42.682 13.1716C43.5259 13.9217 44 14.9391 44 16V20" stroke="#9E9E9E" stroke-width="2.75" stroke-linecap="round" stroke-linejoin="round"/>
<defs>
<filter id="filter0_d" x="0" y="0" width="79" height="40" filterUnits="userSpaceOnUse" color-interpolation-filters="sRGB">
<feFlood flood-opacity="0" result="BackgroundImageFix"/>
<feColorMatrix in="SourceAlpha" type="matrix" values="0 0 0 0 0 0 0 0 0 0 0 0 0 0 0 0 0 0 127 0" result="hardAlpha"/>
<feOffset/>
<feGaussianBlur stdDeviation="2"/>
<feComposite in2="hardAlpha" operator="out"/>
<feColorMatrix type="matrix" values="0 0 0 0 0 0 0 0 0 0 0 0 0 0 0 0 0 0 0.25 0"/>
<feBlend mode="normal" in2="BackgroundImageFix" result="effect1_dropShadow"/>
<feBlend mode="normal" in="SourceGraphic" in2="effect1_dropShadow" result="shape"/>
</filter>
</defs>
</svg>