<svg width="194" height="52" viewBox="0 0 194 52" fill="none" xmlns="http://www.w3.org/2000/svg">
<path d="M92.6927 11.86V14.3C92.6927 14.6467 92.6327 14.9867 92.5127 15.32C92.406 15.6533 92.2527 15.9667 92.0527 16.26L78.3727 35.8H92.2527V41H69.7727V38.4C69.7727 38.0933 69.826 37.7933 69.9327 37.5C70.0393 37.1933 70.186 36.9133 70.3727 36.66L84.0927 17.06H70.8927V11.86H92.6927ZM115.641 35.66C116.548 35.66 117.354 35.5133 118.061 35.22C118.781 34.9133 119.388 34.48 119.881 33.92C120.374 33.36 120.748 32.68 121.001 31.88C121.268 31.0667 121.401 30.1467 121.401 29.12V11.86H128.161V29.12C128.161 30.9067 127.868 32.5467 127.281 34.04C126.708 35.5333 125.881 36.82 124.801 37.9C123.721 38.98 122.408 39.82 120.861 40.42C119.314 41.02 117.574 41.32 115.641 41.32C113.694 41.32 111.948 41.02 110.401 40.42C108.854 39.82 107.541 38.98 106.461 37.9C105.381 36.82 104.554 35.5333 103.981 34.04C103.408 32.5467 103.121 30.9067 103.121 29.12V11.86H109.881V29.1C109.881 30.1267 110.008 31.0467 110.261 31.86C110.528 32.66 110.908 33.3467 111.401 33.92C111.894 34.48 112.494 34.9133 113.201 35.22C113.921 35.5133 114.734 35.66 115.641 35.66ZM147.039 30.22V41H140.279V11.86H149.759C151.866 11.86 153.659 12.08 155.139 12.52C156.632 12.9467 157.846 13.5467 158.779 14.32C159.726 15.0933 160.412 16.0067 160.839 17.06C161.266 18.1133 161.479 19.26 161.479 20.5C161.479 21.4467 161.352 22.34 161.099 23.18C160.846 24.02 160.466 24.8 159.959 25.52C159.466 26.2267 158.852 26.86 158.119 27.42C157.399 27.98 156.566 28.44 155.619 28.8C156.072 29.0267 156.492 29.3067 156.879 29.64C157.279 29.9733 157.626 30.38 157.919 30.86L164.119 41H157.999C156.866 41 156.052 40.5733 155.559 39.72L150.719 31.26C150.506 30.8867 150.252 30.62 149.959 30.46C149.679 30.3 149.279 30.22 148.759 30.22H147.039ZM147.039 25.56H149.759C150.679 25.56 151.459 25.4467 152.099 25.22C152.752 24.98 153.286 24.6533 153.699 24.24C154.112 23.8267 154.412 23.3467 154.599 22.8C154.786 22.24 154.879 21.64 154.879 21C154.879 19.72 154.459 18.72 153.619 18C152.792 17.28 151.506 16.92 149.759 16.92H147.039V25.56ZM182.015 41H175.215V11.86H182.015V41Z" fill="#393939"/>
<rect x="6.75439" width="20.2623" height="19.8545" rx="1.0991" fill="#00B87C"/>
<rect y="22.6908" width="20.2623" height="19.8545" rx="1.0991" fill="#FEA162"/>
<rect x="29.9108" y="9.45459" width="20.2623" height="19.8545" rx="1.0991" fill="#1A61DB"/>
<rect x="23.1572" y="32.1454" width="20.2623" height="19.8545" rx="1.0991" fill="#DC1AA3"/>
</svg>
