<svg width="126" height="125" viewBox="0 0 126 125" fill="none" xmlns="http://www.w3.org/2000/svg">
<circle cx="63" cy="62.5" r="62.5" fill="#E3EEFF"/>
<path d="M86.9375 48.9375H52.5625V52.0625H86.9375V48.9375Z" fill="#242424"/>
<path d="M86.9375 64.5625H52.5625V67.6875H86.9375V64.5625Z" fill="#242424"/>
<path d="M86.9375 80.1875H52.5625V83.3125H86.9375V80.1875Z" fill="#242424"/>
<path d="M86.9375 95.8125H52.5625V98.9375H86.9375V95.8125Z" fill="#242424"/>
<path d="M46.3125 48.9375H40.0625V52.0625H46.3125V48.9375Z" fill="#242424"/>
<path d="M46.3125 64.5625H40.0625V67.6875H46.3125V64.5625Z" fill="#242424"/>
<path d="M46.3125 80.1875H40.0625V83.3125H46.3125V80.1875Z" fill="#242424"/>
<path d="M46.3125 95.8125H40.0625V98.9375H46.3125V95.8125Z" fill="#242424"/>
<path d="M55.6875 13V19.25H49.7797L48.6078 23.9375H27.5625V113H99.4375V23.9375H78.3922L77.2203 19.25H71.3125V13H55.6875ZM81.1266 34.875L79.1734 27.0625H96.3125V109.875H30.6875V27.0625H47.8266L45.8734 34.875H81.1266ZM74.7797 22.375L77.1234 31.75H49.8766L52.2203 22.375H58.8125V16.125H68.1875V22.375H74.7797Z" fill="#242424"/>
</svg>
