<svg width="17" height="16" viewBox="0 0 17 16" fill="none" xmlns="http://www.w3.org/2000/svg">
<path d="M8.5 4C8.67681 4 8.84638 4.07024 8.97141 4.19526C9.09643 4.32029 9.16667 4.48986 9.16667 4.66667V7.33333H11.8333C12.0101 7.33333 12.1797 7.40357 12.3047 7.5286C12.4298 7.65362 12.5 7.82319 12.5 8C12.5 8.17681 12.4298 8.34638 12.3047 8.47141C12.1797 8.59643 12.0101 8.66667 11.8333 8.66667H9.16667V11.3333C9.16667 11.5101 9.09643 11.6797 8.97141 11.8047C8.84638 11.9298 8.67681 12 8.5 12C8.32319 12 8.15362 11.9298 8.0286 11.8047C7.90357 11.6797 7.83333 11.5101 7.83333 11.3333V8.66667H5.16667C4.98986 8.66667 4.82029 8.59643 4.69526 8.47141C4.57024 8.34638 4.5 8.17681 4.5 8C4.5 7.82319 4.57024 7.65362 4.69526 7.5286C4.82029 7.40357 4.98986 7.33333 5.16667 7.33333H7.83333V4.66667C7.83333 4.48986 7.90357 4.32029 8.0286 4.19526C8.15362 4.07024 8.32319 4 8.5 4ZM0.5 8C0.5 6.94943 0.706926 5.90914 1.10896 4.93853C1.511 3.96793 2.10028 3.08601 2.84315 2.34315C3.58601 1.60028 4.46793 1.011 5.43853 0.608964C6.40914 0.206926 7.44943 0 8.5 0C9.55058 0 10.5909 0.206926 11.5615 0.608964C12.5321 1.011 13.414 1.60028 14.1569 2.34315C14.8997 3.08601 15.489 3.96793 15.891 4.93853C16.2931 5.90914 16.5 6.94943 16.5 8C16.5 10.1217 15.6571 12.1566 14.1569 13.6569C12.6566 15.1571 10.6217 16 8.5 16C6.37827 16 4.34344 15.1571 2.84315 13.6569C1.34285 12.1566 0.5 10.1217 0.5 8ZM8.5 1.33333C6.73189 1.33333 5.0362 2.03571 3.78595 3.28595C2.53571 4.5362 1.83333 6.23189 1.83333 8C1.83333 9.76811 2.53571 11.4638 3.78595 12.714C5.0362 13.9643 6.73189 14.6667 8.5 14.6667C10.2681 14.6667 11.9638 13.9643 13.214 12.714C14.4643 11.4638 15.1667 9.76811 15.1667 8C15.1667 6.23189 14.4643 4.5362 13.214 3.28595C11.9638 2.03571 10.2681 1.33333 8.5 1.33333Z" fill="#454545"/>
</svg>
