<svg width="18" height="18" viewBox="0 0 18 18" fill="none" xmlns="http://www.w3.org/2000/svg">
<path d="M18 3.98123C17.3229 4.27654 16.6068 4.4728 15.8737 4.56398C16.6463 4.10568 17.2238 3.37999 17.4971 2.52435C16.7738 2.95335 15.9824 3.25546 15.1571 3.4176C14.6511 2.87735 13.9944 2.50176 13.2722 2.33962C12.55 2.17748 11.7957 2.23629 11.1073 2.5084C10.419 2.78052 9.82836 3.25336 9.41223 3.8655C8.9961 4.47764 8.77368 5.20079 8.77387 5.94098C8.77387 6.23348 8.79862 6.51473 8.85938 6.78248C7.39134 6.7105 5.95503 6.32949 4.64434 5.66436C3.33365 4.99922 2.17811 4.06494 1.25325 2.9226C0.779422 3.73469 0.632935 4.69685 0.843619 5.61315C1.0543 6.52946 1.60631 7.33101 2.38725 7.8546C1.8031 7.83894 1.23128 7.68306 0.72 7.4001V7.4406C0.720979 8.29271 1.0155 9.11847 1.55398 9.77887C2.09247 10.4393 2.84203 10.894 3.6765 11.0665C3.36081 11.1497 3.03546 11.1905 2.709 11.188C2.47454 11.1921 2.24031 11.171 2.01038 11.125C2.24881 11.8574 2.70843 12.4979 3.32594 12.9582C3.94346 13.4186 4.68851 13.6762 5.4585 13.6956C4.15231 14.7171 2.54135 15.2713 0.883125 15.2695C0.5805 15.2695 0.29025 15.256 0 15.2189C1.68737 16.3062 3.65364 16.8814 5.661 16.8749C12.4515 16.8749 16.164 11.2499 16.164 6.3741C16.164 6.21098 16.1584 6.05348 16.1505 5.8971C16.8783 5.37621 17.5051 4.72697 18 3.98123Z" fill="#03A9F4"/>
</svg>
