<svg width="18" height="19" viewBox="0 0 18 19" fill="none" xmlns="http://www.w3.org/2000/svg">
<path d="M18 4.03079C17.3229 4.3261 16.6068 4.52237 15.8737 4.61354C16.6463 4.15524 17.2238 3.42955 17.4971 2.57391C16.7738 3.00291 15.9824 3.30502 15.1571 3.46716C14.6511 2.92691 13.9944 2.55132 13.2722 2.38918C12.55 2.22704 11.7957 2.28585 11.1073 2.55796C10.419 2.83008 9.82836 3.30292 9.41223 3.91506C8.9961 4.52721 8.77368 5.25035 8.77387 5.99054C8.77387 6.28304 8.79862 6.56429 8.85938 6.83204C7.39134 6.76006 5.95503 6.37905 4.64434 5.71392C3.33365 5.04878 2.17811 4.1145 1.25325 2.97216C0.779422 3.78425 0.632935 4.74641 0.843619 5.66272C1.0543 6.57902 1.60631 7.38058 2.38725 7.90416C1.8031 7.8885 1.23128 7.73262 0.72 7.44966V7.49016C0.720979 8.34227 1.0155 9.16803 1.55398 9.82843C2.09247 10.4888 2.84203 10.9435 3.6765 11.116C3.36081 11.1992 3.03546 11.2401 2.709 11.2375C2.47454 11.2417 2.24031 11.2206 2.01038 11.1745C2.24881 11.9069 2.70843 12.5474 3.32594 13.0078C3.94346 13.4682 4.68851 13.7258 5.4585 13.7452C4.15231 14.7667 2.54135 15.3209 0.883125 15.319C0.5805 15.319 0.29025 15.3055 0 15.2684C1.68737 16.3558 3.65364 16.931 5.661 16.9244C12.4515 16.9244 16.164 11.2994 16.164 6.42366C16.164 6.26054 16.1584 6.10304 16.1505 5.94666C16.8783 5.42577 17.5051 4.77653 18 4.03079Z" fill="#03A9F4"/>
</svg>
