<svg width="553" height="1024" viewBox="0 0 553 1024" fill="none" xmlns="http://www.w3.org/2000/svg">
<path d="M272.886 764.842C272.884 764.726 272.905 764.611 272.946 764.503C272.987 764.395 273.049 764.298 273.126 764.215C273.204 764.133 273.296 764.068 273.398 764.025C273.499 763.981 273.608 763.959 273.718 763.961H310.237C312.986 763.958 315.622 762.799 317.566 760.739C319.51 758.678 320.603 755.885 320.606 752.971V736.516C320.606 736.282 320.694 736.058 320.85 735.892C321.006 735.727 321.217 735.634 321.438 735.634C321.659 735.634 321.87 735.727 322.026 735.892C322.182 736.058 322.27 736.282 322.27 736.516V752.971C322.264 756.351 320.994 759.591 318.739 761.982C316.484 764.372 313.427 765.718 310.237 765.724H273.718C273.497 765.724 273.286 765.631 273.13 765.466C272.974 765.3 272.886 765.076 272.886 764.842Z" fill="white" fill-opacity="0.1"/>
<path d="M293.003 847.402V786.611C293.003 786.377 293.091 786.153 293.247 785.988C293.403 785.822 293.614 785.729 293.835 785.729C294.055 785.729 294.267 785.822 294.423 785.988C294.579 786.153 294.666 786.377 294.666 786.611V847.402C294.669 851.483 296.199 855.395 298.921 858.282C301.642 861.169 305.333 862.793 309.183 862.799C313.474 862.803 317.587 864.61 320.621 867.826C323.655 871.041 325.361 875.401 325.364 879.948V915.692C325.364 915.926 325.276 916.15 325.12 916.315C324.964 916.48 324.752 916.573 324.532 916.573C324.311 916.573 324.1 916.48 323.944 916.315C323.788 916.15 323.7 915.926 323.7 915.692V879.901C323.697 875.822 322.167 871.91 319.445 869.025C316.723 866.141 313.032 864.519 309.183 864.516C304.9 864.509 300.792 862.706 297.76 859.498C294.728 856.291 293.018 851.942 293.003 847.402Z" fill="white" fill-opacity="0.1"/>
<path d="M73.6569 653.797C73.6554 653.681 73.6759 653.565 73.7172 653.458C73.7584 653.35 73.8197 653.252 73.8972 653.17C73.9748 653.088 74.067 653.023 74.1686 652.979C74.2702 652.935 74.379 652.914 74.4886 652.915H111.008C113.757 652.912 116.393 651.753 118.337 649.693C120.281 647.633 121.374 644.839 121.377 641.925V625.47C121.377 625.236 121.465 625.012 121.621 624.847C121.777 624.681 121.988 624.588 122.209 624.588C122.43 624.588 122.641 624.681 122.797 624.847C122.953 625.012 123.041 625.236 123.041 625.47V641.925C123.035 645.306 121.765 648.546 119.51 650.936C117.255 653.326 114.198 654.672 111.008 654.678H74.4886C74.2681 654.678 74.0565 654.585 73.9005 654.42C73.7445 654.255 73.6569 654.031 73.6569 653.797Z" fill="white" fill-opacity="0.1"/>
<path d="M93.7739 736.356V675.565C93.7739 675.332 93.8615 675.107 94.0175 674.942C94.1735 674.777 94.3851 674.684 94.6057 674.684C94.8262 674.684 95.0378 674.777 95.1938 674.942C95.3498 675.107 95.4374 675.332 95.4374 675.565V736.356C95.4403 740.437 96.9704 744.35 99.6918 747.236C102.413 750.123 106.104 751.748 109.954 751.754C114.245 751.757 118.358 753.565 121.392 756.78C124.426 759.996 126.132 764.356 126.135 768.903V804.646C126.135 804.88 126.047 805.104 125.891 805.27C125.735 805.435 125.523 805.528 125.303 805.528C125.082 805.528 124.871 805.435 124.715 805.27C124.559 805.104 124.471 804.88 124.471 804.646V768.856C124.468 764.776 122.938 760.864 120.216 757.98C117.494 755.095 113.803 753.473 109.954 753.47C105.67 753.464 101.563 751.66 98.5312 748.453C95.499 745.246 93.7886 740.896 93.7739 736.356Z" fill="white" fill-opacity="0.1"/>
<path d="M148.776 896.138C148.775 896.021 148.795 895.906 148.837 895.798C148.878 895.691 148.939 895.593 149.017 895.511C149.094 895.429 149.186 895.364 149.288 895.32C149.39 895.276 149.498 895.255 149.608 895.256H186.127C188.877 895.253 191.512 894.094 193.456 892.034C195.4 889.974 196.494 887.18 196.497 884.266V867.811C196.497 867.577 196.584 867.353 196.74 867.188C196.896 867.022 197.108 866.929 197.328 866.929C197.549 866.929 197.76 867.022 197.916 867.188C198.072 867.353 198.16 867.577 198.16 867.811V884.266C198.154 887.647 196.885 890.887 194.629 893.277C192.374 895.667 189.317 897.013 186.127 897.019H149.608C149.387 897.019 149.176 896.926 149.02 896.761C148.864 896.596 148.776 896.372 148.776 896.138Z" fill="white" fill-opacity="0.1"/>
<path d="M299.015 604.153C299.013 604.036 299.034 603.921 299.075 603.813C299.116 603.706 299.178 603.608 299.255 603.526C299.333 603.444 299.425 603.379 299.527 603.335C299.628 603.291 299.737 603.27 299.847 603.271H336.366C339.115 603.268 341.751 602.109 343.695 600.049C345.639 597.989 346.732 595.195 346.735 592.281V575.826C346.735 575.592 346.823 575.368 346.979 575.203C347.135 575.037 347.346 574.944 347.567 574.944C347.787 574.944 347.999 575.037 348.155 575.203C348.311 575.368 348.399 575.592 348.399 575.826V592.281C348.393 595.662 347.123 598.902 344.868 601.292C342.613 603.682 339.555 605.028 336.366 605.034H299.847C299.626 605.034 299.414 604.941 299.258 604.776C299.103 604.611 299.015 604.387 299.015 604.153Z" fill="white" fill-opacity="0.1"/>
<path d="M319.132 686.713V625.922C319.132 625.688 319.22 625.464 319.375 625.298C319.531 625.133 319.743 625.04 319.964 625.04C320.184 625.04 320.396 625.133 320.552 625.298C320.708 625.464 320.795 625.688 320.795 625.922V686.713C320.798 690.793 322.328 694.706 325.05 697.593C327.771 700.479 331.462 702.104 335.312 702.11C339.603 702.113 343.716 703.921 346.75 707.136C349.784 710.352 351.49 714.712 351.492 719.259V755.002C351.492 755.236 351.405 755.46 351.249 755.626C351.093 755.791 350.881 755.884 350.661 755.884C350.44 755.884 350.229 755.791 350.073 755.626C349.917 755.46 349.829 755.236 349.829 755.002V719.212C349.826 715.132 348.296 711.221 345.574 708.336C342.852 705.451 339.161 703.829 335.312 703.826C331.028 703.82 326.921 702.016 323.889 698.809C320.857 695.602 319.146 691.253 319.132 686.713Z" fill="white" fill-opacity="0.1"/>
<path d="M99.7849 493.106C99.7834 492.99 99.8038 492.875 99.8451 492.767C99.8864 492.66 99.9476 492.562 100.025 492.48C100.103 492.397 100.195 492.333 100.297 492.289C100.398 492.245 100.507 492.223 100.617 492.225H137.136C139.885 492.222 142.521 491.063 144.465 489.003C146.409 486.942 147.502 484.149 147.505 481.235V464.78C147.505 464.546 147.593 464.322 147.749 464.156C147.905 463.991 148.116 463.898 148.337 463.898C148.558 463.898 148.769 463.991 148.925 464.156C149.081 464.322 149.169 464.546 149.169 464.78V481.235C149.163 484.615 147.893 487.856 145.638 490.246C143.383 492.636 140.325 493.982 137.136 493.988H100.617C100.396 493.988 100.184 493.895 100.028 493.73C99.8725 493.565 99.7849 493.34 99.7849 493.106Z" fill="white" fill-opacity="0.1"/>
<path d="M119.902 575.666V514.875C119.902 514.641 119.989 514.417 120.145 514.252C120.301 514.087 120.513 513.994 120.734 513.994C120.954 513.994 121.166 514.087 121.322 514.252C121.478 514.417 121.565 514.641 121.565 514.875V575.666C121.568 579.747 123.098 583.66 125.82 586.546C128.541 589.433 132.232 591.057 136.082 591.064C140.373 591.067 144.486 592.875 147.52 596.09C150.554 599.305 152.26 603.665 152.262 608.213V643.956C152.262 644.19 152.175 644.414 152.019 644.579C151.863 644.745 151.651 644.838 151.431 644.838C151.21 644.838 150.999 644.745 150.843 644.579C150.687 644.414 150.599 644.19 150.599 643.956V608.166C150.596 604.086 149.066 600.174 146.344 597.29C143.622 594.405 139.931 592.783 136.082 592.78C131.798 592.774 127.691 590.97 124.659 587.763C121.627 584.556 119.917 580.206 119.902 575.666Z" fill="white" fill-opacity="0.1"/>
<path d="M321.876 794.89C321.875 794.774 321.895 794.658 321.937 794.551C321.978 794.443 322.039 794.345 322.117 794.263C322.194 794.181 322.286 794.116 322.388 794.072C322.49 794.029 322.598 794.007 322.708 794.008H359.227C361.977 794.005 364.612 792.846 366.556 790.786C368.5 788.726 369.594 785.932 369.597 783.019V766.563C369.597 766.329 369.684 766.105 369.84 765.94C369.996 765.774 370.208 765.682 370.428 765.682C370.649 765.682 370.861 765.774 371.017 765.94C371.173 766.105 371.26 766.329 371.26 766.563V783.019C371.254 786.399 369.985 789.639 367.729 792.029C365.474 794.42 362.417 795.765 359.227 795.771H322.708C322.487 795.771 322.276 795.679 322.12 795.513C321.964 795.348 321.876 795.124 321.876 794.89Z" fill="white" fill-opacity="0.1"/>
<path d="M341.993 877.45V816.659C341.993 816.425 342.081 816.201 342.237 816.035C342.393 815.87 342.604 815.777 342.825 815.777C343.046 815.777 343.257 815.87 343.413 816.035C343.569 816.201 343.657 816.425 343.657 816.659V877.45C343.66 881.53 345.19 885.443 347.911 888.33C350.633 891.216 354.323 892.841 358.174 892.847C362.464 892.85 366.578 894.658 369.612 897.873C372.645 901.089 374.351 905.449 374.354 909.996V945.739C374.354 945.973 374.266 946.197 374.11 946.363C373.954 946.528 373.743 946.621 373.522 946.621C373.302 946.621 373.09 946.528 372.934 946.363C372.778 946.197 372.69 945.973 372.69 945.739V909.949C372.688 905.869 371.157 901.958 368.435 899.073C365.714 896.188 362.023 894.566 358.174 894.563C353.89 894.557 349.783 892.753 346.751 889.546C343.718 886.339 342.008 881.99 341.993 877.45Z" fill="white" fill-opacity="0.1"/>
<path d="M122.647 683.844C122.646 683.728 122.666 683.613 122.708 683.505C122.749 683.397 122.81 683.3 122.888 683.217C122.965 683.135 123.057 683.07 123.159 683.027C123.261 682.983 123.369 682.961 123.479 682.963H159.998C162.748 682.96 165.383 681.801 167.327 679.74C169.271 677.68 170.365 674.887 170.368 671.973V655.517C170.368 655.284 170.455 655.059 170.611 654.894C170.767 654.729 170.979 654.636 171.199 654.636C171.42 654.636 171.631 654.729 171.787 654.894C171.943 655.059 172.031 655.284 172.031 655.517V671.973C172.025 675.353 170.756 678.593 168.5 680.984C166.245 683.374 163.188 684.72 159.998 684.726H123.479C123.258 684.726 123.047 684.633 122.891 684.468C122.735 684.302 122.647 684.078 122.647 683.844Z" fill="white" fill-opacity="0.1"/>
<path d="M142.764 766.404V705.613C142.764 705.379 142.852 705.155 143.008 704.99C143.164 704.824 143.375 704.731 143.596 704.731C143.817 704.731 144.028 704.824 144.184 704.99C144.34 705.155 144.428 705.379 144.428 705.613V766.404C144.431 770.484 145.961 774.397 148.682 777.284C151.404 780.171 155.094 781.795 158.945 781.801C163.235 781.805 167.349 783.612 170.383 786.828C173.416 790.043 175.122 794.403 175.125 798.95V834.694C175.125 834.928 175.037 835.152 174.881 835.317C174.725 835.482 174.514 835.575 174.293 835.575C174.073 835.575 173.861 835.482 173.705 835.317C173.549 835.152 173.461 834.928 173.461 834.694V798.903C173.458 794.824 171.928 790.912 169.206 788.027C166.485 785.143 162.794 783.521 158.945 783.517C154.661 783.511 150.554 781.707 147.522 778.5C144.489 775.293 142.779 770.944 142.764 766.404Z" fill="white" fill-opacity="0.1"/>
<path d="M197.767 926.185C197.765 926.069 197.786 925.954 197.827 925.846C197.868 925.738 197.929 925.641 198.007 925.558C198.084 925.476 198.177 925.411 198.278 925.368C198.38 925.324 198.489 925.302 198.598 925.304H235.118C237.867 925.301 240.503 924.142 242.447 922.082C244.391 920.021 245.484 917.228 245.487 914.314V897.859C245.487 897.625 245.575 897.4 245.731 897.235C245.887 897.07 246.098 896.977 246.319 896.977C246.539 896.977 246.751 897.07 246.907 897.235C247.063 897.4 247.15 897.625 247.15 897.859V914.314C247.145 917.694 245.875 920.934 243.62 923.325C241.364 925.715 238.307 927.061 235.118 927.067H198.598C198.378 927.067 198.166 926.974 198.01 926.809C197.854 926.643 197.767 926.419 197.767 926.185Z" fill="white" fill-opacity="0.1"/>
<path d="M348.005 634.2C348.004 634.084 348.024 633.969 348.066 633.861C348.107 633.753 348.168 633.656 348.246 633.573C348.323 633.491 348.415 633.426 348.517 633.383C348.618 633.339 348.727 633.317 348.837 633.319H385.356C388.106 633.316 390.741 632.157 392.685 630.096C394.629 628.036 395.723 625.243 395.726 622.329V605.873C395.726 605.64 395.813 605.415 395.969 605.25C396.125 605.085 396.337 604.992 396.557 604.992C396.778 604.992 396.989 605.085 397.145 605.25C397.301 605.415 397.389 605.64 397.389 605.873V622.329C397.383 625.709 396.114 628.949 393.858 631.34C391.603 633.73 388.546 635.076 385.356 635.082H348.837C348.616 635.082 348.405 634.989 348.249 634.824C348.093 634.658 348.005 634.434 348.005 634.2Z" fill="white" fill-opacity="0.1"/>
<path d="M368.122 716.76V655.969C368.122 655.735 368.21 655.511 368.366 655.346C368.522 655.18 368.733 655.088 368.954 655.088C369.175 655.088 369.386 655.18 369.542 655.346C369.698 655.511 369.786 655.735 369.786 655.969V716.76C369.789 720.841 371.319 724.754 374.04 727.64C376.762 730.527 380.452 732.151 384.303 732.158C388.593 732.161 392.707 733.968 395.741 737.184C398.774 740.399 400.48 744.759 400.483 749.306V785.05C400.483 785.284 400.395 785.508 400.239 785.673C400.083 785.839 399.872 785.931 399.651 785.931C399.431 785.931 399.219 785.839 399.063 785.673C398.907 785.508 398.819 785.284 398.819 785.05V749.26C398.816 745.18 397.286 741.268 394.564 738.384C391.842 735.499 388.152 733.877 384.303 733.874C380.019 733.867 375.912 732.064 372.88 728.856C369.847 725.649 368.137 721.3 368.122 716.76Z" fill="white" fill-opacity="0.1"/>
<path d="M-1.46243 815.14C-1.46392 815.023 -1.44343 814.908 -1.40216 814.8C-1.36089 814.693 -1.29967 814.595 -1.22214 814.513C-1.1446 814.431 -1.05233 814.366 -0.950745 814.322C-0.849158 814.278 -0.740316 814.256 -0.630676 814.258H35.8887C38.6379 814.255 41.2736 813.096 43.2176 811.036C45.1615 808.975 46.2549 806.182 46.2579 803.268V786.813C46.2579 786.579 46.3455 786.355 46.5015 786.189C46.6575 786.024 46.8691 785.931 47.0897 785.931C47.3103 785.931 47.5218 786.024 47.6778 786.189C47.8338 786.355 47.9214 786.579 47.9214 786.813V803.268C47.9155 806.649 46.6459 809.889 44.3906 812.279C42.1353 814.669 39.0782 816.015 35.8887 816.021H-0.630676C-0.851271 816.021 -1.06283 815.928 -1.21881 815.763C-1.37479 815.598 -1.46243 815.373 -1.46243 815.14Z" fill="white" fill-opacity="0.1"/>
<path d="M18.6546 897.699V836.908C18.6546 836.674 18.7422 836.45 18.8982 836.285C19.0542 836.12 19.2657 836.027 19.4863 836.027C19.7069 836.027 19.9185 836.12 20.0745 836.285C20.2304 836.45 20.3181 836.674 20.3181 836.908V897.699C20.321 901.78 21.851 905.693 24.5725 908.579C27.294 911.466 30.9847 913.09 34.8349 913.097C39.1253 913.1 43.2391 914.908 46.2728 918.123C49.3066 921.338 51.0123 925.698 51.0152 930.246V965.989C51.0152 966.223 50.9276 966.447 50.7716 966.612C50.6156 966.778 50.4041 966.87 50.1835 966.87C49.9629 966.87 49.7513 966.778 49.5953 966.612C49.4394 966.447 49.3517 966.223 49.3517 965.989V930.199C49.3487 926.119 47.8184 922.207 45.0966 919.323C42.3748 916.438 38.6841 914.816 34.8349 914.813C30.5511 914.807 26.444 913.003 23.4119 909.796C20.3797 906.588 18.6692 902.239 18.6546 897.699Z" fill="white" fill-opacity="0.1"/>
<path d="M148.776 523.155C148.775 523.038 148.795 522.923 148.836 522.815C148.878 522.708 148.939 522.61 149.017 522.528C149.094 522.445 149.186 522.381 149.288 522.337C149.389 522.293 149.498 522.271 149.608 522.273H186.127C188.877 522.27 191.512 521.111 193.456 519.051C195.4 516.99 196.494 514.197 196.497 511.283V494.828C196.497 494.594 196.584 494.37 196.74 494.204C196.896 494.039 197.108 493.946 197.328 493.946C197.549 493.946 197.76 494.039 197.916 494.204C198.072 494.37 198.16 494.594 198.16 494.828V511.283C198.154 514.663 196.885 517.904 194.629 520.294C192.374 522.684 189.317 524.03 186.127 524.036H149.608C149.387 524.036 149.176 523.943 149.02 523.778C148.864 523.612 148.776 523.388 148.776 523.155Z" fill="white" fill-opacity="0.1"/>
<path d="M168.893 605.714V544.923C168.893 544.69 168.981 544.465 169.137 544.3C169.293 544.135 169.504 544.042 169.725 544.042C169.946 544.042 170.157 544.135 170.313 544.3C170.469 544.465 170.557 544.69 170.557 544.923V605.714C170.56 609.795 172.09 613.708 174.811 616.594C177.533 619.481 181.223 621.106 185.074 621.112C189.364 621.115 193.478 622.923 196.512 626.138C199.545 629.353 201.251 633.714 201.254 638.261V674.004C201.254 674.238 201.166 674.462 201.01 674.627C200.854 674.793 200.643 674.886 200.422 674.886C200.202 674.886 199.99 674.793 199.834 674.627C199.678 674.462 199.59 674.238 199.59 674.004V638.214C199.587 634.134 198.057 630.222 195.335 627.338C192.613 624.453 188.923 622.831 185.074 622.828C180.79 622.822 176.683 621.018 173.651 617.811C170.618 614.604 168.908 610.254 168.893 605.714Z" fill="white" fill-opacity="0.1"/>
<path d="M370.868 824.938C370.866 824.822 370.887 824.706 370.928 824.599C370.969 824.491 371.03 824.393 371.108 824.311C371.186 824.229 371.278 824.164 371.379 824.12C371.481 824.076 371.59 824.055 371.699 824.056H408.219C410.968 824.053 413.604 822.894 415.548 820.834C417.492 818.774 418.585 815.98 418.588 813.066V796.611C418.588 796.377 418.676 796.153 418.832 795.988C418.988 795.822 419.199 795.729 419.42 795.729C419.64 795.729 419.852 795.822 420.008 795.988C420.164 796.153 420.252 796.377 420.252 796.611V813.066C420.246 816.447 418.976 819.687 416.721 822.077C414.465 824.467 411.408 825.813 408.219 825.819H371.699C371.479 825.819 371.267 825.727 371.111 825.561C370.955 825.396 370.868 825.172 370.868 824.938Z" fill="white" fill-opacity="0.1"/>
<path d="M390.985 907.497V846.706C390.985 846.473 391.072 846.248 391.228 846.083C391.384 845.918 391.596 845.825 391.816 845.825C392.037 845.825 392.249 845.918 392.405 846.083C392.561 846.248 392.648 846.473 392.648 846.706V907.497C392.651 911.578 394.181 915.491 396.903 918.378C399.624 921.264 403.315 922.889 407.165 922.895C411.455 922.898 415.569 924.706 418.603 927.921C421.637 931.137 423.342 935.497 423.345 940.044V975.787C423.345 976.021 423.258 976.245 423.102 976.411C422.946 976.576 422.734 976.669 422.514 976.669C422.293 976.669 422.081 976.576 421.925 976.411C421.769 976.245 421.682 976.021 421.682 975.787V939.997C421.679 935.917 420.148 932.006 417.427 929.121C414.705 926.236 411.014 924.614 407.165 924.611C402.881 924.605 398.774 922.801 395.742 919.594C392.71 916.387 390.999 912.038 390.985 907.497Z" fill="white" fill-opacity="0.1"/>
<path d="M-7.47437 666.463V605.672C-7.47437 605.438 -7.38673 605.214 -7.23074 605.049C-7.07476 604.883 -6.8632 604.791 -6.64261 604.791C-6.42201 604.791 -6.21046 604.883 -6.05447 605.049C-5.89849 605.214 -5.81085 605.438 -5.81085 605.672V666.463C-5.80792 670.544 -4.27787 674.456 -1.5564 677.343C1.16508 680.23 4.85575 681.854 8.70596 681.86C12.9963 681.864 17.1102 683.671 20.1439 686.887C23.1777 690.102 24.8833 694.462 24.8863 699.009V734.753C24.8863 734.987 24.7986 735.211 24.6426 735.376C24.4867 735.541 24.2751 735.634 24.0545 735.634C23.8339 735.634 23.6224 735.541 23.4664 735.376C23.3104 735.211 23.2228 734.987 23.2228 734.753V698.962C23.2198 694.883 21.6894 690.971 18.9677 688.086C16.2459 685.202 12.5552 683.58 8.70596 683.577C4.42223 683.57 0.315136 681.766 -2.71704 678.559C-5.74922 675.352 -7.45971 671.003 -7.47437 666.463Z" fill="white" fill-opacity="0.1"/>
<path d="M21.4 1005.88C21.3985 1005.76 21.419 1005.65 21.4603 1005.54C21.5016 1005.43 21.5628 1005.33 21.6403 1005.25C21.7179 1005.17 21.8101 1005.1 21.9117 1005.06C22.0133 1005.02 22.1221 1004.99 22.2318 1005H58.7512C61.5003 1004.99 64.1361 1003.83 66.08 1001.77C68.024 999.713 69.1174 996.919 69.1203 994.006V977.55C69.1203 977.316 69.208 977.092 69.364 976.927C69.5199 976.762 69.7315 976.669 69.9521 976.669C70.1727 976.669 70.3842 976.762 70.5402 976.927C70.6962 977.092 70.7838 977.316 70.7838 977.55V994.006C70.778 997.386 69.5083 1000.63 67.2531 1003.02C64.9978 1005.41 61.9406 1006.75 58.7512 1006.76H22.2318C22.0112 1006.76 21.7996 1006.67 21.6436 1006.5C21.4877 1006.34 21.4 1006.11 21.4 1005.88Z" fill="white" fill-opacity="0.1"/>
<path d="M171.639 713.892C171.637 713.776 171.658 713.66 171.699 713.553C171.74 713.445 171.801 713.347 171.879 713.265C171.956 713.183 172.049 713.118 172.15 713.074C172.252 713.03 172.361 713.009 172.47 713.01H208.99C211.739 713.007 214.375 711.848 216.319 709.788C218.263 707.728 219.356 704.934 219.359 702.02V685.565C219.359 685.331 219.447 685.107 219.603 684.942C219.759 684.776 219.97 684.683 220.191 684.683C220.411 684.683 220.623 684.776 220.779 684.942C220.935 685.107 221.022 685.331 221.022 685.565V702.02C221.017 705.401 219.747 708.641 217.492 711.031C215.236 713.422 212.179 714.767 208.99 714.773H172.47C172.25 714.773 172.038 714.68 171.882 714.515C171.726 714.35 171.639 714.126 171.639 713.892Z" fill="white" fill-opacity="0.1"/>
<path d="M191.756 796.451V735.66C191.756 735.427 191.843 735.202 191.999 735.037C192.155 734.872 192.367 734.779 192.587 734.779C192.808 734.779 193.02 734.872 193.176 735.037C193.332 735.202 193.419 735.427 193.419 735.66V796.451C193.422 800.532 194.952 804.445 197.674 807.332C200.395 810.218 204.086 811.843 207.936 811.849C212.226 811.852 216.34 813.66 219.374 816.875C222.408 820.091 224.113 824.451 224.116 828.998V864.741C224.116 864.975 224.029 865.199 223.873 865.365C223.717 865.53 223.505 865.623 223.285 865.623C223.064 865.623 222.852 865.53 222.696 865.365C222.54 865.199 222.453 864.975 222.453 864.741V828.951C222.45 824.871 220.919 820.96 218.198 818.075C215.476 815.19 211.785 813.568 207.936 813.565C203.652 813.559 199.545 811.755 196.513 808.548C193.481 805.341 191.77 800.992 191.756 796.451Z" fill="white" fill-opacity="0.1"/>
<path d="M246.758 956.233C246.757 956.117 246.777 956.001 246.818 955.894C246.859 955.786 246.921 955.688 246.998 955.606C247.076 955.524 247.168 955.459 247.27 955.415C247.371 955.372 247.48 955.35 247.59 955.352H284.109C286.858 955.348 289.494 954.19 291.438 952.129C293.382 950.069 294.475 947.275 294.478 944.362V927.906C294.478 927.672 294.566 927.448 294.722 927.283C294.878 927.117 295.089 927.025 295.31 927.025C295.531 927.025 295.742 927.117 295.898 927.283C296.054 927.448 296.142 927.672 296.142 927.906V944.362C296.136 947.742 294.866 950.982 292.611 953.372C290.356 955.763 287.299 957.108 284.109 957.115H247.59C247.369 957.115 247.158 957.022 247.002 956.856C246.846 956.691 246.758 956.467 246.758 956.233Z" fill="white" fill-opacity="0.1"/>
<path d="M396.996 664.248C396.994 664.132 397.015 664.016 397.056 663.909C397.097 663.801 397.158 663.703 397.236 663.621C397.314 663.539 397.406 663.474 397.507 663.43C397.609 663.386 397.718 663.365 397.827 663.366H434.347C437.096 663.363 439.732 662.204 441.676 660.144C443.62 658.084 444.713 655.29 444.716 652.376V635.921C444.716 635.687 444.804 635.463 444.96 635.298C445.116 635.132 445.327 635.039 445.548 635.039C445.768 635.039 445.98 635.132 446.136 635.298C446.292 635.463 446.379 635.687 446.379 635.921V652.376C446.374 655.757 445.104 658.997 442.849 661.387C440.593 663.778 437.536 665.123 434.347 665.129H397.827C397.607 665.129 397.395 665.036 397.239 664.871C397.083 664.706 396.996 664.482 396.996 664.248Z" fill="white" fill-opacity="0.1"/>
<path d="M417.113 746.807V686.016C417.113 685.783 417.2 685.558 417.356 685.393C417.512 685.228 417.724 685.135 417.944 685.135C418.165 685.135 418.377 685.228 418.533 685.393C418.689 685.558 418.776 685.783 418.776 686.016V746.807C418.779 750.888 420.309 754.801 423.031 757.688C425.752 760.574 429.443 762.199 433.293 762.205C437.583 762.208 441.697 764.016 444.731 767.231C447.765 770.447 449.47 774.807 449.473 779.354V815.097C449.473 815.331 449.386 815.555 449.23 815.721C449.074 815.886 448.862 815.979 448.642 815.979C448.421 815.979 448.209 815.886 448.053 815.721C447.897 815.555 447.81 815.331 447.81 815.097V779.307C447.807 775.227 446.276 771.315 443.555 768.431C440.833 765.546 437.142 763.924 433.293 763.921C429.009 763.915 424.902 762.111 421.87 758.904C418.838 755.697 417.127 751.348 417.113 746.807Z" fill="white" fill-opacity="0.1"/>
<path d="M-1.4624 423.213C-1.46389 423.097 -1.4434 422.981 -1.40213 422.874C-1.36086 422.766 -1.29964 422.668 -1.22211 422.586C-1.14457 422.504 -1.0523 422.439 -0.950714 422.395C-0.849128 422.352 -0.740286 422.33 -0.630646 422.331H35.8887C38.6379 422.328 41.2736 421.169 43.2176 419.109C45.1615 417.049 46.2549 414.255 46.2579 411.342V394.886C46.2579 394.652 46.3455 394.428 46.5015 394.263C46.6575 394.097 46.8691 394.005 47.0897 394.005C47.3103 394.005 47.5218 394.097 47.6778 394.263C47.8338 394.428 47.9214 394.652 47.9214 394.886V411.342C47.9155 414.722 46.6459 417.962 44.3906 420.352C42.1353 422.743 39.0782 424.088 35.8887 424.094H-0.630646C-0.85124 424.094 -1.06283 424.002 -1.21881 423.836C-1.37479 423.671 -1.4624 423.447 -1.4624 423.213Z" fill="white" fill-opacity="0.1"/>
<path d="M18.6546 505.773V444.982C18.6546 444.748 18.7422 444.524 18.8982 444.358C19.0542 444.193 19.2657 444.1 19.4863 444.1C19.7069 444.1 19.9185 444.193 20.0745 444.358C20.2304 444.524 20.3181 444.748 20.3181 444.982V505.773C20.321 509.853 21.8511 513.766 24.5725 516.653C27.294 519.539 30.9847 521.164 34.8349 521.17C39.1253 521.173 43.2391 522.981 46.2729 526.196C49.3066 529.412 51.0123 533.772 51.0152 538.319V574.062C51.0152 574.296 50.9276 574.521 50.7716 574.686C50.6156 574.851 50.4041 574.944 50.1835 574.944C49.9629 574.944 49.7513 574.851 49.5953 574.686C49.4394 574.521 49.3517 574.296 49.3517 574.062V538.272C49.3487 534.193 47.8184 530.281 45.0966 527.396C42.3748 524.511 38.6841 522.889 34.8349 522.886C30.5512 522.88 26.4441 521.076 23.4119 517.869C20.3797 514.662 18.6693 510.313 18.6546 505.773Z" fill="white" fill-opacity="0.1"/>
<path d="M47.528 845.187C47.5265 845.071 47.547 844.956 47.5883 844.848C47.6295 844.74 47.6907 844.643 47.7682 844.56C47.8458 844.478 47.9381 844.413 48.0397 844.37C48.1413 844.326 48.2501 844.304 48.3597 844.306H84.8791C87.6283 844.303 90.264 843.144 92.2079 841.083C94.1519 839.023 95.2454 836.23 95.2483 833.316V816.86C95.2483 816.627 95.3359 816.402 95.4919 816.237C95.6479 816.072 95.8594 815.979 96.08 815.979C96.3006 815.979 96.5122 816.072 96.6682 816.237C96.8241 816.402 96.9117 816.627 96.9117 816.86V833.316C96.9059 836.696 95.6363 839.936 93.381 842.327C91.1257 844.717 88.0686 846.063 84.8791 846.069H48.3597C48.1391 846.069 47.9275 845.976 47.7715 845.811C47.6156 845.645 47.528 845.421 47.528 845.187Z" fill="white" fill-opacity="0.1"/>
<path d="M67.645 927.747V866.956C67.645 866.722 67.7326 866.498 67.8885 866.333C68.0445 866.167 68.2561 866.074 68.4767 866.074C68.6973 866.074 68.9088 866.167 69.0648 866.333C69.2208 866.498 69.3085 866.722 69.3085 866.956V927.747C69.3114 931.828 70.8415 935.74 73.5629 938.627C76.2844 941.514 79.975 943.138 83.8253 943.144C88.1156 943.148 92.2295 944.955 95.2632 948.171C98.297 951.386 100.003 955.746 100.006 960.293V996.037C100.006 996.271 99.9179 996.495 99.762 996.66C99.606 996.825 99.3944 996.918 99.1738 996.918C98.9532 996.918 98.7417 996.825 98.5857 996.66C98.4297 996.495 98.3421 996.271 98.3421 996.037V960.246C98.3392 956.167 96.8088 952.255 94.087 949.37C91.3652 946.486 87.6745 944.864 83.8253 944.86C79.5415 944.854 75.4345 943.05 72.4023 939.843C69.3701 936.636 67.6596 932.287 67.645 927.747Z" fill="white" fill-opacity="0.1"/>
<path d="M197.767 553.202C197.765 553.086 197.786 552.97 197.827 552.863C197.868 552.755 197.929 552.657 198.007 552.575C198.084 552.493 198.177 552.428 198.278 552.384C198.38 552.341 198.489 552.319 198.598 552.32H235.118C237.867 552.317 240.503 551.158 242.447 549.098C244.391 547.038 245.484 544.244 245.487 541.331V524.875C245.487 524.641 245.575 524.417 245.731 524.252C245.887 524.086 246.098 523.994 246.319 523.994C246.539 523.994 246.751 524.086 246.907 524.252C247.063 524.417 247.15 524.641 247.15 524.875V541.331C247.145 544.711 245.875 547.951 243.62 550.341C241.364 552.732 238.307 554.077 235.118 554.084H198.598C198.378 554.084 198.166 553.991 198.01 553.825C197.854 553.66 197.767 553.436 197.767 553.202Z" fill="white" fill-opacity="0.1"/>
<path d="M217.884 635.762V574.971C217.884 574.737 217.971 574.513 218.127 574.348C218.283 574.182 218.495 574.089 218.715 574.089C218.936 574.089 219.147 574.182 219.303 574.348C219.459 574.513 219.547 574.737 219.547 574.971V635.762C219.55 639.843 221.08 643.755 223.802 646.642C226.523 649.529 230.214 651.153 234.064 651.159C238.354 651.163 242.468 652.97 245.502 656.186C248.536 659.401 250.241 663.761 250.244 668.308V704.052C250.244 704.285 250.157 704.51 250.001 704.675C249.845 704.84 249.633 704.933 249.412 704.933C249.192 704.933 248.98 704.84 248.824 704.675C248.668 704.51 248.581 704.285 248.581 704.052V668.261C248.578 664.182 247.047 660.27 244.326 657.385C241.604 654.501 237.913 652.878 234.064 652.875C229.78 652.869 225.673 651.065 222.641 647.858C219.609 644.651 217.898 640.302 217.884 635.762Z" fill="white" fill-opacity="0.1"/>
<path d="M419.858 854.985C419.857 854.869 419.877 854.754 419.918 854.646C419.96 854.539 420.021 854.441 420.098 854.359C420.176 854.276 420.268 854.212 420.37 854.168C420.471 854.124 420.58 854.102 420.69 854.104H457.209C459.958 854.101 462.594 852.942 464.538 850.882C466.482 848.821 467.575 846.028 467.578 843.114V826.659C467.578 826.425 467.666 826.201 467.822 826.035C467.978 825.87 468.19 825.777 468.41 825.777C468.631 825.777 468.842 825.87 468.998 826.035C469.154 826.201 469.242 826.425 469.242 826.659V843.114C469.236 846.495 467.966 849.735 465.711 852.125C463.456 854.515 460.399 855.861 457.209 855.867H420.69C420.469 855.867 420.258 855.774 420.102 855.609C419.946 855.444 419.858 855.219 419.858 854.985Z" fill="white" fill-opacity="0.1"/>
<path d="M439.975 937.545V876.754C439.975 876.52 440.063 876.296 440.219 876.131C440.375 875.966 440.586 875.873 440.807 875.873C441.027 875.873 441.239 875.966 441.395 876.131C441.551 876.296 441.639 876.52 441.639 876.754V937.545C441.642 941.626 443.172 945.539 445.893 948.425C448.614 951.312 452.305 952.936 456.155 952.943C460.446 952.946 464.56 954.753 467.593 957.969C470.627 961.184 472.333 965.544 472.336 970.092V1005.83C472.336 1006.07 472.248 1006.29 472.092 1006.46C471.936 1006.62 471.725 1006.72 471.504 1006.72C471.283 1006.72 471.072 1006.62 470.916 1006.46C470.76 1006.29 470.672 1006.07 470.672 1005.83V970.045C470.669 965.965 469.139 962.053 466.417 959.169C463.695 956.284 460.005 954.662 456.155 954.659C451.872 954.653 447.765 952.849 444.732 949.642C441.7 946.435 439.99 942.085 439.975 937.545Z" fill="white" fill-opacity="0.1"/>
<path d="M21.4 613.951C21.3985 613.834 21.419 613.719 21.4603 613.611C21.5016 613.504 21.5628 613.406 21.6403 613.324C21.7178 613.242 21.8101 613.177 21.9117 613.133C22.0133 613.089 22.1221 613.068 22.2318 613.069H58.7512C61.5003 613.066 64.1361 611.907 66.08 609.847C68.024 607.787 69.1174 604.993 69.1203 602.079V585.624C69.1203 585.39 69.208 585.166 69.364 585C69.5199 584.835 69.7315 584.742 69.9521 584.742C70.1727 584.742 70.3842 584.835 70.5402 585C70.6962 585.166 70.7838 585.39 70.7838 585.624V602.079C70.778 605.46 69.5083 608.7 67.2531 611.09C64.9978 613.48 61.9406 614.826 58.7512 614.832H22.2318C22.0112 614.832 21.7996 614.739 21.6436 614.574C21.4876 614.409 21.4 614.185 21.4 613.951Z" fill="white" fill-opacity="0.1"/>
<path d="M41.517 696.51V635.719C41.517 635.486 41.6046 635.262 41.7606 635.096C41.9166 634.931 42.1282 634.838 42.3488 634.838C42.5693 634.838 42.7809 634.931 42.9369 635.096C43.0929 635.262 43.1805 635.486 43.1805 635.719L43.1805 696.51C43.1834 700.591 44.7135 704.504 47.4349 707.391C50.1564 710.277 53.8471 711.902 57.6973 711.908C61.9877 711.911 66.1016 713.719 69.1353 716.934C72.1691 720.15 73.8747 724.51 73.8776 729.057V764.8C73.8776 765.034 73.79 765.258 73.634 765.424C73.4781 765.589 73.2665 765.682 73.0459 765.682C72.8253 765.682 72.6137 765.589 72.4578 765.424C72.3018 765.258 72.2141 765.034 72.2141 764.8V729.01C72.2112 724.93 70.6808 721.019 67.959 718.134C65.2372 715.249 61.5465 713.627 57.6973 713.624C53.4136 713.618 49.3065 711.814 46.2743 708.607C43.2421 705.4 41.5317 701.051 41.517 696.51Z" fill="white" fill-opacity="0.1"/>
<path d="M220.629 743.94C220.628 743.824 220.648 743.708 220.689 743.601C220.731 743.493 220.792 743.395 220.869 743.313C220.947 743.231 221.039 743.166 221.141 743.122C221.242 743.078 221.351 743.057 221.461 743.058H257.98C260.729 743.055 263.365 741.896 265.309 739.836C267.253 737.776 268.346 734.982 268.349 732.068V715.613C268.349 715.379 268.437 715.155 268.593 714.99C268.749 714.824 268.961 714.731 269.181 714.731C269.402 714.731 269.613 714.824 269.769 714.99C269.925 715.155 270.013 715.379 270.013 715.613V732.068C270.007 735.449 268.737 738.689 266.482 741.079C264.227 743.47 261.17 744.815 257.98 744.821H221.461C221.24 744.821 221.029 744.728 220.873 744.563C220.717 744.398 220.629 744.174 220.629 743.94Z" fill="white" fill-opacity="0.1"/>
<path d="M240.746 826.499V765.708C240.746 765.475 240.834 765.25 240.99 765.085C241.146 764.92 241.357 764.827 241.578 764.827C241.798 764.827 242.01 764.92 242.166 765.085C242.322 765.25 242.41 765.475 242.41 765.708V826.499C242.412 830.58 243.943 834.493 246.664 837.38C249.385 840.266 253.076 841.891 256.926 841.897C261.217 841.9 265.331 843.708 268.364 846.923C271.398 850.139 273.104 854.499 273.107 859.046V894.789C273.107 895.023 273.019 895.247 272.863 895.413C272.707 895.578 272.495 895.671 272.275 895.671C272.054 895.671 271.843 895.578 271.687 895.413C271.531 895.247 271.443 895.023 271.443 894.789V858.999C271.44 854.919 269.91 851.008 267.188 848.123C264.466 845.238 260.776 843.616 256.926 843.613C252.643 843.607 248.536 841.803 245.503 838.596C242.471 835.389 240.761 831.04 240.746 826.499Z" fill="white" fill-opacity="0.1"/>
<path d="M295.748 986.281C295.747 986.165 295.767 986.049 295.809 985.942C295.85 985.834 295.911 985.736 295.989 985.654C296.066 985.572 296.158 985.507 296.26 985.463C296.362 985.419 296.47 985.398 296.58 985.399H333.099C335.849 985.396 338.484 984.237 340.428 982.177C342.372 980.117 343.466 977.323 343.469 974.409V957.954C343.469 957.72 343.556 957.496 343.712 957.331C343.868 957.165 344.08 957.073 344.3 957.073C344.521 957.073 344.733 957.165 344.889 957.331C345.045 957.496 345.132 957.72 345.132 957.954V974.409C345.126 977.79 343.857 981.03 341.601 983.42C339.346 985.81 336.289 987.156 333.099 987.162H296.58C296.36 987.162 296.148 987.07 295.992 986.904C295.836 986.739 295.748 986.515 295.748 986.281Z" fill="white" fill-opacity="0.1"/>
<path d="M445.987 694.295C445.986 694.179 446.006 694.064 446.047 693.956C446.089 693.848 446.15 693.751 446.227 693.668C446.305 693.586 446.397 693.521 446.499 693.478C446.6 693.434 446.709 693.412 446.819 693.414H483.338C486.087 693.411 488.723 692.252 490.667 690.192C492.611 688.131 493.704 685.338 493.707 682.424V665.969C493.707 665.735 493.795 665.511 493.951 665.345C494.107 665.18 494.319 665.087 494.539 665.087C494.76 665.087 494.971 665.18 495.127 665.345C495.283 665.511 495.371 665.735 495.371 665.969L495.371 682.424C495.365 685.804 494.095 689.044 491.84 691.435C489.585 693.825 486.528 695.171 483.338 695.177H446.819C446.598 695.177 446.387 695.084 446.231 694.919C446.075 694.753 445.987 694.529 445.987 694.295Z" fill="white" fill-opacity="0.1"/>
<path d="M466.104 776.855V716.064C466.104 715.83 466.192 715.606 466.348 715.441C466.504 715.275 466.715 715.182 466.936 715.182C467.156 715.182 467.368 715.275 467.524 715.441C467.68 715.606 467.768 715.83 467.768 716.064V776.855C467.77 780.936 469.301 784.849 472.022 787.735C474.743 790.622 478.434 792.246 482.284 792.252C486.575 792.256 490.689 794.063 493.722 797.279C496.756 800.494 498.462 804.854 498.465 809.401V845.145C498.465 845.379 498.377 845.603 498.221 845.768C498.065 845.933 497.853 846.026 497.633 846.026C497.412 846.026 497.201 845.933 497.045 845.768C496.889 845.603 496.801 845.379 496.801 845.145V809.354C496.798 805.275 495.268 801.363 492.546 798.478C489.824 795.594 486.133 793.972 482.284 793.969C478.001 793.962 473.893 792.159 470.861 788.951C467.829 785.744 466.119 781.395 466.104 776.855Z" fill="white" fill-opacity="0.1"/>
<path d="M47.528 453.261C47.5265 453.145 47.547 453.029 47.5883 452.922C47.6295 452.814 47.6907 452.716 47.7682 452.634C47.8458 452.552 47.9381 452.487 48.0397 452.443C48.1413 452.4 48.2501 452.378 48.3597 452.379H84.8792C87.6283 452.376 90.264 451.217 92.208 449.157C94.152 447.097 95.2454 444.303 95.2483 441.39V424.934C95.2483 424.7 95.3359 424.476 95.4919 424.311C95.6479 424.145 95.8594 424.053 96.08 424.053C96.3006 424.053 96.5122 424.145 96.6682 424.311C96.8241 424.476 96.9118 424.7 96.9118 424.934V441.39C96.9059 444.77 95.6363 448.01 93.381 450.4C91.1257 452.791 88.0686 454.136 84.8792 454.142H48.3597C48.1391 454.142 47.9276 454.05 47.7716 453.884C47.6156 453.719 47.528 453.495 47.528 453.261Z" fill="white" fill-opacity="0.1"/>
<path d="M67.645 535.821V475.03C67.645 474.796 67.7326 474.572 67.8886 474.406C68.0446 474.241 68.2561 474.148 68.4767 474.148C68.6973 474.148 68.9089 474.241 69.0649 474.406C69.2209 474.572 69.3085 474.796 69.3085 475.03V535.821C69.3114 539.901 70.8415 543.814 73.5629 546.701C76.2844 549.587 79.975 551.212 83.8253 551.218C88.1156 551.221 92.2295 553.029 95.2632 556.245C98.297 559.46 100.003 563.82 100.006 568.367V604.111C100.006 604.344 99.9179 604.569 99.762 604.734C99.606 604.899 99.3944 604.992 99.1738 604.992C98.9532 604.992 98.7417 604.899 98.5857 604.734C98.4297 604.569 98.3421 604.344 98.3421 604.111V568.32C98.3392 564.241 96.8088 560.329 94.087 557.444C91.3652 554.56 87.6745 552.937 83.8253 552.934C79.5415 552.928 75.4345 551.124 72.4023 547.917C69.3701 544.71 67.6596 540.361 67.645 535.821Z" fill="white" fill-opacity="0.1"/>
<path d="M96.5193 875.235C96.5179 875.119 96.5384 875.003 96.5797 874.896C96.6209 874.788 96.6821 874.69 96.7596 874.608C96.8372 874.526 96.9295 874.461 97.0311 874.417C97.1327 874.373 97.2415 874.352 97.3511 874.353H133.87C136.62 874.35 139.255 873.191 141.199 871.131C143.143 869.071 144.237 866.277 144.24 863.364V846.908C144.24 846.674 144.327 846.45 144.483 846.285C144.639 846.119 144.851 846.026 145.071 846.026C145.292 846.026 145.504 846.119 145.66 846.285C145.816 846.45 145.903 846.674 145.903 846.908V863.364C145.897 866.744 144.628 869.984 142.372 872.374C140.117 874.765 137.06 876.11 133.87 876.116H97.3511C97.1305 876.116 96.9189 876.024 96.7629 875.858C96.607 875.693 96.5193 875.469 96.5193 875.235Z" fill="white" fill-opacity="0.1"/>
<path d="M116.636 957.794V897.004C116.636 896.77 116.724 896.546 116.88 896.38C117.036 896.215 117.247 896.122 117.468 896.122C117.689 896.122 117.9 896.215 118.056 896.38C118.212 896.546 118.3 896.77 118.3 897.004V957.794C118.303 961.875 119.833 965.788 122.554 968.675C125.276 971.561 128.966 973.186 132.817 973.192C137.107 973.195 141.221 975.003 144.255 978.218C147.288 981.434 148.994 985.794 148.997 990.341V1026.08C148.997 1026.32 148.909 1026.54 148.753 1026.71C148.597 1026.87 148.386 1026.97 148.165 1026.97C147.945 1026.97 147.733 1026.87 147.577 1026.71C147.421 1026.54 147.333 1026.32 147.333 1026.08V990.294C147.331 986.214 145.8 982.303 143.078 979.418C140.357 976.533 136.666 974.911 132.817 974.908C128.533 974.902 124.426 973.098 121.394 969.891C118.361 966.684 116.651 962.335 116.636 957.794Z" fill="white" fill-opacity="0.1"/>
<path d="M246.758 583.25C246.757 583.133 246.777 583.018 246.818 582.91C246.859 582.803 246.921 582.705 246.998 582.623C247.076 582.541 247.168 582.476 247.27 582.432C247.371 582.388 247.48 582.366 247.59 582.368H284.109C286.858 582.365 289.494 581.206 291.438 579.146C293.382 577.085 294.475 574.292 294.478 571.378V554.923C294.478 554.689 294.566 554.465 294.722 554.299C294.878 554.134 295.089 554.041 295.31 554.041C295.531 554.041 295.742 554.134 295.898 554.299C296.054 554.465 296.142 554.689 296.142 554.923V571.378C296.136 574.759 294.866 577.999 292.611 580.389C290.356 582.779 287.299 584.125 284.109 584.131H247.59C247.369 584.131 247.158 584.038 247.002 583.873C246.846 583.708 246.758 583.483 246.758 583.25Z" fill="white" fill-opacity="0.1"/>
<path d="M266.875 665.809V605.018C266.875 604.785 266.963 604.56 267.119 604.395C267.275 604.23 267.486 604.137 267.707 604.137C267.927 604.137 268.139 604.23 268.295 604.395C268.451 604.56 268.539 604.785 268.539 605.018L268.538 665.809C268.541 669.89 270.071 673.803 272.793 676.689C275.514 679.576 279.205 681.201 283.055 681.207C287.346 681.21 291.46 683.018 294.493 686.233C297.527 689.449 299.233 693.809 299.236 698.356V734.099C299.236 734.333 299.148 734.557 298.992 734.723C298.836 734.888 298.624 734.981 298.404 734.981C298.183 734.981 297.972 734.888 297.816 734.723C297.66 734.557 297.572 734.333 297.572 734.099V698.309C297.569 694.229 296.039 690.318 293.317 687.433C290.595 684.548 286.904 682.926 283.055 682.923C278.772 682.917 274.664 681.113 271.632 677.906C268.6 674.699 266.89 670.349 266.875 665.809Z" fill="white" fill-opacity="0.1"/>
<path d="M274.846 402.964C274.844 402.848 274.865 402.732 274.906 402.625C274.947 402.517 275.008 402.419 275.086 402.337C275.163 402.255 275.256 402.19 275.357 402.146C275.459 402.102 275.568 402.081 275.677 402.082H312.197C314.946 402.079 317.582 400.92 319.526 398.86C321.47 396.8 322.563 394.006 322.566 391.092V374.637C322.566 374.403 322.653 374.179 322.809 374.014C322.965 373.848 323.177 373.755 323.398 373.755C323.618 373.755 323.83 373.848 323.986 374.014C324.142 374.179 324.229 374.403 324.229 374.637V391.092C324.224 394.473 322.954 397.713 320.699 400.103C318.443 402.493 315.386 403.839 312.197 403.845H275.677C275.457 403.845 275.245 403.752 275.089 403.587C274.933 403.422 274.846 403.198 274.846 402.964Z" fill="white" fill-opacity="0.1"/>
<path d="M294.963 485.524V424.733C294.963 424.499 295.05 424.275 295.206 424.109C295.362 423.944 295.574 423.851 295.794 423.851C296.015 423.851 296.226 423.944 296.382 424.109C296.538 424.275 296.626 424.499 296.626 424.733V485.524C296.629 489.604 298.159 493.517 300.88 496.404C303.602 499.29 307.293 500.915 311.143 500.921C315.433 500.924 319.547 502.732 322.581 505.947C325.615 509.163 327.32 513.523 327.323 518.07V553.813C327.323 554.047 327.236 554.271 327.08 554.437C326.924 554.602 326.712 554.695 326.491 554.695C326.271 554.695 326.059 554.602 325.903 554.437C325.747 554.271 325.66 554.047 325.66 553.813V518.023C325.657 513.943 324.126 510.032 321.405 507.147C318.683 504.262 314.992 502.64 311.143 502.637C306.859 502.631 302.752 500.827 299.72 497.62C296.688 494.413 294.977 490.064 294.963 485.524Z" fill="white" fill-opacity="0.1"/>
<path d="M425.084 110.979C425.083 110.863 425.103 110.747 425.144 110.64C425.186 110.532 425.247 110.434 425.324 110.352C425.402 110.27 425.494 110.205 425.596 110.161C425.697 110.117 425.806 110.096 425.916 110.097H462.435C465.185 110.094 467.82 108.935 469.764 106.875C471.708 104.815 472.802 102.021 472.805 99.1074V82.6519C472.805 82.4182 472.892 82.1939 473.048 82.0286C473.204 81.8633 473.416 81.7704 473.636 81.7704C473.857 81.7704 474.068 81.8633 474.224 82.0286C474.38 82.1939 474.468 82.4182 474.468 82.6519V99.1074C474.462 102.488 473.193 105.728 470.937 108.118C468.682 110.508 465.625 111.854 462.435 111.86H425.916C425.695 111.86 425.484 111.767 425.328 111.602C425.172 111.437 425.084 111.213 425.084 110.979Z" fill="white" fill-opacity="0.1"/>
<path d="M445.201 193.539V132.748C445.201 132.514 445.289 132.29 445.445 132.124C445.601 131.959 445.812 131.866 446.033 131.866C446.254 131.866 446.465 131.959 446.621 132.124C446.777 132.29 446.865 132.514 446.865 132.748V193.539C446.868 197.619 448.398 201.532 451.119 204.419C453.841 207.305 457.531 208.93 461.381 208.936C465.672 208.939 469.786 210.747 472.819 213.962C475.853 217.178 477.559 221.538 477.562 226.085V261.828C477.562 262.062 477.474 262.286 477.318 262.452C477.162 262.617 476.951 262.71 476.73 262.71C476.509 262.71 476.298 262.617 476.142 262.452C475.986 262.286 475.898 262.062 475.898 261.828V226.038C475.895 221.958 474.365 218.047 471.643 215.162C468.921 212.277 465.231 210.655 461.381 210.652C457.098 210.646 452.991 208.842 449.958 205.635C446.926 202.428 445.216 198.079 445.201 193.539Z" fill="white" fill-opacity="0.1"/>
<path d="M75.6166 291.918C75.6151 291.802 75.6356 291.687 75.6769 291.579C75.7181 291.471 75.7793 291.373 75.8569 291.291C75.9344 291.209 76.0267 291.144 76.1283 291.1C76.2299 291.057 76.3387 291.035 76.4484 291.037H112.968C115.717 291.033 118.353 289.875 120.297 287.814C122.241 285.754 123.334 282.96 123.337 280.047V263.591C123.337 263.358 123.425 263.133 123.581 262.968C123.736 262.803 123.948 262.71 124.169 262.71C124.389 262.71 124.601 262.803 124.757 262.968C124.913 263.133 125 263.358 125 263.591V280.047C124.995 283.427 123.725 286.667 121.47 289.058C119.214 291.448 116.157 292.793 112.968 292.8H76.4484C76.2278 292.8 76.0162 292.707 75.8602 292.541C75.7042 292.376 75.6166 292.152 75.6166 291.918Z" fill="white" fill-opacity="0.1"/>
<path d="M95.7336 374.478V313.687C95.7336 313.453 95.8213 313.229 95.9772 313.064C96.1332 312.898 96.3448 312.805 96.5654 312.805C96.786 312.805 96.9975 312.898 97.1535 313.064C97.3095 313.229 97.3971 313.453 97.3971 313.687V374.478C97.4 378.559 98.9301 382.471 101.652 385.358C104.373 388.245 108.064 389.869 111.914 389.875C116.204 389.879 120.318 391.686 123.352 394.902C126.386 398.117 128.091 402.477 128.094 407.024V442.768C128.094 443.002 128.007 443.226 127.851 443.391C127.695 443.556 127.483 443.649 127.262 443.649C127.042 443.649 126.83 443.556 126.674 443.391C126.518 443.226 126.431 443.002 126.431 442.768V406.977C126.428 402.898 124.897 398.986 122.176 396.101C119.454 393.217 115.763 391.595 111.914 391.592C107.63 391.585 103.523 389.781 100.491 386.574C97.4587 383.367 95.7482 379.018 95.7336 374.478Z" fill="white" fill-opacity="0.1"/>
<path d="M245.972 82.4926V21.7017C245.972 21.4679 246.06 21.2437 246.216 21.0784C246.372 20.913 246.583 20.8202 246.804 20.8202C247.024 20.8202 247.236 20.913 247.392 21.0784C247.548 21.2437 247.636 21.4679 247.636 21.7017V82.4926C247.638 86.5733 249.169 90.4862 251.89 93.3728C254.611 96.2594 258.302 97.884 262.152 97.8902C266.443 97.8933 270.557 99.701 273.59 102.916C276.624 106.132 278.33 110.492 278.333 115.039L278.333 150.783C278.333 151.016 278.245 151.241 278.089 151.406C277.933 151.571 277.721 151.664 277.501 151.664C277.28 151.664 277.069 151.571 276.913 151.406C276.757 151.241 276.669 151.016 276.669 150.783V114.992C276.666 110.912 275.136 107.001 272.414 104.116C269.692 101.231 266.002 99.6093 262.152 99.6062C257.869 99.6 253.762 97.7962 250.729 94.5891C247.697 91.382 245.987 87.0328 245.972 82.4926Z" fill="white" fill-opacity="0.1"/>
<path d="M300.974 242.274C300.973 242.158 300.994 242.043 301.035 241.935C301.076 241.827 301.137 241.729 301.215 241.647C301.292 241.565 301.385 241.5 301.486 241.456C301.588 241.413 301.697 241.391 301.806 241.392H338.326C341.075 241.389 343.711 240.231 345.654 238.17C347.598 236.11 348.692 233.316 348.695 230.403V213.947C348.695 213.713 348.782 213.489 348.938 213.324C349.094 213.159 349.306 213.066 349.527 213.066C349.747 213.066 349.959 213.159 350.115 213.324C350.271 213.489 350.358 213.713 350.358 213.947V230.403C350.352 233.783 349.083 237.023 346.828 239.413C344.572 241.804 341.515 243.149 338.326 243.156H301.806C301.586 243.156 301.374 243.063 301.218 242.897C301.062 242.732 300.974 242.508 300.974 242.274Z" fill="white" fill-opacity="0.1"/>
<path d="M321.091 324.834V264.043C321.091 263.809 321.179 263.585 321.335 263.42C321.491 263.254 321.703 263.161 321.923 263.161C322.144 263.161 322.355 263.254 322.511 263.42C322.667 263.585 322.755 263.809 322.755 264.043V324.834C322.758 328.915 324.288 332.827 327.009 335.714C329.731 338.601 333.422 340.225 337.272 340.231C341.562 340.234 345.676 342.042 348.71 345.258C351.744 348.473 353.449 352.833 353.452 357.38V393.124C353.452 393.357 353.364 393.582 353.208 393.747C353.053 393.912 352.841 394.005 352.62 394.005C352.4 394.005 352.188 393.912 352.032 393.747C351.876 393.582 351.789 393.357 351.789 393.124V357.333C351.786 353.254 350.255 349.342 347.534 346.457C344.812 343.573 341.121 341.951 337.272 341.947C332.988 341.941 328.881 340.137 325.849 336.93C322.817 333.723 321.106 329.374 321.091 324.834Z" fill="white" fill-opacity="0.1"/>
<path d="M101.745 131.228C101.744 131.112 101.764 130.997 101.806 130.889C101.847 130.781 101.908 130.684 101.986 130.601C102.063 130.519 102.156 130.454 102.257 130.411C102.359 130.367 102.468 130.345 102.577 130.347H139.097C141.846 130.344 144.481 129.185 146.425 127.124C148.369 125.064 149.463 122.271 149.466 119.357V102.901C149.466 102.668 149.553 102.443 149.709 102.278C149.865 102.113 150.077 102.02 150.297 102.02C150.518 102.02 150.73 102.113 150.886 102.278C151.042 102.443 151.129 102.668 151.129 102.901V119.357C151.123 122.737 149.854 125.977 147.598 128.368C145.343 130.758 142.286 132.104 139.097 132.11H102.577C102.357 132.11 102.145 132.017 101.989 131.852C101.833 131.686 101.745 131.462 101.745 131.228Z" fill="white" fill-opacity="0.1"/>
<path d="M121.862 213.788V152.997C121.862 152.763 121.95 152.539 122.106 152.374C122.262 152.208 122.474 152.116 122.694 152.116C122.915 152.116 123.126 152.208 123.282 152.374C123.438 152.539 123.526 152.763 123.526 152.997V213.788C123.529 217.869 125.059 221.782 127.78 224.668C130.502 227.555 134.193 229.179 138.043 229.186C142.333 229.189 146.447 230.996 149.481 234.212C152.514 237.427 154.22 241.787 154.223 246.334V282.078C154.223 282.312 154.135 282.536 153.979 282.701C153.823 282.867 153.612 282.959 153.391 282.959C153.171 282.959 152.959 282.867 152.803 282.701C152.647 282.536 152.56 282.312 152.56 282.078V246.287C152.557 242.208 151.026 238.296 148.304 235.411C145.583 232.527 141.892 230.905 138.043 230.902C133.759 230.895 129.652 229.092 126.62 225.884C123.588 222.677 121.877 218.328 121.862 213.788Z" fill="white" fill-opacity="0.1"/>
<path d="M323.837 433.012C323.835 432.896 323.856 432.78 323.897 432.673C323.938 432.565 324 432.467 324.077 432.385C324.155 432.303 324.247 432.238 324.349 432.194C324.45 432.15 324.559 432.129 324.669 432.13H361.188C363.937 432.127 366.573 430.968 368.517 428.908C370.461 426.848 371.554 424.054 371.557 421.14V404.685C371.557 404.451 371.645 404.227 371.801 404.062C371.957 403.896 372.168 403.803 372.389 403.803C372.61 403.803 372.821 403.896 372.977 404.062C373.133 404.227 373.221 404.451 373.221 404.685V421.14C373.215 424.521 371.945 427.761 369.69 430.151C367.435 432.542 364.378 433.887 361.188 433.893H324.669C324.448 433.893 324.236 433.8 324.081 433.635C323.925 433.47 323.837 433.246 323.837 433.012Z" fill="white" fill-opacity="0.1"/>
<path d="M343.954 515.572V454.781C343.954 454.547 344.042 454.323 344.198 454.157C344.353 453.992 344.565 453.899 344.786 453.899C345.006 453.899 345.218 453.992 345.374 454.157C345.53 454.323 345.617 454.547 345.617 454.781V515.572C345.62 519.652 347.15 523.565 349.872 526.452C352.593 529.338 356.284 530.963 360.134 530.969C364.425 530.972 368.538 532.78 371.572 535.995C374.606 539.211 376.312 543.571 376.315 548.118V583.861C376.315 584.095 376.227 584.319 376.071 584.485C375.915 584.65 375.703 584.743 375.483 584.743C375.262 584.743 375.051 584.65 374.895 584.485C374.739 584.319 374.651 584.095 374.651 583.861V548.071C374.648 543.991 373.118 540.08 370.396 537.195C367.674 534.31 363.983 532.688 360.134 532.685C355.85 532.679 351.743 530.875 348.711 527.668C345.679 524.461 343.969 520.112 343.954 515.572Z" fill="white" fill-opacity="0.1"/>
<path d="M474.076 141.026C474.074 140.91 474.095 140.795 474.136 140.687C474.177 140.579 474.238 140.482 474.316 140.399C474.393 140.317 474.486 140.252 474.587 140.209C474.689 140.165 474.798 140.143 474.907 140.145H511.427C514.176 140.142 516.812 138.983 518.755 136.922C520.699 134.862 521.793 132.069 521.796 129.155V112.699C521.796 112.466 521.883 112.241 522.039 112.076C522.195 111.911 522.407 111.818 522.628 111.818C522.848 111.818 523.06 111.911 523.216 112.076C523.372 112.241 523.459 112.466 523.459 112.699V129.155C523.453 132.535 522.184 135.775 519.929 138.166C517.673 140.556 514.616 141.902 511.427 141.908H474.907C474.687 141.908 474.475 141.815 474.319 141.65C474.163 141.484 474.076 141.26 474.076 141.026Z" fill="white" fill-opacity="0.1"/>
<path d="M494.193 223.586V162.795C494.193 162.561 494.28 162.337 494.436 162.172C494.592 162.006 494.804 161.914 495.024 161.914C495.245 161.914 495.456 162.006 495.612 162.172C495.768 162.337 495.856 162.561 495.856 162.795V223.586C495.859 227.667 497.389 231.58 500.11 234.466C502.832 237.353 506.523 238.977 510.373 238.984C514.663 238.987 518.777 240.794 521.811 244.01C524.845 247.225 526.55 251.585 526.553 256.132V291.876C526.553 292.11 526.466 292.334 526.31 292.499C526.154 292.665 525.942 292.757 525.721 292.757C525.501 292.757 525.289 292.665 525.133 292.499C524.977 292.334 524.89 292.11 524.89 291.876V256.085C524.887 252.006 523.356 248.094 520.635 245.209C517.913 242.325 514.222 240.703 510.373 240.7C506.089 240.693 501.982 238.89 498.95 235.682C495.918 232.475 494.207 228.126 494.193 223.586Z" fill="white" fill-opacity="0.1"/>
<path d="M124.608 321.966C124.606 321.85 124.627 321.735 124.668 321.627C124.709 321.519 124.771 321.421 124.848 321.339C124.926 321.257 125.018 321.192 125.12 321.148C125.221 321.105 125.33 321.083 125.44 321.085H161.959C164.708 321.081 167.344 319.923 169.288 317.862C171.232 315.802 172.325 313.008 172.328 310.095V293.639C172.328 293.405 172.416 293.181 172.572 293.016C172.728 292.851 172.939 292.758 173.16 292.758C173.381 292.758 173.592 292.851 173.748 293.016C173.904 293.181 173.992 293.405 173.992 293.639V310.095C173.986 313.475 172.716 316.715 170.461 319.105C168.206 321.496 165.148 322.841 161.959 322.848H125.44C125.219 322.848 125.007 322.755 124.852 322.589C124.696 322.424 124.608 322.2 124.608 321.966Z" fill="white" fill-opacity="0.1"/>
<path d="M144.725 404.526V343.735C144.725 343.501 144.813 343.277 144.969 343.112C145.124 342.946 145.336 342.853 145.557 342.853C145.777 342.853 145.989 342.946 146.145 343.112C146.301 343.277 146.388 343.501 146.388 343.735V404.526C146.391 408.606 147.921 412.519 150.643 415.406C153.364 418.293 157.055 419.917 160.905 419.923C165.196 419.926 169.309 421.734 172.343 424.95C175.377 428.165 177.083 432.525 177.086 437.072V472.816C177.086 473.049 176.998 473.274 176.842 473.439C176.686 473.604 176.474 473.697 176.254 473.697C176.033 473.697 175.822 473.604 175.666 473.439C175.51 473.274 175.422 473.049 175.422 472.816V437.025C175.419 432.946 173.889 429.034 171.167 426.149C168.445 423.265 164.754 421.643 160.905 421.639C156.621 421.633 152.514 419.829 149.482 416.622C146.45 413.415 144.74 409.066 144.725 404.526Z" fill="white" fill-opacity="0.1"/>
<path d="M274.845 29.9804C274.844 29.8642 274.864 29.7489 274.906 29.6412C274.947 29.5335 275.008 29.4357 275.086 29.3535C275.163 29.2714 275.256 29.2065 275.357 29.1628C275.459 29.119 275.568 29.0973 275.677 29.0989H312.197C314.946 29.0958 317.581 27.9369 319.525 25.8766C321.469 23.8162 322.563 21.0227 322.566 18.109V1.65359C322.566 1.4198 322.653 1.19556 322.809 1.03024C322.965 0.864922 323.177 0.772064 323.398 0.772064C323.618 0.772064 323.83 0.864922 323.986 1.03024C324.142 1.19556 324.229 1.4198 324.229 1.65359V18.109C324.223 21.4894 322.954 24.7295 320.698 27.1198C318.443 29.5101 315.386 30.8558 312.197 30.862L275.677 30.8619C275.457 30.8619 275.245 30.7691 275.089 30.6038C274.933 30.4384 274.845 30.2142 274.845 29.9804Z" fill="white" fill-opacity="0.1"/>
<path d="M294.962 112.54V51.7492C294.962 51.5154 295.05 51.2912 295.206 51.1259C295.362 50.9606 295.574 50.8677 295.794 50.8677C296.015 50.8677 296.226 50.9606 296.382 51.1259C296.538 51.2912 296.626 51.5154 296.626 51.7492V112.54C296.629 116.621 298.159 120.534 300.88 123.42C303.602 126.307 307.293 127.931 311.143 127.938C315.433 127.941 319.547 129.749 322.581 132.964C325.614 136.179 327.32 140.539 327.323 145.087V180.83C327.323 181.064 327.235 181.288 327.079 181.453C326.923 181.619 326.712 181.712 326.491 181.712C326.271 181.712 326.059 181.619 325.903 181.453C325.747 181.288 325.66 181.064 325.66 180.83V145.04C325.657 140.96 324.126 137.048 321.404 134.164C318.683 131.279 314.992 129.657 311.143 129.654C306.859 129.648 302.752 127.844 299.72 124.637C296.688 121.43 294.977 117.08 294.962 112.54Z" fill="white" fill-opacity="0.1"/>
<path d="M349.965 272.322C349.963 272.206 349.984 272.09 350.025 271.983C350.066 271.875 350.128 271.777 350.205 271.695C350.283 271.613 350.375 271.548 350.477 271.504C350.578 271.461 350.687 271.439 350.797 271.44L387.316 271.441C390.065 271.437 392.701 270.279 394.645 268.218C396.589 266.158 397.682 263.364 397.685 260.451V243.995C397.685 243.761 397.773 243.537 397.929 243.372C398.085 243.207 398.296 243.114 398.517 243.114C398.737 243.114 398.949 243.207 399.105 243.372C399.261 243.537 399.349 243.761 399.349 243.995V260.451C399.343 263.831 398.073 267.071 395.818 269.461C393.563 271.852 390.505 273.197 387.316 273.204H350.797C350.576 273.204 350.364 273.111 350.208 272.945C350.053 272.78 349.965 272.556 349.965 272.322Z" fill="white" fill-opacity="0.1"/>
<path d="M370.082 354.882V294.091C370.082 293.857 370.17 293.633 370.326 293.467C370.481 293.302 370.693 293.209 370.914 293.209C371.134 293.209 371.346 293.302 371.502 293.467C371.658 293.633 371.745 293.857 371.745 294.091V354.882C371.748 358.962 373.278 362.875 376 365.762C378.721 368.649 382.412 370.273 386.262 370.279C390.553 370.282 394.666 372.09 397.7 375.306C400.734 378.521 402.44 382.881 402.443 387.428V423.172C402.443 423.405 402.355 423.63 402.199 423.795C402.043 423.96 401.831 424.053 401.611 424.053C401.39 424.053 401.179 423.96 401.023 423.795C400.867 423.63 400.779 423.405 400.779 423.172V387.381C400.776 383.302 399.246 379.39 396.524 376.505C393.802 373.62 390.111 371.999 386.262 371.995C381.978 371.989 377.871 370.185 374.839 366.978C371.807 363.771 370.096 359.422 370.082 354.882Z" fill="white" fill-opacity="0.1"/>
<path d="M520.32 62.8962V2.10526C520.32 1.87146 520.408 1.64722 520.564 1.4819C520.72 1.31658 520.932 1.22372 521.152 1.22372C521.373 1.22372 521.584 1.31658 521.74 1.4819C521.896 1.64722 521.984 1.87146 521.984 2.10526V62.8962C521.987 66.9769 523.517 70.8897 526.238 73.7763C528.96 76.6629 532.651 78.2875 536.501 78.2937C540.791 78.2968 544.905 80.1046 547.939 83.32C550.972 86.5353 552.678 90.8954 552.681 95.4426V131.186C552.681 131.42 552.593 131.644 552.437 131.809C552.281 131.975 552.07 132.068 551.849 132.068C551.629 132.068 551.417 131.975 551.261 131.809C551.105 131.644 551.018 131.42 551.018 131.186V95.3956C551.015 91.316 549.484 87.4043 546.762 84.5196C544.041 81.6349 540.35 80.0129 536.501 80.0098C532.217 80.0036 528.11 78.1997 525.078 74.9926C522.045 71.7856 520.335 67.4363 520.32 62.8962Z" fill="white" fill-opacity="0.1"/>
<path d="M150.736 161.276C150.734 161.16 150.755 161.044 150.796 160.937C150.837 160.829 150.899 160.731 150.976 160.649C151.054 160.567 151.146 160.502 151.248 160.458C151.349 160.415 151.458 160.393 151.568 160.394H188.087C190.836 160.391 193.472 159.232 195.416 157.172C197.36 155.112 198.453 152.318 198.456 149.405V132.949C198.456 132.715 198.544 132.491 198.7 132.326C198.856 132.161 199.067 132.068 199.288 132.068C199.508 132.068 199.72 132.161 199.876 132.326C200.032 132.491 200.12 132.715 200.12 132.949V149.405C200.114 152.785 198.844 156.025 196.589 158.415C194.334 160.806 191.276 162.151 188.087 162.158H151.568C151.347 162.158 151.135 162.065 150.979 161.899C150.824 161.734 150.736 161.51 150.736 161.276Z" fill="white" fill-opacity="0.1"/>
<path d="M170.853 243.836L170.853 183.045C170.853 182.811 170.941 182.587 171.096 182.421C171.252 182.256 171.464 182.163 171.685 182.163C171.905 182.163 172.117 182.256 172.273 182.421C172.429 182.587 172.516 182.811 172.516 183.045V243.836C172.519 247.916 174.049 251.829 176.771 254.716C179.492 257.603 183.183 259.227 187.033 259.233C191.324 259.236 195.437 261.044 198.471 264.26C201.505 267.475 203.211 271.835 203.214 276.382V312.126C203.214 312.359 203.126 312.584 202.97 312.749C202.814 312.914 202.602 313.007 202.382 313.007C202.161 313.007 201.95 312.914 201.794 312.749C201.638 312.584 201.55 312.359 201.55 312.126V276.335C201.547 272.256 200.017 268.344 197.295 265.459C194.573 262.574 190.882 260.952 187.033 260.949C182.749 260.943 178.642 259.139 175.61 255.932C172.578 252.725 170.868 248.376 170.853 243.836Z" fill="white" fill-opacity="0.1"/>
<path d="M372.827 463.059C372.826 462.943 372.846 462.828 372.888 462.72C372.929 462.612 372.99 462.515 373.068 462.432C373.145 462.35 373.237 462.285 373.339 462.242C373.441 462.198 373.549 462.176 373.659 462.178L410.178 462.178C412.928 462.175 415.563 461.016 417.507 458.955C419.451 456.895 420.545 454.102 420.548 451.188V434.733C420.548 434.499 420.635 434.274 420.791 434.109C420.947 433.944 421.159 433.851 421.379 433.851C421.6 433.851 421.812 433.944 421.968 434.109C422.124 434.274 422.211 434.499 422.211 434.733V451.188C422.205 454.568 420.936 457.808 418.68 460.199C416.425 462.589 413.368 463.935 410.178 463.941H373.659C373.438 463.941 373.227 463.848 373.071 463.683C372.915 463.517 372.827 463.293 372.827 463.059Z" fill="white" fill-opacity="0.1"/>
<path d="M392.944 545.619V484.828C392.944 484.594 393.032 484.37 393.188 484.205C393.344 484.039 393.555 483.947 393.776 483.947C393.997 483.947 394.208 484.039 394.364 484.205C394.52 484.37 394.608 484.594 394.608 484.828V545.619C394.611 549.7 396.141 553.613 398.862 556.499C401.584 559.386 405.274 561.01 409.125 561.017C413.415 561.02 417.529 562.827 420.563 566.043C423.596 569.258 425.302 573.618 425.305 578.166V613.909C425.305 614.143 425.217 614.367 425.061 614.532C424.905 614.698 424.694 614.791 424.473 614.791C424.253 614.791 424.041 614.698 423.885 614.532C423.729 614.367 423.641 614.143 423.641 613.909V578.119C423.638 574.039 422.108 570.127 419.386 567.243C416.664 564.358 412.974 562.736 409.125 562.733C404.841 562.727 400.734 560.923 397.702 557.716C394.669 554.508 392.959 550.159 392.944 545.619Z" fill="white" fill-opacity="0.1"/>
<path d="M-7.47403 284.335V223.544C-7.47403 223.31 -7.38639 223.086 -7.23041 222.92C-7.07442 222.755 -6.86287 222.662 -6.64227 222.662C-6.42168 222.662 -6.21012 222.755 -6.05414 222.92C-5.89816 223.086 -5.81052 223.31 -5.81052 223.544V284.335C-5.80758 288.415 -4.27757 292.328 -1.55609 295.215C1.16539 298.101 4.85605 299.726 8.70627 299.732C12.9967 299.735 17.1105 301.543 20.1443 304.759C23.178 307.974 24.8837 312.334 24.8866 316.881V352.625C24.8866 352.858 24.799 353.083 24.643 353.248C24.487 353.413 24.2754 353.506 24.0548 353.506C23.8342 353.506 23.6227 353.413 23.4667 353.248C23.3107 353.083 23.2231 352.858 23.2231 352.625V316.834C23.2201 312.755 21.6898 308.843 18.968 305.958C16.2462 303.073 12.5555 301.451 8.70627 301.448C4.42253 301.442 0.315441 299.638 -2.71674 296.431C-5.74891 293.224 -7.45937 288.875 -7.47403 284.335Z" fill="white" fill-opacity="0.1"/>
<path d="M173.598 352.014C173.597 351.897 173.617 351.782 173.659 351.674C173.7 351.567 173.761 351.469 173.839 351.387C173.916 351.305 174.008 351.24 174.11 351.196C174.212 351.152 174.32 351.13 174.43 351.132H210.949C213.699 351.129 216.334 349.97 218.278 347.91C220.222 345.849 221.316 343.056 221.319 340.142V323.687C221.319 323.453 221.406 323.229 221.562 323.063C221.718 322.898 221.93 322.805 222.15 322.805C222.371 322.805 222.582 322.898 222.738 323.063C222.894 323.229 222.982 323.453 222.982 323.687V340.142C222.976 343.522 221.707 346.763 219.451 349.153C217.196 351.543 214.139 352.889 210.949 352.895H174.43C174.209 352.895 173.998 352.802 173.842 352.637C173.686 352.472 173.598 352.247 173.598 352.014Z" fill="white" fill-opacity="0.1"/>
<path d="M193.715 434.573V373.782C193.715 373.549 193.803 373.324 193.959 373.159C194.115 372.994 194.326 372.901 194.547 372.901C194.768 372.901 194.979 372.994 195.135 373.159C195.291 373.324 195.379 373.549 195.379 373.782V434.573C195.382 438.654 196.912 442.567 199.633 445.453C202.355 448.34 206.045 449.965 209.896 449.971C214.186 449.974 218.3 451.782 221.334 454.997C224.367 458.212 226.073 462.573 226.076 467.12V502.863C226.076 503.097 225.988 503.321 225.832 503.486C225.676 503.652 225.465 503.745 225.244 503.745C225.024 503.745 224.812 503.652 224.656 503.486C224.5 503.321 224.412 503.097 224.412 502.863V467.073C224.409 462.993 222.879 459.081 220.157 456.197C217.436 453.312 213.745 451.69 209.896 451.687C205.612 451.681 201.505 449.877 198.473 446.67C195.44 443.463 193.73 439.113 193.715 434.573Z" fill="white" fill-opacity="0.1"/>
<path d="M323.837 60.0284C323.835 59.9122 323.856 59.7969 323.897 59.6892C323.938 59.5816 324 59.4838 324.077 59.4016C324.155 59.3194 324.247 59.2545 324.349 59.2108C324.45 59.167 324.559 59.1453 324.669 59.1469H361.188C363.937 59.1438 366.573 57.9849 368.517 55.9246C370.461 53.8643 371.554 51.0708 371.557 48.157V31.7016C371.557 31.4678 371.645 31.2436 371.801 31.0783C371.957 30.913 372.168 30.8201 372.389 30.8201C372.609 30.8201 372.821 30.913 372.977 31.0783C373.133 31.2436 373.221 31.4678 373.221 31.7016V48.157C373.215 51.5374 371.945 54.7775 369.69 57.1678C367.435 59.5581 364.377 60.9038 361.188 60.91H324.669C324.448 60.91 324.236 60.8171 324.08 60.6518C323.924 60.4865 323.837 60.2622 323.837 60.0284Z" fill="white" fill-opacity="0.1"/>
<path d="M343.954 142.588V81.7973C343.954 81.5635 344.041 81.3392 344.197 81.1739C344.353 81.0086 344.565 80.9157 344.786 80.9157C345.006 80.9157 345.218 81.0086 345.374 81.1739C345.53 81.3392 345.617 81.5635 345.617 81.7973V142.588C345.62 146.669 347.15 150.582 349.872 153.468C352.593 156.355 356.284 157.98 360.134 157.986C364.425 157.989 368.538 159.797 371.572 163.012C374.606 166.227 376.312 170.587 376.314 175.135V210.878C376.314 211.112 376.227 211.336 376.071 211.501C375.915 211.667 375.703 211.76 375.483 211.76C375.262 211.76 375.051 211.667 374.895 211.501C374.739 211.336 374.651 211.112 374.651 210.878V175.088C374.648 171.008 373.118 167.096 370.396 164.212C367.674 161.327 363.983 159.705 360.134 159.702C355.85 159.696 351.743 157.892 348.711 154.685C345.679 151.478 343.969 147.128 343.954 142.588Z" fill="white" fill-opacity="0.1"/>
<path d="M398.956 302.37C398.955 302.253 398.975 302.138 399.017 302.03C399.058 301.923 399.119 301.825 399.197 301.743C399.274 301.661 399.366 301.596 399.468 301.552C399.57 301.508 399.678 301.487 399.788 301.488H436.307C439.057 301.485 441.692 300.326 443.636 298.266C445.58 296.205 446.674 293.412 446.677 290.498V274.043C446.677 273.809 446.764 273.585 446.92 273.419C447.076 273.254 447.288 273.161 447.508 273.161C447.729 273.161 447.94 273.254 448.096 273.419C448.252 273.585 448.34 273.809 448.34 274.043V290.498C448.334 293.879 447.065 297.119 444.809 299.509C442.554 301.899 439.497 303.245 436.307 303.251H399.788C399.567 303.251 399.356 303.158 399.2 302.993C399.044 302.828 398.956 302.603 398.956 302.37Z" fill="white" fill-opacity="0.1"/>
<path d="M419.073 384.929V324.138C419.073 323.905 419.161 323.68 419.317 323.515C419.473 323.35 419.684 323.257 419.905 323.257C420.126 323.257 420.337 323.35 420.493 323.515C420.649 323.68 420.737 323.905 420.737 324.138V384.929C420.74 389.01 422.27 392.923 424.991 395.81C427.713 398.696 431.403 400.321 435.254 400.327C439.544 400.33 443.658 402.138 446.692 405.353C449.725 408.569 451.431 412.929 451.434 417.476V453.219C451.434 453.453 451.346 453.677 451.19 453.843C451.034 454.008 450.823 454.101 450.602 454.101C450.382 454.101 450.17 454.008 450.014 453.843C449.858 453.677 449.77 453.453 449.77 453.219V417.429C449.767 413.349 448.237 409.438 445.515 406.553C442.793 403.668 439.103 402.046 435.254 402.043C430.97 402.037 426.863 400.233 423.831 397.026C420.798 393.819 419.088 389.47 419.073 384.929Z" fill="white" fill-opacity="0.1"/>
<path d="M-1.46237 41.0851C-1.46386 40.9689 -1.44334 40.8535 -1.40207 40.7459C-1.3608 40.6382 -1.29961 40.5404 -1.22208 40.4583C-1.14454 40.3761 -1.05227 40.3112 -0.950684 40.2675C-0.849097 40.2237 -0.740255 40.202 -0.630615 40.2036L35.8888 40.2036C38.638 40.2005 41.2737 39.0416 43.2177 36.9813C45.1616 34.9209 46.255 32.1274 46.2579 29.2137V12.7583C46.2579 12.5245 46.3456 12.3003 46.5016 12.1349C46.6576 11.9696 46.8691 11.8767 47.0897 11.8767C47.3103 11.8767 47.5219 11.9696 47.6779 12.1349C47.8338 12.3003 47.9214 12.5245 47.9214 12.7583V29.2137C47.9156 32.5941 46.646 35.8342 44.3907 38.2245C42.1354 40.6148 39.0783 41.9604 35.8888 41.9666H-0.630615C-0.85121 41.9666 -1.06277 41.8738 -1.21875 41.7085C-1.37473 41.5431 -1.46237 41.3189 -1.46237 41.0851Z" fill="white" fill-opacity="0.1"/>
<path d="M18.6546 123.645V62.8539C18.6546 62.6201 18.7423 62.3959 18.8983 62.2306C19.0542 62.0653 19.2658 61.9724 19.4864 61.9724C19.707 61.9724 19.9185 62.0653 20.0745 62.2306C20.2305 62.3959 20.3181 62.6201 20.3181 62.8539V123.645C20.3211 127.726 21.8511 131.638 24.5726 134.525C27.294 137.412 30.9847 139.036 34.8349 139.042C39.1253 139.046 43.2391 140.853 46.2729 144.069C49.3066 147.284 51.0123 151.644 51.0153 156.191V191.935C51.0153 192.169 50.9277 192.393 50.7717 192.558C50.6157 192.723 50.4041 192.816 50.1835 192.816C49.9629 192.816 49.7514 192.723 49.5954 192.558C49.4394 192.393 49.3517 192.169 49.3517 191.935V156.144C49.3488 152.065 47.8184 148.153 45.0966 145.268C42.3748 142.384 38.6841 140.762 34.8349 140.758C30.5512 140.752 26.4441 138.948 23.4119 135.741C20.3797 132.534 18.6693 128.185 18.6546 123.645Z" fill="white" fill-opacity="0.1"/>
<path d="M199.726 191.324C199.725 191.208 199.745 191.092 199.786 190.985C199.828 190.877 199.889 190.779 199.966 190.697C200.044 190.615 200.136 190.55 200.238 190.506C200.34 190.462 200.448 190.441 200.558 190.442H237.077C239.827 190.439 242.462 189.28 244.406 187.22C246.35 185.16 247.444 182.366 247.447 179.452V162.997C247.447 162.763 247.534 162.539 247.69 162.374C247.846 162.208 248.058 162.116 248.278 162.116C248.499 162.116 248.71 162.208 248.866 162.374C249.022 162.539 249.11 162.763 249.11 162.997V179.452C249.104 182.833 247.835 186.073 245.579 188.463C243.324 190.854 240.267 192.199 237.077 192.205H200.558C200.337 192.205 200.126 192.112 199.97 191.947C199.814 191.782 199.726 191.558 199.726 191.324Z" fill="white" fill-opacity="0.1"/>
<path d="M219.843 273.884V213.093C219.843 212.859 219.931 212.635 220.087 212.469C220.243 212.304 220.454 212.211 220.675 212.211C220.896 212.211 221.107 212.304 221.263 212.469C221.419 212.635 221.507 212.859 221.507 213.093V273.884C221.51 277.964 223.04 281.877 225.761 284.764C228.483 287.65 232.173 289.275 236.023 289.281C240.314 289.284 244.428 291.092 247.461 294.307C250.495 297.523 252.201 301.883 252.204 306.43V342.173C252.204 342.407 252.116 342.631 251.96 342.797C251.804 342.962 251.593 343.055 251.372 343.055C251.151 343.055 250.94 342.962 250.784 342.797C250.628 342.631 250.54 342.407 250.54 342.173V306.383C250.537 302.303 249.007 298.392 246.285 295.507C243.563 292.622 239.873 291 236.023 290.997C231.74 290.991 227.633 289.187 224.601 285.98C221.568 282.773 219.858 278.424 219.843 273.884Z" fill="white" fill-opacity="0.1"/>
<path d="M421.819 493.107C421.817 492.991 421.838 492.875 421.879 492.768C421.92 492.66 421.981 492.562 422.059 492.48C422.137 492.398 422.229 492.333 422.33 492.289C422.432 492.245 422.541 492.224 422.65 492.225H459.17C461.919 492.222 464.555 491.063 466.499 489.003C468.443 486.943 469.536 484.149 469.539 481.235V464.78C469.539 464.546 469.627 464.322 469.783 464.157C469.939 463.991 470.15 463.898 470.371 463.898C470.591 463.898 470.803 463.991 470.959 464.157C471.115 464.322 471.203 464.546 471.203 464.78V481.235C471.197 484.616 469.927 487.856 467.672 490.246C465.416 492.637 462.359 493.982 459.17 493.988H422.65C422.43 493.988 422.218 493.896 422.062 493.73C421.906 493.565 421.819 493.341 421.819 493.107Z" fill="white" fill-opacity="0.1"/>
<path d="M441.936 575.667V514.876C441.936 514.642 442.023 514.418 442.179 514.252C442.335 514.087 442.547 513.994 442.767 513.994C442.988 513.994 443.2 514.087 443.356 514.252C443.512 514.418 443.599 514.642 443.599 514.876V575.667C443.602 579.747 445.132 583.66 447.854 586.547C450.575 589.433 454.266 591.058 458.116 591.064C462.406 591.067 466.52 592.875 469.554 596.09C472.588 599.306 474.293 603.666 474.296 608.213V643.956C474.296 644.19 474.209 644.414 474.053 644.58C473.897 644.745 473.685 644.838 473.465 644.838C473.244 644.838 473.032 644.745 472.876 644.58C472.72 644.414 472.633 644.19 472.633 643.956V608.166C472.63 604.086 471.099 600.175 468.378 597.29C465.656 594.405 461.965 592.783 458.116 592.78C453.832 592.774 449.725 590.97 446.693 587.763C443.661 584.556 441.95 580.207 441.936 575.667Z" fill="white" fill-opacity="0.1"/>
<path d="M21.4003 231.823C21.3988 231.707 21.4193 231.591 21.4606 231.484C21.5018 231.376 21.5631 231.278 21.6406 231.196C21.7181 231.114 21.8104 231.049 21.912 231.005C22.0136 230.962 22.1224 230.94 22.2321 230.941H58.7515C61.5006 230.938 64.1364 229.779 66.0803 227.719C68.0243 225.659 69.1177 222.865 69.1206 219.952V203.496C69.1206 203.262 69.2082 203.038 69.3642 202.873C69.5202 202.708 69.7317 202.615 69.9523 202.615C70.1729 202.615 70.3845 202.708 70.5405 202.873C70.6965 203.038 70.7841 203.262 70.7841 203.496V219.952C70.7783 223.332 69.5087 226.572 67.2534 228.962C64.9981 231.353 61.9409 232.698 58.7515 232.705H22.2321C22.0115 232.705 21.7999 232.612 21.6439 232.446C21.4879 232.281 21.4003 232.057 21.4003 231.823Z" fill="white" fill-opacity="0.1"/>
<path d="M41.5173 314.383V253.592C41.5173 253.358 41.6049 253.134 41.7609 252.968C41.9169 252.803 42.1285 252.71 42.3491 252.71C42.5697 252.71 42.7812 252.803 42.9372 252.968C43.0932 253.134 43.1808 253.358 43.1808 253.592V314.383C43.1837 318.463 44.7138 322.376 47.4352 325.263C50.1567 328.149 53.8474 329.774 57.6976 329.78C61.988 329.783 66.1018 331.591 69.1356 334.807C72.1693 338.022 73.875 342.382 73.8779 346.929V382.673C73.8779 382.906 73.7903 383.131 73.6343 383.296C73.4783 383.461 73.2667 383.554 73.0461 383.554C72.8255 383.554 72.6141 383.461 72.4581 383.296C72.3021 383.131 72.2144 382.906 72.2144 382.673V346.882C72.2115 342.803 70.6811 338.891 67.9593 336.006C65.2375 333.121 61.5468 331.499 57.6976 331.496C53.4139 331.49 49.3068 329.686 46.2746 326.479C43.2424 323.272 41.5319 318.923 41.5173 314.383Z" fill="white" fill-opacity="0.1"/>
<path d="M222.589 382.061C222.587 381.945 222.608 381.83 222.649 381.722C222.69 381.614 222.751 381.516 222.829 381.434C222.907 381.352 222.999 381.287 223.1 381.243C223.202 381.2 223.311 381.178 223.42 381.18H259.94C262.689 381.176 265.325 380.018 267.269 377.957C269.213 375.897 270.306 373.103 270.309 370.19V353.734C270.309 353.5 270.397 353.276 270.553 353.111C270.709 352.946 270.92 352.853 271.141 352.853C271.361 352.853 271.573 352.946 271.729 353.111C271.885 353.276 271.972 353.5 271.972 353.734V370.19C271.967 373.57 270.697 376.81 268.442 379.201C266.186 381.591 263.129 382.936 259.94 382.943H223.42C223.2 382.943 222.988 382.85 222.832 382.684C222.676 382.519 222.589 382.295 222.589 382.061Z" fill="white" fill-opacity="0.1"/>
<path d="M242.706 464.621V403.83C242.706 403.596 242.793 403.372 242.949 403.207C243.105 403.041 243.317 402.948 243.537 402.948C243.758 402.948 243.97 403.041 244.126 403.207C244.282 403.372 244.369 403.596 244.369 403.83V464.621C244.372 468.702 245.902 472.614 248.624 475.501C251.345 478.388 255.036 480.012 258.886 480.018C263.176 480.022 267.29 481.829 270.324 485.045C273.358 488.26 275.063 492.62 275.066 497.167V532.911C275.066 533.144 274.979 533.369 274.823 533.534C274.667 533.699 274.455 533.792 274.235 533.792C274.014 533.792 273.802 533.699 273.646 533.534C273.49 533.369 273.403 533.144 273.403 532.911L273.403 497.12C273.4 493.041 271.87 489.129 269.148 486.244C266.426 483.36 262.735 481.738 258.886 481.734C254.602 481.728 250.495 479.924 247.463 476.717C244.431 473.51 242.72 469.161 242.706 464.621Z" fill="white" fill-opacity="0.1"/>
<path d="M372.827 90.076C372.826 89.9598 372.846 89.8444 372.888 89.7367C372.929 89.6291 372.99 89.5313 373.068 89.4491C373.145 89.367 373.237 89.3021 373.339 89.2583C373.441 89.2146 373.549 89.1928 373.659 89.1944H410.178C412.928 89.1913 415.563 88.0325 417.507 85.9721C419.451 83.9118 420.545 81.1183 420.548 78.2046V61.7491C420.548 61.5154 420.635 61.2911 420.791 61.1258C420.947 60.9605 421.159 60.8676 421.379 60.8676C421.6 60.8676 421.811 60.9605 421.967 61.1258C422.123 61.2911 422.211 61.5154 422.211 61.7491V78.2046C422.205 81.5849 420.936 84.8251 418.68 87.2154C416.425 89.6057 413.368 90.9513 410.178 90.9575H373.659C373.438 90.9575 373.227 90.8646 373.071 90.6993C372.915 90.534 372.827 90.3098 372.827 90.076Z" fill="white" fill-opacity="0.1"/>
<path d="M392.944 172.636V111.845C392.944 111.611 393.032 111.387 393.188 111.221C393.344 111.056 393.555 110.963 393.776 110.963C393.997 110.963 394.208 111.056 394.364 111.221C394.52 111.387 394.608 111.611 394.608 111.845V172.636C394.611 176.716 396.141 180.629 398.862 183.516C401.584 186.402 405.274 188.027 409.125 188.033C413.415 188.036 417.529 189.844 420.562 193.059C423.596 196.275 425.302 200.635 425.305 205.182L425.305 240.926C425.305 241.159 425.217 241.384 425.061 241.549C424.905 241.714 424.694 241.807 424.473 241.807C424.253 241.807 424.041 241.714 423.885 241.549C423.729 241.384 423.641 241.159 423.641 240.926V205.135C423.638 201.056 422.108 197.144 419.386 194.259C416.664 191.374 412.974 189.752 409.125 189.749C404.841 189.743 400.734 187.939 397.702 184.732C394.669 181.525 392.959 177.176 392.944 172.636Z" fill="white" fill-opacity="0.1"/>
<path d="M447.947 332.417C447.945 332.301 447.966 332.186 448.007 332.078C448.048 331.97 448.109 331.872 448.187 331.79C448.264 331.708 448.357 331.643 448.458 331.599C448.56 331.556 448.669 331.534 448.778 331.536H485.298C488.047 331.533 490.683 330.374 492.627 328.313C494.571 326.253 495.664 323.459 495.667 320.546V304.09C495.667 303.857 495.755 303.632 495.911 303.467C496.067 303.302 496.278 303.209 496.499 303.209C496.719 303.209 496.931 303.302 497.087 303.467C497.243 303.632 497.33 303.857 497.33 304.09V320.546C497.325 323.926 496.055 327.166 493.8 329.557C491.544 331.947 488.487 333.292 485.298 333.299H448.778C448.558 333.299 448.346 333.206 448.19 333.04C448.034 332.875 447.947 332.651 447.947 332.417Z" fill="white" fill-opacity="0.1"/>
<path d="M468.064 414.977V354.186C468.064 353.952 468.151 353.728 468.307 353.563C468.463 353.397 468.675 353.304 468.895 353.304C469.116 353.304 469.328 353.397 469.484 353.563C469.639 353.728 469.727 353.952 469.727 354.186V414.977C469.73 419.058 471.26 422.97 473.982 425.857C476.703 428.744 480.394 430.368 484.244 430.374C488.534 430.378 492.648 432.185 495.682 435.401C498.716 438.616 500.421 442.976 500.424 447.523V483.267C500.424 483.501 500.337 483.725 500.181 483.89C500.025 484.055 499.813 484.148 499.592 484.148C499.372 484.148 499.16 484.055 499.004 483.89C498.848 483.725 498.761 483.501 498.761 483.267V447.476C498.758 443.397 497.227 439.485 494.506 436.6C491.784 433.716 488.093 432.094 484.244 432.09C479.96 432.084 475.853 430.28 472.821 427.073C469.789 423.866 468.078 419.517 468.064 414.977Z" fill="white" fill-opacity="0.1"/>
<path d="M47.5281 71.1326C47.5266 71.0164 47.5471 70.9011 47.5884 70.7934C47.6297 70.6857 47.6909 70.5879 47.7684 70.5058C47.846 70.4236 47.9382 70.3587 48.0398 70.315C48.1414 70.2712 48.2502 70.2495 48.3599 70.2511H84.8793C87.6284 70.248 90.2642 69.0891 92.2081 67.0288C94.1521 64.9685 95.2455 62.1749 95.2484 59.2612V42.8058C95.2484 42.572 95.3361 42.3478 95.4921 42.1825C95.648 42.0171 95.8596 41.9243 96.0802 41.9243C96.3008 41.9243 96.5124 42.0171 96.6683 42.1825C96.8243 42.3478 96.9119 42.572 96.9119 42.8058V59.2612C96.9061 62.6416 95.6365 65.8817 93.3812 68.272C91.1259 70.6623 88.0687 72.0079 84.8793 72.0142H48.3599C48.1393 72.0142 47.9277 71.9213 47.7717 71.756C47.6157 71.5907 47.5281 71.3664 47.5281 71.1326Z" fill="white" fill-opacity="0.1"/>
<path d="M67.6451 153.692V92.9015C67.6451 92.6677 67.7327 92.4434 67.8887 92.2781C68.0447 92.1128 68.2563 92.0199 68.4769 92.0199C68.6975 92.0199 68.909 92.1128 69.065 92.2781C69.221 92.4434 69.3086 92.6677 69.3086 92.9015V153.692C69.3115 157.773 70.8416 161.686 73.563 164.572C76.2845 167.459 79.9752 169.084 83.8254 169.09C88.1158 169.093 92.2296 170.901 95.2634 174.116C98.2971 177.332 100.003 181.692 100.006 186.239V221.982C100.006 222.216 99.9181 222.44 99.7621 222.606C99.6062 222.771 99.3946 222.864 99.174 222.864C98.9534 222.864 98.7419 222.771 98.5859 222.606C98.4299 222.44 98.3422 222.216 98.3422 221.982V186.192C98.3393 182.112 96.8089 178.201 94.0871 175.316C91.3653 172.431 87.6746 170.809 83.8254 170.806C79.5417 170.8 75.4346 168.996 72.4024 165.789C69.3702 162.582 67.6598 158.232 67.6451 153.692Z" fill="white" fill-opacity="0.1"/>
<path d="M248.718 221.371C248.716 221.255 248.737 221.14 248.778 221.032C248.819 220.925 248.88 220.827 248.958 220.745C249.035 220.662 249.128 220.597 249.229 220.554C249.331 220.51 249.44 220.488 249.549 220.49H286.069C288.818 220.487 291.454 219.328 293.398 217.268C295.342 215.207 296.435 212.414 296.438 209.5V193.045C296.438 192.811 296.526 192.587 296.682 192.421C296.837 192.256 297.049 192.163 297.27 192.163C297.49 192.163 297.702 192.256 297.858 192.421C298.014 192.587 298.101 192.811 298.101 193.045V209.5C298.096 212.88 296.826 216.121 294.571 218.511C292.315 220.901 289.258 222.247 286.069 222.253H249.549C249.329 222.253 249.117 222.16 248.961 221.995C248.805 221.829 248.718 221.605 248.718 221.371Z" fill="white" fill-opacity="0.1"/>
<path d="M268.835 303.931V243.14C268.835 242.906 268.922 242.682 269.078 242.517C269.234 242.352 269.446 242.259 269.666 242.259C269.887 242.259 270.098 242.352 270.254 242.517C270.41 242.682 270.498 242.906 270.498 243.14V303.931C270.501 308.012 272.031 311.925 274.753 314.811C277.474 317.698 281.165 319.322 285.015 319.329C289.305 319.332 293.419 321.14 296.453 324.355C299.487 327.57 301.192 331.93 301.195 336.478V372.221C301.195 372.455 301.108 372.679 300.952 372.844C300.796 373.01 300.584 373.103 300.363 373.103C300.143 373.103 299.931 373.01 299.775 372.844C299.619 372.679 299.532 372.455 299.532 372.221V336.431C299.529 332.351 297.998 328.439 295.277 325.555C292.555 322.67 288.864 321.048 285.015 321.045C280.731 321.039 276.624 319.235 273.592 316.028C270.56 312.821 268.849 308.471 268.835 303.931Z" fill="white" fill-opacity="0.1"/>
</svg>
