<svg width="18" height="19" viewBox="0 0 18 19" fill="none" xmlns="http://www.w3.org/2000/svg">
<path fill-rule="evenodd" clip-rule="evenodd" d="M17.235 4.61682C16.7467 3.74832 16.2169 3.58857 15.138 3.52782C14.0603 3.45469 11.3501 3.42432 9.00225 3.42432C6.64987 3.42432 3.93862 3.45469 2.862 3.52669C1.78537 3.58857 1.25437 3.74719 0.761625 4.61682C0.25875 5.48419 0 6.97819 0 9.60844V9.61744C0 12.2364 0.25875 13.7417 0.761625 14.6001C1.25437 15.4686 1.78425 15.6261 2.86087 15.6992C3.93863 15.7622 6.64987 15.7993 9.00225 15.7993C11.3501 15.7993 14.0602 15.7622 15.1391 15.7003C16.218 15.6272 16.7479 15.4697 17.2361 14.6012C17.7435 13.7428 18 12.2376 18 9.61857V9.61294V9.60957C18 6.97819 17.7435 5.48419 17.235 4.61682Z" fill="#F44336"/>
<path fill-rule="evenodd" clip-rule="evenodd" d="M6.75 12.9868V6.23682L12.375 9.61182L6.75 12.9868Z" fill="#FAFAFA"/>
</svg>
