<svg width="44" height="45" viewBox="0 0 24 29" fill="none" xmlns="http://www.w3.org/2000/svg">
<path d="M19.5825 15.3038C19.5965 14.2251 19.8859 13.1675 20.4238 12.2294C20.9617 11.2912 21.7305 10.503 22.6588 9.93803C22.0691 9.10428 21.2911 8.41814 20.3867 7.9341C19.4822 7.45007 18.4763 7.18147 17.4486 7.14964C15.2565 6.92186 13.1313 8.44819 12.0142 8.44819C10.8756 8.44819 9.15565 7.17226 7.3036 7.20998C6.10564 7.24829 4.93814 7.59315 3.91484 8.21095C2.89154 8.82875 2.04735 9.69842 1.46452 10.7352C-1.06018 15.0624 0.82302 21.4219 3.24147 24.9197C4.45147 26.6325 5.86562 28.5457 7.716 28.4778C9.52671 28.4035 10.203 27.3348 12.3887 27.3348C14.554 27.3348 15.1885 28.4778 17.0765 28.4347C19.0194 28.4034 20.2436 26.7143 21.4111 24.9853C22.2805 23.7649 22.9495 22.4161 23.3933 20.9888C22.2645 20.5162 21.3012 19.7251 20.6235 18.7141C19.9459 17.7032 19.5838 16.5171 19.5825 15.3038Z" fill="white"/>
<path d="M16.0155 4.84933C17.0749 3.59036 17.5969 1.97216 17.4705 0.338379C15.8519 0.506664 14.3569 1.27243 13.2832 2.48311C12.7582 3.07455 12.3561 3.76262 12.0999 4.50799C11.8437 5.25335 11.7385 6.04139 11.7901 6.82706C12.5997 6.83531 13.4006 6.66161 14.1325 6.31903C14.8644 5.97646 15.5082 5.47394 16.0155 4.84933Z" fill="white"/>
</svg>
