<svg width="1420" height="1024" viewBox="0 0 1420 1024" fill="none" xmlns="http://www.w3.org/2000/svg">
<path d="M430.227 802.462L430.235 802.882C430.184 804.492 428.635 805.775 426.729 805.804L294.633 805.619C292.726 805.579 291.209 804.273 291.177 802.665L291.169 802.245C291.22 800.635 292.77 799.352 294.675 799.322L426.689 799.509C428.677 799.478 430.194 800.784 430.227 802.462ZM78.7421 805.106L78.5494 805.142L1.27375 751.362C-0.140139 750.383 -0.454337 748.494 0.723904 747.305L0.959552 746.955C1.6665 746.186 2.76619 745.766 3.86588 745.836C4.49427 745.836 5.04412 746.046 5.59397 746.396L82.5096 799.34L124.601 799.424C126.408 799.396 127.847 800.702 127.957 802.31L127.966 802.729C127.919 804.339 126.451 805.621 124.645 805.649L78.6052 805.525C78.6509 805.386 78.6965 805.246 78.7421 805.106Z" fill="#FF5645"/>
<path d="M429.111 800.547C428.478 800.009 427.597 799.687 426.597 799.702L294.584 799.516C294.374 799.519 294.169 799.537 293.969 799.57L299.268 756.062L359.6 755.908C366.858 760.133 371.579 763.184 373.763 765.062C377.039 767.88 380.547 770.483 384.362 772.733C393.581 778.116 398.371 778.041 412.392 783.909C416.193 785.459 419.842 787.221 423.416 789.195C426.99 791.168 428.211 793.387 429.22 796.729C429.388 797.286 429.399 797.846 429.487 798.334C429.508 799.437 429.359 800.096 429.111 800.547ZM5.49707 746.586L32.9894 713.112L80.119 744.937L81.6273 749.274C87.1258 766.433 90.1106 775.479 90.5819 776.412C91.1488 777.503 91.7365 778.512 92.3545 779.495C96.6252 781.042 101.475 782.556 108.884 785.854C112.654 787.463 116.268 789.282 119.802 791.31C123.337 793.339 124.515 795.577 125.458 798.934C125.537 799.216 125.576 799.498 125.606 799.771C125.263 799.666 124.895 799.611 124.51 799.617L82.4183 799.534L5.50265 746.589C5.50079 746.588 5.49893 746.587 5.49707 746.586Z" fill="#474961"/>
<path d="M237.037 408.333C237.271 408.361 237.506 408.395 237.741 408.434C240.015 408.817 242.137 409.719 243.901 411.052C311.89 462.426 352.101 504.918 364.535 538.529C371.586 557.59 377.81 606.632 383.208 685.656C384.209 700.308 371.681 712.908 355.226 713.799C354.88 713.818 354.533 713.831 354.186 713.839L304.678 714.98C288.451 715.353 274.863 704.112 274.091 689.674L267.491 566.31C256.639 556.095 247.183 547.096 239.124 539.314C237.19 548.703 234.206 558.614 229.383 571.875C221.347 593.972 188.606 637.645 131.16 702.894L128.953 705.514C119.596 716.614 102.222 719.435 89.0678 711.989L52.1246 691.079C38.2123 683.205 34.103 666.779 42.9462 654.39C43.314 653.875 43.7015 653.372 44.1082 652.88L126.382 553.472C128.343 514.061 132.226 479.582 138.029 450.036C146.735 405.717 211.904 406.674 236.568 407.403C236.727 407.707 236.883 408.017 237.037 408.333Z" fill="#3ABF7C"/>
<path opacity="0.176986" d="M236.989 408.323C237.24 408.352 237.492 408.388 237.744 408.43C240.017 408.813 242.14 409.715 243.904 411.048C311.893 462.422 352.104 504.915 364.538 538.525C371.589 557.586 377.813 606.628 383.211 685.652C384.211 700.304 371.684 712.904 355.229 713.796C354.882 713.814 354.536 713.828 354.189 713.836L304.68 714.976C288.454 715.35 274.866 704.108 274.094 689.671L267.494 566.307C256.648 556.097 247.198 547.103 239.141 539.325C242.703 521.986 242.688 506.406 244.07 474.765C245.461 442.939 243.1 420.792 236.989 408.323Z" fill="#444444"/>
<path d="M1368.15 827.689H1287.75C1285.87 827.689 1284.23 826.48 1284.23 825.029V824.061C1284.23 822.61 1285.79 821.4 1287.75 821.4H1368.15C1370.04 821.4 1371.68 822.61 1371.68 824.061V825.029C1371.68 826.48 1370.12 827.689 1368.15 827.689ZM1169.31 821.4C1171.26 821.4 1172.84 822.808 1172.84 824.545C1172.84 826.281 1171.26 827.689 1169.31 827.689H1041.46C1039.51 827.689 1037.93 826.281 1037.93 824.545C1037.93 822.808 1039.51 821.4 1041.46 821.4H1169.31Z" fill="#DE3190"/>
<path d="M1169.1 821.519C1168.97 821.507 1168.84 821.501 1168.72 821.501H1041.41C1041.32 821.118 1041.28 820.636 1041.29 820.011C1041.38 819.524 1041.39 818.965 1041.56 818.408C1042.57 815.069 1043.79 812.852 1047.35 810.881C1050.92 808.91 1054.57 807.149 1058.36 805.601C1072.36 799.739 1077.15 799.813 1086.35 794.435C1090.16 792.188 1093.67 789.587 1096.94 786.773C1099.12 784.897 1103.57 781.848 1110.3 777.628L1169.1 778.835V821.519ZM1367.85 821.51C1367.75 821.504 1367.65 821.501 1367.56 821.501H1287.43L1294.53 781.941L1347.24 776.568L1367.85 821.51Z" fill="#474961"/>
<path d="M1193.04 392.201C1195.72 389.505 1198.72 387.013 1202.02 384.773C1211.61 381.564 1229.9 378.171 1242.96 381.875C1258.22 386.207 1267.64 398.053 1267.64 398.053C1267.64 398.053 1269.88 395.977 1293.23 454.07C1308.8 492.798 1323.9 545.279 1338.54 611.512C1339.94 618.927 1348.03 660.757 1362.81 737.002C1362.83 737.065 1362.84 737.127 1362.85 737.19C1363.47 741.009 1360.5 744.553 1356.21 745.106L1274.45 755.651C1270.51 756.158 1266.78 753.962 1265.75 750.541C1255.55 716.572 1250.04 698.004 1249.21 694.837C1247.42 688.511 1245.66 681.349 1243.85 673.144L1229.54 611.534C1229.4 610.937 1229.13 608.999 1228.73 605.72C1222.05 583.917 1216.35 565.274 1211.61 549.791C1207.8 562.821 1203.67 576.793 1199.24 591.706C1197.08 675.327 1195.47 722.88 1194.41 734.365C1194.24 736.141 1193.72 742.68 1192.84 753.983C1192.54 757.777 1188.9 760.664 1184.63 760.478L1100.35 756.801C1096.33 756.626 1093.12 753.779 1092.9 750.207C1089.17 689.953 1091.64 633.274 1100.3 580.17C1113.74 497.748 1134.05 464.067 1146.17 432.363C1146.31 431.985 1155.92 418.425 1175.01 391.684C1181.64 391.719 1187.65 391.891 1193.04 392.201Z" fill="#FFCB3D"/>
<path opacity="0.176986" d="M1181.34 410.136C1176.89 420.893 1176.13 432.838 1179.66 444.391C1184.6 460.574 1189.55 476.757 1194.49 492.941C1194.49 492.941 1200.23 511.689 1211.71 549.185C1207.87 562.389 1203.72 576.562 1199.24 591.706C1197.03 675.064 1195.39 722.486 1194.32 733.971C1193.6 741.786 1193.06 748.426 1192.7 753.891C1192.44 757.721 1188.77 760.653 1184.47 760.459L1100.11 756.662C1096.1 756.481 1092.88 753.628 1092.67 750.053C1089.1 689.898 1091.64 633.27 1100.3 580.169C1113.74 497.747 1133.81 463.918 1145.93 432.214C1146.04 431.909 1163.35 420.226 1181.34 410.136Z" fill="#8C2A00"/>
<rect x="297" width="795.453" height="1027" fill="white"/>
<path d="M1172.49 277.698C1174.18 277.143 1175.86 276.672 1177.5 276.273L1177.17 271.033C1177.13 270.27 1177.78 269.614 1178.63 269.561L1215.41 267.279C1216.27 267.226 1217.02 267.807 1217.08 268.576L1217.31 271.536C1237.38 269.351 1249.09 268.852 1252.45 270.039C1283.63 281.049 1288.78 328.849 1288.62 343.391C1288.57 347.29 1281.58 350.791 1267.64 353.891C1269.16 367.109 1270.06 374.577 1270.57 378.455C1270.57 378.455 1270.57 379.142 1270.74 380.158C1271.18 383.144 1165.26 412.368 1165.26 412.368C1165.18 412.306 1165.11 412.311 1165.11 412.311C1165.11 412.311 1163.6 412.085 1161.74 411.268C1160.82 410.928 1159.88 410.452 1158.93 409.771C1151.84 404.831 1150.7 392.497 1150.55 389.489C1150.46 388.536 1150.38 387.787 1150.38 387.787C1150.09 383.299 1149.38 374.213 1147.98 357.262C1142.95 359.192 1137.48 361.155 1131.55 363.15L1131.77 293.416C1131.78 288.43 1135.1 283.923 1140.23 281.926C1151.64 277.482 1162.39 276.073 1172.49 277.698Z" fill="#DE3190"/>
<path d="M1168.28 778.684H1154.11L1109.5 777.452L1111.79 756.978L1168.65 759.441L1168.28 778.684ZM1286.29 753.685L1341.75 746.545L1346.31 776.393L1293.63 781.765L1286.29 753.685ZM1215.42 241.817V267.646L1185.06 269.493L1185.48 263.861C1181.15 264.847 1181.4 264.731 1180.98 264.813C1175.94 265.459 1171.74 264.93 1170.98 264.72C1168.2 264.252 1165.48 261.909 1163.25 258.147C1160.22 253.126 1157.89 245.522 1157.22 236.608C1157.05 235.338 1157.12 234.09 1157.19 232.842L1158.35 220.474C1158.6 217.709 1159.63 215.017 1161.48 212.68C1162.24 211.635 1162.97 210.797 1163.84 210.111C1173.21 201.504 1187.86 204.26 1190.47 204.851C1190.78 204.948 1191.09 204.977 1191.39 205.075C1194.19 206.033 1196.9 206.493 1199.62 206.816C1200.87 206.932 1201.77 207.991 1201.63 209.094L1199.46 226.734C1200.21 226.385 1212.03 222.187 1215.33 224.305C1218.05 226.078 1219.2 237.152 1215.42 241.817ZM1152.17 397.813L1152.98 397.183C1153.34 397.183 1153.55 397.2 1153.61 397.233L1218.61 371.086L1219.95 360.547C1248.72 357.771 1268.63 354.496 1279.66 350.72C1279.85 377.822 1277.61 393.413 1272.93 397.492C1262.32 406.741 1207.1 429.596 1151.82 435.765C1139.46 440.647 1119.03 444.202 1090.51 446.43C1082.37 441.792 1078 433.69 1077.39 422.125L1097.2 416.054C1096.4 415.809 1095.99 415.626 1095.99 415.626C1091.7 406.9 1145.99 399.179 1152.92 397.514L1152.17 397.813Z" fill="#DB9E75"/>
<path d="M1092.58 309.397L1132.91 296.001L1132.87 362.729C1133.91 362.379 1134.94 362.03 1135.95 361.681C1123.43 366.818 1107.33 371.377 1092.58 373.54V309.397Z" fill="#DB9E75"/>
<path opacity="0.176986" d="M1193.69 277.554C1186.65 279.935 1179.47 283.803 1174.67 290.088C1173.3 291.91 1171.57 294.653 1170.39 298.519C1170.22 299.081 1170.05 299.574 1169.88 300.136C1169.48 301.334 1168.62 303.872 1167.93 306.602C1167.19 309.679 1166.87 315.469 1167 323.489L1167.02 323.693L1167.2 327.042C1168.23 339.168 1169.06 349.11 1169.73 357.231C1164.74 359.151 1159.3 361.103 1153.41 363.086L1153.57 293.378C1153.59 288.404 1156.88 283.903 1161.99 281.896C1173.18 277.496 1183.75 276.049 1193.69 277.554V277.554Z" fill="#444444"/>
<path d="M1184.34 263.813L1196.36 261.139L1183.9 269.52L1184.34 263.813Z" fill="#482D1F"/>
<path d="M1207.62 244.485L1207.69 244.478C1208.75 244.158 1211.86 243.189 1213.94 240.305C1216.02 237.42 1216.73 233.36 1214.54 229.938C1212.41 226.592 1207.94 224.426 1204.06 225.184C1201.89 225.61 1200.31 226.932 1200.14 227.056C1197.75 229.212 1196.99 231.659 1196.99 231.659L1196.6 233.34C1196.17 232.769 1195.77 232.205 1195.42 231.652C1190.49 225.947 1185.58 220.172 1180.67 214.398C1177.46 214.868 1172.38 215.164 1166.74 213.519C1164.76 212.915 1163.09 211.779 1161.6 211.011C1162.05 210.563 1162.49 210.184 1162.86 209.729C1169.74 202.886 1182.4 203.088 1188.11 204.18C1188.8 204.314 1191.26 204.824 1194.82 205.366C1196.76 205.686 1198.32 205.831 1199.24 205.988C1210.81 207.486 1215.56 206.67 1221.08 209.983C1222.11 210.569 1224.46 212.047 1226.36 214.672C1231.7 222.096 1229.17 230.813 1228.47 233.406C1226.13 241.162 1220.66 245.074 1218.86 246.935C1215.26 250.726 1210.58 246.935 1210.58 246.935C1210.58 246.935 1209.38 245.992 1207.62 244.485Z" fill="#482D1F"/>
<path d="M1106.75 424.654C1107.38 424.515 1108.02 424.858 1108.18 425.42C1108.33 425.982 1107.95 426.55 1107.32 426.689C1103.36 427.561 1100.26 428.152 1093.34 429.399C1086.45 430.641 1083.38 431.227 1079.46 432.089C1078.83 432.228 1078.19 431.885 1078.04 431.323C1077.88 430.761 1078.27 430.193 1078.9 430.054C1082.86 429.182 1085.96 428.592 1092.87 427.344C1099.76 426.103 1102.84 425.517 1106.75 424.654ZM1115.8 435.077C1116.44 434.973 1117.05 435.35 1117.16 435.92C1117.28 436.489 1116.86 437.035 1116.22 437.139C1111.84 437.851 1108.47 438.47 1100.96 439.903C1093.43 441.341 1090.04 441.963 1085.63 442.68C1084.99 442.784 1084.38 442.407 1084.26 441.837C1084.15 441.268 1084.57 440.722 1085.21 440.618C1089.58 439.906 1092.96 439.286 1100.47 437.854C1108 436.416 1111.39 435.794 1115.8 435.077Z" fill="#482D1F"/>
<path d="M1160.73 233.198C1160.73 234.399 1160.8 236.458 1160.07 237.333C1158.93 238.638 1156.6 235.165 1157.3 232.803C1157.73 231.88 1158.27 231.542 1158.9 231.57C1159.86 231.578 1160.66 232.339 1160.73 233.198ZM1177.59 233.988C1177.66 235.201 1177.73 237.26 1176.92 238.123C1175.79 239.429 1173.45 235.955 1174.16 233.594C1174.58 232.671 1175.13 232.332 1175.76 232.36C1176.71 232.368 1177.52 233.13 1177.59 233.988Z" fill="#482D1F"/>
<path d="M1167.65 234.598L1166.21 241.437C1166.21 241.46 1166.3 241.581 1166.34 241.587C1166.76 241.653 1167.2 241.696 1167.88 241.743C1168.02 241.752 1168.16 241.762 1168.36 241.775C1168.61 241.791 1168.75 241.8 1168.88 241.809C1169.33 241.839 1169.71 241.865 1170.11 241.897C1170.54 241.93 1170.86 242.269 1170.82 242.654C1170.78 243.038 1170.4 243.323 1169.97 243.289C1169.58 243.258 1169.21 243.232 1168.76 243.203C1168.63 243.194 1168.5 243.185 1168.24 243.169C1168.04 243.155 1167.9 243.146 1167.76 243.137C1167.03 243.086 1166.55 243.039 1166.07 242.963C1165.18 242.824 1164.51 241.978 1164.67 241.186L1166.11 234.34C1166.19 233.961 1166.6 233.711 1167.02 233.782C1167.45 233.853 1167.73 234.218 1167.65 234.598Z" fill="#482D1F"/>
<path d="M1191.68 234.129C1191.75 234.925 1191.7 235.741 1191.54 236.563C1190.47 241.939 1184.7 245.526 1178.64 244.579C1173.55 243.783 1169.88 240.032 1169.48 235.661L1166.91 235.498C1165.83 240.856 1160.07 244.427 1154.03 243.482C1147.97 242.535 1143.93 237.409 1144.99 232.032C1146.06 226.657 1151.84 223.069 1157.89 224.016C1163.16 224.841 1166.91 228.837 1167.08 233.407L1169.54 233.563C1169.56 233.419 1169.58 233.274 1169.61 233.129C1170.68 227.754 1176.45 224.166 1182.51 225.113C1186.81 225.787 1190.1 228.576 1191.26 232.065L1196.52 231.395C1197.16 231.314 1197.75 231.712 1197.85 232.285C1197.94 232.858 1197.49 233.389 1196.85 233.471L1191.68 234.129ZM1164.73 234.097C1164.93 230.246 1161.88 226.769 1157.48 226.081C1152.71 225.333 1148.15 228.163 1147.31 232.398C1146.47 236.631 1149.66 240.67 1154.43 241.417C1159.21 242.165 1163.76 239.335 1164.6 235.1C1164.64 234.905 1164.67 234.709 1164.7 234.514C1164.69 234.447 1164.68 234.377 1164.69 234.306C1164.69 234.234 1164.71 234.164 1164.73 234.097ZM1189.22 236.198C1190.06 231.964 1186.88 227.925 1182.1 227.178C1177.32 226.43 1172.77 229.26 1171.93 233.495C1171.09 237.729 1174.27 241.767 1179.05 242.515C1183.83 243.262 1188.38 240.432 1189.22 236.198Z" fill="#482D1F"/>
<path d="M1170.67 247.425C1171.25 247.304 1172.68 246.961 1172.89 246.288C1172.92 246.151 1173.03 245.957 1172.89 245.865C1172.58 245.462 1171.58 245.659 1170.12 245.784C1167.54 245.946 1165.51 245.769 1165.51 245.769C1165.51 245.769 1166.06 246.986 1166.47 247.332C1167.25 248.231 1169.83 247.646 1170.67 247.425Z" fill="#482D1F"/>
<path d="M1220.46 360.243C1220.29 354.09 1220.16 348.708 1220.07 344.096C1219.98 339.484 1219.85 331.908 1219.69 321.37C1219.68 320.791 1219.14 320.328 1218.49 320.336C1217.84 320.344 1217.33 320.82 1217.33 321.399C1217.5 331.94 1217.63 339.518 1217.72 344.133C1217.81 348.75 1217.94 354.137 1218.1 360.294C1218.12 360.872 1218.66 361.33 1219.31 361.317C1219.96 361.302 1220.47 360.822 1220.46 360.243Z" fill="#482D1F"/>
<path d="M137.468 351.557L128.78 352.987C128.455 353.04 128.124 353.063 127.794 353.055C125.192 352.991 123.14 351.062 123.212 348.745C123.907 326.203 126.459 311.496 130.867 304.624C132.158 302.612 133.82 300.991 135.743 299.735C143.606 293.09 156.984 289.345 172.938 286.928L177.348 286.235C184.167 285.205 190.737 285.282 196.836 286.259C204.447 286.518 213.815 288.091 222.335 293.092C223.686 293.874 226.571 295.552 229.751 298.32C229.751 298.32 235.993 303.661 244.14 321.842C245.084 323.998 246.456 327.579 248.256 332.584C248.918 334.424 247.779 336.392 245.713 336.981C245.572 337.022 245.429 337.055 245.283 337.081L235.405 338.833L238.008 367.408C238.081 368.178 238.14 368.879 238.29 369.636C238.922 373.23 238.944 377.772 236.34 381.945C232.608 388.071 226.682 396.814 195.685 401.397C166.854 405.64 158.469 399.143 152.791 394.637C148.728 391.44 147.023 386.452 146.264 383.02C146.113 382.262 145.9 381.586 145.672 380.84L137.468 351.557Z" fill="#FF5645"/>
<path opacity="0.176986" d="M148.765 304.26C164.06 306.675 176.414 314.745 182.369 325.203C184.316 328.591 185.312 332.412 185.584 336.204L187.464 356.846L197.31 355.139C197.456 355.114 197.6 355.081 197.742 355.041C199.81 354.46 200.958 352.495 200.305 350.653C198.517 345.612 197.151 342.012 196.206 339.855C188.059 321.673 181.817 316.332 181.817 316.332C178.637 313.565 175.752 311.887 174.401 311.105C165.746 306.024 156.393 304.482 148.765 304.26Z" fill="#444444"/>
<path d="M98.6855 715.258L80.1735 744.753L33.0438 712.928L49.5224 689.244C50.2987 689.786 51.1124 690.3 51.9627 690.781L88.906 711.691C91.9868 713.435 95.299 714.615 98.6855 715.258ZM273.297 390.388L284.712 391.516C289.575 389.235 327.209 370.833 330.097 380.759C330.097 380.759 336.572 379.056 336.122 379.677L348.591 376.268C359.966 390.445 351.394 409.702 351.394 409.702C325.072 419.985 312.261 425.552 299.062 426.196C297.538 426.27 296.175 426.184 294.975 425.937C294.955 426.066 294.934 426.195 294.914 426.325C253.271 430.773 209.615 429.126 163.945 421.385C152.957 419.523 140.801 396.75 127.478 353.066C127.607 353.055 127.735 353.038 127.863 353.017L179.127 344.579C179.586 344.504 180.016 344.372 180.412 344.193L193.042 382.457L231.86 386.293C233.132 384.768 234.057 383.298 234.876 381.954C237.479 377.781 237.457 373.239 236.825 369.645C236.675 368.887 236.616 368.186 236.543 367.416L234.523 339.075L243.949 337.676C244.158 337.644 245.52 337.327 245.52 337.327L255.747 355.618C264.539 351.284 297.592 316.384 297.592 316.384C297.592 316.384 296.471 335.846 297.592 368.283L273.297 390.388ZM189.523 278.846L190.423 285.495C206.363 286.075 213.608 291.593 216.049 293.999C216.049 293.999 199.231 296.734 165.596 302.203C156.525 295.727 143.024 294.258 134.637 299.891C139.294 295.875 147.337 292.418 158.767 289.52C161.758 288.762 164.605 288.126 167.314 287.598L164.385 262.796C164.215 262.71 164.044 262.619 163.874 262.523C160.81 260.719 158.499 257.361 158.939 253.418C159.308 249.782 162.366 244.778 166.09 244.179C168.179 243.826 174.011 245.405 173.599 243.765C173.324 242.672 171.716 236.877 168.774 226.379C168.524 225.28 169.247 224.166 170.461 223.876C173.212 223.292 175.934 223.15 178.634 221.854C178.938 221.781 179.221 221.641 179.525 221.569C182.023 220.683 195.931 215.555 206.551 223.013C207.458 223.594 208.349 224.395 209.261 225.263C211.414 227.284 212.834 229.842 213.496 232.58L216.528 244.819C216.742 246.071 217.032 247.305 217.095 248.594C218.249 264.321 213.924 276.432 207.673 278.358C206.934 278.607 202.858 279.652 197.732 279.644C197.236 279.617 197.676 279.729 190.612 278.953C190.239 278.917 189.876 278.882 189.523 278.846Z" fill="#F2A98A"/>
<path opacity="0.2" d="M272.437 390.958L297.695 368.283C296.472 335.846 297.695 316.384 297.695 316.384C297.695 316.384 264.311 351.677 255.519 356.011L245.307 337.826C245.307 337.826 244.129 338.175 241.38 338.525L234.31 339.574L236.317 368.339C236.39 369.109 236.449 369.81 236.599 370.567C237.231 374.161 237.253 378.703 234.649 382.876C233.879 384.141 233.014 385.518 231.855 386.947L272.437 390.958Z" fill="#8C2A00"/>
<path d="M324.528 392.007C328.413 391.013 331.416 390.152 338.096 388.163C344.808 386.165 347.833 385.298 351.761 384.293C352.387 384.133 353.039 384.455 353.219 385.011C353.399 385.568 353.037 386.15 352.412 386.31C348.526 387.303 345.524 388.165 338.843 390.153C332.131 392.152 329.107 393.019 325.179 394.024C324.553 394.184 323.9 393.862 323.721 393.305C323.541 392.749 323.902 392.167 324.528 392.007ZM322.473 406.408C326.703 405.069 330 404.098 337.35 401.993C344.678 399.894 347.959 398.929 352.159 397.598C352.772 397.404 353.446 397.689 353.664 398.235C353.882 398.781 353.562 399.381 352.949 399.575C348.719 400.915 345.422 401.885 338.072 403.991C330.744 406.09 327.463 407.055 323.263 408.385C322.65 408.579 321.976 408.294 321.758 407.748C321.54 407.202 321.86 406.602 322.473 406.408Z" fill="#482D1F"/>
<path d="M142.586 244.182C142.523 241.48 143.012 238.531 144.571 235.627C146.06 232.737 148.218 230.991 149.138 230.265C154.208 226.304 159.091 226.587 170.562 223.633C172.97 222.986 176.516 222.067 180.643 220.648C180.966 220.643 181.25 220.503 181.553 220.431C184.051 219.545 197.753 215.624 207.817 222.854C207.857 222.989 209.376 223.713 209.361 223.934C209.361 223.934 198.894 244.026 177.019 248.123C176.433 247.561 174.882 246.231 172.555 245.388C172.287 245.307 170.388 244.673 168.299 245.027C164.576 245.626 161.555 249.098 161.185 252.735C160.705 256.542 162.996 259.833 165.984 261.655C168.972 263.476 172.189 263.36 173.237 263.328L174.466 263.012C175.527 264.822 176.266 266.771 175.409 268.259C173.753 271.132 170.671 272.791 166.162 273.235C161.992 277.935 155.173 281.215 147.261 281.707C133.629 282.556 121.916 274.81 121.099 264.405C120.317 254.442 129.809 245.654 142.586 244.182ZM218.763 240.826C217.382 241.373 215.015 242.155 212.687 241.986C209.064 241.837 211.991 239.401 215.142 238.794C216.68 238.499 218.021 238.903 218.867 239.281C219.54 239.627 219.481 240.51 218.763 240.826ZM204.043 244.338C202.587 244.903 200.22 245.685 197.816 245.534C194.213 245.453 197.119 242.949 200.271 242.342C201.885 242.029 203.226 242.433 204.071 242.811C204.821 243.139 204.761 244.022 204.043 244.338Z" fill="#482D1F"/>
<path d="M214.638 247.386C214.546 246.539 215.122 245.75 216.032 245.533C216.639 245.388 217.251 245.531 217.764 246.423C218.945 248.458 217.528 252.127 216.176 251.146C215.173 250.517 214.832 248.571 214.638 247.386ZM201.011 250.203C200.918 249.356 201.494 248.567 202.405 248.35C203.012 248.205 203.624 248.348 204.136 249.24C205.318 251.275 203.901 254.944 202.549 253.963C201.546 253.334 201.129 251.406 201.011 250.203Z" fill="#482D1F"/>
<path d="M208.912 262.945C208.34 262.937 206.929 262.839 206.477 262.151C206.437 262.015 206.3 261.831 206.335 261.678C206.517 261.2 207.564 261.167 208.97 260.977C211.459 260.6 213.371 259.927 213.371 259.927C213.371 259.927 213.17 261.423 212.893 261.851C212.459 263.113 209.808 262.949 208.912 262.945Z" fill="#482D1F"/>
<path d="M210.849 248.841L213.914 255.806L213.941 255.88C214.163 256.617 213.803 257.437 213.013 257.757C212.866 257.806 212.783 257.832 212.699 257.857C211.911 258.095 211.337 258.239 209.27 258.732C208.851 258.832 208.42 258.611 208.308 258.238C208.196 257.865 208.444 257.481 208.863 257.381C210.894 256.897 211.452 256.756 212.195 256.532C212.273 256.508 212.35 256.485 212.427 256.46C212.41 256.465 212.45 256.371 212.43 256.269L209.365 249.304L209.332 249.207L208.284 245.185C208.186 244.808 208.449 244.433 208.872 244.345C209.294 244.258 209.716 244.492 209.814 244.869L210.849 248.841Z" fill="#482D1F"/>
<path d="M182.664 343.618C180.754 337.072 178.715 330.266 176.546 323.202C176.375 322.644 175.727 322.314 175.099 322.467C174.471 322.62 174.101 323.197 174.273 323.756C176.439 330.811 178.476 337.608 180.383 344.146C180.546 344.706 181.19 345.043 181.819 344.897C182.449 344.752 182.827 344.179 182.664 343.618Z" fill="#482D1F"/>
</svg>
