<svg width="18" height="18" viewBox="0 0 18 18" fill="none" xmlns="http://www.w3.org/2000/svg">
<path d="M9.25 12.5V13H8.75V12.5H9.25ZM2 9C2 5.13614 5.13614 2 9 2C12.8639 2 16 5.13614 16 9C16 12.8639 12.8639 16 9 16C5.13614 16 2 12.8639 2 9ZM2.5 9C2.5 12.5836 5.41636 15.5 9 15.5C12.5836 15.5 15.5 12.5836 15.5 9C15.5 5.41636 12.5836 2.5 9 2.5C5.41636 2.5 2.5 5.41636 2.5 9ZM8.79185 10.75C8.84023 10.483 8.92654 10.2754 9.02935 10.1055C9.19352 9.83418 9.41852 9.6267 9.68535 9.41546C9.73832 9.37353 9.79609 9.32933 9.85662 9.28301C10.073 9.11744 10.3247 8.92488 10.518 8.71278C10.7946 8.40931 11 8.02432 11 7.5C11 6.39886 10.1011 5.5 9 5.5C8.07138 5.5 7.28663 6.13926 7.06352 7H6.54995C6.78139 5.85848 7.78989 5 9 5C10.3814 5 11.5 6.11864 11.5 7.5C11.5 8.19046 11.1143 8.57156 10.5457 9.06902C10.5208 9.09085 10.4953 9.11301 10.4694 9.13555C10.0361 9.51248 9.48199 9.99445 9.30615 10.75H8.79185Z" stroke="#00B87C"/>
</svg>
