<svg width="12" height="12" viewBox="0 0 12 12" fill="none" xmlns="http://www.w3.org/2000/svg">
<path d="M3 1.5C3 1.89782 2.84196 2.27936 2.56066 2.56066C2.27936 2.84196 1.89782 3 1.5 3C1.10218 3 0.720644 2.84196 0.43934 2.56066C0.158035 2.27936 0 1.89782 0 1.5C0 1.10218 0.158035 0.720644 0.43934 0.43934C0.720644 0.158035 1.10218 0 1.5 0C1.89782 0 2.27936 0.158035 2.56066 0.43934C2.84196 0.720644 3 1.10218 3 1.5Z" fill="#454545"/>
<path d="M3 6C3 6.39782 2.84196 6.77936 2.56066 7.06066C2.27936 7.34196 1.89782 7.5 1.5 7.5C1.10218 7.5 0.720644 7.34196 0.43934 7.06066C0.158035 6.77936 0 6.39782 0 6C0 5.60218 0.158035 5.22064 0.43934 4.93934C0.720644 4.65804 1.10218 4.5 1.5 4.5C1.89782 4.5 2.27936 4.65804 2.56066 4.93934C2.84196 5.22064 3 5.60218 3 6Z" fill="#454545"/>
<path d="M1.5 12C1.89782 12 2.27936 11.842 2.56066 11.5607C2.84196 11.2794 3 10.8978 3 10.5C3 10.1022 2.84196 9.72064 2.56066 9.43934C2.27936 9.15804 1.89782 9 1.5 9C1.10218 9 0.720644 9.15804 0.43934 9.43934C0.158035 9.72064 0 10.1022 0 10.5C0 10.8978 0.158035 11.2794 0.43934 11.5607C0.720644 11.842 1.10218 12 1.5 12Z" fill="#454545"/>
<path d="M7.5 1.5C7.5 1.89782 7.34196 2.27936 7.06066 2.56066C6.77936 2.84196 6.39782 3 6 3C5.60218 3 5.22064 2.84196 4.93934 2.56066C4.65804 2.27936 4.5 1.89782 4.5 1.5C4.5 1.10218 4.65804 0.720644 4.93934 0.43934C5.22064 0.158035 5.60218 0 6 0C6.39782 0 6.77936 0.158035 7.06066 0.43934C7.34196 0.720644 7.5 1.10218 7.5 1.5Z" fill="#454545"/>
<path d="M6 7.5C6.39782 7.5 6.77936 7.34196 7.06066 7.06066C7.34196 6.77936 7.5 6.39782 7.5 6C7.5 5.60218 7.34196 5.22064 7.06066 4.93934C6.77936 4.65804 6.39782 4.5 6 4.5C5.60218 4.5 5.22064 4.65804 4.93934 4.93934C4.65804 5.22064 4.5 5.60218 4.5 6C4.5 6.39782 4.65804 6.77936 4.93934 7.06066C5.22064 7.34196 5.60218 7.5 6 7.5Z" fill="#454545"/>
<path d="M7.5 10.5C7.5 10.8978 7.34196 11.2794 7.06066 11.5607C6.77936 11.842 6.39782 12 6 12C5.60218 12 5.22064 11.842 4.93934 11.5607C4.65804 11.2794 4.5 10.8978 4.5 10.5C4.5 10.1022 4.65804 9.72064 4.93934 9.43934C5.22064 9.15804 5.60218 9 6 9C6.39782 9 6.77936 9.15804 7.06066 9.43934C7.34196 9.72064 7.5 10.1022 7.5 10.5Z" fill="#454545"/>
<path d="M10.5 3C10.8978 3 11.2794 2.84196 11.5607 2.56066C11.842 2.27936 12 1.89782 12 1.5C12 1.10218 11.842 0.720644 11.5607 0.43934C11.2794 0.158035 10.8978 0 10.5 0C10.1022 0 9.72064 0.158035 9.43934 0.43934C9.15804 0.720644 9 1.10218 9 1.5C9 1.89782 9.15804 2.27936 9.43934 2.56066C9.72064 2.84196 10.1022 3 10.5 3Z" fill="#454545"/>
<path d="M12 6C12 6.39782 11.842 6.77936 11.5607 7.06066C11.2794 7.34196 10.8978 7.5 10.5 7.5C10.1022 7.5 9.72064 7.34196 9.43934 7.06066C9.15804 6.77936 9 6.39782 9 6C9 5.60218 9.15804 5.22064 9.43934 4.93934C9.72064 4.65804 10.1022 4.5 10.5 4.5C10.8978 4.5 11.2794 4.65804 11.5607 4.93934C11.842 5.22064 12 5.60218 12 6Z" fill="#454545"/>
<path d="M10.5 12C10.8978 12 11.2794 11.842 11.5607 11.5607C11.842 11.2794 12 10.8978 12 10.5C12 10.1022 11.842 9.72064 11.5607 9.43934C11.2794 9.15804 10.8978 9 10.5 9C10.1022 9 9.72064 9.15804 9.43934 9.43934C9.15804 9.72064 9 10.1022 9 10.5C9 10.8978 9.15804 11.2794 9.43934 11.5607C9.72064 11.842 10.1022 12 10.5 12Z" fill="#454545"/>
</svg>
