<svg width="12" height="12" viewBox="0 0 12 12" fill="none" xmlns="http://www.w3.org/2000/svg">
<path d="M3.75 4.87425C3.75 4.72504 3.80927 4.58195 3.91478 4.47644C4.02028 4.37094 4.16338 4.31166 4.31258 4.31166H7.68807C7.83728 4.31166 7.98037 4.37094 8.08588 4.47644C8.19138 4.58195 8.25066 4.72504 8.25066 4.87425C8.25066 5.02345 8.19138 5.16655 8.08588 5.27205C7.98037 5.37756 7.83728 5.43683 7.68807 5.43683H4.31258C4.16338 5.43683 4.02028 5.37756 3.91478 5.27205C3.80927 5.16655 3.75 5.02345 3.75 4.87425Z" fill="#454545"/>
<path d="M4.31258 6.56208C4.16338 6.56208 4.02028 6.62135 3.91478 6.72686C3.80927 6.83236 3.75 6.97546 3.75 7.12466C3.75 7.27387 3.80927 7.41696 3.91478 7.52247C4.02028 7.62797 4.16338 7.68724 4.31258 7.68724H6.56291C6.71212 7.68724 6.85521 7.62797 6.96072 7.52247C7.06622 7.41696 7.12549 7.27387 7.12549 7.12466C7.12549 6.97546 7.06622 6.83236 6.96072 6.72686C6.85521 6.62135 6.71212 6.56208 6.56291 6.56208H4.31258Z" fill="#454545"/>
<path d="M0.000345256 5.99884C0.000600405 4.67789 0.436758 3.39394 1.24116 2.34617C2.04556 1.2984 3.17323 0.545381 4.44925 0.203923C5.72528 -0.137534 7.07831 -0.048341 8.29847 0.457665C9.51863 0.963671 10.5377 1.85821 11.1976 3.0025C11.8575 4.1468 12.1214 5.47689 11.9482 6.78645C11.7751 8.096 11.1746 9.31182 10.24 10.2453C9.30542 11.1788 8.08889 11.7777 6.77915 11.9492C5.46942 12.1207 4.13969 11.8552 2.99626 11.1938L0.658326 11.9738C0.571951 12.0027 0.47934 12.0074 0.390488 11.9874C0.301636 11.9675 0.219918 11.9237 0.154153 11.8607C0.088388 11.7977 0.0410735 11.7179 0.0173159 11.63C-0.00644179 11.5421 -0.00574026 11.4494 0.0193447 11.3618L0.731324 8.87084C0.250354 7.99008 -0.00103786 7.00237 0.000345256 5.99884ZM6.00017 0.998842C5.11738 0.998787 4.25031 1.23247 3.4871 1.67615C2.72389 2.11982 2.09175 2.75767 1.65495 3.52484C1.21814 4.29202 0.99224 5.16117 1.0002 6.04395C1.00817 6.92673 1.24972 7.79167 1.7003 8.55084C1.73496 8.60948 1.75728 8.67459 1.76588 8.74217C1.77447 8.80975 1.76917 8.87838 1.75029 8.94384L1.24131 10.7238L2.89926 10.1718C2.96967 10.1483 3.04443 10.1408 3.11812 10.1498C3.1918 10.1588 3.26255 10.1841 3.32525 10.2238C3.9805 10.6385 4.72322 10.8951 5.49471 10.9733C6.2662 11.0515 7.04531 10.9492 7.77045 10.6745C8.49559 10.3997 9.14689 9.96009 9.67287 9.39028C10.1988 8.82047 10.5851 8.13612 10.801 7.39134C11.017 6.64655 11.0568 5.86174 10.9172 5.09894C10.7776 4.33613 10.4626 3.61625 9.99689 2.99619C9.53121 2.37612 8.92769 1.87287 8.23404 1.52622C7.54039 1.17957 6.77561 0.999023 6.00017 0.998842Z" fill="#454545"/>
</svg>
