<svg width="13" height="9" viewBox="0 0 13 9" fill="none" xmlns="http://www.w3.org/2000/svg">
<path fill-rule="evenodd" clip-rule="evenodd" d="M3.55664 0.749989C3.55664 0.47992 3.77557 0.260986 4.04564 0.260986H12.2454C12.5155 0.260986 12.7344 0.47992 12.7344 0.749989C12.7344 1.02006 12.5155 1.23899 12.2454 1.23899H4.04564C3.77557 1.23899 3.55664 1.02006 3.55664 0.749989Z" fill="#616061"/>
<path fill-rule="evenodd" clip-rule="evenodd" d="M3.55664 4.49993C3.55664 4.22986 3.77557 4.01093 4.04564 4.01093H12.2454C12.5155 4.01093 12.7344 4.22986 12.7344 4.49993C12.7344 4.77 12.5155 4.98893 12.2454 4.98893H4.04564C3.77557 4.98893 3.55664 4.77 3.55664 4.49993Z" fill="#616061"/>
<path fill-rule="evenodd" clip-rule="evenodd" d="M3.55664 8.24993C3.55664 7.97986 3.77557 7.76093 4.04564 7.76093H12.2454C12.5155 7.76093 12.7344 7.97986 12.7344 8.24993C12.7344 8.52 12.5155 8.73893 12.2454 8.73893H4.04564C3.77557 8.73893 3.55664 8.52 3.55664 8.24993Z" fill="#616061"/>
<path fill-rule="evenodd" clip-rule="evenodd" d="M2.01172 0.749989C2.01172 0.47992 1.79278 0.260986 1.52272 0.260986H0.891964C0.621895 0.260986 0.402961 0.47992 0.402961 0.749989C0.402961 1.02006 0.621895 1.23899 0.891964 1.23899H1.52272C1.79278 1.23899 2.01172 1.02006 2.01172 0.749989Z" fill="#616061"/>
<path fill-rule="evenodd" clip-rule="evenodd" d="M2.01172 4.49993C2.01172 4.22986 1.79278 4.01093 1.52272 4.01093H0.891964C0.621895 4.01093 0.402961 4.22986 0.402961 4.49993C0.402961 4.77 0.621895 4.98893 0.891964 4.98893H1.52272C1.79278 4.98893 2.01172 4.77 2.01172 4.49993Z" fill="#616061"/>
</svg>
