<svg width="36" height="36" viewBox="0 0 36 36" fill="none" xmlns="http://www.w3.org/2000/svg">
<path d="M4.5 17.9648C4.5 18.2603 4.5582 18.5529 4.67127 18.8259C4.78434 19.0989 4.95008 19.3469 5.15901 19.5558C5.36794 19.7648 5.61598 19.9305 5.88896 20.0436C6.16195 20.1566 6.45453 20.2148 6.75 20.2148C7.04547 20.2148 7.33806 20.1566 7.61104 20.0436C7.88402 19.9305 8.13206 19.7648 8.34099 19.5558C8.54992 19.3469 8.71566 19.0989 8.82873 18.8259C8.9418 18.5529 9 18.2603 9 17.9648C9 17.6694 8.9418 17.3768 8.82873 17.1038C8.71566 16.8308 8.54992 16.5828 8.34099 16.3739C8.13206 16.1649 7.88402 15.9992 7.61104 15.8861C7.33806 15.773 7.04547 15.7148 6.75 15.7148C6.45453 15.7148 6.16195 15.773 5.88896 15.8861C5.61598 15.9992 5.36794 16.1649 5.15901 16.3739C4.95008 16.5828 4.78434 16.8308 4.67127 17.1038C4.5582 17.3768 4.5 17.6694 4.5 17.9648ZM15.75 17.9648C15.75 18.5616 15.9871 19.1339 16.409 19.5558C16.831 19.9778 17.4033 20.2148 18 20.2148C18.5967 20.2148 19.169 19.9778 19.591 19.5558C20.0129 19.1339 20.25 18.5616 20.25 17.9648C20.25 17.3681 20.0129 16.7958 19.591 16.3739C19.169 15.9519 18.5967 15.7148 18 15.7148C17.4033 15.7148 16.831 15.9519 16.409 16.3739C15.9871 16.7958 15.75 17.3681 15.75 17.9648ZM27 17.9648C27 18.5616 27.2371 19.1339 27.659 19.5558C28.081 19.9778 28.6533 20.2148 29.25 20.2148C29.8467 20.2148 30.419 19.9778 30.841 19.5558C31.2629 19.1339 31.5 18.5616 31.5 17.9648C31.5 17.3681 31.2629 16.7958 30.841 16.3739C30.419 15.9519 29.8467 15.7148 29.25 15.7148C28.6533 15.7148 28.081 15.9519 27.659 16.3739C27.2371 16.7958 27 17.3681 27 17.9648Z" fill="black" fill-opacity="0.85"/>
</svg>
