<svg width="36" height="36" viewBox="0 0 36 36" fill="none" xmlns="http://www.w3.org/2000/svg">
<path d="M35.875 31.391L33.4442 22.829V4.18611C33.4442 3.47494 32.8696 2.90039 32.1585 2.90039H3.87276C3.1616 2.90039 2.58704 3.47494 2.58704 4.18611V22.829L0.156239 31.391C-0.1451 32.2307 0.47365 33.1147 1.36561 33.1147H34.6656C35.5576 33.1147 36.1763 32.2307 35.875 31.391ZM5.4799 5.79325H30.5513V21.6638H5.4799V5.79325ZM14.6527 30.2218L14.9781 28.7352H21.017L21.3424 30.2218H14.6527ZM23.6527 30.2218L22.8853 26.7383C22.8531 26.5897 22.7205 26.4852 22.5719 26.4852H13.4272C13.2745 26.4852 13.146 26.5897 13.1138 26.7383L12.3464 30.2218H3.49508L5.19463 24.2352H30.8366L32.5361 30.2218H23.6527Z" fill="black" fill-opacity="0.85"/>
</svg>
