<svg width="10" height="7" viewBox="0 0 10 7" fill="none" xmlns="http://www.w3.org/2000/svg">
<path d="M1.8426 -3.7386e-05L8.1576 -3.68339e-05C8.40691 -0.000397778 8.65123 0.0698523 8.86227 0.202582C9.07331 0.335312 9.24244 0.525095 9.3501 0.749963C9.47613 1.01677 9.52467 1.31361 9.49019 1.60666C9.45571 1.89972 9.33961 2.17719 9.1551 2.40746L5.9976 6.23246C5.87369 6.37543 5.72049 6.4901 5.54839 6.56868C5.37628 6.64727 5.1893 6.68794 5.0001 6.68794C4.8109 6.68794 4.62392 6.64727 4.45181 6.56868C4.27971 6.4901 4.12651 6.37543 4.0026 6.23246L0.8451 2.40746C0.660595 2.17719 0.544488 1.89971 0.510012 1.60666C0.475536 1.31361 0.524076 1.01677 0.650101 0.749962C0.757757 0.525094 0.926895 0.335312 1.13794 0.202582C1.34898 0.0698516 1.59329 -0.000398374 1.8426 -3.7386e-05Z" fill="#454545"/>
</svg>
