<svg width="126" height="125" viewBox="0 0 126 125" fill="none" xmlns="http://www.w3.org/2000/svg">
<circle cx="63" cy="62.5" r="62.5" fill="#F8FFCD"/>
<g clip-path="url(#clip0)">
<path d="M88.791 50.1328C89.2539 50.4004 89.7578 50.5273 90.2559 50.5273C91.2676 50.5273 92.252 50.0019 92.7949 49.0625C93.0606 48.6035 93.1875 48.1015 93.1895 47.6054C93.1914 46.5918 92.666 45.6035 91.7246 45.0605C90.3242 44.25 88.5332 44.7285 87.7227 46.1289C87.457 46.5898 87.3301 47.0918 87.3281 47.5859C87.3262 48.6015 87.8516 49.5879 88.791 50.1328Z" fill="#242424"/>
<path d="M62.5098 71.4339C61.5762 71.9788 61.0566 72.9612 61.0586 73.969C61.0586 74.469 61.1875 74.9769 61.459 75.4417C62.0039 76.3733 62.9844 76.8929 63.9902 76.8929C64.4922 76.8929 65.002 76.764 65.4649 76.4925C66.3984 75.9476 66.918 74.9671 66.918 73.9573C66.918 73.4573 66.7891 72.9495 66.5176 72.4866C65.7012 71.0882 63.9082 70.6175 62.5098 71.4339Z" fill="#242424"/>
<path d="M70.9258 50.5746C71.4297 50.5746 71.9395 50.4457 72.4043 50.1722C73.3359 49.6254 73.8555 48.6429 73.8535 47.6351C73.8516 47.1351 73.7227 46.6273 73.4512 46.1625C72.6328 44.7679 70.8379 44.2992 69.4414 45.1175C68.5098 45.6625 67.9902 46.6449 67.9922 47.6527C67.9941 48.1547 68.1231 48.6625 68.3945 49.1254C68.9395 50.057 69.9199 50.5746 70.9258 50.5746Z" fill="#242424"/>
<path d="M61.3633 67.2735C62.9746 67.2657 64.2773 65.959 64.2812 64.3496V64.3321C64.2734 62.7129 62.957 61.4063 61.3398 61.4141C59.7266 61.4219 58.4258 62.7286 58.4219 64.3379V64.3555C58.4277 65.9707 59.7383 67.2735 61.3516 67.2735H61.3633Z" fill="#242424"/>
<path d="M80.6387 47.9375C82.2559 47.9375 83.5684 46.625 83.5684 45.0078C83.5684 43.3906 82.2559 42.0781 80.6387 42.0781C79.0195 42.0781 77.709 43.3906 77.709 45.0078C77.709 46.627 79.0195 47.9375 80.6387 47.9375Z" fill="#242424"/>
<path d="M62.4355 57.2672C62.8945 57.5309 63.3945 57.6559 63.8887 57.6559C64.9043 57.6559 65.8926 57.1266 66.4336 56.1813C66.6973 55.7203 66.8223 55.2184 66.8223 54.7223C66.8203 53.7086 66.291 52.7242 65.3477 52.1832C63.9434 51.3785 62.1523 51.8649 61.3496 53.2692C61.084 53.7301 60.9609 54.2321 60.9609 54.7281C60.9629 55.7418 61.4922 56.7281 62.4355 57.2672Z" fill="#242424"/>
<path d="M72.5293 78.4546C71.125 77.648 69.334 78.1323 68.5293 79.5366C68.2637 79.9956 68.1387 80.4976 68.1387 80.9937C68.1387 82.0073 68.668 82.9937 69.6094 83.5366V83.5347C70.0703 83.8003 70.5723 83.9253 71.0664 83.9253C72.082 83.9253 73.0684 83.398 73.6094 82.4546C73.875 81.9937 74 81.4917 74 80.9976C74 79.9819 73.4707 78.9956 72.5293 78.4546Z" fill="#242424"/>
<path d="M98.8027 71.3268C97.4004 70.5201 95.6094 71.0006 94.8008 72.4029C94.5352 72.8619 94.4102 73.3639 94.4082 73.86C94.4082 74.8736 94.9336 75.86 95.8769 76.4029C96.3379 76.6686 96.8398 76.7955 97.3359 76.7955C98.3496 76.7955 99.334 76.2701 99.8769 75.3287C100.143 74.8678 100.268 74.3658 100.27 73.8717C100.27 72.8561 99.7441 71.8697 98.8027 71.3268Z" fill="#242424"/>
<path d="M97.293 57.5585C97.793 57.5585 98.2969 57.4315 98.7598 57.162C99.6953 56.619 100.219 55.6405 100.221 54.6307C100.221 54.1307 100.094 53.6229 99.8242 53.1581C99.0117 51.7577 97.2187 51.2811 95.8203 52.0936C94.8848 52.6366 94.3613 53.6171 94.3594 54.6249C94.3594 55.1249 94.4863 55.6327 94.7559 56.0975C95.2988 57.035 96.2832 57.5585 97.293 57.5585Z" fill="#242424"/>
<path d="M99.8731 61.3164C98.2539 61.3184 96.9453 62.6309 96.9473 64.25C96.9492 65.8652 98.2617 67.1758 99.877 67.1758H99.8809C101.5 67.1719 102.809 65.8594 102.807 64.2402C102.805 62.6231 101.49 61.3125 99.8731 61.3164Z" fill="#242424"/>
<path d="M80.6778 80.6035C79.0606 80.6074 77.752 81.9238 77.7578 83.541C77.7617 85.1563 79.0723 86.4629 80.6856 86.4629H80.6953C82.3125 86.459 83.6211 85.1426 83.6172 83.5254C83.6114 81.9063 82.2969 80.5996 80.6778 80.6035Z" fill="#242424"/>
<path d="M88.834 78.4139C87.9004 78.9569 87.3789 79.9374 87.377 80.9471C87.377 81.4471 87.5059 81.9549 87.7754 82.4198C88.3203 83.3534 89.3027 83.8749 90.3105 83.8749C90.8105 83.8749 91.3184 83.7479 91.7812 83.4784C92.7148 82.9335 93.2383 81.953 93.2383 80.9452C93.2383 80.4432 93.1094 79.9354 92.8398 79.4725C92.0254 78.0741 90.2324 77.5995 88.834 78.4139Z" fill="#242424"/>
<path d="M80.6428 91.2833C65.7516 91.2833 53.6367 79.1685 53.6367 64.2774C53.6367 49.3864 65.7516 37.2716 80.6428 37.2716C95.5338 37.2716 107.649 49.3864 107.649 64.2774C107.649 79.1685 95.5338 91.2833 80.6428 91.2833ZM103.129 40.3329L104.7 38.7626L107.229 41.2923C107.801 41.8646 108.551 42.1505 109.301 42.1505C110.051 42.1505 110.801 41.8646 111.372 41.2923C112.517 40.1481 112.517 38.2933 111.372 37.1491L106.776 32.5524C106.774 32.5509 106.773 32.5491 106.771 32.5476C106.77 32.546 106.768 32.5446 106.766 32.5431L101.974 27.7507C100.83 26.6065 98.975 26.6065 97.8309 27.7507C96.6869 28.8948 96.6869 30.7497 97.8309 31.8938L100.556 34.6194L98.4855 36.6903C93.3438 33.3532 87.216 31.4122 80.6428 31.4122C74.0695 31.4122 67.9416 33.3532 62.7998 36.6905L60.7289 34.6194L63.4543 31.8938C64.5984 30.7497 64.5984 28.8948 63.4543 27.7507C62.3104 26.6065 60.4553 26.6065 59.3111 27.7507L54.5193 32.5427C54.5176 32.5444 54.5156 32.5458 54.5139 32.5476C54.5121 32.5493 54.5107 32.5513 54.509 32.553L49.9129 37.1491C48.7687 38.2933 48.7687 40.1483 49.9129 41.2923C50.4848 41.8646 51.2346 42.1505 51.9844 42.1505C52.7342 42.1505 53.484 41.8646 54.0559 41.2923L56.5855 38.7628L58.1559 40.3331C51.7717 46.3321 47.7773 54.8466 47.7773 64.2774C47.7773 82.3993 62.5207 97.1427 80.6428 97.1427C98.7648 97.1427 113.508 82.3993 113.508 64.2774C113.508 54.8464 109.514 46.3321 103.129 40.3329Z" fill="#242424"/>
<path d="M81.4685 69.6518L88.0745 63.0464C89.2189 61.9024 89.2189 60.0473 88.0747 58.9032C86.9308 57.7589 85.0757 57.7589 83.9316 58.903L79.397 63.4372L77.2901 61.3307C76.146 60.1868 74.2909 60.1868 73.147 61.3309C72.003 62.4753 72.003 64.3301 73.1474 65.4743L77.3255 69.6518C77.8976 70.2239 78.6474 70.5098 79.397 70.5098C80.1466 70.5098 80.8964 70.2239 81.4685 69.6518Z" fill="#242424"/>
<path d="M40.6543 38.709H32.4453C30.8273 38.709 29.5156 40.0207 29.5156 41.6387C29.5156 43.2566 30.8273 44.5684 32.4453 44.5684H40.6543C42.2723 44.5684 43.584 43.2566 43.584 41.6387C43.584 40.0207 42.2723 38.709 40.6543 38.709Z" fill="#242424"/>
<path d="M40.6361 50.0371H29.3691C27.7512 50.0371 26.4395 51.3488 26.4395 52.9668C26.4395 54.5848 27.7512 55.8965 29.3691 55.8965H40.6361C42.2541 55.8965 43.5658 54.5848 43.5658 52.9668C43.5658 51.3488 42.2541 50.0371 40.6361 50.0371Z" fill="#242424"/>
<path d="M40.6512 61.3652H24.4375C22.8195 61.3652 21.5078 62.677 21.5078 64.2949C21.5078 65.9129 22.8195 67.2246 24.4375 67.2246H40.6512C42.2691 67.2246 43.5809 65.9129 43.5809 64.2949C43.5809 62.677 42.2691 61.3652 40.6512 61.3652Z" fill="#242424"/>
<path d="M40.6353 72.6445H20.3848C18.7668 72.6445 17.4551 73.9562 17.4551 75.5742C17.4551 77.1922 18.7668 78.5039 20.3848 78.5039H40.6353C42.2533 78.5039 43.565 77.1922 43.565 75.5742C43.565 73.9562 42.2533 72.6445 40.6353 72.6445Z" fill="#242424"/>
<path d="M40.6449 83.9727H16.4297C14.8117 83.9727 13.5 85.2844 13.5 86.9023C13.5 88.5203 14.8117 89.832 16.4297 89.832H40.6449C42.2629 89.832 43.5746 88.5203 43.5746 86.9023C43.5746 85.2844 42.2629 83.9727 40.6449 83.9727Z" fill="#242424"/>
</g>
<defs>
<clipPath id="clip0">
<rect width="100" height="100" fill="white" transform="translate(13.5 12)"/>
</clipPath>
</defs>
</svg>
