<svg width="16" height="16" viewBox="0 0 16 16" fill="none" xmlns="http://www.w3.org/2000/svg">
<path d="M14.1198 0.799822H1.87981C1.30381 0.799822 0.799806 1.23397 0.799806 1.81286V14.1868C0.799806 14.7656 1.30381 15.1998 1.87981 15.1998H14.1198C14.6958 15.1998 15.1998 14.7656 15.1998 14.1868V1.81286C15.1998 1.30633 14.6958 0.799822 14.1198 0.799822ZM5.04781 13.1737H2.88781V6.2993H5.04781V13.1737ZM3.96781 5.28622C3.24781 5.28622 2.7438 4.70736 2.7438 4.0561C2.7438 3.40485 3.31981 2.82594 3.96781 2.82594C4.61581 2.82594 5.1918 3.40485 5.1918 4.0561C5.2638 4.77972 4.68781 5.28622 3.96781 5.28622ZM13.0398 13.1737H10.8798V9.84505C10.8798 9.04907 10.8798 8.036 9.7998 8.036C8.7198 8.036 8.50381 8.90434 8.50381 9.84505V13.246H6.34381V6.37165H8.3598V7.31238C8.6478 6.73349 9.3678 6.22696 10.3758 6.22696C12.5358 6.22696 12.9678 7.67419 12.9678 9.48324V13.1737H13.0398Z" fill="#0077B5"/>
</svg>
