<svg width="16" height="15" viewBox="0 0 16 15" fill="none" xmlns="http://www.w3.org/2000/svg">
<path fill-rule="evenodd" clip-rule="evenodd" d="M4.55688 3.74999C4.55688 3.47992 4.77582 3.26099 5.04589 3.26099H13.2457C13.5157 3.26099 13.7347 3.47992 13.7347 3.74999C13.7347 4.02006 13.5157 4.23899 13.2457 4.23899H5.04589C4.77582 4.23899 4.55688 4.02006 4.55688 3.74999Z" fill="#616061"/>
<path fill-rule="evenodd" clip-rule="evenodd" d="M4.55688 7.49993C4.55688 7.22986 4.77582 7.01093 5.04589 7.01093H13.2457C13.5157 7.01093 13.7347 7.22986 13.7347 7.49993C13.7347 7.77 13.5157 7.98893 13.2457 7.98893H5.04589C4.77582 7.98893 4.55688 7.77 4.55688 7.49993Z" fill="#616061"/>
<path fill-rule="evenodd" clip-rule="evenodd" d="M4.55688 11.2499C4.55688 10.9799 4.77582 10.7609 5.04589 10.7609H13.2457C13.5157 10.7609 13.7347 10.9799 13.7347 11.2499C13.7347 11.52 13.5157 11.7389 13.2457 11.7389H5.04589C4.77582 11.7389 4.55688 11.52 4.55688 11.2499Z" fill="#616061"/>
<path fill-rule="evenodd" clip-rule="evenodd" d="M3.01172 3.74999C3.01172 3.47992 2.79278 3.26099 2.52272 3.26099H1.89196C1.6219 3.26099 1.40296 3.47992 1.40296 3.74999C1.40296 4.02006 1.6219 4.23899 1.89196 4.23899H2.52272C2.79278 4.23899 3.01172 4.02006 3.01172 3.74999Z" fill="#616061"/>
<path fill-rule="evenodd" clip-rule="evenodd" d="M3.01172 7.49993C3.01172 7.22986 2.79278 7.01093 2.52272 7.01093H1.89196C1.6219 7.01093 1.40296 7.22986 1.40296 7.49993C1.40296 7.77 1.6219 7.98893 1.89196 7.98893H2.52272C2.79278 7.98893 3.01172 7.77 3.01172 7.49993Z" fill="#616061"/>
<path d="M2.52295 11.2499H1.8922" stroke="#616061" stroke-width="0.978006" stroke-linecap="round" stroke-linejoin="round"/>
</svg>
