<svg width="151" height="150" viewBox="0 0 151 150" fill="none" xmlns="http://www.w3.org/2000/svg">
<circle cx="75.5" cy="75" r="75" fill="#ECF8F5"/>
<path d="M43.3327 62.1789C43.3501 64.5753 44.9684 66.6842 47.0873 67.4936C48.0465 67.9816 48.9451 67.8524 56.4725 67.8738L56.4865 82.7138L49.0108 82.6944C45.8868 82.6707 43.3627 85.2326 43.3215 88.3538C43.3389 90.7502 44.9571 92.8592 47.0761 93.6686C48.0353 94.1566 48.9339 94.0274 56.4622 94.046L56.4515 101.789C56.4884 104.586 58.669 107.311 62.1276 107.466C65.2654 107.494 67.771 104.941 67.8169 101.806L67.8276 94.0629L83.2487 94.0778L83.2379 101.821C83.2748 104.618 85.4554 107.343 88.914 107.497C92.0519 107.526 94.5574 104.973 94.6033 101.838L94.614 94.0947L102.09 94.1141C105.203 94.171 107.729 91.6036 107.751 88.4823L107.75 88.4786C107.773 85.3546 105.211 82.8305 102.073 82.8022L94.5977 82.7828L94.5837 67.9428L102.059 67.9622C105.197 67.9905 107.703 65.4378 107.749 62.3027C107.772 59.1787 105.211 56.6547 102.073 56.6263L94.5932 56.6087L94.604 48.8655C94.6277 45.7415 92.0657 43.2174 88.9279 43.1891C85.79 43.1607 83.2844 45.7135 83.2386 48.8485L83.2279 56.5918L67.84 56.5696L67.8508 48.8264C67.8754 45.6996 65.3125 43.1783 62.1756 43.1472C59.0378 43.1188 56.5322 45.6716 56.4863 48.8066L56.4756 56.5499L49.022 56.5195C45.8842 56.4911 43.3786 59.0439 43.3327 62.1789ZM83.1573 67.9884L83.1611 82.8588L67.7539 82.8486L67.7492 67.981L83.1573 67.9884Z" fill="#00B87C"/>
</svg>
