<svg width="151" height="150" viewBox="0 0 151 150" fill="none" xmlns="http://www.w3.org/2000/svg">
<circle cx="75.5" cy="75" r="75" fill="#ECF8F5"/>
<path d="M83.3698 63.0497C83.831 63.3163 84.3332 63.4428 84.8294 63.4428C85.8375 63.4428 86.8184 62.9193 87.3595 61.9832C87.6241 61.5259 87.7506 61.0257 87.7526 60.5314C87.7545 59.5213 87.231 58.5365 86.293 57.9955C84.8975 57.1879 83.1129 57.6647 82.3052 59.0601C82.0406 59.5194 81.9141 60.0195 81.9121 60.5119C81.9102 61.5239 82.4337 62.5067 83.3698 63.0497Z" fill="#00B87C"/>
<path d="M57.1784 84.2751C56.2482 84.8181 55.7305 85.797 55.7324 86.8012C55.7324 87.2995 55.8609 87.8055 56.1314 88.2687C56.6744 89.197 57.6514 89.7147 58.6536 89.7147C59.1538 89.7147 59.6617 89.5862 60.123 89.3157C61.0533 88.7727 61.5709 87.7957 61.5709 86.7896C61.5709 86.2913 61.4425 85.7853 61.172 85.3241C60.3585 83.9306 58.5719 83.4616 57.1784 84.2751Z" fill="#00B87C"/>
<path d="M65.5657 63.49C66.0678 63.49 66.5758 63.3616 67.039 63.0891C67.9673 62.5442 68.485 61.5652 68.483 60.561C68.4811 60.0628 68.3527 59.5568 68.0821 59.0936C67.2667 57.704 65.4782 57.2369 64.0866 58.0524C63.1583 58.5954 62.6406 59.5743 62.6426 60.5785C62.6445 61.0787 62.773 61.5847 63.0435 62.0459C63.5865 62.9743 64.5635 63.49 65.5657 63.49Z" fill="#00B87C"/>
<path d="M56.0364 80.1296C57.642 80.1218 58.9401 78.8198 58.944 77.2161V77.1986C58.9362 75.5853 57.6245 74.2833 56.013 74.2911C54.4055 74.2988 53.1094 75.6008 53.1055 77.2045V77.222C53.1113 78.8315 54.4172 80.1296 56.0247 80.1296H56.0364Z" fill="#00B87C"/>
<path d="M75.2435 60.8624C76.8549 60.8624 78.1627 59.5546 78.1627 57.9432C78.1627 56.3318 76.8549 55.0239 75.2435 55.0239C73.6301 55.0239 72.3242 56.3318 72.3242 57.9432C72.3242 59.5566 73.6301 60.8624 75.2435 60.8624Z" fill="#00B87C"/>
<path d="M57.1061 70.1589C57.5634 70.4216 58.0616 70.5461 58.554 70.5461C59.566 70.5461 60.5508 70.0187 61.0899 69.0768C61.3526 68.6175 61.4772 68.1173 61.4772 67.623C61.4752 66.6129 60.9478 65.6321 60.0078 65.093C58.6085 64.2912 56.8239 64.7757 56.024 66.175C55.7593 66.6343 55.6367 67.1345 55.6367 67.6288C55.6387 68.6389 56.1661 69.6217 57.1061 70.1589Z" fill="#00B87C"/>
<path d="M67.1621 91.2707C65.7628 90.467 63.9782 90.9496 63.1763 92.3489C62.9117 92.8063 62.7871 93.3064 62.7871 93.8007C62.7871 94.8108 63.3145 95.7936 64.2526 96.3347V96.3327C64.7119 96.5974 65.212 96.7219 65.7044 96.7219C66.7164 96.7219 67.6992 96.1965 68.2383 95.2565C68.503 94.7972 68.6276 94.297 68.6276 93.8046C68.6276 92.7926 68.1002 91.8098 67.1621 91.2707Z" fill="#00B87C"/>
<path d="M93.3437 84.1683C91.9464 83.3645 90.1617 83.8432 89.356 85.2406C89.0913 85.6979 88.9668 86.1981 88.9648 86.6924C88.9648 87.7025 89.4884 88.6853 90.4284 89.2264C90.8877 89.491 91.3878 89.6175 91.8821 89.6175C92.8922 89.6175 93.8731 89.094 94.4141 88.156C94.6788 87.6967 94.8033 87.1965 94.8053 86.7041C94.8053 85.6921 94.2818 84.7093 93.3437 84.1683Z" fill="#00B87C"/>
<path d="M91.8392 70.449C92.3374 70.449 92.8395 70.3225 93.3007 70.0539C94.2329 69.5129 94.7545 68.5378 94.7565 67.5317C94.7565 67.0335 94.63 66.5274 94.3614 66.0643C93.5518 64.6689 91.7652 64.194 90.3717 65.0036C89.4395 65.5446 88.918 66.5216 88.916 67.5258C88.916 68.0241 89.0425 68.5301 89.3111 68.9932C89.8521 69.9274 90.833 70.449 91.8392 70.449Z" fill="#00B87C"/>
<path d="M94.4115 74.1936C92.7981 74.1956 91.4941 75.5034 91.4961 77.1168C91.498 78.7262 92.8059 80.0321 94.4154 80.0321H94.4192C96.0326 80.0282 97.3366 78.7204 97.3346 77.107C97.3327 75.4956 96.0229 74.1897 94.4115 74.1936Z" fill="#00B87C"/>
<path d="M75.2845 93.412C73.6731 93.4159 72.3692 94.7276 72.375 96.339C72.3789 97.9485 73.6848 99.2505 75.2923 99.2505H75.3021C76.9135 99.2466 78.2174 97.9349 78.2135 96.3235C78.2077 94.7101 76.8979 93.4081 75.2845 93.412Z" fill="#00B87C"/>
<path d="M83.4108 91.2301C82.4806 91.7712 81.9609 92.7482 81.959 93.7543C81.959 94.2525 82.0874 94.7585 82.356 95.2217C82.899 96.152 83.8779 96.6716 84.8821 96.6716C85.3804 96.6716 85.8864 96.5451 86.3476 96.2766C87.2779 95.7336 87.7994 94.7566 87.7994 93.7524C87.7994 93.2522 87.671 92.7462 87.4024 92.285C86.5909 90.8915 84.8043 90.4186 83.4108 91.2301Z" fill="#00B87C"/>
<path d="M75.2484 104.054C60.4102 104.054 48.3385 91.9821 48.3385 77.1441C48.3385 62.3061 60.4102 50.2344 75.2484 50.2344C90.0864 50.2344 102.158 62.3061 102.158 77.1441C102.158 91.9821 90.0864 104.054 75.2484 104.054ZM97.6551 53.2848L99.2196 51.7201L101.74 54.2408C102.31 54.811 103.057 55.0959 103.805 55.0959C104.552 55.0959 105.299 54.811 105.869 54.2408C107.009 53.1007 107.009 51.2524 105.869 50.1124L101.288 45.532C101.287 45.5305 101.286 45.5287 101.284 45.5272C101.282 45.5256 101.281 45.5243 101.279 45.5227L96.5037 40.7474C95.3639 39.6073 93.5154 39.6073 92.3753 40.7474C91.2354 41.8875 91.2354 43.7357 92.3753 44.8758L95.0912 47.5917L93.0277 49.6552C87.9042 46.33 81.7983 44.3959 75.2484 44.3959C68.6986 44.3959 62.5925 46.33 57.469 49.6554L55.4055 47.5917L58.1211 44.8758C59.2612 43.7357 59.2612 41.8875 58.1211 40.7474C56.9813 39.6073 55.1328 39.6073 53.9927 40.7474L49.218 45.5223C49.2162 45.5241 49.2143 45.5254 49.2125 45.5272C49.2108 45.5289 49.2094 45.5309 49.2077 45.5326L44.6279 50.1124C43.4879 51.2524 43.4879 53.1009 44.6279 54.2408C45.1978 54.811 45.9449 55.0959 46.6921 55.0959C47.4392 55.0959 48.1863 54.811 48.7562 54.2408L51.2768 51.7203L52.8416 53.285C46.4801 59.2627 42.5 67.7468 42.5 77.1441C42.5 95.2015 57.1909 109.892 75.2484 109.892C93.306 109.892 107.997 95.2015 107.997 77.1441C107.997 67.7466 104.017 59.2627 97.6551 53.2848Z" fill="#00B87C"/>
<path d="M76.0706 82.4993L82.6531 75.9173C83.7934 74.7775 83.7934 72.929 82.6533 71.7889C81.5134 70.6487 79.6649 70.6487 78.5249 71.7887L74.0064 76.3068L71.9071 74.2078C70.767 73.068 68.9186 73.068 67.7787 74.208C66.6388 75.3483 66.6388 77.1966 67.7791 78.3366L71.9423 82.4993C72.5124 83.0693 73.2595 83.3542 74.0064 83.3542C74.7534 83.3542 75.5005 83.0693 76.0706 82.4993Z" fill="#00B87C"/>
</svg>
