<!-- <svg xmlns="http://www.w3.org/2000/svg" width="20" height="18" viewBox="0 0 22 20">
    <path d="M24 0l-6 22-8.129-7.239 7.802-8.234-10.458 7.227-7.215-1.754 24-12zm-15 16.668v7.332l3.258-4.431-3.258-2.901z"/>
</svg> -->

<svg width="15" height="12" viewBox="0 0 15 12" fill="none" xmlns="http://www.w3.org/2000/svg">
<path d="M13.5 5.98999L2 0.98999H1.5L4 5.98999L1.5 10.99L13.5 5.98999Z" fill="#616061"/>
<path fill-rule="evenodd" clip-rule="evenodd" d="M14.6387 6.06299C14.6387 6.30668 14.5049 6.5244 14.3039 6.60797L1.45626 11.9484C1.255 12.0321 1.02929 11.9635 0.891454 11.7767C0.753621 11.5899 0.733116 11.3249 0.840145 11.1136L3.39812 6.06299L0.840145 1.01236C0.733116 0.801031 0.753621 0.536041 0.891454 0.34928C1.02929 0.162519 1.255 0.0938864 1.45626 0.177543L14.3039 5.51801C14.5049 5.60157 14.6387 5.81929 14.6387 6.06299ZM2.42276 1.81452L4.42768 5.77316C4.51852 5.95253 4.51852 6.17344 4.42768 6.35282L2.42276 10.3115L12.6434 6.06299L2.42276 1.81452Z" fill="#616061"/>
</svg>
