<svg width="60" height="60" viewBox="0 0 60 60" fill="none" xmlns="http://www.w3.org/2000/svg">
<path d="M30 0C13.4198 0 0 13.4175 0 30C0 46.5802 13.4175 60 30 60C46.5802 60 60 46.5825 60 30C60 13.4198 46.5825 0 30 0ZM19.492 53.0411L30 42.5331L40.508 53.0411C33.8759 56.0696 26.1314 56.0728 19.492 53.0411ZM44.7047 50.609L32.3438 38.248V31.6891L44.5692 27.6141C45.7974 27.2049 46.4612 25.8774 46.0515 24.6497C45.6422 23.4215 44.3147 22.7582 43.087 23.1674L30 27.5294L16.913 23.167C15.6848 22.7577 14.3578 23.4215 13.9485 24.6497C13.5393 25.8774 14.2026 27.2049 15.4308 27.6141L27.6562 31.6891V38.248L15.2953 50.609C8.82568 45.9718 4.6875 38.4856 4.6875 30C4.6875 16.0103 16.0085 4.6875 30 4.6875C43.9897 4.6875 55.3125 16.0089 55.3125 30C55.3125 38.4979 51.1642 45.9792 44.7047 50.609ZM30 9.2189C26.1658 9.2189 23.047 12.3376 23.047 16.1719C23.047 20.0061 26.1662 23.1248 30 23.1248C33.8338 23.1248 36.953 20.0061 36.953 16.1719C36.953 12.3376 33.8342 9.2189 30 9.2189ZM30 18.4373C28.7508 18.4373 27.7345 17.4211 27.7345 16.1719C27.7345 14.9226 28.7508 13.9064 30 13.9064C31.2492 13.9064 32.2655 14.9226 32.2655 16.1719C32.2655 17.4211 31.2492 18.4373 30 18.4373Z" fill="black"/>
</svg>
