<svg width="29" height="28" viewBox="0 0 29 28" fill="none" xmlns="http://www.w3.org/2000/svg">
<rect width="29" height="28" rx="4" fill="#454545"/>
<path d="M13.6115 11.0375H10.7775V19H9.029V11.0375H6.195V9.601H13.6115V11.0375ZM18.3579 17.635C18.6829 17.635 18.9559 17.596 19.1769 17.518C19.3979 17.44 19.5734 17.336 19.7034 17.206C19.8378 17.076 19.9331 16.9243 19.9894 16.751C20.0501 16.5777 20.0804 16.3935 20.0804 16.1985C20.0804 15.9948 20.0479 15.8128 19.9829 15.6525C19.9179 15.4878 19.8161 15.3492 19.6774 15.2365C19.5388 15.1195 19.3589 15.0307 19.1379 14.97C18.9213 14.9093 18.6591 14.879 18.3514 14.879H16.5899V17.635H18.3579ZM16.5899 10.953V13.67H17.9809C18.5789 13.67 19.0296 13.5617 19.3329 13.345C19.6406 13.1283 19.7944 12.7838 19.7944 12.3115C19.7944 11.8218 19.6558 11.473 19.3784 11.265C19.1011 11.057 18.6678 10.953 18.0784 10.953H16.5899ZM18.0784 9.601C18.6938 9.601 19.2203 9.6595 19.6579 9.7765C20.0956 9.8935 20.4531 10.0603 20.7304 10.277C21.0121 10.4937 21.2179 10.7558 21.3479 11.0635C21.4779 11.3712 21.5429 11.7178 21.5429 12.1035C21.5429 12.3245 21.5104 12.5368 21.4454 12.7405C21.3804 12.9398 21.2786 13.1283 21.1399 13.306C21.0056 13.4793 20.8323 13.6375 20.6199 13.7805C20.4119 13.9235 20.1628 14.0448 19.8724 14.1445C21.1638 14.4348 21.8094 15.1325 21.8094 16.2375C21.8094 16.6362 21.7336 17.0045 21.5819 17.3425C21.4303 17.6805 21.2093 17.973 20.9189 18.22C20.6286 18.4627 20.2711 18.6533 19.8464 18.792C19.4218 18.9307 18.9364 19 18.3904 19H14.8414V9.601H18.0784Z" fill="white"/>
</svg>
