<svg width="105" height="31" viewBox="0 0 105 31" fill="none" xmlns="http://www.w3.org/2000/svg">
<path d="M48.6166 8.52409C48.6166 8.70104 48.5859 8.88184 48.5243 9.06649C48.4705 9.24345 48.3897 9.40886 48.282 9.56274L40.0189 21.288H48.3858V24H35.5758V22.6498C35.5758 22.4882 35.6027 22.3305 35.6566 22.1766C35.7104 22.015 35.7874 21.8688 35.8874 21.738L44.1735 9.96666H36.1644V7.25462H48.6166V8.52409ZM63.2784 21.2303C63.8401 21.2303 64.344 21.1379 64.7902 20.9533C65.2365 20.7609 65.6135 20.4917 65.9212 20.1454C66.229 19.7992 66.4636 19.3799 66.6252 18.8875C66.7867 18.3951 66.8675 17.8412 66.8675 17.2257V7.25462H70.3297V17.2257C70.3297 18.2413 70.1643 19.176 69.8335 20.03C69.5103 20.8764 69.0449 21.6073 68.437 22.2228C67.8292 22.8382 67.0906 23.3191 66.2213 23.6653C65.3519 24.0115 64.3709 24.1846 63.2784 24.1846C62.1859 24.1846 61.2011 24.0115 60.324 23.6653C59.4546 23.3191 58.716 22.8382 58.1082 22.2228C57.5004 21.6073 57.0311 20.8764 56.7003 20.03C56.3771 19.176 56.2156 18.2413 56.2156 17.2257V7.25462H59.6777V17.2257C59.6777 17.8412 59.7585 18.3951 59.9201 18.8875C60.0817 19.3799 60.3163 19.7992 60.6241 20.1454C60.9318 20.4917 61.3088 20.7609 61.7551 20.9533C62.2013 21.1379 62.7091 21.2303 63.2784 21.2303ZM84.3382 15.183C84.8998 15.183 85.3845 15.1138 85.7923 14.9753C86.2 14.8291 86.5347 14.6329 86.7963 14.3867C87.0579 14.1328 87.2502 13.8366 87.3733 13.4981C87.4964 13.1596 87.558 12.7903 87.558 12.3902C87.558 11.5977 87.2925 10.9822 86.7617 10.5437C86.2385 10.1051 85.4384 9.88587 84.3612 9.88587H82.5609V15.183H84.3382ZM92.4512 24H89.3237C88.739 24 88.3158 23.7769 88.0542 23.3306L84.869 18.1951C84.7382 17.9951 84.592 17.8489 84.4305 17.7565C84.2766 17.6642 84.0458 17.6181 83.738 17.6181H82.5609V24H79.0987V7.25462H84.3612C85.5307 7.25462 86.5309 7.37772 87.3618 7.62392C88.1927 7.86243 88.8736 8.1971 89.4045 8.62795C89.9353 9.0588 90.3239 9.57428 90.5701 10.1744C90.8163 10.7668 90.9394 11.4208 90.9394 12.1363C90.9394 12.6902 90.8586 13.2173 90.697 13.7173C90.5431 14.2097 90.3162 14.6598 90.0161 15.0676C89.7161 15.4754 89.3468 15.837 88.9082 16.1524C88.4697 16.4678 87.9696 16.7217 87.4079 16.9141C87.6311 17.0372 87.8388 17.1872 88.0311 17.3642C88.2235 17.5334 88.3966 17.7373 88.5505 17.9758L92.4512 24ZM103.05 24H99.5652V7.25462H103.05V24Z" fill="#393939"/>
<rect x="3.91602" width="11.7504" height="11.7504" rx="1.0991" fill="#00B87C"/>
<rect y="13.429" width="11.7504" height="11.7504" rx="1.0991" fill="#FEA162"/>
<rect x="17.3457" y="5.59546" width="11.7504" height="11.7504" rx="1.0991" fill="#1A61DB"/>
<rect x="13.4297" y="19.0244" width="11.7504" height="11.7504" rx="1.0991" fill="#DC1AA3"/>
</svg>
