<svg width="36" height="36" viewBox="0 0 36 36" fill="none" xmlns="http://www.w3.org/2000/svg">
<circle cx="18" cy="18" r="18" fill="white"/>
<path d="M24.667 26H10.0003V11.3333H18.8137L20.147 10H10.0003C9.6467 10 9.30756 10.1405 9.05752 10.3905C8.80747 10.6406 8.66699 10.9797 8.66699 11.3333V26C8.66699 26.3536 8.80747 26.6928 9.05752 26.9428C9.30756 27.1929 9.6467 27.3333 10.0003 27.3333H24.667C25.0206 27.3333 25.3598 27.1929 25.6098 26.9428C25.8598 26.6928 26.0003 26.3536 26.0003 26V16L24.667 17.3333V26Z" fill="#242424"/>
<path d="M28.3536 9.89338L26.107 7.64671C26.0073 7.54673 25.8888 7.46741 25.7584 7.41328C25.628 7.35916 25.4882 7.3313 25.347 7.3313C25.2058 7.3313 25.066 7.35916 24.9355 7.41328C24.8051 7.46741 24.6867 7.54673 24.587 7.64671L15.447 16.84L14.707 20.0467C14.6754 20.2021 14.6788 20.3626 14.7167 20.5166C14.7546 20.6707 14.8262 20.8143 14.9262 20.9374C15.0263 21.0604 15.1524 21.1597 15.2955 21.2282C15.4386 21.2967 15.595 21.3326 15.7536 21.3334C15.8356 21.3424 15.9183 21.3424 16.0003 21.3334L19.2336 20.62L28.3536 11.4134C28.4536 11.3137 28.5329 11.1952 28.5871 11.0648C28.6412 10.9344 28.669 10.7946 28.669 10.6534C28.669 10.5122 28.6412 10.3724 28.5871 10.242C28.5329 10.1115 28.4536 9.99308 28.3536 9.89338ZM18.5403 19.3867L16.1003 19.9267L16.667 17.5067L23.547 10.58L25.427 12.46L18.5403 19.3867ZM26.1803 11.7067L24.3003 9.82671L25.3336 8.77338L27.227 10.6667L26.1803 11.7067Z" fill="#242424"/>
</svg>
