<svg width="12" height="15" viewBox="0 0 12 15" fill="none" xmlns="http://www.w3.org/2000/svg">
<path d="M7.92807 1.71367L8.53876 0.611933C8.5466 0.597799 8.55157 0.582259 8.5534 0.566202C8.55523 0.550145 8.55388 0.533884 8.54943 0.518349C8.54497 0.502814 8.5375 0.488308 8.52744 0.475659C8.51738 0.463011 8.50493 0.452468 8.4908 0.444632C8.46225 0.428807 8.42859 0.42497 8.39721 0.433965C8.36584 0.44296 8.33932 0.464051 8.32349 0.492597L7.70604 1.60655C7.17921 1.37559 6.61022 1.25635 6.03498 1.25635C5.45975 1.25635 4.89076 1.37559 4.36393 1.60655L3.74645 0.492597C3.73063 0.464051 3.70411 0.44296 3.67274 0.433965C3.64136 0.42497 3.6077 0.428807 3.57915 0.444632C3.55061 0.460457 3.52952 0.486974 3.52052 0.518349C3.51152 0.549724 3.51536 0.583387 3.53119 0.611933L4.1419 1.71368C3.56057 2.00023 3.06938 2.44135 2.72222 2.98865C2.37506 3.53595 2.18533 4.16828 2.17385 4.8163H9.89612C9.88464 4.16828 9.69491 3.53594 9.34775 2.98864C9.00059 2.44134 8.5094 2.00023 7.92807 1.71367ZM4.25288 3.40332C4.18911 3.40332 4.12676 3.38441 4.07374 3.34898C4.02071 3.31355 3.97938 3.26319 3.95497 3.20426C3.93057 3.14534 3.92418 3.08051 3.93662 3.01796C3.94906 2.95541 3.97978 2.89795 4.02487 2.85286C4.06997 2.80776 4.12742 2.77705 4.18997 2.76461C4.25252 2.75216 4.31736 2.75855 4.37628 2.78296C4.4352 2.80736 4.48556 2.84869 4.52099 2.90172C4.55643 2.95475 4.57534 3.01709 4.57534 3.08087C4.57524 3.16636 4.54124 3.24832 4.48079 3.30877C4.42034 3.36922 4.33837 3.40323 4.25288 3.40332ZM7.81706 3.40332C7.75329 3.40332 7.69095 3.38441 7.63792 3.34898C7.58489 3.31355 7.54356 3.26319 7.51915 3.20426C7.49475 3.14534 7.48836 3.08051 7.5008 3.01796C7.51325 2.95541 7.54396 2.89795 7.58905 2.85286C7.63415 2.80776 7.69161 2.77705 7.75416 2.76461C7.81671 2.75216 7.88154 2.75855 7.94046 2.78296C7.99938 2.80736 8.04975 2.84869 8.08518 2.90172C8.12061 2.95475 8.13952 3.01709 8.13952 3.08087C8.13942 3.16636 8.10542 3.24832 8.04497 3.30877C7.98452 3.36922 7.90256 3.40323 7.81706 3.40332ZM2.17379 10.7184C2.17379 10.966 2.27214 11.2034 2.4472 11.3785C2.62226 11.5535 2.85969 11.6519 3.10727 11.6519H3.72673V13.5612C3.72642 13.6751 3.74858 13.7879 3.79194 13.8932C3.83531 13.9985 3.89902 14.0942 3.97943 14.1748C4.05983 14.2555 4.15536 14.3194 4.26054 14.3631C4.36571 14.4067 4.47846 14.4292 4.59233 14.4292C4.7062 14.4292 4.81895 14.4067 4.92412 14.3631C5.0293 14.3194 5.12482 14.2555 5.20523 14.1748C5.28564 14.0942 5.34935 13.9985 5.39272 13.8932C5.43608 13.7879 5.45824 13.6751 5.45793 13.5612V11.6519H6.61202V13.5612C6.61171 13.6751 6.63387 13.7879 6.67723 13.8932C6.72059 13.9985 6.7843 14.0942 6.86471 14.1748C6.94512 14.2555 7.04065 14.3194 7.14582 14.3631C7.251 14.4067 7.36375 14.4292 7.47762 14.4292C7.59149 14.4292 7.70424 14.4067 7.80941 14.3631C7.91459 14.3194 8.01011 14.2555 8.09052 14.1748C8.17093 14.0942 8.23464 13.9985 8.278 13.8932C8.32137 13.7879 8.34353 13.6751 8.34322 13.5612V11.6519H8.96271C9.21028 11.6519 9.44771 11.5535 9.62277 11.3785C9.79783 11.2034 9.89618 10.966 9.89618 10.7184V5.12177H2.17379V10.7184ZM0.985719 4.97326C0.756227 4.97352 0.536209 5.0648 0.373934 5.22708C0.211659 5.38935 0.12038 5.60937 0.12012 5.83886V9.44547C0.119812 9.55934 0.141973 9.67215 0.185336 9.77745C0.228698 9.88274 0.292409 9.97844 0.372818 10.0591C0.453227 10.1397 0.548754 10.2037 0.653927 10.2473C0.7591 10.291 0.871852 10.3134 0.985722 10.3134C1.09959 10.3134 1.21234 10.291 1.31752 10.2473C1.42269 10.2037 1.51822 10.1397 1.59863 10.0591C1.67904 9.97844 1.74275 9.88274 1.78611 9.77745C1.82947 9.67215 1.85163 9.55934 1.85132 9.44547V5.83886C1.85106 5.60937 1.75978 5.38935 1.59751 5.22708C1.43523 5.0648 1.21521 4.97352 0.985719 4.97326ZM11.0842 4.97326C10.8547 4.97352 10.6347 5.0648 10.4724 5.22708C10.3102 5.38935 10.2189 5.60937 10.2186 5.83886V9.44547C10.2183 9.55934 10.2405 9.67215 10.2838 9.77745C10.3272 9.88274 10.3909 9.97844 10.4713 10.0591C10.5517 10.1397 10.6473 10.2037 10.7524 10.2473C10.8576 10.291 10.9704 10.3134 11.0842 10.3134C11.1981 10.3134 11.3108 10.291 11.416 10.2473C11.5212 10.2037 11.6167 10.1397 11.6971 10.0591C11.7775 9.97844 11.8412 9.88274 11.8846 9.77745C11.928 9.67215 11.9501 9.55934 11.9498 9.44547V5.83886C11.9496 5.60937 11.8583 5.38935 11.696 5.22708C11.5337 5.0648 11.3137 4.97352 11.0842 4.97326Z" fill="#00B87C"/>
</svg>
