<svg width="34" height="34" viewBox="0 0 34 34" fill="none" xmlns="http://www.w3.org/2000/svg">
<path fill-rule="evenodd" clip-rule="evenodd" d="M16.9999 20.9999C19.209 20.9999 20.9999 19.209 20.9999 16.9999C20.9999 14.7907 19.209 12.9999 16.9999 12.9999C14.7907 12.9999 12.9999 14.7907 12.9999 16.9999C12.9999 19.209 14.7907 20.9999 16.9999 20.9999Z" stroke="#333333" stroke-width="4" stroke-linecap="round" stroke-linejoin="round"/>
<path fill-rule="evenodd" clip-rule="evenodd" d="M26.8666 20.9999C26.5035 21.8227 26.6777 22.7837 27.3066 23.4266L27.3866 23.5066C27.8873 24.0068 28.1687 24.6855 28.1687 25.3933C28.1687 26.101 27.8873 26.7797 27.3866 27.2799C26.8864 27.7807 26.2077 28.062 25.4999 28.062C24.7922 28.062 24.1134 27.7807 23.6133 27.2799L23.5333 27.1999C22.8903 26.571 21.9294 26.3968 21.1066 26.7599C20.3006 27.1053 19.7767 27.8964 19.7733 28.7733V28.9999C19.7733 30.4727 18.5793 31.6666 17.1066 31.6666C15.6338 31.6666 14.4399 30.4727 14.4399 28.9999V28.8799C14.4188 27.9768 13.8477 27.1784 12.9999 26.8666C12.1771 26.5035 11.2162 26.6777 10.5733 27.3066L10.4933 27.3866C9.99307 27.8873 9.31434 28.1687 8.60659 28.1687C7.89883 28.1687 7.2201 27.8873 6.71992 27.3866C6.21918 26.8864 5.93782 26.2077 5.93782 25.4999C5.93782 24.7922 6.21918 24.1134 6.71992 23.6133L6.79992 23.5333C7.42881 22.8903 7.60305 21.9294 7.23992 21.1066C6.89449 20.3006 6.10344 19.7767 5.22659 19.7733H4.99992C3.52716 19.7733 2.33325 18.5793 2.33325 17.1066C2.33325 15.6338 3.52716 14.4399 4.99992 14.4399H5.11992C6.02302 14.4188 6.82143 13.8477 7.13325 12.9999C7.49638 12.1771 7.32214 11.2162 6.69325 10.5733L6.61325 10.4933C6.11251 9.99307 5.83115 9.31434 5.83115 8.60658C5.83115 7.89883 6.11251 7.2201 6.61325 6.71992C7.11343 6.21918 7.79216 5.93782 8.49992 5.93782C9.20768 5.93782 9.8864 6.21918 10.3866 6.71992L10.4666 6.79992C11.1095 7.42881 12.0705 7.60305 12.8933 7.23992H12.9999C13.8059 6.89449 14.3298 6.10344 14.3333 5.22659V4.99992C14.3333 3.52716 15.5272 2.33325 16.9999 2.33325C18.4727 2.33325 19.6666 3.52716 19.6666 4.99992V5.11992C19.6701 5.99678 20.194 6.78783 20.9999 7.13325C21.8227 7.49638 22.7837 7.32214 23.4266 6.69325L23.5066 6.61325C24.0068 6.11251 24.6855 5.83115 25.3933 5.83115C26.101 5.83115 26.7797 6.11251 27.2799 6.61325C27.7807 7.11343 28.062 7.79216 28.062 8.49992C28.062 9.20768 27.7807 9.8864 27.2799 10.3866L27.1999 10.4666C26.571 11.1095 26.3968 12.0705 26.7599 12.8933V12.9999C27.1053 13.8059 27.8964 14.3298 28.7733 14.3333H28.9999C30.4727 14.3333 31.6666 15.5272 31.6666 16.9999C31.6666 18.4727 30.4727 19.6666 28.9999 19.6666H28.8799C28.0031 19.6701 27.212 20.194 26.8666 20.9999Z" stroke="#333333" stroke-width="4" stroke-linecap="round" stroke-linejoin="round"/>
</svg>
