<svg width="80" height="70" viewBox="0 0 80 70" fill="none" xmlns="http://www.w3.org/2000/svg">
<path d="M0 49.5104C0 51.4115 2.1539 52.5175 3.69867 51.4152L16.5633 42.2381C17.6423 41.4684 18.9133 41.0616 20.2389 41.0616H48.5326C53.513 41.0616 57.5647 37.0098 57.5647 32.0295V2.33984C57.5647 1.04763 56.517 0 55.2248 0H9.0321C4.05183 0 0 4.05167 0 9.0321L0 49.5104ZM4.67969 9.0321C4.67969 6.63205 6.63221 4.67969 9.0321 4.67969H52.8848V32.0295C52.8848 34.4295 50.9323 36.3819 48.5324 36.3819H20.2387C17.9332 36.3819 15.7225 37.0896 13.8456 38.4285L4.67969 44.9671V9.0321Z" fill="#00B87C"/>
<path d="M79.8656 27.1812C79.8656 22.2001 75.8139 18.1478 70.8338 18.1478H64.5833C63.2911 18.1478 62.2434 19.1955 62.2434 20.4877C62.2434 21.7799 63.2911 22.8275 64.5833 22.8275H70.8338C73.2337 22.8275 75.1859 24.7807 75.1859 27.1812V63.1156L66.0201 56.5773C64.1434 55.2384 61.9329 54.5308 59.6275 54.5308H31.3326C28.9327 54.5308 26.9805 52.5777 26.9805 50.1772V48.0808C26.9805 46.7886 25.9328 45.741 24.6406 45.741C23.3484 45.741 22.3008 46.7886 22.3008 48.0808V50.1772C22.3008 55.1582 26.3525 59.2105 31.3326 59.2105H59.6275C60.9529 59.2105 62.2238 59.6172 63.3026 60.3868L76.1671 69.5637C77.704 70.6605 79.8657 69.566 79.8657 67.6589V27.1812H79.8656Z" fill="#00B87C"/>
<path d="M16.8242 17.4262H43.8578C45.15 17.4262 46.1977 16.3785 46.1977 15.0863C46.1977 13.7941 45.15 12.7465 43.8578 12.7465H16.8242C15.532 12.7465 14.4844 13.7941 14.4844 15.0863C14.4844 16.3785 15.532 17.4262 16.8242 17.4262Z" fill="#00B87C"/>
<path d="M16.8242 28.3453H43.8578C45.15 28.3453 46.1977 27.2977 46.1977 26.0055C46.1977 24.7133 45.15 23.6656 43.8578 23.6656H16.8242C15.532 23.6656 14.4844 24.7133 14.4844 26.0055C14.4844 27.2977 15.532 28.3453 16.8242 28.3453Z" fill="#00B87C"/>
</svg>
