<svg width="32" height="23" viewBox="0 0 32 23" fill="none" xmlns="http://www.w3.org/2000/svg">
<g clip-path="url(#clip0)">
<path opacity="0.2" d="M21.0025 2H1.9375C1.04625 2 0 2.95905 0 3.80952V17.381C0 18.2314 1.04625 19.1905 1.9375 19.1905H26.1562C27.0475 19.1905 28.0937 18.2314 28.0937 17.381V10.5681C27.2776 11.2537 26.2698 11.7087 25.1875 11.88V11.9524C25.1875 12.5495 24.8387 12.8571 24.2187 12.8571H2.90625C2.28625 12.8571 1.9375 12.5495 1.9375 11.9524V11.0476C1.9375 10.4505 2.28625 10.1429 2.90625 10.1429H19.8884C19.3292 9.56406 18.9105 8.87924 18.6611 8.13527C18.4116 7.3913 18.3372 6.60577 18.443 5.83246C18.5488 5.05914 18.8323 4.31632 19.274 3.65485C19.7158 2.99337 20.3054 2.42887 21.0025 2V2Z" fill="#697386"/>
<path d="M18.7356 4.71411H0V7.4284H18.4837C18.321 6.51828 18.4077 5.5845 18.7356 4.71411Z" fill="#697386"/>
</g>
<path d="M25.1433 13.7469C23.3246 13.7469 21.5805 13.0227 20.2945 11.7337C19.0086 10.4447 18.2861 8.69638 18.2861 6.87343C18.2861 5.05048 19.0086 3.3022 20.2945 2.01318C21.5805 0.724163 23.3246 0 25.1433 0C26.9619 0 28.706 0.724163 29.992 2.01318C31.278 3.3022 32.0004 5.05048 32.0004 6.87343C32.0004 8.69638 31.278 10.4447 29.992 11.7337C28.706 13.0227 26.9619 13.7469 25.1433 13.7469ZM22.42 4.02587H21.6461L19.7555 4.98815V5.97007L21.2543 5.18453V9.72099H22.4298V4.02587H22.42ZM24.6731 4.8114C25.2314 4.8114 25.6233 5.12562 25.6233 5.5773C25.6233 6.06826 25.1629 6.41193 24.4967 6.41193H24.2029V7.24656H24.5555C25.2608 7.24656 25.7408 7.60005 25.7408 8.11065C25.7408 8.60161 25.2706 8.93546 24.6045 8.93546C24.1147 8.93546 23.6249 8.77835 23.1155 8.47396V9.45588C23.6641 9.69154 24.2127 9.81919 24.7514 9.81919C26.0347 9.81919 26.9163 9.1613 26.9163 8.20884C26.9163 7.54114 26.5049 7.00108 25.8192 6.78506C26.4069 6.58867 26.789 6.06826 26.789 5.47911C26.789 4.5561 25.9759 3.92768 24.8004 3.92768C24.2705 3.93357 23.7473 4.04714 23.2625 4.26153V5.22381C23.7327 4.95869 24.2127 4.8114 24.6731 4.8114ZM28.9049 6.95198C29.62 6.95198 30.1196 7.37421 30.1196 7.92408C30.1196 8.50342 29.62 8.906 28.9049 8.906C28.4739 8.906 28.0233 8.76853 27.5629 8.48378V9.49515C28.0429 9.71118 28.5327 9.81919 29.0127 9.81919C29.2674 9.81919 29.5025 9.77991 29.7278 9.72099C30.2372 8.88636 30.531 7.92408 30.531 6.89307L30.5114 6.48066C30.1472 6.26456 29.7296 6.15567 29.3065 6.16645C29.1302 6.16645 28.9441 6.17627 28.7482 6.20573V4.92923H30.1588C30.0364 4.61494 29.8856 4.31255 29.7082 4.02587H27.7294V7.11891C28.1212 7.02072 28.5131 6.95198 28.9049 6.95198Z" fill="#697386"/>
<defs>
<clipPath id="clip0">
<rect width="31" height="19" fill="white" transform="translate(0 2)"/>
</clipPath>
</defs>
</svg>
