<svg width="174" height="38" viewBox="0 0 174 38" fill="none" xmlns="http://www.w3.org/2000/svg">
<path d="M11.6515 11.3125C11.6514 10.0572 11.2503 8.83568 10.5079 7.8304C9.76558 6.82512 8.72194 6.09008 7.53295 5.73513C6.34397 5.38018 5.07348 5.42436 3.91135 5.86109C2.74921 6.29782 1.75783 7.10364 1.08535 8.15812C0.412873 9.21261 0.0954034 10.4592 0.180385 11.7115C0.265367 12.9638 0.748236 14.1546 1.55684 15.106C2.36544 16.0575 3.45635 16.7184 4.66655 16.99C5.87676 17.2617 7.14127 17.1294 8.27113 16.6131C8.68511 16.4228 9.03305 16.2402 10.4096 16.7109C10.5721 16.7649 10.7702 16.8214 10.9912 16.8909C11.0673 16.9151 11.148 16.9209 11.2267 16.9076C11.3054 16.8944 11.38 16.8626 11.4443 16.8147C11.5086 16.7669 11.5609 16.7044 11.5969 16.6323C11.6329 16.5602 11.6516 16.4805 11.6515 16.3997V11.3125Z" fill="#F5F5F5"/>
<path d="M15.1759 26.6871C15.1759 27.9424 15.5771 29.164 16.3195 30.1692C17.0618 31.1745 18.1054 31.9096 19.2944 32.2645C20.4834 32.6195 21.7539 32.5753 22.916 32.1385C24.0782 31.7018 25.0695 30.896 25.742 29.8415C26.4145 28.787 26.732 27.5405 26.647 26.2882C26.562 25.0359 26.0791 23.845 25.2705 22.8936C24.4619 21.9422 23.371 21.2813 22.1608 21.0096C20.9506 20.738 19.6861 20.8702 18.5562 21.3865C18.1397 21.5768 17.7943 21.7594 16.4153 21.2888C16.2553 21.2348 16.0572 21.1782 15.8362 21.1088C15.7601 21.0845 15.6794 21.0788 15.6007 21.092C15.5219 21.1052 15.4474 21.1371 15.3831 21.1849C15.3188 21.2327 15.2665 21.2952 15.2305 21.3674C15.1945 21.4395 15.1758 21.5192 15.1759 21.6V26.6871Z" fill="white"/>
<path d="M21.0909 17.1278C24.2622 17.1278 26.8332 14.5243 26.8332 11.3128C26.8332 8.10127 24.2622 5.4978 21.0909 5.4978C17.9195 5.4978 15.3485 8.10127 15.3485 11.3128C15.3485 14.5243 17.9195 17.1278 21.0909 17.1278Z" fill="#F5F5F5"/>
<path d="M5.90918 32.5023C9.08058 32.5023 11.6515 29.8989 11.6515 26.6873C11.6515 23.4758 9.08058 20.8723 5.90918 20.8723C2.73779 20.8723 0.16687 23.4758 0.16687 26.6873C0.16687 29.8989 2.73779 32.5023 5.90918 32.5023Z" fill="white"/>
<path d="M61.2172 9.352C61.2172 9.56533 61.1798 9.77333 61.1052 9.976C61.0412 10.1787 60.9505 10.3707 60.8332 10.552L48.4652 27.976H60.9772V31H43.5692V29.528C43.5692 29.3253 43.6012 29.1387 43.6652 28.968C43.7292 28.7867 43.8145 28.616 43.9212 28.456L56.3372 10.984H44.2572V7.96H61.2172V9.352ZM77.3142 14.68V31H75.2342C74.7755 31 74.4822 30.7813 74.3542 30.344L74.0982 28.824C73.7568 29.1867 73.3942 29.5173 73.0102 29.816C72.6368 30.1147 72.2368 30.3707 71.8102 30.584C71.3835 30.7973 70.9248 30.9627 70.4342 31.08C69.9542 31.1973 69.4368 31.256 68.8822 31.256C67.9862 31.256 67.1968 31.1067 66.5142 30.808C65.8315 30.5093 65.2555 30.088 64.7862 29.544C64.3275 29 63.9808 28.3493 63.7462 27.592C63.5115 26.824 63.3942 25.9813 63.3942 25.064V14.68H66.8342V25.064C66.8342 26.1627 67.0848 27.016 67.5862 27.624C68.0982 28.232 68.8715 28.536 69.9062 28.536C70.6635 28.536 71.3675 28.3653 72.0182 28.024C72.6795 27.672 73.2982 27.192 73.8742 26.584V14.68H77.3142ZM84.7397 17.704C85.2517 16.6693 85.8703 15.8587 86.5957 15.272C87.321 14.6747 88.1903 14.376 89.2037 14.376C89.5557 14.376 89.8863 14.4187 90.1957 14.504C90.505 14.5787 90.7823 14.696 91.0277 14.856L90.7877 17.448C90.745 17.6293 90.6757 17.7573 90.5797 17.832C90.4943 17.896 90.377 17.928 90.2277 17.928C90.0677 17.928 89.8383 17.9013 89.5397 17.848C89.241 17.784 88.9263 17.752 88.5957 17.752C88.1157 17.752 87.689 17.8213 87.3157 17.96C86.953 18.0987 86.6223 18.3013 86.3237 18.568C86.0357 18.8347 85.7797 19.16 85.5557 19.544C85.3317 19.928 85.1237 20.3653 84.9317 20.856V31H81.4917V14.68H83.4917C83.8543 14.68 84.105 14.7493 84.2437 14.888C84.3823 15.016 84.4783 15.2453 84.5317 15.576L84.7397 17.704ZM96.8882 14.68V31H93.4482V14.68H96.8882ZM97.4642 9.752C97.4642 10.0613 97.4002 10.3547 97.2722 10.632C97.1548 10.9093 96.9895 11.1547 96.7762 11.368C96.5628 11.5707 96.3122 11.736 96.0242 11.864C95.7468 11.9813 95.4482 12.04 95.1282 12.04C94.8188 12.04 94.5255 11.9813 94.2482 11.864C93.9815 11.736 93.7468 11.5707 93.5442 11.368C93.3415 11.1547 93.1762 10.9093 93.0482 10.632C92.9308 10.3547 92.8722 10.0613 92.8722 9.752C92.8722 9.432 92.9308 9.13333 93.0482 8.856C93.1762 8.57867 93.3415 8.33867 93.5442 8.136C93.7468 7.92267 93.9815 7.75733 94.2482 7.64C94.5255 7.512 94.8188 7.448 95.1282 7.448C95.4482 7.448 95.7468 7.512 96.0242 7.64C96.3122 7.75733 96.5628 7.92267 96.7762 8.136C96.9895 8.33867 97.1548 8.57867 97.2722 8.856C97.4002 9.13333 97.4642 9.432 97.4642 9.752ZM125.819 25.864C126.022 25.864 126.198 25.944 126.347 26.104L127.835 27.72C126.896 28.8507 125.744 29.7253 124.379 30.344C123.014 30.952 121.382 31.256 119.483 31.256C117.798 31.256 116.272 30.968 114.907 30.392C113.552 29.8053 112.395 28.9947 111.435 27.96C110.475 26.9147 109.734 25.672 109.211 24.232C108.699 22.792 108.443 21.208 108.443 19.48C108.443 17.752 108.715 16.168 109.259 14.728C109.814 13.2773 110.587 12.0347 111.579 11C112.582 9.95467 113.776 9.144 115.163 8.568C116.56 7.992 118.096 7.704 119.771 7.704C121.435 7.704 122.902 7.976 124.171 8.52C125.451 9.05333 126.56 9.768 127.499 10.664L126.267 12.408C126.182 12.5253 126.08 12.6267 125.963 12.712C125.846 12.7973 125.686 12.84 125.483 12.84C125.27 12.84 125.024 12.744 124.747 12.552C124.48 12.3493 124.134 12.1307 123.707 11.896C123.291 11.6507 122.763 11.432 122.123 11.24C121.494 11.0373 120.704 10.936 119.755 10.936C118.656 10.936 117.648 11.128 116.731 11.512C115.814 11.896 115.024 12.456 114.363 13.192C113.702 13.928 113.184 14.824 112.811 15.88C112.448 16.936 112.267 18.136 112.267 19.48C112.267 20.8347 112.459 22.0453 112.843 23.112C113.227 24.168 113.755 25.064 114.427 25.8C115.099 26.5253 115.888 27.08 116.795 27.464C117.702 27.848 118.678 28.04 119.723 28.04C120.363 28.04 120.934 28.008 121.435 27.944C121.947 27.8693 122.416 27.7573 122.843 27.608C123.27 27.448 123.67 27.2507 124.043 27.016C124.427 26.7813 124.806 26.4933 125.179 26.152C125.392 25.96 125.606 25.864 125.819 25.864ZM133.869 16.616C134.541 15.9547 135.277 15.4267 136.077 15.032C136.877 14.6267 137.81 14.424 138.877 14.424C139.773 14.424 140.557 14.5733 141.229 14.872C141.912 15.1707 142.482 15.592 142.941 16.136C143.41 16.68 143.762 17.336 143.997 18.104C144.232 18.8613 144.349 19.6987 144.349 20.616V31H140.925V20.616C140.925 19.5173 140.669 18.664 140.157 18.056C139.656 17.448 138.888 17.144 137.853 17.144C137.085 17.144 136.37 17.32 135.709 17.672C135.058 18.024 134.445 18.504 133.869 19.112V31H130.429V7.32H133.869V16.616ZM157.087 23.864C155.86 23.9067 154.825 24.008 153.983 24.168C153.14 24.3173 152.457 24.5147 151.935 24.76C151.412 24.9947 151.033 25.2773 150.799 25.608C150.575 25.9387 150.463 26.3013 150.463 26.696C150.463 27.08 150.521 27.4107 150.639 27.688C150.767 27.9547 150.937 28.1787 151.151 28.36C151.375 28.5307 151.631 28.6587 151.919 28.744C152.217 28.8187 152.543 28.856 152.895 28.856C153.791 28.856 154.559 28.6907 155.199 28.36C155.849 28.0187 156.479 27.528 157.087 26.888V23.864ZM147.967 16.952C149.812 15.2347 152.009 14.376 154.559 14.376C155.497 14.376 156.329 14.5307 157.055 14.84C157.791 15.1387 158.404 15.5653 158.895 16.12C159.396 16.6747 159.775 17.336 160.031 18.104C160.297 18.8613 160.431 19.704 160.431 20.632V31H158.895C158.564 31 158.313 30.952 158.143 30.856C157.972 30.7493 157.828 30.5413 157.711 30.232L157.375 28.904C156.959 29.2773 156.548 29.6133 156.143 29.912C155.737 30.2 155.316 30.4453 154.879 30.648C154.452 30.8507 153.988 31 153.487 31.096C152.996 31.2027 152.452 31.256 151.855 31.256C151.193 31.256 150.575 31.1653 149.999 30.984C149.433 30.8027 148.943 30.5307 148.527 30.168C148.111 29.7947 147.78 29.336 147.535 28.792C147.3 28.248 147.183 27.608 147.183 26.872C147.183 26.2427 147.348 25.6293 147.679 25.032C148.02 24.4347 148.575 23.9013 149.343 23.432C150.121 22.952 151.14 22.5573 152.399 22.248C153.668 21.9387 155.231 21.7627 157.087 21.72V20.632C157.087 19.4587 156.836 18.584 156.335 18.008C155.833 17.432 155.097 17.144 154.127 17.144C153.465 17.144 152.911 17.2293 152.463 17.4C152.015 17.56 151.625 17.736 151.295 17.928C150.964 18.12 150.671 18.3013 150.415 18.472C150.159 18.632 149.887 18.712 149.599 18.712C149.364 18.712 149.161 18.6533 148.991 18.536C148.831 18.408 148.697 18.2533 148.591 18.072L147.967 16.952ZM169.474 31.256C168.119 31.256 167.074 30.8773 166.338 30.12C165.612 29.352 165.25 28.2747 165.25 26.888V17.384H163.458C163.266 17.384 163.1 17.3253 162.962 17.208C162.823 17.08 162.754 16.8933 162.754 16.648V15.256L165.394 14.872L166.146 10.152C166.199 9.97067 166.29 9.82667 166.418 9.72C166.546 9.60267 166.716 9.544 166.93 9.544H168.69V14.904H173.218V17.384H168.69V26.648C168.69 27.2347 168.834 27.6827 169.122 27.992C169.41 28.3013 169.794 28.456 170.274 28.456C170.54 28.456 170.77 28.424 170.962 28.36C171.154 28.2853 171.319 28.2107 171.458 28.136C171.596 28.0507 171.714 27.976 171.81 27.912C171.916 27.8373 172.018 27.8 172.114 27.8C172.306 27.8 172.46 27.9067 172.578 28.12L173.602 29.8C173.068 30.2693 172.439 30.632 171.714 30.888C170.988 31.1333 170.242 31.256 169.474 31.256Z" fill="#F5F5F5"/>
</svg>
