<svg width="159" height="226" viewBox="0 0 159 226" fill="none" xmlns="http://www.w3.org/2000/svg">
<path d="M82.1389 142.965C82.1663 142.911 82.1791 142.884 82.1871 142.863V142.809L82.2107 142.735C82.5501 141.668 82.6142 140.89 82.5128 140.35C82.4157 139.833 82.1695 139.531 81.8289 139.357C81.4635 139.169 80.9308 139.1 80.2334 139.194C79.5424 139.286 78.7343 139.533 77.8585 139.923L77.8555 139.924C77.1082 140.251 76.3049 140.799 75.4451 141.452C75.0584 141.746 74.667 142.056 74.2679 142.372L74.1412 142.472C73.6999 142.822 73.2499 143.176 72.797 143.514C71.895 144.187 70.9577 144.813 70.0122 145.217C69.0641 145.623 68.0703 145.821 67.0757 145.586L67.0732 145.585C65.7094 145.256 64.8224 144.59 64.3693 143.67C63.9261 142.77 63.9444 141.72 64.1841 140.705C64.6606 138.688 66.07 136.559 67.2141 135.313C68.2557 134.053 69.294 132.826 70.322 131.611C73.0829 128.348 75.77 125.172 78.2498 121.671C79.3422 120.083 80.3597 118.23 80.7916 116.455C81.2218 114.687 81.0571 113.073 79.9062 111.831C78.568 110.414 76.6834 110.239 74.6724 110.838C72.6598 111.439 70.6227 112.796 69.1587 114.265C67.6543 115.871 65.908 117.672 63.991 118.916C62.0659 120.165 59.9006 120.894 57.5931 120.235L57.4163 120.184L57.3144 120.031C55.3925 117.148 55.4136 113.805 56.4777 110.664C57.5394 107.53 59.6517 104.548 62.0091 102.291C63.1762 101.125 64.4175 100.01 65.644 98.9091L65.6486 98.905C66.8784 97.801 68.0929 96.7107 69.2251 95.5785C71.4928 93.3108 73.3927 90.9105 74.3644 87.9986C75.0298 86.0022 74.9351 83.6092 74.1476 81.6533C73.3667 79.7136 71.9414 78.2768 69.9786 77.9928C68.4726 78.0368 67.0122 78.5221 65.7791 79.3888C64.5372 80.2616 63.5812 81.4822 63.0315 82.8969C61.9469 86.0122 60.4366 88.9625 58.5436 91.6639L58.532 91.6804L58.5191 91.696C57.4407 92.9973 55.7839 94.01 54.0713 94.4098C52.3571 94.81 50.5079 94.6094 49.1406 93.3572L49.1194 93.3378L49.1005 93.316C48.4364 92.5498 47.9544 91.6431 47.6909 90.6639C47.4274 89.6848 47.3891 88.6586 47.5789 87.6626L47.5798 87.658C48.5834 82.6491 51.1786 78.0987 54.9785 74.6846C58.6008 71.3633 61.3816 67.2286 63.0917 62.6214C63.7584 60.3201 63.612 57.7251 62.7482 55.5425C61.8863 53.3645 60.3322 51.6441 58.2142 50.9879C56.031 50.5792 53.7734 50.9942 51.878 52.1534C49.9748 53.3173 48.5731 55.1481 47.946 57.2889L47.9423 57.3013L47.9381 57.3135C47.609 58.2539 47.3464 59.2998 47.0742 60.3833C47.0627 60.4293 47.0512 60.4753 47.0396 60.5213C46.7576 61.6435 46.4626 62.8005 46.0749 63.8602C45.3033 65.9693 44.1061 67.8503 41.7254 68.3041C39.4597 68.7558 37.6246 67.6008 36.3724 65.8956C35.125 64.1971 34.3943 61.8869 34.2897 59.7908C34.0838 56.0914 34.8037 52.4593 35.6601 48.8815C35.8305 48.1697 36.0061 47.4609 36.1811 46.7539C36.8913 43.886 37.5938 41.0495 37.9128 38.1762C38.3074 34.6221 37.9102 30.6858 36.5878 27.4055C35.2663 24.1271 33.0457 21.5549 29.8153 20.598L29.8153 20.598L29.8084 20.5959C27.053 19.7361 24.0778 20.3007 21.4763 21.7865C18.8787 23.27 16.6949 25.6505 15.5305 28.3497C13.4975 34.1151 13.6401 40.4247 15.9318 46.0927L15.9367 46.1048L15.941 46.1171C16.8415 48.7292 17.9044 51.3015 18.9719 53.8852C19.0899 54.1709 19.208 54.4566 19.3259 54.7426C20.504 57.5997 21.6652 60.4745 22.5772 63.4018C22.9193 64.1668 23.0778 65.0013 23.0399 65.8387C23.0015 66.6867 22.7627 67.5136 22.3432 68.2516L22.3257 68.2824L22.304 68.3104C21.447 69.4186 20.0706 69.6781 18.7805 69.4576C17.489 69.2367 16.1781 68.5254 15.295 67.5325C14.5842 66.7334 14.02 65.82 13.491 64.9637C13.3937 64.8061 13.2976 64.6505 13.202 64.4979C12.5731 63.4942 11.9589 62.6063 11.1355 61.9609L11.134 61.9597C9.41287 60.6006 7.11187 60.615 5.03994 61.591C2.97263 62.5648 1.23 64.4578 0.66214 66.6973C0.290604 69.0207 0.562515 71.4016 1.44859 73.5816C2.33736 75.7682 3.80985 77.6686 5.70528 79.0753L5.70706 79.0766C9.56687 81.9678 13.7154 84.452 18.0863 86.4896L18.0984 86.4953L18.1103 86.5016C19.6165 87.3047 21.7064 88.4251 23.5984 89.78C25.4757 91.1244 27.2359 92.7528 27.9976 94.6007L27.9977 94.6009C28.3619 95.4856 28.5162 96.2277 28.4198 96.8244C28.37 97.1325 28.2524 97.4061 28.0608 97.6307C27.8701 97.8542 27.6267 98.0049 27.3612 98.1003C26.8459 98.2854 26.2128 98.275 25.5651 98.1739C24.9057 98.071 24.1714 97.864 23.4199 97.6004C20.4293 96.5515 16.9159 94.515 16.1753 93.9835L16.1692 93.9791L16.1632 93.9746C14.4942 92.6991 12.3509 91.5851 10.3102 91.2002C8.28505 90.8182 6.44681 91.1623 5.19645 92.6616C4.64673 93.4978 4.32359 94.4627 4.25897 95.4617C4.19379 96.4693 4.39388 97.4765 4.83931 98.3827L4.85033 98.4051L4.85906 98.4285C5.92094 101.276 7.90458 103.43 10.396 105.249C12.8952 107.074 15.8726 108.539 18.8999 110.027L18.9224 110.038C21.9252 111.515 24.9763 113.015 27.5522 114.896C30.1423 116.787 32.2843 119.085 33.4365 122.174L33.5972 122.605L33.1811 122.801C31.311 123.682 29.3057 123.499 27.4041 122.874C25.5059 122.249 23.6505 121.163 22.0384 120.157C20.4678 119.177 18.5705 118.355 16.7461 118.091C14.9263 117.827 13.2386 118.124 11.9787 119.292C10.7059 120.519 10.1801 121.795 10.1321 123.057C10.0835 124.336 10.5235 125.655 11.2864 126.951C12.8165 129.55 15.5636 131.915 17.7512 133.407C20.209 135.044 23.2841 135.826 26.4283 136.625C27.0311 136.778 27.6365 136.932 28.2405 137.092C31.9202 138.071 35.5457 139.306 37.7763 142.35C38.2053 142.779 38.5342 143.297 38.7391 143.868C38.9489 144.453 39.0233 145.077 38.9568 145.695C38.8902 146.312 38.6844 146.906 38.355 147.433C38.0255 147.959 37.5808 148.404 37.0545 148.734L37.0366 148.745L37.0178 148.755C35.4813 149.545 33.6976 149.705 32.0456 149.202C29.6344 148.802 27.1519 148.582 25.3085 149.235C24.4024 149.556 23.6668 150.083 23.1615 150.901C22.6522 151.725 22.348 152.89 22.3962 154.535L22.3964 154.543V154.55C22.3964 156.715 23.2878 158.57 24.6247 160.223C25.9671 161.882 27.735 163.31 29.4442 164.617C33.1559 167.426 38.9564 171.424 45.0429 174.143C51.1561 176.875 57.4038 178.245 62.1186 176.042C67.2174 173.194 71.3852 167.718 74.6903 161.567C77.9813 155.442 80.3837 148.711 81.9888 143.403C81.9992 143.309 82.0241 143.228 82.0477 143.165C82.0764 143.089 82.1123 143.018 82.1355 142.972L82.1389 142.965Z" fill="#467B6C" stroke="black"/>
<path d="M61.7546 230.835C68.5985 191.38 57.1262 154.563 46.0576 118.941C37.2046 90.1634 27.9449 60.3659 28.3485 29.3848H26.133C25.526 60.7786 34.989 90.564 43.8451 119.545C54.9016 154.966 66.1826 191.392 59.3418 230.446L61.7546 230.835Z" fill="white"/>
<path d="M64.765 158.793C65.5058 158.754 66.2287 158.551 66.8823 158.2C67.5359 157.849 68.104 157.359 68.5461 156.763C68.9881 156.167 69.2933 155.481 69.4397 154.754C69.5862 154.027 69.5704 153.276 69.3934 152.556M64.765 158.793L67.3903 115.526C64.9623 111.098 60.5494 106.066 55.7177 107.274C45.857 109.702 49.0772 122.167 52.0939 128.607M64.765 158.793C62.639 158.604 60.6458 157.678 59.129 156.177M64.765 158.793L120.924 184.548M69.3934 152.556C68.6875 146.823 64.3833 142.585 60.0728 138.342C56.9698 135.287 53.8635 132.229 52.0939 128.607M69.3934 152.556L69.8789 152.437C69.8813 152.446 69.8837 152.456 69.886 152.466M69.3934 152.556L69.8896 152.495C69.8884 152.485 69.8872 152.476 69.886 152.466M52.0939 128.607L52.5432 128.387C52.5438 128.389 52.5445 128.39 52.5451 128.391M52.0939 128.607L52.5467 128.395C52.5462 128.394 52.5457 128.393 52.5451 128.391M52.5451 128.391C51.0526 125.204 49.5276 120.559 49.5768 116.442C49.6013 114.387 50.0174 112.503 50.9876 110.997C51.9499 109.503 53.4844 108.339 55.8373 107.759L55.839 107.759C58.0389 107.209 60.1894 108.064 62.137 109.672C64.0829 111.279 65.7565 113.586 66.9519 115.767L66.9557 115.774L66.9599 115.781C67.0582 115.947 67.1572 116.115 67.2571 116.284C68.4778 118.355 69.8256 120.642 71.4415 122.494C73.1938 124.504 75.3176 126.071 78.0186 126.286L78.476 126.322L78.5514 125.87C79.2766 121.517 78.3386 117.416 76.6064 113.474C74.8934 109.576 72.3874 105.798 69.9113 102.066L69.8445 101.966C67.3362 98.1847 64.8657 94.4488 63.2041 90.6104C61.5465 86.781 60.71 82.8838 61.4422 78.7845L61.4461 78.7631L61.448 78.7414C61.5747 77.3342 62.0607 75.9832 62.8594 74.8177C63.6547 73.6573 64.7335 72.7195 65.9931 72.0935M52.5451 128.391C54.2739 131.927 57.3047 134.912 60.4065 137.968C61.0143 138.566 61.6248 139.168 62.2287 139.776C65.8652 143.441 69.247 147.365 69.886 152.466M65.9931 72.0935C68.4641 71.0954 70.8776 71.9381 73.0071 73.7771C75.1453 75.6236 76.9165 78.4174 78.0019 81.0825L78.0056 81.0918L78.0098 81.1009C78.5292 82.2429 81.219 87.0629 83.9694 90.3479C84.6594 91.172 85.3639 91.9125 86.0489 92.4774C86.7244 93.0344 87.4269 93.4594 88.1121 93.5844C88.4633 93.6485 88.8191 93.6352 89.1603 93.5117C89.5024 93.3878 89.7991 93.1643 90.0483 92.8556C90.5339 92.2541 90.8552 91.3107 91.0356 90.0244M65.9931 72.0935C65.9985 72.0908 66.0039 72.0881 66.0093 72.0855L65.7878 71.6372L65.9764 72.1003C65.982 72.098 65.9875 72.0957 65.9931 72.0935ZM69.886 152.466C70.0739 153.249 70.0889 154.063 69.9299 154.853C69.7689 155.652 69.4335 156.406 68.9476 157.061C68.4617 157.716 67.8372 158.255 67.1188 158.641C66.4004 159.027 65.6057 159.249 64.7915 159.292L64.756 159.294L64.7207 159.291C62.4856 159.092 60.3897 158.122 58.792 156.547M58.792 156.547C56.2805 154.438 53.5064 152.464 50.8352 151.94C49.5153 151.68 48.2355 151.778 47.0194 152.381C45.799 152.987 44.5963 154.124 43.4773 156.025M58.792 156.547C58.7971 156.551 58.8023 156.555 58.8074 156.56L59.129 156.177M58.792 156.547C58.7871 156.542 58.7822 156.537 58.7772 156.532L59.129 156.177M43.4773 156.025C42.0333 158.613 41.8297 161.457 42.2729 164.327C42.7174 167.206 43.8071 170.076 44.9123 172.686L44.9139 172.69C47.3229 178.514 51.3272 187.177 56.5753 194.528C61.8418 201.904 68.2634 207.82 75.4756 208.408M43.4773 156.025C43.4782 156.023 43.4792 156.022 43.4801 156.02L43.0436 155.776M43.4773 156.025C43.4764 156.026 43.4755 156.028 43.4746 156.03L43.0436 155.776M75.4756 208.408C82.9643 208.796 91.4052 205.29 99.43 200.374C107.433 195.471 114.947 189.213 120.573 184.191M75.4756 208.408C75.4731 208.407 75.4706 208.407 75.4681 208.407L75.4421 208.906M75.4756 208.408C75.4779 208.408 75.4802 208.408 75.4825 208.408L75.4421 208.906M120.573 184.191C120.822 183.922 121.116 183.697 121.441 183.526M120.573 184.191C120.579 184.186 120.585 184.18 120.591 184.175L120.924 184.548M120.573 184.191C120.567 184.198 120.561 184.204 120.555 184.211L120.924 184.548M121.441 183.526C122.535 182.518 123.133 181.646 123.381 180.919C123.624 180.204 123.534 179.622 123.219 179.13C122.89 178.616 122.285 178.153 121.417 177.779C120.555 177.407 119.473 177.139 118.249 176.992L118.243 176.992C117.15 176.848 115.842 176.929 114.405 177.095C113.739 177.172 113.054 177.265 112.357 177.361L112.201 177.382C111.452 177.485 110.689 177.588 109.933 177.67C108.425 177.835 106.914 177.922 105.539 177.754C104.161 177.587 102.882 177.159 101.875 176.262L101.868 176.256C100.483 174.977 99.9083 173.654 100.008 172.341C100.105 171.053 100.844 169.891 101.826 168.895C103.789 166.906 106.939 165.366 109.074 164.553L109.075 164.553C111.89 163.488 114.689 162.514 117.481 161.542C122.121 159.928 126.741 158.32 131.383 156.313M121.441 183.526C121.424 183.541 121.408 183.556 121.392 183.571L121.729 183.941L121.506 183.493C121.484 183.504 121.462 183.515 121.441 183.526ZM131.383 156.313C133.67 155.226 136.122 153.75 137.873 151.952C139.622 150.153 140.614 148.097 140.156 145.806M131.383 156.313C131.38 156.314 131.378 156.316 131.375 156.317L131.589 156.768L131.391 156.31C131.388 156.311 131.385 156.312 131.383 156.313ZM140.156 145.806C139.603 143.15 137.503 141.638 134.714 140.959C131.92 140.278 128.534 140.469 125.67 141.16C125.368 141.233 125.062 141.308 124.752 141.383C122.094 142.032 119.178 142.744 116.442 142.86C113.375 142.989 110.431 142.375 108.278 140.006L108.157 139.872L108.148 139.693C107.937 135.167 110.206 131.359 113.55 128.426C116.891 125.496 121.343 123.402 125.626 122.281C127.756 121.723 129.945 121.281 132.119 120.844L132.275 120.813C134.401 120.386 136.51 119.962 138.558 119.438C142.754 118.363 146.64 116.878 149.777 114.136L149.778 114.135C152 112.203 153.552 109.294 153.963 106.442C154.373 103.596 153.643 100.888 151.421 99.2182M140.156 145.806C140.156 145.806 140.156 145.807 140.156 145.808L140.646 145.706L140.155 145.804C140.156 145.805 140.156 145.805 140.156 145.806ZM151.421 99.2182C149.743 98.0083 147.722 97.7115 145.622 98.0001C143.53 98.2877 141.394 99.1537 139.527 100.232M151.421 99.2182C151.422 99.2191 151.423 99.22 151.425 99.2209L151.717 98.8155L151.417 99.2154C151.418 99.2163 151.42 99.2173 151.421 99.2182ZM139.527 100.232C136.104 103.072 132.37 105.515 128.397 107.514L128.364 107.531L128.33 107.542C126.121 108.278 123.549 108.332 121.356 107.644C119.159 106.956 117.286 105.499 116.623 103.178L116.614 103.149L116.61 103.12C116.392 101.767 116.469 100.384 116.836 99.0642C117.201 97.7496 117.845 96.5291 118.723 95.4854M139.527 100.232C139.538 100.223 139.549 100.214 139.56 100.205L139.241 99.8201L139.491 100.253C139.503 100.246 139.515 100.239 139.527 100.232ZM118.723 95.4854C122.857 89.9146 129.649 87.4643 136.072 85.4578C136.529 85.3148 136.987 85.173 137.444 85.0314C143.464 83.1671 149.392 81.3309 153.781 77.1217C156.115 74.8834 157.774 71.7114 158.312 68.4951C158.85 65.2824 158.262 62.0777 156.183 59.7033M118.723 95.4854C118.72 95.4896 118.717 95.4938 118.714 95.4981L119.116 95.7957L118.734 95.4731C118.73 95.4772 118.727 95.4813 118.723 95.4854ZM156.183 59.7033C154.194 57.5285 151.235 56.6042 148.151 56.75C145.064 56.896 141.906 58.114 139.585 60.1493L139.582 60.1519C138.582 61.0156 137.591 62.0166 136.576 63.0411C136.486 63.132 136.396 63.2231 136.305 63.3143C135.203 64.426 134.072 65.5511 132.904 66.5011C130.575 68.3948 127.976 69.6897 125.009 68.7002L125.003 68.6981C122.143 67.7026 120.808 65.1711 120.517 62.361C120.227 59.5592 120.955 56.3928 122.299 53.9008M156.183 59.7033C156.184 59.7045 156.185 59.7058 156.186 59.707L156.555 59.3698L156.179 59.6995C156.18 59.7008 156.181 59.702 156.183 59.7033ZM122.299 53.9008C124.648 49.5121 127.908 45.7988 131.309 42.221C132.05 41.4409 132.798 40.6679 133.545 39.8959C136.236 37.1131 138.916 34.3423 141.263 31.2917C144.238 27.426 146.462 22.5729 147.153 17.8132C147.842 13.0568 146.996 8.44203 143.903 4.96462M122.299 53.9008C122.299 53.9011 122.299 53.9013 122.298 53.9015L122.739 54.1375L122.299 53.9002C122.299 53.9004 122.299 53.9006 122.299 53.9008ZM143.903 4.96462C138.492 -1.0251 128.344 -0.696917 121.849 4.21271M143.903 4.96462C143.904 4.96507 143.904 4.96553 143.904 4.96598L144.276 4.63084L143.902 4.9632C143.902 4.96367 143.903 4.96414 143.903 4.96462ZM121.849 4.21271C115.563 9.62957 111.357 17.0635 109.951 25.2412L109.949 25.254L109.946 25.2667C109.041 29.2671 108.49 33.371 107.937 37.5254L107.914 37.6998C107.371 41.779 106.822 45.9053 105.93 49.9862M121.849 4.21271C121.853 4.20928 121.857 4.20586 121.861 4.20243L121.534 3.82354L121.836 4.22214C121.84 4.21899 121.845 4.21585 121.849 4.21271ZM105.93 49.9862C105.839 51.0952 105.479 52.1653 104.878 53.1026C104.272 54.0499 103.44 54.832 102.457 55.3787L102.429 55.394L102.4 55.4057C100.661 56.1048 98.956 55.502 97.657 54.3646C96.3623 53.231 95.402 51.518 95.0816 49.8012L95.0748 49.7646L95.0735 49.7275C94.9605 46.5963 94.6293 43.4769 94.0825 40.3918M105.93 49.9862C105.931 49.9744 105.931 49.9625 105.932 49.9507L105.434 49.9128L105.922 50.0198C105.925 50.0086 105.927 49.9974 105.93 49.9862ZM94.0825 40.3918C92.946 37.6241 90.1915 36.0549 87.0899 35.7422C83.9695 35.4276 80.6085 36.4018 78.418 38.5937C73.9866 43.0279 73.7346 50.4258 75.7151 56.5829M94.0825 40.3918C94.0889 40.4075 94.0953 40.4232 94.1016 40.4389L94.5655 40.2524L94.0733 40.3401C94.0763 40.3573 94.0794 40.3746 94.0825 40.3918ZM75.7151 56.5829C78.1725 62.6542 81.3262 68.4198 85.1128 73.764L85.1239 73.7796L85.1337 73.796C85.2067 73.9178 85.2815 74.0424 85.3579 74.1695C86.5383 76.1352 88.091 78.7209 89.2866 81.4226C90.5521 84.2822 91.4598 87.3613 91.0356 90.0244M75.7151 56.5829C75.7128 56.5773 75.7106 56.5717 75.7083 56.5661L75.2448 56.7536L75.7207 56.6002C75.7188 56.5944 75.717 56.5887 75.7151 56.5829ZM91.0356 90.0244C91.0359 90.0228 91.0361 90.0212 91.0363 90.0196L90.5411 89.9503L91.0349 90.0293C91.0351 90.0276 91.0354 90.026 91.0356 90.0244ZM120.924 184.548C109.652 194.612 90.7354 209.705 75.4421 208.906M75.4421 208.906C60.5373 207.699 49.2805 184.554 44.4518 172.881C42.2363 167.649 40.0086 161.209 43.0436 155.776M43.0436 155.776C47.6598 147.928 54.1001 151.952 59.129 156.177" fill="#467B6C" stroke="black"/>
<path d="M68.5984 241.099C70.5161 230.169 73.275 219.403 76.8505 208.898C79.2785 201.05 81.8795 192.998 83.6914 184.949C85.9069 175.088 88.5231 165.024 91.1392 155.364C93.7694 145.76 96.1849 136.098 98.3838 126.386L98.9908 123.57C107.24 86.3394 115.683 47.6949 136.018 14.6925L133.59 13.084C113.061 46.49 104.609 85.3318 96.3594 122.966L95.7524 125.785C93.5369 135.442 90.9207 145.306 88.5079 154.563C85.8918 164.223 83.2756 174.29 81.0601 184.348C79.2064 192.38 76.9229 200.307 74.2192 208.094C70.459 218.696 67.6308 229.605 65.7668 240.699L68.5984 241.099Z" fill="white"/>
<path d="M52.4984 355.209C45.2539 305.298 42.8381 260.62 35.806 210.51C58.3617 221.221 84.1998 222.737 107.854 214.737C99.4011 259.616 91.7681 312.142 83.3035 357.021C75.6432 364.669 60.5502 363.661 52.4984 355.209Z" fill="#643CFF"/>
<path d="M35.7802 210.509C35.7802 207.288 51.0765 207.489 70.986 207.489C90.8955 207.489 107.812 212.12 107.812 215.34C107.812 218.56 91.7271 221.177 71.7903 221.177C51.8534 221.177 35.7802 213.729 35.7802 210.509Z" fill="black"/>
</svg>
