<svg width="159" height="228" viewBox="0 0 159 228" fill="none" xmlns="http://www.w3.org/2000/svg">
<path d="M153.594 79.4768C155.563 78.0155 157.092 76.0414 158.016 73.7699C158.939 71.4984 159.22 69.0168 158.829 66.5963M153.594 79.4768L147.557 61.5673C151.381 58.5475 157.621 61.7676 158.829 66.5963M153.594 79.4768C149.706 82.3886 145.528 84.8906 141.126 86.9428L153.594 79.4768ZM158.829 66.5963L158.335 66.6761C158.337 66.6831 158.338 66.6902 158.339 66.6973M158.829 66.5963L158.344 66.7176C158.342 66.7108 158.341 66.704 158.339 66.6973M158.339 66.6973C158.71 69.0207 158.438 71.4016 157.552 73.5816C156.664 75.7682 155.191 77.6686 153.296 79.0753L153.294 79.0766C149.434 81.9678 145.286 84.452 140.915 86.4896L140.902 86.4953L140.891 86.5016C139.384 87.3047 137.294 88.4251 135.403 89.78C133.525 91.1244 131.765 92.7528 131.003 94.6007L131.003 94.6009C130.639 95.4856 130.485 96.2277 130.581 96.8244C130.631 97.1325 130.749 97.4061 130.94 97.6307C131.131 97.8542 131.374 98.0049 131.64 98.1003C132.155 98.2854 132.788 98.275 133.436 98.1739C134.095 98.071 134.83 97.864 135.581 97.6004C138.572 96.5515 142.085 94.515 142.826 93.9835L142.832 93.9791L142.838 93.9746C144.507 92.6991 146.65 91.5851 148.691 91.2002C150.716 90.8182 152.554 91.1623 153.805 92.6616M158.339 66.6973C157.771 64.4578 156.028 62.5648 153.961 61.591C151.889 60.615 149.588 60.6006 147.867 61.9597L147.865 61.9609C147.042 62.6063 146.428 63.4942 145.799 64.4979C145.703 64.6505 145.607 64.8061 145.51 64.9636C144.981 65.82 144.417 66.7334 143.706 67.5325C142.823 68.5254 141.512 69.2367 140.22 69.4576C138.93 69.6781 137.554 69.4186 136.697 68.3104L136.675 68.2824L136.658 68.2516C136.238 67.5136 135.999 66.6867 135.961 65.8387C135.923 65.0013 136.082 64.1668 136.424 63.4018M153.805 92.6616L124.212 59.7645M153.805 92.6616C154.354 93.4979 154.677 94.4628 154.742 95.4617C154.807 96.4693 154.607 97.4765 154.162 98.3827L154.151 98.4051L154.142 98.4285C153.08 101.276 151.096 103.43 148.605 105.249C146.106 107.074 143.128 108.539 140.101 110.027L140.079 110.038C137.076 111.515 134.025 113.015 131.449 114.896C128.859 116.787 126.717 119.085 125.564 122.174L125.404 122.605L125.82 122.801C127.69 123.682 129.695 123.499 131.597 122.874C133.495 122.249 135.35 121.163 136.963 120.157C138.533 119.177 140.43 118.355 142.255 118.091C144.075 117.827 145.762 118.124 147.022 119.292C148.295 120.519 148.821 121.795 148.869 123.057C148.917 124.336 148.477 125.655 147.715 126.951C146.184 129.55 143.437 131.915 141.25 133.407C138.792 135.044 135.717 135.826 132.573 136.625C131.97 136.778 131.364 136.932 130.76 137.092C127.081 138.071 123.455 139.306 121.225 142.35C120.796 142.779 120.467 143.297 120.262 143.868C120.052 144.453 119.978 145.077 120.044 145.695C120.111 146.312 120.316 146.906 120.646 147.433C120.975 147.959 121.42 148.404 121.946 148.734L121.964 148.745L121.983 148.755C123.52 149.545 125.303 149.705 126.955 149.202C129.367 148.802 131.849 148.582 133.692 149.235C134.599 149.556 135.334 150.083 135.839 150.901C136.349 151.725 136.653 152.89 136.605 154.535L136.605 154.543V154.55C136.605 156.715 135.713 158.57 134.376 160.223C133.034 161.882 131.266 163.31 129.557 164.617C125.845 167.426 120.045 171.424 113.958 174.143C107.845 176.875 101.597 178.245 96.8824 176.042M153.805 92.6616L96.8824 176.042M136.424 63.4018C136.421 63.4116 136.418 63.4213 136.415 63.431L136.892 63.5795L136.437 63.3727C136.432 63.3824 136.428 63.3921 136.424 63.4018ZM136.424 63.4018C137.336 60.4745 138.497 57.5997 139.675 54.7426C139.793 54.4566 139.911 54.1709 140.029 53.8853C141.097 51.3016 142.159 48.7292 143.06 46.1171L143.064 46.1048L143.069 46.0927C145.361 40.4247 145.503 34.1151 143.47 28.3497M143.47 28.3497C143.473 28.3547 143.475 28.3597 143.477 28.3648L143.936 28.1673L143.465 28.3339C143.467 28.3392 143.469 28.3444 143.47 28.3497ZM143.47 28.3497C142.306 25.6505 140.122 23.27 137.525 21.7865C134.923 20.3007 131.948 19.7361 129.193 20.5959L129.186 20.598L129.186 20.598C125.955 21.5549 123.735 24.1271 122.413 27.4055C121.091 30.6858 120.694 34.6221 121.088 38.1762C121.407 41.0495 122.11 43.8861 122.82 46.7539C122.995 47.4609 123.17 48.1698 123.341 48.8815C124.197 52.4593 124.917 56.0914 124.711 59.7908M124.711 59.7908C124.711 59.7904 124.711 59.7899 124.711 59.7894L124.212 59.7645M124.711 59.7908C124.711 59.7913 124.711 59.7919 124.711 59.7924L124.212 59.7645M124.711 59.7908C124.607 61.8869 123.876 64.1971 122.629 65.8956C121.376 67.6008 119.541 68.7558 117.276 68.3041M124.212 59.7645C124.012 63.7889 121.395 68.6176 117.371 67.8133M117.276 68.3041C117.276 68.3043 117.277 68.3044 117.278 68.3045L117.371 67.8133M117.276 68.3041C114.895 67.8503 113.698 65.9693 112.926 63.8602C112.538 62.8005 112.243 61.6435 111.961 60.5213C111.95 60.4753 111.938 60.4293 111.927 60.3833C111.655 59.2998 111.392 58.2539 111.063 57.3135L111.059 57.3013L111.055 57.2889C110.428 55.1481 109.026 53.3173 107.123 52.1534C105.228 50.9942 102.97 50.5792 100.787 50.9879M117.276 68.3041C117.275 68.304 117.274 68.3038 117.273 68.3036L117.371 67.8133M117.371 67.8133C114.154 67.2014 113.269 63.6763 112.409 60.2527C112.139 59.1767 111.872 58.1107 111.535 57.1484L100.787 50.9879M100.787 50.9879C100.795 50.9853 100.804 50.9826 100.812 50.98L100.667 50.5018L100.76 50.9929C100.769 50.9913 100.778 50.9896 100.787 50.9879ZM100.787 50.9879C98.6688 51.6441 97.1147 53.3645 96.2527 55.5425C95.3889 57.7251 95.2426 60.3201 95.9093 62.6214M100.787 50.9879L95.4342 62.7783M95.9093 62.6214C95.9072 62.6158 95.9052 62.6102 95.9031 62.6046L95.4342 62.7783M95.9093 62.6214C95.9109 62.627 95.9126 62.6326 95.9142 62.6383L95.4342 62.7783M95.9093 62.6214C97.6194 67.2286 100.4 71.3633 104.022 74.6846M95.4342 62.7783C97.1716 67.4674 100 71.6756 103.686 75.0548M104.022 74.6846C104.022 74.684 104.021 74.6834 104.02 74.6828L103.686 75.0548M104.022 74.6846C107.822 78.0987 110.418 82.6491 111.421 87.658L111.422 87.6626C111.612 88.6586 111.574 89.6848 111.31 90.6639C111.047 91.6431 110.565 92.5498 109.9 93.316L109.882 93.3378L109.86 93.3572C108.493 94.6094 106.644 94.81 104.93 94.4098C103.217 94.01 101.56 92.9973 100.482 91.696L100.469 91.6804L100.457 91.6639C98.5643 88.9625 97.054 86.0122 95.9695 82.8969M104.022 74.6846C104.023 74.6852 104.024 74.6857 104.024 74.6862L103.686 75.0548M103.686 75.0548C107.407 78.397 109.948 82.8522 110.931 87.7562L95.9695 82.8969M95.9695 82.8969C95.9705 82.8995 95.9715 82.9022 95.9726 82.9048L96.4388 82.7242L95.9666 82.8885C95.9675 82.8913 95.9685 82.8941 95.9695 82.8969ZM95.9695 82.8969C95.4197 81.4822 94.4638 80.2616 93.2219 79.3888C91.9887 78.5221 90.5284 78.0368 89.0223 77.9928M95.9695 82.8969L88.994 77.4919M89.0223 77.9928C89.0354 77.9909 89.0485 77.9891 89.0616 77.9873L88.994 77.4919M89.0223 77.9928C89.0089 77.9924 88.9955 77.9921 88.982 77.9917L88.994 77.4919M89.0223 77.9928C87.0596 78.2768 85.6343 79.7136 84.8534 81.6533C84.0659 83.6092 83.9712 86.0022 84.6366 87.9986M88.994 77.4919C84.5659 78.0958 82.7541 83.9321 84.1623 88.1568C85.6724 92.6825 89.328 95.9641 93.0131 99.2723C94.2459 100.379 95.482 101.489 96.6422 102.649M84.6366 87.9986L84.1625 88.1567L84.6366 87.9987C84.6366 87.9986 84.6366 87.9986 84.6366 87.9986ZM84.6366 87.9986C85.6082 90.9105 87.5081 93.3108 89.7759 95.5785C90.9081 96.7107 92.1226 97.801 93.3524 98.9051L93.357 98.9091C94.5834 100.01 95.8248 101.125 96.9919 102.291M96.9919 102.291C96.9905 102.29 96.9892 102.289 96.9878 102.288L96.6422 102.649M96.9919 102.291C99.3493 104.548 101.462 107.53 102.523 110.664C103.587 113.805 103.608 117.148 101.687 120.031L101.585 120.184L101.408 120.235C99.1003 120.894 96.9351 120.165 95.01 118.916C93.0929 117.672 91.3466 115.871 89.8423 114.265M96.9919 102.291C96.9931 102.293 96.9944 102.294 96.9957 102.295L96.6422 102.649M96.6422 102.649C101.271 107.077 104.891 114.321 101.271 119.754L89.8423 114.265M89.8423 114.265C89.844 114.267 89.8458 114.269 89.8475 114.27L90.2019 113.918L89.837 114.26C89.8388 114.261 89.8405 114.263 89.8423 114.265ZM89.8423 114.265C88.3783 112.796 86.3411 111.439 84.3286 110.838C82.3176 110.239 80.433 110.414 79.0948 111.831M89.8423 114.265L78.7297 111.49M79.0948 111.831C79.0952 111.831 79.0957 111.83 79.0962 111.83L78.7297 111.49M79.0948 111.831C79.0943 111.832 79.0938 111.832 79.0934 111.833L78.7297 111.49M79.0948 111.831C77.9439 113.073 77.7792 114.687 78.2094 116.455C78.6413 118.23 79.6588 120.083 80.7511 121.671M78.7297 111.49C76.1135 114.309 78.1257 118.737 80.3413 121.957M80.7511 121.671C80.7505 121.67 80.7499 121.669 80.7493 121.668L80.3413 121.957M80.7511 121.671C83.231 125.172 85.9181 128.348 88.679 131.611C89.707 132.826 90.7453 134.053 91.7869 135.313M80.7511 121.671C80.7518 121.672 80.7525 121.673 80.7532 121.674L80.3413 121.957M80.3413 121.957L91.7869 135.313M91.7869 135.313C91.7838 135.31 91.7807 135.307 91.7777 135.303L91.4098 135.642L91.7953 135.324C91.7925 135.32 91.7897 135.317 91.7869 135.313ZM91.7869 135.313C92.931 136.559 94.3403 138.688 94.8169 140.705C95.0566 141.72 95.0749 142.77 94.6317 143.67C94.1785 144.59 93.2915 145.256 91.9277 145.585L91.9253 145.586C90.9307 145.821 89.9369 145.623 88.9887 145.217C88.0433 144.813 87.106 144.187 86.204 143.514C85.7511 143.176 85.3011 142.822 84.8598 142.472L84.7331 142.372C84.334 142.056 83.9426 141.746 83.5559 141.452C82.6961 140.799 81.8928 140.251 81.1455 139.924L81.1425 139.923C80.2666 139.533 79.4585 139.286 78.7676 139.194C78.0702 139.1 77.5375 139.169 77.172 139.357C76.8314 139.531 76.5853 139.833 76.4882 140.35C76.3867 140.89 76.4508 141.668 76.7903 142.735L76.8138 142.809V142.863M91.7869 135.313L76.9958 143.349C77.0013 143.367 77.0067 143.385 77.0121 143.403M76.8138 142.863C76.8137 142.863 76.8136 142.863 76.8134 142.862C76.8118 142.858 76.8109 142.855 76.8106 142.854C76.8113 142.857 76.8138 142.869 76.8138 142.887V142.863ZM76.8138 142.863C76.8219 142.884 76.8347 142.911 76.862 142.965L76.8654 142.972C76.8887 143.018 76.9246 143.089 76.9532 143.165C76.9769 143.228 77.0017 143.309 77.0121 143.403M77.0121 143.403C78.6172 148.711 81.0197 155.442 84.3106 161.567C87.6158 167.718 91.7836 173.194 96.8824 176.042M77.0121 143.403L96.8824 176.042" fill="#467B6C" stroke="black"/>
<path d="M97.2454 230.835C90.4015 191.38 101.874 154.563 112.942 118.941C121.795 90.1634 131.055 60.3659 130.651 29.3848H132.867C133.474 60.7786 124.011 90.564 115.155 119.545C104.098 154.966 92.8174 191.392 99.6582 230.446L97.2454 230.835Z" fill="white"/>
<path d="M94.2349 158.793C93.4942 158.754 92.7712 158.551 92.1176 158.2C91.4641 157.849 90.896 157.359 90.4539 156.763C90.0118 156.167 89.7067 155.481 89.5602 154.754C89.4137 154.027 89.4296 153.276 89.6066 152.556M94.2349 158.793L91.6097 115.526C94.0377 111.098 98.4505 106.066 103.282 107.274C113.143 109.702 109.923 122.167 106.906 128.607M94.2349 158.793C96.3609 158.604 98.3542 157.678 99.8709 156.177M94.2349 158.793L38.0756 184.548M89.6066 152.556C90.3125 146.823 94.6166 142.585 98.9271 138.342C102.03 135.287 105.136 132.229 106.906 128.607M89.6066 152.556L89.121 152.437C89.1186 152.446 89.1163 152.456 89.1139 152.466M89.6066 152.556L89.1103 152.495C89.1115 152.485 89.1127 152.476 89.1139 152.466M106.906 128.607L106.457 128.387C106.456 128.389 106.455 128.39 106.455 128.391M106.906 128.607L106.453 128.395C106.454 128.394 106.454 128.393 106.455 128.391M106.455 128.391C107.947 125.204 109.472 120.559 109.423 116.442C109.399 114.387 108.983 112.503 108.012 110.997C107.05 109.503 105.516 108.339 103.163 107.759L103.161 107.759C100.961 107.209 98.8105 108.064 96.8629 109.672C94.9171 111.279 93.2435 113.586 92.0481 115.767L92.0442 115.774L92.0401 115.781C91.9418 115.947 91.8427 116.115 91.7428 116.284C90.5222 118.355 89.1743 120.642 87.5585 122.494C85.8061 124.504 83.6824 126.071 80.9814 126.286L80.5239 126.322L80.4485 125.87C79.7233 121.517 80.6614 117.416 82.3936 113.474C84.1065 109.576 86.6125 105.798 89.0886 102.066L89.1554 101.966C91.6638 98.1847 94.1342 94.4488 95.7958 90.6104C97.4535 86.781 98.29 82.8838 97.5577 78.7845L97.5539 78.7631L97.5519 78.7414C97.4252 77.3342 96.9392 75.9832 96.1405 74.8177C95.3453 73.6573 94.2665 72.7195 93.0068 72.0935M106.455 128.391C104.726 131.927 101.695 134.912 98.5934 137.968C97.9857 138.566 97.3752 139.168 96.7712 139.776C93.1347 143.441 89.7529 147.365 89.1139 152.466M93.0068 72.0935C90.5359 71.0954 88.1223 71.9381 85.9928 73.7771C83.8546 75.6236 82.0835 78.4174 80.9981 81.0825L80.9943 81.0918L80.9902 81.1009C80.4708 82.2429 77.781 87.0629 75.0305 90.3479C74.3405 91.172 73.6361 91.9125 72.9511 92.4774C72.2756 93.0344 71.573 93.4594 70.8879 93.5844C70.5366 93.6485 70.1809 93.6352 69.8396 93.5117C69.4976 93.3878 69.2009 93.1643 68.9517 92.8556C68.4661 92.2541 68.1448 91.3107 67.9643 90.0244M93.0068 72.0935C93.0014 72.0908 92.996 72.0881 92.9906 72.0855L93.2122 71.6372L93.0236 72.1003C93.018 72.098 93.0124 72.0957 93.0068 72.0935ZM89.1139 152.466C88.9261 153.249 88.911 154.063 89.0701 154.853C89.231 155.652 89.5665 156.406 90.0524 157.061C90.5383 157.716 91.1627 158.255 91.8811 158.641C92.5995 159.027 93.3942 159.249 94.2084 159.292L94.2439 159.294L94.2793 159.291C96.5143 159.092 98.6103 158.122 100.208 156.547M100.208 156.547C102.719 154.438 105.494 152.464 108.165 151.94C109.485 151.68 110.764 151.778 111.981 152.381C113.201 152.987 114.404 154.124 115.523 156.025M100.208 156.547C100.203 156.551 100.198 156.555 100.193 156.56L99.8709 156.177M100.208 156.547C100.213 156.542 100.218 156.537 100.223 156.532L99.8709 156.177M115.523 156.025C116.967 158.613 117.17 161.457 116.727 164.327C116.283 167.206 115.193 170.076 114.088 172.686L114.086 172.69C111.677 178.514 107.673 187.177 102.425 194.528C97.1582 201.904 90.7365 207.82 83.5243 208.408M115.523 156.025C115.522 156.023 115.521 156.022 115.52 156.02L115.956 155.776M115.523 156.025C115.524 156.026 115.524 156.028 115.525 156.03L115.956 155.776M83.5243 208.408C76.0357 208.796 67.5948 205.29 59.5699 200.374C51.5666 195.471 44.053 189.213 38.427 184.191M83.5243 208.408C83.5268 208.407 83.5293 208.407 83.5318 208.407L83.5579 208.906M83.5243 208.408C83.522 208.408 83.5198 208.408 83.5175 208.408L83.5579 208.906M38.427 184.191C38.1776 183.922 37.8841 183.697 37.5594 183.526M38.427 184.191C38.4209 184.186 38.4147 184.18 38.4086 184.175L38.0756 184.548M38.427 184.191C38.4331 184.198 38.4392 184.204 38.4453 184.211L38.0756 184.548M37.5594 183.526C36.4653 182.518 35.8669 181.646 35.6193 180.919C35.3756 180.204 35.4664 179.622 35.7812 179.13C36.11 178.616 36.7154 178.153 37.583 177.779C38.4451 177.407 39.5273 177.139 40.7514 176.992L40.7567 176.992C41.8502 176.848 43.1578 176.929 44.5949 177.095C45.2608 177.172 45.9456 177.265 46.6432 177.361L46.7989 177.382C47.5482 177.485 48.3107 177.588 49.0668 177.67C50.5747 177.835 52.0856 177.922 53.4609 177.754C54.8388 177.587 56.118 177.159 57.1249 176.262L57.1316 176.256C58.5172 174.977 59.0917 173.654 58.9922 172.341C58.8946 171.053 58.1564 169.891 57.1737 168.895C55.2109 166.906 52.0608 165.366 49.926 164.553L49.9251 164.553C47.1098 163.488 44.3107 162.514 41.5188 161.542C36.8791 159.928 32.2591 158.32 27.6172 156.313M37.5594 183.526C37.5756 183.541 37.592 183.556 37.6084 183.571L37.2713 183.941L37.4937 183.493C37.5158 183.504 37.5376 183.515 37.5594 183.526ZM27.6172 156.313C25.3295 155.226 22.8775 153.75 21.1274 151.952C19.3779 150.153 18.3861 148.097 18.8442 145.806M27.6172 156.313C27.6198 156.314 27.6225 156.316 27.6251 156.317L27.4107 156.768L27.6092 156.31C27.6118 156.311 27.6145 156.312 27.6172 156.313ZM18.8442 145.806C19.3975 143.15 21.4971 141.638 24.2858 140.959C27.0801 140.278 30.4661 140.469 33.33 141.16C33.6319 141.233 33.9381 141.308 34.2477 141.383C36.9064 142.032 39.822 142.744 42.5581 142.86C45.6251 142.989 48.569 142.375 50.7221 140.006L50.8432 139.872L50.8516 139.693C51.0627 135.167 48.7941 131.359 45.4502 128.426C42.1092 125.496 37.657 123.402 33.3736 122.281C31.2443 121.723 29.0547 121.281 26.8809 120.844L26.7249 120.813C24.5991 120.386 22.4901 119.962 20.4423 119.438C16.2457 118.363 12.3596 116.878 9.22334 114.136L9.22231 114.135C7.00028 112.203 5.44809 109.294 5.03695 106.442C4.62666 103.596 5.3567 100.888 7.57903 99.2182M18.8442 145.806C18.8441 145.806 18.8439 145.807 18.8438 145.808L18.3543 145.706L18.8445 145.804C18.8444 145.805 18.8443 145.805 18.8442 145.806ZM7.57903 99.2182C9.25723 98.0083 11.2785 97.7115 13.3779 98.0001C15.4695 98.2877 17.6063 99.1537 19.4725 100.232M7.57903 99.2182C7.5778 99.2191 7.57656 99.22 7.57533 99.2209L7.28266 98.8155L7.58278 99.2154C7.58153 99.2163 7.58028 99.2173 7.57903 99.2182ZM19.4725 100.232C22.8959 103.072 26.63 105.515 30.6033 107.514L30.6357 107.531L30.6701 107.542C32.8785 108.278 35.4514 108.332 37.6443 107.644C39.8415 106.956 41.7142 105.499 42.3774 103.178L42.3856 103.149L42.3903 103.12C42.6078 101.767 42.5306 100.384 42.164 99.0642C41.7989 97.7496 41.1552 96.5291 40.2768 95.4854M19.4725 100.232C19.4617 100.223 19.4508 100.214 19.44 100.205L19.7595 99.8201L19.5086 100.253C19.4966 100.246 19.4846 100.239 19.4725 100.232ZM40.2768 95.4854C36.1425 89.9146 29.3506 87.4643 22.9284 85.4578C22.4708 85.3148 22.013 85.173 21.5558 85.0314C15.5364 83.1671 9.60755 81.3309 5.21898 77.1217C2.88528 74.8834 1.22557 71.7114 0.687606 68.4951C0.150262 65.2824 0.737602 62.0777 2.81748 59.7033M40.2768 95.4854C40.2799 95.4896 40.2831 95.4938 40.2862 95.4981L39.8845 95.7957L40.2665 95.4731C40.2699 95.4772 40.2734 95.4813 40.2768 95.4854ZM2.81748 59.7033C4.80646 57.5285 7.76472 56.6042 10.8491 56.75C13.936 56.896 17.0944 58.114 19.4146 60.1493L19.4175 60.1519C20.4177 61.0156 21.4092 62.0167 22.424 63.0411C22.514 63.132 22.6043 63.2231 22.6947 63.3143C23.7971 64.426 24.928 65.5511 26.0963 66.5011C28.4253 68.3948 31.0242 69.6897 33.9909 68.7002L33.997 68.6981C36.8575 67.7026 38.1919 65.1711 38.4827 62.361C38.7726 59.5592 38.0448 56.3928 36.7011 53.9008M2.81748 59.7033C2.81634 59.7045 2.81521 59.7058 2.81407 59.707L2.4449 59.3698L2.82082 59.6995C2.81971 59.7008 2.8186 59.702 2.81748 59.7033ZM36.7011 53.9008C34.3519 49.5121 31.0923 45.7988 27.6911 42.221C26.9495 41.4409 26.202 40.6679 25.4553 39.8959C22.764 37.1131 20.0843 34.3423 17.7369 31.2917C14.7621 27.426 12.5376 22.5729 11.8474 17.8132C11.1577 13.0568 12.0037 8.442 15.0968 4.96458M36.7011 53.9008C36.7013 53.9011 36.7014 53.9013 36.7015 53.9015L36.2607 54.1375L36.7008 53.9002C36.7009 53.9004 36.701 53.9006 36.7011 53.9008ZM15.0968 4.96458C20.5083 -1.0251 30.6559 -0.696909 37.1513 4.21271M15.0968 4.96458C15.0963 4.96505 15.0959 4.96552 15.0955 4.96598L14.7244 4.63084L15.098 4.9632C15.0976 4.96366 15.0972 4.96412 15.0968 4.96458ZM37.1513 4.21271C43.4365 9.62957 47.6427 17.0635 49.049 25.2412L49.0512 25.254L49.0541 25.2667C49.9588 29.2671 50.5101 33.371 51.0629 37.5254L51.0861 37.7C51.6288 41.7791 52.1778 45.9054 53.0704 49.9862M37.1513 4.21271C37.1473 4.20928 37.1433 4.20586 37.1393 4.20243L37.4656 3.82354L37.1637 4.22214C37.1596 4.21899 37.1554 4.21585 37.1513 4.21271ZM53.0704 49.9862C53.1605 51.0952 53.5214 52.1653 54.1215 53.1026C54.7281 54.0499 55.5602 54.832 56.5433 55.3787L56.5707 55.394L56.5998 55.4057C58.3388 56.1048 60.044 55.502 61.343 54.3646C62.6376 53.231 63.5979 51.518 63.9183 49.8012L63.9252 49.7646L63.9265 49.7275C64.0395 46.5963 64.3706 43.4769 64.9175 40.3918M53.0704 49.9862C53.0694 49.9744 53.0685 49.9625 53.0676 49.9507L53.5662 49.9128L53.0778 50.0198C53.0753 50.0086 53.0728 49.9974 53.0704 49.9862ZM64.9175 40.3918C66.054 37.6241 68.8085 36.0549 71.9101 35.7422C75.0305 35.4276 78.3915 36.4018 80.582 38.5937C85.0133 43.0279 85.2654 50.4258 83.2848 56.5829M64.9175 40.3918C64.9111 40.4075 64.9047 40.4232 64.8984 40.4389L64.4344 40.2524L64.9267 40.3401C64.9236 40.3573 64.9206 40.3746 64.9175 40.3918ZM83.2848 56.5829C80.8274 62.6542 77.6738 68.4198 73.8871 73.764L73.8761 73.7796L73.8663 73.796C73.7932 73.9178 73.7184 74.0424 73.642 74.1696C72.4616 76.1353 70.9089 78.721 69.7133 81.4226C68.4478 84.2822 67.5401 87.3613 67.9643 90.0244M83.2848 56.5829C83.2871 56.5773 83.2894 56.5717 83.2916 56.5661L83.7551 56.7536L83.2793 56.6002C83.2811 56.5944 83.283 56.5887 83.2848 56.5829ZM67.9643 90.0244C67.9641 90.0228 67.9639 90.0212 67.9636 90.0196L68.4588 89.9503L67.9651 90.0293C67.9648 90.0276 67.9646 90.026 67.9643 90.0244ZM38.0756 184.548C49.3475 194.612 68.2646 209.705 83.5579 208.906M83.5579 208.906C98.4627 207.699 109.719 184.554 114.548 172.881C116.764 167.649 118.991 161.209 115.956 155.776M115.956 155.776C111.34 147.928 104.9 151.952 99.8709 156.177" fill="#467B6C" stroke="black"/>
<path d="M90.4016 241.099C88.4839 230.169 85.7249 219.403 82.1494 208.898C79.7214 201.05 77.1205 192.998 75.3086 184.949C73.093 175.088 70.4769 165.024 67.8607 155.364C65.2305 145.76 62.8151 136.098 60.6162 126.386L60.0092 123.57C51.7601 86.3394 43.3168 47.6949 22.9824 14.6925L25.4104 13.084C45.939 46.49 54.3915 85.3318 62.6406 122.966L63.2476 125.785C65.4631 135.442 68.0792 145.306 70.4921 154.563C73.1082 164.223 75.7244 174.29 77.9399 184.348C79.7935 192.38 82.0771 200.307 84.7808 208.094C88.5409 218.696 91.3691 229.605 93.2332 240.699L90.4016 241.099Z" fill="white"/>
<path d="M106.503 355.208C113.747 305.298 116.163 260.62 123.195 210.509C100.639 221.221 74.8011 222.737 51.1475 214.737C59.5999 259.615 67.2329 312.142 75.6974 357.02C83.3577 364.668 98.4507 363.661 106.503 355.208Z" fill="#643CFF"/>
<path d="M123.219 210.509C123.219 207.288 107.923 207.489 88.013 207.489C68.1035 207.489 51.1865 212.12 51.1865 215.34C51.1865 218.56 67.2719 221.177 87.2088 221.177C107.146 221.177 123.219 213.729 123.219 210.509Z" fill="black"/>
</svg>
