<svg width="688" height="337" viewBox="0 0 688 337" fill="none" xmlns="http://www.w3.org/2000/svg">
<path d="M22.2554 336.032L18.6816 319.12L208.643 288.869L261.285 295.538V312.45L22.2554 336.032Z" fill="#FFD340"/>
<path d="M127.06 89.8579C128.847 97.8376 127.537 106.77 126.226 114.75C124.916 122.729 125.155 131.78 130.395 137.973C135.635 144.047 144.449 145.714 150.642 150.956C151.583 151.642 152.374 152.513 152.968 153.515C153.562 154.517 153.945 155.63 154.095 156.785C154.216 159.762 151.595 162.144 149.094 163.693C141.949 168.099 133.253 169.522 125.631 173.102C123.958 173.746 122.51 174.863 121.463 176.318C119.676 179.176 120.86 182.989 123.012 185.49C125.401 187.798 127.904 189.985 130.514 192.04C133.016 194.303 135.04 197.518 134.333 200.734C133.585 203.326 131.882 205.539 129.567 206.926C123.633 211.126 117.085 214.38 110.154 216.574C104.906 218.358 99.5807 219.908 94.1949 221.219C80.3607 224.591 66.1542 226.192 51.9166 225.983C46.5559 225.863 40.6023 225.744 34.7653 225.149C27.573 224.626 20.5627 222.643 14.1628 219.32C8.5649 216.223 3.6806 210.625 4.39616 204.313C5.23031 197.524 11.7809 193.357 16.9004 188.712C17.9455 187.927 18.7334 186.848 19.1636 185.614C19.2705 184.866 19.2083 184.103 18.9815 183.381C18.7547 182.66 18.3691 181.998 17.8531 181.446C15.1155 177.992 10.589 176.563 6.65942 174.3C2.72786 172.157 -0.964506 167.989 0.227424 163.701C0.800429 161.956 1.82544 160.393 3.1982 159.173C10.3438 152.264 20.5867 149.406 27.8529 142.618C29.0664 141.642 30.009 140.371 30.5905 138.926C31.5432 136.426 30.5905 133.328 30.3533 130.828C29.976 127.459 29.6584 124.084 29.4006 120.703C28.8239 114.079 28.9033 107.413 29.6377 100.804C30.0249 97.3585 30.7837 93.9646 31.901 90.682C33.5643 85.9102 36.1929 81.5324 39.623 77.8215C43.0531 74.1106 47.211 71.1463 51.8374 69.1134C56.4638 67.0806 61.4594 66.0228 66.5127 66.0061C71.566 65.9893 76.5686 67.014 81.2083 69.0162C87.4011 71.6292 93.3568 66.158 99.429 66.2766C105.742 66.3952 111.935 69.6112 116.817 73.4221C122.05 77.5328 125.675 83.3492 127.06 89.8579Z" fill="#C54016"/>
<path d="M115.746 165.365C112.73 165.469 109.756 164.63 107.237 162.966C104.719 161.302 102.782 158.895 101.695 156.079C100.607 153.263 100.425 150.178 101.171 147.254C101.918 144.329 103.557 141.71 105.861 139.759L107.648 141.902C105.443 143.879 104.042 146.598 103.712 149.541C103.382 152.484 104.147 155.446 105.861 157.861C107.049 159.372 108.57 160.588 110.305 161.414C112.041 162.241 113.943 162.655 115.865 162.625C117.689 162.648 119.492 162.239 121.127 161.432C122.762 160.625 124.183 159.442 125.274 157.98C126.681 155.85 127.451 153.363 127.493 150.81C127.536 148.258 126.849 145.746 125.513 143.57C123.013 139.52 118.478 137.854 112.888 138.807L112.412 136.067C119.081 134.875 124.673 137.138 127.889 142.141C129.498 144.792 130.319 147.846 130.256 150.947C130.193 154.047 129.247 157.066 127.531 159.648C126.223 161.484 124.488 162.974 122.475 163.99C120.463 165.005 118.233 165.516 115.98 165.477C115.865 165.365 115.865 165.365 115.746 165.365Z" fill="white"/>
<path d="M19.7526 247.544C17.1396 240.159 19.3968 231.822 23.9213 225.392C28.4458 218.962 34.9984 214.433 41.549 210.264C47.378 206.574 53.4583 203.119 57.7456 197.641C62.4207 191.359 64.4319 183.487 63.3434 175.732C62.2132 168.043 58.9541 160.824 53.9346 154.891C56.9551 153.479 60.2485 152.747 63.5826 152.746C67.893 153.105 72.0967 154.275 75.9723 156.195C79.7913 158.219 84.6655 160.959 85.2605 165.128C86.4524 172.51 88.0001 180.49 93.4793 185.612C100.743 192.399 112.058 191.567 121.585 194.544C124.028 195.21 126.302 196.387 128.256 197.997C132.899 201.929 133.973 210.861 135.402 216.459C137.286 224.282 139.589 231.997 142.302 239.572C147.938 254.933 155.46 269.535 164.694 283.042C156.477 283.995 148.973 287.687 140.873 288.52C128.896 289.678 116.909 286.417 107.169 279.35C98.9506 273.394 90.2573 269.099 80.135 268.631C72.8688 268.273 65.7233 269.823 58.5777 271.133C56.9809 271.633 55.2636 271.59 53.6934 271.012C52.6604 270.417 51.7688 269.604 51.0804 268.631C47.5066 264.343 43.9349 259.937 40.2425 255.65C38.104 252.697 35.2295 250.357 31.905 248.86C28.0901 247.544 23.6841 248.014 19.7526 247.544Z" fill="#F7846C"/>
<path d="M82.6379 204.788C80.4956 204.906 78.3483 204.906 76.2059 204.788C70.3769 204.549 64.6544 203.596 58.8174 203.477C56.4355 203.359 53.9351 203.477 51.5533 203.596C49.2253 205.36 46.7994 206.99 44.2871 208.48C50.5341 208.083 56.8059 208.403 62.9801 209.433C69.9369 210.677 76.994 211.275 84.061 211.218C85.5441 211.143 87.0181 210.941 88.4669 210.615C86.6746 208.527 84.726 206.579 82.6379 204.788ZM108.482 191.924C107.767 192.527 107.053 193.234 106.338 193.95C103.289 196.531 100.021 198.842 96.5712 200.856C96.4326 203.212 96.5927 205.576 97.0476 207.891C99.1585 206.944 101.19 205.829 103.122 204.557C108.064 201.247 112.761 197.585 117.176 193.6C114.318 192.997 111.349 192.521 108.482 191.924Z" fill="#DD4040"/>
<path d="M74.7763 178.468C78.1016 179.87 81.8178 180.038 85.2565 178.945C86.2548 178.491 87.1786 177.888 87.9961 177.158C86.6644 173.296 85.746 169.304 85.2565 165.248C84.5429 160.961 79.7792 158.213 75.9683 156.316C72.0729 154.449 67.8801 153.28 63.5806 152.863C60.4852 152.505 56.9114 153.934 53.9326 155.005C57.4549 159.279 60.1599 164.164 61.9123 169.417C65.7213 172.987 69.7754 176.679 74.7763 178.468Z" fill="black"/>
<path d="M111.817 155.353C110.206 159.458 107.752 163.18 104.613 166.278C101.474 169.375 97.7202 171.78 93.5941 173.337C84.6616 176.434 74.0629 174.052 65.7254 170.121C60.3173 167.659 55.6672 163.794 52.2584 158.927C50.6368 156.395 49.2425 153.725 48.0917 150.947C47.6153 149.755 46.1862 146.421 45.1128 143.562C43.5212 143.429 41.957 143.068 40.4677 142.491C38.916 141.964 37.4953 141.111 36.301 139.989C34.1594 137.907 32.7401 135.194 32.2509 132.248C31.7622 129.628 32.3258 126.921 33.8196 124.714C35.3133 122.507 37.6167 120.978 40.2305 120.457C43.0326 120.294 45.7943 121.186 47.9711 122.958C46.6626 112.359 46.7811 97.3526 54.2845 89.8492C65.8359 78.0586 99.8974 70.7944 110.259 89.7306C116.736 102.483 119.35 116.848 117.78 131.064C116.98 139.407 114.971 147.589 111.817 155.353Z" fill="#F7846C"/>
<path d="M86.8064 82.4723C91.9841 86.2501 97.4378 89.6344 103.122 92.5966C107.092 94.6928 111.288 96.3307 115.628 97.4789C114.912 95.3363 113.96 92.476 113.127 90.4439C104.082 68.8867 64.7728 74.6051 53.1007 86.2752C45.9552 93.5494 45.2416 110.932 47.8607 123.084C62.0332 112.604 85.6205 81.5195 86.8064 82.4723Z" fill="#C54016"/>
<path d="M99.3102 141.547C96.7972 142.939 94.0539 143.866 91.2119 144.284C90.5041 137.311 91.1922 130.266 93.2359 123.561C93.3565 134.638 95.1414 138.091 99.3102 141.547ZM43.3337 130.588C44.867 133.41 45.7237 136.55 45.8361 139.76C44.9262 138.089 43.5076 136.751 41.786 135.941C40.1197 134.988 38.4514 135.225 36.5459 133.915C37.9635 134.297 39.4665 134.214 40.8332 133.678C41.6674 133.201 41.4362 129.627 39.0463 125.698C40.6554 127.161 42.0937 128.801 43.3337 130.588ZM85.7326 128.803C85.0409 126.717 83.7391 124.887 81.9955 123.549C80.2519 122.211 78.1469 121.428 75.953 121.3C73.759 121.172 71.5772 121.705 69.6899 122.831C67.8026 123.957 66.2968 125.624 65.3673 127.615C66.917 127.734 68.4647 127.734 70.0124 127.855C74.8947 128.327 80.9689 128.803 85.7326 128.803ZM117.177 129.993C116.447 127.933 115.137 126.128 113.403 124.796C111.67 123.464 109.587 122.663 107.408 122.49C105.204 122.471 103.039 123.076 101.163 124.235C99.2878 125.394 97.7785 127.06 96.8097 129.04C98.3574 129.159 99.9071 128.922 101.455 129.04C106.219 129.517 112.293 129.993 117.177 129.993Z" fill="#DD4040"/>
<path d="M65.1309 127.968C68.1999 125.528 72.0577 124.299 75.9728 124.513C79.7887 124.568 83.4445 126.056 86.2138 128.682C86.2138 128.682 83.3555 130.469 76.3286 130.232C72.4721 130.343 68.6413 129.569 65.1309 127.968ZM96.4527 129.279C99.5206 126.84 103.377 125.61 107.291 125.824C111.115 125.853 114.783 127.344 117.542 129.993C117.542 129.993 114.683 131.779 107.656 131.54C103.812 131.51 100.008 130.742 96.4527 129.279Z" fill="white"/>
<path d="M76.2058 125.347C73.8527 126.468 71.6195 127.825 69.5406 129.397C71.7625 129.957 74.0382 130.276 76.3284 130.35C83.3634 130.468 86.2136 128.802 86.2136 128.802C83.9837 126.533 81.0398 125.103 77.8781 124.752C77.2973 124.877 76.7352 125.077 76.2058 125.347ZM100.621 130.708C102.926 131.274 105.284 131.593 107.656 131.66C114.691 131.779 117.541 130.111 117.541 130.111C115.593 128.155 113.105 126.825 110.396 126.292C106.696 126.473 103.203 128.051 100.621 130.708ZM86.091 117.966C80.9695 116.416 75.4922 114.869 70.1316 115.94C67.4069 116.63 64.7701 117.63 62.2725 118.919C65.3938 115.667 69.31 113.286 73.6337 112.011C77.9574 110.737 82.5389 110.613 86.9251 111.653C87.1789 113.794 86.8921 115.964 86.091 117.966ZM117.178 120.346C116.715 119.446 115.959 118.731 115.035 118.32C112.846 117.328 110.455 116.866 108.055 116.97C105.654 117.075 103.312 117.744 101.218 118.923C101.1 116.66 100.862 114.396 100.742 112.133C103.95 111.209 107.387 111.507 110.39 112.967C113.478 114.515 115.893 117.14 117.178 120.346Z" fill="black"/>
<path d="M95.9755 155.718C95.4313 157.044 94.5086 158.181 93.3225 158.985C92.1364 159.79 90.7395 160.227 89.3063 160.243C86.4551 160.212 83.6623 159.431 81.208 157.98C78.7075 156.551 76.4443 154.884 73.8232 153.692C81.2495 153.776 88.6573 154.453 95.9755 155.718Z" fill="#DD4040"/>
<path d="M71.6807 153.098C73.2322 153.214 74.7921 153.134 76.3238 152.861C81.7748 151.674 87.3106 150.918 92.8801 150.598C95.3806 150.598 99.6679 151.311 100.383 153.456C101.573 156.909 94.5545 156.314 91.2118 155.956C84.7798 155.243 78.1107 155.122 71.6807 153.098Z" fill="black"/>
<path d="M114.08 92.9546C113.365 84.6171 103.361 78.3037 95.1422 76.8746C87.2595 75.1521 79.016 76.5619 72.1538 80.8061C59.2898 88.9044 49.4046 103.077 42.9746 116.297C44.4411 101.063 50.9841 86.7635 61.553 75.6947C64.1135 72.929 67.0388 70.5251 70.2483 68.5491C74.674 65.839 79.7109 64.2869 84.8944 64.0361C90.078 63.7853 95.2412 64.8438 99.9079 67.114C109.077 71.7551 114.675 82.7116 114.08 92.9546Z" fill="#9778FF"/>
<path d="M46.0735 168.341C43.0568 168.445 40.0827 167.607 37.5644 165.943C35.0461 164.279 33.1088 161.871 32.0217 159.055C30.9346 156.24 30.7517 153.155 31.4984 150.23C32.2451 147.306 33.8844 144.686 36.1883 142.736L37.9833 144.881C35.7778 146.857 34.3767 149.577 34.0472 152.52C33.7176 155.463 34.4826 158.425 36.1964 160.84C37.3851 162.351 38.9064 163.566 40.6419 164.393C42.3774 165.219 44.2802 165.633 46.2022 165.604C48.0256 165.626 49.8283 165.217 51.4634 164.409C53.0986 163.602 54.5197 162.42 55.611 160.959C57.0181 158.828 57.7879 156.34 57.8299 153.787C57.8719 151.235 57.1844 148.723 55.8481 146.547C53.3477 142.499 48.8131 140.831 43.2233 141.783L42.747 139.044C49.4162 137.854 55.008 140.117 58.224 145.118C59.834 147.768 60.6554 150.823 60.592 153.924C60.5287 157.024 59.5831 160.042 57.8662 162.625C56.558 164.461 54.8228 165.951 52.8103 166.966C50.7979 167.982 48.5686 168.492 46.3147 168.454C46.1941 168.341 46.1941 168.341 46.0735 168.341Z" fill="white"/>
<path d="M130.158 275.412C133.586 269.808 135.701 263.499 136.342 256.96C136.983 250.421 136.135 243.822 133.86 237.658C131.476 231.464 127.786 225.868 125.046 219.794C121.161 211.324 119.286 202.071 119.567 192.757C117.418 191.888 115.182 191.249 112.898 190.852C114.326 198.946 114.806 207.18 114.327 215.386C96.3434 225.637 72.9993 230.75 52.634 227.773C49.6571 220.738 44.5357 214.433 39.6534 208.598C37.9205 209.827 36.0838 210.903 34.1641 211.814C46.5462 228.821 52.4967 249.668 50.9576 270.649C56.7825 281.255 60.769 292.772 62.7483 304.71C82.7558 303.399 103.003 301.731 122.891 299.231C127.428 292.085 125.75 282.439 130.158 275.412Z" fill="#643CFF"/>
<path d="M106.933 319.119L66.4395 316.5V309.831L166.602 292.68L196.257 299.349L106.933 319.119Z" fill="#D70A32"/>
<path d="M125.631 293.753C119.557 297.087 112.888 307.328 104.195 309.949C100.164 311.001 95.9206 310.918 91.9337 309.71C63.7113 314.476 7.72479 322.216 5.46153 321.501C3.31887 320.787 2.84853 316.142 2.60331 314.355C2.00031 309.71 3.55605 305.185 4.3902 300.54C5.34294 295.419 6.29568 290.179 7.12983 284.939C8.91471 274.688 10.583 264.453 12.8463 254.212C13.924 248.609 15.356 243.079 17.1336 237.658C20.826 226.82 24.8741 218.243 35.5934 214.074C42.739 228.367 43.2154 228.486 45.8444 241.587C48.5841 255.52 36.7994 277.435 29.2901 298.396C51.6795 291.489 66.4469 304.351 94.4362 294.577C96.818 291.718 101.105 287.194 103.481 284.336C105.863 281.357 108.603 278.262 112.295 277.427C114.464 277.07 116.677 277.07 118.846 277.427C125.038 278.262 131.107 278.975 137.305 279.809C136.847 280.769 136.118 281.574 135.208 282.124C134.298 282.675 133.247 282.947 132.184 282.907C134.329 283.51 136.353 283.978 138.377 284.573C138.225 285.414 137.827 286.19 137.233 286.805C136.64 287.42 135.877 287.845 135.042 288.026C134.54 288.65 133.869 289.117 133.108 289.371C132.348 289.624 131.531 289.653 130.755 289.455C128.492 288.742 126.228 288.384 124.086 287.55C124.086 288.384 124.799 288.742 125.515 288.979C126.705 289.337 127.657 290.052 128.849 290.408C129.326 290.529 129.921 291.839 130.516 293.268C130.873 294.1 131.945 296.245 132.184 297.087C128.729 298.635 126.584 295.537 125.631 293.753Z" fill="#F7846C"/>
<path d="M143.854 235.038C132.895 260.048 107.053 319.12 107.053 319.12C136.708 315.301 167.435 307.45 196.614 301.018C206.379 273.626 222.101 247.663 233.297 220.865C204.831 226.344 172.317 230.869 143.854 235.038Z" fill="#FF465A"/>
<path d="M589.582 80.3451C592.28 79.1093 595.34 78.9178 598.171 79.8077C603.537 81.598 606.042 87.5005 608.545 91.975C612.47 98.7712 615.523 105.927 618.744 112.904C638.601 157.627 658.296 202.353 678.138 247.077C685.293 263.175 692.27 281.96 684.218 297.524C678.853 307.901 667.401 314.16 655.953 316.666C644.504 318.991 632.518 318.097 620.71 317.381C599.856 316.277 578.962 316.157 558.098 317.022C516.952 318.812 475.447 324.715 435.196 317.022C413.907 312.91 393.157 301.458 394.409 276.951C395.481 255.126 411.404 236.878 425.178 221.495C437.781 207.91 451.162 195.067 465.252 183.031C482.069 168.182 499.242 153.871 516.578 139.554C532.857 126.137 550.033 113.257 565.06 98.4089C571.286 92.3539 578.12 86.9582 585.455 82.3075C586.777 81.546 588.157 80.8898 589.582 80.3451Z" fill="#14D29B"/>
<path d="M678.127 247.243C658.27 202.519 638.591 157.796 618.734 113.07C615.732 105.907 612.327 98.9193 608.535 92.141C605.851 87.6696 603.526 81.7641 598.161 79.9767C595.321 79.1635 592.288 79.3521 589.571 80.5111C588.114 81.0465 586.732 81.768 585.459 82.6577C584.028 83.5635 582.597 84.6263 581.166 85.7011C590.646 86.4166 594.752 97.1498 597.086 105.558C597.613 104.676 598.35 103.938 599.233 103.412C602.273 101.443 605.673 103.412 607.989 105.558C611.413 109.051 614.307 113.029 616.575 117.363C621.346 125.656 625.415 134.333 628.739 143.304C631.958 151.534 635.179 159.762 638.757 167.992C643.05 178.188 647.344 188.387 651.281 198.761C655.167 209.024 658.334 219.545 660.761 230.248C663.019 239.61 663.864 249.257 663.267 258.87C662.819 267.25 659.961 275.322 655.036 282.117C649.178 289.232 641.125 294.203 632.139 296.25C622.768 298.096 613.243 299.054 603.692 299.112C592.065 299.65 580.617 300.722 568.987 302.334C557.897 303.943 546.805 306.259 535.712 307.88C525.695 309.489 515.321 310.205 505.659 306.627C501.007 304.837 496.713 301.975 492.242 299.828C488.362 298.067 484.275 296.805 480.078 296.072C471.454 295.028 462.729 295.148 454.137 296.428C449.306 296.966 444.297 297.681 439.467 298.041C434.512 298.311 429.543 298.131 424.621 297.503C416.391 296.25 407.623 293.388 402.08 286.936C398.565 282.774 396.164 277.787 395.103 272.444L394.565 277.275C393.493 301.784 414.244 313.233 435.354 317.348C475.784 325.041 517.286 319.317 558.253 317.348C579.117 316.396 600.017 316.515 620.868 317.704C632.673 318.42 644.481 319.317 656.108 316.989C667.56 314.664 679.009 308.402 684.374 297.847C692.269 282.138 685.292 263.356 678.127 247.243Z" fill="#008C6E"/>
<path d="M565.252 120.419C565.45 120.598 565.682 120.735 565.935 120.823C566.187 120.911 566.454 120.948 566.72 120.931C566.987 120.915 567.248 120.845 567.487 120.726C567.726 120.608 567.939 120.443 568.114 120.241C568.759 119.352 569.133 118.295 569.189 117.198C570.318 108.12 570.558 98.9531 569.904 89.8286C570.011 86.4347 569.141 83.0815 567.399 80.1672C566.766 79.1292 565.813 78.3241 564.685 77.8723C563.556 77.4206 562.311 77.3466 561.137 77.6613C561.084 75.847 560.623 74.0681 559.786 72.4573C558.95 70.8466 557.76 69.4456 556.306 68.3592C553.325 66.119 549.808 64.7 546.107 64.244C543.63 63.7229 541.05 64.0416 538.774 65.1498C537.669 65.7665 536.803 66.7369 536.316 67.9049C535.83 69.073 535.75 70.3708 536.09 71.5897C531.076 69.1675 525.351 68.6587 519.988 70.1586C519.229 70.3679 518.52 70.7296 517.905 71.2217C517.29 71.7137 516.781 72.3259 516.411 73.0208C516.211 73.8107 516.222 74.639 516.442 75.4234C516.661 76.2078 517.083 76.9211 517.663 77.4922C516.137 77.3645 514.602 77.6101 513.192 78.2078C510.596 78.9258 508.164 80.1431 506.034 81.7916C504.99 82.6443 504.179 83.7482 503.679 84.9997C503.178 86.2513 503.003 87.6095 503.171 88.947C503.656 90.3796 504.505 91.6615 505.634 92.6672C506.764 93.6728 508.135 94.3677 509.614 94.6835C512.477 95.5892 515.695 95.5892 518.557 96.4739C521.113 97.2392 523.443 98.617 525.345 100.488C527.247 102.358 528.663 104.665 529.472 107.207C530.497 111.416 532.253 115.412 534.659 119.015C537.349 122.586 541.331 124.961 545.751 125.633C552.372 126.143 559.171 122.028 565.252 120.419Z" fill="black"/>
<path d="M566.862 141.708C571.909 127.496 580.908 115.02 592.803 105.749C589.472 112.092 587.752 119.157 587.794 126.322C587.861 129.908 588.77 133.428 590.448 136.598C592.127 139.768 594.527 142.499 597.456 144.57C601.14 146.562 605.041 148.122 609.083 149.219C610.274 149.66 611.368 150.329 612.304 151.188C614.807 154.05 613.02 158.524 612.123 162.28C611.376 165.989 611.742 169.836 613.174 173.337C614.607 176.838 617.043 179.838 620.175 181.959C621.278 182.531 622.252 183.322 623.037 184.284C623.419 185.204 623.585 186.2 623.522 187.194C623.46 188.188 623.171 189.155 622.678 190.021C618.422 202.942 618.172 216.848 621.962 229.913C622.713 231.727 623.023 233.693 622.868 235.65C622.479 237.168 621.667 238.545 620.527 239.621C619.388 240.697 617.966 241.428 616.428 241.73C613.341 242.207 610.194 242.147 607.126 241.552C591.922 239.762 575.998 240.477 561.866 246.739C547.914 253.001 535.928 265.156 532.706 280.192C525.283 275.661 516.712 273.363 508.018 273.574C499.396 273.756 490.793 274.473 482.259 275.72C469.913 276.973 457.393 267.312 444.869 267.49C456.499 254.791 466.695 253.36 482.259 251.392C496.221 249.464 509.552 244.346 521.217 236.435C532.882 228.523 542.568 218.031 549.523 205.772C560.604 186.968 559.888 161.921 566.862 141.708Z" fill="#008C6E"/>
<path d="M573.304 144.21C569.898 141.769 567.335 138.331 565.967 134.37C564.577 130.582 563.792 126.598 563.643 122.565C559.373 126.812 554.252 130.105 548.616 132.227C548.818 135.028 548.195 137.827 546.826 140.279C545.413 142.716 543.667 144.943 541.639 146.897C543.463 149.429 545.942 151.416 548.81 152.645C551.678 153.874 554.827 154.299 557.918 153.874C564.09 152.729 569.593 149.273 573.304 144.21Z" fill="#F7846C"/>
<path d="M547.902 137.043C552.374 138.655 556.658 136.137 560.067 132.928C561.53 131.524 562.904 130.031 564.182 128.457C563.823 126.488 563.644 124.532 563.466 122.376C559.196 126.623 554.074 129.916 548.437 132.037C548.713 133.724 548.528 135.453 547.902 137.043Z" fill="black"/>
<path d="M487.971 303.787C488.034 296.715 488.632 289.658 489.759 282.677C484.621 281.721 479.356 281.661 474.198 282.498C474.913 290.907 475.629 299.134 476.701 307.364C479.158 307.549 481.63 307.368 484.034 306.827C486.003 306.471 487.971 305.755 487.971 303.787ZM432.693 294.841C433.552 287.846 434.864 280.915 436.618 274.09C431.635 272.595 426.428 271.989 421.235 272.3C421.054 280.708 420.876 288.938 421.054 297.359C423.469 297.863 425.955 297.923 428.391 297.537C430.368 297.362 432.515 296.809 432.693 294.841Z" fill="#F7846C"/>
<path d="M499.957 229.007C495.663 225.789 489.939 224.714 484.559 222.926C474.093 219.731 463.383 217.398 452.537 215.949C443.749 214.244 434.684 214.611 426.062 217.021C423.548 217.667 421.219 218.892 419.263 220.599C415.417 224.463 413.179 229.642 413.001 235.091C412.228 246.042 412.89 257.048 414.97 267.828C414.253 267.907 413.573 268.183 413.005 268.625C412.436 269.068 412.001 269.659 411.748 270.334C413.391 272.1 414.56 274.253 415.148 276.593C415.507 277.846 416.053 278.92 416.401 280.17C424.395 278.173 432.765 278.235 440.729 280.351C441.794 276.941 443.427 273.734 445.56 270.868C445.01 270.443 444.358 270.17 443.669 270.076C442.98 269.982 442.279 270.071 441.635 270.334C442.885 264.25 443.244 258.166 444.497 252.264C449.723 253.015 454.798 254.581 459.539 256.904C468.897 260.802 478.917 262.867 489.054 262.985C491.742 263.042 494.409 262.492 496.855 261.377C499.302 260.262 501.466 258.611 503.187 256.545C507.662 250.999 507.662 242.234 505.334 235.794C504.14 233.116 502.29 230.782 499.957 229.007Z" fill="#D70A32"/>
<path d="M438.773 319.888C439.561 313.971 438.886 307.951 436.807 302.355C436.399 301.562 436.095 300.72 435.902 299.849C435.545 297.165 437.692 294.662 437.155 292.156C436.298 291.892 435.398 291.803 434.506 291.895C433.615 291.987 432.751 292.259 431.968 292.694C431.03 293.354 430.134 294.071 429.284 294.841C428.846 295.212 428.324 295.472 427.763 295.596C427.202 295.721 426.619 295.707 426.065 295.556C424.812 295.2 424.275 293.769 423.559 292.516C423.01 291.395 422.285 290.368 421.413 289.475C420.631 288.551 419.559 287.92 418.372 287.685C418.076 287.633 417.772 287.643 417.48 287.716C417.189 287.789 416.916 287.923 416.679 288.109C416.443 288.295 416.248 288.528 416.108 288.795C415.968 289.061 415.886 289.353 415.866 289.654C415.748 291.92 415.807 294.193 416.044 296.45C416.256 297.223 416.193 298.045 415.866 298.778C415.477 299.285 414.991 299.71 414.435 300.028C408.457 303.299 402.237 306.11 395.831 308.436C392.88 309.241 390.18 310.78 387.984 312.91C387.066 314.221 386.446 315.718 386.167 317.294C385.889 318.87 385.959 320.488 386.372 322.034C398.18 325.253 410.704 320.244 423.046 320.96C428.309 321.59 433.644 321.227 438.773 319.888Z" fill="#9778FF"/>
<path d="M495.126 324.535C495.392 321.816 495.047 319.073 494.119 316.504C493.19 313.936 491.7 311.607 489.758 309.686C490.117 308.077 490.473 306.468 490.833 305.037C491.192 303.784 491.738 302.353 490.833 301.456C490.295 300.922 488.864 301.1 488.148 300.922C488.073 302.014 487.703 303.065 487.077 303.962C486.752 304.396 486.31 304.727 485.803 304.918C485.296 305.108 484.744 305.15 484.215 305.037C483.14 304.856 482.783 303.784 482.246 302.89C481.54 301.417 480.499 300.13 479.206 299.131C478.418 298.404 477.412 297.957 476.344 297.859C475.276 297.762 474.206 298.02 473.3 298.594C469.901 300.741 471.869 301.815 473.122 307.718C471.634 311.068 469.437 314.055 466.682 316.474C464.087 318.795 461.802 321.44 459.883 324.345C458.933 325.781 458.34 327.423 458.153 329.134C457.967 330.846 458.192 332.577 458.811 334.184C460.598 334.362 462.736 335.437 464.547 335.615C468.229 336.183 471.979 336.122 475.64 335.434C477.962 334.617 480.182 333.537 482.258 332.216C486.18 329.906 491.192 326.685 495.126 324.535Z" fill="#643CFF"/>
<path d="M432.869 313.803C424.283 314.519 416.052 316.128 407.644 317.381C400.676 318.662 393.544 318.783 386.537 317.737C386.417 319.23 386.476 320.733 386.715 322.212C398.523 325.43 411.044 320.421 423.389 321.137C428.621 321.649 433.902 321.163 438.953 319.706C439.26 317.633 439.379 315.538 439.309 313.444C436.984 313.625 434.838 313.625 432.869 313.803ZM494.769 321.318C484.748 328.473 470.081 335.629 458.451 329.008C458.234 330.711 458.482 332.442 459.166 334.017C460.957 334.198 463.091 335.27 464.903 335.448C468.584 336.018 472.335 335.958 475.995 335.27C478.316 334.451 480.537 333.372 482.613 332.051C486.372 329.723 491.559 326.683 495.315 324.358C495.496 323.232 495.496 322.085 495.315 320.959C495.116 321.05 494.931 321.171 494.769 321.318Z" fill="black"/>
<path d="M574.915 140.098C574.945 141.001 575.065 141.899 575.271 142.779C591.731 154.946 606.22 170.329 613.916 189.47C617.043 196.318 618.63 203.769 618.566 211.296C618.533 215.062 617.703 218.779 616.131 222.201C614.559 225.623 612.28 228.674 609.445 231.153C606.608 233.274 603.472 234.961 600.14 236.162C586.412 241.763 571.956 245.378 557.207 246.895C550.515 247.914 543.682 247.488 537.169 245.645C531.37 243.448 526.076 240.101 521.605 235.806C513.039 228.826 506.493 219.685 502.644 209.328C500.803 204.525 500.552 199.257 501.929 194.301C504.882 183.617 510.064 173.68 517.133 165.142C520.967 161.093 525.294 157.543 530.013 154.575C533.956 151.985 537.615 148.987 540.928 145.629C541.353 144.796 541.597 143.882 541.643 142.948C544.411 145.146 547.779 146.455 551.304 146.704C554.8 146.968 558.314 146.604 561.681 145.629C566.31 144.357 570.757 142.498 574.915 140.098Z" fill="#FFD340"/>
<path d="M519.454 222.926C519.276 219.001 519.098 215.052 519.276 211.118C519.349 205.862 520.07 200.634 521.422 195.554C522.818 190.562 524.675 185.711 526.969 181.062C529.115 176.413 531.621 171.941 534.124 167.645C535.377 165.498 536.63 163.352 537.702 161.027C536.647 162.587 535.236 163.874 533.587 164.783C532.315 165.274 530.952 165.48 529.592 165.388C528.232 165.296 526.909 164.907 525.716 164.248C526.602 166.465 526.79 168.9 526.253 171.226C525.338 173.449 523.611 175.24 521.422 176.235C519.451 177.199 517.536 178.274 515.686 179.453C513.854 180.751 512.174 182.251 510.677 183.924C507.486 187.312 504.939 191.253 503.162 195.554C502.291 197.461 501.573 199.435 501.016 201.457C501.207 204.199 501.749 206.905 502.628 209.509C504.667 215.384 507.759 220.839 511.752 225.607C514.24 224.5 516.816 223.604 519.454 222.926ZM546.648 153.515C554.015 155.619 561.895 154.983 568.83 151.725C572.512 150.198 576.048 148.341 579.397 146.179C578.144 145.273 576.894 144.21 575.641 143.316C574.21 144.222 572.598 144.926 570.988 145.822C565.24 148.839 558.874 150.492 552.384 150.653C547.892 150.755 543.491 149.376 539.86 146.728C539.305 147.308 538.708 147.846 538.073 148.337C540.618 150.536 543.517 152.287 546.648 153.515ZM571.87 172.669C574.067 180.479 578.63 187.416 584.931 192.526C585.646 193.061 585.109 193.957 584.572 194.135C584.393 194.135 584.215 194.313 584.037 194.313C575.451 193.957 566.146 200.216 565.789 209.34C565.43 216.317 571.154 221.685 576.701 224.904C583.878 228.743 592.035 230.363 600.135 229.556C604.361 229.401 608.559 228.801 612.659 227.766C616.388 223.013 618.461 217.171 618.562 211.13C618.626 203.603 617.039 196.152 613.912 189.305C607.291 172.669 595.308 158.892 581.353 147.444C578.127 148.915 575.438 151.353 573.66 154.421C570.852 160.08 570.215 166.572 571.87 172.669Z" fill="#FDB849"/>
<path d="M577.953 253.517C560.156 240.097 539.925 230.254 518.382 224.533C510.013 222.134 501.324 221.047 492.622 221.311C487.365 221.302 482.259 223.067 478.13 226.32C475.943 228.439 474.236 231.001 473.121 233.835C467.038 247.421 467.575 262.994 468.291 277.842C467.742 277.52 467.111 277.365 466.475 277.396C465.839 277.428 465.227 277.645 464.713 278.021C466.297 281.367 467.383 284.927 467.934 288.588C476.274 287.71 484.7 288.94 492.441 292.165C495.13 288.968 498.056 285.978 501.197 283.223C501.553 282.863 502.103 282.148 501.731 281.61C501.553 281.432 501.197 281.432 501.016 281.254C499.631 281.102 498.258 280.863 496.903 280.539C500.028 272.145 502.538 263.536 504.415 254.779C511.906 263.384 521.441 269.967 532.143 273.92C542.96 277.919 554.871 277.791 565.599 273.561C568.841 272.381 571.776 270.485 574.186 268.015C577.775 264.787 578.132 258.716 577.953 253.517Z" fill="#FF465A"/>
<path d="M516.951 305.212C518.926 291.572 523.939 278.55 531.621 267.107C540.453 253.412 552.812 242.35 567.399 235.085C582.069 228.108 597.096 223.277 612.659 227.749C606.579 212.9 612.838 191.612 619.637 177.123C635.557 190.709 640.388 218.984 637.885 239.735C636.508 250.134 632.63 260.044 626.583 268.616C620.535 277.187 612.499 284.164 603.164 288.948C596.663 291.968 589.89 294.364 582.936 296.103C561.853 301.459 538.943 306.118 516.951 305.212Z" fill="#14D29B"/>
<path d="M575.808 204.856C572.299 201.632 568.53 198.703 564.538 196.101C561.935 194.089 558.851 192.793 555.592 192.342C551.663 192.622 547.918 194.115 544.873 196.614C541.829 199.114 539.636 202.497 538.597 206.296C539.062 206.502 539.574 206.578 540.079 206.515C540.583 206.452 541.062 206.253 541.462 205.94C542.34 205.277 543.176 204.56 543.965 203.794C545.259 202.473 546.856 201.49 548.618 200.928C545.657 203.384 543.532 206.697 542.534 210.412C543.45 210.697 544.434 210.677 545.338 210.354C546.241 210.031 547.015 209.423 547.543 208.621C548.61 207.006 550.094 205.709 551.836 204.865C550.13 207.247 549.424 210.2 549.868 213.096C550.571 213.181 551.283 213.035 551.897 212.68C552.51 212.325 552.991 211.78 553.267 211.127C553.983 209.696 554.173 208.265 555.414 207.202C555.236 209.171 554.876 210.961 554.698 212.939C555.292 213.069 555.913 213 556.463 212.741C557.014 212.482 557.463 212.048 557.742 211.508C558.419 210.166 558.843 208.71 558.992 207.214C560.96 207.395 562.916 209.361 564.538 210.614C565.587 211.296 566.784 211.717 568.029 211.841C569.274 211.966 570.53 211.79 571.693 211.329C572.816 210.622 573.767 209.675 574.479 208.556C575.19 207.436 575.645 206.173 575.808 204.856ZM523.57 96.9837C523.508 103.178 524.169 109.359 525.539 115.401C526.792 120.766 528.579 127.743 532.694 131.68C535.451 134.133 539.022 135.472 542.712 135.436C547.702 135.418 552.614 134.19 557.026 131.858C560.339 130.45 563.102 128.001 564.897 124.881C566.384 121.554 567.175 117.958 567.222 114.314C567.698 109.739 567.817 105.134 567.578 100.54C567.044 94.2785 565.613 86.0482 560.96 81.3987C558.893 79.2577 556.376 77.6016 553.592 76.5496C550.808 75.4977 547.825 75.076 544.859 75.315C541.287 75.6476 537.837 76.7863 534.77 78.6455C531.702 80.5047 529.096 83.0358 527.148 86.0482C524.855 89.2285 523.605 93.0419 523.57 96.9626" fill="#F7846C"/>
<path d="M561.497 81.5984C559.353 79.3758 556.76 77.6359 553.891 76.4947C551.022 75.3535 547.943 74.8372 544.858 74.9804C537.524 75.5148 527.329 80.1674 524.645 89.6476C528.222 87.8602 531.263 89.4695 535.915 88.7418C540.746 88.0263 548.436 84.986 553.266 83.733C553.626 83.733 553.804 83.9111 553.804 84.0893C553.885 86.5093 554.627 88.8608 555.951 90.8885C556.856 92.3196 558.097 93.3944 558.991 94.8134C560.078 96.1434 560.761 97.7569 560.959 99.463C561.198 101.601 561.258 103.755 561.137 105.903C561.137 107.871 560.959 110.018 560.781 111.987C562.928 111.808 565.075 111.449 567.221 111.271C567.578 107.76 567.758 104.233 567.759 100.704C567.399 94.4723 566.146 86.251 561.497 81.5984Z" fill="black"/>
<path d="M568.834 102.349C569.412 101.841 570.104 101.479 570.85 101.292C571.597 101.106 572.378 101.101 573.127 101.277C573.779 101.628 574.285 102.198 574.558 102.886C575.001 103.933 575.23 105.058 575.23 106.195C575.23 107.332 575.001 108.457 574.558 109.504C573.234 113.314 570.473 116.457 566.865 118.26C566.572 118.55 566.208 118.758 565.809 118.863C565.41 118.967 564.99 118.965 564.592 118.856C564.194 118.747 563.832 118.535 563.542 118.242C563.252 117.949 563.045 117.584 562.94 117.185C562.403 115.498 562.403 113.685 562.94 111.998C563.634 108.16 565.735 104.718 568.834 102.349Z" fill="#F7846C"/>
<path d="M565.432 115.051C565.462 112.797 566.029 110.582 567.087 108.59C568.145 106.599 569.663 104.889 571.515 103.603C569.861 105.911 568.54 108.441 567.59 111.117C568.697 110.382 570.029 110.061 571.349 110.212C569.254 111.66 567.279 113.276 565.444 115.042" fill="#DD4040"/>
<path d="M538.418 106.108C537.744 104.498 536.476 103.21 534.877 102.51C533.279 101.81 531.472 101.753 529.832 102.349C529.208 102.516 528.625 102.811 528.12 103.213C527.615 103.616 527.199 104.118 526.897 104.689C526.595 105.26 526.414 105.887 526.365 106.531C526.316 107.175 526.401 107.823 526.613 108.433C530.687 108.755 534.771 107.951 538.418 106.108ZM557.026 102.349C556.35 100.74 555.081 99.4521 553.482 98.7528C551.883 98.0536 550.076 97.9964 548.436 98.593C547.812 98.7604 547.23 99.0547 546.725 99.4574C546.22 99.8601 545.803 100.363 545.501 100.934C545.199 101.504 545.018 102.132 544.969 102.776C544.92 103.42 545.005 104.067 545.218 104.677C549.293 104.999 553.378 104.194 557.026 102.349Z" fill="white"/>
<path d="M533.588 105.039C532.812 104.283 531.903 103.677 530.907 103.252L529.295 102.715C528.216 103.178 527.337 104.009 526.813 105.059C526.289 106.109 526.154 107.311 526.432 108.451C529.586 108.665 532.75 108.239 535.735 107.198C535.065 106.434 534.348 105.713 533.588 105.039ZM552.195 101.634C550.723 100.556 549.094 99.712 547.364 99.1309C546.458 99.7013 545.759 100.549 545.372 101.548C544.985 102.547 544.931 103.645 545.218 104.677C548.371 104.878 551.532 104.452 554.52 103.424C553.672 102.929 552.891 102.327 552.195 101.634Z" fill="black"/>
<path d="M541.462 113.083C540.556 108.971 539.493 105.212 538.597 101.097C538.756 105.583 537.9 110.048 536.094 114.158C537.919 114.008 539.72 113.647 541.462 113.083Z" fill="#DD4040"/>
<path d="M535.018 98.2338C533.01 98.0795 530.995 98.4234 529.151 99.2351C527.308 100.047 525.694 101.301 524.451 102.886C524.396 101.713 524.573 100.54 524.972 99.4347C525.371 98.3296 525.984 97.3141 526.776 96.4465C528.472 94.6707 530.767 93.5874 533.216 93.4061C534.182 94.8542 534.799 96.5068 535.018 98.2338ZM555.591 95.0154C553.544 94.5126 551.441 94.2721 549.332 94.2998C547.182 94.3431 545.081 94.9602 543.249 96.0872C542.504 94.5924 542.19 92.9196 542.343 91.2565C544.677 90.5156 547.177 90.4769 549.532 91.1452C551.887 91.8135 553.994 93.1593 555.591 95.0154ZM537.165 124.362L536.987 122.575C538.983 122.391 540.959 122.031 542.893 121.5C544.703 121.175 546.453 120.572 548.079 119.712C549.608 118.884 550.808 117.557 551.479 115.953L553.088 116.491C552.286 118.465 550.834 120.106 548.973 121.143C547.196 122.142 545.252 122.809 543.237 123.112C541.274 123.784 539.234 124.204 537.165 124.362Z" fill="black"/>
<path d="M525.182 224.359C517.489 207.182 509.618 190.009 501.744 172.836C477.952 169.615 453.621 170.868 430.008 167.1C439.31 184.451 448.078 201.268 457.199 218.8C480.349 223.564 503.77 226.909 527.328 228.818L550.763 232.036V227.027L525.182 224.359Z" fill="white"/>
<path d="M471.332 197.523C471.488 198.678 471.888 199.787 472.505 200.776C473.122 201.765 473.943 202.612 474.912 203.26C475.761 203.826 476.754 204.14 477.774 204.165C478.686 204.034 479.54 203.644 480.236 203.042C480.932 202.439 481.44 201.649 481.699 200.766C482.605 197.547 480.794 190.748 476.691 190.033C472.763 189.293 470.975 194.302 471.332 197.523Z" fill="black"/>
<path d="M481.171 314.873C477.435 312.322 472.992 311.008 468.469 311.117V308.971C473.418 308.983 478.26 310.41 482.424 313.086L481.171 314.873ZM479.921 318.457C475.55 315.884 470.478 314.757 465.429 315.236L465.251 313.089C470.748 312.537 476.275 313.793 480.993 316.667L479.921 318.457ZM418.381 307.005C416.587 304.439 414.191 302.351 411.404 300.925L412.309 298.956C415.468 300.517 418.177 302.857 420.18 305.755L418.381 307.005ZM412.657 309.511C410.667 307.01 408.242 304.888 405.498 303.249L406.573 301.459C409.568 303.185 412.184 305.498 414.266 308.258L412.657 309.511Z" fill="white"/>
<path d="M331.566 329.279C318.96 290.674 314.429 250.098 321.925 210.306C315.143 210.804 308.325 210.407 301.647 209.126C301.482 250.248 295.311 291.125 283.33 330.463C291.254 333.928 299.939 335.285 308.542 334.402C316.352 333.375 324.056 331.66 331.566 329.279Z" fill="#FDB849"/>
<path d="M306.55 320.809C304.549 310.619 303.428 300.276 303.199 289.893C303.13 279.283 303.854 268.682 305.367 258.18C306.154 252.861 306.942 247.542 307.926 242.223C308.714 237.901 309.701 233.557 310.094 229.225C310.525 227.789 310.491 226.253 309.996 224.838C309.501 223.423 308.57 222.201 307.338 221.346C305.434 220.371 303.361 219.768 301.231 219.571C300.154 257.179 294.06 294.475 283.11 330.47C291.034 333.935 299.719 335.292 308.322 334.409C308.667 334.464 309.021 334.394 309.319 334.21C308.277 329.768 307.353 325.3 306.55 320.809Z" fill="#FFD340"/>
<path d="M324.079 258.961C321.166 266.546 320.086 274.712 320.928 282.793C321.716 289.295 323.687 296.19 321.925 302.493C321.137 303.281 319.561 302.885 318.577 302.297C315.168 300.128 312.598 296.863 311.291 293.039C310.643 289.878 309.72 286.78 308.531 283.78C306.956 280.629 303.804 277.87 304.592 274.522C305.117 273.127 305.922 271.853 306.956 270.779C310.143 266.91 312.314 262.306 313.272 257.385C315.076 256.818 316.984 256.665 318.856 256.938C320.727 257.211 322.512 257.902 324.079 258.961Z" fill="black"/>
<path d="M332.354 269.992C329.44 277.578 328.36 285.745 329.202 293.828C329.99 300.327 331.958 307.221 330.199 313.524C329.412 314.312 327.836 313.916 326.852 313.328C323.441 311.16 320.869 307.895 319.562 304.07C318.917 300.909 317.995 297.811 316.806 294.812C315.23 291.66 312.079 288.901 312.867 285.554C313.389 284.157 314.193 282.882 315.23 281.81C318.418 277.941 320.589 273.338 321.546 268.417C323.361 267.94 325.254 267.833 327.11 268.104C328.967 268.375 330.751 269.017 332.354 269.992Z" fill="black"/>
<path d="M278.972 182.341C273.065 182.929 267.154 187.264 267.154 193.174C267.348 196.645 268.901 199.899 271.476 202.233C277.579 208.34 286.641 210.311 295.308 211.295C307.599 212.805 320.02 212.937 332.34 211.688C341.981 210.69 352.233 208.536 359.128 201.641C361.232 199.783 362.682 197.297 363.263 194.551C364.26 188.235 358.144 182.537 351.841 181.553C345.383 181.128 338.927 182.418 333.128 185.293C323.674 188.84 313.429 192.187 303.386 190.611C294.337 189.431 289.208 181.553 278.972 182.341Z" fill="#D70A32"/>
<path d="M334.125 274.127C342.792 250.887 349.291 229.611 356.973 206.172C359.097 200.916 360.168 195.295 360.125 189.627C359.267 183.581 356.82 177.872 353.034 173.082C348.788 166.81 343.975 160.941 338.656 155.549C328.047 153.253 317.133 152.721 306.351 153.974C304.888 157.751 304.323 161.817 304.699 165.85C305.075 169.884 306.382 173.775 308.518 177.217C313.065 183.603 319.258 188.636 326.439 191.781C329.918 193.112 333.17 194.972 336.08 197.296C329.578 220.539 320.319 271.162 320.911 271.162C323.291 276.098 329.002 276.883 334.125 274.127Z" fill="#643CFF"/>
<path d="M306.161 157.126C319.622 165.171 332.522 174.122 344.77 183.916C346.653 185.372 348.311 187.097 349.693 189.036C350.407 191.192 350.687 193.469 350.516 195.734C350.345 198 349.726 200.209 348.695 202.233C341.997 221.142 337.466 233.751 326.832 258.962C324.295 260.653 321.193 261.271 318.203 260.68C315.213 260.09 312.578 258.339 310.875 255.811C315.01 237.69 318.953 218.978 322.301 200.658C314.556 200.734 306.847 199.604 299.449 197.31C292.95 195.339 286.255 192.187 282.708 186.28C280.281 181.761 279.383 176.578 280.148 171.507C280.922 166.496 282.311 161.6 284.284 156.93C292.169 155.946 299.064 152.99 306.161 157.126Z" fill="#9778FF"/>
<path d="M256.716 154.168C248.638 154.76 228.941 152.792 223.031 154.368C222.639 154.564 223.23 157.519 223.23 157.912C223.331 160.071 224.246 162.113 225.79 163.626C228.004 164.999 230.491 165.873 233.077 166.186C239.127 167.263 245.253 167.855 251.397 167.958C262.623 168.549 273.853 168.549 285.079 168.549C309.702 168.549 334.126 168.549 358.749 167.552C367.415 167.157 376.082 166.555 384.748 165.976C391.643 165.581 398.537 165.385 405.232 164.401C410.355 163.613 415.87 162.037 416.867 156.126C417.096 154.75 417.029 153.34 416.671 151.991C409.58 150.415 397.959 154.155 391.074 153.763C368.027 152.383 344.983 152.766 321.929 152.975C300.843 152.988 278.184 152.397 256.716 154.168Z" fill="#FDB849"/>
<path d="M256.716 146.292C248.771 146.884 240.873 148.004 233.077 149.643C228.153 150.64 219.091 152.991 225.198 156.538C231.514 160.081 242.927 159.885 251.397 160.277C262.623 160.869 273.853 160.869 285.079 160.869C320.732 160.673 357.369 160.869 392.626 157.718C397.749 157.325 424.34 155.746 414.899 150.231C409.973 147.279 398.155 146.688 391.26 146.292C368.216 144.916 345.169 145.295 322.115 145.504C300.843 145.308 278.184 144.52 256.716 146.292Z" fill="#FFD340"/>
<path d="M313.838 80.5033C300.923 85.9454 286.428 86.3017 273.261 81.5006C270.39 80.5198 267.62 79.2664 264.987 77.7575C269.914 77.1691 271.49 74.4099 273.654 71.2585C279.578 62.244 283.102 51.8654 283.889 41.1071C284.478 33.0324 283.298 24.562 286.449 17.079C288.713 11.4753 292.904 6.86446 298.267 4.07772C306.933 -0.649429 320.919 -1.63342 329.585 3.08044C330.936 3.75875 332.137 4.70059 333.118 5.85045C334.098 7.00031 334.839 8.33491 335.296 9.77557C336.183 9.57856 337.107 9.62063 337.972 9.89748C338.838 10.1743 339.615 10.676 340.223 11.3513C341.439 12.7337 342.375 14.3391 342.979 16.0784C344.852 22.1304 345.651 28.4633 345.342 34.7909C345.484 50.9429 342.125 66.9339 335.496 81.6635C327.823 78.532 320.929 77.3519 313.838 80.5033Z" fill="black"/>
<path d="M341.399 80.8959C338.692 80.4106 336.048 79.6176 333.521 78.5323C331.073 77.6565 328.852 76.2434 327.022 74.3969C323.674 70.2615 323.87 64.1547 324.067 59.2314C318.28 61.0966 312.123 61.502 306.142 60.4116C306.338 67.7018 306.537 74.593 299.443 78.7318C295.62 80.7605 291.365 81.8413 287.037 81.8832C292.498 87.7507 299.931 91.3975 307.914 92.1254C313.966 92.6325 320.058 91.8981 325.816 89.9671C331.574 88.0362 336.877 84.9493 341.399 80.8959Z" fill="#C54016"/>
<path d="M312.065 84.6385C310.208 84.4204 308.366 84.0873 306.55 83.6412C303.003 82.6439 299.456 81.6699 296.109 80.4898C294.295 81.0416 292.454 81.5021 290.594 81.8694C294.407 83.4361 298.365 84.6231 302.412 85.4131C305.584 86.2574 308.803 86.9156 312.052 87.3844L312.065 84.6385ZM333.534 78.7312C333.338 78.7312 333.338 78.5318 333.534 78.7312C333.059 78.8914 332.598 79.0881 332.154 79.3196C330.5 80.1596 328.789 80.8838 327.035 81.4871C323.942 82.6516 320.786 83.6383 317.58 84.4424C317.616 85.05 317.749 85.6481 317.973 86.2142C318.019 86.5502 318.084 86.8832 318.169 87.2115C319.846 86.8034 321.493 86.2768 323.095 85.6358C325.459 84.8479 327.823 84.2562 330.186 83.2722C332.746 82.2749 335.306 81.1048 337.869 79.9213C336.394 79.6415 334.944 79.2436 333.534 78.7312Z" fill="#962727"/>
<path d="M306.161 62.7741C307.38 64.4227 308.766 65.9411 310.296 67.3051C310.966 67.8917 311.748 68.3343 312.596 68.6054C313.443 68.8765 314.338 68.9702 315.223 68.8809C317.298 68.3692 319.243 67.4306 320.934 66.125C322.118 65.3372 323.102 64.5493 324.086 63.7581C324.054 62.3148 324.119 60.871 324.282 59.4365C318.496 61.3017 312.338 61.7071 306.357 60.6166C306.187 61.3223 306.12 62.0492 306.161 62.7741Z" fill="black"/>
<path d="M347.914 32.6398C347.134 31.9263 346.115 31.5308 345.057 31.5308C344 31.5308 342.981 31.9263 342.2 32.6398C340.738 34.2106 339.66 36.0981 339.049 38.1548C340.376 31.8467 339.899 25.2923 337.672 19.2428C337.097 17.471 336.231 15.8072 335.109 14.3196C333.5 12.2107 331.405 10.5218 329.003 9.39628C324.732 6.78753 319.825 5.40723 314.821 5.40723C309.817 5.40723 304.91 6.78753 300.64 9.39628C298.319 10.6521 296.248 12.3205 294.526 14.3196C293.443 15.8302 292.581 17.4881 291.967 19.2428C289.799 25.3496 289.011 47.6091 291.571 47.4129C292.184 51.8252 294.349 55.8747 297.678 58.8352C300.544 60.8595 303.655 62.5136 306.936 63.7585C309.34 64.92 311.952 65.5902 314.618 65.7298C317.277 65.5415 319.88 64.8737 322.301 63.7585C325.654 62.678 328.788 61.011 331.559 58.8352C333.278 57.4263 334.702 55.6921 335.75 53.7322C336.798 51.7722 337.449 49.6248 337.666 47.4129C338.922 47.5284 340.187 47.3377 341.353 46.8571C342.519 46.3766 343.551 45.6206 344.361 44.6538C346.049 42.7559 347.204 40.4447 347.708 37.9553C348.312 37.2103 348.658 36.2899 348.695 35.3318C348.732 34.3737 348.459 33.4293 347.914 32.6398Z" fill="#C54016"/>
<path d="M318.564 54.1092C318.137 54.5049 317.571 54.7174 316.988 54.7009C316.019 54.9277 315.029 55.0591 314.033 55.0932C313.053 55.1369 312.086 54.8603 311.277 54.3053C313.62 53.448 316.179 53.3791 318.564 54.1092ZM338.852 43.867C340.534 43.0727 342.328 42.5413 344.171 42.2913C343.47 41.7435 342.666 41.3412 341.808 41.1079C343.093 39.3365 344.539 37.6883 346.129 36.1846C343.274 36.9697 340.772 38.7067 339.039 41.1079" fill="#962727"/>
<path d="M322.9 58.0475C322.514 58.4358 322.052 58.7411 321.544 58.9446C321.036 59.1481 320.491 59.2456 319.944 59.231C317.777 59.231 315.413 59.4271 313.246 59.4271C311.108 59.7653 308.919 59.4922 306.93 58.6392C309.689 59.231 312.248 56.6679 315.004 56.8674C317.172 56.8674 319.931 59.0315 322.886 58.0475H322.9ZM333.73 46.0335C331.661 47.6875 329.092 48.59 326.443 48.5932C323.92 48.5536 321.486 47.6501 319.549 46.0335C321.524 46.6996 323.641 46.8319 325.684 46.4168C327.727 46.0018 329.625 45.0541 331.184 43.6699C331.394 44.2357 331.733 44.7442 332.176 45.1547C332.618 45.5652 333.15 45.8662 333.73 46.0335ZM297.881 46.0335C299.951 47.6871 302.521 48.5895 305.171 48.5932C307.694 48.5536 310.128 47.6501 312.066 46.0335C310.09 46.6996 307.973 46.8319 305.93 46.4168C303.887 46.0018 301.99 45.0541 300.431 43.6699C300.22 44.236 299.88 44.7448 299.437 45.1554C298.994 45.5659 298.461 45.8667 297.881 46.0335Z" fill="black"/>
<path d="M287.246 67.3056C289.839 66.3798 291.962 64.4685 293.153 61.9867C294.439 58.461 294.845 54.6749 294.337 50.9567C294.104 48.9182 294.508 46.8575 295.495 45.0584C296.481 43.2593 298.001 41.8102 299.845 40.9106C303.392 39.3349 307.331 40.3189 310.875 39.1388C313.573 38.016 315.803 35.9995 317.191 33.4276C318.46 31.1915 319.453 28.8093 320.147 26.3336C320.593 23.7885 321.253 21.2854 322.118 18.8506C323.89 14.9113 328.221 13.3356 331.373 17.0787C330.937 19.3597 330.604 21.6591 330.376 23.97C329.673 28.2971 330.436 32.7348 332.543 36.5791C333.238 37.8391 334.353 38.8146 335.694 39.3349C336.346 39.6552 337.086 39.7517 337.798 39.6092C338.51 39.4668 339.155 39.0935 339.634 38.5471C341.139 32.348 341.274 25.8951 340.029 19.6385C337.966 13.1831 333.433 7.8056 327.42 4.67911C323.875 2.65046 319.869 1.56538 315.785 1.52768C313.593 1.4977 311.407 1.76269 309.286 2.31553C305.319 3.10114 301.561 4.71166 298.256 7.04269C294.887 9.39095 292.283 12.679 290.77 16.497C289.449 20.7642 288.915 25.2362 289.194 29.6945C289.194 38.1648 289.194 46.6484 288.998 55.1021C289.204 59.2447 288.609 63.3881 287.246 67.3056Z" fill="black"/>
<path d="M335.505 36.5787C333.147 35.9944 330.696 35.8849 328.295 36.2564C325.894 36.6279 323.591 37.4731 321.52 38.7428C321.348 37.417 321.482 36.0694 321.912 34.8035C324.072 33.5597 326.511 32.8827 329.003 32.8356C330.211 32.8225 331.412 33.0228 332.55 33.4273C333.242 33.7058 333.865 34.1321 334.376 34.6764C334.886 35.2208 335.272 35.87 335.505 36.5787Z" fill="black"/>
<path d="M338.461 46.0336C337.843 46.8225 337.494 47.788 337.463 48.7894C337.267 49.7648 337.267 50.7694 337.463 51.7447C337.561 52.2323 337.804 52.6789 338.16 53.026C338.517 53.373 338.969 53.6043 339.459 53.6895C339.949 53.7747 340.454 53.7098 340.906 53.5034C341.358 53.2969 341.738 52.9585 341.995 52.5326C344.172 49.5773 341.612 42.0943 338.461 46.0336Z" fill="#FFD340"/>
<path d="M333.533 133.489C337.855 125.807 342.2 117.928 346.338 109.853C349.58 104.145 351.906 97.9631 353.23 91.5333C353.691 89.5025 353.555 87.3816 352.837 85.4265C351.066 81.4872 346.338 80.1076 342.2 79.1104C329.594 87.9763 313.049 92.1117 298.276 87.5807C293.981 86.575 290.118 84.229 287.246 80.8822C284.853 81.0321 282.535 81.7775 280.503 83.0506C278.471 84.3237 276.789 86.0843 275.611 88.1724C274.424 91.3195 274.217 94.7523 275.019 98.019C276.063 102.192 277.589 106.229 279.567 110.05C282.929 117.106 286.609 124.007 290.597 130.73C304.101 136.825 319.36 137.805 333.533 133.489Z" fill="#008C6E"/>
<path d="M346.139 150.821C352.641 133.488 358.549 115.367 364.064 97.835C331.047 93.8932 297.645 94.4893 264.79 99.6068C270.459 117.101 277.102 134.264 284.686 151.017C305.958 150.821 324.867 152.397 346.139 150.821Z" fill="#D70A32"/>
<path d="M346.139 155.157V150.836C313.246 150.444 317.381 150.64 284.687 151.032L285.079 155.171L346.139 155.157Z" fill="#FF465A"/>
<path d="M308.322 122.459C307.518 124.11 307.173 125.947 307.325 127.778C307.372 129.312 307.888 130.794 308.803 132.026C309.719 133.258 310.989 134.181 312.444 134.669C314.069 135.049 315.768 134.955 317.34 134.396C318.912 133.837 320.29 132.838 321.31 131.517C324.658 127.578 323.278 122.263 319.339 118.716C315.413 115.368 309.898 119.108 308.322 122.459Z" fill="#FFD340"/>
<path d="M396.762 127.778C394.648 125.861 391.93 124.746 389.079 124.626H387.703C387.899 122.851 387.899 121.079 388.095 119.108C379.824 118.912 370.762 119.307 362.498 119.503C362.89 130.017 364.076 140.486 366.045 150.822C372.94 151.018 378.847 150.034 385.938 150.034C386.137 148.458 386.137 146.882 386.333 145.111H386.725C388.743 144.844 390.687 144.174 392.44 143.139C394.399 142.172 396.057 140.689 397.237 138.85C398.417 137.011 399.073 134.885 399.135 132.701C399.14 131.754 398.929 130.818 398.517 129.965C398.106 129.112 397.506 128.364 396.762 127.778ZM389.867 138.02C388.93 138.404 387.928 138.605 386.915 138.611C387.111 136.245 387.307 133.881 387.307 131.321C388.576 131.47 389.829 131.733 391.05 132.109C394.006 133.685 392.034 137.032 389.867 138.02Z" fill="#FF465A"/>
<path d="M261 163.848H268.305V333.078H261V163.848ZM377.696 160H385V329.23H377.696V160ZM286.866 165.77H294.17V335H286.866V165.77Z" fill="#FDB849"/>
<path d="M375.687 114.99C372.931 110.855 375.886 105.35 378.838 101.401C381.79 97.4515 384.749 91.9464 381.989 87.8077C380.29 85.7888 377.916 84.4543 375.308 84.0512C370.081 82.8404 365.09 80.7772 360.534 77.9445C358.288 76.522 356.453 74.5378 355.209 72.1881C353.966 69.8384 353.357 67.2047 353.444 64.5476C353.969 62.1021 354.993 59.7909 356.45 57.7578C357.907 55.7248 359.767 54.0132 361.914 52.7297C366.211 50.2085 370.181 47.1659 373.732 43.671C376.883 39.9279 378.655 34.0306 375.899 29.8818C380.427 31.2614 382.003 36.5803 382.215 41.108C381.871 45.8142 382.337 50.5445 383.592 55.0933C385.955 60.8078 392.062 63.9592 396.593 67.8985C402.504 73.0179 406.639 81.8838 403.092 88.9745C400.602 93.0809 396.779 96.2091 392.261 97.8371C387.784 99.4484 383.538 101.639 379.629 104.353C376.082 107.291 374.111 110.443 375.687 114.99Z" fill="#FFD340"/>
</svg>
