<svg width="32" height="32" viewBox="0 0 32 32" fill="none" xmlns="http://www.w3.org/2000/svg">
<rect width="32" height="32" rx="16" fill="#F7F7F7"/>
<path d="M7.615 13.24H10.4102V24.385H7.615V13.24Z" stroke="#333333" stroke-width="1.23"/>
<path d="M21.8199 13.3615L21.8043 13.3566C21.769 13.3454 21.7505 13.3392 21.7375 13.3348C21.727 13.3313 21.7201 13.3289 21.7107 13.3262C21.6742 13.3182 21.6376 13.3113 21.6008 13.3054L21.5878 13.3033L21.5749 13.3007C21.3778 13.2604 21.1771 13.24 20.9759 13.24L21.8199 13.3615ZM21.8199 13.3615L21.8358 13.3656M21.8199 13.3615L21.8358 13.3656M21.8358 13.3656C22.5643 13.5537 23.2099 13.9783 23.6712 14.5727C24.1324 15.167 24.3835 15.8975 24.385 16.6498C24.385 16.65 24.385 16.6501 24.385 16.6503L24.385 24.385M21.8358 13.3656L24.385 24.385M24.385 24.385H21.5909V17.125V17.0031L21.5444 16.8905C21.1714 15.9861 20.5862 15.4425 19.8116 15.3753C19.1171 15.3151 18.462 15.6652 17.9698 16.0233C17.4568 16.3967 17.002 16.8671 16.6829 17.2315C16.5214 17.416 16.3901 17.5785 16.2987 17.6956C16.2529 17.7543 16.2169 17.8018 16.1919 17.8353L16.1627 17.8748L16.1545 17.8861L16.152 17.8895L16.1512 17.8906L16.1509 17.891C16.1508 17.8912 16.1507 17.8913 16.6502 18.25L16.1507 17.8913L16.0352 18.0521V18.25V24.385H13.24V13.24H16.0352V14.9909V16.8477L17.1437 15.358C17.609 14.7325 18.9372 13.24 20.9758 13.24L24.385 24.385Z" stroke="#333333" stroke-width="1.23"/>
<path d="M10.3225 8.96875C10.3225 9.71641 9.71641 10.3225 8.96875 10.3225C8.22109 10.3225 7.615 9.71641 7.615 8.96875C7.615 8.22109 8.22109 7.615 8.96875 7.615C9.71641 7.615 10.3225 8.22109 10.3225 8.96875Z" stroke="#333333" stroke-width="1.23"/>
</svg>
