<svg id="Layer_2" data-name="Layer 2" xmlns="http://www.w3.org/2000/svg" viewBox="0 0 356.94 356.94"><path d="M156.74,89.29A67.45,67.45,0,1,0,117,150.77c4.88-2.21,8.89-4.32,25.14,1.14,1.9.64,4.21,1.29,6.83,2.1a6,6,0,0,0,7.74-5.7Z" style="fill:#00b87c"/><path d="M198.17,267.65a67.45,67.45,0,1,0,39.71-61.48c-4.89,2.21-8.89,4.31-25.14-1.15-1.91-.64-4.22-1.28-6.83-2.09a6,6,0,0,0-7.74,5.69Z" style="fill:#dc1aa3"/><circle cx="267.65" cy="89.29" r="67.45" style="fill:#1a61db"/><circle cx="89.29" cy="267.65" r="67.45" style="fill:#fea162"/></svg>