<svg width="16" height="16" viewBox="0 0 16 16" fill="none" xmlns="http://www.w3.org/2000/svg">
<path fill-rule="evenodd" clip-rule="evenodd" d="M8.44913 2.12448C9.96586 0.60639 12.3768 0.6281 13.8678 2.17327C15.3589 3.71844 15.3798 6.21688 13.9149 7.78867L13.9077 7.79645L11.9489 9.82621C11.9489 9.82623 11.9489 9.82618 11.9489 9.82621C11.156 10.6481 10.0576 11.0728 8.93895 10.9898C7.82026 10.9067 6.79153 10.3243 6.11974 9.39358C5.92098 9.11822 5.97526 8.72802 6.24098 8.52205C6.50669 8.31608 6.88322 8.37233 7.08198 8.64769C7.54493 9.28907 8.25386 9.69045 9.02479 9.74767C9.79571 9.80489 10.5526 9.51229 11.099 8.94583L13.054 6.91986C14.0601 5.83647 14.0445 4.11742 13.0181 3.05381C11.9916 1.98999 10.3323 1.97405 9.2869 3.01721L8.16709 4.17092C7.93177 4.41336 7.55136 4.41221 7.3174 4.16835C7.08345 3.92449 7.08456 3.53026 7.31988 3.28782L8.44913 2.12448Z" fill="#616061"/>
<path fill-rule="evenodd" clip-rule="evenodd" d="M4.0512 6.17371C4.8441 5.35177 5.9424 4.92722 7.06105 5.01025C8.17974 5.09327 9.20847 5.67572 9.88026 6.60642C10.079 6.88178 10.0247 7.27197 9.75902 7.47794C9.49331 7.68391 9.11678 7.62766 8.91802 7.3523C8.45507 6.71093 7.74614 6.30954 6.97521 6.25233C6.20429 6.19511 5.44739 6.4877 4.90097 7.05417L2.94597 9.08012C1.93993 10.1635 1.9555 11.8826 2.98186 12.9462C4.00822 14.0098 5.66706 14.0259 6.7125 12.9834L7.82514 11.8303C8.05977 11.5872 8.44019 11.5872 8.67483 11.8303C8.90946 12.0735 8.90946 12.4677 8.67483 12.7109L7.55093 13.8756C6.0342 15.3936 3.62322 15.3719 2.13217 13.8267C0.641128 12.2815 0.620178 9.7831 2.08509 8.21132L2.09234 8.20354L4.0512 6.17371C4.05122 6.17369 4.05117 6.17374 4.0512 6.17371Z" fill="#616061"/>
</svg>
