<svg width="30" height="31" viewBox="0 0 30 31" fill="none" xmlns="http://www.w3.org/2000/svg">
<path d="M30 15.5C30 13.0332 29.3916 10.6045 28.2288 8.42905C27.066 6.25356 25.3846 4.39842 23.3336 3.02796C21.2825 1.65749 18.9251 0.814014 16.4703 0.572229C14.0154 0.330444 11.5387 0.697817 9.25975 1.64181C6.98076 2.5858 4.96974 4.07727 3.40484 5.9841C1.83994 7.89093 0.769463 10.1543 0.288221 12.5736C-0.193021 14.993 -0.0701691 17.4937 0.645895 19.8543C1.36196 22.2148 2.64913 24.3623 4.3934 26.1066L5.83485 24.6652C4.32763 23.1579 3.21538 21.3023 2.59663 19.2625C1.97788 17.2228 1.87173 15.0619 2.28757 12.9713C2.70341 10.8808 3.62841 8.92502 4.98064 7.27732C6.33287 5.62963 8.07058 4.34085 10.0399 3.52515C12.0091 2.70945 14.1492 2.392 16.2704 2.60093C18.3917 2.80986 20.4287 3.53871 22.201 4.72292C23.9733 5.90713 25.4262 7.51016 26.431 9.39C27.4358 11.2698 27.9615 13.3685 27.9615 15.5H30Z" fill="#FEA162"/>
<path d="M8.948 17.824C9.02533 17.824 9.08667 17.8467 9.132 17.892C9.17733 17.9373 9.2 17.996 9.2 18.068V18.5H5.376V18.256C5.376 18.2053 5.38667 18.1533 5.408 18.1C5.42933 18.0467 5.46267 17.9973 5.508 17.952L7.344 16.108C7.496 15.9533 7.63467 15.8053 7.76 15.664C7.88533 15.52 7.992 15.376 8.08 15.232C8.168 15.088 8.236 14.9427 8.284 14.796C8.332 14.6467 8.356 14.488 8.356 14.32C8.356 14.152 8.32933 14.0053 8.276 13.88C8.22267 13.752 8.14933 13.6467 8.056 13.564C7.96533 13.4813 7.85733 13.42 7.732 13.38C7.60667 13.3373 7.472 13.316 7.328 13.316C7.18133 13.316 7.04667 13.3373 6.924 13.38C6.80133 13.4227 6.692 13.4827 6.596 13.56C6.50267 13.6347 6.424 13.724 6.36 13.828C6.296 13.932 6.25067 14.0467 6.224 14.172C6.192 14.2653 6.148 14.328 6.092 14.36C6.03867 14.3893 5.96267 14.3973 5.864 14.384L5.492 14.32C5.52933 14.0587 5.60133 13.828 5.708 13.628C5.81733 13.4253 5.95333 13.256 6.116 13.12C6.28133 12.984 6.46933 12.8813 6.68 12.812C6.89067 12.74 7.11867 12.704 7.364 12.704C7.60667 12.704 7.83333 12.74 8.044 12.812C8.25467 12.884 8.43733 12.9893 8.592 13.128C8.74667 13.264 8.868 13.4307 8.956 13.628C9.044 13.8253 9.088 14.0493 9.088 14.3C9.088 14.5133 9.056 14.712 8.992 14.896C8.928 15.0773 8.84133 15.2507 8.732 15.416C8.62267 15.5813 8.496 15.7427 8.352 15.9C8.21067 16.0573 8.06 16.216 7.9 16.376L6.388 17.92C6.49467 17.8907 6.60267 17.868 6.712 17.852C6.82133 17.8333 6.92667 17.824 7.028 17.824H8.948ZM10.0846 18.06C10.0846 17.9907 10.0966 17.9253 10.1206 17.864C10.1473 17.8027 10.182 17.7493 10.2246 17.704C10.27 17.6587 10.3233 17.6227 10.3846 17.596C10.446 17.5693 10.5113 17.556 10.5806 17.556C10.65 17.556 10.7153 17.5693 10.7766 17.596C10.838 17.6227 10.8913 17.6587 10.9366 17.704C10.982 17.7493 11.018 17.8027 11.0446 17.864C11.0713 17.9253 11.0846 17.9907 11.0846 18.06C11.0846 18.132 11.0713 18.1987 11.0446 18.26C11.018 18.3187 10.982 18.3707 10.9366 18.416C10.8913 18.4613 10.838 18.496 10.7766 18.52C10.7153 18.5467 10.65 18.56 10.5806 18.56C10.5113 18.56 10.446 18.5467 10.3846 18.52C10.3233 18.496 10.27 18.4613 10.2246 18.416C10.182 18.3707 10.1473 18.3187 10.1206 18.26C10.0966 18.1987 10.0846 18.132 10.0846 18.06ZM14.4513 16.432V14.068C14.4513 13.9987 14.4539 13.9227 14.4593 13.84C14.4646 13.7573 14.4726 13.6733 14.4833 13.588L12.3953 16.432H14.4513ZM15.9433 16.432V16.84C15.9433 16.8827 15.9299 16.9187 15.9033 16.948C15.8793 16.9773 15.8406 16.992 15.7873 16.992H15.0753V18.5H14.4513V16.992H11.9073C11.8539 16.992 11.8073 16.9773 11.7673 16.948C11.7299 16.916 11.7059 16.8773 11.6953 16.832L11.6233 16.468L14.4113 12.768H15.0753V16.432H15.9433ZM19.0919 16.432V14.068C19.0919 13.9987 19.0945 13.9227 19.0999 13.84C19.1052 13.7573 19.1132 13.6733 19.1239 13.588L17.0359 16.432H19.0919ZM20.5839 16.432V16.84C20.5839 16.8827 20.5705 16.9187 20.5439 16.948C20.5199 16.9773 20.4812 16.992 20.4279 16.992H19.7159V18.5H19.0919V16.992H16.5479C16.4945 16.992 16.4479 16.9773 16.4079 16.948C16.3705 16.916 16.3465 16.8773 16.3359 16.832L16.2639 16.468L19.0519 12.768H19.7159V16.432H20.5839ZM22.0925 12.608V16.076H22.2765C22.3298 16.076 22.3738 16.0693 22.4085 16.056C22.4458 16.04 22.4845 16.0093 22.5245 15.964L23.8045 14.592C23.8418 14.5467 23.8805 14.512 23.9205 14.488C23.9632 14.4613 24.0192 14.448 24.0885 14.448H24.7325L23.2405 16.036C23.1685 16.1267 23.0912 16.1973 23.0085 16.248C23.0565 16.28 23.0992 16.3173 23.1365 16.36C23.1765 16.4 23.2138 16.4467 23.2485 16.5L24.8325 18.5H24.1965C24.1352 18.5 24.0818 18.4907 24.0365 18.472C23.9938 18.4507 23.9565 18.4133 23.9245 18.36L22.5925 16.7C22.5525 16.644 22.5125 16.608 22.4725 16.592C22.4352 16.5733 22.3765 16.564 22.2965 16.564H22.0925V18.5H21.3765V12.608H22.0925Z" fill="black"/>
</svg>
