<svg width="95" height="73" viewBox="0 0 95 73" fill="none" xmlns="http://www.w3.org/2000/svg">
<path d="M95 19.5522C95 8.77117 86.229 0 75.4478 0C67.6613 0 60.9241 4.57577 57.7817 11.1792H0V72.6416H83.8208V37.2183C90.4242 34.0761 95 27.3388 95 19.5522ZM58.6259 29.5068L41.9104 43.8345L10.3069 16.7456H56.0981C55.9658 17.6624 55.8958 18.5992 55.8958 19.5522C55.8958 23.185 56.8928 26.5891 58.6259 29.5068ZM31.1127 41.9104L5.56641 63.8072V20.0136L31.1127 41.9104ZM35.3892 45.5761L41.9104 51.1657L48.4316 45.5761L73.514 67.0752H10.3068L35.3892 45.5761ZM78.2544 63.8072L52.7081 41.9104L62.1196 33.8434C65.6146 37.1049 70.3017 39.1044 75.4478 39.1044C76.4008 39.1044 77.3376 39.0346 78.2544 38.9021V63.8072ZM75.4478 33.538C67.7361 33.538 61.4622 27.2641 61.4622 19.5522C61.4622 11.8403 67.7361 5.56641 75.4478 5.56641C83.1595 5.56641 89.4336 11.8403 89.4336 19.5522C89.4336 27.2641 83.1597 33.538 75.4478 33.538Z" fill="#00B87C"/>
<path d="M73.296 20.5625L69.6743 16.9408L65.7383 20.8768L73.296 28.4345L85.1559 16.5747L81.2199 12.6387L73.296 20.5625Z" fill="#00B87C"/>
</svg>
