<svg width="561" height="394" viewBox="0 0 561 394" fill="none" xmlns="http://www.w3.org/2000/svg">
<path d="M170.055 113.219C195.18 113.219 215.548 92.8479 215.548 67.7194C215.548 42.5909 195.18 22.2202 170.055 22.2202C144.93 22.2202 124.562 42.5909 124.562 67.7194C124.562 92.8479 144.93 113.219 170.055 113.219Z" fill="#F6F5F5"/>
<path d="M355.874 253.747C416.405 253.747 465.475 204.677 465.475 144.146C465.475 83.6154 416.405 34.5454 355.874 34.5454C295.343 34.5454 246.273 83.6154 246.273 144.146C246.273 204.677 295.343 253.747 355.874 253.747Z" fill="#F6F5F5"/>
<path d="M259.184 40.4653C266.543 33.1053 266.543 21.1725 259.184 13.8125C251.825 6.45258 239.894 6.45258 232.535 13.8125C225.176 21.1725 225.176 33.1053 232.535 40.4653C239.894 47.8253 251.825 47.8253 259.184 40.4653Z" fill="#F6F5F5"/>
<path d="M547.676 172.034C555.035 164.674 555.035 152.742 547.676 145.382C540.318 138.022 528.386 138.022 521.028 145.382C513.669 152.742 513.669 164.674 521.028 172.034C528.386 179.394 540.318 179.394 547.676 172.034Z" fill="#F6F5F5"/>
<path d="M158.191 285.562H0V374.614H158.191V285.562Z" fill="#F0F2F8"/>
<path opacity="0.5" d="M56.6773 285.562H0V374.614H56.6773V285.562Z" fill="white"/>
<path opacity="0.3" d="M86.6719 285.553L86.6719 307.245L101.431 307.245L101.431 285.553L86.6719 285.553Z" fill="white"/>
<path d="M388.227 188.532H126.918V374.614H388.227V188.532Z" fill="#102048"/>
<path d="M413.666 122.751H365.328V78.6141C365.328 69.7137 372.55 62.4912 381.449 62.4912C385.898 62.4912 389.935 64.2908 392.852 67.2089C395.721 70.0785 397.545 74.0666 397.569 78.4682V78.6141L397.545 106.629C397.545 106.774 397.545 106.92 397.569 107.042V107.893L397.618 107.869C398.25 116.21 405.18 122.751 413.666 122.751Z" fill="#F0F2F8"/>
<path d="M429.546 97.0085V106.76C429.546 111.21 427.747 115.247 424.829 118.141C421.936 121.059 417.9 122.859 413.45 122.859C404.964 122.859 398.01 116.317 397.402 107.976L429.546 97.0085Z" fill="white"/>
<path d="M381.449 62.4912C381.109 62.4912 380.768 62.5155 380.452 62.5399C380.234 62.5642 380.015 62.5642 379.82 62.5885C379.577 62.6128 379.358 62.6371 379.139 62.6858C378.993 62.7101 378.872 62.7344 378.726 62.7587C378.556 62.783 378.386 62.8317 378.215 62.856C377.972 62.9046 377.729 62.9533 377.486 63.0262C377.146 63.1235 376.805 63.2208 376.465 63.3423C376.295 63.391 376.124 63.4639 375.954 63.5126C375.784 63.5612 375.614 63.6342 375.468 63.7071C375.225 63.8044 375.006 63.9017 374.787 63.9989C374.593 64.0962 374.398 64.1692 374.204 64.2908C374.155 64.3151 374.082 64.3394 374.033 64.388C373.863 64.4853 373.693 64.5826 373.523 64.6798C372.842 65.0689 372.185 65.4823 371.602 65.9687C371.432 66.1146 371.237 66.2605 371.091 66.3821C370.897 66.5523 370.727 66.6982 370.532 66.8685C370.338 67.0387 370.167 67.2089 369.997 67.3792C369.511 67.8655 369.073 68.3762 368.635 68.9355C368.441 69.1787 368.271 69.4219 368.101 69.6651C367.566 70.4919 367.104 71.343 366.69 72.2671C366.593 72.486 366.496 72.7291 366.399 72.948C366.131 73.6532 365.912 74.3828 365.742 75.1123C365.693 75.3798 365.645 75.623 365.596 75.8662C365.499 76.3768 365.426 76.8875 365.402 77.3982V303.508H149.926V87.6361C149.926 73.7505 161.183 62.5155 175.043 62.5155H381.449V62.4912Z" fill="white"/>
<path d="M338.898 85.5447H175.383V94.1533H338.898V85.5447Z" fill="#F0F3F8"/>
<path d="M326.23 110.762H175.383V119.371H326.23V110.762Z" fill="#F0F3F8"/>
<path d="M318.28 135.956H175.383V144.565H318.28V135.956Z" fill="#F0F3F8"/>
<path d="M338.898 161.174H175.383V169.782H338.898V161.174Z" fill="#F0F3F8"/>
<path d="M327.225 186.684H238.574V195.292H327.225V186.684Z" fill="#F0F3F8"/>
<path d="M256.423 235.004C255.45 235.004 254.55 234.663 253.918 233.812C253.165 232.767 253.213 231.332 253.237 230.383L254.064 208.132L255.304 208.181L254.477 230.432C254.429 231.478 254.453 232.45 254.915 233.107C255.961 234.542 258.465 233.302 258.976 233.034C261.456 231.697 263.231 229.216 264.957 226.784C266.878 224.109 268.847 221.313 271.838 220.024C273.613 219.246 274.926 220.389 275.972 221.288C276.555 221.799 277.139 222.285 277.722 222.456C279.278 222.918 280.835 222.504 282.488 222.091C283.947 221.702 285.454 221.313 287.01 221.556C288.421 221.775 289.563 222.334 290.682 222.893C292.311 223.696 293.721 224.401 295.764 223.89C298.584 223.21 301.186 221.605 303.715 220.048C304.444 219.61 305.173 219.148 305.927 218.711C308.772 217.057 313.051 214.966 317.306 215.938L317.039 217.13C313.197 216.255 309.234 218.2 306.559 219.756C305.83 220.17 305.1 220.632 304.371 221.07C301.769 222.675 299.07 224.328 296.055 225.058C293.575 225.641 291.825 224.79 290.123 223.963C289.101 223.453 288.056 222.942 286.816 222.748C285.527 222.553 284.19 222.893 282.804 223.258C281.078 223.72 279.278 224.182 277.382 223.623C276.531 223.38 275.85 222.772 275.169 222.188C274.075 221.24 273.346 220.68 272.349 221.118C269.674 222.285 267.875 224.815 265.978 227.465C264.179 229.994 262.307 232.621 259.584 234.08C258.587 234.639 257.444 235.004 256.423 235.004Z" fill="#102048"/>
<path opacity="0.3" d="M365.687 196.714V303.859H150.211V187.375L217.514 243.38C221.234 246.469 226.097 247.66 230.887 246.979C232.273 246.785 233.707 246.712 235.118 246.736L280.999 248.025C282.58 248.073 284.16 248.268 285.692 248.608C290.458 249.63 295.418 248.706 299.357 245.788L365.687 196.714Z" fill="#F0F3F8"/>
<path d="M225.172 265.669L223.373 267.663L142.284 357.591L126.941 374.614V188.532L225.172 265.669Z" fill="#00B87C"/>
<path d="M388.228 188.532L289.973 265.669L388.228 374.614V188.532Z" fill="#00B87C"/>
<path d="M223.374 267.663L142.285 357.592L126.918 360.972V327.899C167.45 298.839 212.919 265.158 223.325 264.429L223.374 267.663Z" fill="#008559"/>
<path d="M291.77 267.663L372.859 357.592L388.225 360.972V327.899C347.693 298.839 302.225 265.158 291.818 264.429L291.77 267.663Z" fill="#008559"/>
<path d="M388.227 374.614H126.918L126.967 350.126L217.004 268.441C221.721 264.161 227.872 261.778 234.267 261.778H280.173C286.446 261.778 292.525 264.088 297.217 268.247L388.47 349.275L388.227 374.614Z" fill="#00B87C"/>
<path opacity="0.4" d="M402.605 361.481C420.133 343.95 420.133 315.527 402.605 297.996C385.076 280.465 356.657 280.465 339.129 297.996C321.6 315.527 321.6 343.95 339.129 361.481C356.657 379.012 385.076 379.012 402.605 361.481Z" fill="#008559"/>
<path d="M416.12 361.485C433.649 343.954 433.649 315.53 416.12 297.999C398.592 280.468 370.173 280.468 352.644 297.999C335.116 315.53 335.116 343.954 352.644 361.485C370.173 379.015 398.592 379.015 416.12 361.485Z" fill="#00B87C"/>
<path d="M383.408 354.065C381.268 354.065 379.226 353.165 377.767 351.56L361.889 334.027C360.528 332.519 360.625 330.185 362.157 328.823C363.664 327.461 365.998 327.558 367.36 329.091L383.237 346.624C383.262 346.648 383.335 346.721 383.456 346.697C383.578 346.673 383.627 346.6 383.627 346.551L400.72 307.642C401.546 305.769 403.71 304.918 405.583 305.745C407.455 306.572 408.306 308.736 407.479 310.609L390.386 349.518C389.34 351.901 387.201 353.555 384.648 353.968C384.234 354.017 383.821 354.065 383.408 354.065Z" fill="white"/>
</svg>
