<svg width="32" height="32" viewBox="0 0 32 32" fill="none" xmlns="http://www.w3.org/2000/svg">
<rect width="32" height="32" rx="16" fill="#F7F7F7"/>
<path d="M13.9263 22.5881C14.2508 22.4908 14.435 22.1488 14.3376 21.8243C14.2403 21.4998 13.8983 21.3156 13.5738 21.413L13.9263 22.5881ZM8.64883 19.1554C8.32014 19.0732 7.98707 19.2731 7.9049 19.6018C7.82272 19.9305 8.02257 20.2635 8.35126 20.3457L8.64883 19.1554ZM18.3865 24.2506C18.3865 24.5894 18.6612 24.8641 19 24.8641C19.3388 24.8641 19.6135 24.5894 19.6135 24.2506H18.3865ZM19 21.3481L18.3884 21.3C18.3872 21.316 18.3865 21.332 18.3865 21.3481H19ZM18.295 19.3906L18.227 18.7809C17.9944 18.8068 17.7968 18.9629 17.7177 19.1831C17.6385 19.4034 17.6916 19.6495 17.8545 19.8176L18.295 19.3906ZM23.125 14.1406H23.7385V14.1405L23.125 14.1406ZM22 11.3281L21.4252 11.1136C21.3432 11.3335 21.3938 11.5811 21.5557 11.7511L22 11.3281ZM21.9325 8.50059L22.4963 8.25892C22.4245 8.09129 22.2818 7.96432 22.1069 7.91246L21.9325 8.50059ZM19 9.61059L18.8395 10.2027C19.0109 10.2491 19.1941 10.219 19.3416 10.1202L19 9.61059ZM13.75 9.61059L13.4084 10.1202C13.5559 10.219 13.7391 10.2491 13.9105 10.2027L13.75 9.61059ZM10.8175 8.50059L10.643 7.91246C10.4682 7.96432 10.3255 8.09129 10.2536 8.25892L10.8175 8.50059ZM10.75 11.3281L11.1943 11.7511C11.3562 11.5811 11.4068 11.3336 11.3247 11.1136L10.75 11.3281ZM9.62499 14.1631H10.2385L10.2384 14.1598L9.62499 14.1631ZM14.455 19.4131L14.8958 19.8397C15.0576 19.6726 15.1109 19.4284 15.0335 19.209C14.9562 18.9897 14.7614 18.833 14.5306 18.8043L14.455 19.4131ZM13.75 21.3481H14.3635C14.3635 21.3337 14.3629 21.3194 14.3619 21.3051L13.75 21.3481ZM13.1365 24.2506C13.1365 24.5894 13.4112 24.8641 13.75 24.8641C14.0888 24.8641 14.3635 24.5894 14.3635 24.2506H13.1365ZM13.5738 21.413C12.706 21.6733 12.1158 21.6767 11.6984 21.579C11.289 21.4832 10.9874 21.2765 10.7151 21.0043C10.5755 20.8647 10.4459 20.7101 10.311 20.5412C10.1837 20.3817 10.0358 20.1886 9.89282 20.0207C9.60407 19.6817 9.2176 19.2976 8.64883 19.1554L8.35126 20.3457C8.53248 20.391 8.70852 20.5225 8.95883 20.8163C9.08535 20.9649 9.20114 21.1175 9.35216 21.3066C9.49561 21.4863 9.65897 21.6833 9.84751 21.8718C10.2315 22.2558 10.7267 22.6117 11.4188 22.7737C12.1031 22.9338 12.9191 22.8903 13.9263 22.5881L13.5738 21.413ZM19.6135 24.2506V21.3481H18.3865V24.2506H19.6135ZM19.6116 21.3962C19.6823 20.4972 19.3632 19.6111 18.7354 18.9636L17.8545 19.8176C18.237 20.2122 18.4315 20.7521 18.3884 21.3L19.6116 21.3962ZM18.3629 20.0003C19.5749 19.8652 20.9328 19.5596 21.9879 18.6723C23.0729 17.76 23.7385 16.3208 23.7385 14.1406H22.5115C22.5115 16.0554 21.9396 17.1099 21.1983 17.7332C20.4272 18.3816 19.3701 18.6535 18.227 18.7809L18.3629 20.0003ZM23.7385 14.1405C23.7382 12.9359 23.2749 11.7775 22.4443 10.9051L21.5557 11.7511C22.1691 12.3955 22.5114 13.251 22.5115 14.1407L23.7385 14.1405ZM22.5747 11.5426C22.9718 10.4787 22.9437 9.30268 22.4963 8.25892L21.3686 8.74226C21.6917 9.49603 21.712 10.3453 21.4252 11.1136L22.5747 11.5426ZM21.9325 8.50059C22.1069 7.91246 22.1063 7.91228 22.1057 7.9121C22.1055 7.91204 22.1049 7.91187 22.1045 7.91175C22.1037 7.91151 22.1029 7.91127 22.102 7.91102C22.1003 7.91054 22.0986 7.91004 22.0968 7.90954C22.0932 7.90853 22.0893 7.90749 22.0853 7.90642C22.0771 7.90429 22.0681 7.90206 22.0581 7.89979C22.0381 7.89524 22.0144 7.89055 21.9871 7.88619C21.9323 7.87745 21.8631 7.8701 21.7791 7.86779C21.6107 7.86316 21.3858 7.87882 21.1011 7.94202C20.5328 8.06819 19.7297 8.38292 18.6584 9.10102L19.3416 10.1202C20.3178 9.46576 20.9809 9.2255 21.367 9.13979C21.5595 9.09705 21.6838 9.09256 21.7453 9.09425C21.7763 9.0951 21.7922 9.09754 21.7938 9.0978C21.7947 9.09794 21.7921 9.09754 21.786 9.09617C21.783 9.09549 21.7792 9.09456 21.7745 9.09334C21.7722 9.09273 21.7696 9.09204 21.7669 9.09128C21.7655 9.09089 21.7641 9.09049 21.7626 9.09006C21.7619 9.08985 21.7611 9.08964 21.7604 9.08941C21.76 9.0893 21.7594 9.08913 21.7592 9.08907C21.7586 9.0889 21.758 9.08873 21.9325 8.50059ZM19.1605 9.01849C17.3364 8.52413 15.4136 8.52413 13.5895 9.01849L13.9105 10.2027C15.5244 9.76529 17.2256 9.76529 18.8395 10.2027L19.1605 9.01849ZM14.0916 9.10102C13.0203 8.38292 12.2172 8.06819 11.6489 7.94202C11.3642 7.87882 11.1392 7.86316 10.9709 7.86779C10.8869 7.8701 10.8177 7.87745 10.7629 7.88619C10.7355 7.89055 10.7119 7.89524 10.6919 7.89979C10.6819 7.90206 10.6729 7.90429 10.6647 7.90642C10.6606 7.90749 10.6568 7.90853 10.6532 7.90954C10.6514 7.91004 10.6496 7.91054 10.6479 7.91102C10.6471 7.91127 10.6463 7.91151 10.6454 7.91175C10.645 7.91187 10.6444 7.91204 10.6442 7.9121C10.6436 7.91228 10.643 7.91246 10.8175 8.50059C10.9919 9.08873 10.9914 9.0889 10.9908 9.08907C10.9906 9.08913 10.99 9.0893 10.9896 9.08941C10.9889 9.08964 10.9881 9.08985 10.9874 9.09007C10.9859 9.09049 10.9845 9.09089 10.9831 9.09128C10.9804 9.09204 10.9778 9.09273 10.9755 9.09334C10.9708 9.09456 10.967 9.09549 10.9639 9.09617C10.9579 9.09754 10.9553 9.09794 10.9561 9.0978C10.9578 9.09754 10.9737 9.0951 11.0046 9.09425C11.0662 9.09256 11.1905 9.09705 11.383 9.13979C11.7691 9.2255 12.4322 9.46576 13.4084 10.1202L14.0916 9.10102ZM10.2536 8.25892C9.80627 9.30268 9.7782 10.4787 10.1752 11.5426L11.3247 11.1136C11.038 10.3453 11.0583 9.49603 11.3813 8.74226L10.2536 8.25892ZM10.3057 10.9051C9.46891 11.784 9.00509 12.9528 9.01154 14.1664L10.2384 14.1598C10.2337 13.2635 10.5763 12.4002 11.1943 11.7511L10.3057 10.9051ZM9.01153 14.1631C9.01153 16.3302 9.67829 17.761 10.7621 18.6723C11.815 19.5577 13.1705 19.8717 14.3794 20.0219L14.5306 18.8043C13.3845 18.662 12.3249 18.3834 11.5517 17.7332C10.8092 17.1089 10.2385 16.061 10.2385 14.1631H9.01153ZM14.0142 18.9865C13.394 19.6273 13.0755 20.5016 13.138 21.3911L14.3619 21.3051C14.3238 20.763 14.5179 20.2302 14.8958 19.8397L14.0142 18.9865ZM13.1365 21.3481V24.2506H14.3635V21.3481H13.1365Z" fill="#333333"/>
</svg>
