<svg width="32" height="32" viewBox="0 0 32 32" fill="none" xmlns="http://www.w3.org/2000/svg">
<rect width="32" height="32" rx="16" fill="#F7F7F7"/>
<g clip-path="url(#clip0)">
<path d="M12.625 7.5H19.375C20.7342 7.5 22.0378 8.03995 22.9989 9.00108C23.96 9.9622 24.5 11.2658 24.5 12.625V19.375C24.5 20.7342 23.96 22.0378 22.9989 22.9989C22.0378 23.96 20.7342 24.5 19.375 24.5H12.625C11.2658 24.5 9.9622 23.96 9.00108 22.9989C8.03995 22.0378 7.5 20.7342 7.5 19.375V12.625C7.5 11.2658 8.03995 9.9622 9.00108 9.00108C9.9622 8.03995 11.2658 7.5 12.625 7.5ZM19.375 23.8125C21.8224 23.8125 23.8125 21.8224 23.8125 19.375V12.625C23.8125 10.1776 21.8224 8.1875 19.375 8.1875H12.625C10.1776 8.1875 8.1875 10.1776 8.1875 12.625V19.375C8.1875 21.8224 10.1776 23.8125 12.625 23.8125H19.375Z" stroke="#333333"/>
<path d="M15.9994 19.3125H16C17.8264 19.3125 19.3125 17.8264 19.3125 16C19.3125 14.1724 17.8263 12.6875 16 12.6875C14.1737 12.6875 12.6875 14.1724 12.6875 16L12.6875 16.0006C12.6886 16.8786 13.0378 17.7204 13.6587 18.3413C14.2796 18.9622 15.1214 19.3114 15.9994 19.3125ZM13.1716 13.1716C13.9217 12.4214 14.9391 12 16 12C17.0609 12 18.0783 12.4214 18.8284 13.1716C19.5786 13.9217 20 14.9391 20 16C20 17.0609 19.5786 18.0783 18.8284 18.8284C18.0783 19.5786 17.0609 20 16 20C14.9391 20 13.9217 19.5786 13.1716 18.8284C12.4214 18.0783 12 17.0609 12 16C12 14.9391 12.4214 13.9217 13.1716 13.1716Z" stroke="#333333"/>
<path d="M20.8379 11.7618C21.1691 11.7618 21.4375 11.4933 21.4375 11.1621C21.4375 10.831 21.1691 10.5625 20.8379 10.5625C20.5067 10.5625 20.2383 10.831 20.2383 11.1621C20.2383 11.4933 20.5067 11.7618 20.8379 11.7618Z" fill="#333333"/>
</g>
<defs>
<clipPath id="clip0">
<rect width="18" height="18" fill="white" transform="translate(7 7)"/>
</clipPath>
</defs>
</svg>
