<svg xmlns="http://www.w3.org/2000/svg" fill="none" viewBox="0 0 181 52" height="52" width="181">
<path fill="#393939" d="M81.4379 14.18C81.4379 14.4867 81.3846 14.8 81.2779 15.12C81.1846 15.4267 81.0446 15.7133 80.8579 15.98L66.5379 36.3H81.0379V41H58.8379V38.66C58.8379 38.38 58.8846 38.1067 58.9779 37.84C59.0713 37.56 59.2046 37.3067 59.3779 37.08L73.7379 16.68H59.8579V11.98H81.4379V14.18ZM106.847 36.2C107.82 36.2 108.694 36.04 109.467 35.72C110.24 35.3867 110.894 34.92 111.427 34.32C111.96 33.72 112.367 32.9933 112.647 32.14C112.927 31.2867 113.067 30.3267 113.067 29.26V11.98H119.067V29.26C119.067 31.02 118.78 32.64 118.207 34.12C117.647 35.5867 116.84 36.8533 115.787 37.92C114.734 38.9867 113.454 39.82 111.947 40.42C110.44 41.02 108.74 41.32 106.847 41.32C104.954 41.32 103.247 41.02 101.727 40.42C100.22 39.82 98.9403 38.9867 97.887 37.92C96.8337 36.8533 96.0203 35.5867 95.447 34.12C94.887 32.64 94.607 31.02 94.607 29.26V11.98H100.607V29.26C100.607 30.3267 100.747 31.2867 101.027 32.14C101.307 32.9933 101.714 33.72 102.247 34.32C102.78 34.92 103.434 35.3867 104.207 35.72C104.98 36.04 105.86 36.2 106.847 36.2ZM143.344 25.72C144.317 25.72 145.157 25.6 145.864 25.36C146.571 25.1067 147.151 24.7667 147.604 24.34C148.057 23.9 148.391 23.3867 148.604 22.8C148.817 22.2133 148.924 21.5733 148.924 20.88C148.924 19.5067 148.464 18.44 147.544 17.68C146.637 16.92 145.251 16.54 143.384 16.54H140.264V25.72H143.344ZM157.404 41H151.984C150.971 41 150.237 40.6133 149.784 39.84L144.264 30.94C144.037 30.5933 143.784 30.34 143.504 30.18C143.237 30.02 142.837 29.94 142.304 29.94H140.264V41H134.264V11.98H143.384C145.411 11.98 147.144 12.1933 148.584 12.62C150.024 13.0333 151.204 13.6133 152.124 14.36C153.044 15.1067 153.717 16 154.144 17.04C154.571 18.0667 154.784 19.2 154.784 20.44C154.784 21.4 154.644 22.3133 154.364 23.18C154.097 24.0333 153.704 24.8133 153.184 25.52C152.664 26.2267 152.024 26.8533 151.264 27.4C150.504 27.9467 149.637 28.3867 148.664 28.72C149.051 28.9333 149.411 29.1933 149.744 29.5C150.077 29.7933 150.377 30.1467 150.644 30.56L157.404 41ZM175.773 41H169.733V11.98H175.773V41Z"></path>
<rect fill="#00B87C" rx="1.0991" height="19.8545" width="18.9016" x="6.30054"></rect>
<rect fill="#FEA162" rx="1.0991" height="19.8545" width="18.9016" y="22.6909"></rect>
<rect fill="#1A61DB" rx="1.0991" height="19.8545" width="18.9016" y="9.45459" x="27.9028"></rect>
<rect fill="#DC1AA3" rx="1.0991" height="19.8545" width="18.9016" y="32.1455" x="21.6023"></rect>
</svg>
