<svg width="24" height="24" viewBox="0 0 24 24" fill="none" xmlns="http://www.w3.org/2000/svg">
<path d="M2.7778 14.3757L4.34398 12.4584L4.34513 12.457C4.59629 12.147 4.91741 11.9011 5.28211 11.7394C5.64681 11.5777 6.04467 11.5048 6.443 11.5268L6.44321 11.5268L7.73246 11.5973L7.97842 11.6108L8.12771 11.4148C8.27829 11.2172 8.35419 11.1157 8.42404 11.0222C8.51007 10.9071 8.58692 10.8042 8.78278 10.5494L8.78315 10.5489C10.5566 8.23534 12.4415 5.8177 13.3367 4.92255C13.8104 4.44885 14.4462 4.13992 15.1745 3.93269C15.9033 3.72532 16.6944 3.62793 17.4569 3.55677C18.208 3.48777 18.9203 3.465 19.4294 3.465C19.6831 3.465 19.888 3.47066 20.0286 3.47626C20.0988 3.47905 20.1529 3.48183 20.1889 3.48387L20.229 3.48629L20.2384 3.48691L20.2404 3.48704L20.2405 3.48705L20.2405 3.48706L20.2406 3.48706L20.2406 3.48706L20.2407 3.48707L20.2495 3.4877L20.2585 3.488L20.504 3.49612L20.5126 3.7424L20.5125 3.7424L20.5131 3.75152V3.75154L20.5131 3.75162L20.5131 3.75195L20.5132 3.75418L20.5137 3.76423L20.5156 3.80599C20.5173 3.8432 20.5195 3.89875 20.5217 3.97051C20.5262 4.11407 20.5307 4.32226 20.5308 4.57806C20.5311 5.09043 20.5138 5.79007 20.4438 6.54195L20.4438 6.54197C20.3725 7.30955 20.2785 8.10931 20.0752 8.84535C19.8719 9.58128 19.5683 10.2191 19.1013 10.6864C18.2208 11.5662 15.7974 13.4373 13.4765 15.2153C13.2771 15.3672 13.1654 15.4529 13.0703 15.5258C12.9395 15.6261 12.8401 15.7024 12.5872 15.8936L12.3895 16.043L12.4033 16.2904L12.4738 17.5561C12.4738 17.5562 12.4738 17.5563 12.4738 17.5564L2.7778 14.3757ZM3.47977 20.1734L3.47978 20.1733L3.47979 20.1733L3.47981 20.1732L3.4799 20.1727L3.48068 20.1687L3.4843 20.1507C3.48764 20.1343 3.49283 20.1093 3.49991 20.0768C3.51408 20.0116 3.53577 19.9161 3.5653 19.7977C3.62447 19.5606 3.71447 19.2344 3.83754 18.8781C4.04317 18.2857 4.3025 17.6525 4.68871 17.1355L5.10404 17.5505C5.01778 17.6859 4.93681 17.8331 4.86293 17.9791C4.70597 18.2891 4.55833 18.6395 4.43901 18.965L4.09529 19.9026L5.03412 19.5621C5.34271 19.4503 5.67635 19.3157 5.98075 19.1622C6.13465 19.0847 6.28935 18.9983 6.43313 18.9026L6.84378 19.3133C6.30707 19.7231 5.6667 19.986 5.07808 20.1844L5.07794 20.1844C4.72595 20.3032 4.40677 20.3873 4.17587 20.4416C4.06066 20.4687 3.96805 20.4882 3.90507 20.5009C3.87359 20.5072 3.84957 20.5117 3.83387 20.5147L3.81671 20.5178L3.81303 20.5184L3.81273 20.5185L3.47977 20.1734ZM18.7499 4.035V4.03495L18.7428 4.03505C18.3306 4.04132 17.919 4.06557 17.5089 4.10772C16.7743 4.17642 16.0002 4.3231 15.3371 4.52125C14.6987 4.71205 14.0791 4.97444 13.7338 5.31921L13.7335 5.31945C13.0181 6.03485 10.9659 8.61733 9.21673 10.8964L9.21645 10.8967C7.92732 12.5797 6.98006 13.8593 6.52239 14.4775C6.43015 14.6021 6.3578 14.6998 6.30654 14.7686L6.06622 15.091L6.35055 15.3753L8.6478 17.6726L8.93455 17.9593L9.25764 17.7142C10.5505 16.7334 11.8403 15.7486 13.127 14.7597C15.412 13.0075 17.986 10.9607 18.6804 10.2663C18.8586 10.0881 19.0048 9.8411 19.1256 9.58167C19.2496 9.31539 19.3614 9.00415 19.4589 8.67166C19.6539 8.00691 19.8005 7.22678 19.8691 6.48893C19.9616 5.50312 19.9518 5.02398 19.9433 4.6043C19.9427 4.5741 19.9421 4.54421 19.9415 4.51446L19.9331 4.07071L19.4895 4.05843C19.4291 4.05676 19.3612 4.05366 19.2864 4.05024C19.1336 4.04327 18.9524 4.035 18.7499 4.035ZM6.41316 12.0991L6.40482 12.0984L6.39647 12.098C6.08627 12.0836 5.77707 12.1428 5.49417 12.2708L5.68591 12.6945L5.49417 12.2708C5.2124 12.3984 4.96471 12.5906 4.77119 12.8318L4.00074 13.7668L3.51179 14.3602L4.26437 14.5176L5.27162 14.7284L5.56013 14.7888L5.73784 14.5536C5.7684 14.5132 5.86163 14.3916 5.99 14.2243C6.06584 14.1254 6.15395 14.0106 6.24865 13.887C6.50206 13.5563 6.80032 13.1663 7.02715 12.866L7.53631 12.1919L6.69441 12.1223L6.41316 12.0991ZM11.8775 17.3054L11.8082 16.4667L11.135 16.9718C10.7481 17.2621 10.2415 17.6519 9.88184 17.9286C9.6656 18.095 9.50245 18.2205 9.45033 18.259L9.2104 18.4362L9.27144 18.7282L9.48219 19.7362L9.63763 20.4796L10.2291 20.0031L11.1898 19.2291L11.1919 19.2274C11.4321 19.0316 11.6219 18.7811 11.7453 18.4968C11.8688 18.2125 11.9222 17.9028 11.9013 17.5936L11.9013 17.5936L11.9008 17.5867L11.8775 17.3054ZM14.2926 8.6715C14.2926 8.08138 14.7556 7.61356 15.327 7.61325C15.6078 7.61409 15.8768 7.72599 16.0753 7.92452C16.2737 8.12287 16.3856 8.39158 16.3866 8.67206C16.3855 8.9525 16.2735 9.22114 16.0751 9.41942C15.8766 9.61783 15.6077 9.72966 15.327 9.7305C14.7558 9.7302 14.2926 9.26252 14.2926 8.6715Z" stroke="#333333" stroke-width="0.93"/>
</svg>
