<svg width="66" height="71" viewBox="0 0 66 71" fill="none" xmlns="http://www.w3.org/2000/svg">
<path d="M41.3678 24.0497C41.8291 24.3163 42.3312 24.4428 42.8275 24.4428C43.8356 24.4428 44.8165 23.9193 45.3575 22.9832C45.6222 22.5259 45.7487 22.0257 45.7506 21.5314C45.7526 20.5213 45.2291 19.5365 44.291 18.9955C42.8956 18.1879 41.111 18.6647 40.3033 20.0601C40.0386 20.5194 39.9121 21.0195 39.9102 21.5119C39.9082 22.5239 40.4317 23.5067 41.3678 24.0497Z" fill="#00B87C"/>
<path d="M15.1804 45.2751C14.2501 45.8181 13.7324 46.797 13.7344 47.8012C13.7344 48.2995 13.8628 48.8055 14.1333 49.2687C14.6763 50.197 15.6533 50.7147 16.6556 50.7147C17.1558 50.7147 17.6637 50.5862 18.1249 50.3157C19.0552 49.7727 19.5729 48.7957 19.5729 47.7896C19.5729 47.2913 19.4445 46.7853 19.1739 46.3241C18.3604 44.9306 16.5738 44.4616 15.1804 45.2751Z" fill="#00B87C"/>
<path d="M23.5677 24.49C24.0698 24.49 24.5778 24.3616 25.0409 24.0891C25.9693 23.5442 26.4869 22.5652 26.485 21.561C26.4831 21.0628 26.3546 20.5568 26.0841 20.0936C25.2686 18.704 23.4801 18.2369 22.0886 19.0524C21.1603 19.5954 20.6426 20.5743 20.6445 21.5785C20.6465 22.0787 20.7749 22.5847 21.0454 23.0459C21.5884 23.9743 22.5654 24.49 23.5677 24.49Z" fill="#00B87C"/>
<path d="M14.0364 41.1296C15.642 41.1218 16.9401 39.8198 16.944 38.2161V38.1986C16.9362 36.5853 15.6245 35.2833 14.013 35.2911C12.4055 35.2988 11.1094 36.6008 11.1055 38.2045V38.222C11.1113 39.8315 12.4172 41.1296 14.0247 41.1296H14.0364Z" fill="#00B87C"/>
<path d="M33.2435 21.8624C34.8549 21.8624 36.1627 20.5546 36.1627 18.9432C36.1627 17.3318 34.8549 16.0239 33.2435 16.0239C31.6301 16.0239 30.3242 17.3318 30.3242 18.9432C30.3242 20.5566 31.6301 21.8624 33.2435 21.8624Z" fill="#00B87C"/>
<path d="M15.1061 31.1589C15.5634 31.4216 16.0616 31.5461 16.554 31.5461C17.566 31.5461 18.5508 31.0187 19.0899 30.0768C19.3526 29.6175 19.4772 29.1173 19.4772 28.623C19.4752 27.6129 18.9478 26.6321 18.0078 26.093C16.6085 25.2912 14.8239 25.7757 14.024 27.175C13.7593 27.6343 13.6367 28.1345 13.6367 28.6288C13.6387 29.6389 14.1661 30.6217 15.1061 31.1589Z" fill="#00B87C"/>
<path d="M25.1641 52.2707C23.7648 51.467 21.9801 51.9496 21.1783 53.3489C20.9136 53.8063 20.7891 54.3064 20.7891 54.8007C20.7891 55.8108 21.3165 56.7936 22.2545 57.3347V57.3327C22.7138 57.5974 23.214 57.7219 23.7064 57.7219C24.7184 57.7219 25.7012 57.1965 26.2403 56.2565C26.505 55.7972 26.6295 55.297 26.6295 54.8046C26.6295 53.7926 26.1021 52.8098 25.1641 52.2707Z" fill="#00B87C"/>
<path d="M51.3437 45.1683C49.9464 44.3645 48.1617 44.8432 47.356 46.2406C47.0913 46.6979 46.9668 47.1981 46.9648 47.6924C46.9648 48.7025 47.4884 49.6853 48.4284 50.2264C48.8877 50.491 49.3878 50.6175 49.8821 50.6175C50.8922 50.6175 51.8731 50.094 52.4141 49.156C52.6788 48.6967 52.8033 48.1965 52.8053 47.7041C52.8053 46.6921 52.2818 45.7093 51.3437 45.1683Z" fill="#00B87C"/>
<path d="M49.8372 31.449C50.3354 31.449 50.8375 31.3225 51.2988 31.0539C52.231 30.5129 52.7526 29.5378 52.7545 28.5317C52.7545 28.0335 52.628 27.5274 52.3594 27.0643C51.5498 25.6689 49.7633 25.194 48.3698 26.0036C47.4376 26.5446 46.916 27.5216 46.9141 28.5258C46.9141 29.0241 47.0406 29.5301 47.3091 29.9932C47.8502 30.9274 48.831 31.449 49.8372 31.449Z" fill="#00B87C"/>
<path d="M52.4115 35.1936C50.7981 35.1956 49.4941 36.5034 49.4961 38.1168C49.498 39.7262 50.8059 41.0321 52.4154 41.0321H52.4192C54.0326 41.0282 55.3366 39.7204 55.3346 38.107C55.3327 36.4956 54.0229 35.1897 52.4115 35.1936Z" fill="#00B87C"/>
<path d="M33.2845 54.412C31.6731 54.4159 30.3692 55.7276 30.375 57.339C30.3789 58.9485 31.6848 60.2505 33.2923 60.2505H33.3021C34.9135 60.2466 36.2174 58.9349 36.2135 57.3235C36.2077 55.7101 34.8979 54.4081 33.2845 54.412Z" fill="#00B87C"/>
<path d="M41.4128 52.2301C40.4825 52.7712 39.9629 53.7482 39.9609 54.7543C39.9609 55.2525 40.0894 55.7585 40.358 56.2217C40.9009 57.152 41.8799 57.6716 42.8841 57.6716C43.3823 57.6716 43.8883 57.5451 44.3496 57.2766C45.2798 56.7336 45.8014 55.7566 45.8014 54.7524C45.8014 54.2522 45.673 53.7462 45.4044 53.285C44.5928 51.8915 42.8062 51.4186 41.4128 52.2301Z" fill="#00B87C"/>
<path d="M33.2484 65.0538C18.4102 65.0538 6.33852 52.9821 6.33852 38.1441C6.33852 23.3061 18.4102 11.2344 33.2484 11.2344C48.0864 11.2344 60.1581 23.3061 60.1581 38.1441C60.1581 52.9821 48.0864 65.0538 33.2484 65.0538ZM55.6551 14.2848L57.2196 12.7201L59.7405 15.2408C60.3103 15.811 61.0575 16.0959 61.8046 16.0959C62.5517 16.0959 63.2989 15.811 63.8687 15.2408C65.0088 14.1007 65.0088 12.2524 63.8687 11.1124L59.2884 6.53205C59.2868 6.53049 59.2857 6.52874 59.2839 6.52718C59.2824 6.52563 59.2806 6.52426 59.2791 6.52271L54.5037 1.74738C53.3639 0.607317 51.5154 0.607317 50.3753 1.74738C49.2354 2.88745 49.2354 4.73573 50.3753 5.8758L53.0912 8.59168L51.0277 10.6552C45.9042 7.32998 39.7983 5.39587 33.2484 5.39587C26.6986 5.39587 20.5925 7.32998 15.469 10.6554L13.4055 8.59168L16.1211 5.8758C17.2612 4.73573 17.2612 2.88745 16.1211 1.74738C14.9813 0.607317 13.1328 0.607317 11.9927 1.74738L7.21799 6.52232C7.21624 6.52407 7.21429 6.52543 7.21254 6.52718C7.21079 6.52893 7.20943 6.53088 7.20768 6.53263L2.62794 11.1124C1.48787 12.2524 1.48787 14.1009 2.62794 15.2408C3.19778 15.811 3.94492 16.0959 4.69205 16.0959C5.43919 16.0959 6.18632 15.811 6.75616 15.2408L9.27685 12.7203L10.8416 14.285C4.48011 20.2627 0.5 28.7468 0.5 38.1441C0.5 56.2015 15.1909 70.8923 33.2484 70.8923C51.306 70.8923 65.9967 56.2015 65.9967 38.1441C65.9967 28.7466 62.0165 20.2627 55.6551 14.2848Z" fill="#00B87C"/>
<path d="M34.0686 43.4994L40.6511 36.9175C41.7914 35.7776 41.7914 33.9291 40.6513 32.7891C39.5115 31.6488 37.663 31.6488 36.5229 32.7889L32.0045 37.3069L29.9051 35.208C28.7651 34.0681 26.9166 34.0681 25.7767 35.2081C24.6369 36.3484 24.6369 38.1967 25.7771 39.3368L29.9404 43.4994C30.5104 44.0694 31.2575 44.3544 32.0045 44.3544C32.7514 44.3544 33.4986 44.0694 34.0686 43.4994Z" fill="#00B87C"/>
</svg>
