<svg width="60" height="60" viewBox="0 0 60 60" fill="none" xmlns="http://www.w3.org/2000/svg">
<path d="M55.2406 38.0873C53.2521 36.34 50.8406 34.8303 48.0725 33.6003C46.8892 33.0748 45.5045 33.6076 44.9789 34.7905C44.4534 35.9734 44.9863 37.3581 46.1691 37.8841C48.5033 38.9214 50.5147 40.1743 52.1466 41.6084C54.1585 43.3763 55.3125 45.9361 55.3125 48.6328V52.9688C55.3125 54.261 54.261 55.3125 52.9688 55.3125H7.03125C5.73898 55.3125 4.6875 54.261 4.6875 52.9688V48.6328C4.6875 45.9361 5.84152 43.3763 7.85339 41.6084C10.2214 39.5274 17.1208 34.6875 30 34.6875C39.5631 34.6875 47.3438 26.9069 47.3438 17.3438C47.3438 7.78061 39.5631 0 30 0C20.4369 0 12.6562 7.78061 12.6562 17.3438C12.6562 22.9344 15.3159 27.9149 19.4357 31.0886C11.8973 32.7457 7.20795 35.9354 4.75937 38.0873C1.73492 40.7446 0 44.588 0 48.6328V52.9688C0 56.846 3.15399 60 7.03125 60H52.9688C56.846 60 60 56.846 60 52.9688V48.6328C60 44.588 58.2651 40.7446 55.2406 38.0873ZM17.3438 17.3438C17.3438 10.3651 23.0214 4.6875 30 4.6875C36.9786 4.6875 42.6562 10.3651 42.6562 17.3438C42.6562 24.3224 36.9786 30 30 30C23.0214 30 17.3438 24.3224 17.3438 17.3438Z" fill="black"/>
<path d="M55.2406 38.0873C53.2521 36.34 50.8406 34.8303 48.0725 33.6003C46.8892 33.0748 45.5045 33.6076 44.9789 34.7905C44.4534 35.9734 44.9863 37.3581 46.1691 37.8841C48.5033 38.9214 50.5147 40.1743 52.1466 41.6084C54.1585 43.3763 55.3125 45.9361 55.3125 48.6328V52.9688C55.3125 54.261 54.261 55.3125 52.9688 55.3125H7.03125C5.73898 55.3125 4.6875 54.261 4.6875 52.9688V48.6328C4.6875 45.9361 5.84152 43.3763 7.85339 41.6084C10.2214 39.5274 17.1208 34.6875 30 34.6875C39.5631 34.6875 47.3438 26.9069 47.3438 17.3438C47.3438 7.78061 39.5631 0 30 0C20.4369 0 12.6562 7.78061 12.6562 17.3438C12.6562 22.9344 15.3159 27.9149 19.4357 31.0886C11.8973 32.7457 7.20795 35.9354 4.75937 38.0873C1.73492 40.7446 0 44.588 0 48.6328V52.9688C0 56.846 3.15399 60 7.03125 60H52.9688C56.846 60 60 56.846 60 52.9688V48.6328C60 44.588 58.2651 40.7446 55.2406 38.0873ZM17.3438 17.3438C17.3438 10.3651 23.0214 4.6875 30 4.6875C36.9786 4.6875 42.6562 10.3651 42.6562 17.3438C42.6562 24.3224 36.9786 30 30 30C23.0214 30 17.3438 24.3224 17.3438 17.3438Z" fill="black"/>
</svg>
