<svg width="20" height="20" viewBox="0 0 20 20" fill="none" xmlns="http://www.w3.org/2000/svg">
<path d="M10 18C7.87827 18 5.84344 17.1571 4.34315 15.6569C2.84285 14.1566 2 12.1217 2 10C2 7.87827 2.84285 5.84344 4.34315 4.34315C5.84344 2.84285 7.87827 2 10 2C12.1217 2 14.1566 2.84285 15.6569 4.34315C17.1571 5.84344 18 7.87827 18 10C18 12.1217 17.1571 14.1566 15.6569 15.6569C14.1566 17.1571 12.1217 18 10 18ZM10 17C10.9193 17 11.8295 16.8189 12.6788 16.4672C13.5281 16.1154 14.2997 15.5998 14.9497 14.9497C15.5998 14.2997 16.1154 13.5281 16.4672 12.6788C16.8189 11.8295 17 10.9193 17 10C17 9.08075 16.8189 8.1705 16.4672 7.32122C16.1154 6.47194 15.5998 5.70026 14.9497 5.05025C14.2997 4.40024 13.5281 3.88463 12.6788 3.53284C11.8295 3.18106 10.9193 3 10 3C8.14348 3 6.36301 3.7375 5.05025 5.05025C3.7375 6.36301 3 8.14348 3 10C3 11.8565 3.7375 13.637 5.05025 14.9497C6.36301 16.2625 8.14348 17 10 17ZM10 7.5C9.80109 7.5 9.61032 7.42098 9.46967 7.28033C9.32902 7.13968 9.25 6.94891 9.25 6.75C9.25 6.55109 9.32902 6.36032 9.46967 6.21967C9.61032 6.07902 9.80109 6 10 6C10.1989 6 10.3897 6.07902 10.5303 6.21967C10.671 6.36032 10.75 6.55109 10.75 6.75C10.75 6.94891 10.671 7.13968 10.5303 7.28033C10.3897 7.42098 10.1989 7.5 10 7.5ZM10 14C9.88297 14 9.76964 13.959 9.67974 13.8841C9.58984 13.8092 9.52907 13.7051 9.508 13.59L9.5 13.5L9.5 9C9.49977 8.87505 9.54633 8.75455 9.63051 8.66222C9.71469 8.56988 9.83039 8.51241 9.95482 8.50112C10.0793 8.48983 10.2034 8.52554 10.3028 8.60122C10.4023 8.6769 10.4697 8.78705 10.492 8.91L10.5 9V13.5C10.5 13.6326 10.4473 13.7598 10.3536 13.8536C10.2598 13.9473 10.1326 14 10 14Z" fill="#00B87C"/>
</svg>
