<svg width="180" height="180" viewBox="0 0 244 244" fill="none"
    xmlns="http://www.w3.org/2000/svg">
    <rect x="13" y="13" width="218" height="218" rx="20" fill="#DC1AA3"></rect>
    <g filter="url(#filter0_f)">
        <rect x="6.80078" y="7.23422" width="230.132" height="230.132" rx="19.5" stroke="#C4C4C4"></rect>
    </g>
    <circle opacity="0.4" cx="122" cy="76" r="31" fill="white"></circle>
    <g clip-path="url(#clip0)">
        <path d="M122.5 62C120.898 62 119.6 63.2984 119.6 64.9C119.6 66.5016 120.898 67.8 122.5 67.8C124.101 67.7984 125.398 66.501 125.4 64.9C125.4 63.2984 124.101 62 122.5 62ZM122.5 66.8333C121.432 66.8333 120.566 65.9677 120.566 64.9C120.566 63.8323 121.432 62.9667 122.5 62.9667C123.567 62.9667 124.433 63.8323 124.433 64.9C124.433 65.9677 123.567 66.8333 122.5 66.8333Z" fill="white"></path>
        <path d="M124.434 68.2833H124.32L124.218 68.3341C123.136 68.8726 121.865 68.8726 120.783 68.3341L120.681 68.2833H120.567C119.233 68.2849 118.152 69.366 118.15 70.7V73.6C118.15 74.4008 118.8 75.05 119.6 75.05H125.4C126.201 75.05 126.85 74.4008 126.85 73.6V70.7C126.849 69.366 125.768 68.2849 124.434 68.2833ZM125.884 73.6C125.884 73.8669 125.667 74.0833 125.4 74.0833H119.6C119.333 74.0833 119.117 73.8669 119.117 73.6V70.7C119.117 69.9392 119.705 69.3079 120.464 69.2539C121.756 69.8532 123.245 69.8532 124.537 69.2539C125.296 69.3079 125.884 69.9392 125.884 70.7V73.6Z" fill="white"></path>
        <path d="M132.65 77.95C131.048 77.95 129.75 79.2484 129.75 80.85C129.75 82.4516 131.048 83.75 132.65 83.75C134.252 83.75 135.55 82.4516 135.55 80.85C135.548 79.249 134.251 77.9516 132.65 77.95ZM132.65 82.7833C131.582 82.7833 130.717 81.9177 130.717 80.85C130.717 79.7823 131.582 78.9167 132.65 78.9167C133.718 78.9167 134.583 79.7823 134.583 80.85C134.583 81.9177 133.718 82.7833 132.65 82.7833Z" fill="white"></path>
        <path d="M134.584 84.2333H134.47L134.368 84.2817C133.287 84.8201 132.015 84.8201 130.933 84.2817L130.832 84.2333H130.717C129.383 84.2349 128.302 85.316 128.301 86.65V89.55C128.301 90.3508 128.95 91 129.751 91H135.551C136.352 91 137.001 90.3508 137.001 89.55V86.65C136.999 85.316 135.918 84.2349 134.584 84.2333ZM136.034 89.55C136.034 89.8169 135.818 90.0333 135.551 90.0333H129.751C129.484 90.0333 129.267 89.8169 129.267 89.55V86.65C129.268 85.8892 129.856 85.2579 130.614 85.2039C131.906 85.8032 133.396 85.8032 134.687 85.2039C135.446 85.2579 136.034 85.8892 136.034 86.65V89.55Z" fill="white"></path>
        <path d="M112.349 77.95C110.748 77.95 109.449 79.2484 109.449 80.85C109.449 82.4516 110.748 83.75 112.349 83.75C113.951 83.75 115.249 82.4516 115.249 80.85C115.248 79.249 113.95 77.9516 112.349 77.95ZM112.349 82.7833C111.281 82.7833 110.416 81.9177 110.416 80.85C110.416 79.7823 111.281 78.9167 112.349 78.9167C113.417 78.9167 114.283 79.7823 114.283 80.85C114.283 81.9177 113.417 82.7833 112.349 82.7833Z" fill="white"></path>
        <path d="M114.283 84.2333H114.169L114.067 84.2817C112.986 84.8201 111.714 84.8201 110.633 84.2817L110.531 84.2333H110.417C109.083 84.2349 108.002 85.316 108 86.65V89.55C108 90.3508 108.649 91 109.45 91H115.25C116.051 91 116.7 90.3508 116.7 89.55V86.65C116.698 85.316 115.617 84.2349 114.283 84.2333ZM115.733 89.55C115.733 89.8169 115.517 90.0333 115.25 90.0333H109.45C109.183 90.0333 108.967 89.8169 108.967 89.55V86.65C108.967 85.8892 109.555 85.2579 110.314 85.2039C111.605 85.8032 113.095 85.8032 114.386 85.2039C115.145 85.2579 115.733 85.8892 115.733 86.65V89.55Z" fill="white"></path>
        <path d="M127.295 86.5458C127.295 86.5453 127.294 86.5448 127.294 86.5442C127.19 86.2986 126.906 86.1843 126.66 86.2889C124.478 87.2037 122.054 87.3705 119.766 86.7636L120.219 86.6307C120.475 86.5556 120.622 86.2871 120.547 86.0309C120.472 85.7746 120.203 85.6276 119.947 85.7027L118.014 86.2696C118.006 86.2696 118.001 86.2778 117.994 86.2803C117.95 86.2969 117.908 86.3202 117.87 86.3494C117.853 86.3584 117.837 86.3686 117.821 86.3798C117.77 86.4253 117.73 86.4814 117.703 86.5442C117.677 86.6073 117.664 86.6754 117.666 86.7438C117.678 86.8092 117.694 86.8738 117.715 86.9371C117.717 86.9439 117.715 86.9516 117.72 86.9584L118.687 88.8081C118.81 89.0449 119.102 89.1366 119.339 89.013C119.576 88.8894 119.668 88.5973 119.544 88.3605L119.151 87.6085C121.749 88.3896 124.539 88.2378 127.038 87.1793C127.284 87.0753 127.399 86.7917 127.295 86.5458Z" fill="white"></path>
        <path d="M135.407 74.7083C135.218 74.5196 134.912 74.5196 134.724 74.7083L134.04 75.3922C133.64 71.1588 130.952 67.4851 127.038 65.8222C126.793 65.7176 126.509 65.8318 126.404 66.0774C126.299 66.323 126.414 66.6069 126.659 66.7115C130.17 68.2036 132.611 71.4645 133.052 75.2535L132.507 74.7083C132.315 74.5228 132.009 74.5281 131.824 74.7201C131.643 74.9074 131.643 75.2044 131.824 75.3917L133.274 76.8417C133.462 77.0307 133.768 77.0311 133.957 76.8426C133.958 76.8423 133.958 76.842 133.958 76.8417L135.408 75.3917C135.596 75.2027 135.596 74.8968 135.407 74.7083Z" fill="white"></path>
        <path d="M118.62 66.1852C118.618 66.157 118.614 66.129 118.607 66.1016C118.607 66.0972 118.602 66.0943 118.6 66.0895C118.598 66.0847 118.6 66.0813 118.6 66.0774C118.587 66.0539 118.571 66.0315 118.554 66.0107C118.539 65.9824 118.52 65.9557 118.499 65.931C118.471 65.9056 118.439 65.8841 118.405 65.8667C118.388 65.8522 118.37 65.8391 118.351 65.8275L116.418 64.9445C116.171 64.8431 115.888 64.9611 115.787 65.208C115.691 65.4415 115.791 65.7095 116.016 65.8232L117.017 66.2809C113.249 68.2977 110.898 72.2259 110.9 76.5C110.9 76.7669 111.117 76.9833 111.384 76.9833C111.651 76.9833 111.867 76.7669 111.867 76.5C111.865 72.7365 113.855 69.2529 117.098 67.3437L116.749 68.0741C116.634 68.3143 116.734 68.6025 116.974 68.7183C117.04 68.7502 117.111 68.7667 117.184 68.7667C117.369 68.7664 117.538 68.6599 117.619 68.4926L118.585 66.4757C118.585 66.4708 118.585 66.4655 118.589 66.4607C118.602 66.4276 118.611 66.3933 118.615 66.3582C118.624 66.3322 118.63 66.3055 118.634 66.2785C118.632 66.247 118.627 66.2158 118.62 66.1852Z" fill="white"></path>
    </g>
    <path d="M104.588 139.672C104.5 139.816 104.408 139.924 104.312 139.996C104.216 140.06 104.096 140.092 103.952 140.092C103.8 140.092 103.628 140.028 103.436 139.9C103.252 139.772 103.02 139.632 102.74 139.48C102.468 139.32 102.144 139.176 101.768 139.048C101.392 138.912 100.944 138.844 100.424 138.844C99.944 138.844 99.52 138.904 99.152 139.024C98.792 139.144 98.488 139.312 98.24 139.528C97.992 139.744 97.804 140 97.676 140.296C97.556 140.584 97.496 140.9 97.496 141.244C97.496 141.684 97.612 142.052 97.844 142.348C98.076 142.636 98.38 142.884 98.756 143.092C99.14 143.3 99.576 143.484 100.064 143.644C100.552 143.796 101.048 143.96 101.552 144.136C102.064 144.312 102.564 144.512 103.052 144.736C103.54 144.96 103.972 145.244 104.348 145.588C104.732 145.932 105.04 146.352 105.272 146.848C105.504 147.344 105.62 147.948 105.62 148.66C105.62 149.428 105.488 150.148 105.224 150.82C104.96 151.492 104.576 152.08 104.072 152.584C103.576 153.08 102.96 153.472 102.224 153.76C101.496 154.048 100.664 154.192 99.728 154.192C99.176 154.192 98.636 154.136 98.108 154.024C97.588 153.92 97.088 153.772 96.608 153.58C96.136 153.38 95.692 153.14 95.276 152.86C94.86 152.58 94.488 152.268 94.16 151.924L94.976 150.58C95.048 150.468 95.14 150.38 95.252 150.316C95.364 150.252 95.488 150.22 95.624 150.22C95.808 150.22 96.012 150.308 96.236 150.484C96.46 150.652 96.728 150.84 97.04 151.048C97.36 151.248 97.744 151.436 98.192 151.612C98.64 151.78 99.176 151.864 99.8 151.864C100.816 151.864 101.6 151.616 102.152 151.12C102.712 150.624 102.992 149.94 102.992 149.068C102.992 148.58 102.876 148.184 102.644 147.88C102.412 147.568 102.104 147.308 101.72 147.1C101.344 146.892 100.912 146.716 100.424 146.572C99.936 146.428 99.44 146.276 98.936 146.116C98.432 145.948 97.936 145.756 97.448 145.54C96.96 145.316 96.524 145.028 96.14 144.676C95.764 144.316 95.46 143.876 95.228 143.356C94.996 142.828 94.88 142.172 94.88 141.388C94.88 140.764 95 140.16 95.24 139.576C95.488 138.992 95.844 138.476 96.308 138.028C96.78 137.572 97.36 137.208 98.048 136.936C98.736 136.664 99.52 136.528 100.4 136.528C101.392 136.528 102.3 136.684 103.124 136.996C103.956 137.308 104.672 137.752 105.272 138.328L104.588 139.672ZM111.559 154.192C110.543 154.192 109.759 153.908 109.207 153.34C108.663 152.764 108.391 151.956 108.391 150.916V143.788H107.047C106.903 143.788 106.779 143.744 106.675 143.656C106.571 143.56 106.519 143.42 106.519 143.236V142.192L108.499 141.904L109.062 138.364C109.103 138.228 109.171 138.12 109.267 138.04C109.363 137.952 109.491 137.908 109.651 137.908H110.971V141.928H114.367V143.788H110.971V150.736C110.971 151.176 111.079 151.512 111.295 151.744C111.511 151.976 111.799 152.092 112.159 152.092C112.359 152.092 112.531 152.068 112.674 152.02C112.819 151.964 112.943 151.908 113.047 151.852C113.151 151.788 113.239 151.732 113.311 151.684C113.391 151.628 113.467 151.6 113.539 151.6C113.683 151.6 113.799 151.68 113.887 151.84L114.655 153.1C114.255 153.452 113.783 153.724 113.239 153.916C112.695 154.1 112.135 154.192 111.559 154.192ZM122.94 148.648C122.02 148.68 121.244 148.756 120.612 148.876C119.98 148.988 119.468 149.136 119.076 149.32C118.684 149.496 118.4 149.708 118.224 149.956C118.056 150.204 117.972 150.476 117.972 150.772C117.972 151.06 118.016 151.308 118.104 151.516C118.2 151.716 118.328 151.884 118.488 152.02C118.656 152.148 118.848 152.244 119.064 152.308C119.288 152.364 119.532 152.392 119.796 152.392C120.468 152.392 121.044 152.268 121.524 152.02C122.012 151.764 122.484 151.396 122.94 150.916V148.648ZM116.1 143.464C117.484 142.176 119.132 141.532 121.044 141.532C121.748 141.532 122.372 141.648 122.916 141.88C123.468 142.104 123.928 142.424 124.296 142.84C124.672 143.256 124.956 143.752 125.148 144.328C125.348 144.896 125.448 145.528 125.448 146.224V154H124.296C124.048 154 123.86 153.964 123.732 153.892C123.604 153.812 123.496 153.656 123.408 153.424L123.156 152.428C122.844 152.708 122.536 152.96 122.232 153.184C121.928 153.4 121.612 153.584 121.284 153.736C120.964 153.888 120.616 154 120.24 154.072C119.872 154.152 119.464 154.192 119.016 154.192C118.52 154.192 118.056 154.124 117.624 153.988C117.2 153.852 116.832 153.648 116.52 153.376C116.208 153.096 115.96 152.752 115.776 152.344C115.6 151.936 115.512 151.456 115.512 150.904C115.512 150.432 115.636 149.972 115.884 149.524C116.14 149.076 116.556 148.676 117.132 148.324C117.716 147.964 118.48 147.668 119.424 147.436C120.376 147.204 121.548 147.072 122.94 147.04V146.224C122.94 145.344 122.752 144.688 122.376 144.256C122 143.824 121.448 143.608 120.72 143.608C120.224 143.608 119.808 143.672 119.472 143.8C119.136 143.92 118.844 144.052 118.596 144.196C118.348 144.34 118.128 144.476 117.936 144.604C117.744 144.724 117.54 144.784 117.324 144.784C117.148 144.784 116.996 144.74 116.868 144.652C116.748 144.556 116.648 144.44 116.568 144.304L116.1 143.464ZM130.906 144.028C131.29 143.252 131.754 142.644 132.298 142.204C132.842 141.756 133.494 141.532 134.254 141.532C134.518 141.532 134.766 141.564 134.998 141.628C135.23 141.684 135.438 141.772 135.622 141.892L135.442 143.836C135.41 143.972 135.358 144.068 135.286 144.124C135.222 144.172 135.134 144.196 135.022 144.196C134.902 144.196 134.73 144.176 134.506 144.136C134.282 144.088 134.046 144.064 133.798 144.064C133.438 144.064 133.118 144.116 132.838 144.22C132.566 144.324 132.318 144.476 132.094 144.676C131.878 144.876 131.686 145.12 131.518 145.408C131.35 145.696 131.194 146.024 131.05 146.392V154H128.47V141.76H129.97C130.242 141.76 130.43 141.812 130.534 141.916C130.638 142.012 130.71 142.184 130.75 142.432L130.906 144.028ZM141.254 154.192C140.238 154.192 139.454 153.908 138.902 153.34C138.358 152.764 138.086 151.956 138.086 150.916V143.788H136.742C136.598 143.788 136.474 143.744 136.37 143.656C136.266 143.56 136.214 143.42 136.214 143.236V142.192L138.194 141.904L138.758 138.364C138.798 138.228 138.866 138.12 138.962 138.04C139.058 137.952 139.186 137.908 139.346 137.908H140.666V141.928H144.062V143.788H140.666V150.736C140.666 151.176 140.774 151.512 140.99 151.744C141.206 151.976 141.494 152.092 141.854 152.092C142.054 152.092 142.226 152.068 142.37 152.02C142.514 151.964 142.638 151.908 142.742 151.852C142.846 151.788 142.934 151.732 143.006 151.684C143.086 151.628 143.162 151.6 143.234 151.6C143.378 151.6 143.494 151.68 143.582 151.84L144.35 153.1C143.95 153.452 143.478 153.724 142.934 153.916C142.39 154.1 141.83 154.192 141.254 154.192ZM63.3529 180.16C63.2729 180.264 63.1969 180.344 63.1249 180.4C63.0529 180.456 62.9489 180.484 62.8129 180.484C62.6769 180.484 62.5329 180.436 62.3809 180.34C62.2369 180.244 62.0609 180.14 61.8529 180.028C61.6529 179.908 61.4089 179.8 61.1209 179.704C60.8329 179.608 60.4729 179.56 60.0409 179.56C59.4809 179.56 58.9889 179.66 58.5649 179.86C58.1489 180.06 57.7969 180.348 57.5089 180.724C57.2289 181.092 57.0169 181.544 56.8729 182.08C56.7369 182.608 56.6689 183.204 56.6689 183.868C56.6689 184.556 56.7449 185.168 56.8969 185.704C57.0489 186.24 57.2649 186.692 57.5449 187.06C57.8329 187.428 58.1769 187.708 58.5769 187.9C58.9849 188.092 59.4409 188.188 59.9449 188.188C60.4409 188.188 60.8449 188.128 61.1569 188.008C61.4689 187.888 61.7289 187.756 61.9369 187.612C62.1449 187.468 62.3209 187.336 62.4649 187.216C62.6169 187.096 62.7769 187.036 62.9449 187.036C63.1529 187.036 63.3129 187.116 63.4249 187.276L64.1569 188.224C63.8609 188.584 63.5329 188.888 63.1729 189.136C62.8129 189.384 62.4329 189.588 62.0329 189.748C61.6329 189.9 61.2169 190.008 60.7849 190.072C60.3529 190.144 59.9169 190.18 59.4769 190.18C58.7169 190.18 58.0049 190.04 57.3409 189.76C56.6849 189.472 56.1089 189.06 55.6129 188.524C55.1249 187.98 54.7369 187.32 54.4489 186.544C54.1689 185.76 54.0289 184.868 54.0289 183.868C54.0289 182.964 54.1569 182.128 54.4129 181.36C54.6689 180.584 55.0409 179.916 55.5289 179.356C56.0249 178.796 56.6369 178.36 57.3649 178.048C58.0929 177.728 58.9329 177.568 59.8849 177.568C60.7729 177.568 61.5529 177.712 62.2249 178C62.9049 178.288 63.5089 178.696 64.0369 179.224L63.3529 180.16ZM71.3132 177.568C72.2172 177.568 73.0332 177.716 73.7612 178.012C74.4972 178.308 75.1212 178.728 75.6332 179.272C76.1532 179.816 76.5532 180.476 76.8332 181.252C77.1132 182.028 77.2532 182.9 77.2532 183.868C77.2532 184.836 77.1132 185.708 76.8332 186.484C76.5532 187.26 76.1532 187.924 75.6332 188.476C75.1212 189.02 74.4972 189.44 73.7612 189.736C73.0332 190.032 72.2172 190.18 71.3132 190.18C70.4012 190.18 69.5772 190.032 68.8412 189.736C68.1132 189.44 67.4892 189.02 66.9692 188.476C66.4492 187.924 66.0492 187.26 65.7692 186.484C65.4892 185.708 65.3492 184.836 65.3492 183.868C65.3492 182.9 65.4892 182.028 65.7692 181.252C66.0492 180.476 66.4492 179.816 66.9692 179.272C67.4892 178.728 68.1132 178.308 68.8412 178.012C69.5772 177.716 70.4012 177.568 71.3132 177.568ZM71.3132 188.164C72.4172 188.164 73.2372 187.796 73.7732 187.06C74.3172 186.316 74.5892 185.256 74.5892 183.88C74.5892 182.504 74.3172 181.444 73.7732 180.7C73.2372 179.948 72.4172 179.572 71.3132 179.572C70.1932 179.572 69.3612 179.948 68.8172 180.7C68.2732 181.444 68.0012 182.504 68.0012 183.88C68.0012 185.256 68.2732 186.316 68.8172 187.06C69.3612 187.796 70.1932 188.164 71.3132 188.164ZM82.3602 172.24V190H79.7802V172.24H82.3602ZM88.1727 172.24V190H85.5927V172.24H88.1727ZM97.8972 184.648C96.9772 184.68 96.2012 184.756 95.5692 184.876C94.9372 184.988 94.4252 185.136 94.0332 185.32C93.6412 185.496 93.3572 185.708 93.1812 185.956C93.0132 186.204 92.9292 186.476 92.9292 186.772C92.9292 187.06 92.9732 187.308 93.0612 187.516C93.1572 187.716 93.2852 187.884 93.4452 188.02C93.6132 188.148 93.8052 188.244 94.0212 188.308C94.2452 188.364 94.4892 188.392 94.7532 188.392C95.4252 188.392 96.0012 188.268 96.4812 188.02C96.9692 187.764 97.4412 187.396 97.8972 186.916V184.648ZM91.0572 179.464C92.4412 178.176 94.0892 177.532 96.0012 177.532C96.7052 177.532 97.3292 177.648 97.8732 177.88C98.4252 178.104 98.8852 178.424 99.2532 178.84C99.6292 179.256 99.9132 179.752 100.105 180.328C100.305 180.896 100.405 181.528 100.405 182.224V190H99.2532C99.0052 190 98.8172 189.964 98.6892 189.892C98.5612 189.812 98.4532 189.656 98.3652 189.424L98.1132 188.428C97.8012 188.708 97.4932 188.96 97.1892 189.184C96.8852 189.4 96.5692 189.584 96.2412 189.736C95.9212 189.888 95.5732 190 95.1972 190.072C94.8292 190.152 94.4212 190.192 93.9732 190.192C93.4772 190.192 93.0132 190.124 92.5812 189.988C92.1572 189.852 91.7892 189.648 91.4772 189.376C91.1652 189.096 90.9172 188.752 90.7332 188.344C90.5572 187.936 90.4692 187.456 90.4692 186.904C90.4692 186.432 90.5932 185.972 90.8412 185.524C91.0972 185.076 91.5132 184.676 92.0892 184.324C92.6732 183.964 93.4372 183.668 94.3812 183.436C95.3332 183.204 96.5052 183.072 97.8972 183.04V182.224C97.8972 181.344 97.7092 180.688 97.3332 180.256C96.9572 179.824 96.4052 179.608 95.6772 179.608C95.1812 179.608 94.7652 179.672 94.4292 179.8C94.0932 179.92 93.8012 180.052 93.5532 180.196C93.3052 180.34 93.0852 180.476 92.8932 180.604C92.7012 180.724 92.4972 180.784 92.2812 180.784C92.1052 180.784 91.9532 180.74 91.8252 180.652C91.7052 180.556 91.6052 180.44 91.5252 180.304L91.0572 179.464ZM106.007 186.928C106.367 187.392 106.759 187.72 107.183 187.912C107.615 188.096 108.083 188.188 108.587 188.188C109.603 188.188 110.395 187.82 110.963 187.084C111.531 186.348 111.815 185.208 111.815 183.664C111.815 182.256 111.567 181.228 111.071 180.58C110.583 179.932 109.883 179.608 108.971 179.608C108.339 179.608 107.787 179.752 107.315 180.04C106.851 180.32 106.415 180.724 106.007 181.252V186.928ZM106.007 179.38C106.511 178.828 107.075 178.388 107.699 178.06C108.323 177.732 109.035 177.568 109.835 177.568C110.547 177.568 111.187 177.708 111.755 177.988C112.331 178.26 112.819 178.656 113.219 179.176C113.619 179.696 113.927 180.328 114.143 181.072C114.359 181.808 114.467 182.64 114.467 183.568C114.467 184.56 114.343 185.464 114.095 186.28C113.855 187.088 113.507 187.784 113.051 188.368C112.595 188.944 112.043 189.392 111.395 189.712C110.747 190.024 110.023 190.18 109.223 190.18C108.831 190.18 108.475 190.14 108.155 190.06C107.835 189.988 107.539 189.88 107.267 189.736C106.995 189.592 106.743 189.42 106.511 189.22C106.287 189.02 106.071 188.792 105.863 188.536L105.755 189.484C105.715 189.668 105.643 189.8 105.539 189.88C105.435 189.96 105.291 190 105.107 190H103.427V172.24H106.007V179.38ZM122.266 177.568C123.17 177.568 123.986 177.716 124.714 178.012C125.45 178.308 126.074 178.728 126.586 179.272C127.106 179.816 127.506 180.476 127.786 181.252C128.066 182.028 128.206 182.9 128.206 183.868C128.206 184.836 128.066 185.708 127.786 186.484C127.506 187.26 127.106 187.924 126.586 188.476C126.074 189.02 125.45 189.44 124.714 189.736C123.986 190.032 123.17 190.18 122.266 190.18C121.354 190.18 120.53 190.032 119.794 189.736C119.066 189.44 118.442 189.02 117.922 188.476C117.402 187.924 117.002 187.26 116.722 186.484C116.442 185.708 116.302 184.836 116.302 183.868C116.302 182.9 116.442 182.028 116.722 181.252C117.002 180.476 117.402 179.816 117.922 179.272C118.442 178.728 119.066 178.308 119.794 178.012C120.53 177.716 121.354 177.568 122.266 177.568ZM122.266 188.164C123.37 188.164 124.19 187.796 124.726 187.06C125.27 186.316 125.542 185.256 125.542 183.88C125.542 182.504 125.27 181.444 124.726 180.7C124.19 179.948 123.37 179.572 122.266 179.572C121.146 179.572 120.314 179.948 119.77 180.7C119.226 181.444 118.954 182.504 118.954 183.88C118.954 185.256 119.226 186.316 119.77 187.06C120.314 187.796 121.146 188.164 122.266 188.164ZM133.121 180.028C133.505 179.252 133.969 178.644 134.513 178.204C135.057 177.756 135.709 177.532 136.469 177.532C136.733 177.532 136.981 177.564 137.213 177.628C137.445 177.684 137.653 177.772 137.837 177.892L137.657 179.836C137.625 179.972 137.573 180.068 137.501 180.124C137.437 180.172 137.349 180.196 137.237 180.196C137.117 180.196 136.945 180.176 136.721 180.136C136.497 180.088 136.261 180.064 136.013 180.064C135.653 180.064 135.333 180.116 135.053 180.22C134.781 180.324 134.533 180.476 134.309 180.676C134.093 180.876 133.901 181.12 133.733 181.408C133.565 181.696 133.409 182.024 133.265 182.392V190H130.685V177.76H132.185C132.457 177.76 132.645 177.812 132.749 177.916C132.853 178.012 132.925 178.184 132.965 178.432L133.121 180.028ZM145.897 184.648C144.977 184.68 144.201 184.756 143.569 184.876C142.937 184.988 142.425 185.136 142.033 185.32C141.641 185.496 141.357 185.708 141.181 185.956C141.013 186.204 140.929 186.476 140.929 186.772C140.929 187.06 140.973 187.308 141.061 187.516C141.157 187.716 141.285 187.884 141.445 188.02C141.613 188.148 141.805 188.244 142.021 188.308C142.245 188.364 142.489 188.392 142.753 188.392C143.425 188.392 144.001 188.268 144.481 188.02C144.969 187.764 145.441 187.396 145.897 186.916V184.648ZM139.057 179.464C140.441 178.176 142.089 177.532 144.001 177.532C144.705 177.532 145.329 177.648 145.873 177.88C146.425 178.104 146.885 178.424 147.253 178.84C147.629 179.256 147.913 179.752 148.105 180.328C148.305 180.896 148.405 181.528 148.405 182.224V190H147.253C147.005 190 146.817 189.964 146.689 189.892C146.561 189.812 146.453 189.656 146.365 189.424L146.113 188.428C145.801 188.708 145.493 188.96 145.189 189.184C144.885 189.4 144.569 189.584 144.241 189.736C143.921 189.888 143.573 190 143.197 190.072C142.829 190.152 142.421 190.192 141.973 190.192C141.477 190.192 141.013 190.124 140.581 189.988C140.157 189.852 139.789 189.648 139.477 189.376C139.165 189.096 138.917 188.752 138.733 188.344C138.557 187.936 138.469 187.456 138.469 186.904C138.469 186.432 138.593 185.972 138.841 185.524C139.097 185.076 139.513 184.676 140.089 184.324C140.673 183.964 141.437 183.668 142.381 183.436C143.333 183.204 144.505 183.072 145.897 183.04V182.224C145.897 181.344 145.709 180.688 145.333 180.256C144.957 179.824 144.405 179.608 143.677 179.608C143.181 179.608 142.765 179.672 142.429 179.8C142.093 179.92 141.801 180.052 141.553 180.196C141.305 180.34 141.085 180.476 140.893 180.604C140.701 180.724 140.497 180.784 140.281 180.784C140.105 180.784 139.953 180.74 139.825 180.652C139.705 180.556 139.605 180.44 139.525 180.304L139.057 179.464ZM163.143 190H160.563V179.788H154.599V186.736C154.599 187.176 154.707 187.512 154.923 187.744C155.139 187.976 155.427 188.092 155.787 188.092C155.987 188.092 156.159 188.068 156.303 188.02C156.447 187.964 156.571 187.908 156.675 187.852C156.779 187.788 156.867 187.732 156.939 187.684C157.019 187.628 157.095 187.6 157.167 187.6C157.311 187.6 157.427 187.68 157.515 187.84L158.283 189.1C157.883 189.452 157.411 189.724 156.867 189.916C156.323 190.1 155.763 190.192 155.187 190.192C154.171 190.192 153.387 189.908 152.835 189.34C152.291 188.764 152.019 187.956 152.019 186.916V179.788H150.675C150.531 179.788 150.407 179.744 150.303 179.656C150.199 179.56 150.147 179.42 150.147 179.236V178.192L152.127 177.904L152.691 174.364C152.731 174.228 152.799 174.12 152.895 174.04C152.991 173.952 153.119 173.908 153.279 173.908H154.599V177.928H163.143V190ZM163.671 174.004C163.671 174.236 163.623 174.456 163.527 174.664C163.439 174.864 163.315 175.044 163.155 175.204C162.995 175.356 162.807 175.48 162.591 175.576C162.383 175.664 162.163 175.708 161.931 175.708C161.699 175.708 161.479 175.664 161.271 175.576C161.071 175.48 160.891 175.356 160.731 175.204C160.579 175.044 160.455 174.864 160.359 174.664C160.271 174.456 160.227 174.236 160.227 174.004C160.227 173.764 160.271 173.54 160.359 173.332C160.455 173.116 160.579 172.932 160.731 172.78C160.891 172.62 161.071 172.496 161.271 172.408C161.479 172.312 161.699 172.264 161.931 172.264C162.163 172.264 162.383 172.312 162.591 172.408C162.807 172.496 162.995 172.62 163.155 172.78C163.315 172.932 163.439 173.116 163.527 173.332C163.623 173.54 163.671 173.764 163.671 174.004ZM168.816 179.38C169.08 179.108 169.352 178.864 169.632 178.648C169.92 178.424 170.224 178.232 170.544 178.072C170.864 177.912 171.204 177.788 171.564 177.7C171.924 177.612 172.316 177.568 172.74 177.568C173.412 177.568 174 177.68 174.504 177.904C175.016 178.128 175.444 178.444 175.788 178.852C176.14 179.26 176.404 179.752 176.58 180.328C176.756 180.896 176.844 181.524 176.844 182.212V190H174.276V182.212C174.276 181.388 174.084 180.748 173.7 180.292C173.324 179.836 172.748 179.608 171.972 179.608C171.396 179.608 170.86 179.74 170.364 180.004C169.876 180.268 169.416 180.628 168.984 181.084V190H166.404V177.76H167.964C168.316 177.76 168.54 177.924 168.636 178.252L168.816 179.38ZM184.225 183.772C185.025 183.772 185.625 183.568 186.025 183.16C186.425 182.752 186.625 182.22 186.625 181.564C186.625 180.892 186.425 180.36 186.025 179.968C185.625 179.576 185.025 179.38 184.225 179.38C183.433 179.38 182.833 179.576 182.425 179.968C182.025 180.36 181.825 180.892 181.825 181.564C181.825 181.884 181.877 182.18 181.981 182.452C182.085 182.724 182.237 182.96 182.437 183.16C182.637 183.352 182.885 183.504 183.181 183.616C183.485 183.72 183.833 183.772 184.225 183.772ZM187.813 190.6C187.813 190.328 187.733 190.112 187.573 189.952C187.421 189.784 187.213 189.656 186.949 189.568C186.685 189.472 186.377 189.404 186.025 189.364C185.673 189.316 185.297 189.284 184.897 189.268C184.505 189.244 184.101 189.224 183.685 189.208C183.277 189.184 182.881 189.144 182.497 189.088C182.113 189.288 181.797 189.528 181.549 189.808C181.309 190.088 181.189 190.412 181.189 190.78C181.189 191.02 181.249 191.244 181.369 191.452C181.497 191.66 181.689 191.84 181.945 191.992C182.209 192.144 182.541 192.264 182.941 192.352C183.349 192.44 183.837 192.484 184.405 192.484C185.541 192.484 186.393 192.308 186.961 191.956C187.529 191.604 187.813 191.152 187.813 190.6ZM190.405 178.204V179.164C190.405 179.484 190.213 179.68 189.829 179.752L188.605 179.956C188.813 180.42 188.917 180.936 188.917 181.504C188.917 182.104 188.797 182.648 188.557 183.136C188.325 183.624 188.001 184.04 187.585 184.384C187.169 184.728 186.673 184.992 186.097 185.176C185.521 185.36 184.897 185.452 184.225 185.452C183.969 185.452 183.717 185.44 183.469 185.416C183.229 185.384 182.993 185.344 182.761 185.296C182.529 185.432 182.357 185.576 182.245 185.728C182.133 185.88 182.077 186.036 182.077 186.196C182.077 186.46 182.193 186.656 182.425 186.784C182.657 186.912 182.961 187.004 183.337 187.06C183.721 187.116 184.157 187.152 184.645 187.168C185.133 187.184 185.629 187.212 186.133 187.252C186.637 187.292 187.133 187.36 187.621 187.456C188.109 187.544 188.541 187.696 188.917 187.912C189.301 188.12 189.609 188.404 189.841 188.764C190.073 189.124 190.189 189.592 190.189 190.168C190.189 190.696 190.057 191.212 189.793 191.716C189.529 192.22 189.145 192.668 188.641 193.06C188.145 193.452 187.537 193.764 186.817 193.996C186.097 194.236 185.277 194.356 184.357 194.356C183.445 194.356 182.649 194.268 181.969 194.092C181.297 193.916 180.733 193.676 180.277 193.372C179.829 193.076 179.493 192.732 179.269 192.34C179.053 191.948 178.945 191.54 178.945 191.116C178.945 190.54 179.125 190.048 179.485 189.64C179.853 189.232 180.349 188.912 180.973 188.68C180.637 188.52 180.365 188.3 180.157 188.02C179.957 187.74 179.857 187.372 179.857 186.916C179.857 186.556 179.989 186.18 180.253 185.788C180.517 185.396 180.913 185.064 181.441 184.792C180.833 184.456 180.353 184.012 180.001 183.46C179.649 182.9 179.473 182.248 179.473 181.504C179.473 180.896 179.589 180.348 179.821 179.86C180.061 179.372 180.393 178.956 180.817 178.612C181.241 178.268 181.741 178.004 182.317 177.82C182.901 177.636 183.537 177.544 184.225 177.544C185.281 177.544 186.201 177.764 186.985 178.204H190.405Z" fill="white"></path>
    <defs>
        <filter id="filter0_f" x="0.300781" y="0.734222" width="243.132" height="243.132" filterUnits="userSpaceOnUse" color-interpolation-filters="sRGB">
            <feFlood flood-opacity="0" result="BackgroundImageFix"></feFlood>
            <feBlend mode="normal" in="SourceGraphic" in2="BackgroundImageFix" result="shape"></feBlend>
            <feGaussianBlur stdDeviation="3" result="effect1_foregroundBlur"></feGaussianBlur>
        </filter>
        <clipPath id="clip0">
            <rect width="29" height="29" fill="white" transform="translate(108 62)"></rect>
        </clipPath>
    </defs>
</svg>
