<svg width="18" height="18" viewBox="0 0 18 18" fill="none" xmlns="http://www.w3.org/2000/svg">
<path d="M9 3C7.81331 3 6.65328 3.35189 5.66658 4.01118C4.67989 4.67047 3.91085 5.60754 3.45673 6.7039C3.0026 7.80026 2.88378 9.00666 3.11529 10.1705C3.3468 11.3344 3.91825 12.4035 4.75736 13.2426C5.59648 14.0818 6.66558 14.6532 7.82946 14.8847C8.99335 15.1162 10.1997 14.9974 11.2961 14.5433C12.3925 14.0892 13.3295 13.3201 13.9888 12.3334C14.6481 11.3467 15 10.1867 15 9C15 7.4087 14.3679 5.88258 13.2426 4.75736C12.1174 3.63214 10.5913 3 9 3ZM9 14C8.0111 14 7.0444 13.7068 6.22215 13.1573C5.39991 12.6079 4.75904 11.827 4.38061 10.9134C4.00217 9.99979 3.90315 8.99445 4.09608 8.02455C4.289 7.05464 4.76521 6.16373 5.46447 5.46447C6.16373 4.7652 7.05465 4.289 8.02455 4.09607C8.99446 3.90315 9.99979 4.00216 10.9134 4.3806C11.8271 4.75904 12.6079 5.3999 13.1574 6.22215C13.7068 7.04439 14 8.01109 14 9C14 9.65661 13.8707 10.3068 13.6194 10.9134C13.3681 11.52 12.9998 12.0712 12.5355 12.5355C12.0712 12.9998 11.52 13.3681 10.9134 13.6194C10.3068 13.8707 9.65661 14 9 14Z" fill="#F40101"/>
<path d="M9.0001 10.035C8.82771 10.035 8.66238 9.9665 8.54048 9.84461C8.41858 9.72271 8.3501 9.55738 8.3501 9.38499V6.38499C8.3501 6.21259 8.41858 6.04726 8.54048 5.92537C8.66238 5.80347 8.82771 5.73499 9.0001 5.73499C9.17249 5.73499 9.33782 5.80347 9.45972 5.92537C9.58162 6.04726 9.6501 6.21259 9.6501 6.38499V9.38499C9.6501 9.55738 9.58162 9.72271 9.45972 9.84461C9.33782 9.9665 9.17249 10.035 9.0001 10.035Z" fill="#F40101"/>
<path d="M8.9751 12.26C9.38931 12.26 9.7251 11.9242 9.7251 11.51C9.7251 11.0958 9.38931 10.76 8.9751 10.76C8.56088 10.76 8.2251 11.0958 8.2251 11.51C8.2251 11.9242 8.56088 12.26 8.9751 12.26Z" fill="#F40101"/>
</svg>
