<svg width="482" height="483" viewBox="0 0 482 483" fill="none" xmlns="http://www.w3.org/2000/svg">
<path d="M318.071 479.117H301.503C301.015 479.117 300.546 478.927 300.199 478.588C299.852 478.25 299.654 477.79 299.649 477.309V408.139H319.925V477.309C319.92 477.79 319.722 478.25 319.375 478.588C319.028 478.927 318.56 479.117 318.071 479.117Z" fill="#2B2B39"/>
<path d="M369.866 560.165V572.841H360.536V567.106C360.536 566.332 360.225 565.591 359.67 565.044C359.115 564.497 358.362 564.19 357.578 564.19H317.637C316.978 564.19 316.345 564.448 315.879 564.907C315.413 565.366 315.151 565.989 315.151 566.639V572.841H304.264V566.639C304.266 566.317 304.204 565.997 304.08 565.699C303.956 565.4 303.773 565.129 303.542 564.901C303.31 564.673 303.035 564.493 302.733 564.371C302.43 564.249 302.106 564.187 301.779 564.19H262.193C261.406 564.19 260.651 564.496 260.094 565.043C259.536 565.589 259.219 566.331 259.214 567.106V572.841H249.905V560.165C249.905 558.797 250.455 557.485 251.434 556.516C252.414 555.546 253.743 554.999 255.131 554.994H304.264V391.575H315.112V555.014H364.619C366.007 555.014 367.339 555.556 368.322 556.521C369.306 557.487 369.861 558.797 369.866 560.165Z" fill="#2B2B39"/>
<path d="M481.246 157.412L422.331 399.313C421.409 403.103 419.218 406.477 416.112 408.89C413.005 411.302 409.165 412.613 405.21 412.61H266.945C264.265 412.616 261.619 412.018 259.208 410.862C256.798 409.707 254.687 408.025 253.035 405.944C251.384 403.863 250.237 401.438 249.681 398.853C249.124 396.269 249.173 393.594 249.825 391.031L310.18 149.208C311.12 145.437 313.315 142.085 316.415 139.689C319.515 137.292 323.341 135.989 327.281 135.988H464.224C466.88 136.003 469.497 136.61 471.88 137.763C474.264 138.915 476.352 140.584 477.989 142.645C479.626 144.705 480.77 147.103 481.334 149.661C481.898 152.218 481.868 154.868 481.246 157.412Z" fill="#5F5F75"/>
<path d="M466.003 157.412L407.126 399.313C406.197 403.104 404.002 406.476 400.893 408.888C397.784 411.299 393.943 412.611 389.986 412.611H251.721C249.042 412.613 246.399 412.013 243.991 410.856C241.583 409.7 239.474 408.017 237.825 405.937C236.176 403.856 235.03 401.432 234.475 398.849C233.92 396.266 233.97 393.592 234.62 391.031L294.858 149.13C295.797 145.359 297.993 142.008 301.093 139.611C304.193 137.215 308.018 135.912 311.958 135.911H448.902C451.571 135.915 454.204 136.517 456.603 137.67C459.001 138.823 461.103 140.498 462.75 142.568C464.396 144.639 465.545 147.05 466.108 149.622C466.672 152.193 466.635 154.857 466.003 157.412Z" fill="#2B2B39"/>
<path d="M389.985 400.752H251.719C250.873 400.748 250.038 400.556 249.277 400.19C248.516 399.823 247.849 399.292 247.325 398.636C246.802 397.98 246.436 397.216 246.254 396.401C246.072 395.585 246.08 394.74 246.276 393.928L306.532 152.027C306.821 150.824 307.515 149.753 308.499 148.987C309.484 148.221 310.702 147.806 311.956 147.809H448.9C449.747 147.812 450.582 148.004 451.343 148.371C452.104 148.737 452.771 149.268 453.294 149.924C453.818 150.581 454.184 151.345 454.366 152.16C454.548 152.975 454.54 153.82 454.344 154.632L395.428 396.533C395.139 397.74 394.443 398.813 393.454 399.579C392.465 400.346 391.242 400.759 389.985 400.752ZM311.956 149.286C311.046 149.302 310.165 149.614 309.452 150.172C308.739 150.731 308.233 151.506 308.012 152.377L247.715 394.278C247.571 394.872 247.563 395.49 247.693 396.086C247.822 396.683 248.086 397.244 248.465 397.727C248.843 398.21 249.327 398.603 249.88 398.878C250.433 399.152 251.041 399.301 251.66 399.313H389.925C390.841 399.303 391.726 398.991 392.441 398.428C393.156 397.864 393.659 397.081 393.87 396.203L452.786 154.302C452.945 153.706 452.958 153.082 452.824 152.48C452.691 151.879 452.414 151.317 452.016 150.841C451.641 150.348 451.152 149.949 450.59 149.679C450.027 149.409 449.408 149.274 448.782 149.286H311.956Z" fill="#5F5F75"/>
<path d="M169.197 419.784H401.446C405.938 419.785 410.298 418.286 413.815 415.533C417.332 412.779 419.799 408.933 420.815 404.62L423.932 391.439H175.903L169.197 419.784Z" fill="#5F5F75"/>
<path d="M172.39 419.784H386.514C391.007 419.782 395.367 418.283 398.887 415.53C402.407 412.777 404.879 408.933 405.902 404.62L408.999 391.439H172.311C169.063 391.436 165.909 392.519 163.366 394.51C160.822 396.502 159.039 399.285 158.307 402.404C157.812 404.489 157.803 406.658 158.281 408.747C158.759 410.836 159.712 412.79 161.068 414.464C162.424 416.137 164.147 417.485 166.108 418.407C168.07 419.328 170.217 419.799 172.39 419.784Z" fill="#2B2B39"/>
<path d="M250.696 310.799C250.696 310.799 138.525 338.774 123.476 351.352C108.426 363.93 74.8957 517.396 74.6787 526.008C74.6787 526.805 103.929 534.989 103.929 534.989C103.929 534.989 161.504 416.246 164.66 399.079C164.66 399.079 230.597 391.303 260.617 374.079C290.637 356.854 301.682 339.318 301.682 339.318L250.696 310.799Z" fill="#64474B"/>
<path d="M122.39 353.277C125.043 358.056 129.326 361.754 134.481 363.717C135.408 364.125 136.216 362.784 135.289 362.376C130.381 360.538 126.297 357.036 123.771 352.5C123.317 351.586 121.956 352.383 122.39 353.277Z" fill="#39252B"/>
<path d="M104.067 522.664C120.615 488.721 136.572 454.389 150.201 419.162C153.85 409.714 157.302 400.207 160.477 390.604L159.708 391.167C174.384 391.146 188.987 389.124 203.101 385.16C214.56 381.739 225.369 376.626 236.257 371.785C237.184 371.377 236.375 370.016 235.448 370.424C224.828 375.527 213.885 379.95 202.687 383.663C188.722 387.565 174.282 389.566 159.767 389.612C159.597 389.614 159.433 389.67 159.298 389.772C159.163 389.873 159.064 390.015 159.018 390.176C147.321 425.597 132.114 459.89 116.276 493.659C111.845 503.107 107.334 512.516 102.745 521.887C102.311 522.781 103.672 523.578 104.126 522.664H104.067Z" fill="#39252B"/>
<path d="M190.024 194.68C190.024 194.68 175.566 266.183 177.026 282.727C178.485 299.271 208.427 315.777 208.427 315.777L229.314 311.325C229.314 311.325 219.649 282.902 211.701 274.698L224.975 211.905L190.024 194.68Z" fill="#C1725C"/>
<path d="M226.237 216.279C223.991 216.908 221.668 217.229 219.333 217.231H217.736C208.899 216.765 200.398 212.216 193.771 207.511C193.357 207.219 192.943 206.928 192.548 206.617C188.264 203.414 184.301 199.814 180.714 195.866C181.463 194.272 182.232 192.542 182.982 190.734L183.554 189.353C187.104 180.547 190.516 169.718 193.416 159.881L193.929 158.054C198.031 143.551 200.793 131.517 200.793 131.517L226.237 216.279Z" fill="#6059C9"/>
<path d="M203.042 174.792C202.628 170.359 200.024 166.53 197.598 162.894C196.454 161.339 195.251 159.706 193.929 158.112L193.416 159.939C194.462 161.242 195.389 162.564 196.316 163.827C200.261 169.659 203.89 176.308 199.708 183.151C196.513 188.4 189.59 190.539 183.633 189.47L183.061 190.85C185.843 191.442 188.729 191.366 191.476 190.629C194.222 189.891 196.748 188.513 198.84 186.612C200.383 185.07 201.56 183.21 202.286 181.166C203.013 179.123 203.271 176.946 203.042 174.792Z" fill="#9F9FFB"/>
<path d="M208.506 201.601C202.274 199.093 196.475 201.95 192.55 206.538C192.944 206.85 193.358 207.141 193.772 207.433C195.066 205.58 196.86 204.122 198.953 203.225C201.045 202.328 203.35 202.028 205.607 202.359C213.122 203.642 216.218 210.368 217.678 217.211H219.276C218.013 210.621 215.232 204.264 208.506 201.601Z" fill="#9F9FFB"/>
<path d="M358.446 303.412V303.548C358.174 304.103 357.784 304.593 357.302 304.986C352.845 308.991 337.677 313.171 319.314 316.243L317.144 316.612C310.359 317.681 303.18 318.556 295.98 319.314L294.225 319.489C262.666 322.425 231.009 320.986 230.181 309.769L229.885 305.881C229.885 305.22 229.787 304.539 229.727 303.937C229.432 299.757 229.116 295.363 228.761 290.328C228.761 289.667 228.761 288.987 228.623 288.384C228.189 281.755 227.696 273.979 227.124 264.083L227.005 261.886C226.887 259.942 226.769 257.823 226.65 255.665L226.414 251.486C226.414 250.883 226.414 250.28 226.295 249.678C226.177 249.075 226.295 248.161 226.177 247.403C225.881 242.971 225.566 238.557 225.191 234.281C225.191 233.522 225.053 232.784 224.994 232.045C224.292 222.19 222.627 212.424 220.023 202.884C219.905 202.553 219.806 202.223 219.688 201.912C219.57 201.601 219.471 201.231 219.353 200.901C217.538 195.477 215.704 190.383 213.909 185.562L212.903 182.879C207.755 169.271 203.159 158.015 200.851 148.839C200.667 148.165 200.51 147.517 200.378 146.894C199.47 143.253 199.118 139.499 199.333 135.755C199.403 135.089 199.562 134.436 199.806 133.811C201.029 130.389 204.52 126.521 208.8 122.827C209.234 122.438 209.688 122.069 210.161 121.68C217.295 115.992 224.887 110.888 232.863 106.419L266.789 90.6913C275.886 91.1982 284.952 92.165 293.949 93.588L295.724 93.899C301.268 94.7937 306.72 96.1729 312.016 98.0204C312.594 98.2149 313.147 98.4287 313.673 98.662C314.567 99.0249 315.395 99.4137 316.158 99.8284C327.144 105.661 332.706 129.495 336.789 154.087C336.986 155.234 337.164 156.382 337.361 157.509C339.018 167.813 340.438 178.077 341.937 187.04C342.056 187.817 342.194 188.575 342.312 189.314C343.18 194.349 344.087 199.034 345.073 202.806C346.198 207.2 347.519 212.118 348.9 217.425C349.097 218.184 349.294 218.942 349.511 219.719C353.989 236.866 358.998 257.318 360.596 274.892C360.596 275.903 360.754 276.836 360.833 277.886C361.464 287.995 360.971 296.782 358.446 303.412Z" fill="#6059C9"/>
<path d="M208.741 122.497C214.572 127.794 221.726 131.47 229.471 133.15C236.985 134.755 244.762 134.744 252.271 133.117C259.78 131.489 266.844 128.285 272.982 123.721C283.152 116.008 291.011 105.722 295.724 93.9575L293.949 93.6659C291.898 98.5542 289.326 103.214 286.276 107.566C277.617 119.853 264.737 129.359 249.589 131.925C235.644 134.278 220.595 130.914 210.141 121.35C209.589 121.719 209.175 122.108 208.741 122.497Z" fill="#9F9FFB"/>
<path d="M301.919 167.307C301.504 162.875 298.901 159.026 296.475 155.41C291.248 148.236 284.206 139.488 274.088 140.907C264.542 142.248 261.346 152.571 262.806 160.756C264.266 168.94 269.157 177.533 276.909 181.577C280.222 183.333 284.006 184.033 287.74 183.58C291.474 183.127 294.974 181.545 297.757 179.05C299.284 177.514 300.449 175.666 301.168 173.636C301.887 171.607 302.144 169.446 301.919 167.307ZM298.506 175.472C294.877 181.421 286.455 183.385 280.064 181.188C272.668 178.622 267.658 171.623 265.331 164.527C262.885 157.101 263.082 146.098 271.938 142.851C282.017 139.138 290.045 149.189 295.114 156.148C299.039 162.039 302.688 168.629 298.506 175.472Z" fill="#9F9FFB"/>
<path d="M219.294 200.687L219.649 201.698C219.649 202.009 219.846 202.339 219.964 202.67C224.698 196.604 229.642 190.707 234.797 184.979C238.268 181.09 241.72 177.202 245.546 173.645C247.519 171.837 251.779 169.601 253.436 173.159C254.422 175.317 253.436 178.505 253.081 180.741C251.542 189.733 248.58 198.432 244.304 206.519C239.256 215.892 232.739 224.421 224.994 231.792C224.994 232.531 225.132 233.269 225.191 234.028C228.534 230.898 231.676 227.568 234.599 224.054C240.7 216.793 245.666 208.675 249.333 199.967C251.288 195.3 252.825 190.473 253.929 185.542C254.601 182.65 255.108 179.723 255.448 176.775C255.764 175.088 255.529 173.345 254.777 171.798C252.588 168.221 247.795 169.523 245.152 171.798C240.697 175.826 236.55 180.173 232.745 184.804C228.077 189.936 223.594 195.23 219.294 200.687Z" fill="#9F9FFB"/>
<path d="M226.238 249.425C226.238 250.028 226.238 250.63 226.357 251.233C231.263 248.923 235.978 246.239 240.459 243.204C253.004 234.767 263.773 224.094 274.542 213.596C280.065 208.211 285.627 202.826 291.466 197.771C297.304 192.717 303.024 188.051 310.006 185.348C320.973 180.955 332.689 183.404 342.314 189.392C342.196 188.653 342.058 187.895 341.939 187.118C332.077 181.46 320.401 179.341 309.493 183.657C303.11 186.475 297.229 190.289 292.077 194.952C285.943 200.104 280.243 205.645 274.444 211.224C260.144 225.163 244.601 240.56 226.238 249.425Z" fill="#9F9FFB"/>
<path d="M317.816 250.844C324.344 254.557 331.623 256.676 338.388 259.981C344.378 262.988 349.887 266.846 354.739 271.432C356.908 273.481 358.943 275.663 360.834 277.964C360.834 276.992 360.696 276.02 360.597 274.97C359.433 273.648 358.21 272.345 356.948 271.082C352.801 267.02 348.164 263.474 343.141 260.525C337.151 257.411 330.98 254.645 324.66 252.244C318.427 249.503 312.352 246.003 308.565 240.229C306.659 237.558 305.646 234.368 305.667 231.103C305.689 227.837 306.743 224.66 308.684 222.013C317.48 210.174 335.094 212.76 346.79 218.358C347.717 218.806 348.625 219.272 349.532 219.778C349.315 219 349.118 218.242 348.921 217.484C347.274 216.629 345.582 215.863 343.851 215.19C332.017 210.582 315.804 209.649 307.342 220.905C298.881 232.161 307.263 244.856 317.816 250.844Z" fill="#9F9FFB"/>
<path d="M302.589 301.04C307.185 306.406 312.077 311.577 317.087 316.593L319.256 316.223C314.108 311.091 309.079 305.803 304.325 300.34C298.645 293.828 292.885 284.418 298.408 276.04C304.325 267.058 317.205 273.648 324.444 277.284C337.462 283.816 348.718 293.304 357.284 304.967C357.761 304.57 358.151 304.08 358.428 303.529C348.163 289.714 334.185 279.001 318.073 272.599C313.615 270.829 308.645 269.002 303.793 270.13C301.912 270.618 300.179 271.547 298.741 272.836C297.302 274.125 296.2 275.738 295.528 277.536C292.096 286.188 297.027 294.528 302.589 301.04Z" fill="#9F9FFB"/>
<path d="M285.292 244.798C284.345 250.475 277.56 253.838 273.24 256.852L228.566 288.132C228.566 288.812 228.664 289.493 228.704 290.173L252.136 273.765L269.02 261.926L277.836 255.763C280.025 254.352 282.067 252.73 283.931 250.922C286.791 247.85 288.566 242.874 285.903 239.16C283.241 235.447 277.501 236.108 273.438 237.216C256.347 241.925 240.507 250.259 227.027 261.634L227.145 263.811C232.678 259.115 238.618 254.907 244.897 251.233C253.798 246.007 263.344 241.93 273.3 239.102C275.873 238.154 278.648 237.86 281.367 238.247C282.762 238.613 283.956 239.505 284.69 240.73C285.425 241.956 285.641 243.417 285.292 244.798Z" fill="#9F9FFB"/>
<path d="M229.69 303.82C229.69 304.5 229.789 305.161 229.828 305.764C234.79 301.493 240.183 297.734 245.923 294.547C250.679 292.216 255.927 291.029 261.238 291.082C266.549 291.135 271.771 292.428 276.478 294.854C281.185 297.279 285.241 300.769 288.316 305.038C291.391 309.306 293.396 314.232 294.168 319.411L295.943 319.236C294.93 312.698 292.104 306.562 287.777 301.506C282.836 295.893 276.216 291.968 268.87 290.295C261.524 288.622 253.828 289.287 246.889 292.194C240.518 294.994 235.232 299.524 229.69 303.82Z" fill="#9F9FFB"/>
<path d="M250.519 120.805C243.683 120.641 237.07 118.378 231.603 114.331C231.483 114.24 231.383 114.126 231.308 113.996C231.233 113.866 231.185 113.723 231.166 113.575C231.148 113.426 231.16 113.276 231.201 113.132C231.242 112.988 231.312 112.854 231.406 112.737C231.596 112.502 231.872 112.35 232.175 112.314C232.477 112.278 232.782 112.36 233.024 112.542C233.162 112.659 242.629 119.852 253.122 118.375C259.039 117.5 264.365 113.923 268.704 107.779C268.877 107.522 269.146 107.342 269.453 107.28C269.76 107.218 270.08 107.279 270.341 107.449C270.603 107.619 270.785 107.885 270.848 108.187C270.911 108.49 270.849 108.805 270.677 109.063C265.963 115.77 260.183 119.638 253.517 120.63C252.522 120.748 251.521 120.807 250.519 120.805Z" fill="#9F9FFB"/>
<path d="M212.115 28.928C212.115 28.928 201.306 37.2486 203.259 45.2971C205.212 53.3455 214.167 61.9383 214.167 61.9383C214.167 61.9383 216.671 42.381 212.115 28.928Z" fill="#39252B"/>
<path d="M213.218 57.02C212.063 57.4071 211.078 58.1714 210.425 59.1863C209.772 60.2011 209.491 61.4054 209.628 62.5995C209.628 67.3042 213.178 74.6139 217.754 72.9615C222.33 71.309 213.218 57.02 213.218 57.02Z" fill="#7D351D"/>
<path d="M233.258 108.363C235.71 110.345 238.484 111.903 241.464 112.971C244.39 114.046 247.54 114.393 250.635 113.982L252.134 113.768L253.692 113.359C255.382 112.867 257.02 112.216 258.584 111.415C263.27 109.046 267.13 105.349 269.669 100.801C271.309 98.1088 272.557 95.2032 273.377 92.1691C272.706 90.9508 272.049 89.6871 271.405 88.3781C268.564 82.5459 266.02 76.3249 263.515 69.9872L263.614 69.4429L263.002 68.2375L262.489 67.2072L261.385 68.1014L259.748 69.4429L231.424 92.5579L231.976 97.3597L232.272 99.8871L232.785 104.222L233.258 108.363Z" fill="#C1725C"/>
<path d="M263.93 68.1787H263.752C263.752 68.587 263.634 68.9952 263.575 69.4035C263.516 69.8118 263.575 69.7729 263.476 69.9478C263.318 70.706 263.121 71.4448 262.904 72.2224C259.275 84.0812 246.198 97.2037 234.009 97.4954C233.299 97.4954 232.608 97.4954 231.938 97.4954C220.103 96.3484 215.31 83.8868 215.291 73.836V72.7279C215.291 72.7279 215.192 72.0669 214.955 70.9004C214.719 69.734 214.541 68.7036 214.225 67.2261C213.318 62.7742 211.859 56.2227 210.044 49.8267C206.829 38.6094 212.253 20.6656 235.37 13.5892C258.486 6.51273 269.63 22.4541 270.537 34.5851C270.698 38.0142 270.474 41.4502 269.867 44.8304C272.135 44.7138 274.699 45.608 276.494 49.3212C279.827 56.106 272.234 66.2541 263.93 68.1787Z" fill="#C1725C"/>
<path d="M218.406 60.5393C218.82 62.1528 219.846 63.2804 220.694 63.0665C221.542 62.8527 221.897 61.3752 221.483 59.7811C221.069 58.187 220.043 57.04 219.195 57.2538C218.347 57.4677 217.992 58.8674 218.406 60.5393Z" fill="#2B2B39"/>
<path d="M223.396 57.6036C223.474 57.5587 223.537 57.4907 223.574 57.4092C223.621 57.3032 223.625 57.1832 223.585 57.0744C223.544 56.9656 223.463 56.8765 223.357 56.8259C223.179 56.8259 218.761 54.7652 215.664 57.7786C215.604 57.8647 215.576 57.9689 215.586 58.0732C215.595 58.1775 215.641 58.2751 215.717 58.3491C215.792 58.4231 215.891 58.4688 215.997 58.4783C216.102 58.4877 216.208 58.4602 216.295 58.4007C218.938 55.815 222.943 57.6036 222.982 57.623C223.049 57.6484 223.12 57.6598 223.191 57.6564C223.262 57.6531 223.332 57.6351 223.396 57.6036Z" fill="#2B2B39"/>
<path d="M232.667 57.3505C233.081 58.964 234.107 60.0916 234.955 59.8777C235.803 59.6639 236.139 58.1864 235.724 56.5923C235.31 54.9981 234.304 53.8511 233.456 54.065C232.608 54.2788 232.253 55.7563 232.667 57.3505Z" fill="#2B2B39"/>
<path d="M237.658 54.4738C237.74 54.4341 237.804 54.3644 237.835 54.2794C237.883 54.1734 237.887 54.0534 237.846 53.9446C237.806 53.8358 237.724 53.7467 237.618 53.6962C237.441 53.6962 233.023 51.6355 229.926 54.6488C229.883 54.6887 229.849 54.7369 229.825 54.7904C229.802 54.8439 229.79 54.9016 229.79 54.9598C229.79 55.0181 229.802 55.0757 229.825 55.1292C229.849 55.1827 229.883 55.2309 229.926 55.2708C230.011 55.3516 230.124 55.3968 230.241 55.3968C230.359 55.3968 230.472 55.3516 230.557 55.2708C233.2 52.6658 237.204 54.4544 237.243 54.4738C237.307 54.5078 237.378 54.5257 237.451 54.5257C237.523 54.5257 237.594 54.5078 237.658 54.4738Z" fill="#2B2B39"/>
<g opacity="0.5">
<path opacity="0.5" d="M236.946 64.427C237.163 65.5157 240.062 65.8462 243.435 65.1852C246.808 64.5242 249.352 63.0856 249.135 62.0164C248.918 60.9472 245.999 60.5972 242.626 61.2582C239.254 61.9192 236.709 63.3578 236.946 64.427Z" fill="#7D351D"/>
</g>
<g opacity="0.5">
<path opacity="0.5" d="M214.955 70.7839C217.243 70.0452 218.781 68.9954 218.604 68.14C218.426 67.2846 216.631 66.9152 214.225 67.1096C214.541 68.5871 214.777 69.8508 214.955 70.7839Z" fill="#7D351D"/>
</g>
<path d="M222.469 67.7123C222.354 67.6922 222.243 67.649 222.145 67.5855C222.047 67.522 221.962 67.4395 221.897 67.343H221.661C220.761 68.5332 219.556 69.4659 218.169 70.0452C216.609 70.6921 214.888 70.868 213.225 70.5509C211.563 70.2338 210.033 69.4379 208.83 68.2638C207.626 67.0897 206.803 65.5901 206.465 63.9549C206.126 62.3196 206.287 60.6221 206.927 59.077C207.568 57.5319 208.658 56.2087 210.062 55.2748C211.465 54.3408 213.118 53.8381 214.811 53.8302C216.504 53.8222 218.162 54.3095 219.574 55.2302C220.987 56.151 222.09 57.4639 222.745 59.0029C223.34 60.3883 223.538 61.908 223.317 63.3965L223.889 63.1438C224.254 62.9812 224.629 62.8448 225.014 62.7355C225.078 61.2463 224.816 59.7609 224.244 58.3808C223.468 56.5501 222.159 54.9873 220.481 53.8902C218.804 52.7931 216.834 52.211 214.821 52.2173C212.808 52.2237 210.842 52.8183 209.172 53.926C207.502 55.0337 206.203 56.6047 205.438 58.4403C204.674 60.2759 204.479 62.2937 204.878 64.2384C205.278 66.1831 206.253 67.9675 207.681 69.3658C209.11 70.7641 210.927 71.7135 212.902 72.094C214.878 72.4744 216.924 72.2689 218.781 71.5033C220.588 70.7729 222.138 69.5359 223.239 67.9456L222.469 67.7123Z" fill="white"/>
<path d="M240.517 66.0987C238.66 66.8625 236.616 67.0667 234.641 66.6856C232.667 66.3045 230.851 65.3551 229.424 63.9575C227.997 62.5598 227.022 60.7765 226.622 58.8329C226.223 56.8893 226.417 54.8726 227.179 53.0376C227.942 51.2026 229.24 49.6317 230.908 48.5232C232.576 47.4148 234.541 46.8186 236.553 46.8099C238.565 46.8013 240.534 47.3805 242.212 48.4746C243.89 49.5687 245.202 51.1284 245.981 52.9568C246.499 54.1731 246.769 55.4782 246.775 56.7974C246.78 58.1166 246.522 59.424 246.015 60.6448C245.507 61.8655 244.76 62.9756 243.817 63.9114C242.874 64.8473 241.752 65.5906 240.517 66.0987ZM233.259 49.0686C231.697 49.7144 230.365 50.8021 229.431 52.1941C228.497 53.5861 228.002 55.2199 228.011 56.8889C228.019 58.5578 228.529 60.187 229.476 61.5702C230.424 62.9534 231.766 64.0285 233.334 64.6596C234.901 65.2907 236.624 65.4494 238.283 65.1155C239.942 64.7817 241.463 63.9705 242.654 62.7843C243.846 61.5981 244.653 60.0904 244.975 58.4518C245.297 56.8132 245.118 55.1174 244.462 53.5789C243.582 51.517 241.908 49.8837 239.808 49.0379C237.707 48.1922 235.351 48.2032 233.259 49.0686Z" fill="white"/>
<path d="M207.616 66.1958C207.498 66.2571 207.366 66.2892 207.232 66.2892C207.098 66.2892 206.966 66.2571 206.847 66.1958C206.758 66.1406 206.681 66.0683 206.621 65.9832C206.561 65.8982 206.518 65.8021 206.496 65.7006C206.474 65.5992 206.473 65.4944 206.492 65.3925C206.512 65.2906 206.552 65.1936 206.61 65.1072C207.889 63.4272 209.657 62.1723 211.68 61.5106C211.779 61.4732 211.885 61.4556 211.992 61.4589C212.099 61.4621 212.204 61.4861 212.301 61.5295C212.398 61.5728 212.485 61.6347 212.558 61.7116C212.631 61.7884 212.688 61.8787 212.725 61.9772C212.762 62.0767 212.779 62.1825 212.775 62.2885C212.77 62.3945 212.744 62.4986 212.698 62.5945C212.652 62.6905 212.587 62.7765 212.507 62.8474C212.427 62.9183 212.334 62.9728 212.232 63.0076C210.553 63.568 209.073 64.594 207.971 65.9625C207.87 66.0627 207.749 66.142 207.616 66.1958Z" fill="white"/>
<path d="M243.536 49.769C247.507 46.6216 252.444 44.8945 257.54 44.8699L257.678 46.4835C252.881 46.4885 248.229 48.0993 244.482 51.052C244.31 51.1748 244.094 51.2253 243.884 51.1925C243.673 51.1597 243.484 51.0464 243.358 50.8771C243.294 50.7936 243.247 50.6982 243.222 50.5966C243.196 50.4949 243.191 50.3892 243.207 50.2857C243.224 50.1822 243.262 50.0831 243.318 49.9943C243.374 49.9055 243.448 49.8288 243.536 49.769Z" fill="white"/>
<path d="M233.258 108.363C237.871 106.602 242.032 103.857 245.442 100.325C248.852 96.7924 251.427 92.5599 252.982 87.9309C247.479 93.4132 240.595 97.3403 233.968 97.4569C233.269 97.4647 232.571 97.4322 231.877 97.3597L233.258 108.363Z" fill="#2B2B39"/>
<path d="M223.16 30.4058C231.385 24.0098 240.616 23.7376 245.132 25.2346C247.736 26.1094 252.371 30.8529 251.05 35.6548C249.728 40.4567 254.403 40.4956 255.862 42.5368C257.322 44.5781 253.121 52.2572 253.121 52.2572L258.88 55.0372C258.88 55.0372 259.689 52.7432 261.05 49.7493C262.411 46.7555 269.926 44.7336 269.926 44.7336C271.566 40.0545 272.335 35.1214 272.194 30.1725C271.918 22.1435 256.415 6.08545 232.923 10.2458C232.923 10.2458 226.434 -1.16595 219.531 0.0977007C217.655 0.365269 215.946 1.30783 214.733 2.74369C213.52 4.17955 212.889 6.00708 212.963 7.874C212.963 7.874 204.422 2.50834 200.753 8.70993C197.085 14.9115 204.146 21.5214 204.146 21.5214C204.146 21.5214 193.416 20.5105 194.067 27.0037C194.718 33.4969 208.051 36.2769 208.051 36.2769C208.051 36.2769 213.633 37.8127 223.16 30.4058Z" fill="#39252B"/>
<path d="M261.248 19.5966C261.248 19.5966 268.546 11.8204 273.082 14.7365C277.244 17.4776 270.499 21.9684 270.499 21.9684C270.499 21.9684 277.008 20.452 278.053 24.1846C279.098 27.9173 270.163 30.464 270.163 30.464L261.248 19.5966Z" fill="#39252B"/>
<path d="M257.578 67.9849C258.18 68.6143 258.904 69.1169 259.708 69.4624C260.903 69.9339 262.194 70.1205 263.476 70.0068C263.476 69.8318 263.476 69.6374 263.574 69.4624C263.673 69.2875 263.712 68.6265 263.752 68.2182H263.929C263.614 68.2416 263.298 68.2416 262.983 68.2182C262.433 68.2464 261.882 68.2006 261.346 68.0821C260.404 67.8942 259.543 67.426 258.88 66.7407C258.718 66.5705 258.494 66.4709 258.257 66.4636C258.02 66.4563 257.79 66.542 257.618 66.7018C257.445 66.8616 257.344 67.0825 257.337 67.3159C257.329 67.5492 257.416 67.7759 257.578 67.946V67.9849Z" fill="#7D351D"/>
<path d="M236.04 70.8621C236.04 70.8621 237.302 78.6383 230.912 80.3297C229.203 80.8448 227.358 80.6794 225.773 79.8688C224.187 79.0583 222.987 77.6673 222.43 75.9944L236.04 70.8621Z" fill="white"/>
<path d="M232.846 82.9149C233.582 82.5866 234.186 82.0256 234.562 81.3207C234.594 81.2506 234.613 81.1747 234.616 81.0975C234.619 81.0203 234.606 80.9433 234.579 80.8709C234.551 80.7986 234.509 80.7324 234.456 80.6761C234.402 80.6198 234.337 80.5746 234.266 80.5431C234.195 80.5106 234.118 80.4924 234.039 80.4895C233.961 80.4867 233.883 80.4991 233.809 80.5263C233.736 80.5534 233.669 80.5946 233.612 80.6476C233.555 80.7005 233.509 80.7642 233.477 80.8347C233.238 81.2495 232.881 81.5854 232.449 81.7999C232.017 82.0145 231.531 82.098 231.051 82.04C230.91 82.0653 230.782 82.1385 230.691 82.2468C230.599 82.3552 230.549 82.4919 230.549 82.633C230.549 82.7741 230.599 82.9108 230.691 83.0191C230.782 83.1275 230.91 83.2007 231.051 83.2259C231.665 83.2562 232.278 83.1499 232.846 82.9149Z" fill="#7D351D"/>
<path d="M264.817 61.9771C264.985 61.9099 265.128 61.7937 265.226 61.6443C265.325 61.4949 265.375 61.3194 265.37 61.1412C265.192 54.9007 271.859 50.7404 271.918 50.7015C272.018 50.6417 272.105 50.5631 272.174 50.47C272.243 50.377 272.293 50.2714 272.32 50.1595C272.348 50.0475 272.352 49.9312 272.334 49.8174C272.316 49.7036 272.275 49.5944 272.214 49.4962C272.084 49.2998 271.883 49.1601 271.652 49.1058C271.421 49.0515 271.177 49.0869 270.971 49.2046C270.676 49.399 263.378 53.9287 263.595 61.1801C263.594 61.2958 263.618 61.4102 263.664 61.5166C263.71 61.623 263.778 61.7191 263.863 61.7991C263.947 61.8791 264.048 61.9412 264.158 61.9819C264.268 62.0225 264.385 62.0407 264.502 62.0355C264.61 62.037 264.717 62.0172 264.817 61.9771Z" fill="#7D351D"/>
<path d="M271.64 57.0012C271.752 56.9594 271.853 56.8929 271.936 56.8068C272.099 56.64 272.191 56.4168 272.191 56.1846C272.191 55.9524 272.099 55.7294 271.936 55.5626C271.169 54.8568 270.232 54.3559 269.213 54.1075C268.195 53.8591 267.129 53.8715 266.117 54.1434C265.887 54.2027 265.69 54.3497 265.57 54.552C265.45 54.7544 265.416 54.9955 265.476 55.2223C265.536 55.4492 265.685 55.6432 265.891 55.7617C266.096 55.8802 266.34 55.9134 266.571 55.8542C267.275 55.6516 268.021 55.6311 268.736 55.7945C269.451 55.9579 270.111 56.2998 270.653 56.7873C270.776 56.9175 270.937 57.0077 271.113 57.0459C271.289 57.0841 271.473 57.0685 271.64 57.0012Z" fill="#7D351D"/>
<path d="M227.184 69.9289C227.386 69.8275 227.542 69.6536 227.618 69.4428C227.695 69.2235 227.683 68.9833 227.583 68.7729C227.484 68.5625 227.305 68.3984 227.085 68.3153L221.425 66.3712L225.133 63.9411C225.239 63.8708 225.33 63.779 225.398 63.6717C225.466 63.5645 225.51 63.4443 225.527 63.319L226.908 52.1989C226.937 51.9668 226.871 51.733 226.725 51.5489C226.579 51.3648 226.364 51.2454 226.129 51.2171C225.893 51.1887 225.656 51.2537 225.469 51.3977C225.283 51.5417 225.162 51.753 225.133 51.985L223.811 62.6969L218.959 65.8657C218.823 65.9566 218.714 66.0825 218.644 66.2297C218.575 66.377 218.547 66.5402 218.565 66.7017C218.583 66.8649 218.648 67.0195 218.753 67.1471C218.858 67.2746 218.998 67.3697 219.156 67.421L226.415 70.0261C226.542 70.0683 226.678 70.0815 226.811 70.0647C226.944 70.0478 227.072 70.0014 227.184 69.9289Z" fill="#7D351D"/>
<path d="M227.341 55.9897C227.226 56.051 227.097 56.083 226.967 56.083C226.836 56.083 226.707 56.051 226.592 55.9897C226.368 55.82 226.11 55.6996 225.835 55.6368C225.56 55.5739 225.274 55.57 224.997 55.6253C224.721 55.6805 224.459 55.7938 224.231 55.9573C224.002 56.1207 223.812 56.3307 223.673 56.5729C223.613 56.6597 223.537 56.7341 223.448 56.7918C223.359 56.8495 223.26 56.8895 223.155 56.9093C223.051 56.9292 222.944 56.9286 222.84 56.9076C222.735 56.8865 222.636 56.8455 222.548 56.7868C222.46 56.7281 222.385 56.6528 222.326 56.5653C222.268 56.4779 222.227 56.3799 222.207 56.277C222.187 56.1741 222.188 56.0683 222.209 55.9656C222.23 55.863 222.272 55.7655 222.331 55.6786C222.591 55.2667 222.933 54.9114 223.337 54.6345C223.741 54.3576 224.198 54.165 224.68 54.0685C225.162 53.972 225.659 53.9736 226.14 54.0734C226.622 54.1731 227.077 54.3687 227.479 54.6483C227.657 54.767 227.78 54.9487 227.824 55.1553C227.868 55.362 227.83 55.5774 227.716 55.7564C227.616 55.8679 227.486 55.9488 227.341 55.9897Z" fill="white"/>
<path d="M241.838 45.5304C242.144 45.2699 242.375 44.9347 242.509 44.5584C242.732 43.9602 242.706 43.2992 242.436 42.7199C242.166 42.1406 241.675 41.6903 241.069 41.4673C240.753 41.3507 233.613 38.8234 228.879 44.2279C228.669 44.4679 228.51 44.7463 228.409 45.0471C228.308 45.348 228.269 45.6654 228.293 45.9813C228.316 46.2972 228.403 46.6054 228.548 46.8883C228.692 47.1712 228.892 47.4232 229.136 47.63C229.379 47.8368 229.662 47.9943 229.967 48.0935C230.272 48.1927 230.594 48.2317 230.915 48.2083C231.235 48.1848 231.548 48.0993 231.835 47.9567C232.122 47.8142 232.378 47.6173 232.587 47.3773C233.471 46.5466 234.574 45.9768 235.77 45.7328C236.966 45.4888 238.207 45.5804 239.353 45.997C239.771 46.1499 240.223 46.1873 240.661 46.105C241.099 46.0228 241.506 45.8241 241.838 45.5304Z" fill="#2B2B39"/>
<path d="M212.883 51.1299C213.243 51.0687 213.584 50.9309 213.884 50.7261C214.184 50.5212 214.435 50.2543 214.619 49.944C215.645 48.1749 219.077 48.2527 219.945 48.3693C220.588 48.4544 221.239 48.284 221.755 47.8958C222.271 47.5075 222.61 46.9331 222.696 46.2989C222.782 45.6647 222.61 45.0227 222.216 44.5141C221.822 44.0055 221.239 43.672 220.595 43.5869C217.874 43.2175 212.706 43.5869 210.378 47.475C210.216 47.7478 210.11 48.0495 210.067 48.3628C210.024 48.6761 210.044 48.9948 210.127 49.3004C210.209 49.6059 210.352 49.8923 210.548 50.1429C210.744 50.3936 210.988 50.6035 211.266 50.7605C211.742 51.0721 212.317 51.2033 212.883 51.1299Z" fill="#2B2B39"/>
<path d="M359.59 299.659C359.59 299.659 311.7 316.962 258.346 315.951C237.025 315.542 229.865 308.174 229.865 308.174C228.819 313.287 224.066 316.165 217.439 319.469C217.439 319.469 278.09 340.563 327.301 328.976C367.124 332.592 359.59 299.659 359.59 299.659Z" fill="#64474B"/>
<path d="M296.671 319.101C296.671 319.101 229.057 347.853 207.617 369.355C185.803 391.187 204.619 548.462 204.619 548.462C216.125 549.516 227.691 549.795 239.235 549.298C245.428 493.989 259.156 424.994 256.178 400.752C256.178 400.752 343.062 389.748 356.277 368.694C368.111 349.953 360.597 304.987 360.597 304.987L296.671 319.101Z" fill="#64474B"/>
<path d="M202.293 384.518C208.983 386.414 215.961 387.132 222.904 386.637C223.851 386.637 223.851 385.102 222.904 385.179C216.088 385.674 209.237 384.976 202.667 383.119C202.479 383.07 202.279 383.096 202.11 383.193C201.942 383.29 201.82 383.448 201.77 383.634C201.72 383.819 201.747 384.017 201.845 384.183C201.943 384.349 202.104 384.469 202.293 384.518Z" fill="#39252B"/>
<path d="M278.92 323.766C266.218 331.018 252.944 337.239 240.024 344.082C227.815 350.536 215.586 357.321 207.302 368.636C202.429 375.36 199.245 383.129 198.012 391.303C197.874 392.275 199.393 392.703 199.551 391.712C200.776 384.336 203.549 377.293 207.692 371.033C211.836 364.773 217.258 359.434 223.614 355.357C234.916 347.756 247.48 341.924 259.591 335.761C266.356 332.301 273.121 328.879 279.709 325.108C279.872 324.997 279.987 324.829 280.031 324.638C280.075 324.447 280.043 324.247 279.944 324.077C279.844 323.908 279.684 323.782 279.494 323.724C279.304 323.667 279.099 323.682 278.92 323.766Z" fill="#39252B"/>
<path d="M351.345 302.382C352.9 312.639 353.908 322.97 354.363 333.331C354.363 344.179 353.397 358.857 344.284 366.38C340.241 369.763 334.679 371.707 329.748 373.437C323.621 375.508 317.385 377.254 311.069 378.667C297.992 381.7 284.698 383.877 271.384 385.685C263.791 386.735 256.157 387.629 248.504 388.368C248.297 388.373 248.099 388.456 247.952 388.601C247.805 388.746 247.72 388.941 247.715 389.146C248.79 400.052 248.79 411.036 247.715 421.942C246.887 429.932 245.27 437.786 243.771 445.679C242.272 454.097 241.601 462.515 240.832 470.952C239.846 481.819 238.721 492.648 237.656 503.496C236.493 515.374 235.329 527.253 234.579 539.17C234.579 540.181 236.118 540.161 236.177 539.17C237.498 517.785 240.122 496.303 242.094 474.899C242.942 465.839 243.495 456.76 245.053 447.779C246.335 440.255 247.913 432.771 248.879 425.189C250.283 413.442 250.415 401.581 249.274 389.807C269.253 388.044 289.097 385.018 308.682 380.747C320.241 378.181 333.041 375.401 343.14 369.083C353.239 362.764 355.073 349.331 355.685 338.736C356.178 330.143 354.245 310.372 352.903 301.798L351.345 302.382Z" fill="#39252B"/>
<path d="M349.038 358.429C347.196 358.404 345.368 358.109 343.614 357.554C327.539 352.791 319.945 310.994 319.55 309.205L322.154 308.758C322.154 309.186 329.846 350.75 344.383 355.066C349.038 356.446 352.627 355.941 355.33 353.491C367.046 342.896 358.387 301.098 358.308 300.69L360.892 300.146C361.266 301.934 369.925 343.829 357.105 355.416C354.913 357.412 352.021 358.493 349.038 358.429Z" fill="white"/>
<path d="M291.358 299.177L166.889 319.069C166.652 319.107 166.491 319.327 166.53 319.56L169.039 334.816C169.078 335.049 169.301 335.207 169.537 335.17L294.007 315.277C294.244 315.24 294.404 315.02 294.366 314.787L291.856 299.531C291.818 299.297 291.595 299.139 291.358 299.177Z" fill="#2B2B39"/>
<path d="M155.982 337.375C153.69 337.742 151.339 337.351 149.295 336.265C147.251 335.179 145.628 333.457 144.68 331.368L107.027 248.589C106.49 247.41 106.235 246.124 106.282 244.832C106.329 243.54 106.677 242.276 107.298 241.138C107.92 239.999 108.798 239.017 109.866 238.266C110.934 237.515 112.162 237.016 113.457 236.808L169.572 227.846C171.417 227.554 173.309 227.864 174.96 228.727C176.611 229.589 177.933 230.959 178.724 232.628L223.004 326.682L155.982 337.375Z" fill="#2B2B39"/>
<path d="M182.587 311.519L180.714 307.028L184.501 306.347L182.252 302.343L187.282 301.448L189.53 305.453L192.627 304.909L190.378 300.904L195.388 300.01L197.637 304.015L202.035 303.237L203.909 307.728L200.122 308.408L202.094 312.082L206.473 311.305L208.446 315.796L204.659 316.476L206.907 320.481L201.897 321.356L199.728 317.351L196.611 317.915L198.86 321.919L193.85 322.814L191.601 318.809L187.203 319.587L185.23 315.096L189.017 314.415L187.045 310.741L182.587 311.519ZM194.047 313.463L197.144 312.918L195.171 309.225L192.075 309.788L194.047 313.463Z" fill="#D03F23"/>
<path d="M117.52 261.128C120.301 266.455 126.81 270.052 132.076 269.177C137.342 268.302 139.334 263.345 136.573 257.94C133.812 252.536 127.283 249.017 122.017 249.892C116.75 250.766 114.738 255.802 117.52 261.128Z" fill="#F0C86A"/>
<path d="M127.656 257.434C128.208 258.504 129.037 259.379 129.49 259.223C129.944 259.068 129.865 258.212 129.313 257.162C128.76 256.113 127.932 255.218 127.478 255.374C127.025 255.529 127.104 256.365 127.656 257.434Z" fill="#2B2B39"/>
<path d="M122.685 258.251C123.237 259.321 124.066 260.195 124.519 260.059C124.973 259.923 124.894 259.048 124.342 257.979C123.79 256.91 122.961 256.035 122.508 256.191C122.054 256.346 122.133 257.202 122.685 258.251Z" fill="#2B2B39"/>
<path d="M129.412 264.239C133.495 263.559 132.272 259.262 132.272 259.223C132.231 259.102 132.155 258.996 132.053 258.916C131.952 258.837 131.829 258.788 131.7 258.776C131.648 258.77 131.594 258.777 131.545 258.797C131.496 258.817 131.452 258.849 131.419 258.889C131.385 258.93 131.363 258.979 131.354 259.03C131.344 259.082 131.348 259.135 131.365 259.184C131.365 259.34 132.391 262.839 128.978 263.403C127.808 263.471 126.638 263.248 125.577 262.756C124.516 262.263 123.597 261.517 122.903 260.584C122.828 260.483 122.724 260.407 122.605 260.366C122.485 260.324 122.355 260.319 122.233 260.351C122.036 260.351 122.016 260.681 122.233 260.895C122.45 261.109 125.31 264.939 129.412 264.239Z" fill="#2B2B39"/>
<path d="M178.701 232.628L222.607 325.944L229.017 324.914L185.112 231.598C184.324 229.93 183.007 228.561 181.359 227.698C179.711 226.835 177.822 226.525 175.98 226.816L169.55 227.846C171.395 227.551 173.288 227.859 174.94 228.722C176.592 229.586 177.913 230.957 178.701 232.628Z" fill="#2B2B39"/>
<path d="M213.338 291.573C215.343 289.727 217.808 288.437 220.482 287.832C223.156 287.228 225.944 287.331 228.565 288.132C237.737 290.892 249.906 305.862 249.906 305.862L222.155 310.294L213.338 291.573Z" fill="#C1725C"/>
<path d="M221.879 325.399C221.93 325.415 221.986 325.415 222.037 325.399C222.151 325.349 222.255 325.276 222.341 325.186C222.427 325.096 222.494 324.99 222.538 324.875C222.582 324.759 222.602 324.636 222.597 324.512C222.593 324.388 222.563 324.267 222.51 324.155L178.841 231.053C178.79 230.94 178.717 230.839 178.626 230.754C178.534 230.669 178.427 230.603 178.309 230.56C178.192 230.516 178.067 230.496 177.941 230.501C177.816 230.506 177.693 230.535 177.579 230.587C177.351 230.692 177.174 230.882 177.086 231.114C176.998 231.346 177.005 231.604 177.106 231.831L220.775 324.932C220.878 325.122 221.044 325.271 221.244 325.356C221.445 325.44 221.669 325.456 221.879 325.399Z" fill="#5F5F75"/>
<path d="M170.675 282.785C171.235 283.887 171.517 285.105 171.498 286.336C171.479 287.568 171.159 288.777 170.564 289.861C169.97 290.944 169.119 291.871 168.084 292.561C167.049 293.252 165.861 293.686 164.619 293.828C161.752 294.154 158.854 293.566 156.351 292.148C153.848 290.731 151.872 288.56 150.714 285.954C150.15 284.852 149.864 283.632 149.881 282.398C149.898 281.164 150.217 279.952 150.812 278.865C151.407 277.779 152.259 276.85 153.296 276.159C154.333 275.467 155.525 275.033 156.769 274.892C159.638 274.571 162.537 275.163 165.039 276.584C167.542 278.004 169.517 280.178 170.675 282.785Z" fill="#5F5F75"/>
<path d="M299.845 138.788L301.719 140.732L303.692 142.87C305.033 144.29 306.354 145.728 307.636 147.186C310.279 150.102 312.922 153.018 315.526 156.032C320.713 161.961 325.704 168.027 330.457 174.131C335.125 180.112 339.483 186.321 343.514 192.736C345.487 195.866 347.222 198.957 348.781 202.009C350.238 204.87 351.496 207.826 352.548 210.855C352.666 211.205 352.765 211.535 352.864 211.885L352.962 212.138V211.943V211.593V211.302C352.962 210.543 352.962 210.271 353.061 210.252C353.116 210.957 353.022 211.665 352.785 212.332C352.422 213.693 351.974 215.031 351.443 216.337C350.852 217.795 350.142 219.331 349.372 220.905C347.854 224.074 346.039 227.36 344.106 230.626C343.12 232.259 342.134 233.911 341.088 235.544C340.043 237.177 338.998 238.849 337.932 240.502C335.783 243.807 333.514 247.092 331.226 250.378C328.938 253.663 326.611 256.949 324.224 260.195C321.838 263.442 319.431 266.727 317.005 269.915L313.337 274.756L311.502 277.167L309.688 279.519L309.49 279.772C307.576 282.245 306.674 285.336 306.963 288.433C307.253 291.531 308.712 294.408 311.052 296.495C313.393 298.581 316.443 299.725 319.599 299.699C322.755 299.673 325.785 298.48 328.09 296.355L330.516 294.139L332.883 291.961L337.499 287.529C340.575 284.554 343.573 281.522 346.552 278.45C349.53 275.378 352.469 272.248 355.349 269.06C358.228 265.872 361.088 262.606 363.889 259.34C365.29 257.668 366.69 255.976 368.071 254.246C369.451 252.516 370.793 250.747 372.134 248.958C374.797 245.362 377.44 241.629 380.023 237.586C381.266 235.544 382.489 233.425 383.672 231.151C384.944 228.733 386.077 226.247 387.065 223.705C388.31 220.498 389.165 217.157 389.609 213.751C389.89 211.355 389.89 208.935 389.609 206.539C389.609 206.208 389.609 205.819 389.451 205.469C389.294 205.12 389.333 204.75 389.254 204.361L389.136 203.798L389.037 203.389L388.939 202.884C388.761 202.242 388.623 201.562 388.446 200.94C387.138 196.057 385.47 191.275 383.455 186.631C381.522 182.173 379.445 177.935 377.223 173.917C372.851 166.041 368.01 158.426 362.726 151.113C357.578 143.901 352.153 137.058 346.532 130.389C343.692 127.085 340.852 123.799 337.893 120.669C336.414 119.056 334.934 117.461 333.416 115.867L331.108 113.496L328.642 111.007C324.894 107.527 319.938 105.593 314.789 105.601C309.64 105.61 304.689 107.559 300.953 111.051C297.216 114.542 294.976 119.311 294.694 124.378C294.411 129.445 296.106 134.427 299.431 138.302L299.845 138.788Z" fill="#C1725C"/>
<path d="M359.71 202.689C358.31 204.223 357.049 205.876 355.943 207.627C355.841 207.797 355.812 208 355.861 208.192C355.911 208.383 356.036 208.547 356.209 208.648C356.382 208.748 356.588 208.777 356.782 208.728C356.976 208.679 357.143 208.555 357.245 208.385C358.279 206.736 359.46 205.181 360.775 203.739C361.426 203.039 360.361 201.989 359.71 202.689Z" fill="#7D351D"/>
<path d="M352.926 210.465C356.16 207.167 360.546 205.207 365.194 204.983C366.141 204.983 366.18 206.383 365.194 206.441C360.935 206.641 356.915 208.435 353.952 211.457C353.281 212.137 352.216 211.126 352.886 210.465H352.926Z" fill="#7D351D"/>
<path d="M326.652 286.304C327.62 289.271 327.386 292.491 326 295.292C324.614 298.093 322.183 300.257 319.216 301.332C315.994 302.46 312.992 304.123 310.34 306.25C304.936 311.13 299.926 318.342 296.533 320.034C291.464 322.542 293.18 316.768 293.476 316.146C295.217 312.68 297.194 309.335 299.393 306.133C299.393 306.133 290.143 314.337 288.091 318.712C286.04 323.086 281.76 324.155 281.306 318.984C280.853 313.813 289.196 302.693 292.273 300.224C288.139 302.43 284.684 305.694 282.273 309.672C279.275 315.504 277.421 317.215 275.172 318.673C272.924 320.131 270.419 315.407 274.797 307.358C277.366 302.096 281.492 297.724 286.632 294.819C283.514 295.601 280.482 296.682 277.579 298.046C272.095 300.515 269.196 307.533 265.606 307.456C262.016 307.378 265.606 299.407 269.551 295.927C273.496 292.447 276.218 289.589 282.707 287.412C288.192 285.361 293.876 283.869 299.669 282.96C303.871 282.571 318.604 279.266 323.792 282.396C325.164 283.345 326.171 284.722 326.652 286.304Z" fill="#C1725C"/>
<path d="M311.265 281.541C311.265 281.541 298.78 278.391 294.598 279.597C290.417 280.802 283.474 280.316 284.026 283.135C284.579 285.954 293.119 286.304 293.119 286.304L311.265 281.541Z" fill="#C1725C"/>
<path d="M289.194 135.716C291.364 145.689 309.51 158.501 319.214 170.165C319.629 170.651 322.567 173.703 322.962 174.189C325.154 176.681 327.133 179.347 328.879 182.16C344.895 172.323 352.785 166.258 359.668 155.332C360.004 154.788 360.339 154.243 360.655 153.699C362.782 150.077 364.295 146.137 365.132 142.034C356.055 129.021 344.653 117.744 331.483 108.752L329.767 107.605C325.081 104.422 320.11 101.67 314.915 99.3815C309.696 100.952 304.824 103.478 300.555 106.827C300.043 107.216 299.569 107.624 299.096 108.052C290.871 115.323 286.985 125.432 289.194 135.716Z" fill="#6059C9"/>
<path d="M336.553 134.783C342.471 143.298 351.09 149.558 359.769 155.332C360.104 154.788 360.439 154.243 360.755 153.699C352.767 148.411 344.976 142.676 339.058 135.055C333.141 127.434 329.926 117.928 331.524 108.694L329.808 107.547C327.934 116.917 330.991 126.89 336.553 134.783Z" fill="#9F9FFB"/>
<path d="M318.485 168.746C319.016 169.179 319.511 169.653 319.964 170.165C322.785 161.553 320.97 151.327 318.564 142.598C314.974 129.748 309.925 116.703 300.655 106.769C300.24 106.322 299.807 105.875 299.373 105.447C298.505 104.572 297.183 105.952 298.051 106.827L299.195 107.994C307.736 117.131 312.588 129.028 316.039 140.848C318.544 149.363 321.01 159.939 318.485 168.746Z" fill="#9F9FFB"/>
<path d="M297.972 143.57C307.742 156.894 317.906 169.932 328.465 182.685C329.057 183.404 330.102 182.374 329.51 181.655C318.991 168.992 308.899 156.032 299.234 142.773C298.682 142.015 297.4 142.773 297.972 143.512V143.57Z" fill="#322380"/>
<path d="M300.735 155.274L309.946 159.162C310.814 159.531 311.563 158.268 310.695 157.898L301.484 154.01C300.616 153.66 299.867 154.904 300.735 155.274Z" fill="#322380"/>
<path d="M223.398 214.121C220.353 195.63 214.116 177.791 204.956 161.378C204.502 160.561 203.22 161.378 203.674 162.117C212.787 178.448 218.978 196.204 221.977 214.607C222.135 215.52 223.555 215.132 223.398 214.218V214.121Z" fill="#322380"/>
</svg>
