<svg width="10" height="12" viewBox="0 0 10 12" fill="none" xmlns="http://www.w3.org/2000/svg">
<path d="M9.86687 2.44287L7.59415 0.135173C7.55194 0.0923133 7.50183 0.0583159 7.44668 0.0351227C7.39153 0.0119295 7.33242 -5.34546e-06 7.27273 1.79604e-09H2.72727C2.48625 0.00027486 2.25518 0.0976156 2.08475 0.270667C1.91432 0.443717 1.81845 0.678346 1.81818 0.923077V1.84615H0.909091C0.668068 1.84643 0.436995 1.94377 0.266566 2.11682C0.0961367 2.28987 0.000270694 2.5245 0 2.76923V11.0769C0.000270694 11.3217 0.0961367 11.5563 0.266566 11.7293C0.436995 11.9024 0.668068 11.9997 0.909091 12H7.27273C7.51375 11.9997 7.74482 11.9024 7.91525 11.7293C8.08568 11.5563 8.18155 11.3217 8.18182 11.0769V10.1538H9.09091C9.33193 10.1536 9.56301 10.0562 9.73343 9.88318C9.90386 9.71013 9.99973 9.4755 10 9.23077V2.76923C10 2.70862 9.98825 2.6486 9.96541 2.5926C9.94257 2.5366 9.90909 2.48572 9.86687 2.44287ZM7.27273 11.0769H0.909091V2.76923H5.26631L7.27273 4.80658L7.27318 9.68325C7.27313 9.68631 7.27273 9.68925 7.27273 9.69231C7.27273 9.69537 7.27313 9.69837 7.27318 9.70142L7.2733 11.0769H7.27273ZM9.09091 9.23077H8.18182V4.61538C8.18182 4.55477 8.17007 4.49475 8.14723 4.43876C8.12439 4.38276 8.0909 4.33188 8.04869 4.28902L5.77597 1.98133C5.73376 1.93847 5.68365 1.90447 5.6285 1.88128C5.57335 1.85808 5.51424 1.84615 5.45455 1.84615H2.72727V0.923077H7.08449L9.09091 2.96042V9.23077ZM5.90909 7.38462C5.90909 7.50702 5.8612 7.62442 5.77596 7.71097C5.69071 7.79753 5.5751 7.84615 5.45455 7.84615H2.72727C2.60672 7.84615 2.4911 7.79753 2.40586 7.71097C2.32062 7.62442 2.27273 7.50702 2.27273 7.38462C2.27273 7.26221 2.32062 7.14481 2.40586 7.05826C2.4911 6.9717 2.60672 6.92308 2.72727 6.92308H5.45455C5.5751 6.92308 5.69071 6.9717 5.77596 7.05826C5.8612 7.14481 5.90909 7.26221 5.90909 7.38462ZM5.90909 9.23077C5.90909 9.35318 5.8612 9.47057 5.77596 9.55713C5.69071 9.64368 5.5751 9.69231 5.45455 9.69231H2.72727C2.60672 9.69231 2.4911 9.64368 2.40586 9.55713C2.32062 9.47057 2.27273 9.35318 2.27273 9.23077C2.27273 9.10836 2.32062 8.99097 2.40586 8.90441C2.4911 8.81786 2.60672 8.76923 2.72727 8.76923H5.45455C5.5751 8.76923 5.69071 8.81786 5.77596 8.90441C5.8612 8.99097 5.90909 9.10836 5.90909 9.23077Z" fill="#454545"/>
</svg>
