<svg width="14" height="14" viewBox="0 0 14 14" fill="none" xmlns="http://www.w3.org/2000/svg">
<path fill-rule="evenodd" clip-rule="evenodd" d="M2.37988 2.33329C2.37988 2.03683 2.62021 1.79651 2.91666 1.79651H7.58333C9.16845 1.79651 10.4534 3.0815 10.4534 4.66662C10.4534 6.25174 9.16845 7.53674 7.58333 7.53674H2.91666C2.62021 7.53674 2.37988 7.29641 2.37988 6.99996V2.33329ZM3.45344 2.87007V6.46318H7.58333C8.57554 6.46318 9.37988 5.65883 9.37988 4.66662C9.37988 3.67441 8.57554 2.87007 7.58333 2.87007H3.45344Z" fill="#616061"/>
<path fill-rule="evenodd" clip-rule="evenodd" d="M2.37988 6.99998C2.37988 6.70352 2.62021 6.4632 2.91666 6.4632H8.16666C9.75178 6.4632 11.0368 7.74819 11.0368 9.33331C11.0368 10.9184 9.75178 12.2034 8.16666 12.2034H2.91666C2.62021 12.2034 2.37988 11.9631 2.37988 11.6666V6.99998ZM3.45344 7.53676V11.1299H8.16666C9.15887 11.1299 9.96322 10.3255 9.96322 9.33331C9.96322 8.3411 9.15887 7.53676 8.16666 7.53676H3.45344Z" fill="#616061"/>
</svg>
