<svg width="116" height="46" viewBox="0 0 116 46" fill="none" xmlns="http://www.w3.org/2000/svg">
<path d="M116 23C116 35.7025 105.703 46 93 46C80.2975 46 70 35.7025 70 23C70 10.2975 80.2975 0 93 0C105.703 0 116 10.2975 116 23ZM74.2929 23C74.2929 33.3316 82.6684 41.7071 93 41.7071C103.332 41.7071 111.707 33.3316 111.707 23C111.707 12.6684 103.332 4.2929 93 4.2929C82.6684 4.2929 74.2929 12.6684 74.2929 23Z" fill="#A5D61B"/>
<path d="M90.75 27.5L95.25 23L90.75 18.5" stroke="#333333" stroke-width="1.22693" stroke-linecap="round" stroke-linejoin="round"/>
<path d="M46 23C46 35.7025 35.7025 46 23 46C10.2975 46 0 35.7025 0 23C0 10.2975 10.2975 0 23 0C35.7025 0 46 10.2975 46 23ZM4.2929 23C4.2929 33.3316 12.6684 41.7071 23 41.7071C33.3316 41.7071 41.7071 33.3316 41.7071 23C41.7071 12.6684 33.3316 4.2929 23 4.2929C12.6684 4.2929 4.2929 12.6684 4.2929 23Z" fill="#A5D61B"/>
<path d="M25.25 27.5L20.75 23L25.25 18.5" stroke="#333333" stroke-width="1.22693" stroke-linecap="round" stroke-linejoin="round"/>
</svg>
