<svg width="47" height="47" viewBox="0 0 47 47" fill="none" xmlns="http://www.w3.org/2000/svg">
<rect width="46.6816" height="46.9902" fill="#4285F4"/>
<path d="M30.5469 22.1309H23.4902V25.0312H27.5215C27.3477 25.9688 26.8203 26.7617 26.0254 27.293C25.3535 27.7422 24.4961 28.0078 23.4883 28.0078C21.5371 28.0078 19.8867 26.6895 19.2969 24.918C19.1484 24.4688 19.0625 23.9883 19.0625 23.4941C19.0625 23 19.1484 22.5195 19.2969 22.0703C19.8887 20.3008 21.5391 18.9824 23.4902 18.9824C24.5898 18.9824 25.5762 19.3613 26.3535 20.1035L28.502 17.9531C27.2031 16.7422 25.5098 16 23.4902 16C20.5625 16 18.0293 17.6797 16.7969 20.1289C16.2891 21.1406 16 22.2852 16 23.4961C16 24.707 16.2891 25.8496 16.7969 26.8613C18.0293 29.3105 20.5625 30.9902 23.4902 30.9902C25.5137 30.9902 27.209 30.3184 28.4473 29.1738C29.8633 27.8691 30.6816 25.9473 30.6816 23.6641C30.6816 23.1328 30.6348 22.623 30.5469 22.1309Z" fill="white"/>
</svg>
