<?xml version="1.0" encoding="iso-8859-1"?>
<!-- Generator: Adobe Illustrator 19.0.0, SVG Export Plug-In . SVG Version: 6.00 Build 0)  -->
<svg version="1.1" id="Capa_1" xmlns="http://www.w3.org/2000/svg" xmlns:xlink="http://www.w3.org/1999/xlink" x="0px" y="0px"
	 viewBox="0 0 512 512" style="enable-background:new 0 0 512 512;" xml:space="preserve">
<path style="fill:#E7E8E3;" d="M512,402.282c0,16.716-13.55,30.267-30.265,30.267H30.265C13.55,432.549,0,418.996,0,402.282V109.717
	c0-16.716,13.55-30.266,30.265-30.266h451.469c16.716,0,30.265,13.551,30.265,30.266L512,402.282L512,402.282z"/>
<path style="opacity:0.15;fill:#202121;enable-background:new    ;" d="M21.517,402.282V109.717
	c0-16.716,13.552-30.266,30.267-30.266h-21.52C13.55,79.451,0,93.003,0,109.717V402.28c0,16.716,13.55,30.267,30.265,30.267h21.52
	C35.07,432.549,21.517,418.996,21.517,402.282z"/>
<path style="fill:#0F549D;" d="M196.197,143.37h-53.654c-26.067,0-43.58,17.514-43.58,43.58v77.954c0,0.038,0.004,0.077,0.011,0.115
	c2.057,9.774,12.302,17.143,23.83,17.143c12.727,0,22.322-8.942,22.322-20.802v-38.929h32.8v38.421
	c0,21.91-28.205,32.252-47.261,32.342c-11.272-0.047-22.318-3.509-30.307-9.502c-0.167-0.125-0.394-0.146-0.582-0.052
	c0,0-0.002,0.001-0.004,0.002c-0.157-0.079-0.344-0.081-0.502-0.002c-0.187,0.095-0.306,0.287-0.306,0.498v86.049
	c0,0.307,0.248,0.557,0.557,0.557h55.174c19.452,0,42.061-18.373,42.061-42.061V143.927
	C196.754,143.618,196.507,143.37,196.197,143.37z"/>
<path style="fill:#B41F36;" d="M304.016,143.37h-53.148c-26.474,0-43.58,16.908-43.58,43.077v44.036
	c0,0.216,0.124,0.412,0.319,0.504c0.196,0.091,0.426,0.061,0.593-0.077c4.639-3.868,12.118-8.478,21.408-8.478h57.148v10.396
	c-13.876-3.038-26.711-4.422-32.853-4.422c-14.543,0-26.374,11.831-26.374,26.372l0.004,0.161l-0.004,0.345
	c0,14.542,11.831,26.372,26.374,26.372c7.45,0,20.42-1.212,32.853-3.916v9.383h-57.148c-8.22,0-16.009-3.079-21.372-8.445
	c-0.161-0.16-0.4-0.207-0.607-0.12c-0.209,0.086-0.344,0.289-0.344,0.514v91.112c0,0.307,0.248,0.557,0.557,0.557h54.663
	c19.455,0,42.065-18.373,42.065-42.061V143.927C304.572,143.618,304.324,143.37,304.016,143.37z"/>
<g>
	<path style="fill:#329947;" d="M333.324,280.595c0,0.307,0.25,0.557,0.557,0.557h23.789c6.387,0,12.202-5.816,12.202-12.2
		c0-6.383-5.816-12.198-12.202-12.198h-23.789c-0.306,0-0.557,0.249-0.557,0.557V280.595z"/>
	<path style="fill:#329947;" d="M413.352,143.37h-52.646c-14.013,0-25.4,4.739-33.017,13.08v-0.001c0,0-11.069,10.798-11.069,28.606
		c0,0.658,0,1.283,0,1.894v15.914v19.012c0,0.307,0.248,0.557,0.557,0.557h63.781c8.752,0,16.148,7.396,16.148,16.149
		c0,8.753-7.396,16.148-16.148,16.148c-0.308,0-0.557,0.249-0.557,0.557s0.248,0.557,0.557,0.557
		c9.904,0,17.665,6.871,17.665,15.642c0,8.918-7.595,15.643-17.665,15.643h-63.781c-0.308,0-0.557,0.249-0.557,0.557v82.504
		c0,0.307,0.248,0.557,0.557,0.557h54.669c19.453,0,42.063-18.373,42.063-42.061V143.927
		C413.909,143.618,413.658,143.37,413.352,143.37z"/>
	<path style="fill:#329947;" d="M333.881,252.299h23.789c6.339,0,11.694-5.355,11.694-11.694c0-6.384-5.813-12.199-12.196-12.199
		h-23.287c-0.306,0-0.557,0.249-0.557,0.557v22.78C333.324,252.05,333.574,252.299,333.881,252.299z"/>
</g>
<g>
</g>
<g>
</g>
<g>
</g>
<g>
</g>
<g>
</g>
<g>
</g>
<g>
</g>
<g>
</g>
<g>
</g>
<g>
</g>
<g>
</g>
<g>
</g>
<g>
</g>
<g>
</g>
<g>
</g>
</svg>
