<svg xmlns="http://www.w3.org/2000/svg" data-name="Layer 1" viewBox="0 0 64 80" x="0px" y="0px"><title>Untitled-2</title><path d="M48.65,27.34a1.52,1.52,0,0,1-1.44-1c-.14-.38-.3-.76-.47-1.13a1.52,1.52,0,0,1,.31-1.7,2.83,2.83,0,0,0,0-4l-2.59-2.59a2.83,2.83,0,0,0-4,0,1.53,1.53,0,0,1-1.08.45,1.49,1.49,0,0,1-.62-.14c-.36-.17-.74-.32-1.12-.46a1.52,1.52,0,0,1-1-1.43,2.83,2.83,0,0,0-2.83-2.83H30.17a2.83,2.83,0,0,0-2.83,2.83,1.53,1.53,0,0,1-.27.87,1.5,1.5,0,0,1-.71.56c-.38.14-.75.3-1.12.46a1.52,1.52,0,0,1-1.7-.31,2.83,2.83,0,0,0-4,0l-2.59,2.59a2.83,2.83,0,0,0,0,4,1.53,1.53,0,0,1,.45,1.08,1.49,1.49,0,0,1-.14.62c-.17.36-.32.74-.46,1.12a1.52,1.52,0,0,1-1.43,1,2.83,2.83,0,0,0-2.83,2.83v3.66a2.83,2.83,0,0,0,2.83,2.83,1.53,1.53,0,0,1,.87.27,1.5,1.5,0,0,1,.56.71c.14.38.3.75.46,1.12a1.52,1.52,0,0,1-.31,1.7,2.83,2.83,0,0,0,0,4l2.59,2.59a2.83,2.83,0,0,0,4,0,1.53,1.53,0,0,1,1.08-.45,1.49,1.49,0,0,1,.62.14c.36.17.74.32,1.12.46a1.52,1.52,0,0,1,1,1.43,2.83,2.83,0,0,0,2.83,2.83h3.66a2.83,2.83,0,0,0,2.83-2.83,1.53,1.53,0,0,1,.27-.87,1.5,1.5,0,0,1,.71-.56c.38-.14.75-.3,1.12-.46a1.52,1.52,0,0,1,1.7.31,2.83,2.83,0,0,0,4,0l2.59-2.59a2.83,2.83,0,0,0,0-4,1.53,1.53,0,0,1-.45-1.08,1.49,1.49,0,0,1,.14-.62c.17-.36.32-.74.46-1.12a1.52,1.52,0,0,1,1.43-1,2.83,2.83,0,0,0,2.83-2.83V30.17A2.83,2.83,0,0,0,48.65,27.34ZM32.42,38.47a6.49,6.49,0,1,1,6.05-6.05A6.49,6.49,0,0,1,32.42,38.47Z"/><text x="0" y="79" fill="#000000" font-size="5px" font-weight="bold" font-family="'Helvetica Neue', Helvetica, Arial-Unicode, Arial, Sans-serif">Created by Abdullah Al Noman</text><text x="0" y="84" fill="#000000" font-size="5px" font-weight="bold" font-family="'Helvetica Neue', Helvetica, Arial-Unicode, Arial, Sans-serif">from the Noun Project</text></svg>