<?xml version="1.0" standalone="no"?>
<!DOCTYPE svg PUBLIC "-//W3C//DTD SVG 20010904//EN"
 "http://www.w3.org/TR/2001/REC-SVG-20010904/DTD/svg10.dtd">
<svg version="1.0" xmlns="http://www.w3.org/2000/svg"
 width="383.000000pt" height="323.000000pt" viewBox="0 0 383.000000 323.000000"
 preserveAspectRatio="xMidYMid meet">
<g transform="translate(0.000000,323.000000) scale(0.100000,-0.100000)"
fill="#F40101" stroke="none">
<path d="M1877 2790 c-48 -12 -86 -32 -126 -66 -19 -16 -229 -356 -550 -892
-285 -477 -526 -883 -537 -902 -26 -51 -25 -170 2 -231 26 -55 79 -111 137
-141 l42 -23 1079 -3 c1209 -3 1133 -7 1221 70 81 72 114 168 92 274 -11 50
-91 189 -537 933 -289 481 -540 890 -559 908 -66 64 -176 95 -264 73z m170
-122 c33 -22 115 -152 562 -899 287 -480 527 -892 533 -915 15 -54 -1 -111
-45 -161 -59 -67 10 -63 -1157 -63 -1045 0 -1061 0 -1100 20 -82 42 -124 163
-85 241 37 73 1029 1725 1049 1748 57 64 169 78 243 29z"/>
<path d="M1927 2063 c-10 -3 -22 -16 -28 -29 -5 -14 -9 -132 -9 -262 0 -257 5
-282 54 -282 45 0 46 12 44 290 -3 250 -4 263 -23 275 -11 6 -28 10 -38 8z"/>
<path d="M1925 1173 c-90 -17 -128 -126 -67 -193 72 -82 202 -28 202 84 0 62
-73 120 -135 109z"/>
</g>
</svg>
