<svg xmlns="http://www.w3.org/2000/svg" fill="none" viewBox="0 0 105 31">
  <path fill="#393939" d="M48.6 8.5v.6l-.3.5L40 21.3h8.4V24H35.6V22.2l.3-.5L44.2 10h-8V7.3h12.4v1.2Zm14.7 12.7c.5 0 1 0 1.5-.2a3.2 3.2 0 0 0 1.8-2.1c.2-.5.3-1 .3-1.7v-10h3.4v10c0 1-.1 2-.5 2.8a6.3 6.3 0 0 1-3.6 3.7c-.8.3-1.8.5-3 .5-1 0-2-.2-2.9-.5a6.4 6.4 0 0 1-3.6-3.7c-.3-.8-.5-1.8-.5-2.8v-10h3.5v10c0 .6 0 1.2.2 1.7s.4.9.7 1.2c.3.4.7.7 1.2.9l1.5.2Zm21-6c.6 0 1 0 1.5-.2l1-.6.6-.9.2-1.1c0-.8-.3-1.4-.8-1.9-.6-.4-1.4-.6-2.4-.6h-1.8v5.3h1.7Zm8.2 8.8h-3.2c-.6 0-1-.2-1.2-.7l-3.2-5.1c-.2-.2-.3-.4-.5-.4l-.7-.2h-1.1V24H79V7.3h5.3c1.1 0 2.1 0 3 .3.8.3 1.5.6 2 1 .5.5 1 1 1.2 1.6.2.6.3 1.2.3 2A5.1 5.1 0 0 1 90 15a5 5 0 0 1-1 1c-.5.4-1 .6-1.6.8a3.2 3.2 0 0 1 1.1 1l4 6.1Zm10.5 0h-3.4V7.3h3.5V24Z"/>
  <rect width="11.8" height="11.8" x="3.9" fill="#00B87C" rx="1.1"/>
  <rect width="11.8" height="11.8" y="13.4" fill="#FEA162" rx="1.1"/>
  <rect width="11.8" height="11.8" x="17.3" y="5.6" fill="#1A61DB" rx="1.1"/>
  <rect width="11.8" height="11.8" x="13.4" y="19" fill="#DC1AA3" rx="1.1"/>
</svg>