<svg width="261" height="503" viewBox="0 0 261 503" fill="none" xmlns="http://www.w3.org/2000/svg">
<path d="M134.998 288.493C155.446 219.052 115.729 146.183 46.2884 125.735C-23.1526 105.287 -96.022 145.004 -116.47 214.445C-136.918 283.886 -97.2011 356.755 -27.7601 377.203C41.6809 397.651 114.55 357.934 134.998 288.493Z" fill="white"/>
<path d="M18.8463 282.723L-56.0077 207.869C-61.9485 201.928 -61.9486 192.423 -56.0078 186.482C-50.067 180.542 -41.7499 181.73 -35.8091 187.671L39.0449 262.525C44.9857 268.465 44.9858 277.971 40.2331 282.723C33.1042 287.476 24.7871 288.664 18.8463 282.723ZM74.6897 317.18C68.749 323.121 59.2437 323.121 53.3029 317.18L49.7384 313.615C43.7976 307.675 43.7976 298.169 49.7384 292.229C55.6792 286.288 63.9963 287.476 69.9371 293.417L73.5016 296.981C79.4424 302.922 79.4424 312.427 74.6897 317.18Z" fill="#00B87C"/>
</svg>
