<svg width="79" height="140" viewBox="0 0 79 140" fill="none" xmlns="http://www.w3.org/2000/svg">
<path d="M18.8463 100.723L-56.0077 25.8687C-61.9485 19.9279 -61.9486 10.4227 -56.0078 4.48189C-50.067 -1.45891 -41.7499 -0.270745 -35.8091 5.67005L39.0449 80.5241C44.9857 86.4649 44.9858 95.9701 40.2331 100.723C33.1042 105.475 24.7871 106.664 18.8463 100.723ZM74.6897 135.179C68.749 141.12 59.2437 141.12 53.3029 135.179L49.7384 131.615C43.7976 125.674 43.7976 116.169 49.7384 110.228C55.6792 104.287 63.9963 105.475 69.9371 111.416L73.5016 114.981C79.4424 120.922 79.4424 130.427 74.6897 135.179Z" fill="#00B87C"/>
</svg>
