<svg width="20" height="20" viewBox="0 0 20 20" fill="none" xmlns="http://www.w3.org/2000/svg">
<path d="M8.33325 10.8333C9.05738 11.8014 10.1663 12.4072 11.3721 12.4936C12.578 12.5799 13.7619 12.1383 14.6166 11.2833L17.1166 8.78328C18.6956 7.14837 18.6731 4.54959 17.0658 2.94237C15.4586 1.33514 12.8598 1.31256 11.2249 2.89161L9.79159 4.31661" stroke="#008B5E" stroke-width="1.22693" stroke-linecap="round" stroke-linejoin="round"/>
<path d="M11.6668 9.16664C10.9427 8.19856 9.83381 7.59272 8.62796 7.50636C7.42211 7.42 6.2382 7.86163 5.3835 8.71664L2.8835 11.2166C1.30445 12.8515 1.32703 15.4503 2.93426 17.0575C4.54148 18.6648 7.14025 18.6874 8.77517 17.1083L10.2002 15.6833" stroke="#008B5E" stroke-width="1.22693" stroke-linecap="round" stroke-linejoin="round"/>
</svg>
