<svg width="13" height="12" viewBox="0 0 13 12" fill="none" xmlns="http://www.w3.org/2000/svg">
<path fill-rule="evenodd" clip-rule="evenodd" d="M6.5 7C7.05228 7 7.5 6.55228 7.5 6C7.5 5.44772 7.05228 5 6.5 5C5.94772 5 5.5 5.44772 5.5 6C5.5 6.55228 5.94772 7 6.5 7Z" stroke="white" stroke-linecap="round" stroke-linejoin="round"/>
<path fill-rule="evenodd" clip-rule="evenodd" d="M10.5 7C11.0523 7 11.5 6.55228 11.5 6C11.5 5.44772 11.0523 5 10.5 5C9.94772 5 9.5 5.44772 9.5 6C9.5 6.55228 9.94772 7 10.5 7Z" stroke="white" stroke-linecap="round" stroke-linejoin="round"/>
<path fill-rule="evenodd" clip-rule="evenodd" d="M2.5 7C3.05228 7 3.5 6.55228 3.5 6C3.5 5.44772 3.05228 5 2.5 5C1.94772 5 1.5 5.44772 1.5 6C1.5 6.55228 1.94772 7 2.5 7Z" stroke="white" stroke-linecap="round" stroke-linejoin="round"/>
</svg>
