<svg width="16" height="16" viewBox="0 0 16 16" fill="none" xmlns="http://www.w3.org/2000/svg">
<path d="M16 3.53887C15.3981 3.80137 14.7616 3.97583 14.11 4.05687C14.7967 3.6495 15.3101 3.00443 15.553 2.24387C14.91 2.6252 14.2065 2.89374 13.473 3.03787C13.0232 2.55765 12.4395 2.22379 11.7975 2.07966C11.1555 1.93554 10.485 1.98781 9.87318 2.22969C9.2613 2.47157 8.73632 2.89188 8.36642 3.436C7.99653 3.98013 7.79883 4.62292 7.799 5.28087C7.799 5.54087 7.821 5.79087 7.875 6.02887C6.57008 5.96489 5.29336 5.62621 4.1283 5.03498C2.96325 4.44375 1.93609 3.61328 1.114 2.59787C0.692819 3.31973 0.562609 4.17498 0.749883 4.98947C0.937158 5.80397 1.42783 6.51646 2.122 6.98187C1.60276 6.96794 1.09447 6.82938 0.64 6.57787V6.61387C0.64087 7.3713 0.902665 8.1053 1.38132 8.69233C1.85997 9.27935 2.52625 9.68354 3.268 9.83687C2.98739 9.91082 2.69819 9.94714 2.408 9.94487C2.19959 9.94857 1.99139 9.9298 1.787 9.88887C1.99894 10.5399 2.40749 11.1092 2.95639 11.5184C3.5053 11.9276 4.16756 12.1566 4.852 12.1739C3.69094 13.0819 2.25897 13.5745 0.785 13.5729C0.516 13.5729 0.258 13.5609 0 13.5279C1.49988 14.4944 3.24768 15.0057 5.032 14.9999C11.068 14.9999 14.368 9.99987 14.368 5.66587C14.368 5.52087 14.363 5.38087 14.356 5.24187C15.003 4.77885 15.5601 4.20175 16 3.53887Z" fill="#03A9F4"/>
</svg>
