<svg width="144" height="144" viewBox="0 0 144 144" fill="none" xmlns="http://www.w3.org/2000/svg">
<path d="M126 0H18C8.058 0 0 8.058 0 18V126C0 135.936 8.058 144 18 144H126C135.936 144 144 135.936 144 126V18C144 8.058 135.936 0 126 0ZM62.64 109.08C62.64 113.85 58.77 117.72 54 117.72H27.36C22.59 117.72 18.72 113.844 18.72 109.08V27.36C18.72 22.59 22.59 18.72 27.36 18.72H54C58.77 18.72 62.64 22.59 62.64 27.36V109.08ZM125.28 73.08C125.28 77.844 121.41 81.72 116.64 81.72H90C85.23 81.72 81.36 77.844 81.36 73.08V27.36C81.36 22.59 85.236 18.72 90 18.72H116.64C121.41 18.72 125.28 22.59 125.28 27.36V73.08Z" fill="#0079C0"/>
</svg>
