<svg width="48" height="41" viewBox="0 0 48 41" fill="none" xmlns="http://www.w3.org/2000/svg">
<path d="M29.7527 40.2793C29.7527 40.2793 35.3389 60.6646 35.0799 68.696C34.8209 76.7274 27.4249 102.861 27.4249 102.861L24.2817 103.105C24.2817 103.105 25.7238 71.0954 25.3369 67.2705C25.1514 65.4389 17.9824 42.758 17.9824 42.758L29.7527 40.2793Z" fill="#DF6966"/>
<path d="M29.004 37.2891C29.004 37.2891 32.921 49.3804 34.1617 57.6652L22.6983 60.1623L16.9043 41.3551L29.004 37.2891Z" fill="#DC1AA3"/>
<path d="M23.0568 40.2798L20.9624 60.2866C20.9624 60.2866 10.9412 59.5143 8.45026 58.9587C8.45026 58.9587 7.8619 45.8753 10.2121 40.2798C12.5624 34.6844 23.0568 40.2798 23.0568 40.2798Z" fill="#DC1AA3"/>
<path d="M11.9829 40.9004C11.4481 45.1774 11.1524 49.4785 11.0972 53.7855C11.0823 55.0066 11.0823 56.2276 11.0972 57.4486C11.0931 57.4704 11.081 57.4902 11.0632 57.5044C11.0454 57.5186 11.0229 57.5263 10.9997 57.5263C10.9765 57.5263 10.954 57.5186 10.9362 57.5044C10.9183 57.4902 10.9063 57.4704 10.9022 57.4486C10.8237 53.1425 10.9838 48.8353 11.3818 44.5453C11.4969 43.3242 11.6301 42.1123 11.7815 40.9096C11.7815 40.7905 11.9893 40.7905 11.9734 40.9096L11.9829 40.9004Z" fill="black"/>
<path d="M24.054 13.0571H13.3965C14.1538 10.8714 14.4791 8.57031 14.3558 6.27113C14.1863 3.26736 15.3502 1.69222 16.4022 0.92296C17.1476 0.381827 18.0624 0.096787 18.9987 0.114019C25.7488 0.193387 24.9813 4.11904 24.4345 6.89386C24.0462 8.92592 23.9185 10.9955 24.054 13.0571Z" fill="#201626"/>
<path d="M22.0508 9.66774C22.0508 9.84886 22.107 10.0259 22.2124 10.1765C22.3179 10.3271 22.4677 10.4445 22.643 10.5138C22.8182 10.5831 23.0111 10.6013 23.1972 10.5659C23.3833 10.5306 23.5542 10.4434 23.6884 10.3153C23.8225 10.1872 23.9139 10.024 23.9509 9.8464C23.9879 9.66875 23.9689 9.48462 23.8963 9.31728C23.8237 9.14994 23.7008 9.00692 23.543 8.90629C23.3852 8.80566 23.1998 8.75195 23.0101 8.75195C22.7556 8.75195 22.5116 8.84844 22.3317 9.02018C22.1518 9.19192 22.0508 9.42485 22.0508 9.66774Z" fill="white"/>
<path d="M13.8441 31.1094C13.8441 31.1094 13.6427 34.0246 13.3965 36.3446C13.3965 36.3446 20.7253 40.5419 28.0542 35.093L26.6057 31.204L13.8441 31.1094Z" fill="#740052"/>
<path d="M10.7329 25.0931C11.9672 27.6878 13.2047 30.4168 13.3837 32.3705C13.4573 33.1855 15.2319 33.4633 17.467 33.4236C21.5024 33.3473 27.0374 32.2301 26.804 31.3448C26.4464 29.9931 26.2047 28.6159 26.0813 27.2268C25.6049 21.9825 27.0406 18.6551 26.1517 16.6557C25.7296 15.7216 23.9773 14.8241 22.4649 14.183C21.1858 13.6519 20.0986 13.313 20.0986 13.313L16.0857 13.1055C16.0857 13.1055 10.2309 15.8009 8.99983 17.5531C7.65365 19.4702 9.08936 21.607 10.7329 25.0931Z" fill="#740052"/>
<path d="M26.1525 16.6562C26.1525 16.6562 29.2573 25.8141 31.5883 26.1193C33.2818 25.5714 34.9446 24.9407 36.5702 24.2298C38.8756 23.1125 39.253 23.0942 40.823 24.6693C42.393 26.2445 42.7767 27.2152 41.9133 28.7141C41.05 30.2129 32.1096 34.514 29.7625 34.4499C27.4155 34.3858 24.0996 28.5858 24.0996 28.5858L26.1525 16.6562Z" fill="#740052"/>
<path d="M36.9788 24.1302C36.9089 24.736 36.972 25.349 37.1639 25.9302C37.3559 26.5114 37.6725 27.0481 38.0936 27.5061C38.5147 27.9641 39.0311 28.3334 39.6098 28.5905C40.1886 28.8475 40.8172 28.9867 41.4554 28.9991C41.4838 28.9947 41.5097 28.9807 41.5283 28.9598C41.547 28.9388 41.5572 28.9122 41.5572 28.8847C41.5572 28.8572 41.547 28.8305 41.5283 28.8096C41.5097 28.7886 41.4838 28.7746 41.4554 28.7702C40.8491 28.7571 40.2523 28.6233 39.7032 28.3774C39.1541 28.1315 38.6649 27.7789 38.2667 27.3422C37.8685 26.9055 37.5702 26.3942 37.3908 25.8412C37.2115 25.2881 37.155 24.7053 37.225 24.1302C37.2442 23.9837 37.0043 23.9868 36.9852 24.1302H36.9788Z" fill="#C6781C"/>
<path d="M39.2822 24.7419C39.2822 24.7419 39.231 23.6429 39.8833 22.9805C40.5356 22.3181 40.8714 21.6221 41.3926 21.149C41.9138 20.6758 41.8051 21.5977 41.6484 22.0647C41.4917 22.5318 41.3127 23.0751 41.706 23.1301C42.0993 23.185 45.2681 22.0098 45.7989 22.1472C46.3297 22.2845 45.882 22.6264 45.882 22.6264C45.882 22.6264 46.5951 22.3669 46.8413 22.6264C47.0875 22.8859 46.707 23.1759 46.707 23.1759C46.707 23.1759 47.1898 23.0171 47.2666 23.359C47.3433 23.7009 44.782 25.0349 44.9003 25.212C45.0187 25.389 46.1218 24.2107 46.4991 24.4732C46.8765 24.7358 45.9811 25.2486 45.332 25.737C44.6709 26.2497 43.8431 26.5261 42.9914 26.5185C42.1472 26.491 40.7147 26.8695 40.1327 26.1216C39.7965 25.6933 39.5112 25.2305 39.2822 24.7419Z" fill="#DF6966"/>
<path d="M46.7126 23.1041C45.8684 23.4093 45.0402 23.7573 44.2281 24.1206C44.1321 24.1633 44.244 24.3007 44.34 24.258C45.1394 23.8978 45.9547 23.564 46.7861 23.2567C46.8852 23.2201 46.8117 23.0644 46.7126 23.1041Z" fill="#A53D31"/>
<path d="M45.8327 22.6283C45.1736 22.804 44.539 23.0551 43.943 23.3762C43.8502 23.425 43.9622 23.5624 44.0549 23.5136C44.6388 23.199 45.2605 22.953 45.9063 22.7809C46.0086 22.7535 45.9351 22.6008 45.8327 22.6283Z" fill="#A53D31"/>
<path d="M44.6247 24.8404C44.4303 24.1595 44.0809 23.5278 43.6015 22.9906C43.5247 22.9051 43.3872 22.9906 43.464 23.073C43.9252 23.5865 44.2615 24.1911 44.4488 24.8435C44.4776 24.9442 44.6535 24.9412 44.6247 24.8435V24.8404Z" fill="#A53D31"/>
<path d="M43.215 23.9902C42.1119 23.8436 41.1654 24.2954 40.7625 25.1532C40.7209 25.2417 40.8872 25.3211 40.9288 25.2295C41.2997 24.4328 42.1758 24.0085 43.199 24.1459C43.2107 24.1489 43.223 24.1495 43.2349 24.1476C43.2468 24.1457 43.2582 24.1413 43.2682 24.1347C43.2782 24.1282 43.2865 24.1196 43.2927 24.1097C43.2988 24.0997 43.3026 24.0886 43.3038 24.0771C43.305 24.0656 43.3035 24.0539 43.2995 24.043C43.2955 24.0321 43.289 24.0222 43.2806 24.0139C43.2721 24.0056 43.2619 23.9992 43.2506 23.9951C43.2392 23.991 43.2271 23.9893 43.215 23.9902Z" fill="#A53D31"/>
<path d="M27.8758 33.3883C28.1495 33.1377 28.4782 32.9483 28.838 32.8339C29.1977 32.7195 29.5797 32.6828 29.9561 32.7267C30.3325 32.7705 30.6941 32.8937 31.0145 33.0873C31.3349 33.2809 31.6063 33.5401 31.8089 33.8461C31.892 33.9682 32.0998 33.8461 32.0167 33.7301C31.794 33.3956 31.4963 33.1124 31.1453 32.9007C30.7942 32.6891 30.3983 32.5544 29.9862 32.5062C29.574 32.458 29.1558 32.4977 28.7616 32.6222C28.3675 32.7467 28.0071 32.9531 27.7064 33.2265C27.5913 33.3272 27.7607 33.489 27.8758 33.3883Z" fill="#C6781C"/>
<path d="M31.4968 26.1989C30.6724 26.7619 29.8961 27.3866 29.1754 28.0671C29.0634 28.1709 29.2329 28.3327 29.3448 28.2289C30.0511 27.5623 30.8113 26.9499 31.6183 26.3973C31.743 26.3118 31.6183 26.1134 31.4968 26.2019V26.1989Z" fill="#C6781C"/>
<path d="M30.8002 26.6133C30.4182 26.6198 30.0387 26.6742 29.6715 26.7751C29.641 26.7832 29.615 26.8025 29.5994 26.8288C29.5839 26.8552 29.5799 26.8863 29.5883 26.9155C29.5968 26.9446 29.6171 26.9694 29.6447 26.9843C29.6723 26.9991 29.7049 27.003 29.7354 26.9949C30.0819 26.9001 30.4399 26.8488 30.8002 26.8422C30.8287 26.8378 30.8545 26.8238 30.8732 26.8029C30.8918 26.7819 30.9021 26.7553 30.9021 26.7278C30.9021 26.7002 30.8918 26.6736 30.8732 26.6527C30.8545 26.6317 30.8287 26.6177 30.8002 26.6133Z" fill="#C6781C"/>
<path d="M26.6617 17.9078C26.7001 19.5454 27.138 21.1519 27.9407 22.5996C27.9982 22.7034 27.832 22.7981 27.7712 22.6912C26.9608 21.2135 26.5228 19.5756 26.4922 17.9078C26.4963 17.886 26.5084 17.8663 26.5262 17.8521C26.544 17.8379 26.5665 17.8301 26.5897 17.8301C26.6129 17.8301 26.6354 17.8379 26.6532 17.8521C26.671 17.8663 26.6831 17.886 26.6872 17.9078H26.6617Z" fill="#C6781C"/>
<path d="M22.704 18.9132C21.6302 19.2203 20.4998 19.3029 19.3896 19.1554C18.2794 19.0079 17.2155 18.6338 16.2704 18.0585C16.1649 17.9944 16.2704 17.8356 16.3696 17.8997C17.2925 18.4617 18.3315 18.8272 19.4157 18.9716C20.4999 19.1159 21.604 19.0356 22.6528 18.7361C22.6774 18.7297 22.7037 18.7328 22.7259 18.7448C22.7481 18.7568 22.7643 18.7768 22.7711 18.8002C22.7779 18.8237 22.7746 18.8488 22.762 18.87C22.7495 18.8912 22.7286 18.9067 22.704 18.9132Z" fill="#C6781C"/>
<path d="M26.0086 28.0597C23.4841 28.9546 20.7346 29.0972 18.1234 28.4688C18.1009 28.4593 18.0828 28.4424 18.0723 28.4212C18.0618 28.3999 18.0597 28.3758 18.0663 28.3532C18.0729 28.3307 18.0877 28.3111 18.1082 28.2981C18.1287 28.2851 18.1533 28.2796 18.1777 28.2826C20.7535 28.9014 23.4653 28.7588 25.9542 27.8735C26.0758 27.8308 26.1269 28.017 26.0086 28.0597Z" fill="#C6781C"/>
<path d="M11.7746 23.8639C13.3959 26.3863 14.4044 29.2235 14.726 32.167C14.726 32.2921 14.5373 32.2891 14.5245 32.167C14.205 29.2538 13.2064 26.446 11.6019 23.9493C11.5883 23.9275 11.5844 23.9014 11.591 23.8767C11.5976 23.8521 11.6142 23.831 11.6371 23.8181C11.66 23.8051 11.6873 23.8014 11.7131 23.8077C11.7389 23.814 11.761 23.8298 11.7746 23.8517V23.8639Z" fill="#C6781C"/>
<path d="M10.0277 16.6573C10.0277 16.6573 1.65322 22.5733 0.358198 25.4519C-0.936824 28.3305 5.12899 36.9846 8.40012 37.7813C11.6712 38.5781 14.3604 34.1671 12.6497 32.2744C10.939 30.3818 9.31463 28.364 9.31463 28.364C9.31463 28.364 12.9407 26.2272 13.3979 25.4641C15.0031 22.7778 11.5977 15.4668 10.0277 16.6573Z" fill="#740052"/>
<path d="M12.0712 31.5302C11.3252 31.3082 10.5303 31.2819 9.77 31.454C9.00967 31.6262 8.31185 31.9905 7.74974 32.5087C7.18762 33.0269 6.78191 33.6799 6.57514 34.3993C6.36838 35.1188 6.36818 35.878 6.57456 36.5975C6.58304 36.6267 6.60331 36.6514 6.63089 36.6663C6.65847 36.6812 6.69112 36.685 6.72165 36.6769C6.75218 36.6688 6.77809 36.6495 6.79368 36.6231C6.80928 36.5968 6.81327 36.5656 6.80479 36.5365C6.61021 35.8556 6.61118 35.1374 6.80758 34.457C7.00398 33.7766 7.38858 33.1593 7.92102 32.6697C8.45346 32.1802 9.11411 31.8364 9.83365 31.6746C10.5532 31.5128 11.3051 31.5388 12.0105 31.75C12.041 31.7581 12.0736 31.7543 12.1012 31.7394C12.1288 31.7245 12.1491 31.6998 12.1575 31.6706C12.166 31.6415 12.162 31.6103 12.1464 31.584C12.1308 31.5576 12.1049 31.5383 12.0744 31.5302H12.0712Z" fill="#C6781C"/>
<path d="M1.37396 24.0647C1.77923 24.7105 1.91796 25.4774 1.76306 26.2156C1.60817 26.9538 1.17077 27.6105 0.536192 28.0575C0.411486 28.1429 0.536192 28.3444 0.654502 28.2559C1.34359 27.7774 1.82066 27.0706 1.9922 26.2738C2.16374 25.477 2.01738 24.6478 1.5818 23.9487C1.56367 23.9266 1.53779 23.9116 1.50895 23.9063C1.48011 23.9011 1.45025 23.906 1.4249 23.9202C1.39956 23.9343 1.38043 23.9567 1.37107 23.9833C1.3617 24.0099 1.36273 24.0388 1.37396 24.0647Z" fill="#C6781C"/>
<path d="M11.7209 26.893C12.4267 26.3145 13.23 25.8541 14.0967 25.5315C14.2406 25.4765 14.1799 25.2568 14.036 25.3086C13.1299 25.6461 12.29 26.127 11.5514 26.7312C11.4331 26.8288 11.6058 26.9906 11.7209 26.893Z" fill="#C6781C"/>
<path d="M9.32605 28.2606C8.58545 27.2541 7.65116 26.3912 6.57294 25.7178C6.44184 25.6384 6.32352 25.8338 6.45143 25.9162C7.50014 26.5665 8.40953 27.4015 9.131 28.3766C9.22053 28.4957 9.42838 28.3766 9.33884 28.2606H9.32605Z" fill="#C6781C"/>
<path d="M8.72365 27.4136C8.62888 26.8088 8.45707 26.2173 8.21204 25.6523C8.15449 25.518 7.92426 25.576 7.98182 25.7133C8.22839 26.2779 8.40025 26.8695 8.49343 27.4747C8.51581 27.6212 8.74923 27.5602 8.72685 27.4136H8.72365Z" fill="#C6781C"/>
<path d="M26.1478 18.8613C26.1478 18.8613 25.9399 20.235 27.6219 22.091C29.6523 24.3285 26.6306 26.7767 25.9751 27.4819C25.3196 28.187 26.1478 18.8613 26.1478 18.8613Z" fill="#740052"/>
<path d="M22.6471 14.2011C22.6471 14.2011 23.859 19.3692 23.6511 20.2026C23.4849 20.865 17.6237 21.3473 16.9074 20.6238C16.1912 19.9004 14.3334 13.8867 14.3334 13.8867C13.7832 13.9295 13.2503 14.0911 12.7751 14.3592C12.2998 14.6273 11.8945 14.9949 11.5898 15.4344C12.1526 14.8849 15.1935 22.7606 14.3334 28.3622C13.9177 31.1095 12.2166 36.1646 12.2166 36.1646C17.4678 36.2273 22.6971 35.5063 27.7153 34.0278C27.7153 34.0278 26.4362 31.3904 26.3755 29.7267C26.3147 28.063 25.7775 29.0338 26.8231 27.3518C27.8687 25.6698 29.5059 24.6685 27.8751 22.3974C26.2444 20.1262 24.6776 18.371 24.7799 15.2268C24.2084 14.6677 23.4578 14.3068 22.6471 14.2011Z" fill="#DC1AA3"/>
<path d="M15.1597 16.693C14.7494 16.6453 14.333 16.6904 13.9442 16.8245C13.5554 16.9587 13.205 17.1782 12.9214 17.4653C12.8351 17.5539 12.7008 17.4226 12.7839 17.3341C13.0838 17.0309 13.4534 16.7984 13.8634 16.6548C14.2735 16.5113 14.7129 16.4606 15.147 16.5068C15.2685 16.5068 15.2717 16.7052 15.147 16.693H15.1597Z" fill="black"/>
<path d="M24.8018 16.626C24.3025 16.4522 23.7535 16.4609 23.2606 16.6505C23.1455 16.6932 23.0943 16.5161 23.2094 16.4734C23.7361 16.2702 24.3231 16.2615 24.8562 16.449C24.9713 16.4887 24.9201 16.6688 24.8018 16.626Z" fill="black"/>
<path d="M26.0791 23.204C23.0423 23.986 19.8836 24.2444 16.7517 23.9671C16.627 23.9671 16.627 23.7687 16.7517 23.7809C19.8653 24.06 23.006 23.8035 26.0247 23.0239C26.048 23.0217 26.0714 23.0275 26.0907 23.0402C26.1099 23.0529 26.1239 23.0717 26.13 23.0933C26.1361 23.1149 26.1341 23.1378 26.1242 23.1581C26.1143 23.1784 26.0971 23.1946 26.0759 23.204H26.0791Z" fill="black"/>
<path d="M16.8046 23.8978C16.665 25.2351 16.6532 26.5818 16.7695 27.9212C16.7982 28.2508 16.8334 28.5805 16.8782 28.9072C16.8783 29.0744 16.9144 29.2397 16.9843 29.3931C17.0542 29.5464 17.1563 29.6844 17.2843 29.7985C17.5787 29.9479 17.9107 30.0166 18.2435 29.9969C18.6017 30.0183 18.9598 30.0336 19.3211 30.0397C20.772 30.0683 22.2229 29.9866 23.6602 29.7955C24.2422 29.7536 24.8139 29.6259 25.355 29.4169C26.0105 29.1117 26.2343 28.5317 26.2695 27.8662C26.3208 26.3144 26.2051 24.7616 25.9241 23.2324C25.9049 23.1164 26.0936 23.0675 26.1128 23.1835C26.3815 24.6958 26.4992 26.2289 26.4645 27.7624C26.4828 28.0359 26.4439 28.31 26.35 28.5689C26.2561 28.8278 26.1092 29.0663 25.9177 29.2704C25.4977 29.5968 24.9883 29.8013 24.4501 29.8596C22.8761 30.1219 21.2801 30.2455 19.6825 30.2289C18.9615 30.2694 18.2381 30.2285 17.5273 30.1068C16.9773 29.9756 16.7727 29.5482 16.6927 29.0476C16.4386 27.3413 16.4064 25.6116 16.5968 23.8978C16.5968 23.7788 16.8014 23.7788 16.7918 23.8978H16.8046Z" fill="black"/>
<path d="M15.0664 21.7881C15.0652 21.9385 15.1109 22.0858 15.1976 22.2113C15.2844 22.3368 15.4084 22.4348 15.5538 22.4927C15.6991 22.5507 15.8592 22.566 16.0137 22.5367C16.1683 22.5075 16.3101 22.4349 16.4213 22.3284C16.5324 22.2218 16.6078 22.0861 16.6379 21.9385C16.6679 21.7909 16.6512 21.638 16.5899 21.4995C16.5286 21.361 16.4255 21.2431 16.2937 21.1607C16.1619 21.0784 16.0073 21.0354 15.8498 21.0372C15.6423 21.0396 15.444 21.1195 15.2975 21.2599C15.1511 21.4003 15.0681 21.59 15.0664 21.7881Z" fill="black"/>
<path d="M24.3047 20.8703C24.3047 21.0201 24.3512 21.1664 24.4383 21.2909C24.5255 21.4154 24.6493 21.5124 24.7942 21.5697C24.9391 21.627 25.0986 21.642 25.2524 21.6128C25.4062 21.5836 25.5475 21.5115 25.6584 21.4056C25.7693 21.2998 25.8448 21.1649 25.8754 21.018C25.906 20.8712 25.8903 20.719 25.8303 20.5806C25.7703 20.4423 25.6687 20.3241 25.5383 20.2409C25.4078 20.1577 25.2545 20.1133 25.0977 20.1133C24.8874 20.1133 24.6857 20.193 24.537 20.335C24.3882 20.477 24.3047 20.6695 24.3047 20.8703Z" fill="black"/>
<path d="M15.8047 13.7282C15.8047 13.7282 18.3276 15.9597 21.0391 14.2228L20.8857 12.727L20.7194 11.103L20.6043 9.96132L17.1828 7.7207L15.8047 13.7282Z" fill="#DF6966"/>
<path d="M17.8145 9.61719C19.0935 12.5172 20.4876 13.6131 20.9769 13.5856L20.7211 11.1038L17.8145 9.61719Z" fill="#201626"/>
<path d="M21.4658 13.7849C21.4658 13.7849 21.3315 12.2586 20.9766 12.1731C20.6217 12.0877 19.9022 12.7837 18.7607 12.573C17.6191 12.3624 16.5895 11.352 16.0907 11.5992C15.5919 11.8465 15.416 13.9498 15.416 13.9498C15.416 13.9498 17.0148 15.6806 19.1636 15.4761C21.3124 15.2715 21.4658 13.7849 21.4658 13.7849Z" fill="#740052"/>
<path d="M21.4345 14.6294C20.3605 15.1718 19.1417 15.3971 17.9332 15.2765C17.0155 15.1789 15.8516 14.9072 15.4679 13.9975C15.4231 13.8876 15.6085 13.8388 15.6565 13.9487C16.037 14.8644 17.3672 15.069 18.2625 15.1148C19.3309 15.1665 20.394 14.9408 21.3386 14.4615C21.4473 14.4066 21.5465 14.5653 21.4345 14.6233V14.6294Z" fill="#C6781C"/>
<path d="M16.1163 6.83031C16.3593 7.98114 16.6599 8.37798 17.4305 9.53797C18.0548 10.4142 19.0007 11.0351 20.0813 11.278C22.5306 11.6626 23.7617 10.8018 23.7393 7.58125C23.7233 5.58179 24.3788 4.52864 23.9344 3.7136L23.8416 3.61286C23.0439 2.73871 21.9238 2.192 20.7144 2.08655C14.7189 1.56151 15.7677 5.19411 16.1163 6.83031Z" fill="#DF6966"/>
<path d="M20.8265 5.75915C20.7109 5.69699 20.5744 5.68072 20.4464 5.71385C20.3183 5.74697 20.2091 5.82684 20.1422 5.9362C20.0303 6.17125 19.6242 6.04609 19.7361 5.80494C19.7864 5.6991 19.8582 5.60383 19.9473 5.52465C20.0364 5.44547 20.1411 5.38395 20.2553 5.34364C20.3695 5.30332 20.4909 5.28503 20.6126 5.28981C20.7342 5.29458 20.8537 5.32234 20.964 5.37147C21.2134 5.47831 21.0791 5.86904 20.8265 5.75915Z" fill="#201626"/>
<path d="M23.2732 6.19166C23.123 5.99019 22.9311 5.70019 22.6337 5.75208C22.3364 5.80398 22.2724 5.40104 22.541 5.35219C23.0238 5.26672 23.3404 5.57809 23.5962 5.91998C23.7561 6.13061 23.4395 6.40534 23.2764 6.19166H23.2732Z" fill="#201626"/>
<path d="M21.7855 7.91954C21.8992 7.93452 22.0144 7.90579 22.1058 7.83967C22.1973 7.77355 22.2575 7.67546 22.2732 7.56697C22.2889 7.45848 22.2588 7.34849 22.1895 7.26119C22.1202 7.17388 22.0175 7.11642 21.9039 7.10145L21.8047 6.76261C21.8014 6.75023 21.7955 6.73863 21.7874 6.72849C21.7792 6.71835 21.769 6.70989 21.7574 6.70362C21.7457 6.69734 21.7329 6.69338 21.7196 6.69198C21.7063 6.69058 21.6928 6.69176 21.68 6.69545C21.6645 6.69738 21.6497 6.70279 21.6368 6.71122C21.624 6.71965 21.6133 6.73087 21.6059 6.74397C21.5984 6.75706 21.5942 6.77166 21.5938 6.78657C21.5933 6.80148 21.5966 6.81628 21.6033 6.82976L21.7184 7.22355C21.7237 7.24028 21.7336 7.25533 21.7471 7.26714C21.7606 7.27896 21.7772 7.28709 21.7951 7.29071C21.7951 7.29071 22.0765 7.34565 22.0573 7.54713C22.0382 7.7486 21.7855 7.74249 21.7759 7.74249C21.7494 7.74329 21.7242 7.75393 21.7057 7.77216C21.6871 7.79039 21.6768 7.81479 21.6768 7.84018C21.6821 7.86358 21.696 7.88442 21.7159 7.89897C21.7358 7.91351 21.7605 7.92081 21.7855 7.91954Z" fill="#201626"/>
<path d="M19.1621 7.3948C19.1621 7.56575 19.4211 7.71838 19.7665 7.73669C20.1118 7.75501 20.406 7.62985 20.406 7.46196C20.406 7.29407 20.147 7.13533 19.8048 7.11701C19.4627 7.0987 19.1717 7.22386 19.1621 7.3948Z" fill="#A53D31"/>
<path d="M22.7051 7.74581C22.7051 7.91675 22.9673 8.07243 23.3094 8.09075C23.4515 8.10476 23.595 8.09126 23.7315 8.05107C23.7315 7.90454 23.7315 7.74581 23.7315 7.59928V7.58096C23.6076 7.52699 23.4742 7.49592 23.3382 7.48939C23.0025 7.46497 22.7147 7.59012 22.7051 7.74581Z" fill="#A53D31"/>
<path d="M20.7569 7.94371H20.677C20.5324 7.95023 20.3881 7.92626 20.2544 7.8735C20.1207 7.82073 20.0007 7.74048 19.9032 7.63845C19.6889 7.4176 19.5651 7.1304 19.5546 6.82951C19.5194 6.5407 19.6052 6.25029 19.7932 6.02158C19.9813 5.79286 20.2564 5.64437 20.5587 5.60847C20.7032 5.60195 20.8475 5.62593 20.9812 5.67869C21.115 5.73145 21.2349 5.8117 21.3325 5.91373C21.5424 6.13519 21.6655 6.41929 21.6806 6.71763C21.6958 7.01597 21.6021 7.31011 21.4156 7.54993C21.3396 7.65479 21.2419 7.74378 21.1287 7.81147C21.0154 7.87917 20.889 7.92416 20.7569 7.94371ZM19.7369 6.82951C19.7486 7.08705 19.855 7.33241 20.0375 7.52245C20.1157 7.61023 20.2141 7.67963 20.3249 7.72528C20.4358 7.77093 20.5562 7.79161 20.6768 7.7857C20.7974 7.7798 20.9149 7.74748 21.0203 7.69124C21.1257 7.635 21.2161 7.55636 21.2845 7.4614C21.4477 7.25591 21.5282 7.00139 21.5115 6.74404C21.4998 6.4865 21.3934 6.24114 21.211 6.0511C21.1311 5.96559 21.0322 5.8982 20.9216 5.85383C20.811 5.80947 20.6913 5.78926 20.5715 5.79468C20.4451 5.80933 20.323 5.84786 20.2123 5.90803C20.1017 5.96819 20.0047 6.04879 19.927 6.14511C19.8493 6.24143 19.7925 6.35156 19.7599 6.46906C19.7272 6.58657 19.7194 6.7091 19.7369 6.82951Z" fill="white"/>
<path d="M22.1155 6.69642C22.0517 6.6311 21.9686 6.58588 21.8772 6.5668C21.7858 6.54771 21.6905 6.55565 21.6039 6.58957C21.5208 6.6201 21.5751 6.74221 21.6583 6.71168C21.716 6.68999 21.7791 6.68479 21.8398 6.69672C21.9006 6.70864 21.9564 6.73717 22.0004 6.77884C22.0612 6.83684 22.1699 6.75747 22.1092 6.69642H22.1155Z" fill="white"/>
<path d="M21.9977 6.98519V7.05235V7.14087C22.0798 7.17408 22.1488 7.23125 22.1947 7.30419C22.2407 7.37713 22.2612 7.46208 22.2535 7.54687C22.2502 7.60023 22.235 7.65228 22.2087 7.6995C22.2459 7.7562 22.2888 7.80936 22.3366 7.85824C22.4342 7.96027 22.5541 8.04052 22.6879 8.09328C22.8216 8.14604 22.9659 8.17002 23.1105 8.1635H23.1904C23.3206 8.14621 23.4458 8.10438 23.5589 8.04045C23.672 7.97651 23.7706 7.89175 23.8491 7.79108C24.0359 7.55078 24.1296 7.25613 24.1145 6.95727C24.0993 6.6584 23.9762 6.37378 23.766 6.15183C23.668 6.0503 23.548 5.97038 23.4143 5.91766C23.2807 5.86494 23.1366 5.84068 22.9921 5.84657C22.7065 5.88161 22.4453 6.01842 22.2609 6.22958C22.0764 6.44074 21.9824 6.71065 21.9977 6.98519ZM23.0113 6.01141C23.131 6.00747 23.2502 6.02835 23.3606 6.07262C23.471 6.11689 23.57 6.18349 23.6508 6.26783C23.8324 6.45817 23.9377 6.70356 23.9482 6.96077C23.9649 7.21812 23.8843 7.47264 23.7212 7.67813C23.6523 7.77069 23.5622 7.84711 23.4579 7.90165C23.3536 7.95618 23.2376 7.98742 23.1188 7.993C23 7.99859 22.8814 7.97837 22.7719 7.93388C22.6625 7.88939 22.5651 7.82178 22.4869 7.73613C22.3038 7.54652 22.1972 7.3009 22.1864 7.04319C22.1693 6.92369 22.1771 6.80215 22.2093 6.68553C22.2416 6.56892 22.2976 6.45954 22.3743 6.36367C22.4509 6.2678 22.5467 6.18733 22.656 6.12688C22.7653 6.06643 22.8861 6.02718 23.0113 6.01141Z" fill="white"/>
<path d="M19.6819 6.37862C19.2787 5.9586 18.723 5.70099 18.1279 5.6582C18.0415 5.6582 18.0224 5.78336 18.1087 5.78947C18.6687 5.82673 19.1927 6.06699 19.5732 6.46104C19.6339 6.52209 19.7426 6.43967 19.6819 6.37862Z" fill="white"/>
<path d="M20.3883 6.50601C20.5148 6.49474 20.6416 6.52284 20.75 6.58611C20.8583 6.64939 20.9423 6.74444 20.9894 6.85706C20.9976 6.8743 21.0093 6.88983 21.0238 6.90276C21.0382 6.91569 21.0552 6.92578 21.0738 6.93244C21.0923 6.9391 21.1121 6.94221 21.1319 6.94158C21.1517 6.94096 21.1712 6.93661 21.1893 6.9288C21.2073 6.92098 21.2236 6.90984 21.2371 6.89602C21.2507 6.88221 21.2613 6.86597 21.2682 6.84826C21.2752 6.83054 21.2785 6.81169 21.2778 6.79277C21.2772 6.77385 21.2726 6.75525 21.2644 6.73801C21.1886 6.56933 21.0584 6.42809 20.8929 6.33478C20.7273 6.24147 20.5349 6.20094 20.3435 6.21907C20.1485 6.23738 20.1964 6.52433 20.3883 6.50601Z" fill="#201626"/>
<path d="M23.1229 6.75126C23.0198 6.73474 22.9139 6.74976 22.8203 6.79417C22.7267 6.83858 22.6502 6.9101 22.6017 6.99852C22.525 7.13284 22.3107 7.01379 22.3843 6.87947C22.4628 6.74505 22.5843 6.63815 22.731 6.57443C22.8777 6.51071 23.042 6.49351 23.1997 6.52537C23.3595 6.5559 23.2956 6.78484 23.1389 6.75737L23.1229 6.75126Z" fill="#201626"/>
<path d="M21.7884 9.97321C21.6699 10.0149 21.5415 10.0241 21.4178 9.99981C21.2941 9.97554 21.1799 9.91875 21.0882 9.83584C20.9922 9.74121 21.1521 9.60384 21.2481 9.70153C21.3155 9.75621 21.3976 9.792 21.485 9.80493C21.5725 9.81786 21.662 9.80743 21.7437 9.77479C21.878 9.73816 21.9227 9.93963 21.7884 9.97321Z" fill="#A53D31"/>
<path d="M16.3929 2.34465C18.4042 1.14802 21.9375 0.41845 24.179 3.0498C24.9177 4.13042 23.9136 6.20925 23.9552 5.49189C24.0511 3.76411 23.1398 2.80864 22.7049 3.26043C22.7049 3.26043 19.4146 6.12988 17.4513 5.79715C17.4513 5.79715 16.9333 7.17692 15.7726 7.50355C15.1586 5.83072 15.3057 3.77632 16.3929 2.34465Z" fill="#201626"/>
<path d="M22.6993 8.51206C21.9366 8.53526 21.1765 8.41708 20.4609 8.16406C20.4609 8.16406 20.5057 9.45532 21.5993 9.50721C22.5138 9.553 22.6993 8.51206 22.6993 8.51206Z" fill="white"/>
<path d="M18.4045 7.8756C18.4855 7.67339 18.5175 7.45631 18.4981 7.24062C18.4787 7.02493 18.4085 6.81622 18.2926 6.63014C17.9984 6.13867 17.442 5.37857 16.8633 5.40909C16.0095 5.47625 15.8656 6.18751 15.904 6.9354C15.9424 7.68329 16.3932 8.66012 17.4452 8.55939C17.6577 8.54755 17.8618 8.47645 18.0323 8.3549C18.2029 8.23335 18.3323 8.0667 18.4045 7.8756Z" fill="#DF6966"/>
<path d="M15.6543 8.56617C15.6543 8.7473 15.7106 8.92436 15.816 9.07496C15.9214 9.22556 16.0712 9.34293 16.2465 9.41225C16.4218 9.48156 16.6146 9.4997 16.8007 9.46436C16.9868 9.42903 17.1577 9.34181 17.2919 9.21373C17.426 9.08566 17.5174 8.92248 17.5544 8.74483C17.5914 8.56719 17.5724 8.38306 17.4998 8.21572C17.4272 8.04838 17.3043 7.90536 17.1465 7.80473C16.9888 7.7041 16.8033 7.65039 16.6136 7.65039C16.3592 7.65039 16.1152 7.74687 15.9353 7.91862C15.7554 8.09036 15.6543 8.32329 15.6543 8.56617Z" fill="white"/>
<path d="M17.3041 7.67548C17.3913 7.38196 17.399 7.07209 17.3265 6.77496C17.2433 6.50938 16.9747 6.11559 16.623 6.19496C16.5047 6.22243 16.4407 6.05149 16.559 6.02402C16.7217 6.00047 16.8879 6.02679 17.0339 6.0992C17.1798 6.17161 17.298 6.28637 17.3712 6.42696C17.585 6.82401 17.6286 7.28492 17.4927 7.71211C17.4877 7.73599 17.4728 7.75697 17.4515 7.77042C17.4303 7.78387 17.4042 7.7887 17.3792 7.78384C17.3542 7.77899 17.3322 7.76484 17.3181 7.74452C17.3041 7.72419 17.299 7.69936 17.3041 7.67548Z" fill="#201626"/>
<path d="M10.3407 43.3285C12.4447 48.582 27.5501 45.0654 29.3855 43.1453C31.2209 41.2252 27.4317 33.4258 27.4317 33.4258C23.2761 35.1638 18.6544 35.6154 14.2161 34.717L13.9923 34.6712C13.794 34.6285 13.5958 34.5858 13.3943 34.5369C13.3943 34.5369 13.2856 34.6529 13.1098 34.8605L12.9595 35.0437C11.8563 36.4021 9.10319 40.2301 10.3407 43.3285Z" fill="#DC1AA3"/>
<path d="M23.1845 38.0901L21.8703 52.5228L21.4962 56.6377C21.4962 56.7568 21.2915 56.7568 21.3011 56.6377L22.6153 42.205L22.9894 38.0901C22.9894 37.9741 23.1973 37.971 23.1845 38.0901Z" fill="black"/>
<path d="M22.7015 41.3491C22.1451 41.5963 21.6815 41.1476 21.528 40.6622C21.3078 39.848 21.2621 38.9997 21.3937 38.1682C21.4097 38.0522 21.6047 38.0492 21.5887 38.1682C21.5104 38.7601 21.5104 39.3591 21.5887 39.951C21.6463 40.4027 21.8478 41.5261 22.6056 41.1903C22.7175 41.1384 22.8166 41.3002 22.7047 41.3491H22.7015Z" fill="black"/>
<path d="M12.9707 35.0444C16.5549 36.1536 20.4076 36.1972 24.0184 35.1696C25.1757 34.8382 26.2952 34.3964 27.3598 33.8509C27.4909 33.7868 27.3598 33.6036 27.2351 33.6677C23.2241 35.6904 18.5692 36.2191 14.173 35.1513L13.9652 35.0994C13.6838 35.0261 13.4024 34.9467 13.1242 34.8613L12.9707 35.0444Z" fill="black"/>
<path d="M25.4393 32.7923C25.7028 33.2415 25.8692 33.7366 25.9285 34.2484C25.9285 34.3888 26.1747 34.3766 26.1555 34.2484C26.0924 33.6991 25.914 33.1675 25.6311 32.6854C25.5576 32.5633 25.3689 32.6854 25.4393 32.8045V32.7923Z" fill="black"/>
<path d="M14.4116 33.1372C14.1501 33.7651 13.9947 34.4286 13.9512 35.1031C13.9512 35.2435 14.1686 35.2313 14.1782 35.1031C14.2227 34.4665 14.3705 33.8404 14.6163 33.2471C14.6706 33.1189 14.466 33.0181 14.4116 33.1494V33.1372Z" fill="black"/>
<path d="M18.5817 33.7749C18.401 34.3691 18.3403 34.9907 18.4027 35.6065C18.4027 35.7469 18.6457 35.7347 18.6329 35.6065C18.5715 35.0072 18.6301 34.4022 18.8055 33.8238C18.8471 33.6895 18.6233 33.6437 18.5817 33.778V33.7749Z" fill="black"/>
<path d="M22.2724 34.2612C22.2809 34.4045 22.3486 34.5387 22.4608 34.6343C22.5163 34.6816 22.581 34.718 22.6513 34.7415C22.7216 34.7649 22.796 34.775 22.8703 34.7709C22.9447 34.7669 23.0174 34.749 23.0845 34.7181C23.1516 34.6873 23.2116 34.6441 23.2612 34.5911C23.3108 34.5381 23.3489 34.4763 23.3735 34.4092C23.3981 34.3421 23.4085 34.2711 23.4043 34.2001C23.3959 34.0568 23.3281 33.9226 23.216 33.827C23.1038 33.7314 22.9565 33.6822 22.8064 33.6903C22.6563 33.6984 22.5157 33.7631 22.4155 33.8702C22.3154 33.9772 22.2639 34.1179 22.2724 34.2612Z" fill="black"/>
<path d="M14.5848 36.891C13.9453 38.6584 12.906 40.8991 10.6166 40.9387C10.4663 40.9387 10.4823 41.1585 10.6166 41.1585C13.0211 41.1158 14.1339 38.7989 14.7958 36.9368C14.8438 36.8055 14.6167 36.7597 14.572 36.891H14.5848Z" fill="black"/>
<path d="M25.9569 36.2912C26.2959 36.919 26.7649 37.4745 27.3354 37.9241C27.9059 38.3738 28.5661 38.7083 29.276 38.9073C29.4167 38.947 29.4646 38.7333 29.3239 38.6936C28.6441 38.4998 28.0126 38.1761 27.4679 37.7421C26.9232 37.3081 26.4765 36.773 26.1551 36.1691C26.088 36.0439 25.8961 36.1691 25.9633 36.2912H25.9569Z" fill="black"/>
<path d="M9.87429 35.0691C9.99339 34.6871 10.2109 34.3397 10.507 34.0587C10.803 33.7776 11.1682 33.5719 11.569 33.4604C11.7555 33.3934 11.9612 33.3934 12.1478 33.4604C12.5954 33.7016 15.598 35.292 15.8058 35.817C16.0136 36.3421 13.4748 35.3835 13.4748 35.3835C13.4748 35.3835 15.5884 36.8427 15.243 37.1357C14.8977 37.4288 12.5347 36.1345 12.5347 36.1345C12.5347 36.1345 13.8489 37.3067 13.8905 37.6608C13.9608 38.2408 11.6042 36.745 11.6042 36.745C11.6042 36.745 12.3076 38.137 12.0934 38.369C11.8792 38.601 10.1269 38.1919 10.2228 37.8714C10.3347 37.499 10.8879 37.7707 10.9711 37.7218C11.0542 37.673 9.58011 37.2548 9.50977 36.7175C9.55089 36.1546 9.67357 35.5999 9.87429 35.0691Z" fill="#DF6966"/>
</svg>
