<svg width="48" height="50" viewBox="0 0 48 50" fill="none" xmlns="http://www.w3.org/2000/svg">
<rect width="48.001" height="48.9715" transform="translate(0 0.990234)" fill="#F2C744"/>
<path d="M24.321 17.0031C23.6741 16.9511 23.0242 17.0572 22.4275 17.3123C21.8307 17.5675 21.3051 17.964 20.8958 18.4677C20.4865 18.9714 20.2059 19.5671 20.0783 20.2034C19.9506 20.8397 19.9797 21.4976 20.163 22.1201L16.176 26.1061C16.0634 26.2185 16.0001 26.3711 16 26.5301V29.3901C16 29.5493 16.0632 29.7019 16.1757 29.8144C16.2883 29.9269 16.4409 29.9901 16.6 29.9901H19.4C19.5591 29.9901 19.7117 29.9269 19.8243 29.8144C19.9368 29.7019 20 29.5493 20 29.3901V27.9901H21.9C22.0591 27.9901 22.2117 27.9269 22.3243 27.8144C22.4368 27.7019 22.5 27.5493 22.5 27.3901V25.6971L23.235 24.9621C23.0196 24.6983 22.8291 24.4151 22.666 24.1161L21.676 25.1071C21.5634 25.2195 21.5001 25.3721 21.5 25.5311V26.9901H19.601C19.4419 26.9901 19.2893 27.0533 19.1767 27.1659C19.0642 27.2784 19.001 27.431 19.001 27.5901V28.9901H17.001V26.6971L21.321 22.3771L21.203 22.0741C21.0528 21.6863 20.9849 21.2715 21.0036 20.856C21.0222 20.4406 21.127 20.0335 21.3113 19.6607C21.4956 19.2879 21.7554 18.9575 22.0741 18.6904C22.3929 18.4233 22.7637 18.2253 23.163 18.1091C23.493 17.6861 23.883 17.3131 24.32 17.0031H24.321ZM27.501 21.2401C27.5995 21.2401 27.697 21.2207 27.788 21.183C27.879 21.1453 27.9617 21.0901 28.0313 21.0205C28.101 20.9508 28.1562 20.8681 28.1939 20.7771C28.2316 20.6861 28.251 20.5886 28.251 20.4901C28.251 20.3916 28.2316 20.2941 28.1939 20.2031C28.1562 20.1121 28.101 20.0294 28.0313 19.9598C27.9617 19.8902 27.879 19.8349 27.788 19.7972C27.697 19.7595 27.5995 19.7401 27.501 19.7401C27.3021 19.7401 27.1113 19.8191 26.9707 19.9598C26.83 20.1005 26.751 20.2912 26.751 20.4901C26.751 20.689 26.83 20.8798 26.9707 21.0205C27.1113 21.1611 27.3021 21.2401 27.501 21.2401ZM23.001 21.4901C23.0011 20.7127 23.2025 19.9486 23.5858 19.2722C23.969 18.5958 24.5209 18.0302 25.1878 17.6305C25.8546 17.2309 26.6136 17.0109 27.3908 16.9918C28.168 16.9728 28.9369 17.1554 29.6225 17.5219C30.3081 17.8884 30.887 18.4263 31.3029 19.0831C31.7188 19.74 31.9575 20.4933 31.9956 21.2698C32.0337 22.0463 31.87 22.8194 31.5205 23.5138C31.1709 24.2082 30.6474 24.8002 30.001 25.2321V27.2821L30.784 28.0661C30.8964 28.1786 30.9595 28.3311 30.9595 28.4901C30.9595 28.6491 30.8964 28.8016 30.784 28.9141L29.708 29.9901L30.776 31.0571C30.8357 31.1168 30.8821 31.1885 30.9122 31.2673C30.9423 31.3462 30.9554 31.4305 30.9507 31.5148C30.946 31.5991 30.9235 31.6814 30.8848 31.7564C30.8461 31.8315 30.792 31.8975 30.726 31.9501L28.376 33.8301C28.2696 33.9153 28.1373 33.9618 28.001 33.9618C27.8647 33.9618 27.7324 33.9153 27.626 33.8301L25.226 31.9101C25.1558 31.854 25.0992 31.7827 25.0602 31.7017C25.0213 31.6207 25.0011 31.532 25.001 31.4421V25.2321C24.3854 24.8212 23.8807 24.2647 23.5318 23.6119C23.1829 22.9591 23.0006 22.2303 23.001 21.4901ZM27.501 17.9901C26.7302 17.9898 25.9809 18.2439 25.3693 18.7129C24.7578 19.182 24.3181 19.8399 24.1186 20.5844C23.9192 21.3289 23.9711 22.1184 24.2662 22.8304C24.5614 23.5424 25.0833 24.1371 25.751 24.5221C25.827 24.566 25.8901 24.6291 25.934 24.7051C25.9779 24.7811 26.001 24.8674 26.001 24.9551V31.2501L28.001 32.8501L29.752 31.4491L28.718 30.4141C28.6056 30.3016 28.5425 30.1491 28.5425 29.9901C28.5425 29.8311 28.6056 29.6786 28.718 29.5661L29.794 28.4901L29.177 27.8731C29.0644 27.7607 29.0011 27.6082 29.001 27.4491V24.9551C29.001 24.8674 29.0241 24.7811 29.068 24.7051C29.1119 24.6291 29.175 24.566 29.251 24.5221C29.9187 24.1371 30.4406 23.5424 30.7358 22.8304C31.0309 22.1184 31.0828 21.3289 30.8834 20.5844C30.6839 19.8399 30.2443 19.182 29.6327 18.7129C29.0211 18.2439 28.2718 17.9898 27.501 17.9901Z" fill="white"/>
</svg>
