<svg width="382" height="89" viewBox="0 0 382 89" fill="none" xmlns="http://www.w3.org/2000/svg">
<path d="M88.48 44.62C88.48 50.98 87.42 56.88 85.3 62.32C83.18 67.72 80.2 72.4 76.36 76.36C72.52 80.32 67.9 83.42 62.5 85.66C57.1 87.86 51.12 88.96 44.56 88.96C38 88.96 32 87.86 26.56 85.66C21.16 83.42 16.52 80.32 12.64 76.36C8.8 72.4 5.82 67.72 3.7 62.32C1.58 56.88 0.52 50.98 0.52 44.62C0.52 38.26 1.58 32.38 3.7 26.98C5.82 21.54 8.8 16.84 12.64 12.88C16.52 8.92 21.16 5.84 26.56 3.64C32 1.4 38 0.279999 44.56 0.279999C51.12 0.279999 57.1 1.4 62.5 3.64C67.9 5.88 72.52 8.98 76.36 12.94C80.2 16.86 83.18 21.54 85.3 26.98C87.42 32.38 88.48 38.26 88.48 44.62ZM71.92 44.62C71.92 39.86 71.28 35.6 70 31.84C68.76 28.04 66.96 24.82 64.6 22.18C62.24 19.54 59.36 17.52 55.96 16.12C52.6 14.72 48.8 14.02 44.56 14.02C40.32 14.02 36.5 14.72 33.1 16.12C29.7 17.52 26.8 19.54 24.4 22.18C22.04 24.82 20.22 28.04 18.94 31.84C17.66 35.6 17.02 39.86 17.02 44.62C17.02 49.38 17.66 53.66 18.94 57.46C20.22 61.22 22.04 64.42 24.4 67.06C26.8 69.66 29.7 71.66 33.1 73.06C36.5 74.46 40.32 75.16 44.56 75.16C48.8 75.16 52.6 74.46 55.96 73.06C59.36 71.66 62.24 69.66 64.6 67.06C66.96 64.42 68.76 61.22 70 57.46C71.28 53.66 71.92 49.38 71.92 44.62ZM184.457 44.62C184.457 50.98 183.397 56.88 181.277 62.32C179.157 67.72 176.177 72.4 172.337 76.36C168.497 80.32 163.877 83.42 158.477 85.66C153.077 87.86 147.097 88.96 140.537 88.96C133.977 88.96 127.977 87.86 122.537 85.66C117.137 83.42 112.497 80.32 108.617 76.36C104.777 72.4 101.797 67.72 99.6766 62.32C97.5566 56.88 96.4966 50.98 96.4966 44.62C96.4966 38.26 97.5566 32.38 99.6766 26.98C101.797 21.54 104.777 16.84 108.617 12.88C112.497 8.92 117.137 5.84 122.537 3.64C127.977 1.4 133.977 0.279999 140.537 0.279999C147.097 0.279999 153.077 1.4 158.477 3.64C163.877 5.88 168.497 8.98 172.337 12.94C176.177 16.86 179.157 21.54 181.277 26.98C183.397 32.38 184.457 38.26 184.457 44.62ZM167.897 44.62C167.897 39.86 167.257 35.6 165.977 31.84C164.737 28.04 162.937 24.82 160.577 22.18C158.217 19.54 155.337 17.52 151.937 16.12C148.577 14.72 144.777 14.02 140.537 14.02C136.297 14.02 132.477 14.72 129.077 16.12C125.677 17.52 122.777 19.54 120.377 22.18C118.017 24.82 116.197 28.04 114.917 31.84C113.637 35.6 112.997 39.86 112.997 44.62C112.997 49.38 113.637 53.66 114.917 57.46C116.197 61.22 118.017 64.42 120.377 67.06C122.777 69.66 125.677 71.66 129.077 73.06C132.477 74.46 136.297 75.16 140.537 75.16C144.777 75.16 148.577 74.46 151.937 73.06C155.337 71.66 158.217 69.66 160.577 67.06C162.937 64.42 164.737 61.22 165.977 57.46C167.257 53.66 167.897 49.38 167.897 44.62ZM213.893 57.46V88H197.753V1.23999H226.013C231.813 1.23999 236.833 1.91999 241.073 3.28C245.313 4.64 248.813 6.54 251.573 8.98C254.333 11.42 256.373 14.34 257.693 17.74C259.013 21.14 259.673 24.86 259.673 28.9C259.673 33.1 258.973 36.96 257.573 40.48C256.173 43.96 254.073 46.96 251.273 49.48C248.473 52 244.973 53.96 240.773 55.36C236.573 56.76 231.653 57.46 226.013 57.46H213.893ZM213.893 44.86H226.013C228.973 44.86 231.553 44.5 233.753 43.78C235.953 43.02 237.773 41.96 239.213 40.6C240.653 39.2 241.733 37.52 242.453 35.56C243.173 33.56 243.533 31.34 243.533 28.9C243.533 26.58 243.173 24.48 242.453 22.6C241.733 20.72 240.653 19.12 239.213 17.8C237.773 16.48 235.953 15.48 233.753 14.8C231.553 14.08 228.973 13.72 226.013 13.72H213.893V44.86ZM318.713 17.02C318.273 17.9 317.753 18.52 317.153 18.88C316.593 19.24 315.913 19.42 315.113 19.42C314.313 19.42 313.413 19.12 312.413 18.52C311.413 17.88 310.233 17.18 308.873 16.42C307.513 15.66 305.913 14.98 304.073 14.38C302.273 13.74 300.133 13.42 297.653 13.42C295.413 13.42 293.453 13.7 291.773 14.26C290.133 14.78 288.733 15.52 287.573 16.48C286.453 17.44 285.613 18.6 285.053 19.96C284.493 21.28 284.213 22.74 284.213 24.34C284.213 26.38 284.773 28.08 285.893 29.44C287.053 30.8 288.573 31.96 290.453 32.92C292.333 33.88 294.473 34.74 296.873 35.5C299.273 36.26 301.713 37.08 304.193 37.96C306.713 38.8 309.173 39.8 311.573 40.96C313.973 42.08 316.113 43.52 317.993 45.28C319.873 47 321.373 49.12 322.493 51.64C323.653 54.16 324.233 57.22 324.233 60.82C324.233 64.74 323.553 68.42 322.193 71.86C320.873 75.26 318.913 78.24 316.313 80.8C313.753 83.32 310.613 85.32 306.893 86.8C303.173 88.24 298.913 88.96 294.113 88.96C291.353 88.96 288.633 88.68 285.953 88.12C283.273 87.6 280.693 86.84 278.213 85.84C275.773 84.84 273.473 83.64 271.313 82.24C269.193 80.84 267.293 79.28 265.613 77.56L270.293 69.82C270.733 69.26 271.253 68.8 271.853 68.44C272.493 68.04 273.193 67.84 273.953 67.84C274.953 67.84 276.033 68.26 277.193 69.1C278.353 69.9 279.713 70.8 281.273 71.8C282.873 72.8 284.733 73.72 286.853 74.56C289.013 75.36 291.593 75.76 294.593 75.76C299.193 75.76 302.753 74.68 305.273 72.52C307.793 70.32 309.053 67.18 309.053 63.1C309.053 60.82 308.473 58.96 307.313 57.52C306.193 56.08 304.693 54.88 302.813 53.92C300.933 52.92 298.793 52.08 296.393 51.4C293.993 50.72 291.553 49.98 289.073 49.18C286.593 48.38 284.153 47.42 281.753 46.3C279.353 45.18 277.213 43.72 275.333 41.92C273.453 40.12 271.933 37.88 270.773 35.2C269.653 32.48 269.093 29.14 269.093 25.18C269.093 22.02 269.713 18.94 270.953 15.94C272.233 12.94 274.073 10.28 276.473 7.95999C278.913 5.63999 281.893 3.78 285.413 2.38C288.933 0.979999 292.953 0.279999 297.473 0.279999C302.593 0.279999 307.313 1.08 311.633 2.68C315.953 4.28 319.633 6.52 322.673 9.4L318.713 17.02ZM379.792 1.23999V35.56C379.792 39.2 379.612 42.78 379.252 46.3C378.892 49.78 378.412 53.48 377.812 57.4H367.792C367.192 53.48 366.712 49.78 366.352 46.3C365.992 42.78 365.812 39.2 365.812 35.56V1.23999H379.792ZM363.532 79.84C363.532 78.6 363.752 77.42 364.192 76.3C364.672 75.18 365.312 74.22 366.112 73.42C366.952 72.62 367.932 71.98 369.052 71.5C370.172 71.02 371.372 70.78 372.652 70.78C373.892 70.78 375.072 71.02 376.192 71.5C377.312 71.98 378.272 72.62 379.072 73.42C379.872 74.22 380.512 75.18 380.992 76.3C381.472 77.42 381.712 78.6 381.712 79.84C381.712 81.12 381.472 82.32 380.992 83.44C380.512 84.52 379.872 85.46 379.072 86.26C378.272 87.06 377.312 87.68 376.192 88.12C375.072 88.6 373.892 88.84 372.652 88.84C371.372 88.84 370.172 88.6 369.052 88.12C367.932 87.68 366.952 87.06 366.112 86.26C365.312 85.46 364.672 84.52 364.192 83.44C363.752 82.32 363.532 81.12 363.532 79.84Z" fill="black"/>
</svg>
