<svg width="174" height="39" viewBox="0 0 174 39" fill="none" xmlns="http://www.w3.org/2000/svg">
<path d="M11.6515 11.8174C11.6514 10.5621 11.2503 9.34056 10.5079 8.33528C9.76558 7.33 8.72194 6.59497 7.53295 6.24001C6.34397 5.88506 5.07348 5.92925 3.91135 6.36597C2.74921 6.8027 1.75783 7.60852 1.08535 8.66301C0.412873 9.71749 0.0954034 10.964 0.180385 12.2163C0.265367 13.4687 0.748236 14.6595 1.55684 15.6109C2.36544 16.5624 3.45635 17.2233 4.66655 17.4949C5.87676 17.7665 7.14127 17.6343 8.27113 17.118C8.68511 16.9277 9.03305 16.7451 10.4096 17.2157C10.5721 17.2697 10.7702 17.3263 10.9912 17.3958C11.0673 17.42 11.148 17.4257 11.2267 17.4125C11.3054 17.3993 11.38 17.3675 11.4443 17.3196C11.5086 17.2718 11.5609 17.2093 11.5969 17.1372C11.6329 17.065 11.6516 16.9853 11.6515 16.9045V11.8174Z" fill="#F5F5F5"/>
<path d="M15.1759 27.192C15.176 28.4473 15.5771 29.6688 16.3195 30.6741C17.0618 31.6794 18.1055 32.4144 19.2945 32.7694C20.4834 33.1243 21.7539 33.0802 22.9161 32.6434C24.0782 32.2067 25.0696 31.4009 25.7421 30.3464C26.4145 29.2919 26.732 28.0454 26.647 26.7931C26.562 25.5407 26.0792 24.3499 25.2706 23.3985C24.462 22.4471 23.3711 21.7861 22.1609 21.5145C20.9507 21.2429 19.6861 21.3751 18.5563 21.8914C18.1398 22.0817 17.7944 22.2643 16.4153 21.7937C16.2553 21.7397 16.0572 21.6831 15.8362 21.6136C15.7601 21.5894 15.6794 21.5837 15.6007 21.5969C15.522 21.6101 15.4474 21.6419 15.3831 21.6898C15.3188 21.7376 15.2665 21.8001 15.2305 21.8722C15.1945 21.9444 15.1758 22.0241 15.1759 22.1049V27.192Z" fill="white"/>
<path d="M21.0908 17.6327C24.2622 17.6327 26.8331 15.0292 26.8331 11.8177C26.8331 8.60615 24.2622 6.00269 21.0908 6.00269C17.9194 6.00269 15.3485 8.60615 15.3485 11.8177C15.3485 15.0292 17.9194 17.6327 21.0908 17.6327Z" fill="#F5F5F5"/>
<path d="M5.90918 33.0072C9.08058 33.0072 11.6515 30.4037 11.6515 27.1922C11.6515 23.9807 9.08058 21.3772 5.90918 21.3772C2.73779 21.3772 0.16687 23.9807 0.16687 27.1922C0.16687 30.4037 2.73779 33.0072 5.90918 33.0072Z" fill="white"/>
<path d="M61.2172 9.85688C61.2172 10.0702 61.1799 10.2782 61.1052 10.4809C61.0412 10.6835 60.9505 10.8755 60.8332 11.0569L48.4652 28.4809H60.9772V31.5049H43.5692V30.0329C43.5692 29.8302 43.6012 29.6435 43.6652 29.4729C43.7292 29.2915 43.8145 29.1209 43.9212 28.9609L56.3372 11.4889H44.2572V8.46488H61.2172V9.85688ZM77.3142 15.1849V31.5049H75.2342C74.7755 31.5049 74.4822 31.2862 74.3542 30.8489L74.0982 29.3289C73.7569 29.6915 73.3942 30.0222 73.0102 30.3209C72.6369 30.6195 72.2369 30.8755 71.8102 31.0889C71.3835 31.3022 70.9249 31.4675 70.4342 31.5849C69.9542 31.7022 69.4369 31.7609 68.8822 31.7609C67.9862 31.7609 67.1969 31.6115 66.5142 31.3129C65.8315 31.0142 65.2555 30.5929 64.7862 30.0489C64.3275 29.5049 63.9809 28.8542 63.7462 28.0969C63.5115 27.3289 63.3942 26.4862 63.3942 25.5689V15.1849H66.8342V25.5689C66.8342 26.6675 67.0849 27.5209 67.5862 28.1289C68.0982 28.7369 68.8715 29.0409 69.9062 29.0409C70.6635 29.0409 71.3675 28.8702 72.0182 28.5289C72.6795 28.1769 73.2982 27.6969 73.8742 27.0889V15.1849H77.3142ZM84.7397 18.2089C85.2517 17.1742 85.8704 16.3635 86.5957 15.7769C87.321 15.1795 88.1904 14.8809 89.2037 14.8809C89.5557 14.8809 89.8864 14.9235 90.1957 15.0089C90.505 15.0835 90.7824 15.2009 91.0277 15.3609L90.7877 17.9529C90.745 18.1342 90.6757 18.2622 90.5797 18.3369C90.4944 18.4009 90.377 18.4329 90.2277 18.4329C90.0677 18.4329 89.8384 18.4062 89.5397 18.3529C89.241 18.2889 88.9264 18.2569 88.5957 18.2569C88.1157 18.2569 87.689 18.3262 87.3157 18.4649C86.953 18.6035 86.6224 18.8062 86.3237 19.0729C86.0357 19.3395 85.7797 19.6649 85.5557 20.0489C85.3317 20.4329 85.1237 20.8702 84.9317 21.3609V31.5049H81.4917V15.1849H83.4917C83.8544 15.1849 84.105 15.2542 84.2437 15.3929C84.3824 15.5209 84.4784 15.7502 84.5317 16.0809L84.7397 18.2089ZM96.8882 15.1849V31.5049H93.4482V15.1849H96.8882ZM97.4642 10.2569C97.4642 10.5662 97.4002 10.8595 97.2722 11.1369C97.1549 11.4142 96.9895 11.6595 96.7762 11.8729C96.5629 12.0755 96.3122 12.2409 96.0242 12.3689C95.7469 12.4862 95.4482 12.5449 95.1282 12.5449C94.8189 12.5449 94.5255 12.4862 94.2482 12.3689C93.9815 12.2409 93.7469 12.0755 93.5442 11.8729C93.3415 11.6595 93.1762 11.4142 93.0482 11.1369C92.9309 10.8595 92.8722 10.5662 92.8722 10.2569C92.8722 9.93688 92.9309 9.63822 93.0482 9.36088C93.1762 9.08355 93.3415 8.84355 93.5442 8.64088C93.7469 8.42755 93.9815 8.26221 94.2482 8.14488C94.5255 8.01688 94.8189 7.95288 95.1282 7.95288C95.4482 7.95288 95.7469 8.01688 96.0242 8.14488C96.3122 8.26221 96.5629 8.42755 96.7762 8.64088C96.9895 8.84355 97.1549 9.08355 97.2722 9.36088C97.4002 9.63822 97.4642 9.93688 97.4642 10.2569ZM125.819 26.3689C126.022 26.3689 126.198 26.4489 126.347 26.6089L127.835 28.2249C126.897 29.3555 125.745 30.2302 124.379 30.8489C123.014 31.4569 121.382 31.7609 119.483 31.7609C117.798 31.7609 116.273 31.4729 114.907 30.8969C113.553 30.3102 112.395 29.4995 111.435 28.4649C110.475 27.4195 109.734 26.1769 109.211 24.7369C108.699 23.2969 108.443 21.7129 108.443 19.9849C108.443 18.2569 108.715 16.6729 109.259 15.2329C109.814 13.7822 110.587 12.5395 111.579 11.5049C112.582 10.4595 113.777 9.64888 115.163 9.07288C116.561 8.49688 118.097 8.20888 119.771 8.20888C121.435 8.20888 122.902 8.48088 124.171 9.02488C125.451 9.55822 126.561 10.2729 127.499 11.1689L126.267 12.9129C126.182 13.0302 126.081 13.1315 125.963 13.2169C125.846 13.3022 125.686 13.3449 125.483 13.3449C125.27 13.3449 125.025 13.2489 124.747 13.0569C124.481 12.8542 124.134 12.6355 123.707 12.4009C123.291 12.1555 122.763 11.9369 122.123 11.7449C121.494 11.5422 120.705 11.4409 119.755 11.4409C118.657 11.4409 117.649 11.6329 116.731 12.0169C115.814 12.4009 115.025 12.9609 114.363 13.6969C113.702 14.4329 113.185 15.3289 112.811 16.3849C112.449 17.4409 112.267 18.6409 112.267 19.9849C112.267 21.3395 112.459 22.5502 112.843 23.6169C113.227 24.6729 113.755 25.5689 114.427 26.3049C115.099 27.0302 115.889 27.5849 116.795 27.9689C117.702 28.3529 118.678 28.5449 119.723 28.5449C120.363 28.5449 120.934 28.5129 121.435 28.4489C121.947 28.3742 122.417 28.2622 122.843 28.1129C123.27 27.9529 123.67 27.7555 124.043 27.5209C124.427 27.2862 124.806 26.9982 125.179 26.6569C125.393 26.4649 125.606 26.3689 125.819 26.3689ZM133.869 17.1209C134.541 16.4595 135.277 15.9315 136.077 15.5369C136.877 15.1315 137.811 14.9289 138.877 14.9289C139.773 14.9289 140.557 15.0782 141.229 15.3769C141.912 15.6755 142.483 16.0969 142.941 16.6409C143.411 17.1849 143.763 17.8409 143.997 18.6089C144.232 19.3662 144.349 20.2035 144.349 21.1209V31.5049H140.925V21.1209C140.925 20.0222 140.669 19.1689 140.157 18.5609C139.656 17.9529 138.888 17.6489 137.853 17.6489C137.085 17.6489 136.371 17.8249 135.709 18.1769C135.059 18.5289 134.445 19.0089 133.869 19.6169V31.5049H130.429V7.82488H133.869V17.1209ZM157.087 24.3689C155.86 24.4115 154.825 24.5129 153.983 24.6729C153.14 24.8222 152.457 25.0195 151.935 25.2649C151.412 25.4995 151.033 25.7822 150.799 26.1129C150.575 26.4435 150.463 26.8062 150.463 27.2009C150.463 27.5849 150.521 27.9155 150.639 28.1929C150.767 28.4595 150.937 28.6835 151.151 28.8649C151.375 29.0355 151.631 29.1635 151.919 29.2489C152.217 29.3235 152.543 29.3609 152.895 29.3609C153.791 29.3609 154.559 29.1955 155.199 28.8649C155.849 28.5235 156.479 28.0329 157.087 27.3929V24.3689ZM147.967 17.4569C149.812 15.7395 152.009 14.8809 154.559 14.8809C155.497 14.8809 156.329 15.0355 157.055 15.3449C157.791 15.6435 158.404 16.0702 158.895 16.6249C159.396 17.1795 159.775 17.8409 160.031 18.6089C160.297 19.3662 160.431 20.2089 160.431 21.1369V31.5049H158.895C158.564 31.5049 158.313 31.4569 158.143 31.3609C157.972 31.2542 157.828 31.0462 157.711 30.7369L157.375 29.4089C156.959 29.7822 156.548 30.1182 156.143 30.4169C155.737 30.7049 155.316 30.9502 154.879 31.1529C154.452 31.3555 153.988 31.5049 153.487 31.6009C152.996 31.7075 152.452 31.7609 151.855 31.7609C151.193 31.7609 150.575 31.6702 149.999 31.4889C149.433 31.3075 148.943 31.0355 148.527 30.6729C148.111 30.2995 147.78 29.8409 147.535 29.2969C147.3 28.7529 147.183 28.1129 147.183 27.3769C147.183 26.7475 147.348 26.1342 147.679 25.5369C148.02 24.9395 148.575 24.4062 149.343 23.9369C150.121 23.4569 151.14 23.0622 152.399 22.7529C153.668 22.4435 155.231 22.2675 157.087 22.2249V21.1369C157.087 19.9635 156.836 19.0889 156.335 18.5129C155.833 17.9369 155.097 17.6489 154.127 17.6489C153.465 17.6489 152.911 17.7342 152.463 17.9049C152.015 18.0649 151.625 18.2409 151.295 18.4329C150.964 18.6249 150.671 18.8062 150.415 18.9769C150.159 19.1369 149.887 19.2169 149.599 19.2169C149.364 19.2169 149.161 19.1582 148.991 19.0409C148.831 18.9129 148.697 18.7582 148.591 18.5769L147.967 17.4569ZM169.474 31.7609C168.119 31.7609 167.074 31.3822 166.338 30.6249C165.612 29.8569 165.25 28.7795 165.25 27.3929V17.8889H163.458C163.266 17.8889 163.1 17.8302 162.962 17.7129C162.823 17.5849 162.754 17.3982 162.754 17.1529V15.7609L165.394 15.3769L166.146 10.6569C166.199 10.4755 166.29 10.3315 166.418 10.2249C166.546 10.1075 166.716 10.0489 166.93 10.0489H168.69V15.4089H173.218V17.8889H168.69V27.1529C168.69 27.7395 168.834 28.1875 169.122 28.4969C169.41 28.8062 169.794 28.9609 170.274 28.9609C170.54 28.9609 170.77 28.9289 170.962 28.8649C171.154 28.7902 171.319 28.7155 171.458 28.6409C171.596 28.5555 171.714 28.4809 171.81 28.4169C171.916 28.3422 172.018 28.3049 172.114 28.3049C172.306 28.3049 172.46 28.4115 172.578 28.6249L173.602 30.3049C173.068 30.7742 172.439 31.1369 171.714 31.3929C170.988 31.6382 170.242 31.7609 169.474 31.7609Z" fill="#F5F5F5"/>
</svg>
